<svg width="67" height="67" viewBox="0 0 67 67" fill="none" xmlns="http://www.w3.org/2000/svg">
<circle cx="40.5" cy="26.5" r="26.5" fill="#56F684"/>
<g clip-path="url(#clip0_579_644)">
<path d="M1.05466 67C0.79656 67.0001 0.5475 66.9057 0.355256 66.7349C0.163012 66.5641 0.0411185 66.3288 0.0129553 66.0744C0.00257369 65.968 -0.00177362 65.8612 -6.60005e-05 65.7543C0.00716808 65.0368 -0.0188746 64.3192 0.0795089 63.6132C0.38334 61.4677 1.57696 59.9422 3.5157 58.9735C3.59527 58.9333 3.67629 58.8975 3.80506 58.83C2.73007 57.5556 2.29748 56.1421 2.80965 54.5434C3.32182 52.9447 4.45613 52.0305 6.07656 51.6C6.07656 51.2656 6.07656 50.9456 6.07656 50.6256C6.08602 49.9549 6.3603 49.3147 6.84049 48.8424C7.32067 48.3701 7.96845 48.1035 8.64466 48.0998C10.2868 48.0797 11.9289 48.0998 13.5711 48.0998C14.4565 48.0998 14.7285 47.8214 14.7372 46.9517C14.7372 46.6489 14.7372 46.3461 14.7372 45.9213L13.6246 46.9632L12.5192 45.7706L15.3101 42.978C15.0092 42.965 14.8399 42.9507 14.6706 42.9507H8.98466C8.08908 42.9507 7.8055 42.6766 7.8055 41.8112C7.8055 32.2535 7.8055 22.6953 7.8055 13.1366C7.81274 12.287 8.09342 12 8.94559 12H43.0514C43.9036 12 44.1929 12.287 44.1929 13.1222C44.1929 22.68 44.1929 32.2382 44.1929 41.7969C44.1929 42.6579 43.9036 42.9349 43.0138 42.9363H36.7635L39.5935 45.7348L38.2914 47.0163L37.4233 45.9099L37.2685 45.963C37.2685 46.4279 37.2323 46.8986 37.2771 47.3607C37.322 47.8228 37.6909 48.0883 38.2523 48.0898C39.8221 48.0898 41.3919 48.0898 42.9617 48.0898C44.9062 48.0898 45.9161 49.0943 45.919 51.0432V51.567C49.3118 52.4481 50.4721 56.2339 48.189 58.8185C48.3554 58.9032 48.5146 58.9778 48.6679 59.0625C50.7658 60.2106 51.8871 61.97 51.9797 64.3551C51.9985 64.8187 51.9913 65.3109 51.9913 65.75C52.0081 66.0293 51.9549 66.3084 51.8364 66.5623C51.7641 66.6944 51.6567 66.8044 51.5259 66.8803C51.395 66.9561 51.2458 66.9951 51.0942 66.9928H39.1956C38.9511 66.9942 38.7139 66.9099 38.5259 66.7547C38.338 66.5995 38.2113 66.3835 38.1684 66.1447C38.1467 66.0198 38.1337 65.8878 38.1221 65.7472C38.101 65.3168 38.1039 64.8856 38.1308 64.4556C38.193 61.9786 39.3403 60.1689 41.5424 59.0108C41.6668 58.9462 41.7883 58.8788 41.9171 58.8085C39.6268 56.1995 40.8204 52.4424 44.1944 51.5641C44.1944 51.4321 44.1944 51.29 44.1944 51.1479C44.1944 50.0185 43.9831 49.8018 42.843 49.8018C41.3644 49.8018 39.8843 49.8018 38.4042 49.8018C36.5942 49.8018 35.5337 48.7585 35.5294 46.9804V45.9572L35.3587 45.8998L34.5007 47.0163L33.1986 45.7247L35.9866 42.9636H26.2929L29.0534 45.7247L27.8656 47.035L26.8904 45.8869V51.6086C28.4747 52.0391 29.609 52.9676 30.1197 54.5448C30.6305 56.122 30.2037 57.5585 29.1562 58.8027C29.2039 58.8544 29.214 58.8716 29.2285 58.8788L29.4195 58.9778C31.4031 59.9637 32.5866 61.5366 32.8759 63.7237C32.9642 64.3924 32.9078 64.9851 32.9121 65.7055C32.8991 65.8491 32.9121 66.0399 32.8918 66.1619C32.8534 66.3974 32.7316 66.6116 32.5485 66.7662C32.3653 66.9208 32.1326 67.0057 31.8921 67.0057H20.0152C19.8231 67.0061 19.6359 66.9464 19.48 66.8351C19.3242 66.7238 19.2077 66.5666 19.1471 66.3858C19.0867 66.1828 19.0589 65.9716 19.0646 65.7601C19.0646 65.3295 19.0646 64.899 19.0748 64.4685C19.137 61.9915 20.2843 60.1819 22.4863 59.0237C22.6093 58.9592 22.7323 58.8917 22.8611 58.8214C20.5635 56.2024 21.776 52.4467 25.0906 51.59V45.9931L24.904 45.9285L24.1357 46.9101L22.8336 45.7448C23.7639 44.8206 24.6754 43.9151 25.6274 42.9665H15.9858L15.9279 43.11L18.6639 45.8223L17.4587 47.0967L16.5992 45.9242C16.4988 46.3047 16.4554 46.6979 16.4705 47.0909C16.4575 48.7255 15.3666 49.8061 13.7114 49.8176C12.2313 49.8176 10.7512 49.8176 9.27113 49.8176C7.96899 49.8176 7.78525 50.0056 7.80695 51.3187C7.80695 51.4063 7.81563 51.4952 7.82142 51.6057C9.41292 52.0291 10.5501 52.9662 11.0594 54.5434C11.5687 56.1206 11.1448 57.5571 10.0741 58.83L10.3635 58.9735C12.3471 59.9594 13.5306 61.5323 13.8199 63.7194C13.8899 64.3958 13.9107 65.0764 13.8821 65.7558C13.8841 65.9693 13.8549 66.182 13.7953 66.3872C13.7349 66.5676 13.6183 66.7244 13.4623 66.8348C13.3062 66.9452 13.1189 67.0035 12.9272 67.0014L1.05466 67ZM42.4336 20.6307H9.5793V41.1913H42.435L42.4336 20.6307ZM9.56049 18.8368H42.435V13.7479H9.56049V18.8368ZM12.1373 65.2592C12.1373 64.9722 12.1373 64.7182 12.1373 64.4699C12.1112 62.2297 10.5545 60.4387 8.32636 60.1646C7.56099 60.0714 6.77682 60.1144 6.00277 60.1288C3.3117 60.1804 1.33824 62.5871 1.80701 65.2578L12.1373 65.2592ZM20.8341 65.242H31.1976C31.1976 64.955 31.1976 64.7053 31.1976 64.457C31.1687 62.2211 29.6061 60.4387 27.3751 60.1603C26.7704 60.0857 26.1511 60.1259 25.5377 60.1245C22.4386 60.1245 20.5679 62.1479 20.8341 65.242ZM50.2044 65.2549C50.5864 62.7091 48.9833 60.4947 46.4731 60.1718C45.594 60.0769 44.7076 60.0687 43.8269 60.1474C41.2776 60.3311 39.3417 62.9085 39.9465 65.2549H50.2044ZM9.50407 56.2267C9.59041 55.6869 9.50188 55.1338 9.25121 54.647C9.00055 54.1602 8.60067 53.7648 8.1091 53.5178C7.61754 53.2707 7.05963 53.1847 6.51564 53.2721C5.97166 53.3594 5.46964 53.6157 5.08181 54.0041C4.69399 54.3924 4.44034 54.8927 4.35738 55.4331C4.27441 55.9735 4.3664 56.526 4.62011 57.0113C4.87381 57.4965 5.27616 57.8894 5.76926 58.1334C6.26236 58.3775 6.8208 58.4601 7.36423 58.3693C7.90221 58.2795 8.39817 58.0244 8.78211 57.64C9.16605 57.2555 9.41859 56.7612 9.50407 56.2267ZM26.0238 58.4052C26.5406 58.4017 27.0446 58.2457 27.4717 57.9572C27.8988 57.6687 28.2298 57.2606 28.4224 56.785C28.615 56.3093 28.6606 55.7876 28.5534 55.2862C28.4462 54.7847 28.191 54.3263 27.8203 53.9691C27.4496 53.612 26.9802 53.3723 26.4717 53.2806C25.9633 53.1889 25.4389 53.2493 24.9651 53.4541C24.4914 53.659 24.0899 53.999 23.8115 54.4309C23.5332 54.8627 23.3907 55.367 23.4022 55.8795C23.4174 56.5575 23.7008 57.2025 24.1913 57.6751C24.6818 58.1477 25.34 58.4099 26.0238 58.4052ZM42.5001 55.3915C42.407 55.9304 42.4886 56.4847 42.7333 56.9747C42.9779 57.4646 43.373 57.865 43.8617 58.118C44.3503 58.371 44.9073 58.4638 45.4525 58.3828C45.9976 58.3019 46.5028 58.0514 46.8954 57.6676C47.2879 57.2837 47.5475 56.7862 47.6368 56.2466C47.7261 55.7071 47.6405 55.1534 47.3923 54.6651C47.1442 54.1769 46.7462 53.7794 46.2558 53.5298C45.7653 53.2802 45.2077 53.1914 44.6631 53.2762C44.124 53.3603 43.6251 53.6104 43.237 53.991C42.8489 54.3716 42.5911 54.8635 42.5001 55.3973V55.3915Z" fill="black"/>
<path d="M17.3357 30.8715C17.3427 29.1708 17.8582 27.5103 18.8171 26.1004C19.776 24.6904 21.1352 23.5945 22.7224 22.9512C24.3097 22.3079 26.0537 22.1463 27.7336 22.4868C29.4136 22.8273 30.9539 23.6546 32.1595 24.8639C33.3651 26.0732 34.1818 27.6102 34.5063 29.2802C34.8307 30.9503 34.6482 32.6782 33.9819 34.2453C33.3157 35.8124 32.1956 37.1482 30.7635 38.0835C29.3314 39.0187 27.6517 39.5115 25.9371 39.4993C21.1872 39.4778 17.3242 35.6016 17.3357 30.8715ZM23.4471 31.7928C23.5339 32.3425 23.6149 32.8548 23.6829 33.2939H28.3272C28.3938 32.829 28.4719 32.3267 28.5428 31.7928H23.4471ZM23.4543 30.0205H28.55L28.3185 28.5337H23.6699C23.6048 28.9815 23.5325 29.4838 23.4543 30.0205ZM21.9699 28.1262L19.8894 27.499C19.6073 28.3601 19.3425 29.1652 19.056 30.0348H21.6733C21.7702 29.402 21.8657 28.7906 21.9699 28.1262ZM19.0198 31.7856C19.3237 32.6166 19.5827 33.3513 19.8677 34.0818C19.9047 34.1335 19.9544 34.1751 20.0122 34.2024C20.0699 34.2298 20.1337 34.2421 20.1976 34.2382C20.7965 34.0689 21.3883 33.8665 21.9713 33.6785C21.8657 33.0213 21.7688 32.4085 21.6704 31.7914L19.0198 31.7856ZM30.3238 30.0133H32.957L32.0889 27.4904L30.0287 28.1333C30.1328 28.7906 30.2283 29.4048 30.3238 30.0133ZM30.0345 33.68L32.0962 34.3258C32.3855 33.4862 32.6575 32.6711 32.9643 31.7914H30.331C30.224 32.42 30.1299 33.0327 30.0316 33.68H30.0345ZM27.5937 26.8202L27.7094 26.6423C27.1625 25.8673 26.6214 25.0938 26.0427 24.2787C25.2874 25.0967 24.7246 25.8573 24.3065 26.8202H27.5937ZM24.4107 34.9888L24.2906 35.1667L26.0123 37.6222L27.7094 35.1194L27.5778 34.9888H24.4107ZM23.5064 24.6288L23.3936 24.4609C22.6306 24.9556 21.8672 25.4444 21.1033 25.9276L21.1582 26.0941L22.5081 26.4686C22.8597 25.8157 23.1838 25.223 23.5064 24.6288ZM30.93 26.0639C30.1603 25.355 29.4196 24.834 28.4198 24.4853C28.8104 25.2029 29.1432 25.807 29.4933 26.4571L30.93 26.0639ZM23.4066 37.3423L23.518 37.1988L22.5052 35.3332L21.1611 35.7207L21.1134 35.8929L23.4066 37.3423ZM29.4832 35.3332L28.4777 37.1988L28.6021 37.3423L30.8837 35.8742L30.823 35.7078L29.4832 35.3332Z" fill="black"/>
<path d="M40.7033 15.4744V17.129H27.7789V15.4744H40.7033Z" fill="black"/>
<path d="M12.9751 17.1333H11.3083V15.47H12.9751V17.1333Z" fill="black"/>
<path d="M16.4474 15.4629V17.1219H14.7662V15.4629H16.4474Z" fill="black"/>
<path d="M18.2299 17.1161V15.4686H19.9082V17.1161H18.2299Z" fill="black"/>
</g>
<defs>
<clipPath id="clip0_579_644">
<rect width="52" height="55" fill="white" transform="translate(0 12)"/>
</clipPath>
</defs>
</svg>
