<svg width="68" height="68" viewBox="0 0 68 68" fill="none" xmlns="http://www.w3.org/2000/svg">
<circle cx="41.5" cy="26.5" r="26.5" fill="#56F684"/>
<path d="M2.9486 42.0121H24.4111C25.7477 42.0121 25.9946 42.259 25.9946 43.5901C25.9946 50.4453 25.9946 57.3006 25.9946 64.1559V65.0507C27.3257 65.0507 28.5936 65.0321 29.8597 65.0637C30.1605 65.0637 30.5541 65.1491 30.7341 65.3496C30.8407 65.4769 30.9184 65.6258 30.962 65.786C31.0056 65.9463 31.014 66.114 30.9866 66.2778C30.9105 66.5507 30.5708 66.792 30.2923 66.9554C30.1066 67.0575 29.8393 66.9962 29.6091 66.9962H2.50676C1.25551 66.9962 1.00675 66.7475 1.00675 65.4962C1.00675 56.4615 1.00675 47.4268 1.00675 38.392C1.00675 38.2305 0.997468 38.0671 1.00675 37.9056C1.05687 37.3097 1.43745 36.931 1.9851 36.9533C2.59773 36.9755 2.92447 37.3357 2.93932 37.926C2.96345 39.0139 2.93932 40.1037 2.93932 41.1915L2.9486 42.0121ZM2.99872 43.9911V64.9913H23.9896V43.9836L2.99872 43.9911Z" fill="black" stroke="black" stroke-width="0.4" stroke-miterlimit="10"/>
<path d="M30.6097 36.4018L43.371 23.6331C42.6599 23.6331 41.9081 23.6331 41.1544 23.6331C40.4415 23.6331 40.0219 23.2804 40.0015 22.7049C39.9792 22.1034 40.4173 21.6968 41.1506 21.6912C42.7026 21.6776 44.2546 21.6776 45.8066 21.6912C46.5492 21.6912 46.9038 22.0625 46.9094 22.8051C46.9242 24.3819 46.9242 25.9574 46.9094 27.5316C46.9094 28.2074 46.5381 28.5917 45.9811 28.6084C45.4242 28.6251 44.9972 28.2148 44.9749 27.5242C44.9527 26.7612 44.9749 25.9982 44.9749 25.3652L32.3511 37.989C32.7669 37.989 33.3276 37.989 33.8882 37.989C34.2123 37.9811 34.5364 38.0004 34.8573 38.0466C35.0797 38.0781 35.2812 38.1944 35.4197 38.3713C35.5581 38.5482 35.6227 38.7718 35.5999 38.9952C35.5831 39.4835 35.3102 39.8826 34.8034 39.8919C33.0435 39.929 31.2836 39.929 29.5237 39.8919C28.9835 39.8919 28.6901 39.4779 28.6827 38.9637C28.6641 37.2929 28.6604 35.6221 28.6827 33.9605C28.6783 33.8318 28.7016 33.7037 28.7508 33.5847C28.8001 33.4657 28.8743 33.3587 28.9684 33.2707C29.0625 33.1828 29.1743 33.116 29.2963 33.0749C29.4184 33.0338 29.5478 33.0193 29.6759 33.0323C30.2904 33.0694 30.6041 33.4352 30.6041 34.0292C30.6301 34.8424 30.6097 35.6443 30.6097 36.4018Z" fill="black" stroke="black" stroke-width="0.4" stroke-miterlimit="10"/>
<path d="M2.94859 16.9502C2.94859 17.7336 2.95787 18.4354 2.94859 19.1575C2.93931 19.8797 2.55317 20.2714 1.98509 20.2807C1.41702 20.29 1.01788 19.8537 1.01045 19.1779C0.997459 18.1606 0.995603 17.1358 1.01045 16.1241C1.01974 15.3815 1.38174 15.0269 2.12433 15.0102C3.14414 14.9966 4.16271 14.9966 5.18005 15.0102C5.85765 15.0195 6.29392 15.4242 6.27721 15.9978C6.2605 16.5715 5.83166 16.9372 5.14106 16.9483C4.45046 16.9595 3.758 16.9502 2.94859 16.9502Z" fill="black" stroke="black" stroke-width="0.4" stroke-miterlimit="10"/>
<path d="M51.0512 16.9499C50.2529 16.9499 49.5401 16.961 48.8235 16.9499C48.1069 16.9388 47.7096 16.5471 47.7096 15.9697C47.7096 15.3923 48.1477 15.0173 48.8346 15.0099C49.8538 14.9988 50.8767 14.9951 51.8903 15.0099C52.6013 15.0211 52.9671 15.3812 52.9801 16.0755C52.9986 17.117 52.9949 18.1585 52.9801 19.1999C52.9708 19.8423 52.5884 20.2618 52.0518 20.2804C51.5153 20.299 51.0661 19.8645 51.0512 19.1962C51.0308 18.4833 51.0512 17.7686 51.0512 16.9499Z" fill="black" stroke="black" stroke-width="0.4" stroke-miterlimit="10"/>
<path d="M51.0511 65.0431C51.0511 64.2485 51.0418 63.5579 51.0511 62.8636C51.0604 62.1414 51.4632 61.6903 52.0555 61.7126C52.6477 61.7349 52.9837 62.1656 52.9837 62.8636C52.9948 63.8586 52.9967 64.8537 52.9837 65.8488C52.9725 66.6303 52.6124 66.9756 51.8215 66.9849C50.8314 66.996 49.8358 66.996 48.8345 66.9849C48.1495 66.9849 47.7206 66.5913 47.7114 66.0233C47.7021 65.4552 48.1346 65.0579 48.8252 65.0449C49.5455 65.0319 50.2547 65.0431 51.0511 65.0431Z" fill="black" stroke="black" stroke-width="0.4" stroke-miterlimit="10"/>
<path d="M27.0268 16.9498C26.0559 16.9498 25.085 16.9498 24.114 16.9498C23.3529 16.9498 22.9463 16.5915 22.9519 15.9714C22.9575 15.3514 23.3696 15.0116 24.1307 15.0098C26.0491 15.0024 27.9674 15.0024 29.8858 15.0098C30.645 15.0098 31.0553 15.3699 31.0497 15.9863C31.0442 16.6026 30.6376 16.9498 29.8672 16.9498C28.9223 16.9591 27.9755 16.9498 27.0268 16.9498Z" fill="black" stroke="black" stroke-width="0.4" stroke-miterlimit="10"/>
<path d="M52.9967 41.0096C52.9967 41.9805 52.9967 42.9514 52.9967 43.9224C52.9967 44.6352 52.6384 45.0362 52.0481 45.0455C51.4262 45.0585 51.0604 44.6519 51.0567 43.8964C51.0493 41.9545 51.0493 40.0133 51.0567 38.0727C51.0567 37.3579 51.4132 36.9588 52.0054 36.9588C52.6273 36.9458 52.9893 37.3524 52.9967 38.1079C53.0041 39.0696 52.9967 40.0387 52.9967 41.0096Z" fill="black" stroke="black" stroke-width="0.4" stroke-miterlimit="10"/>
<path d="M14.6999 15.0082C15.6486 15.0082 16.5954 14.9989 17.544 15.0082C18.2439 15.0174 18.6579 15.3794 18.6579 15.9642C18.6579 16.549 18.2606 16.95 17.5718 16.95C15.6065 16.9599 13.6405 16.9599 11.6739 16.95C10.9647 16.95 10.56 16.5787 10.56 15.9939C10.56 15.3739 10.961 15.0156 11.7185 15.01C12.7117 15.0007 13.7049 15.0082 14.6999 15.0082Z" fill="black" stroke="black" stroke-width="0.4" stroke-miterlimit="10"/>
<path d="M39.3759 16.9499C38.4291 16.9499 37.4805 16.9499 36.5337 16.9499C35.7725 16.9499 35.3493 16.599 35.3363 15.9975C35.3233 15.396 35.7484 15.0117 36.4928 15.008C38.4347 15.0006 40.3765 15.0006 42.3184 15.008C43.0294 15.008 43.4322 15.3663 43.4415 15.9567C43.4527 16.5786 43.048 16.9499 42.2887 16.9499C41.3177 16.9591 40.3468 16.9499 39.3759 16.9499Z" fill="black" stroke="black" stroke-width="0.4" stroke-miterlimit="10"/>
<path d="M2.94864 28.6268C2.94864 29.5736 2.94864 30.5222 2.94864 31.469C2.94864 32.2283 2.59406 32.6534 1.99443 32.6627C1.39479 32.672 1.01236 32.2469 1.00865 31.5043C1.00123 29.5624 1.00123 27.6194 1.00865 25.675C1.00865 24.9622 1.36695 24.5612 1.96101 24.5612C2.55508 24.5612 2.94864 24.9603 2.94864 25.714C2.95978 26.6849 2.94864 27.6559 2.94864 28.6268Z" fill="black" stroke="black" stroke-width="0.4" stroke-miterlimit="10"/>
<path d="M51.0511 28.5769C51.0511 27.606 51.0418 26.6351 51.0511 25.6642C51.0604 24.955 51.4224 24.5614 52.0183 24.5596C52.6143 24.5577 52.9874 24.955 52.9911 25.6586C52.9998 27.6252 52.9998 29.5899 52.9911 31.5528C52.9911 32.249 52.6068 32.6667 52.0239 32.6667C51.441 32.6667 51.0604 32.2564 51.0511 31.5528C51.0418 30.5633 51.0511 29.5739 51.0511 28.5769Z" fill="black" stroke="black" stroke-width="0.4" stroke-miterlimit="10"/>
<path d="M52.9967 53.3659C52.9967 54.3146 52.9967 55.2614 52.9967 56.21C52.9967 57.0232 52.6458 57.4446 52.009 57.4334C51.3723 57.4223 51.0567 57.012 51.0548 56.2472C51.0474 54.3276 51.0474 52.4093 51.0548 50.4922C51.0548 49.7496 51.4261 49.3226 52.0406 49.3319C52.6551 49.3412 52.9892 49.7644 52.9967 50.5237C53.0022 51.4798 52.9967 52.4192 52.9967 53.3659Z" fill="black" stroke="black" stroke-width="0.4" stroke-miterlimit="10"/>
<path d="M39.3016 66.9888C38.3549 66.9888 37.4062 66.9888 36.4576 66.9888C35.7558 66.9888 35.3437 66.6175 35.3437 66.0346C35.3437 65.4516 35.7447 65.0544 36.4353 65.0507C38.4019 65.0395 40.3673 65.0395 42.3314 65.0507C43.0405 65.0507 43.4452 65.4108 43.4452 66.003C43.4452 66.5952 43.0424 66.9832 42.2887 66.9888C41.2899 66.9944 40.2967 66.9888 39.3016 66.9888Z" fill="black" stroke="black" stroke-width="0.4" stroke-miterlimit="10"/>
</svg>
