<svg width="67" height="67" viewBox="0 0 67 67" fill="none" xmlns="http://www.w3.org/2000/svg">
<circle cx="40.5" cy="26.5" r="26.5" fill="#56F684"/>
<g clip-path="url(#clip0_579_645)">
<path d="M27.5084 9.26481C29.2497 9.97443 30.2903 11.2484 30.4909 13.1564C30.5478 13.6966 30.4999 14.2473 30.4999 14.8283C31.3578 15.0417 32.1798 15.2005 32.9718 15.4517C43.0227 18.6291 49.3379 25.394 51.4685 35.8053C53.7652 47.0216 48.3543 57.0638 40.0267 62.6803C36.6909 64.9673 32.8524 66.3958 28.8455 66.8412C25.0457 67.2723 21.1985 66.8359 17.5879 65.5641C17.3846 65.4833 17.1664 65.4479 16.9483 65.4601C16.7302 65.4724 16.5173 65.5321 16.3242 65.6353C8.78869 69.2197 0.187152 63.4277 0.516541 55.0151C0.565392 53.5216 0.922365 52.0549 1.5646 50.7089C1.63905 50.5622 1.68121 50.4008 1.68819 50.236C1.69517 50.0713 1.6668 49.9069 1.60502 49.7542C-1.2951 41.1797 -0.272495 33.1242 4.75667 25.6043C5.08007 25.1216 5.47384 24.8387 6.06824 24.9597C6.87225 25.1232 7.15073 26.0083 6.6806 26.7981C5.93948 28.0388 5.1175 29.2462 4.51412 30.5535C1.9943 36.0217 1.58556 41.682 3.22052 47.4831C3.25496 47.6057 3.30736 47.7252 3.35677 47.8644C3.9317 47.3696 4.49765 46.9142 5.01719 46.4088C5.12948 46.2984 5.12798 45.9958 5.08456 45.8036C3.97512 40.9255 4.34194 36.176 6.49045 31.6702C9.92059 24.4741 15.5951 20.1966 23.4555 19.2056C34.5559 17.8136 44.6367 25.1988 47.0262 36.2774C49.2945 46.7916 43.1694 57.7416 33.0826 61.2277C29.2078 62.5668 25.2791 62.824 21.283 61.9101C20.9222 61.8284 20.7141 61.8995 20.491 62.2127C20.1242 62.7256 19.6885 63.1886 19.1944 63.7772C20.3922 64.0238 21.5136 64.3159 22.6485 64.4762C28.4876 65.3009 33.9166 64.1086 38.805 60.7647C44.6516 56.7672 48.492 51.299 49.4472 44.1831C50.645 35.2168 47.7045 27.6606 40.708 21.9684C32.9958 15.6968 22.6575 15.0447 14.0335 20.0015C13.7515 20.1777 13.429 20.2767 13.0977 20.2889C12.5841 20.2723 12.2368 19.9243 12.126 19.4144C12.0585 19.173 12.08 18.915 12.1866 18.6885C12.2932 18.4619 12.4775 18.2822 12.7054 18.1828C14.4048 17.3718 16.0951 16.5335 17.8379 15.8284C18.8335 15.4245 19.9175 15.2384 20.9701 14.9963C21.3324 14.9131 21.4522 14.7708 21.4477 14.391C21.4477 13.8085 21.4237 13.2063 21.551 12.645C21.9747 10.7915 23.1351 9.61886 24.9527 9.11502C25.2781 9.03752 25.611 8.99692 25.9453 8.99397C26.4784 8.98689 27.0082 9.07869 27.5084 9.26481ZM13.1351 26.2731C13.5379 26.6544 13.9077 26.9736 14.2431 27.3322C14.7551 27.8678 14.7686 28.5306 14.306 28.9966C13.8433 29.4626 13.1741 29.4354 12.659 28.9224C12.3146 28.5805 12.0107 28.1962 11.6469 27.7846C8.65843 31.2768 7.03694 35.1759 6.77792 39.7226C7.3259 39.7226 7.79004 39.706 8.25268 39.7226C8.98632 39.7559 9.43848 40.2189 9.42351 40.8907C9.40854 41.5353 8.95488 41.9605 8.2437 41.9786C7.78256 41.9907 7.31991 41.9786 6.74648 41.9786L7.19565 45.097C11.8206 43.4432 15.9634 44.0621 19.4085 47.5073C22.8536 50.9525 23.5034 55.1271 21.9343 59.7782L24.9287 60.1746C24.9287 59.6905 24.9198 59.3001 24.9287 58.9097C24.9512 58.1396 25.3584 57.6766 26.0127 57.6599C26.694 57.6433 27.1401 58.1138 27.1686 58.9021C27.1836 59.291 27.1686 59.6814 27.1686 60.0627C30.4625 60.2715 36.7209 57.6418 38.6972 55.2103C38.4187 54.9425 38.1237 54.6822 37.8542 54.3978C37.3497 53.8622 37.3287 53.1873 37.7854 52.7334C38.242 52.2795 38.8948 52.2795 39.4323 52.7939C39.7318 53.0754 39.9848 53.3886 40.2902 53.7214C43.2278 50.2883 44.8553 46.4512 45.1682 41.9801C44.698 41.9801 44.3282 41.9801 43.9569 41.9801C43.1514 41.971 42.6798 41.5731 42.6633 40.8922C42.6469 40.2114 43.1379 39.7363 43.9449 39.7181C44.3462 39.7105 44.7475 39.7181 45.1876 39.7181C44.9166 35.1986 43.3401 31.3297 40.425 27.8875C40.0881 28.2491 39.8051 28.5714 39.5012 28.871C38.9502 29.4142 38.278 29.4596 37.8108 28.9996C37.3212 28.5185 37.3617 27.8391 37.9306 27.2505C38.23 26.9343 38.5445 26.6256 38.8709 26.2943C35.4841 23.2954 31.6453 21.6462 27.1791 21.3269C27.1791 21.864 27.188 22.3149 27.1791 22.7643C27.1596 23.5662 26.7404 24.0534 26.0771 24.067C25.3884 24.0807 24.9542 23.5874 24.9362 22.7567C24.9272 22.2937 24.9362 21.8307 24.9362 21.3133C20.4191 21.6219 16.5623 23.2515 13.1291 26.2731H13.1351ZM11.6379 64.4369C12.8077 64.4328 13.9652 64.1953 15.0439 63.7381C16.1227 63.2809 17.1015 62.6129 17.9243 61.7726C18.7471 60.9323 19.3976 59.9361 19.8386 58.8411C20.2795 57.7462 20.5023 56.574 20.494 55.3919C20.467 50.4926 16.459 46.4875 11.5945 46.4966C9.26003 46.5325 7.03354 47.4963 5.39727 49.1793C3.761 50.8623 2.8467 53.129 2.85241 55.4884C2.85812 57.8478 3.78338 60.11 5.42778 61.7849C7.07217 63.4598 9.3033 64.4126 11.6379 64.4369ZM28.2571 14.5166C28.3738 13.3334 28.2571 12.2667 27.1656 11.607C26.3331 11.1062 25.4842 11.141 24.6862 11.6918C23.6816 12.3862 23.6082 13.4166 23.7265 14.5166H28.2571Z" fill="black"/>
<path d="M9.18695 23.3831C9.03818 23.3864 8.89029 23.3594 8.75209 23.3036C8.61389 23.2478 8.48822 23.1645 8.38258 23.0586C8.27694 22.9527 8.1935 22.8264 8.13723 22.6872C8.08095 22.548 8.05301 22.3987 8.05505 22.2483C8.0573 21.9544 8.17262 21.6729 8.37661 21.4634C8.58059 21.2538 8.85725 21.1327 9.14802 21.1257C9.44425 21.1204 9.7304 21.2344 9.94351 21.4424C10.1566 21.6503 10.2793 21.9354 10.2844 22.2347C10.2896 22.5341 10.1769 22.8233 9.97104 23.0386C9.76522 23.254 9.48318 23.3779 9.18695 23.3831Z" fill="black"/>
<path d="M27.1836 32.7142C27.1836 34.1107 27.1985 35.5073 27.1746 36.9023C27.1671 37.3245 27.2689 37.5635 27.6702 37.7754C28.3382 38.1287 28.8639 38.7057 29.1572 39.4077C29.4506 40.1096 29.4933 40.8928 29.2782 41.6231C29.1599 42.024 29.2677 42.2283 29.5327 42.4916C30.5673 43.4993 31.5809 44.5312 32.6095 45.5464C32.9733 45.9035 33.159 46.3135 33.0107 46.8189C32.7682 47.6496 31.7815 47.878 31.1183 47.2395C30.0702 46.2228 29.0311 45.1848 28.004 44.1408C27.748 43.8806 27.5549 43.7731 27.1506 43.9229C26.3555 44.2094 25.4825 44.1813 24.707 43.8443C23.9315 43.5073 23.3109 42.8863 22.9697 42.1059C22.6285 41.3256 22.5921 40.4437 22.8677 39.6374C23.1434 38.831 23.7106 38.1599 24.4556 37.7587C24.8194 37.5635 24.9467 37.3593 24.9437 36.9417C24.9228 34.2061 24.9332 31.4689 24.9332 28.7333C24.9332 28.5442 24.9332 28.3551 24.9437 28.1675C24.9946 27.5214 25.4123 27.0932 26.0052 27.0675C26.1502 27.0591 26.2954 27.08 26.4323 27.1289C26.5692 27.1778 26.6951 27.2538 26.8027 27.3524C26.9103 27.4509 26.9974 27.5702 27.0589 27.7031C27.1204 27.836 27.1552 27.98 27.1611 28.1266C27.2015 28.5941 27.1806 29.0692 27.1806 29.5398C27.1851 30.6005 27.1836 31.6566 27.1836 32.7142ZM27.1611 40.7334C27.1636 40.5833 27.1362 40.4342 27.0805 40.295C27.0248 40.1558 26.942 40.0293 26.837 39.9231C26.7319 39.8169 26.6068 39.7332 26.4691 39.6768C26.3314 39.6205 26.1839 39.5927 26.0353 39.5951C25.8868 39.5975 25.7402 39.6302 25.6044 39.691C25.4686 39.7518 25.3462 39.8396 25.2447 39.9492C25.1431 40.0588 25.0644 40.1879 25.0132 40.3289C24.962 40.4698 24.9394 40.6197 24.9467 40.7697C24.9484 40.9159 24.979 41.0603 25.0365 41.1945C25.094 41.3287 25.1774 41.4499 25.2818 41.5512C25.3862 41.6524 25.5095 41.7317 25.6445 41.7843C25.7795 41.8369 25.9235 41.8618 26.0681 41.8576C26.2133 41.8562 26.3568 41.8259 26.4903 41.7684C26.6239 41.7109 26.7449 41.6273 26.8464 41.5224C26.9479 41.4176 27.028 41.2935 27.082 41.1573C27.136 41.0212 27.1629 40.8756 27.1611 40.7289V40.7334Z" fill="black"/>
<path d="M10.5075 58.2939V53.4688C10.5075 52.4096 10.497 51.3505 10.518 50.302C10.5136 50.0159 10.6213 49.7397 10.8176 49.5336C11.014 49.3276 11.283 49.2083 11.566 49.202C11.8489 49.187 12.1268 49.2817 12.343 49.4667C12.5592 49.6517 12.6974 49.9131 12.7294 50.1976C12.7496 50.4042 12.7556 50.612 12.7473 50.8194C12.7473 53.3069 12.7473 55.7959 12.7473 58.3711C12.9345 58.2546 13.0722 58.182 13.1965 58.0897C13.9032 57.5661 14.5979 57.0305 15.3151 56.5161C15.5486 56.3368 15.8429 56.2583 16.1336 56.2978C16.4243 56.3372 16.6877 56.4913 16.8662 56.7264C16.9595 56.8399 17.0289 56.9715 17.0701 57.1131C17.1113 57.2547 17.1235 57.4033 17.1058 57.5498C17.0881 57.6963 17.041 57.8376 16.9674 57.965C16.8938 58.0925 16.7951 58.2034 16.6776 58.2909C15.4334 59.2532 14.1817 60.2079 12.8941 61.1082C12.5515 61.3658 12.136 61.5048 11.709 61.5048C11.2821 61.5048 10.8665 61.3658 10.524 61.1082C9.23935 60.2004 7.97869 59.2532 6.73899 58.2939C6.62301 58.2053 6.52579 58.094 6.45308 57.9667C6.38036 57.8394 6.33362 57.6987 6.31561 57.5529C6.29761 57.407 6.30871 57.259 6.34825 57.1176C6.3878 56.9762 6.45499 56.8442 6.54585 56.7294C6.63327 56.611 6.7431 56.5112 6.86896 56.4359C6.99482 56.3607 7.13421 56.3114 7.27906 56.291C7.4239 56.2706 7.57131 56.2794 7.71274 56.317C7.85417 56.3546 7.98681 56.4202 8.10296 56.51C8.87852 57.0623 9.63312 57.6433 10.5075 58.2939Z" fill="black"/>
</g>
<defs>
<clipPath id="clip0_579_645">
<rect width="52" height="58" fill="white" transform="translate(0 9)"/>
</clipPath>
</defs>
</svg>
