<svg width="209" height="121" viewBox="0 0 209 121" fill="none" xmlns="http://www.w3.org/2000/svg">
<path d="M45.9699 34.1929C47.0269 33.8103 48.0433 34.0183 49.0193 34.817C49.987 35.5847 50.7151 36.8804 51.2038 38.704C51.7233 40.5194 51.9918 42.634 52.0091 45.0478C52.0573 47.4532 52.0117 49.8176 51.8723 52.1409C51.7328 54.4641 51.4863 56.8823 51.1327 59.3955C50.7708 61.8777 50.4917 63.7415 50.2953 64.9867C50.0906 66.2011 49.8837 67.2835 49.6746 68.234C49.4683 69.8132 49.3754 71.4449 49.396 73.1289C49.4083 74.7821 49.5533 76.2506 49.831 77.5344C50.1171 78.8492 50.588 79.6175 51.2437 79.8393C51.6025 79.942 51.8584 80.155 52.0113 80.4785C52.1642 80.8019 52.1852 81.1276 52.0743 81.4554C51.9264 81.8926 51.6361 82.1692 51.2034 82.2851C50.9561 82.3514 50.7232 82.3475 50.5046 82.2736C49.5993 81.9861 48.8627 81.3387 48.2946 80.3314C47.7348 79.355 47.3563 78.3135 47.1592 77.2068C46.9538 76.0692 46.843 74.7903 46.8269 73.3701C46.8416 71.9416 46.8774 70.8387 46.9342 70.0616C46.991 69.2844 47.0757 68.5494 47.1882 67.8567C47.1882 67.8567 47.1841 67.8412 47.1758 67.8103C47.5488 65.9877 47.8814 64.0765 48.1738 62.0766C48.4662 60.0768 48.7378 57.9997 48.9888 55.8454C49.2315 53.6601 49.3939 51.5461 49.4759 49.5032C49.558 47.4604 49.5496 45.5743 49.4506 43.845C49.3826 42.1074 49.1674 40.6245 48.8052 39.3964C48.4657 38.1291 47.9967 37.2443 47.3983 36.7421C47.1941 36.5981 47.0147 36.5467 46.8601 36.5881C45.5951 37.0596 44.1792 39.874 42.6126 45.0312C41.0377 50.1575 39.748 55.8534 38.7434 62.1189C38.6634 62.4385 38.4854 62.7015 38.2094 62.9079C37.9644 63.1061 37.6749 63.2003 37.3409 63.1903C36.9987 63.1495 36.7089 62.9953 36.4715 62.7276C36.2651 62.4516 36.1668 62.1467 36.1767 61.8127C36.3553 59.5121 36.4291 57.4383 36.3981 55.5915C36.3896 53.7054 36.3147 52.2512 36.1733 51.229C36.0545 50.1675 35.8958 49.2659 35.697 48.5241C35.4982 47.7823 35.3348 47.296 35.2067 47.0653C35.0704 46.8036 34.9351 46.608 34.801 46.4783C34.6691 46.4805 34.5228 46.5528 34.3622 46.6952C33.2523 47.6221 32.1999 50.1237 31.205 54.2001C30.2328 58.2373 29.4659 62.4845 28.9044 66.9417C28.3429 71.3989 27.9152 75.7374 27.6213 79.9573C27.6076 80.5242 27.3267 80.8976 26.7786 81.0776C26.2305 81.2576 25.782 81.1293 25.4331 80.6927C23.5733 78.5738 23.4803 71.4264 25.1539 59.2503C25.7138 55.158 26.4351 50.7408 27.3179 45.9987C27.0253 46.1434 26.7554 46.2488 26.5082 46.3151C26.1682 46.4062 25.8455 46.3767 25.5403 46.2266C25.2267 46.0455 25.0131 45.8046 24.8994 45.5038C24.8083 45.1638 24.8378 44.8412 24.9879 44.5359C25.1689 44.2224 25.4253 44.0046 25.757 43.8826C26.0043 43.8163 26.2742 43.7109 26.5667 43.5662C26.8819 43.3824 27.1888 43.1677 27.4873 42.922C27.7859 42.6764 27.9681 42.4288 28.0337 42.1793C28.0481 42.1092 28.0666 42.0545 28.0892 42.0154C28.13 41.6731 28.2925 41.4142 28.5768 41.2387C28.8837 41.0239 29.1969 40.9566 29.5165 41.0366C29.8587 41.0774 30.1331 41.2358 30.3395 41.5118C30.546 41.7877 30.6288 42.0968 30.588 42.4391C30.551 42.5483 30.5182 42.6731 30.4895 42.8133C29.674 46.941 28.9381 51.1799 28.2816 55.5301C29.5506 49.7569 31.0387 46.1612 32.7458 44.7431C33.5346 44.1011 34.3721 43.8269 35.2586 43.9207C36.9306 44.1021 38.0441 46.1559 38.5991 50.082C38.6648 49.8326 38.7561 49.4934 38.8731 49.0645C39.4475 46.7572 40.0305 44.7292 40.622 42.9805C41.2053 41.2009 41.7252 39.8027 42.1815 38.7859C42.6688 37.7609 43.1553 36.9183 43.641 36.2581C44.1493 35.5587 44.5682 35.082 44.8977 34.8281C45.2581 34.5659 45.6155 34.3542 45.9699 34.1929ZM71.9738 59.1283C72.3221 59.0681 72.6262 59.1522 72.8862 59.3807C73.1771 59.6009 73.3372 59.8893 73.3665 60.2459C73.3875 60.5716 73.2879 60.8799 73.0677 61.1708C70.7337 64.0821 68.6232 66.9003 66.7362 69.6256C65.6457 71.2429 64.5749 72.1924 63.524 72.474C63.0604 72.5982 62.61 72.5864 62.1728 72.4385C61.0263 72.1163 60.1571 70.9743 59.5653 69.0127C58.5139 70.6527 57.5207 71.8298 56.5857 72.5441C55.6447 73.3595 54.7765 73.8903 53.9811 74.1365C53.1858 74.3828 52.6045 74.4391 52.2375 74.3056C51.8395 74.1803 51.5064 73.988 51.2381 73.7286C50.3157 72.8825 50.0832 71.5202 50.5406 69.6419C50.998 67.7635 52.054 65.7081 53.7086 63.4758C55.8716 60.5441 57.9714 59.1698 60.0082 59.3529C60.7854 59.4097 61.469 59.6737 62.0591 60.145C62.6492 60.6164 63.0806 61.1137 63.3533 61.6369C63.5063 61.9603 63.5273 62.286 63.4164 62.6139C63.3054 62.9418 63.0924 63.1976 62.7772 63.3815C62.4847 63.5261 62.159 63.5471 61.8003 63.4445C61.4724 63.3335 61.232 63.1164 61.079 62.7929C60.7589 62.2161 60.3266 61.9013 59.7824 61.8483C58.7022 61.7734 57.3574 62.8128 55.748 64.9668C54.8755 66.1613 54.1997 67.2866 53.7207 68.3425C53.2416 69.3985 52.9757 70.1986 52.9227 70.7428C52.8306 71.2645 52.829 71.6293 52.9178 71.8374C53.3754 71.8142 54.0438 71.4032 54.923 70.6044C54.954 70.5961 54.9962 70.5682 55.0497 70.5208C56.3821 69.4349 57.7309 67.4833 59.0963 64.6659C59.4048 64.0863 59.8745 63.8611 60.5054 63.9902C61.1363 64.1193 61.4728 64.5095 61.5148 65.1608C61.6048 66.3625 61.7782 67.4424 62.035 68.4006C62.3226 69.3505 62.5995 69.8892 62.8656 70.0167C63.29 69.8698 63.8624 69.2858 64.5826 68.2646C64.6135 68.2563 64.6403 68.2326 64.6629 68.1934C66.6939 65.2639 68.8383 62.3868 71.0962 59.5622C71.3247 59.3022 71.6172 59.1576 71.9738 59.1283ZM81.4251 51.0302C82.7124 51.8779 83.1434 53.7336 82.7181 56.5972C82.6463 56.9477 82.4725 57.2262 82.1965 57.4327C81.9206 57.6391 81.6115 57.722 81.2692 57.6811C80.9187 57.6094 80.6402 57.4356 80.4338 57.1596C80.2273 56.8836 80.1445 56.5745 80.1853 56.2323C80.4656 54.4345 80.421 53.4029 80.0518 53.1374C79.9816 53.1231 79.8384 53.1449 79.622 53.2029C79.4366 53.2526 79.2862 53.3094 79.1708 53.3735C79.109 53.39 79.0781 53.3983 79.0781 53.3983C78.0934 53.9272 77.135 54.8631 76.2028 56.2062C75.2707 57.5492 74.4809 59.0528 73.8336 60.7171C73.2089 62.3421 72.683 63.8413 72.2559 65.2147C71.8597 66.5797 71.5427 67.8076 71.3049 68.8983C71.2128 69.4199 70.9194 69.747 70.4249 69.8795C70.2394 69.9292 70.057 69.9284 69.8776 69.8771C69.5354 69.8363 69.261 69.6779 69.0546 69.4019C68.8481 69.1259 68.7808 68.8127 68.8525 68.4622C69.1735 66.3222 69.8568 61.9483 70.9022 55.3406C70.762 55.3119 70.6444 55.244 70.5495 55.1369C70.2895 54.9084 70.149 54.6314 70.128 54.3057C70.0987 53.9491 70.1983 53.6408 70.4268 53.3808C71.2111 52.475 71.9827 52.202 72.7417 52.5618C73.4698 52.9299 73.7386 53.6861 73.5483 54.8303C73.5053 55.0406 73.4418 55.4221 73.358 55.9746C74.7465 53.6148 76.2566 52.0175 77.8881 51.1828C79.2332 50.3917 80.4122 50.3408 81.4251 51.0302ZM101.471 50.5785C101.828 50.5492 102.136 50.6488 102.396 50.8773C102.656 51.1058 102.785 51.4025 102.783 51.7673C102.813 52.1239 102.698 52.4363 102.438 52.7046C100.357 54.9519 98.172 57.4919 95.8832 60.3249C94.1336 62.4501 92.1306 63.815 89.8742 64.4196C88.236 64.8586 86.9033 64.7684 85.876 64.1492C84.7003 63.4704 84.1531 61.8612 84.2346 59.3215C84.2478 58.2579 84.4166 57.2188 84.741 56.2043C85.0572 55.1588 85.5796 54.1409 86.3081 53.1506C87.0366 52.1603 87.9396 51.3883 89.017 50.8346C90.7021 49.9524 91.9625 49.8963 92.7982 50.6662C93.634 51.4361 93.7199 52.6223 93.056 54.2247C92.9451 54.5526 92.7279 54.793 92.4045 54.9459C92.0728 55.0679 91.743 55.0735 91.4151 54.9626C91.1098 54.8125 90.8807 54.5757 90.7278 54.2522C90.5749 53.9288 90.5693 53.599 90.7112 53.2628C90.7708 53.1144 90.8262 52.9504 90.8775 52.771C90.6695 52.8599 90.4346 52.9725 90.173 53.1089C88.4178 53.9767 87.3201 55.6292 86.8798 58.0661C86.7325 59.0001 86.7047 59.8854 86.7964 60.7222C86.919 61.5507 87.0504 61.9793 87.1906 62.008C87.5743 62.2034 88.0989 62.245 88.7646 62.1329C89.4612 62.0125 90.2935 61.657 91.2616 61.0663C92.2297 60.4756 93.1131 59.6923 93.9117 58.7163C96.4742 55.545 98.6973 52.9616 100.581 50.9661C100.81 50.7061 101.106 50.5769 101.471 50.5785ZM117.867 46.1357C118.198 46.0136 118.517 46.0277 118.822 46.1778C119.15 46.2887 119.375 46.51 119.497 46.8418C119.65 47.1652 119.655 47.495 119.514 47.8312C119.394 48.1281 119.169 48.3376 118.837 48.4596C117.797 48.9041 116.18 50.1655 113.987 52.2438C111.772 54.3614 110.109 55.6352 108.998 56.0653C108.613 56.2347 108.246 56.3496 107.898 56.4098C107.686 56.7316 107.474 57.0534 107.262 57.3752C106.96 57.8538 106.487 58.378 105.845 58.9476C105.194 59.4864 104.498 59.8552 103.756 60.054C103.416 60.1451 103.079 60.1857 102.745 60.1758C101.55 60.1648 100.588 59.5445 99.8612 58.3148C98.6799 56.3786 98.8336 53.9852 100.323 51.1347C100.248 50.8565 100.204 50.57 100.192 50.2753C100.112 48.7397 100.368 47.346 100.96 46.0941C101.544 44.8112 102.352 43.9321 103.384 43.4568C105.102 42.6983 106.806 43.1858 108.496 44.9194C110.337 46.8445 110.708 49.4619 109.607 52.7716C110.181 52.3195 111.06 51.5207 112.244 50.3753C114.674 48.0678 116.548 46.6546 117.867 46.1357ZM102.807 57.6248C103.413 57.6612 104.108 57.2265 104.893 56.3206C104.284 56.1523 103.721 55.9056 103.203 55.5806C102.646 55.2329 102.17 54.814 101.773 54.3239C101.505 55.4229 101.582 56.3297 102.006 57.0445C102.276 57.4358 102.543 57.6293 102.807 57.6248ZM106.309 54.0031C108.022 50.6287 108.132 48.1973 106.64 46.7087C105.771 45.8152 105.025 45.5017 104.401 45.7684C103.869 46.0102 103.436 46.5569 103.101 47.4087C103.61 47.206 104.061 47.2838 104.455 47.642C104.685 47.8788 104.814 48.1755 104.843 48.532C104.872 48.8886 104.773 49.1969 104.544 49.4569C104.003 50.0327 103.49 50.7166 103.007 51.5087C103.323 52.3184 103.842 52.9578 104.564 53.4269C105.082 53.752 105.664 53.944 106.309 54.0031ZM146.046 38.7341C146.396 38.8058 146.664 38.9993 146.847 39.3144C147.023 39.5987 147.059 39.9202 146.957 40.279C146.877 40.5986 146.699 40.8616 146.423 41.0681C145.593 41.5555 144.287 42.6176 142.506 44.2544C141.573 45.1006 140.866 45.7374 140.384 46.1646C139.894 46.561 139.292 46.9709 138.577 47.3943C137.862 47.8177 137.234 48.0689 136.692 48.1479C135.964 48.2766 135.353 48.1588 134.858 47.7945C134.198 47.3089 133.725 46.2262 133.441 44.5466C133.327 43.749 133.217 43.2153 133.111 42.9454C132.922 43.228 132.599 43.8777 132.143 44.8944C131.224 47.029 130.353 48.5379 129.529 49.4211C128.798 50.2795 128.023 50.537 127.202 50.1938C125.826 49.6348 125.173 47.0105 125.241 42.3209C124.298 44.3627 122.895 48.217 121.035 53.8837C120.571 55.3663 120.177 56.4325 119.854 57.0822C119.554 57.6927 119.172 58.06 118.709 58.1843C118.523 58.234 118.306 58.226 118.056 58.1603C117.627 58.0433 117.328 57.7922 117.159 57.407C116.95 56.9991 116.849 56.5622 116.857 56.0963C116.865 55.6305 116.924 54.9852 117.034 54.1606C117.947 48.9135 118.555 45.123 118.857 42.7893C118.371 42.9527 117.942 42.8357 117.57 42.4383C117.341 42.2015 117.232 41.9162 117.242 41.5822C117.243 41.2174 117.358 40.905 117.587 40.645C118.725 39.5779 119.725 39.2273 120.585 39.5932C121.265 39.9078 121.587 40.5505 121.549 41.5214C121.535 42.0883 121.31 43.7222 120.874 46.423C122.113 43.01 123.084 40.7621 123.788 39.679C124.484 38.5651 125.224 38.052 126.009 38.1397C126.997 38.2395 127.594 39.1066 127.8 40.741C127.816 40.8028 127.817 40.8687 127.803 40.9388C127.685 43.5878 127.778 45.6665 128.083 47.175C128.568 46.5148 129.151 45.4144 129.832 43.8738C130.056 43.3499 130.232 42.955 130.359 42.6889C130.509 42.3837 130.724 42.0113 131.004 41.572C131.284 41.1326 131.55 40.8292 131.804 40.662C132.049 40.4638 132.361 40.3305 132.74 40.262C133.15 40.1852 133.562 40.2404 133.977 40.4275C134.649 40.7111 135.14 41.2423 135.448 42.0212C135.787 42.7917 135.962 43.5067 135.973 44.1663C136.087 44.9639 136.204 45.4626 136.324 45.6624C137.02 45.542 138.5 44.4498 140.763 42.3858C142.682 40.6458 144.126 39.4805 145.094 38.8898C145.378 38.7143 145.695 38.6624 146.046 38.7341Z" fill="#71C9B9"/>
<path fill-rule="evenodd" clip-rule="evenodd" d="M149.603 60.6343C124.963 66.4707 108.796 71.0777 76.7066 81.4067C73.8845 82.315 69.4719 83.7338 66.9009 84.5596C45.7213 91.3614 16.6146 102.915 8.93067 107.569C7.33712 108.534 4.6239 110.826 4.69456 111.148C4.70624 111.201 4.83102 111.085 5.31014 110.576C7.51904 108.231 14.1364 105.08 30.6886 98.4923C40.466 94.6007 51.2168 90.6507 60.1331 87.674C66.9392 85.4018 99.3649 75.2113 100.483 74.9932C100.713 74.9484 99.4841 75.3727 97.7529 75.9361C79.1561 81.9886 72.8487 84.1627 61.7499 88.3466C53.1501 91.5883 48.1449 93.6702 35.4221 99.2978C30.6355 101.415 30.7719 101.346 30.7592 101.667C30.7271 102.481 31.3716 102.352 35.3342 100.756C62.2077 89.9282 78.4766 84.5162 104.363 77.7925C111.328 75.9834 135.577 70.27 135.188 70.5299C134.965 70.6783 127.785 72.9084 115.736 76.5709C88.7782 84.7654 71.7675 91.0916 53.4117 99.7488C48.3221 102.149 47.4441 102.74 48.0677 103.346C48.7262 103.986 51.729 103.08 66.2366 97.8629C87.9639 90.0492 96.0948 87.4317 113.788 82.5549C117.901 81.4213 124.995 79.6066 124.809 79.7357C124.758 79.7717 120.37 81.3042 115.059 83.141C101.771 87.7371 93.2749 90.824 93.0254 91.1462C92.6406 91.6431 92.9001 92.1748 93.5423 92.2054C94.3252 92.2426 96.387 91.657 101.078 90.0647C111.252 86.6116 121.527 83.6522 136.828 79.7681C139.118 79.1868 141.779 78.486 142.742 78.2108C144.981 77.5706 148.574 76.7553 150.265 76.5038C150.989 76.396 151.89 76.2614 152.266 76.2048C153.694 75.9897 148.675 76.4269 146.555 76.7022C141.241 77.3924 134.43 78.8229 126.443 80.9264C124.611 81.4089 123.092 81.7914 123.068 81.7764C123.018 81.7447 124.847 81.1288 133.718 78.1904C140.519 75.9373 140.687 75.8679 140.829 75.2499C140.919 74.8578 140.658 74.4749 140.217 74.3515C139.883 74.2582 129.745 76.613 124.276 78.054C111.167 81.5086 104.252 83.4865 95.6155 86.2518C86.8773 89.0498 81.1116 91.0865 66.75 96.4485C58.0065 99.7129 53.3905 101.376 51.8223 101.828L50.8503 102.108L51.9742 101.529C55.4412 99.7445 67.1849 94.6443 73.9225 91.9974C87.9182 86.4991 97.592 83.2382 119.452 76.6495C137.82 71.1134 141.555 69.8561 141.704 69.1585C141.865 68.4067 141.222 68.1279 139.64 68.2638C137.482 68.4491 111.654 74.3898 102.565 76.7912C93.6529 79.146 83.1203 82.1791 77.5992 83.9808C77.013 84.1722 76.3688 84.3598 76.1677 84.3978C74.6895 84.6775 94.4386 78.1402 105.781 74.5953C118.207 70.7119 128.085 67.8561 141.84 64.1706C150.734 61.7877 173.663 56.7351 183.037 55.0927C191.721 53.5714 192.03 53.5072 192.233 53.1881C192.445 52.8552 192.408 52.6524 192.101 52.4579C191.71 52.2104 189.866 52.4509 185.741 53.2872C184.223 53.595 180.857 54.2099 178.262 54.6536C175.667 55.0974 172.461 55.657 171.137 55.8972C168.64 56.3505 155.292 59.2868 149.603 60.6343ZM104.548 73.802C104.484 73.8463 104.345 73.8798 104.238 73.8764C104.131 73.873 104.184 73.8368 104.354 73.7959C104.525 73.755 104.612 73.7577 104.548 73.802ZM103.224 74.2164C103.102 74.2699 102.869 74.3234 102.706 74.3355C102.544 74.3474 102.643 74.3037 102.928 74.2381C103.213 74.1727 103.346 74.1629 103.224 74.2164ZM101.847 74.6391C101.695 74.6983 101.439 74.7565 101.277 74.7684C101.115 74.7803 101.239 74.7318 101.552 74.6607C101.866 74.5895 101.998 74.5798 101.847 74.6391ZM75.5909 84.6195C75.4681 84.6733 75.2582 84.7209 75.1246 84.7254C74.9909 84.7298 75.0914 84.6858 75.3478 84.6275C75.6043 84.5693 75.7136 84.5657 75.5909 84.6195ZM74.4728 84.9773C74.4079 85.0222 74.2913 85.0487 74.2137 85.0361C74.1362 85.0236 74.1893 84.9868 74.3318 84.9545C74.4742 84.9222 74.5378 84.9324 74.4728 84.9773ZM153.201 76.1272C153.279 76.1398 153.396 76.1133 153.46 76.0684C153.525 76.0235 153.462 76.0133 153.319 76.0456C153.177 76.078 153.124 76.1147 153.201 76.1272Z" fill="#272D3D"/>
</svg>
