<svg width="97" height="85" viewBox="0 0 97 85" fill="none" xmlns="http://www.w3.org/2000/svg">
<path d="M90.7291 42.6726V11.3069C90.7291 6.35748 86.7566 2.34521 81.8562 2.34521H10.8729C5.97254 2.34521 2 6.35748 2 11.3069V56.1151C2 61.0644 5.97254 65.0767 10.8729 65.0767C38.5936 65.0767 29.8241 65.0767 57.5448 65.0767" stroke="#6F63DE" stroke-width="4" stroke-linecap="round" stroke-linejoin="round"/>
<path d="M28.6195 82.9998H64.1111" stroke="#6F63DE" stroke-width="4" stroke-linecap="round" stroke-linejoin="round"/>
<path d="M46.3658 65.0766V82.9999" stroke="#6F63DE" stroke-width="4" stroke-linecap="round" stroke-linejoin="round"/>
<path d="M24.9022 49.4977C21.8738 47.9628 19.8297 44.893 19.8297 41.2093C19.8297 36.1442 23.918 32 28.9148 32C33.9117 32 38 36.1442 38 41.2093C38 46.1977 34.1388 50.2651 29.2177 50.4186H29.142C21.6467 50.4186 15.5142 56.6349 15.5142 64.2326C15.5142 64.693 15.2114 65 14.7571 65C14.3028 65 14 64.693 14 64.2326C14 57.2488 18.6183 51.3395 24.9022 49.4977ZM28.9148 48.8837C33.0789 48.8837 36.4858 45.4302 36.4858 41.2093C36.4858 36.9884 33.0789 33.5349 28.9148 33.5349C24.7508 33.5349 21.3438 36.9884 21.3438 41.2093C21.3438 45.4302 24.7508 48.8837 28.9148 48.8837Z" fill="#6F63DE"/>
<path d="M33.0978 49.4977C36.1262 47.9628 38.1703 44.893 38.1703 41.2093C38.1703 36.1442 34.082 32 29.0852 32C24.0883 32 20 36.1442 20 41.2093C20 46.1977 23.8612 50.2651 28.7823 50.4186H28.858C36.3533 50.4186 42.4858 56.6349 42.4858 64.2326C42.4858 64.693 42.7886 65 43.2429 65C43.6972 65 44 64.693 44 64.2326C44 57.2488 39.3817 51.3395 33.0978 49.4977ZM29.0852 48.8837C24.9211 48.8837 21.5142 45.4302 21.5142 41.2093C21.5142 36.9884 24.9211 33.5349 29.0852 33.5349C33.2492 33.5349 36.6562 36.9884 36.6562 41.2093C36.6562 45.4302 33.2492 48.8837 29.0852 48.8837Z" fill="#6F63DE"/>
<path d="M24.9022 49.4977L25.1835 50.4573L27.6064 49.7471L25.3543 48.6057L24.9022 49.4977ZM29.2177 50.4186V51.4186H29.2333L29.2488 51.4181L29.2177 50.4186ZM33.0978 49.4977L32.6457 48.6057L30.3936 49.7471L32.8165 50.4573L33.0978 49.4977ZM28.7823 50.4186L28.7512 51.4181L28.7667 51.4186H28.7823V50.4186ZM25.3543 48.6057C22.6495 47.2348 20.8297 44.5024 20.8297 41.2093H18.8297C18.8297 45.2836 21.0981 48.6907 24.4501 50.3897L25.3543 48.6057ZM20.8297 41.2093C20.8297 36.6836 24.483 33 28.9148 33V31C23.3529 31 18.8297 35.6047 18.8297 41.2093H20.8297ZM28.9148 33C33.3466 33 37 36.6836 37 41.2093H39C39 35.6047 34.4767 31 28.9148 31V33ZM37 41.2093C37 45.674 33.5514 49.283 29.1865 49.4191L29.2488 51.4181C34.7262 51.2473 39 46.7213 39 41.2093H37ZM29.2177 49.4186H29.142V51.4186H29.2177V49.4186ZM29.142 49.4186C21.0817 49.4186 14.5142 56.0954 14.5142 64.2326H16.5142C16.5142 57.1743 22.2117 51.4186 29.142 51.4186V49.4186ZM14.5142 64.2326C14.5142 64.2396 14.5159 64.1659 14.5941 64.0867C14.6298 64.0505 14.6692 64.0266 14.7038 64.0131C14.7374 64 14.7578 64 14.7571 64V66C15.2156 66 15.6735 65.8403 16.0179 65.4912C16.3611 65.1434 16.5142 64.686 16.5142 64.2326H14.5142ZM14.7571 64C14.7564 64 14.7767 64 14.8104 64.0131C14.845 64.0266 14.8844 64.0505 14.9201 64.0867C14.9983 64.1659 15 64.2396 15 64.2326H13C13 64.686 13.1531 65.1434 13.4963 65.4912C13.8407 65.8403 14.2986 66 14.7571 66V64ZM15 64.2326C15 57.6958 19.3227 52.1751 25.1835 50.4573L24.6209 48.538C17.9139 50.5039 13 56.8019 13 64.2326H15ZM28.9148 49.8837C33.6439 49.8837 37.4858 45.9697 37.4858 41.2093H35.4858C35.4858 44.8908 32.5138 47.8837 28.9148 47.8837V49.8837ZM37.4858 41.2093C37.4858 36.4489 33.6439 32.5349 28.9148 32.5349V34.5349C32.5138 34.5349 35.4858 37.5278 35.4858 41.2093H37.4858ZM28.9148 32.5349C24.1858 32.5349 20.3438 36.4489 20.3438 41.2093H22.3438C22.3438 37.5278 25.3158 34.5349 28.9148 34.5349V32.5349ZM20.3438 41.2093C20.3438 45.9697 24.1858 49.8837 28.9148 49.8837V47.8837C25.3158 47.8837 22.3438 44.8908 22.3438 41.2093H20.3438ZM33.5499 50.3897C36.9019 48.6907 39.1703 45.2836 39.1703 41.2093H37.1703C37.1703 44.5024 35.3505 47.2348 32.6457 48.6057L33.5499 50.3897ZM39.1703 41.2093C39.1703 35.6047 34.6471 31 29.0852 31V33C33.517 33 37.1703 36.6836 37.1703 41.2093H39.1703ZM29.0852 31C23.5233 31 19 35.6047 19 41.2093H21C21 36.6836 24.6534 33 29.0852 33V31ZM19 41.2093C19 46.7213 23.2738 51.2473 28.7512 51.4181L28.8135 49.4191C24.4486 49.283 21 45.674 21 41.2093H19ZM28.7823 51.4186H28.858V49.4186H28.7823V51.4186ZM28.858 51.4186C35.7883 51.4186 41.4858 57.1743 41.4858 64.2326H43.4858C43.4858 56.0954 36.9183 49.4186 28.858 49.4186V51.4186ZM41.4858 64.2326C41.4858 64.686 41.6389 65.1434 41.9821 65.4912C42.3265 65.8403 42.7844 66 43.2429 66V64C43.2422 64 43.2626 64 43.2962 64.0131C43.3308 64.0266 43.3702 64.0505 43.4059 64.0867C43.4841 64.1659 43.4858 64.2396 43.4858 64.2326H41.4858ZM43.2429 66C43.7014 66 44.1593 65.8403 44.5037 65.4912C44.8469 65.1434 45 64.686 45 64.2326H43C43 64.2396 43.0017 64.1659 43.0799 64.0867C43.1156 64.0505 43.155 64.0266 43.1896 64.0131C43.2233 64 43.2436 64 43.2429 64V66ZM45 64.2326C45 56.8019 40.0861 50.5039 33.3791 48.538L32.8165 50.4573C38.6773 52.1751 43 57.6958 43 64.2326H45ZM29.0852 47.8837C25.4862 47.8837 22.5142 44.8908 22.5142 41.2093H20.5142C20.5142 45.9697 24.3561 49.8837 29.0852 49.8837V47.8837ZM22.5142 41.2093C22.5142 37.5278 25.4862 34.5349 29.0852 34.5349V32.5349C24.3561 32.5349 20.5142 36.4489 20.5142 41.2093H22.5142ZM29.0852 34.5349C32.6842 34.5349 35.6562 37.5278 35.6562 41.2093H37.6562C37.6562 36.4489 33.8142 32.5349 29.0852 32.5349V34.5349ZM35.6562 41.2093C35.6562 44.8908 32.6842 47.8837 29.0852 47.8837V49.8837C33.8142 49.8837 37.6562 45.9697 37.6562 41.2093H35.6562Z" fill="#6F63DE"/>
<path d="M86 70L95 60.5L86 51" stroke="#6F63DE" stroke-width="4" stroke-linecap="round" stroke-linejoin="round"/>
<path d="M75 51L66 60.5L75 70" stroke="#6F63DE" stroke-width="4" stroke-linecap="round" stroke-linejoin="round"/>
<line x1="1.5" y1="-1.5" x2="36.5" y2="-1.5" transform="matrix(-1 0 0 1 84 16)" stroke="#6F63DE" stroke-width="3" stroke-linecap="round"/>
<line x1="1.5" y1="-1.5" x2="33.5" y2="-1.5" transform="matrix(-1 -1.05636e-07 -7.23499e-08 1 81 23)" stroke="#6F63DE" stroke-width="3" stroke-linecap="round"/>
<line x1="1.5" y1="-1.5" x2="27.5" y2="-1.5" transform="matrix(-1 -1.09278e-07 -6.99382e-08 1 75 30)" stroke="#6F63DE" stroke-width="3" stroke-linecap="round"/>
<line x1="73.5" y1="38.5" x2="47.5" y2="38.5" stroke="#6F63DE" stroke-width="3" stroke-linecap="round"/>
<rect x="13" y="14" width="24" height="9" rx="2" stroke="#6F63DE" stroke-width="3"/>
</svg>
