<svg width="196" height="73" viewBox="0 0 196 73" fill="none" xmlns="http://www.w3.org/2000/svg">
<rect width="196" height="73" fill=""/>
<path d="M89.239 23.9351H98.7087L104.347 51.2403H95.2193L94.5849 47.0052H84.6415L82.2949 51.2403H72.4979L89.239 23.9351ZM92.4579 32.9098L88.3911 40.3384H93.5478L92.4579 32.9098Z" fill="white"/>
<path d="M110.222 23.9351H132.793L131.369 31.0272H117.808L116.887 35.5803H128.275L126.888 42.4536H115.509L113.736 51.2317H104.713L110.222 23.9351Z" fill="white"/>
<path d="M134.557 23.9351H143.57L139.541 43.8988H153.838L152.356 51.2403H129.047L134.557 23.9351Z" fill="white"/>
<path d="M50.6644 54C51.3944 53.9993 52.1064 53.7745 52.7035 53.356C53.3006 52.9376 53.7537 52.3459 54.0012 51.6616L57.8485 41.0879H64.7052C65.4262 41.0879 66.1401 40.9464 66.8062 40.6715C67.4723 40.3965 68.0775 39.9935 68.5874 39.4855C69.0972 38.9774 69.5016 38.3743 69.7775 37.7105C70.0534 37.0467 70.1954 36.3352 70.1954 35.6167V31.0209H54.8675C53.5589 31.0206 52.2818 31.4208 51.209 32.1673C50.1361 32.9139 49.3192 33.9709 48.8689 35.1953L42 54H50.6644Z" fill="white"/>
<path d="M51.2241 19C48.7784 19.0005 46.433 19.9689 44.7034 21.6921C42.9738 23.4154 42.0016 25.7525 42.0005 28.1898V45.7306L46.1975 34.2428C46.8451 32.4693 48.0244 30.9372 49.5754 29.8544C51.1265 28.7715 52.9743 28.1904 54.868 28.1898H67.3675C68.0885 28.1898 68.8024 28.0483 69.4685 27.7734C70.1346 27.4984 70.7398 27.0954 71.2497 26.5873C71.7595 26.0793 72.1639 25.4761 72.4398 24.8123C72.7157 24.1485 72.8577 23.437 72.8577 22.7185V19H51.2241Z" fill="white"/>
</svg>
