<svg width="71" height="66" viewBox="0 0 71 66" fill="none" xmlns="http://www.w3.org/2000/svg">
<circle cx="30" cy="30" r="30" fill="#F5F8FA" fill-opacity="0.5"/>
<path d="M14.5935 65.2893C14.1904 65.0035 13.8629 64.6666 14.0579 64.131C14.2528 63.5953 14.6957 63.5102 15.1935 63.531C15.6421 63.5499 16.0944 63.5121 16.5411 63.5424C16.8931 63.567 17.0124 63.4723 16.9991 63.0995C16.9688 62.2818 16.984 61.4623 16.9897 60.639C17.0143 58.61 18.2218 57.4082 20.247 57.4044C22.4728 57.4044 24.6986 57.4044 26.9244 57.4044C27.4348 57.3915 27.9429 57.4763 28.4215 57.6542C28.4215 56.8176 28.4215 56.0473 28.4215 55.277C28.4215 53.4487 29.6536 52.1938 31.4838 52.1484C32.2409 52.1295 33.0024 52.1295 33.7683 52.1484C33.9091 52.171 34.0534 52.1434 34.1759 52.0704C34.2984 51.9974 34.3913 51.8836 34.4383 51.749C35.6194 49.2336 36.8231 46.7296 38.0231 44.2218C38.1356 43.9945 38.2 43.7465 38.2123 43.4931C38.3127 41.4698 38.4149 39.4466 38.5076 37.4233C38.5231 36.8978 38.6019 36.376 38.7423 35.8694C39.1379 34.5067 39.5126 33.1382 39.912 31.7774C40.0785 31.2096 40.529 30.9522 41.0173 31.1036C41.5056 31.255 41.7479 31.696 41.5946 32.2619C41.3428 33.195 41.076 34.1224 40.7864 35.1577C42.134 34.6089 43.3832 34.0978 44.6342 33.5944C44.8083 33.5244 44.8424 33.371 44.8916 33.2291C45.3383 31.8834 45.7812 30.5377 46.2316 29.1769C46.1733 29.1583 46.1129 29.1468 46.0518 29.1428C45.5635 29.1806 45.202 28.9933 45.062 28.5163C44.9219 28.0393 45.1377 27.6968 45.556 27.445C47.4386 26.3094 49.3199 25.1688 51.1999 24.0231C52.0498 23.5083 52.9034 23.0105 53.7418 22.4711C54.7809 21.7992 55.3809 20.7279 55.3657 19.668C55.1765 19.6358 55.0364 19.7702 54.8888 19.8573C51.4157 21.7386 47.9502 23.6426 44.4658 25.4975C44.1343 25.6602 43.8399 25.8895 43.6012 26.1713C43.3625 26.453 43.1845 26.7809 43.0784 27.1346C42.9119 27.6741 42.7642 28.2173 42.5939 28.7548C42.4141 29.3226 41.992 29.5781 41.4924 29.4343C40.9927 29.2904 40.7353 28.8494 40.9037 28.2854C41.1857 27.2974 41.3977 26.2792 41.9693 25.3991C42.1169 25.1719 42.0015 25.0943 41.8539 24.9391C40.847 23.8679 40.264 22.5619 39.8287 21.184C39.717 20.8301 39.8287 20.4535 39.9006 20.0863C40.1751 18.7292 41.9826 17.8018 43.1295 17.6618C44.2765 17.5217 45.3326 18.1406 45.9383 19.35C46.3376 20.1468 46.8487 20.8945 47.0739 21.7689C47.1439 22.0339 47.2632 21.9865 47.4524 21.8919C49.6719 20.6793 51.8965 19.4724 54.126 18.2712C54.4327 18.1065 54.3513 17.8491 54.3513 17.6125C54.3513 14.0253 54.3513 10.4393 54.3513 6.85451C54.3513 6.69931 54.3513 6.54222 54.3513 6.38702C54.3872 5.79083 54.7298 5.42554 55.237 5.42554C55.7443 5.42554 56.0906 5.75486 56.0906 6.33213C56.0906 6.81288 56.3651 6.74663 56.6585 6.74663C59.8798 6.74663 63.1012 6.74663 66.3225 6.74663C66.5768 6.73704 66.8313 6.76058 67.0796 6.81666C68.0259 7.07407 68.306 8.24564 67.5603 8.95161C66.855 9.62415 66.1231 10.2677 65.3648 10.8822C65.009 11.1717 65.0771 11.308 65.3856 11.5597C66.0481 12.1029 66.6802 12.684 67.3237 13.2518C67.9673 13.8196 68.1395 14.2966 67.8916 14.8776C67.6171 15.5325 67.0701 15.6934 66.4153 15.6915C63.1977 15.6915 59.9707 15.7047 56.7493 15.6744C56.1815 15.6744 56.066 15.841 56.0963 16.352C56.1247 16.8309 56.0301 17.287 56.6736 17.4876C57.0086 17.5898 57.0389 18.0214 57.0938 18.3431C57.3524 19.6972 57.0814 21.0989 56.3367 22.2591C56.1779 22.502 56.0949 22.7866 56.0982 23.0767C56.0982 27.852 56.1096 32.6272 56.0982 37.4006C56.0982 37.8529 56.2231 37.9438 56.649 37.9362C58.1518 37.9097 59.6546 37.923 61.1593 37.9362C63.2147 37.9362 64.4279 39.1456 64.4298 41.2087C64.4298 48.4375 64.426 55.6669 64.4185 62.8969C64.4185 63.4193 64.5339 63.6199 65.0771 63.5556C65.4803 63.5083 65.8948 63.5556 66.3055 63.5442C66.8127 63.5272 67.3105 63.5442 67.5319 64.112C67.7326 64.6269 67.4278 64.9827 67.0796 65.3082L14.5935 65.2893ZM44.233 35.7085C43.0198 36.07 41.8955 36.6549 40.7126 37.0845C40.3624 37.2113 40.2564 37.3854 40.2413 37.7507C40.1618 39.6585 40.052 41.5626 39.946 43.4685C39.9122 44.0908 39.7512 44.6995 39.4729 45.2571C38.4376 47.3902 37.425 49.5327 36.4181 51.6771C36.3575 51.8039 36.1209 51.9837 36.3499 52.12C36.5278 52.226 36.7285 52.12 36.842 51.9307C36.8723 51.8815 36.914 51.838 36.9499 51.7907C38.7783 49.3655 40.6078 46.941 42.4387 44.5171C42.6797 44.21 42.8421 43.8488 42.9119 43.4647C43.3762 40.902 43.8342 38.3375 44.286 35.771V35.6404L44.233 35.7085ZM62.6696 52.0594C62.6696 48.4747 62.6696 44.8906 62.6696 41.3071C62.6696 40.0844 62.2741 39.685 61.0703 39.6832H54.6352C53.4295 39.6832 53.0264 40.0882 53.0264 41.3014C53.0264 45.4123 53.0264 49.5226 53.0264 53.6322C53.0264 54.3534 52.6952 54.7679 52.1387 54.7679C51.5823 54.7679 51.27 54.3515 51.27 53.6228C51.27 52.3358 51.27 51.0506 51.27 49.7655C51.27 48.7075 50.8006 48.2513 49.7293 48.2513C47.5426 48.2513 45.356 48.2513 43.1693 48.2513C42.0526 48.2513 41.6097 48.6867 41.6078 49.8071C41.6078 54.2284 41.6078 58.6516 41.5984 63.073C41.5984 63.4515 41.693 63.5556 42.0772 63.5537C44.9793 63.5373 47.8877 63.5373 50.8025 63.5537C51.181 63.5537 51.2851 63.4515 51.2794 63.073C51.2586 61.5588 51.2681 60.0333 51.2794 58.5135C51.2794 57.8151 51.5842 57.4309 52.1293 57.4157C52.6744 57.4006 53.0359 57.8037 53.0377 58.5229C53.0377 60.022 53.0586 61.5229 53.0264 63.0219C53.015 63.4704 53.1437 63.5575 53.5715 63.5556C56.4219 63.5354 59.2716 63.5354 62.1207 63.5556C62.5598 63.5556 62.7037 63.4704 62.6999 62.9973C62.6583 59.3425 62.6696 55.6991 62.6696 52.0556V52.0594ZM34.9834 63.531C36.4673 63.531 37.9511 63.531 39.435 63.531C39.7189 63.531 39.8419 63.4837 39.84 63.1525C39.8268 60.5027 39.84 57.8529 39.8249 55.2032C39.8249 54.3571 39.3574 53.8972 38.5095 53.8915C36.1663 53.8751 33.8232 53.8751 31.4801 53.8915C30.6492 53.8915 30.1817 54.3931 30.1798 55.2164C30.1798 57.8473 30.1798 60.4781 30.1684 63.1089C30.1684 63.4439 30.2631 63.5272 30.5905 63.5234C32.0535 63.531 33.5185 63.531 34.9834 63.531ZM51.2605 46.6861C51.2605 46.4874 51.2605 46.3076 51.2605 46.1183C51.2605 44.3846 51.2492 42.6509 51.2605 40.9172C51.2532 40.1997 51.5092 39.5045 51.9801 38.9631C52.451 38.4218 53.1041 38.0719 53.8156 37.9797C54.2888 37.9211 54.3569 37.764 54.3569 37.3514C54.3443 33.1647 54.3412 28.9781 54.3475 24.7915V24.2483C54.2745 24.2574 54.2028 24.2746 54.1336 24.2994C52.3526 25.3763 50.5735 26.459 48.7887 27.5302C48.6129 27.6521 48.4925 27.8385 48.4537 28.0488C47.8575 29.8544 47.2726 31.6657 46.6537 33.4657C46.5816 33.6189 46.5587 33.7907 46.5882 33.9574C46.6177 34.1242 46.6981 34.2777 46.8184 34.3969C47.9862 35.7539 49.1293 37.1356 50.2631 38.5229C50.536 38.8421 50.7372 39.2161 50.8531 39.6196C50.969 40.0232 50.9969 40.447 50.935 40.8623C50.723 42.4048 50.5564 43.9512 50.3539 45.4956C50.2271 46.4855 50.2214 46.4836 51.2605 46.6861ZM65.4216 8.50115C62.3214 8.50115 59.4029 8.50115 56.4843 8.50115C56.0906 8.50115 56.1058 8.71124 56.1058 8.98189C56.1058 10.4601 56.1266 11.9402 56.0963 13.4165C56.0963 13.8726 56.2345 13.9578 56.6641 13.9559C59.3688 13.9275 62.0753 13.9426 64.7875 13.9426C64.9484 13.9426 65.1301 14.0202 65.3099 13.848C64.7194 13.3256 64.1346 12.8184 63.5592 12.2998C62.7851 11.6033 62.7813 10.8632 63.5592 10.1648C64.127 9.63487 64.7137 9.12574 65.4216 8.50115ZM23.5876 63.531C25.0695 63.531 26.5496 63.531 28.0316 63.531C28.3287 63.531 28.4328 63.4647 28.4253 63.1525C28.4025 62.2761 28.4253 61.4017 28.4139 60.5254C28.4025 59.6491 27.9445 59.1608 27.0398 59.157C24.7408 59.1456 22.4406 59.1456 20.1391 59.157C19.2249 59.157 18.7801 59.6093 18.7631 60.5235C18.7461 61.379 18.7782 62.2364 18.7498 63.0919C18.7385 63.4553 18.8464 63.5424 19.2022 63.5386C20.6634 63.531 22.1264 63.531 23.5876 63.531ZM46.031 36.1382C45.8739 37.0296 45.8001 37.7924 45.5957 38.5173C45.3913 39.2422 45.5522 39.632 46.2222 39.9292C47.036 40.2907 47.3408 40.9853 47.407 41.8522C47.5111 43.249 47.6701 44.6401 47.8158 46.0331C47.8366 46.2413 47.7761 46.4968 48.166 46.493C48.5559 46.4893 48.5029 46.2337 48.5275 46.0274C48.7508 44.2521 48.9533 42.4749 49.1823 40.6995C49.2147 40.5179 49.208 40.3314 49.1626 40.1526C49.1173 39.9737 49.0343 39.8066 48.9193 39.6623C47.9881 38.5191 47.0493 37.3798 46.031 36.1382ZM43.3813 19.3936C42.9308 19.4125 42.5731 19.6661 42.2002 19.8667C41.57 20.2055 41.4034 20.7033 41.7062 21.3317C42.0091 21.96 42.3327 22.5827 42.6677 23.1941C43.0027 23.8054 43.4891 23.9511 44.0967 23.6748C44.3457 23.562 44.5883 23.4356 44.8235 23.2963C45.3913 22.9688 45.5579 22.4862 45.2853 21.9127C44.9692 21.2465 44.6153 20.5878 44.2746 19.9443C44.1905 19.7774 44.0614 19.6374 43.9019 19.54C43.7423 19.4427 43.5587 19.392 43.3718 19.3936H43.3813ZM45.0979 41.3487C44.7326 43.1297 44.7402 45.0489 43.0463 46.4817C44.0797 46.4817 44.8897 46.4665 45.696 46.4817C46.05 46.493 46.0992 46.3833 46.0594 46.0483C45.903 44.7183 45.7705 43.3846 45.6619 42.0471C45.626 41.6667 45.5086 41.4301 45.0885 41.3468L45.0979 41.3487ZM38.907 52.137C39.8533 52.3604 39.8533 52.3604 39.8419 51.4519C39.8419 51.3232 39.893 51.1793 39.7416 51.0222L38.907 52.137Z" fill="#6F63DE"/>
</svg>
