<svg width="196" height="73" viewBox="0 0 196 73" fill="none" xmlns="http://www.w3.org/2000/svg">
<rect width="196" height="73" fill=""/>
<path d="M79.0192 51.0414V21.5265C79.0192 21.4571 79.0329 21.3885 79.0595 21.3244C79.0861 21.2604 79.1251 21.2022 79.1743 21.1533C79.2234 21.1044 79.2818 21.0657 79.346 21.0393C79.4101 21.013 79.4789 20.9997 79.5482 21H81.7404C81.8796 21.0005 82.0131 21.056 82.1115 21.1545C82.21 21.2529 82.2655 21.3864 82.266 21.5256V51.0414C82.2655 51.1806 82.21 51.3141 82.1115 51.4126C82.0131 51.511 81.8796 51.5666 81.7404 51.567H79.5482C79.4789 51.5673 79.4103 51.554 79.3462 51.5277C79.282 51.5015 79.2237 51.4628 79.1746 51.414C79.1254 51.3652 79.0864 51.3071 79.0597 51.2432C79.0331 51.1792 79.0193 51.1107 79.0192 51.0414Z" fill="white"/>
<path d="M86.1989 51.0414V21.5265C86.1989 21.3871 86.2541 21.2535 86.3525 21.1548C86.4508 21.0561 86.5843 21.0005 86.7236 21H88.9158C89.055 21.0004 89.1885 21.056 89.287 21.1545C89.3854 21.2529 89.441 21.3864 89.4414 21.5256V39.1566L98.0913 29.638C98.142 29.5845 98.203 29.5418 98.2706 29.5124C98.3382 29.4831 98.411 29.4678 98.4847 29.4673H100.874C100.976 29.4673 101.076 29.4969 101.161 29.5524C101.247 29.6079 101.315 29.687 101.356 29.7801C101.398 29.8732 101.411 29.9764 101.396 30.0771C101.38 30.1779 101.335 30.272 101.267 30.3479L92.6439 39.8665L102.291 50.7035C102.359 50.7794 102.404 50.8735 102.42 50.9742C102.435 51.075 102.422 51.1782 102.38 51.2713C102.339 51.3644 102.271 51.4435 102.185 51.499C102.1 51.5545 102 51.584 101.898 51.5841H99.2331C99.0844 51.581 98.9428 51.5198 98.8388 51.4134L89.4525 40.8435V51.0542C89.4523 51.1934 89.397 51.327 89.2987 51.4256C89.2003 51.5242 89.067 51.58 88.9277 51.5806H86.7373C86.5953 51.5776 86.46 51.5198 86.3596 51.4193C86.2593 51.3188 86.2017 51.1834 86.1989 51.0414Z" fill="white"/>
<path d="M107.554 26.7171C107.708 26.5668 107.829 26.3876 107.912 26.1898C107.995 25.992 108.038 25.7797 108.038 25.5652C108.038 25.3507 107.995 25.1383 107.912 24.9405C107.829 24.7428 107.708 24.5635 107.554 24.4132C106.911 23.769 105.94 23.769 105.283 24.4132C104.977 24.7144 104.804 25.1247 104.801 25.5537C104.798 25.9827 104.966 26.3954 105.267 26.7009C105.568 27.0064 105.978 27.1798 106.407 27.1828C106.836 27.1859 107.249 27.0183 107.554 26.7171Z" fill="white"/>
<path d="M107.515 29.4673H105.323C105.184 29.4678 105.05 29.5234 104.952 29.6221C104.853 29.7207 104.798 29.8544 104.797 29.9938V51.0422C104.798 51.1815 104.853 51.3149 104.952 51.4134C105.05 51.5119 105.184 51.5674 105.323 51.5678H107.515C107.654 51.5674 107.788 51.5118 107.886 51.4133C107.984 51.3148 108.04 51.1814 108.04 51.0422V29.9938C108.04 29.8545 107.984 29.721 107.886 29.6224C107.788 29.5237 107.654 29.468 107.515 29.4673Z" fill="white"/>
<path d="M111.974 51.0422V29.9938C111.974 29.8544 112.029 29.7207 112.128 29.6221C112.226 29.5234 112.36 29.4678 112.499 29.4673H114.691C114.831 29.468 114.964 29.5237 115.062 29.6224C115.161 29.721 115.216 29.8545 115.216 29.9938V33.2022C116.397 30.7439 118.813 29.1269 122.003 29.1269C122.304 29.1269 122.593 29.1397 122.881 29.1661C123.014 29.177 123.137 29.2371 123.227 29.3344C123.316 29.4317 123.367 29.5592 123.367 29.6917V32.0981C123.367 32.1738 123.35 32.2487 123.319 32.3176C123.288 32.3866 123.242 32.448 123.185 32.4978C123.127 32.5475 123.06 32.5845 122.988 32.6062C122.915 32.628 122.839 32.6339 122.764 32.6237C122.239 32.5521 121.709 32.5173 121.179 32.5196C117.714 32.5196 115.216 35.0548 115.216 38.7487V51.0678C115.216 51.2071 115.161 51.3406 115.062 51.4393C114.964 51.5379 114.831 51.5936 114.691 51.5943H112.503C112.362 51.5844 112.23 51.5224 112.132 51.4203C112.034 51.3183 111.978 51.1835 111.974 51.0422Z" fill="white"/>
<path d="M146 39.6302V39.4458C145.938 36.4994 144.787 33.6801 142.77 31.5315C142.324 31.0642 141.841 30.6334 141.326 30.243C139.931 29.1998 138.306 28.5055 136.588 28.2181C136.129 28.1916 135.656 28.166 135.171 28.166H134.592C134.496 28.164 134.4 28.1682 134.304 28.1788C131.456 28.323 129.001 29.4537 126.994 31.5443C126.875 31.6629 126.757 31.7943 126.652 31.9129L126.639 31.9257C124.946 33.8448 123.987 36.1461 123.79 38.8281C123.792 38.8677 123.788 38.9075 123.777 38.9458C123.767 39.0464 123.763 39.1476 123.765 39.2487C123.751 39.433 123.751 39.6302 123.751 39.8273V39.8793C123.751 43.2072 124.841 46.0231 126.994 48.2545C129.146 50.4859 131.81 51.5935 134.921 51.5935C137.796 51.5935 139.935 50.7128 141.379 49.3749C141.524 49.2435 141.654 49.1121 141.773 48.9806C142.15 48.5796 142.476 48.1337 142.744 47.6529V51.0712C142.744 51.2105 142.8 51.3439 142.898 51.4424C142.997 51.5409 143.13 51.5964 143.269 51.5969H145.474C145.614 51.5964 145.747 51.5409 145.846 51.4424C145.944 51.3439 146 51.2105 146 51.0712V39.637V39.6302ZM140.788 46.0871C139.252 47.7041 137.284 48.5455 134.921 48.5455C132.65 48.5455 130.76 47.7169 129.225 46.0871C127.741 44.4155 126.992 42.3513 126.992 39.858C126.992 37.3646 127.739 35.2954 129.223 33.6784C130.759 32.0085 132.636 31.1808 134.919 31.1808C137.282 31.1808 139.251 32.0085 140.786 33.6784C142.363 35.2951 143.151 37.355 143.151 39.858C143.151 42.3641 142.363 44.4155 140.788 46.0871Z" fill="white"/>
<path d="M59.0809 28.6524C57.0454 28.6523 55.0537 29.2435 53.348 30.3542C51.6423 31.4649 50.296 33.0472 49.4727 34.9088C49.2751 35.6464 49.139 36.399 49.0657 37.159C49.0265 37.5541 49 37.9602 49 38.3681V38.7094C49 41.3001 49.5862 43.5886 50.7587 45.5751C51.2539 46.4083 51.8394 47.1843 52.5045 47.8893C54.8938 50.3348 57.8078 51.544 61.2722 51.544H61.3123C61.535 51.5576 61.7586 51.5576 61.9813 51.5576C62.8875 51.5576 65.8928 51.5047 66.654 51.4655C66.7891 51.4593 66.9166 51.401 67.0097 51.3028C67.1028 51.2047 67.1542 51.0742 67.1532 50.939L67.166 46.6929C67.1663 46.5917 67.1382 46.4924 67.0848 46.4063C67.0314 46.3203 66.9548 46.2511 66.8639 46.2066C66.7896 46.1737 66.7096 46.1557 66.6284 46.1536C65.8664 46.1801 62.966 46.2066 62.047 46.2066C59.947 46.2066 58.2404 45.4702 56.8359 44.0631C55.4706 42.6432 54.7879 40.8427 54.7879 38.6992C54.7879 36.5557 55.4706 34.7424 56.8359 33.3353C58.2541 31.9154 59.947 31.1927 62.047 31.1927C64.147 31.1927 65.9457 31.9291 67.3494 33.3353C68.1184 34.0757 68.7108 34.9799 69.0825 35.9806C68.4138 33.8528 67.0828 31.9942 65.2837 30.676C63.4846 29.3577 61.3113 28.6488 59.0809 28.6524Z" fill="white"/>
<path d="M74.9634 38.5652V51.0414C74.963 51.1806 74.9075 51.3141 74.809 51.4125C74.7105 51.511 74.5771 51.5665 74.4378 51.567H70.0766C69.9374 51.5665 69.804 51.511 69.7057 51.4125C69.6073 51.314 69.552 51.1805 69.5518 51.0414V39.9322C69.5646 39.6822 69.5782 39.4202 69.5782 39.1694C69.5782 38.8545 69.5646 38.5388 69.539 38.2367V38.223C69.5008 37.4602 69.3504 36.7072 69.0927 35.9882C68.4484 33.9549 67.2004 32.1659 65.5146 30.8591C63.8289 29.5522 61.7853 28.7895 59.6555 28.6724C57.5258 28.5552 55.4108 29.0891 53.5919 30.2031C51.7729 31.3171 50.3362 32.9584 49.4727 34.9088C50.0185 32.9068 51.0614 31.0752 52.5045 29.5842C53.4502 28.5838 54.5602 27.7526 55.7863 27.1267C57.7663 26.0549 59.9909 25.5161 62.2418 25.563C64.4928 25.61 66.6929 26.241 68.6266 27.3944C70.5602 28.5477 72.1609 30.1837 73.2718 32.1421C74.3827 34.1004 74.9656 36.3138 74.9634 38.5652Z" fill="white"/>
</svg>
