<svg width="196" height="73" viewBox="0 0 196 73" fill="none" xmlns="http://www.w3.org/2000/svg">
<rect width="196" height="73" fill=""/>
<g clip-path="url(#clip0_4385_1267)">
<path d="M51.5856 24.1255C51.2295 21.7944 50.9074 21.5683 48.3489 22.0189C48.2455 22.5574 48.1166 23.1313 48.0301 23.7069C47.2389 29.115 46.4353 34.5219 45.6192 39.9278C45.1444 42.9559 44.5392 45.9655 44 48.9767V49.954H47.2638L49.6375 32.0047H49.9765L52.3299 49.9068H55.4377C55.4055 49.3683 55.4055 48.9615 55.341 48.5413C54.0965 40.3953 52.8447 32.2567 51.5856 24.1255Z" fill="white"/>
<path d="M101.095 9.2802L101.022 9L99.9507 9.10971V63H101.283V10.4111C101.253 10.0295 101.19 9.65119 101.095 9.2802Z" fill="white"/>
<path d="M79.7152 36.3275C78.5707 32.295 77.7399 28.2254 76.8769 24.1744C76.3869 21.8704 75.9003 21.5868 73.3927 22.0274V49.8781H76.1699V35.9139C76.466 36.1535 76.6702 36.4873 76.7481 36.8592C77.5839 40.5017 78.3995 44.1476 79.2353 47.7901C79.7321 49.9389 80.3137 50.2764 82.5856 49.7447V21.9599H79.7152V36.3275Z" fill="white"/>
<path d="M152.002 25.6446C152.002 23.084 150.538 21.6763 147.933 21.6493C144.62 21.6121 143.131 22.7667 143.119 25.5315C143.086 32.4711 143.086 39.4085 143.119 46.3436C143.119 49.0881 144.565 50.2595 147.738 50.2427C150.554 50.2427 151.99 48.916 152 46.2946V36.054C152.002 32.6444 152.002 29.115 152.002 25.6446ZM149.119 35.9679V45.5553C149.104 46.6238 148.904 47.6129 147.636 47.65V47.6669C146.256 47.7091 146.018 46.6727 146.018 45.5182V26.3383C146.018 25.2631 146.229 24.2656 147.502 24.2318C148.882 24.1947 149.119 25.2108 149.119 26.3805V35.9679Z" fill="white"/>
<path d="M119.067 21.8097C118.882 21.8763 118.702 21.9552 118.528 22.046C118.981 22.8899 119.206 23.9904 119.854 24.3719C120.771 24.9087 120.835 25.5113 120.835 26.3485V47.5049C120.835 50.1634 120.944 50.2495 123.797 49.7819V26.097C123.809 21.5852 123.55 21.3539 119.067 21.8097Z" fill="white"/>
</g>
<defs>
<clipPath id="clip0_4385_1267">
<rect width="108" height="54" fill="white" transform="translate(44 9)"/>
</clipPath>
</defs>
</svg>
