<svg width="97" height="85" viewBox="0 0 97 85" fill="none" xmlns="http://www.w3.org/2000/svg">
<path d="M90.7291 42.6726V11.3069C90.7291 6.35748 86.7566 2.34521 81.8562 2.34521H10.8729C5.97254 2.34521 2 6.35748 2 11.3069V56.1151C2 61.0644 5.97254 65.0767 10.8729 65.0767C38.5936 65.0767 29.8241 65.0767 57.5448 65.0767" stroke="#6F63DE" stroke-width="4" stroke-linecap="round" stroke-linejoin="round"/>
<path d="M28.6194 82.9998H64.1111" stroke="#6F63DE" stroke-width="4" stroke-linecap="round" stroke-linejoin="round"/>
<path d="M46.3658 65.0766V82.9999" stroke="#6F63DE" stroke-width="4" stroke-linecap="round" stroke-linejoin="round"/>
<path d="M86 70L95 60.5L86 51" stroke="#6F63DE" stroke-width="4" stroke-linecap="round" stroke-linejoin="round"/>
<path d="M75 51L66 60.5L75 70" stroke="#6F63DE" stroke-width="4" stroke-linecap="round" stroke-linejoin="round"/>
<path d="M36.4055 35.4531L31.8704 23.5L27.5462 35.4531H36.4055ZM44.2454 46H40.3958L37.4075 38.1602H26.6145L23.7669 46H20.1634L30.0598 20.2305H33.7337L44.2454 46ZM46.373 20.2305H55.9883C58.0977 20.2305 59.8613 20.4297 61.2793 20.8281C62.709 21.2148 63.8398 22.0645 64.6719 23.377C65.5039 24.6777 65.9199 26.1367 65.9199 27.7539C65.9199 30.3555 65.0938 32.3301 63.4414 33.6777C61.7891 35.0254 59.3984 35.6992 56.2695 35.6992H49.7832V46H46.373V20.2305ZM49.7832 32.6406H56.3047C58.4961 32.6406 60.0547 32.2305 60.9805 31.4102C61.918 30.5898 62.3867 29.4062 62.3867 27.8594C62.3867 26.8281 62.1289 25.9141 61.6133 25.1172C61.0977 24.3203 60.4414 23.8164 59.6445 23.6055C58.8594 23.3945 57.7227 23.2891 56.2344 23.2891H49.7832V32.6406ZM73.5144 46H70.0866V20.2305H73.5144V46Z" fill="#6F63DE"/>
</svg>
