<svg width="78" height="78" viewBox="0 0 78 78" fill="none" xmlns="http://www.w3.org/2000/svg">
<path d="M51.9996 52L64.4796 39.04L51.9996 26.08" stroke="#6F63DE" stroke-width="3.69231" stroke-linecap="round" stroke-linejoin="round"/>
<line x1="45.5999" y1="21.6801" x2="34.1603" y2="57.5224" stroke="#6F63DE" stroke-width="3.69231" stroke-linecap="round"/>
<path d="M28.0001 26.08L15.5201 39.04L28.0001 52" stroke="#6F63DE" stroke-width="3.69231" stroke-linecap="round" stroke-linejoin="round"/>
<path d="M22.6133 2.08008H10.2934C8.11504 2.08008 6.02594 2.94541 4.48565 4.48571C2.94535 6.02601 2.08002 8.1151 2.08002 10.2934V22.6134M76 22.6134V10.2934C76 8.1151 75.1347 6.02601 73.5944 4.48571C72.0541 2.94541 69.965 2.08008 67.7867 2.08008H55.4667M55.4667 76.0001H67.7867C69.965 76.0001 72.0541 75.1347 73.5944 73.5944C75.1347 72.0541 76 69.9651 76 67.7867V55.4667M2.08002 55.4667V67.7867C2.08002 69.9651 2.94535 72.0541 4.48565 73.5944C6.02594 75.1347 8.11504 76.0001 10.2934 76.0001H22.6133" stroke="#6F63DE" stroke-width="3.69231" stroke-linecap="round" stroke-linejoin="round"/>
</svg>
