<svg width="73" height="72" viewBox="0 0 73 72" fill="none" xmlns="http://www.w3.org/2000/svg">
<circle cx="30" cy="30" r="30" fill="#F5F8FA" fill-opacity="0.5"/>
<path d="M47.5057 18.0052C47.8904 18.0107 48.2738 18.0517 48.6509 18.1276C49.2329 18.2462 49.8167 18.3537 50.38 18.5279C53.7916 19.5768 56.2457 21.7433 57.7573 24.9661C57.9153 25.3053 58.0733 25.4053 58.4526 25.3812C60.0505 25.2684 61.6526 25.5314 63.1299 26.149C64.6071 26.7666 65.9181 27.7215 66.9572 28.9367C67.9964 30.1519 68.7345 31.5935 69.1122 33.1453C69.49 34.6971 69.4967 36.3156 69.1318 37.8704C69.0556 38.2022 69.102 38.3838 69.4032 38.595C70.868 39.6242 71.9683 41.0893 72.5464 42.7802C73.1245 44.471 73.1507 46.301 72.6212 48.0076C72.0917 49.7142 71.0338 51.21 69.599 52.2803C68.1642 53.3507 66.4263 53.9408 64.6344 53.966C64.0952 53.966 63.5561 53.966 62.9258 53.966V54.9631C62.9258 55.7044 62.9258 56.4642 62.9258 57.2148C62.9147 58.6344 62.0613 59.5147 60.6334 59.6148C60.5489 59.6226 60.4673 59.6495 60.3948 59.6935C60.3223 59.7375 60.2609 59.7974 60.2151 59.8687C59.9046 60.5915 59.4863 61.5366 59.1851 62.278C59.1412 62.3819 59.127 62.496 59.144 62.6075C59.1611 62.7191 59.2088 62.8237 59.2818 62.9099C59.5477 63.2231 59.873 63.4325 59.9976 63.8365C60.0956 64.1687 60.0995 64.5214 60.009 64.8557C59.9184 65.19 59.7369 65.4927 59.4844 65.7306C58.6776 66.5775 57.8558 67.4115 57.0024 68.2121C56.6059 68.5913 56.0795 68.8057 55.5301 68.8119C54.9806 68.8181 54.4495 68.6156 54.0445 68.2455C53.9125 68.1324 53.7897 68.0101 53.6894 67.9174C52.8025 68.2659 51.9436 68.5976 51.0865 68.9479C51.0292 68.9752 50.9791 69.0157 50.9403 69.0659C50.9016 69.1161 50.8752 69.1747 50.8634 69.237C50.8634 70.3304 50.367 71.0458 49.4839 71.4813C49.2508 71.5919 48.998 71.6549 48.7402 71.6666C47.5652 71.7315 46.5352 71.7018 45.4438 71.6666C44.8722 71.6559 44.3214 71.4513 43.8821 71.0865C43.3764 70.6529 43.0994 70.0487 43.1031 69.2333C43.0909 69.1712 43.0643 69.1127 43.0256 69.0626C42.9869 69.0124 42.9371 68.9719 42.88 68.9441C42.0285 68.5939 41.1696 68.264 40.2771 67.9156C39.6729 68.5513 38.9255 68.9942 37.9792 68.7181C37.5506 68.5833 37.1557 68.359 36.8209 68.0601C36.1665 67.4819 35.6087 66.7981 34.9506 66.2273C33.7663 65.2043 33.439 63.755 34.787 62.4336C34.4393 61.5385 34.1028 60.6471 33.7365 59.7686C33.6975 59.676 33.4855 59.6167 33.3498 59.6092C31.8959 59.5147 31.0611 58.6326 31.0556 57.1648C31.0556 56.1195 31.0556 55.0761 31.0556 53.966H29.5161C24.6321 53.9401 20.8467 50.0742 21.0048 45.1982C21.0922 42.4276 22.3229 40.2111 24.5856 38.595C24.7116 38.5284 24.809 38.4182 24.8593 38.2852C24.9096 38.1521 24.9095 38.0053 24.8589 37.8723C24.4941 36.3178 24.5008 34.6996 24.8783 33.1482C25.2558 31.5967 25.9937 30.1553 27.0324 28.9402C28.0711 27.725 29.3816 26.77 30.8583 26.1522C32.3351 25.5343 33.9368 25.2709 35.5344 25.3831C35.9062 25.4072 36.0679 25.3034 36.2315 24.968C38.1279 21.0502 41.2644 18.9319 45.5498 18.1164C46.1973 18.0225 46.8517 17.9853 47.5057 18.0052ZM53.7247 53.9586C53.0647 53.9586 52.3861 53.9716 51.7075 53.9586C51.4415 53.9677 51.1828 53.8717 50.9875 53.6916C50.7921 53.5115 50.6761 53.2618 50.6644 52.9968C50.6444 52.7236 50.7333 52.4535 50.9119 52.2453C51.0905 52.0371 51.3443 51.9075 51.6182 51.8848C51.8097 51.8663 52.0023 51.8607 52.1946 51.8681C56.2327 51.8681 60.2696 51.8681 64.3053 51.8681C64.6899 51.8797 65.0747 51.8605 65.4562 51.8107C68.1985 51.3622 70.357 49.2773 70.7976 46.6716C71.2754 43.8305 70.0223 41.2489 67.4864 39.859C66.7427 39.4475 66.6479 39.0843 66.8301 38.2707C67.0532 37.2755 67.3265 36.2451 67.2819 35.2425C67.0644 30.2387 62.6339 26.7415 57.6959 27.5718C56.8593 27.7127 56.493 27.5032 56.2086 26.7267C54.7695 22.6996 51.1887 20.1217 47.0074 20.1161C42.8261 20.1106 39.2193 22.694 37.7691 26.7378C37.5014 27.4921 37.1165 27.7182 36.3338 27.5829C30.1873 26.521 25.1787 32.1994 27.075 38.0928C27.4208 39.1658 27.3279 39.4031 26.3555 39.9461C25.5163 40.4132 24.7938 41.0633 24.242 41.8477C23.6901 42.6321 23.323 43.5306 23.1682 44.4762C23.0134 45.4218 23.0749 46.39 23.348 47.3087C23.6211 48.2273 24.0988 49.0725 24.7455 49.7814C25.343 50.4571 26.0813 50.9948 26.9088 51.3568C27.7363 51.7188 28.6331 51.8965 29.5366 51.8774C33.6615 51.8774 37.7865 51.8774 41.9114 51.8774C42.8224 51.8774 43.3132 52.2481 43.3262 52.9134C43.3392 53.6158 42.8614 53.9698 41.9002 53.9716H40.2511C39.3792 56.5365 40.543 59.7408 42.9284 61.4514C44.1453 62.3204 45.6102 62.7764 47.107 62.7521C48.6038 62.7277 50.053 62.2243 51.2408 61.3161C53.509 59.5833 54.6134 56.3679 53.721 53.9679L53.7247 53.9586ZM33.162 53.9809V56.2048C33.162 57.4613 33.162 57.4613 34.4319 57.5021C35.0305 57.5188 35.4098 57.7745 35.5474 58.3398C35.852 59.6123 36.3538 60.8297 37.0347 61.9481C37.3638 62.504 37.308 62.9118 36.8488 63.3658C36.5662 63.6475 36.239 63.8847 35.9434 64.1331L38.5462 66.7425C38.7786 66.483 39.011 66.2013 39.2695 65.9437C39.8272 65.3877 40.16 65.4044 40.8591 65.725C41.9746 66.2384 43.1254 66.7017 44.28 67.1317C44.9251 67.3707 45.1984 67.645 45.2096 68.34C45.2096 68.7329 45.2096 69.1239 45.2096 69.5483H47.4536C48.7253 69.5483 48.7253 69.5483 48.7551 68.2937C48.7718 67.6635 49.0246 67.304 49.6307 67.1595C50.8713 66.8622 52.058 66.3745 53.1483 65.7139C53.7526 65.3433 54.1374 65.4081 54.6543 65.8992C54.9387 66.1698 55.212 66.4459 55.4407 66.6646L58.0082 64.1016C57.7387 63.8792 57.4077 63.6457 57.1251 63.3603C56.6678 62.9062 56.6139 62.4929 56.9392 61.9444C57.6191 60.8248 58.1208 59.6069 58.4266 58.3342C58.4691 58.1086 58.5865 57.9037 58.7597 57.7525C58.933 57.6013 59.1522 57.5125 59.3822 57.5002C59.8507 57.4502 60.5312 57.5706 60.7338 57.3149C60.9737 57.011 60.8063 56.3883 60.8101 55.8953C60.8101 55.2578 60.8101 54.6202 60.8101 53.992H55.9762C56.212 55.2593 56.1772 56.5619 55.874 57.8149C55.5709 59.0679 55.0062 60.2432 54.2168 61.264C53.4274 62.2849 52.431 63.1284 51.2926 63.7396C50.1542 64.3509 48.8993 64.716 47.6098 64.8114C45.1928 64.9707 43.0009 64.2887 41.1528 62.7098C38.4756 60.4302 37.5144 57.4798 38.0127 53.9901L33.162 53.9809Z" fill="#6F63DE"/>
<path d="M37.3378 32.8925C37.9308 32.8925 38.338 33.215 38.5946 33.8933C39.6134 36.5793 40.6292 39.2653 41.6418 41.9513C41.9002 42.637 42.1661 43.3172 42.4096 44.0066C42.6365 44.6441 42.3873 45.2297 41.8277 45.4336C41.2681 45.6375 40.7122 45.3687 40.4538 44.7312C40.2511 44.2308 40.0819 43.7156 39.8644 43.2245C39.8228 43.1496 39.7647 43.085 39.6945 43.0356C39.6243 42.9862 39.5439 42.9532 39.4591 42.9391C38.0275 42.9187 36.5959 42.9169 35.1644 42.9391C35.0735 42.9584 34.9881 42.9977 34.9144 43.0541C34.8408 43.1105 34.7807 43.1827 34.7386 43.2653C34.5211 43.7379 34.3668 44.2401 34.1697 44.7238C33.902 45.378 33.3238 45.6504 32.7456 45.4114C32.1878 45.1834 31.9703 44.6089 32.2157 43.9658C33.4998 40.5793 34.7901 37.1964 36.0865 33.8173C36.3301 33.1854 36.7521 32.887 37.3378 32.8925ZM38.9608 40.8004L37.321 36.4638L36.4807 38.6692C36.2148 39.3716 35.949 40.0758 35.6756 40.8023L38.9608 40.8004Z" fill="#6F63DE"/>
<path d="M47.8329 40.8838C47.8329 42.1292 47.8329 43.243 47.8329 44.3569C47.8329 45.0667 47.383 45.5096 46.7397 45.4855C46.128 45.4614 45.7432 45.0222 45.7413 44.3142C45.7413 42.2015 45.7413 40.0906 45.7413 37.9779C45.7413 36.7047 45.7413 35.4297 45.7413 34.1565C45.7413 33.2632 46.1131 32.8944 47.026 32.8907C47.9686 32.8907 48.9131 32.8759 49.8557 32.8907C50.8733 32.9193 51.8419 33.3329 52.5648 34.0474C53.2877 34.762 53.7108 35.7239 53.7482 36.738C53.7856 37.7521 53.4345 38.7424 52.7661 39.5079C52.0977 40.2734 51.1622 40.7567 50.1494 40.8597C49.4039 40.9394 48.6509 40.8838 47.8329 40.8838ZM47.8682 38.7618C48.6602 38.7618 49.4318 38.8397 50.1792 38.7415C51.0846 38.6228 51.7484 37.6981 51.7019 36.8178C51.6554 35.9375 50.9229 35.0942 50.0286 35.0145C49.3221 34.9515 48.6063 35.0016 47.8757 35.0016L47.8682 38.7618Z" fill="#6F63DE"/>
<path d="M57.034 39.0806C57.034 37.3719 57.0229 35.6613 57.034 33.9526C57.0267 33.817 57.0471 33.6814 57.0939 33.5539C57.1407 33.4263 57.2129 33.3096 57.3062 33.2107C57.3995 33.1118 57.512 33.0328 57.6368 32.9784C57.7616 32.924 57.8962 32.8954 58.0324 32.8944C58.6032 32.8777 59.0382 33.265 59.1089 33.8822C59.1235 34.056 59.1278 34.2305 59.1219 34.4048C59.1219 37.0908 59.1219 39.7762 59.1219 42.461C59.1219 42.9854 59.1219 43.5081 59.1219 44.0307C59.1107 44.8368 58.7073 45.3094 58.051 45.3002C57.3947 45.2909 57.0303 44.8313 57.0285 44.0492C57.0285 42.3924 57.0285 40.7356 57.0285 39.0806H57.034Z" fill="#6F63DE"/>
<path d="M46.974 53.9586C46.7016 53.9572 46.4408 53.8484 46.2486 53.6561C46.0563 53.4637 45.9482 53.2034 45.9477 52.9319C45.9464 52.6552 46.0555 52.3893 46.251 52.1928C46.4464 51.9962 46.7121 51.8851 46.9898 51.8839C47.2674 51.8827 47.5341 51.9914 47.7313 52.1862C47.9284 52.381 48.0399 52.6459 48.0411 52.9227C48.043 53.0616 48.0165 53.1994 47.9631 53.3278C47.9098 53.4562 47.8308 53.5724 47.731 53.6693C47.6311 53.7663 47.5125 53.8419 47.3823 53.8917C47.2522 53.9414 47.1132 53.9642 46.974 53.9586Z" fill="#6F63DE"/>
</svg>
