<svg width="228" height="221" viewBox="0 0 228 221" fill="none" xmlns="http://www.w3.org/2000/svg">
<ellipse cx="119.5" cy="110.5" rx="108.5" ry="110.5" fill="#F5F8FA" fill-opacity="0.1"/>
<path d="M0.724267 109.298C0.534916 109.298 0.355033 109.232 0.21302 109.09C-0.0710066 108.806 -0.0710066 108.342 0.21302 108.068L23.0677 85.213C23.3517 84.929 23.8156 84.929 24.0996 85.213C24.3837 85.497 24.3837 85.961 24.0996 86.245L1.24498 109.081C1.10297 109.223 0.913618 109.298 0.724267 109.298Z" fill="white"/>
<path d="M30.7233 97.4253C30.5339 97.4253 30.3541 97.3591 30.212 97.217C29.928 96.933 29.928 96.4691 30.212 96.1945L78.1936 48.213C78.4776 47.929 78.9415 47.929 79.2161 48.213C79.5001 48.497 79.5001 48.961 79.2161 49.2355L31.2345 97.217C31.102 97.3591 30.9126 97.4253 30.7233 97.4253Z" fill="white"/>
</svg>
