<svg width="56" height="56" viewBox="0 0 56 56" fill="none" xmlns="http://www.w3.org/2000/svg">
<path d="M26.6834 0.104943C27.6212 0.280509 28.5739 0.400407 29.4946 0.642345C39.247 3.19661 45.4411 9.36067 47.6935 19.1838C49.28 26.1357 47.7256 32.5888 43.5805 38.3996C43.4949 38.5174 43.4135 38.6352 43.2936 38.8022C43.4435 38.9221 43.5869 39.0462 43.7368 39.1597C47.0661 41.7075 50.4062 44.2447 53.7248 46.8054C54.2705 47.236 54.7188 47.7773 55.0403 48.3936C55.3618 49.0099 55.5492 49.6873 55.5901 50.3813C55.6311 51.0752 55.5246 51.7699 55.2778 52.4198C55.0309 53.0696 54.6493 53.6598 54.158 54.1516C53.6667 54.6434 53.0768 55.0256 52.4272 55.273C51.7776 55.5205 51.0829 55.6276 50.389 55.5873C49.695 55.547 49.0174 55.3602 48.4008 55.0393C47.7842 54.7184 47.2425 54.2705 46.8113 53.7252C44.7881 51.156 42.8311 48.5332 40.8443 45.934L38.8681 43.3497C37.6348 44.0948 36.4701 44.887 35.2283 45.54C21.061 52.9887 3.39956 44.431 0.455623 28.7071C0.329302 28.0456 0.22225 27.3626 0.104492 26.6881V21.5903C0.211544 20.9908 0.297186 20.3849 0.42779 19.7918C2.60309 9.86168 8.58088 3.50992 18.3612 0.736551C19.4124 0.441087 20.5022 0.308343 21.5856 0.0942383L26.6834 0.104943ZM24.1548 46.4093C36.211 46.5142 46.2911 36.5476 46.396 24.4165C46.503 12.159 36.6564 2.07256 24.4674 1.9548C12.1479 1.83277 2.05926 11.6837 1.95435 23.9369C1.92724 26.8727 2.48097 29.7849 3.58369 32.5058C4.68641 35.2268 6.31633 37.7028 8.37967 39.7914C10.443 41.88 12.899 43.54 15.6064 44.6758C18.3137 45.8115 21.2189 46.4007 24.1548 46.4093ZM40.294 42.1764L40.8956 42.9665C43.3307 46.1509 45.7672 49.3347 48.2052 52.5177C49.3292 53.98 51.2197 54.2305 52.62 53.1407C52.9926 52.8509 53.2932 52.4789 53.4984 52.0538C53.7036 51.6287 53.8079 51.1619 53.8032 50.6899C53.7984 50.2178 53.6847 49.7533 53.4709 49.3324C53.2572 48.9115 52.9491 48.5457 52.5707 48.2634C50.5603 46.6983 48.5263 45.1653 46.503 43.6174L42.1589 40.2987L40.294 42.1764Z" fill="#6F63DE"/>
<path d="M50.717 55.772C49.9435 55.7703 49.1807 55.5909 48.4876 55.2475C47.7945 54.9041 47.1896 54.4059 46.7197 53.7916C45.313 52.0081 43.9171 50.1668 42.5661 48.3876C41.9623 47.5911 41.3571 46.7953 40.7505 46.0003L38.8235 43.491C38.4596 43.7051 38.102 43.9385 37.753 44.1612C36.9501 44.6664 36.1194 45.1889 35.2715 45.6342C28.4951 49.199 20.5926 49.2997 13.5913 45.9125C6.59013 42.5254 1.75994 36.2586 0.351131 28.7285C0.265489 28.266 0.186271 27.8036 0.107052 27.339C0.0706544 27.1249 0.0363977 26.9108 0 26.6967V21.5796C0.0342567 21.3655 0.0663723 21.1813 0.098488 20.9908C0.16486 20.5861 0.235515 20.1665 0.325438 19.7575C2.50074 9.8231 8.56203 3.38927 18.3316 0.640172C19.0592 0.450676 19.7959 0.298464 20.539 0.18413C20.8816 0.12418 21.2242 0.0663723 21.5646 0H26.7031C26.9986 0.0556671 27.2983 0.104911 27.5959 0.156296C28.2382 0.261207 28.8805 0.3704 29.5228 0.537402C39.4123 3.12806 45.5593 9.39275 47.7881 19.1645C49.3403 25.9537 47.9508 32.4496 43.658 38.466L43.4311 38.7871L43.4953 38.8385C43.5938 38.9199 43.6923 39.0012 43.7929 39.0805L46.9317 41.4784C49.1798 43.1913 51.5049 44.9683 53.783 46.724C54.59 47.346 55.1901 48.1974 55.5045 49.1665C55.819 50.1356 55.8332 51.1772 55.5451 52.1545C55.2571 53.1318 54.6804 53.9992 53.8906 54.6428C53.1008 55.2865 52.1349 55.6764 51.1195 55.7613C50.9847 55.7677 50.8519 55.772 50.717 55.772ZM38.8856 43.2084L40.9218 45.8697C41.5284 46.6633 42.1336 47.4591 42.7374 48.257C44.0862 50.0362 45.4822 51.8775 46.8888 53.6588C47.3783 54.2999 48.0206 54.8082 48.757 55.1373C49.4934 55.4664 50.3004 55.6058 51.1045 55.5429C52.0769 55.4611 53.0018 55.0873 53.7579 54.4704C54.5139 53.8536 55.0658 53.0226 55.3411 52.0864C55.6164 51.1503 55.6023 50.1528 55.3005 49.2248C54.9988 48.2969 54.4235 47.4818 53.6502 46.8867C51.3743 45.131 49.0491 43.3583 46.7989 41.6411L43.658 39.2432C43.5552 39.164 43.4546 39.0805 43.354 38.997L43.1399 38.8192L43.4824 38.3354C47.7367 32.3704 49.1155 25.9345 47.5783 19.2052C45.3687 9.5255 39.2753 3.31433 29.4693 0.745083C28.8441 0.582364 28.1847 0.47317 27.5638 0.366118C27.2662 0.316874 26.9707 0.26763 26.6753 0.211963H21.586C21.2648 0.276195 20.9201 0.336144 20.5754 0.396093C19.8395 0.511705 19.1099 0.66463 18.3894 0.854276C8.7012 3.57126 2.69129 9.95371 0.53312 19.8132C0.443196 20.2179 0.374682 20.6354 0.319015 21.0379C0.2869 21.2284 0.254784 21.419 0.220527 21.6074V26.6902C0.254784 26.8808 0.291182 27.0928 0.32758 27.3047C0.404657 27.765 0.483876 28.2275 0.569517 28.6878C1.96762 36.1515 6.75071 42.3584 13.692 45.7198C20.6332 49.0813 28.4652 48.9764 35.1816 45.4436C36.0209 45.0026 36.811 44.5059 37.6481 43.9813C38.0313 43.7394 38.4189 43.4953 38.8128 43.2576L38.8856 43.2084ZM50.7149 53.9136C50.586 53.9143 50.4573 53.9064 50.3295 53.89C49.8924 53.8284 49.472 53.6805 49.0926 53.4548C48.7133 53.2291 48.3826 52.9302 48.1199 52.5755C46.3728 50.3059 44.6065 47.9893 42.8958 45.7498C42.2021 44.8377 41.507 43.9271 40.8104 43.0178L40.3629 42.4269L40.1488 42.1529L42.1464 40.151L46.5634 43.5274L48.3918 44.9212C49.7857 45.9917 51.2266 47.0772 52.6333 48.1735C53.0287 48.4751 53.3493 48.8638 53.5702 49.3093C53.7912 49.7549 53.9065 50.2454 53.9072 50.7427C53.9068 51.2233 53.796 51.6975 53.5833 52.1285C53.3705 52.5595 53.0616 52.9358 52.6804 53.2285C52.1203 53.671 51.4287 53.9143 50.7149 53.92V53.9136ZM40.4379 42.1721L40.5321 42.2984C40.6777 42.4869 40.8275 42.6881 40.9817 42.8872L43.0671 45.6192C44.7799 47.8587 46.542 50.1753 48.2891 52.4448C48.5346 52.777 48.8437 53.0571 49.1984 53.2688C49.553 53.4806 49.9463 53.6197 50.3552 53.6781C50.745 53.7247 51.1402 53.6933 51.5177 53.5856C51.8952 53.4779 52.2475 53.2961 52.554 53.0508C52.9084 52.7786 53.1957 52.4289 53.3939 52.0284C53.5921 51.6279 53.6959 51.1874 53.6974 50.7406C53.6955 50.2771 53.5869 49.8204 53.3801 49.4057C53.1733 48.9909 52.8738 48.6294 52.5048 48.349C51.1003 47.255 49.6593 46.1566 48.2677 45.0968L46.4371 43.703L42.1764 40.44L40.4379 42.1721ZM24.3458 46.5099H24.1552C21.2001 46.4975 18.2765 45.9014 15.5524 44.7557C12.8282 43.6101 10.3573 41.9375 8.28155 39.8341C5.19157 36.6947 3.09927 32.7115 2.268 28.3857C1.43673 24.0599 1.90363 19.5848 3.60995 15.5238C5.31626 11.4627 8.18573 7.99714 11.8572 5.56323C15.5287 3.12932 19.8381 1.83583 24.243 1.84558H24.47C36.7274 1.96334 46.6105 12.0905 46.5035 24.4165C46.4774 27.3374 45.8746 30.2244 44.7298 32.9117C43.5849 35.5991 41.9204 38.0338 39.832 40.076C35.7278 44.1909 30.1575 46.5074 24.3458 46.5163V46.5099ZM24.1552 46.2958H24.3458C30.1011 46.2879 35.6176 43.9944 39.6821 39.9197C41.7508 37.8972 43.3994 35.4858 44.5333 32.8242C45.6672 30.1625 46.2639 27.303 46.2893 24.41C46.3964 12.2018 36.6097 2.17958 24.4678 2.06182H24.243C18.4134 2.04383 12.813 4.33109 8.66266 8.425C6.59219 10.4609 4.94365 12.8852 3.81143 15.559C2.67922 18.2329 2.08558 21.1039 2.0645 24.0075C2.04341 26.9112 2.59531 29.7905 3.68858 32.4805C4.78185 35.1706 6.39502 37.6185 8.43571 39.6842C10.4905 41.7688 12.9371 43.4266 15.6349 44.5624C18.3326 45.6981 21.2282 46.2894 24.1552 46.3022V46.2958Z" fill="#6F63DE"/>
<path d="M24.1599 44.643C14.0221 44.5744 5.38727 37.0551 3.99774 27.02C3.29629 22.0744 4.43928 17.0435 7.20882 12.8864C9.97835 8.72938 14.1808 5.73679 19.015 4.47913C19.2889 4.402 19.5769 4.38954 19.8564 4.44274C20.0448 4.48738 20.2106 4.59872 20.3231 4.75617C20.4357 4.91361 20.4875 5.10651 20.4688 5.29915C20.4719 5.50106 20.4062 5.69803 20.2825 5.85759C20.1587 6.01716 19.9843 6.12981 19.7879 6.17698C19.1178 6.39109 18.4305 6.55595 17.7775 6.81929C11.1403 9.43137 7.13437 14.268 5.90327 21.2585C4.19043 30.9638 10.9283 40.5279 20.5865 42.3263C30.4225 44.1591 39.6418 38.2948 42.1233 28.6237C44.6925 18.61 38.2137 8.20241 28.0566 6.09562C26.8619 5.84726 25.6266 5.78089 24.404 5.66741C23.6696 5.60104 23.2457 5.29701 23.25 4.7275C23.2543 4.15798 23.7082 3.80042 24.4725 3.80899C29.0286 3.88228 33.4291 5.47854 36.9725 8.34335C40.516 11.2082 42.9986 15.1766 44.0245 19.6163C46.6387 30.9381 39.1943 42.2279 27.7655 44.2383C26.5772 44.4503 25.3632 44.5124 24.1599 44.643Z" fill="#6F63DE"/>
<path d="M24.1663 44.7456C14.0006 44.6771 5.28657 37.0614 3.89704 27.0306C3.19435 22.0605 4.34365 17.0055 7.12616 12.8278C9.90868 8.6501 14.1302 5.64131 18.9871 4.37412C19.2779 4.29291 19.5837 4.28118 19.8799 4.33987C20.0917 4.39034 20.2784 4.5151 20.4061 4.69149C20.5338 4.86788 20.594 5.08421 20.5758 5.30119C20.579 5.52596 20.5061 5.74521 20.3688 5.92326C20.2316 6.10131 20.0382 6.22767 19.82 6.28179C19.6059 6.35245 19.3704 6.41882 19.1434 6.48519C18.7023 6.61365 18.2463 6.7464 17.816 6.9134C11.2001 9.52547 7.22636 14.3578 6.0081 21.2755C5.18809 25.9323 6.27573 30.6961 9.0698 34.6934C11.773 38.6239 15.919 41.3279 20.6057 42.2171C30.3518 44.0348 39.5561 38.1769 42.0162 28.5915C42.6081 26.2019 42.7143 23.7178 42.3283 21.2865C41.9424 18.8551 41.0722 16.526 39.7693 14.4373C38.4664 12.3485 36.7574 10.5426 34.7436 9.12658C32.7298 7.7106 30.4522 6.71336 28.0459 6.19401C27.0771 6.01368 26.0983 5.89284 25.1148 5.83217L24.4061 5.77865C23.3634 5.68444 23.1493 5.15774 23.1536 4.73168C23.1511 4.60463 23.1741 4.47838 23.2212 4.36035C23.2682 4.24232 23.3384 4.1349 23.4276 4.0444C23.5725 3.92035 23.7407 3.82651 23.9223 3.76842C24.1039 3.71032 24.2954 3.68914 24.4853 3.70612C28.16 3.76345 31.7515 4.80858 34.8832 6.73188C38.0148 8.65518 40.5712 11.3858 42.2842 14.6373C43.9972 17.8887 44.8037 21.5413 44.619 25.2117C44.4344 28.8822 43.2654 32.4353 41.2347 35.4985C39.7189 37.8164 37.7428 39.798 35.429 41.3203C33.1153 42.8425 30.5133 43.8729 27.7847 44.3474C26.9668 44.4908 26.1275 44.5615 25.3139 44.6386C24.9328 44.675 24.5517 44.7092 24.1706 44.7499L24.1663 44.7456ZM19.5331 4.51543C19.3675 4.517 19.2028 4.53929 19.0428 4.5818C14.2349 5.83498 10.0557 8.81234 7.30082 12.9471C4.54589 17.0819 3.40757 22.0853 4.10258 27.0049C5.47713 36.9308 14.097 44.4651 24.1556 44.5358C24.5345 44.4951 24.9157 44.4609 25.2946 44.4266C26.1039 44.3538 26.9389 44.2789 27.7461 44.1354C30.4469 43.649 33.0209 42.6195 35.3123 41.1094C37.6037 39.5993 39.5649 37.6399 41.0771 35.3499C42.5893 33.0599 43.6211 30.4868 44.1101 27.7865C44.599 25.0861 44.5349 22.3146 43.9217 19.6398C42.9013 15.2228 40.4316 11.2745 36.9063 8.42439C33.381 5.57427 29.0031 3.98636 24.4703 3.9138C24.1446 3.88369 23.82 3.9829 23.5668 4.18999C23.4968 4.26055 23.4417 4.34452 23.4049 4.43686C23.3682 4.5292 23.3504 4.62802 23.3527 4.72739C23.3527 5.21555 23.7038 5.49603 24.4104 5.55812L25.1169 5.61807C26.1113 5.68335 27.1008 5.80847 28.0801 5.99275C30.5149 6.51702 32.8196 7.52478 34.8577 8.9563C36.8958 10.3878 38.6257 12.214 39.9449 14.3265C41.2641 16.439 42.1458 18.7948 42.5376 21.2544C42.9294 23.7139 42.8235 26.2271 42.226 28.645C39.7338 38.3396 30.4224 44.2746 20.5672 42.429C15.8248 41.5288 11.6297 38.7926 8.89423 34.8155C6.06591 30.7732 4.96756 25.9516 5.79614 21.2391C7.02938 14.2422 11.046 9.35633 17.7389 6.71642C18.1671 6.543 18.6381 6.40811 19.0835 6.28821C19.2976 6.22184 19.5331 6.15761 19.7557 6.08696C19.9304 6.04552 20.0857 5.94567 20.1959 5.80394C20.3061 5.66222 20.3646 5.48711 20.3617 5.30762C20.3793 5.13927 20.3352 4.97023 20.2375 4.83198C20.1399 4.69373 19.9953 4.59569 19.8307 4.55611C19.7334 4.53096 19.6335 4.51731 19.5331 4.51543Z" fill="#6F63DE"/>
<path d="M24.1913 33.4303C20.8641 33.4303 17.5348 33.3597 14.2119 33.4539C11.8568 33.5203 10.4779 31.1159 11.6983 29.0519C15.0812 23.3353 18.3977 17.5695 21.7484 11.8272C22.9452 9.7761 25.3882 9.75897 26.5872 11.7994C29.9486 17.5545 33.3029 23.3139 36.6501 29.0776C37.6842 30.859 36.9027 32.9122 35.0314 33.3597C34.7304 33.4183 34.4237 33.4428 34.1172 33.4325C30.8086 33.4339 27.4999 33.4332 24.1913 33.4303ZM24.1913 31.5805C27.4821 31.5805 30.7729 31.5419 34.0615 31.6019C35.1685 31.6233 35.5196 30.769 35.0186 29.9169C31.6721 24.2367 28.3685 18.5308 25.0477 12.8442C24.5039 11.9107 23.8488 11.9022 23.3114 12.8249C19.9842 18.5372 16.6741 24.2581 13.317 29.9533C12.8609 30.7262 13.1457 31.6297 14.2612 31.6105C17.5712 31.5441 20.8813 31.5805 24.1913 31.5805Z" fill="#6F63DE"/>
<path d="M14.1285 33.5629C13.6125 33.5717 13.1033 33.4443 12.6522 33.1936C12.2012 32.9429 11.8242 32.5777 11.5592 32.1348C11.285 31.6548 11.1461 31.1093 11.1574 30.5565C11.1687 30.0038 11.3298 29.4645 11.6235 28.996C13.8266 25.2407 16.0554 21.4082 18.2115 17.6935C19.3534 15.7194 20.501 13.7461 21.6543 11.7735C22.2495 10.7565 23.1723 10.172 24.185 10.172C25.187 10.172 26.0969 10.7458 26.6793 11.7457C29.7924 17.0747 33.0831 22.7271 36.7422 29.0239C37.0034 29.4458 37.1614 29.9233 37.2034 30.4177C37.2455 30.9121 37.1703 31.4094 36.9841 31.8693C36.8107 32.2674 36.5458 32.6189 36.211 32.8953C35.8762 33.1717 35.4809 33.3652 35.0572 33.4601C34.7476 33.5196 34.4324 33.5448 34.1173 33.5351H24.1914C23.1937 33.5351 22.1981 33.5351 21.1939 33.5222C18.903 33.5094 16.535 33.4944 14.2077 33.5586L14.1285 33.5629ZM24.1914 10.3861C23.2558 10.3861 22.4015 10.9321 21.8362 11.8848C20.6944 13.8532 19.5475 15.8251 18.3956 17.8005C16.2417 21.511 14.0129 25.3477 11.7905 29.1159C11.5167 29.5515 11.3663 30.0532 11.3554 30.5675C11.3444 31.0819 11.4734 31.5895 11.7284 32.0363C11.9831 32.461 12.3487 32.8084 12.7858 33.0411C13.223 33.2739 13.7153 33.3832 14.2099 33.3573C16.5393 33.291 18.9201 33.3081 21.2025 33.3209C22.1981 33.3209 23.1937 33.3338 24.2 33.3338H34.1237C34.4222 33.3434 34.7209 33.3205 35.0144 33.2653C35.407 33.1805 35.7736 33.0028 36.0835 32.7473C36.3934 32.4918 36.6376 32.1658 36.7957 31.7965C36.9682 31.3673 37.0371 30.9034 36.9969 30.4425C36.9567 29.9817 36.8086 29.5367 36.5645 29.1438C32.9076 22.847 29.6168 17.1946 26.5016 11.8656C25.9513 10.9171 25.1099 10.3861 24.1914 10.3861ZM34.1044 31.7087H34.0637C31.7086 31.6659 29.2956 31.6723 26.9705 31.6809C26.0455 31.6809 25.1178 31.6809 24.1871 31.6809C23.2622 31.6809 22.338 31.6809 21.4145 31.6809C19.0593 31.6809 16.6464 31.6659 14.2634 31.7087C13.741 31.7087 13.3406 31.531 13.1393 31.1842C13.0393 30.9815 12.9946 30.7559 13.0096 30.5304C13.0246 30.3048 13.0989 30.0872 13.225 29.8996C15.6636 25.7588 18.1194 21.5345 20.5045 17.4494L23.2279 12.7712C23.5833 12.1589 23.9409 12.0326 24.1786 12.0326C24.5233 12.0326 24.8594 12.2938 25.1484 12.7905L27.8783 17.4794C30.2334 21.5474 32.6892 25.7502 35.115 29.8739C35.3933 30.347 35.4319 30.8266 35.2178 31.1906C35.0037 31.5546 34.6183 31.7087 34.098 31.7087H34.1044ZM29.7217 31.4711C31.1648 31.4711 32.6207 31.4711 34.0616 31.5053C34.5241 31.5053 34.8624 31.364 35.0272 31.0771C35.1921 30.7902 35.1578 30.3749 34.9244 29.9788C32.4965 25.8551 30.0514 21.6501 27.6856 17.5843C26.7778 16.0142 25.8685 14.4505 24.9579 12.8933C24.7074 12.4651 24.4376 12.2509 24.1721 12.2509C23.9066 12.2509 23.6476 12.4651 23.4056 12.8933L20.6822 17.5543C18.3078 21.6394 15.8499 25.8637 13.4027 30.0045C13.2954 30.1596 13.2309 30.3402 13.2159 30.5282C13.2009 30.7162 13.2358 30.9048 13.317 31.075C13.4798 31.3533 13.818 31.5032 14.2548 31.5032C16.6378 31.4604 19.0636 31.4689 21.408 31.4754C23.255 31.4754 25.1035 31.4754 26.9533 31.4754C27.8718 31.4711 28.7946 31.4711 29.7217 31.4711Z" fill="#6F63DE"/>
<path d="M50.0143 49.094C50.2688 49.1876 50.5122 49.3089 50.7401 49.4558C51.0817 49.7507 51.4016 50.0698 51.6972 50.4107C51.8675 50.5834 51.9623 50.8166 51.9607 51.0591C51.9591 51.3016 51.8612 51.5336 51.6886 51.7039C51.516 51.8743 51.2828 51.9691 51.0402 51.9675C50.7977 51.9659 50.5658 51.868 50.3954 51.6954C50.027 51.405 49.7 51.0657 49.4234 50.6869C49.3417 50.5457 49.2899 50.3893 49.2711 50.2272C49.2523 50.0652 49.267 49.901 49.3142 49.7449C49.4084 49.4708 49.766 49.306 50.0143 49.094Z" fill="#6F63DE"/>
<path d="M51.023 52.053C50.7606 52.0479 50.5091 51.9466 50.3165 51.7683L50.188 51.6548C49.8616 51.3896 49.5734 51.0805 49.3316 50.7363C49.2418 50.5805 49.1851 50.4079 49.1652 50.2292C49.1453 50.0505 49.1626 49.8696 49.216 49.6979C49.3294 49.4838 49.5028 49.3075 49.7148 49.1904C49.7962 49.1326 49.8818 49.0727 49.9546 49.0127L50.0082 48.9678L50.0703 48.9977C50.173 49.047 50.2694 49.0877 50.355 49.1241C50.5181 49.1824 50.6712 49.2654 50.8089 49.3703C51.1546 49.6681 51.478 49.9909 51.7767 50.3359C51.8689 50.4303 51.9413 50.5422 51.9896 50.6651C52.0378 50.788 52.0609 50.9193 52.0575 51.0512C52.0541 51.1832 52.0243 51.3131 51.9698 51.4333C51.9153 51.5535 51.8373 51.6616 51.7403 51.7511C51.6467 51.8464 51.5351 51.9222 51.4119 51.974C51.2888 52.0259 51.1566 52.0527 51.023 52.053ZM50.0296 49.2204C49.9653 49.2718 49.8968 49.3189 49.8283 49.366C49.713 49.4149 49.6104 49.4897 49.5286 49.5847C49.4469 49.6796 49.3881 49.7921 49.3568 49.9135C49.3255 50.0348 49.3226 50.1617 49.3483 50.2844C49.3741 50.407 49.4277 50.5221 49.505 50.6207C49.738 50.9486 50.0154 51.2426 50.3293 51.4942L50.4578 51.6077C50.6101 51.7482 50.8107 51.8247 51.0179 51.8213C51.2251 51.818 51.4231 51.7351 51.5709 51.5898C51.7186 51.4445 51.8049 51.248 51.8117 51.0408C51.8185 50.8337 51.7454 50.6319 51.6075 50.4772C51.3155 50.1398 50.9992 49.8243 50.6612 49.533C50.5396 49.4426 50.4054 49.3705 50.263 49.3189C50.1923 49.2911 50.1131 49.259 50.0296 49.2204Z" fill="#6F63DE"/>
<path d="M25.0932 20.9352C25.0932 21.965 25.0932 22.9927 25.0932 24.0204C25.0932 24.6949 24.7592 25.0717 24.2046 25.0909C23.6501 25.1102 23.2497 24.712 23.2476 24.0204C23.2362 21.965 23.2362 19.9082 23.2476 17.8499C23.2476 17.1648 23.6223 16.7794 24.2003 16.7794C24.7784 16.7794 25.0867 17.1691 25.0932 17.8499C25.0996 18.8798 25.0932 19.9096 25.0932 20.9352Z" fill="#6F63DE"/>
<path d="M24.1705 25.1937C24.0419 25.1983 23.9136 25.1773 23.7931 25.1322C23.6726 25.087 23.5622 25.0184 23.4683 24.9304C23.3551 24.8099 23.2675 24.6677 23.2108 24.5124C23.1541 24.3571 23.1296 24.1919 23.1385 24.0268C23.1385 22.0078 23.1385 19.931 23.1385 17.8542C23.1295 17.6887 23.1539 17.523 23.2102 17.3671C23.2665 17.2111 23.3535 17.0681 23.4661 16.9464C23.5634 16.8561 23.6776 16.7861 23.8023 16.7405C23.9269 16.6949 24.0594 16.6747 24.1919 16.6809C24.8193 16.6959 25.1811 17.122 25.1897 17.8499C25.1982 18.5779 25.1897 19.2973 25.1897 20.0209V21.858C25.1897 22.5795 25.1897 23.301 25.1897 24.0225C25.1897 24.7441 24.8214 25.1766 24.1962 25.1937H24.1705ZM24.1705 16.895C24.0685 16.8922 23.967 16.9097 23.8718 16.9465C23.7766 16.9832 23.6896 17.0385 23.616 17.1091C23.5238 17.2111 23.453 17.3305 23.4077 17.4603C23.3625 17.5901 23.3438 17.7277 23.3526 17.8649C23.3526 19.9396 23.3526 22.0164 23.3526 24.0333C23.344 24.1698 23.3628 24.3066 23.4081 24.4357C23.4533 24.5648 23.524 24.6835 23.616 24.7848C23.6938 24.8583 23.7857 24.9152 23.8862 24.952C23.9867 24.9888 24.0936 25.0047 24.2005 24.9989C24.6994 24.986 24.9777 24.6456 24.9841 24.0397C24.9841 23.3181 24.9841 22.5988 24.9841 21.8772V20.0209C24.9841 19.2973 24.9841 18.5736 24.9841 17.8521C24.9841 17.2461 24.6972 16.9079 24.1962 16.895H24.1705Z" fill="#6F63DE"/>
<path d="M25.0823 28.3623C25.0823 29.3043 24.8061 29.7283 24.1724 29.7261C23.5386 29.724 23.2389 29.2829 23.241 28.358C23.2338 28.1432 23.246 27.9282 23.2774 27.7157C23.3104 27.4884 23.4315 27.2832 23.6146 27.1445C23.7978 27.0059 24.0281 26.9449 24.2559 26.9749C24.4774 26.9832 24.6871 27.0771 24.8408 27.2368C24.9945 27.3965 25.0803 27.6096 25.0802 27.8313C25.0952 28.0004 25.0823 28.1824 25.0823 28.3623Z" fill="#6F63DE"/>
<path d="M24.1772 29.8332C24.0231 29.8425 23.8693 29.8119 23.7305 29.7444C23.5917 29.6769 23.4727 29.5747 23.385 29.4478C23.1971 29.1168 23.1114 28.7376 23.1388 28.358V28.2766C23.1324 28.081 23.1453 27.8852 23.1773 27.6921C23.217 27.4393 23.3538 27.212 23.5585 27.0585C23.7632 26.905 24.0197 26.8373 24.2735 26.87C24.5172 26.8823 24.7472 26.9862 24.9175 27.1609C25.0878 27.3356 25.1859 27.5681 25.192 27.812C25.1995 27.9397 25.1995 28.0676 25.192 28.1953C25.192 28.2509 25.192 28.3066 25.192 28.3623C25.192 28.9511 25.0893 29.3514 24.858 29.5848C24.7672 29.67 24.66 29.7359 24.543 29.7786C24.426 29.8213 24.3016 29.8399 24.1772 29.8332ZM24.1429 27.0777C23.9586 27.0772 23.7804 27.1432 23.6408 27.2636C23.5012 27.3839 23.4096 27.5505 23.3829 27.7328C23.3541 27.9126 23.3427 28.0947 23.3486 28.2766V28.358C23.3247 28.6952 23.3991 29.0321 23.5627 29.3279C23.6311 29.4256 23.7237 29.5037 23.8314 29.5548C23.9391 29.6058 24.0583 29.628 24.1772 29.6191C24.2729 29.6256 24.3689 29.6127 24.4594 29.581C24.5499 29.5494 24.6331 29.4997 24.7039 29.4349C24.8923 29.2422 24.9822 28.8933 24.9758 28.3644C24.9758 28.3066 24.9758 28.2488 24.9758 28.191C24.9833 28.0719 24.9833 27.9525 24.9758 27.8334C24.9753 27.6382 24.8988 27.4507 24.7626 27.3109C24.6263 27.171 24.4409 27.0896 24.2457 27.0841C24.2116 27.0798 24.1773 27.0776 24.1429 27.0777Z" fill="#6F63DE"/>
</svg>
