<svg width="62" height="62" viewBox="0 0 62 62" fill="none" xmlns="http://www.w3.org/2000/svg">
<path d="M35.1838 0C36.4277 0.284759 37.7187 0.428209 38.9027 0.879969C44.4866 2.96749 47.8587 6.97766 48.9892 12.8398C49.0727 13.268 49.2632 13.3751 49.6465 13.4243C55.4787 14.1694 59.9021 18.1753 61.1803 23.8534C62.906 31.529 57.2986 39.2517 49.4538 39.8684C46.9252 40.0675 44.3752 39.9647 41.8338 39.9668C41.6416 39.945 41.4475 39.9874 41.2818 40.0873C41.116 40.1872 40.988 40.339 40.9175 40.5192C39.8812 42.4886 39.2431 44.6428 39.0398 46.8589C39.0306 46.9663 39.045 47.0745 39.082 47.1758C39.119 47.2772 39.1776 47.3692 39.2539 47.4455C41.153 48.6916 41.4955 50.2974 40.228 52.2843C40.5524 52.6618 40.7816 53.1114 40.8967 53.5956C41.0118 54.0798 41.0094 54.5846 40.8896 55.0676C40.5578 56.425 39.4273 57.3221 37.9607 57.3821C37.8151 57.3782 37.6715 57.4165 37.5472 57.4925C37.423 57.5685 37.3234 57.6789 37.2606 57.8103C36.5849 58.9353 35.6298 59.8666 34.488 60.5136C33.3463 61.1606 32.0566 61.5014 30.7443 61.5029C29.4319 61.5044 28.1415 61.1665 26.9982 60.5222C25.855 59.8778 24.8977 58.9488 24.2195 57.8253C24.1588 57.7227 24.0774 57.6339 23.9804 57.5646C23.8834 57.4953 23.7731 57.447 23.6564 57.4228C20.8152 57.3671 19.6184 54.254 21.1963 52.3742C21.2157 52.3399 21.2281 52.302 21.2327 52.2629C20.2157 50.6399 20.2714 49.1755 21.3976 48.06C21.5398 47.8921 21.7156 47.7557 21.9136 47.6596C22.4638 47.4584 22.5002 47.0687 22.436 46.572C22.1646 44.4246 21.5121 42.343 20.509 40.425C20.4442 40.2732 20.3315 40.1466 20.1881 40.0647C20.0447 39.9828 19.8785 39.9499 19.7147 39.9711C16.972 39.9883 14.2315 39.984 11.4888 39.9711C5.56671 39.9668 0.937777 35.9374 0.098488 30.0602C0.0746326 29.9659 0.0416476 29.8741 0 29.7862L0 27.6195C0.0385388 27.4674 0.0877827 27.3154 0.113475 27.1591C0.822874 22.8985 3.16732 19.9167 7.1468 18.2139C7.50864 18.0597 7.88974 17.9441 8.27727 17.8028C7.92186 14.4049 8.89603 11.5124 11.5274 9.31782C14.1587 7.12325 17.2225 6.69076 20.4641 7.66493C20.509 7.62854 20.5283 7.61997 20.539 7.60284C20.6054 7.50435 20.6718 7.40373 20.7339 7.3031C22.8513 3.94594 25.8103 1.69356 29.6235 0.597351C30.5377 0.334003 31.4883 0.196976 32.4218 0H35.1838ZM42.5746 37.9307C44.1483 37.9307 45.5271 37.965 46.9038 37.9307C48.0985 37.8943 49.3211 37.905 50.4815 37.6609C56.1424 36.4727 59.87 31.21 59.3454 25.487C58.8573 20.1686 54.314 15.7559 48.7665 15.3962C47.696 15.3277 47.195 14.8481 47.0708 13.7605C46.3364 7.33735 40.7783 2.19885 34.3123 2.07895C29.009 1.97618 24.9646 4.28209 22.2197 8.82752C21.6138 9.83167 21.0272 10.0393 19.9117 9.68394C19.2719 9.45955 18.6066 9.31571 17.9312 9.25573C13.2124 8.99238 9.74603 12.782 10.3327 17.5052C10.5189 19.0039 10.2385 19.4128 8.77613 19.8218C4.61823 20.9822 1.71283 25.0952 2.07681 29.2852C2.47933 33.8777 5.84291 37.4661 10.2899 37.8258C12.675 38.0185 15.0858 37.9072 17.4859 37.9307C17.8991 37.9307 18.3123 37.9307 18.9075 37.9307C15.5846 34.2224 13.9831 30.0345 14.4114 25.1936C14.8396 20.3528 17.0834 16.3961 20.9822 13.4736C24.0023 11.2247 27.7065 10.0879 31.4682 10.2557C35.2299 10.4234 38.8182 11.8854 41.6261 14.3942C44.4551 16.8417 46.3244 20.2131 46.9017 23.909C47.7624 29.1995 46.2465 33.8285 42.5746 37.9307ZM33.8285 47.1458C34.8155 47.1458 35.7126 47.165 36.6118 47.1265C36.7467 47.1265 36.9437 46.8524 36.9801 46.6769C37.1535 45.8205 37.2413 44.9362 37.4361 44.0819C38.1812 40.834 39.8041 38.0592 41.913 35.5006C44.6514 32.1777 45.6427 28.3024 44.8613 24.0846C43.3625 16.0193 35.7319 10.9664 27.7008 12.6214C21.5218 13.9061 16.7815 19.4 16.4368 25.7096C16.2227 29.5935 17.411 32.9892 19.9267 35.946C21.8733 38.1949 23.2665 40.8683 23.9947 43.7522C24.2687 44.8484 24.4229 45.9746 24.637 47.1136H27.6815V46.497C27.6815 44.4159 27.6815 42.3341 27.6815 40.2516C27.6815 38.7657 27.0114 38.0528 25.5405 37.9243C24.2002 37.8087 23.2325 37.1471 22.7571 35.8817C22.0485 33.9826 23.3738 31.8609 25.4056 31.8138C28.9854 31.7367 32.5695 31.7923 36.1515 31.7988C36.3514 31.8039 36.5496 31.8371 36.7403 31.8973C38.1941 32.3148 39.0783 33.6508 38.9391 35.2009C38.8064 36.6675 37.586 37.7894 35.9781 37.9243C34.5436 38.042 33.8627 38.7807 33.852 40.2109C33.852 41.2301 33.852 42.2513 33.852 43.2726L33.8285 47.1458ZM31.7731 47.1244V46.4092C31.7731 44.3496 31.7859 42.2899 31.7731 40.2323C31.7624 38.8728 32.2013 37.7295 33.2547 36.8366C33.3083 36.78 33.3563 36.7183 33.3981 36.6525C32.7879 35.7961 32.6766 34.8819 32.9314 33.8692H28.5294C28.8591 34.914 28.6429 35.8389 28.0798 36.7167C29.3644 37.7188 29.7562 39.059 29.722 40.6049C29.6813 42.5639 29.722 44.5251 29.722 46.4842C29.722 46.6983 29.7434 46.9124 29.7562 47.1265L31.7731 47.1244ZM30.8053 53.312C28.4673 53.312 26.1271 53.2991 23.7891 53.327C23.4615 53.327 23.0205 53.4468 22.8385 53.6759C22.7388 53.827 22.671 53.9968 22.6393 54.175C22.6077 54.3533 22.6128 54.536 22.6544 54.7122C22.7957 55.2389 23.2967 55.3652 23.8105 55.3545C28.4295 55.3545 33.047 55.3545 37.6631 55.3545C38.4767 55.3545 38.9263 54.9691 38.922 54.3118C38.9177 53.6545 38.4938 53.3098 37.6374 53.3098C35.3622 53.3027 33.0848 53.3034 30.8053 53.312ZM30.7411 49.2119H25.7632C25.0245 49.2119 24.2837 49.1969 23.545 49.2247C23.2919 49.2189 23.0466 49.3133 22.8626 49.4873C22.6786 49.6613 22.5707 49.9008 22.5623 50.1539C22.539 50.4162 22.6198 50.677 22.7872 50.8802C22.9547 51.0833 23.1954 51.2123 23.4573 51.2394C23.6363 51.2605 23.8167 51.2677 23.9968 51.2608C28.493 51.2608 32.9892 51.2608 37.4854 51.2608C37.7423 51.2608 38.0699 51.2994 38.239 51.1624C38.5195 50.9333 38.8599 50.5843 38.8813 50.2738C38.9027 49.9634 38.5923 49.578 38.3311 49.3275C38.1812 49.184 37.8386 49.2183 37.5817 49.2183C35.2972 49.199 33.0192 49.2033 30.7411 49.2033V49.2119ZM26.504 57.4399C29.1717 60.5829 33.5801 59.5552 34.884 57.4399H26.504ZM26.6431 34.8733C26.6443 34.7385 26.6186 34.6048 26.5676 34.48C26.5166 34.3552 26.4413 34.2418 26.3461 34.1464C26.2508 34.0509 26.1376 33.9754 26.0129 33.9241C25.8882 33.8728 25.7545 33.8469 25.6197 33.8477C25.4899 33.8438 25.3607 33.8655 25.2394 33.9118C25.118 33.958 25.0071 34.0279 24.9129 34.1173C24.8188 34.2067 24.7433 34.3138 24.6907 34.4326C24.6382 34.5513 24.6098 34.6793 24.607 34.8091C24.5954 35.081 24.6921 35.3464 24.8759 35.5471C25.0598 35.7478 25.3157 35.8674 25.5876 35.8796C25.8611 35.8814 26.1245 35.7763 26.3217 35.5868C26.5189 35.3972 26.6342 35.1381 26.6431 34.8647V34.8733ZM36.8752 34.8733C36.879 34.7387 36.8554 34.6047 36.8058 34.4795C36.7562 34.3543 36.6817 34.2405 36.5868 34.145C36.4919 34.0495 36.3785 33.9742 36.2537 33.9239C36.1288 33.8735 35.9949 33.8491 35.8603 33.852C35.598 33.8512 35.3454 33.9515 35.1552 34.1322C34.965 34.3128 34.8517 34.5599 34.839 34.8219C34.8342 35.0952 34.9359 35.3597 35.1224 35.5594C35.309 35.7592 35.5659 35.8786 35.8389 35.8924C35.9754 35.8939 36.1108 35.868 36.2372 35.8165C36.3635 35.7649 36.4783 35.6886 36.5749 35.5921C36.6714 35.4956 36.7476 35.3808 36.7992 35.2544C36.8508 35.1281 36.8766 34.9927 36.8752 34.8562V34.8733Z" fill="#6F63DE"/>
<path d="M23.9505 24.5943C24.7427 25.3715 25.507 26.093 26.2436 26.8531C26.7895 27.4097 26.7446 28.1377 26.1708 28.4995C25.975 28.6454 25.7312 28.7118 25.4885 28.6852C25.2457 28.6585 25.0221 28.541 24.8626 28.3561C23.852 27.3626 22.8457 26.3628 21.8651 25.3586C21.3834 24.8619 21.3962 24.3309 21.893 23.8235C22.8721 22.8243 23.8606 21.8366 24.8583 20.8603C24.9517 20.7551 25.0658 20.6703 25.1934 20.6111C25.3211 20.552 25.4596 20.5198 25.6002 20.5166C25.7408 20.5134 25.8806 20.5392 26.0109 20.5925C26.1411 20.6457 26.2589 20.7252 26.357 20.826C26.7724 21.2542 26.7617 21.8302 26.2821 22.3247C25.5327 23.0591 24.7684 23.7914 23.9505 24.5943Z" fill="#6F63DE"/>
<path d="M37.5282 24.5858C36.7488 23.8236 36.0294 23.1277 35.3229 22.4233C34.7448 21.8452 34.6977 21.2607 35.1773 20.8026C35.6226 20.3743 36.2157 20.4322 36.7595 20.9696C37.6702 21.8716 38.5751 22.7766 39.4744 23.6844C40.1167 24.3396 40.1338 24.8406 39.4979 25.485C38.5858 26.4099 37.6673 27.3292 36.7424 28.2427C36.1686 28.8101 35.5648 28.855 35.1174 28.384C34.6699 27.913 34.7362 27.3606 35.2886 26.8039C36.0059 26.0802 36.7338 25.3694 37.5282 24.5858Z" fill="#6F63DE"/>
<path d="M32.7941 21.6011C32.7598 21.7274 32.7191 21.9008 32.6635 22.07C32.034 23.9669 31.4017 25.8618 30.7665 27.7544C30.5074 28.5252 29.9915 28.8485 29.3941 28.6344C28.7967 28.4203 28.5741 27.8658 28.8289 27.0971C29.4683 25.1631 30.1106 23.2311 30.7558 21.3013C30.9699 20.6804 31.4367 20.4 32.0019 20.5434C32.5179 20.6697 32.7577 21.0294 32.7941 21.6011Z" fill="#6F63DE"/>
</svg>
