<svg width="56" height="53" viewBox="0 0 56 53" fill="none" xmlns="http://www.w3.org/2000/svg">
<path d="M31.356 16.8289H34.4518C37.0662 16.8289 39.679 16.8289 42.2901 16.8289C43.2919 16.8289 43.6853 17.2223 43.6853 18.229C43.6853 22.3371 43.6853 26.4437 43.6853 30.5485V31.3866H44.4697C47.8057 31.3866 51.145 31.3866 54.4875 31.3866C55.6359 31.3866 56 31.7458 56 32.882C56 37.9219 56 42.9618 56 48.0017C56 50.7529 54.0819 52.6612 51.3258 52.6636C43.9956 52.6636 36.6712 52.6636 29.3524 52.6636C26.5547 52.6636 24.6562 50.7578 24.6489 47.9601C24.6489 44.9499 24.6489 41.9404 24.6489 38.9318V38.1182H23.1267C21.0987 38.1182 19.0682 38.1182 17.0402 38.1182C14.2327 38.1182 12.3293 36.2196 12.322 33.4269C12.322 31.1643 12.322 28.9017 12.322 26.6391V25.7986H10.6116C8.63004 25.7986 6.64601 25.7986 4.66443 25.7986C1.91562 25.7766 0 23.8683 0 21.1122C0 14.5818 0 8.04983 0 1.51621C0 0.406916 0.368952 0.0330774 1.46603 0.030634C4.3981 0.0257472 7.33016 0.0672848 10.2622 0.00131334C11.4375 -0.0231205 12.2169 0.28719 12.625 1.45269C12.9377 2.32497 13.4655 3.11663 13.8467 3.96449C14.0397 4.39208 14.284 4.52158 14.7507 4.52158C19.7426 4.50203 24.7344 4.50936 29.7263 4.50936C31.0481 4.50936 31.356 4.82456 31.356 6.16842C31.3584 9.68934 31.356 13.2103 31.356 16.8289ZM33.2594 50.4279H51.1865C52.8969 50.4279 53.7521 49.5557 53.7521 47.8331C53.7521 43.334 53.7521 38.8349 53.7521 34.3358C53.7521 34.111 53.7325 33.8887 53.7228 33.681H33.5966V34.563C33.5966 38.7608 33.6186 42.9561 33.5819 47.1538C33.5721 48.2265 33.3742 49.3015 33.2594 50.4279ZM24.6391 35.8336V35.0517C24.6391 32.8136 24.6391 30.5754 24.6391 28.3373C24.6391 27.2891 25.0227 26.9152 26.0783 26.9103C27.5003 26.9103 28.9224 26.9103 30.3444 26.9103C32.1159 26.9103 33.8873 26.9274 35.6588 26.9323C35.9374 26.9101 36.2155 26.9795 36.451 27.1299C36.6866 27.2803 36.8665 27.5035 36.9636 27.7655C37.4522 28.8479 38.002 29.901 38.5567 30.9419C38.6098 31.0462 38.6842 31.1381 38.7751 31.2118C38.8661 31.2854 38.9714 31.3392 39.0844 31.3695C39.8443 31.4184 40.6091 31.3915 41.3934 31.3915V19.1159H21.2795V19.9198C21.2795 23.6264 21.3039 27.333 21.2795 31.0421C21.2795 32.6523 21.4676 34.2894 20.7541 35.8336H24.6391ZM12.3196 23.5214V22.7053C12.3196 19.7439 12.3196 16.7833 12.3196 13.8236C12.3196 12.7216 12.691 12.3575 13.7856 12.3575C16.9107 12.3575 20.0333 12.3746 23.1584 12.3429C23.8914 12.3429 24.3459 12.5872 24.6562 13.2323C25.1661 14.278 25.6881 15.3181 26.2224 16.3525C26.3177 16.5382 26.5034 16.802 26.6622 16.8118C27.4637 16.8582 28.2724 16.8338 29.0665 16.8338V6.81592H8.96235C8.96235 11.2995 8.98189 15.7294 8.94769 20.1593C8.94769 21.2783 8.74488 22.3998 8.63493 23.5311L12.3196 23.5214ZM2.24059 2.26878V11.6098C2.24059 14.7846 2.24059 17.961 2.24059 21.1391C2.24059 22.241 2.75858 23.0425 3.67485 23.4041C5.17265 23.9978 6.71199 22.8861 6.71443 21.1782C6.71443 16.1155 6.71443 11.0528 6.71443 5.99006C6.71443 4.89053 7.08338 4.52402 8.18046 4.52402H11.6012C11.4433 4.23152 11.3053 3.92866 11.1883 3.61753C10.8682 2.50579 10.1792 2.19303 9.02343 2.25167C6.79262 2.34941 4.55447 2.26878 2.24059 2.26878ZM14.5601 14.5883V24.0711C14.5601 27.1954 14.5601 30.3213 14.5601 33.4488C14.5601 34.5508 15.0806 35.3522 15.9944 35.7139C17.4947 36.3076 19.0315 35.1861 19.034 33.4757C19.034 28.4155 19.034 23.3528 19.034 18.2901C19.034 17.1905 19.4054 16.824 20.5 16.824C21.5947 16.824 22.7162 16.824 23.9208 16.824C23.78 16.5744 23.6599 16.3138 23.5616 16.0446C23.2244 14.8229 22.4547 14.4808 21.1988 14.5517C19.0169 14.6763 16.8252 14.5883 14.5601 14.5883ZM26.8773 29.1485V38.3478C26.8773 41.5682 26.8773 44.7878 26.8773 48.0065C26.8773 49.1085 27.3953 49.9124 28.3091 50.274C29.8093 50.8678 31.3487 49.756 31.3511 48.0481C31.3511 42.9854 31.3511 37.9227 31.3511 32.86C31.3511 31.7605 31.7201 31.394 32.8171 31.394C33.9142 31.394 35.0333 31.394 36.2379 31.394C36.0653 31.0791 35.9151 30.7525 35.7883 30.4166C35.4755 29.3684 34.828 29.0605 33.7285 29.1118C31.4757 29.2218 29.2131 29.1485 26.8773 29.1485Z" fill="#6F63DE"/>
<path d="M3.15671 33.0311C2.93208 33.3286 2.68716 33.6103 2.42369 33.874C2.32011 33.9778 2.19655 34.0596 2.06048 34.1143C1.92442 34.169 1.77867 34.1956 1.63205 34.1924C1.48543 34.1892 1.34097 34.1563 1.20742 34.0957C1.07387 34.0351 0.953995 33.9481 0.855036 33.8398C0.652984 33.64 0.538074 33.3684 0.535329 33.0842C0.532583 32.8 0.642223 32.5262 0.840376 32.3225C1.7371 31.3744 2.64848 30.4386 3.60385 29.5468C4.21225 28.9775 4.6545 28.9677 5.27024 29.5321C6.24759 30.4288 7.18341 31.3769 8.09235 32.3445C8.1922 32.4452 8.27045 32.5653 8.32231 32.6974C8.37418 32.8294 8.39857 32.9706 8.39399 33.1124C8.38942 33.2542 8.35598 33.3936 8.29571 33.522C8.23544 33.6504 8.14962 33.7652 8.04348 33.8594C7.94127 33.9642 7.81911 34.0475 7.6842 34.1044C7.54929 34.1613 7.40435 34.1906 7.25793 34.1906C7.11152 34.1906 6.96658 34.1613 6.83167 34.1044C6.69675 34.0475 6.57459 33.9642 6.47238 33.8594C6.22807 33.6181 5.99722 33.3636 5.78091 33.097L5.51213 33.2216C5.75647 34.4067 5.89819 35.6235 6.24515 36.7768C7.13619 39.7106 8.93409 42.2866 11.3806 44.1348C13.8272 45.983 16.7965 47.0083 19.8621 47.0634C20.7589 47.0854 21.2598 47.4837 21.2671 48.1776C21.2744 48.8715 20.7393 49.3113 19.8011 49.304C11.5302 49.2454 4.31732 42.6775 3.46213 34.436C3.41571 34.0011 3.3644 33.5686 3.31553 33.1337L3.15671 33.0311Z" fill="#6F63DE"/>
<path d="M53.4149 23.0693C53.6228 22.7658 53.8531 22.4783 54.1039 22.2092C54.3122 22.0105 54.5895 21.9003 54.8775 21.9019C55.1654 21.9035 55.4414 22.0168 55.6475 22.2178C55.8537 22.4189 55.9737 22.692 55.9825 22.9798C55.9913 23.2676 55.888 23.5476 55.6945 23.7608C54.8149 24.6917 53.9158 25.6104 52.9799 26.4876C52.3593 27.0691 51.9195 27.0984 51.316 26.5462C50.3191 25.6373 49.3613 24.6722 48.4426 23.6875C48.3449 23.5847 48.2693 23.463 48.2206 23.3298C48.1718 23.1967 48.1509 23.055 48.1591 22.9134C48.1674 22.7718 48.2046 22.6335 48.2685 22.5069C48.3324 22.3803 48.4216 22.2682 48.5305 22.1775C48.7353 21.9811 49.008 21.8715 49.2916 21.8715C49.5753 21.8715 49.848 21.9811 50.0528 22.1775C50.3313 22.4218 50.583 22.6661 50.947 23.018C50.9047 21.1268 50.466 19.2656 49.6594 17.5546C47.0278 12.1791 42.7079 9.31792 36.7094 9.00272C35.7712 8.95386 35.2434 8.56536 35.2703 7.84944C35.2971 7.13353 35.7883 6.74259 36.619 6.75969C41.0806 6.85987 44.9436 8.44319 48.1371 11.5634C51.3307 14.6836 52.936 18.4953 53.1876 22.9178L53.4149 23.0693Z" fill="#6F63DE"/>
<path d="M42.7178 48.1831C40.6263 48.0658 38.7106 46.9858 37.6087 44.7306C36.5067 42.4753 36.7339 40.2641 38.2611 38.2825C39.7271 36.3717 41.7307 35.6094 44.1252 35.9784C44.9046 36.0981 45.3005 36.5965 45.2076 37.2489C45.1148 37.9013 44.5503 38.258 43.7416 38.1554C42.146 37.9575 40.8291 38.4828 39.9079 39.8047C39.4631 40.3983 39.2076 41.1122 39.1749 41.8533C39.1422 42.5943 39.3338 43.328 39.7246 43.9585C40.5065 45.3365 41.7551 45.9816 43.3286 45.9327C44.9804 45.8838 46.3389 44.7623 46.8935 43.0568C47.1379 42.3507 47.5704 41.9964 48.1397 42.0795C48.8531 42.1675 49.2539 42.8125 49.0657 43.5846C48.406 46.2626 45.9162 48.188 42.7178 48.1831Z" fill="#6F63DE"/>
<path d="M43.6139 41.2042C44.9431 39.9117 46.2088 38.6753 47.4769 37.439C47.6431 37.2777 47.7995 37.0993 47.9803 36.9503C48.1904 36.7612 48.4652 36.6602 48.7478 36.6684C49.0303 36.6766 49.2988 36.7933 49.4976 36.9943C49.9203 37.4463 50.0156 38.0058 49.5856 38.4456C47.8736 40.1919 46.1347 41.9128 44.3689 43.6085C43.8534 44.0972 43.2572 44.0215 42.749 43.5132C42.2408 43.005 41.6861 42.465 41.1901 41.9079C41.0859 41.8049 41.0037 41.6817 40.9486 41.5459C40.8935 41.4101 40.8666 41.2645 40.8696 41.118C40.8726 40.9715 40.9053 40.8271 40.9659 40.6936C41.0265 40.5602 41.1136 40.4404 41.2219 40.3417C41.6739 39.9068 42.3409 39.9312 42.8467 40.415C43.113 40.674 43.3647 40.9477 43.6139 41.2042Z" fill="#6F63DE"/>
</svg>
