<svg width="70" height="70" viewBox="0 0 70 70" fill="none" xmlns="http://www.w3.org/2000/svg">
<rect width="70" height="70" fill="#272D3D"/>
<path d="M33.4176 58.0682L30.8264 57.7119C30.6766 57.6902 30.5284 57.6602 30.3818 57.6269C29.7973 57.4954 29.5009 57.0891 29.5958 56.5595C29.6907 56.03 30.137 55.7902 30.7199 55.8484C32.2186 56 33.7173 56.2398 35.2161 56.2331C43.6456 56.1965 51.5705 50.8061 54.6363 42.9494C57.5255 35.549 56.5713 28.5766 51.9985 22.0904C51.9202 21.9805 51.832 21.8756 51.802 21.8306C51.1242 21.9555 50.4964 22.1637 49.867 22.1637C49.0371 22.1689 48.2291 21.8981 47.57 21.3937C46.911 20.8893 46.4384 20.1801 46.2267 19.3777C46.0108 18.5808 46.0599 17.7352 46.3667 16.9687C46.6735 16.2022 47.2213 15.5562 47.9275 15.1283C48.6336 14.7004 49.4597 14.5138 50.2812 14.5967C51.1027 14.6795 51.875 15.0273 52.4814 15.5876C53.0886 16.1416 53.4972 16.8794 53.6446 17.688C53.7919 18.4966 53.67 19.3312 53.2974 20.0638C53.1142 20.4168 53.1575 20.6233 53.3857 20.9264C56.0651 24.4595 57.6627 28.6936 57.9851 33.116C58.0032 33.2495 58.0288 33.3818 58.0617 33.5124V36.32C58.0351 36.4382 58.0034 36.5531 57.9851 36.6714C57.8286 37.7438 57.727 38.8362 57.5088 39.8903C55.6521 48.8827 47.9603 56.2414 38.9079 57.7085C38.0487 57.8484 37.1811 57.9483 36.3168 58.0666L33.4176 58.0682ZM49.8903 20.3735C50.2868 20.3778 50.6756 20.2641 51.0072 20.0467C51.3388 19.8294 51.5983 19.5183 51.7526 19.1531C51.907 18.7879 51.9492 18.385 51.8738 17.9957C51.7985 17.6064 51.6091 17.2484 51.3297 16.9671C51.0503 16.6858 50.6935 16.4939 50.3047 16.416C49.9159 16.3381 49.5128 16.3775 49.1465 16.5294C48.7803 16.6813 48.4675 16.9387 48.2479 17.2688C48.0284 17.599 47.912 17.987 47.9136 18.3835C47.9158 18.9083 48.1243 19.4112 48.4942 19.7836C48.864 20.1559 49.3655 20.3678 49.8903 20.3735Z" fill="white"/>
<path d="M22.3765 42.1402C21.9186 40.9562 21.5139 39.8888 21.0826 38.8313C21.0426 38.7699 20.9891 38.7184 20.9262 38.6809C20.8633 38.6434 20.7926 38.6208 20.7196 38.6148C20.2666 38.5882 19.8137 38.6148 19.3607 38.6015C18.7279 38.5882 18.3815 38.2435 18.3799 37.6024C18.3799 35.7761 18.3799 33.9493 18.3799 32.122C18.3799 31.4809 18.7213 31.1478 19.3607 31.1345C19.812 31.1245 20.2666 31.1478 20.7179 31.1212C20.7912 31.1139 20.8619 31.0903 20.9247 31.0519C20.9876 31.0136 21.041 30.9615 21.0809 30.8997C21.5106 29.8439 21.9136 28.7765 22.3748 27.5875C22.0817 27.3127 21.6887 26.963 21.3157 26.5884C20.8162 26.0888 20.8162 25.6025 21.3157 25.0896C22.5747 23.834 23.8358 22.579 25.0992 21.3245C25.6237 20.8033 26.0983 20.8066 26.6262 21.3395C26.9859 21.7008 27.3273 22.0822 27.5987 22.3719C28.7761 21.9173 29.8435 21.5127 30.9009 21.0847C30.9625 21.0449 31.0146 20.992 31.0534 20.9299C31.0923 20.8677 31.117 20.7978 31.1257 20.725C31.1524 20.2737 31.1257 19.8191 31.1391 19.3661C31.1524 18.73 31.4888 18.387 32.1266 18.3853C33.9528 18.3786 35.7796 18.3786 37.6069 18.3853C38.2447 18.3853 38.5828 18.7283 38.5961 19.3645C38.6044 19.8174 38.5811 20.272 38.6094 20.7233C38.6166 20.7964 38.6405 20.8668 38.6791 20.9291C38.7178 20.9915 38.7703 21.0441 38.8326 21.083C39.89 21.5127 40.9574 21.9156 42.1348 22.3703C42.4162 22.0722 42.7675 21.6808 43.1339 21.3078C43.6335 20.8182 44.1081 20.8083 44.5943 21.2928C45.8821 22.5673 47.1638 23.8479 48.4394 25.1346C48.9057 25.6042 48.9073 26.0954 48.4394 26.565C48.0597 26.9497 47.6534 27.3077 47.3487 27.5942C47.8066 28.7815 48.2113 29.8489 48.6409 30.9047C48.6809 30.9665 48.7343 31.0186 48.7971 31.0569C48.86 31.0953 48.9307 31.1189 49.0039 31.1262C49.4702 31.1528 49.9398 31.1262 50.4077 31.1412C50.9906 31.1561 51.3403 31.4942 51.3419 32.077C51.3519 33.9355 51.3519 35.7928 51.3419 37.649C51.3419 38.2302 50.9889 38.5782 50.4111 38.5965C49.9448 38.6098 49.4752 38.5815 49.0089 38.6132C48.9307 38.6242 48.8561 38.6529 48.7906 38.697C48.7251 38.7412 48.6705 38.7996 48.6309 38.8679C48.2029 39.9104 47.7983 40.9645 47.347 42.1235C47.6418 42.405 48.0331 42.758 48.4044 43.131C48.914 43.6406 48.9223 44.1202 48.4211 44.6297C47.1644 45.9009 45.8977 47.1692 44.621 48.4348C44.1325 48.9211 43.6451 48.9211 43.1589 48.4348C42.7759 48.0535 42.4145 47.6472 42.1331 47.3474C40.9591 47.8054 39.9066 48.2084 38.8642 48.6363C38.7961 48.6762 38.7378 48.7309 38.6937 48.7963C38.6496 48.8618 38.6208 48.9363 38.6094 49.0144C38.5778 49.4806 38.6094 49.9502 38.5928 50.4182C38.5761 50.9993 38.2347 51.3507 37.6535 51.354C35.7962 51.364 33.9395 51.364 32.0833 51.354C31.4988 51.354 31.1574 51.001 31.1407 50.4215C31.1274 49.9536 31.1557 49.484 31.1241 49.0177C31.1139 48.9394 31.0859 48.8645 31.0423 48.7987C30.9987 48.7329 30.9407 48.6779 30.8726 48.638C29.8302 48.2084 28.7777 47.8054 27.6054 47.3458C27.3323 47.6372 26.9809 48.0302 26.6062 48.4032C26.0817 48.9278 25.6071 48.9244 25.0792 48.4032C23.8269 47.1576 22.578 45.9081 21.3324 44.6547C20.7912 44.1102 20.7945 43.6439 21.3474 43.096C21.7137 42.738 22.0951 42.3966 22.3765 42.1402ZM46.606 43.8054C46.2729 43.4957 45.9232 43.186 45.5935 42.8562C45.1788 42.4416 45.1339 42.0602 45.4486 41.554C46.1987 40.3472 46.7481 39.0267 47.0756 37.644C47.2321 36.9862 47.5102 36.783 48.1996 36.7797C48.6326 36.7797 49.0672 36.7797 49.5118 36.7797V32.9813C49.4713 32.9708 49.4301 32.963 49.3886 32.958C48.9823 32.958 48.5743 32.958 48.1663 32.958C47.5119 32.9446 47.2304 32.7315 47.0789 32.0987C46.752 30.7171 46.2031 29.3978 45.4536 28.192C45.1206 27.6708 45.1722 27.2894 45.6201 26.8598C45.9532 26.5384 46.3129 26.252 46.6376 25.9689L43.7917 23.113C43.5136 23.4227 43.2338 23.7591 42.9274 24.0688C42.4278 24.5684 42.0798 24.6117 41.482 24.2353C40.3006 23.501 39.0067 22.9654 37.6519 22.65C37.0174 22.4968 36.7909 22.2171 36.7826 21.5726C36.7826 21.1247 36.7826 20.6767 36.7826 20.2121H33.0075C32.9842 20.2571 32.9609 20.2837 32.9609 20.3087C32.9609 20.7317 32.9609 21.1546 32.9475 21.5759C32.9359 22.2021 32.7161 22.5018 32.1149 22.6434C30.7182 22.9704 29.3844 23.5239 28.1666 24.282C27.667 24.5967 27.2823 24.5501 26.866 24.1288C26.533 23.7957 26.2399 23.4394 25.9551 23.1296L23.1742 25.9489C23.4672 26.2237 23.807 26.5234 24.1233 26.8448C24.558 27.2844 24.6029 27.6624 24.2766 28.177C23.5342 29.3692 22.9904 30.6739 22.6662 32.0404C22.4997 32.7232 22.2266 32.9296 21.5156 32.9363C21.0843 32.9363 20.653 32.9363 20.215 32.9363V36.7281C20.2533 36.7531 20.265 36.7681 20.2766 36.7681C20.7279 36.7681 21.1808 36.7681 21.6338 36.7864C22.2033 36.798 22.5114 37.0228 22.6329 37.5707C22.9592 38.9847 23.5168 40.3351 24.2832 41.5673C24.5963 42.0669 24.5463 42.4516 24.1283 42.8679C23.7953 43.2009 23.4423 43.5007 23.1292 43.7904L25.8785 46.5464C25.898 46.5409 25.9157 46.5306 25.9302 46.5165C26.2316 46.2201 26.5296 45.9203 26.8327 45.6256C27.2973 45.1709 27.647 45.126 28.2066 45.469C29.3876 46.2044 30.6816 46.7405 32.0366 47.056C32.7394 47.2225 32.9475 47.504 32.9509 48.2417C32.9509 48.673 32.9509 49.1026 32.9509 49.5239H36.781C36.781 49.0576 36.781 48.6213 36.781 48.1917C36.781 47.514 36.9974 47.2375 37.6619 47.0777C39.0289 46.7546 40.3343 46.2112 41.5269 45.469C42.0731 45.1276 42.4362 45.1726 42.8991 45.6355C43.2155 45.9553 43.5103 46.3017 43.7917 46.6064L46.606 43.8054Z" fill="white"/>
<path d="M18.0039 48.0002C20.1954 46.9528 22.1671 47.9353 23.033 49.3025C23.5132 50.0527 23.715 50.9475 23.6033 51.8312C23.4915 52.7149 23.0733 53.5314 22.4215 54.1385C21.7697 54.7455 20.9255 55.1046 20.0362 55.1533C19.1468 55.202 18.2685 54.9371 17.5543 54.4048C16.332 53.5006 15.3378 51.4873 16.5918 49.3291C15.7958 48.0219 14.9432 46.7896 14.2604 45.4707C7.50282 32.5117 14.5302 16.4054 28.6166 12.5203C32.1049 11.5429 35.7747 11.4026 39.3275 12.1107C39.9503 12.2339 40.2867 12.6519 40.1984 13.1648C40.1035 13.711 39.6256 13.9974 38.9961 13.8842C32.9463 12.7901 27.3643 13.9391 22.3802 17.5477C17.3961 21.1563 14.4336 26.1138 13.6643 32.2602C12.9599 37.9021 14.3787 43.0295 17.7142 47.6356C17.8024 47.7488 17.899 47.8654 18.0039 48.0002ZM19.8507 49.3691C19.4544 49.3638 19.0654 49.4765 18.7333 49.6928C18.4012 49.9092 18.1409 50.2194 17.9856 50.584C17.8303 50.9487 17.7869 51.3513 17.8609 51.7407C17.935 52.13 18.1232 52.4886 18.4016 52.7707C18.68 53.0529 19.0359 53.2458 19.4243 53.3251C19.8126 53.4044 20.2158 53.3664 20.5825 53.216C20.9492 53.0656 21.2629 52.8095 21.4836 52.4803C21.7044 52.1511 21.8223 51.7637 21.8223 51.3674C21.8224 50.842 21.6155 50.3377 21.2465 49.9637C20.8775 49.5897 20.376 49.3761 19.8507 49.3691Z" fill="white"/>
<path d="M43.229 15.1013C42.9943 15.0994 42.769 15.0093 42.5977 14.8489C42.4265 14.6884 42.3219 14.4694 42.3048 14.2354C42.3005 14.1154 42.3202 13.9959 42.3626 13.8836C42.405 13.7713 42.4692 13.6686 42.5517 13.5814C42.6341 13.4941 42.733 13.4241 42.8427 13.3755C42.9524 13.3268 43.0707 13.3004 43.1907 13.2978C43.4253 13.2906 43.6533 13.3763 43.8251 13.5363C43.997 13.6962 44.0987 13.9176 44.1082 14.1521C44.1172 14.3945 44.0297 14.6306 43.8649 14.8085C43.7 14.9865 43.4714 15.0918 43.229 15.1013Z" fill="white"/>
<path d="M27.4576 55.5521C27.4619 55.6695 27.4425 55.7864 27.4007 55.8961C27.359 56.0059 27.2956 56.1061 27.2144 56.1908C27.1332 56.2756 27.0358 56.3433 26.928 56.3897C26.8201 56.4362 26.7041 56.4605 26.5867 56.4614C26.4648 56.4661 26.3432 56.446 26.2293 56.4022C26.1155 56.3584 26.0117 56.2918 25.9244 56.2066C25.8372 56.1213 25.7682 56.0192 25.7217 55.9064C25.6752 55.7935 25.6523 55.6725 25.6542 55.5505C25.661 55.3143 25.7586 55.0899 25.9268 54.924C26.0949 54.758 26.3205 54.6633 26.5567 54.6596C26.7945 54.6587 27.0229 54.7522 27.1918 54.9195C27.3607 55.0868 27.4563 55.3144 27.4576 55.5521Z" fill="white"/>
<path d="M34.6718 27.3843C38.73 27.2178 42.1654 30.4867 42.3536 34.6748C42.5285 38.7197 39.2429 42.1835 35.0648 42.3583C31.0116 42.5248 27.5528 39.2443 27.3813 35.0661C27.2148 31.0113 30.497 27.5525 34.6718 27.3843ZM40.5468 34.878C40.5501 33.7547 40.2202 32.6557 39.5988 31.72C38.9775 30.7843 38.0925 30.0539 37.056 29.6211C36.0195 29.1884 34.8779 29.0728 33.7756 29.2889C32.6734 29.5051 31.66 30.0433 30.8636 30.8354C30.0673 31.6276 29.5237 32.6381 29.3018 33.7392C29.0798 34.8403 29.1894 35.9825 29.6166 37.0213C30.0439 38.0601 30.7696 38.9489 31.7021 39.5752C32.6345 40.2015 33.7317 40.5372 34.855 40.5398C36.3572 40.5355 37.7971 39.9392 38.8626 38.8803C39.9281 37.8214 40.5332 36.3851 40.5468 34.883V34.878Z" fill="white"/>
</svg>
