<svg width="70" height="70" viewBox="0 0 70 70" fill="none" xmlns="http://www.w3.org/2000/svg">
<rect width="70" height="70" fill="#272D3D"/>
<path d="M37.7567 26.7409H40.2997C42.4472 26.7409 44.5935 26.7409 46.7383 26.7409C47.5612 26.7409 47.8844 27.0621 47.8844 27.884C47.8844 31.2383 47.8844 34.5913 47.8844 37.943V38.6273H48.5286C51.269 38.6273 54.012 38.6273 56.7576 38.6273C57.7009 38.6273 58 38.9205 58 39.8482C58 43.9633 58 48.0784 58 52.1935C58 54.4399 56.4244 55.998 54.1605 56C48.1393 56 42.1228 56 36.1109 56C33.8128 56 32.2533 54.4439 32.2473 52.1596C32.2473 49.7017 32.2473 47.2445 32.2473 44.7879V44.1236H30.9969C29.331 44.1236 27.6632 44.1236 25.9973 44.1236C23.6912 44.1236 22.1277 42.5734 22.1216 40.2931C22.1216 38.4457 22.1216 36.5983 22.1216 34.7509V34.0646H20.7167C19.089 34.0646 17.4592 34.0646 15.8315 34.0646C13.5735 34.0467 12 32.4885 12 30.2382C12 24.9061 12 19.5727 12 14.238C12 13.3322 12.3031 13.027 13.2042 13.025C15.6127 13.021 18.0212 13.0549 20.4297 13.0011C21.3951 12.9811 22.0353 13.2345 22.3705 14.1861C22.6274 14.8983 23.061 15.5447 23.3741 16.237C23.5326 16.5861 23.7333 16.6919 24.1167 16.6919C28.2171 16.6759 32.3176 16.6819 36.418 16.6819C37.5038 16.6819 37.7567 16.9393 37.7567 18.0365C37.7587 20.9114 37.7567 23.7862 37.7567 26.7409ZM39.3202 54.1745H54.0461C55.451 54.1745 56.1535 53.4623 56.1535 52.0558C56.1535 48.3823 56.1535 44.7088 56.1535 41.0353C56.1535 40.8517 56.1374 40.6702 56.1294 40.5006H39.5972V41.2208C39.5972 44.6483 39.6153 48.0737 39.5851 51.5012C39.5771 52.377 39.4145 53.2548 39.3202 54.1745ZM32.2393 42.2582V41.6198C32.2393 39.7924 32.2393 37.9649 32.2393 36.1375C32.2393 35.2816 32.5544 34.9764 33.4214 34.9724C34.5896 34.9724 35.7577 34.9724 36.9258 34.9724C38.3809 34.9724 39.836 34.9863 41.2912 34.9903C41.52 34.9722 41.7485 35.0288 41.9419 35.1516C42.1354 35.2744 42.2832 35.4567 42.3629 35.6706C42.7643 36.5544 43.2159 37.4143 43.6715 38.2642C43.7152 38.3493 43.7763 38.4243 43.851 38.4845C43.9257 38.5446 44.0122 38.5885 44.1051 38.6133C44.7293 38.6532 45.3575 38.6313 46.0017 38.6313V28.6082H29.4796V29.2646C29.4796 32.291 29.4996 35.3175 29.4796 38.346C29.4796 39.6607 29.6341 40.9974 29.048 42.2582H32.2393ZM22.1196 32.2053V31.5389C22.1196 29.1209 22.1196 26.7036 22.1196 24.287C22.1196 23.3872 22.4247 23.0899 23.3239 23.0899C25.8909 23.0899 28.456 23.1039 31.023 23.078C31.6251 23.078 31.9984 23.2775 32.2533 23.8042C32.6721 24.658 33.101 25.5073 33.5399 26.3518C33.6181 26.5035 33.7707 26.7189 33.9011 26.7269C34.5595 26.7648 35.2238 26.7448 35.8761 26.7448V18.5652H19.3619C19.3619 22.2261 19.378 25.8431 19.3499 29.4601C19.3499 30.3738 19.1833 31.2895 19.093 32.2132L22.1196 32.2053ZM13.8405 14.8525V22.4795C13.8405 25.0717 13.8405 27.6652 13.8405 30.2601C13.8405 31.1599 14.266 31.8142 15.0186 32.1095C16.249 32.5943 17.5134 31.6865 17.5154 30.292C17.5154 26.1583 17.5154 22.0246 17.5154 17.8909C17.5154 16.9931 17.8185 16.6939 18.7197 16.6939H21.5296C21.3998 16.455 21.2865 16.2078 21.1904 15.9537C20.9274 15.046 20.3614 14.7906 19.4121 14.8385C17.5797 14.9183 15.7412 14.8525 13.8405 14.8525ZM23.9601 24.9114V32.6541C23.9601 35.2051 23.9601 37.7574 23.9601 40.3111C23.9601 41.2108 24.3876 41.8652 25.1383 42.1605C26.3706 42.6453 27.6331 41.7295 27.6351 40.333C27.6351 36.2013 27.6351 32.0676 27.6351 27.9339C27.6351 27.0361 27.9401 26.7369 28.8393 26.7369C29.7385 26.7369 30.6597 26.7369 31.6492 26.7369C31.5336 26.5331 31.4349 26.3202 31.3542 26.1005C31.0772 25.1029 30.445 24.8236 29.4133 24.8815C27.621 24.9832 25.8207 24.9114 23.9601 24.9114ZM34.0778 36.7998V44.3111C34.0778 46.9406 34.0778 49.5693 34.0778 52.1975C34.0778 53.0972 34.5033 53.7536 35.2539 54.0489C36.4862 54.5336 37.7507 53.6259 37.7527 52.2314C37.7527 48.0977 37.7527 43.964 37.7527 39.8303C37.7527 38.9325 38.0558 38.6332 38.9569 38.6332C39.8581 38.6332 40.7773 38.6332 41.7668 38.6332C41.6251 38.3762 41.5017 38.1095 41.3975 37.8352C41.1406 36.9794 40.6088 36.728 39.7056 36.7699C37.8551 36.8597 35.9965 36.7998 34.0778 36.7998Z" fill="white"/>
<path d="M14.593 39.97C14.4085 40.2129 14.2073 40.4429 13.9909 40.6582C13.9058 40.743 13.8043 40.8098 13.6925 40.8544C13.5808 40.8991 13.4611 40.9208 13.3406 40.9182C13.2202 40.9156 13.1015 40.8887 12.9918 40.8392C12.8821 40.7898 12.7836 40.7187 12.7024 40.6303C12.5364 40.4671 12.442 40.2454 12.4397 40.0133C12.4375 39.7813 12.5275 39.5577 12.6903 39.3914C13.4269 38.6173 14.1755 37.8532 14.9603 37.125C15.4601 36.6602 15.8233 36.6522 16.3291 37.1131C17.132 37.8452 17.9007 38.6193 18.6473 39.4094C18.7293 39.4916 18.7936 39.5897 18.8362 39.6975C18.8788 39.8053 18.8988 39.9206 18.8951 40.0364C18.8913 40.1522 18.8638 40.266 18.8143 40.3708C18.7648 40.4757 18.6943 40.5694 18.6072 40.6463C18.5232 40.7319 18.4228 40.7999 18.312 40.8464C18.2012 40.8928 18.0821 40.9167 17.9619 40.9167C17.8416 40.9167 17.7226 40.8928 17.6117 40.8464C17.5009 40.7999 17.4006 40.7319 17.3166 40.6463C17.1159 40.4493 16.9263 40.2415 16.7486 40.0238L16.5278 40.1256C16.7285 41.0932 16.8449 42.0867 17.1299 43.0283C17.8619 45.4238 19.3387 47.5271 21.3484 49.0362C23.358 50.5452 25.7971 51.3824 28.3153 51.4274C29.0519 51.4454 29.4634 51.7706 29.4694 52.3372C29.4754 52.9038 29.0359 53.2629 28.2652 53.2569C21.4712 53.209 15.5464 47.8463 14.8439 41.1171C14.8058 40.762 14.7636 40.4089 14.7235 40.0538L14.593 39.97Z" fill="white"/>
<path d="M55.8765 31.8362C56.0473 31.5884 56.2365 31.3536 56.4425 31.1339C56.6136 30.9717 56.8414 30.8817 57.0779 30.883C57.3144 30.8843 57.5412 30.9768 57.7105 31.1409C57.8798 31.3051 57.9784 31.5281 57.9856 31.7631C57.9928 31.9981 57.908 32.2267 57.7491 32.4008C57.0265 33.1609 56.2879 33.911 55.5192 34.6272C55.0094 35.102 54.6482 35.126 54.1524 34.6751C53.3335 33.9329 52.5468 33.1449 51.7921 32.3409C51.7118 32.257 51.6498 32.1576 51.6097 32.0489C51.5697 31.9402 51.5525 31.8245 51.5593 31.7089C51.5661 31.5933 51.5966 31.4803 51.6491 31.377C51.7016 31.2736 51.7748 31.1821 51.8644 31.108C52.0325 30.9476 52.2565 30.8581 52.4896 30.8581C52.7226 30.8581 52.9466 30.9476 53.1148 31.108C53.3436 31.3075 53.5503 31.507 53.8493 31.7943C53.8146 30.2501 53.4542 28.7304 52.7916 27.3334C50.63 22.9443 47.0815 20.6081 42.1542 20.3508C41.3834 20.3109 40.9499 19.9937 40.972 19.4091C40.9941 18.8246 41.3975 18.5054 42.0799 18.5193C45.7448 18.6011 48.918 19.8939 51.5412 22.4416C54.1645 24.9892 55.4831 28.1015 55.6898 31.7125L55.8765 31.8362Z" fill="white"/>
<path d="M47.0897 52.3416C45.3717 52.2458 43.7981 51.364 42.8929 49.5226C41.9877 47.6812 42.1744 45.8757 43.4288 44.2577C44.6331 42.6976 46.2789 42.0752 48.2458 42.3764C48.886 42.4742 49.2112 42.8812 49.1349 43.4138C49.0586 43.9465 48.595 44.2378 47.9307 44.154C46.6201 43.9924 45.5382 44.4213 44.7816 45.5006C44.4162 45.9853 44.2064 46.5682 44.1795 47.1733C44.1526 47.7784 44.31 48.3774 44.631 48.8922C45.2733 50.0174 46.2989 50.5441 47.5915 50.5042C48.9483 50.4643 50.0642 49.5486 50.5198 48.156C50.7205 47.5795 51.0757 47.2902 51.5434 47.358C52.1295 47.4298 52.4586 47.9565 52.3041 48.587C51.7622 50.7735 49.717 52.3456 47.0897 52.3416Z" fill="white"/>
<path d="M47.8257 46.6434C48.9176 45.588 49.9573 44.5785 50.9989 43.569C51.1354 43.4374 51.2639 43.2917 51.4124 43.17C51.5849 43.0156 51.8107 42.9332 52.0428 42.9399C52.2749 42.9466 52.4955 43.0419 52.6588 43.2059C53.006 43.575 53.0843 44.0319 52.731 44.391C51.3247 45.8168 49.8964 47.2219 48.4459 48.6065C48.0224 49.0055 47.5327 48.9437 47.1152 48.5287C46.6978 48.1137 46.2422 47.6728 45.8347 47.218C45.7491 47.1338 45.6816 47.0333 45.6364 46.9224C45.5911 46.8115 45.569 46.6926 45.5715 46.573C45.5739 46.4533 45.6008 46.3354 45.6506 46.2265C45.7003 46.1175 45.7719 46.0197 45.8608 45.9391C46.2321 45.584 46.7801 45.604 47.1955 45.999C47.4143 46.2105 47.621 46.4339 47.8257 46.6434Z" fill="white"/>
</svg>
