<svg width="59" height="59" viewBox="0 0 59 59" fill="none" xmlns="http://www.w3.org/2000/svg">
<path d="M0.321167 33.4108C0.817889 31.9121 1.87128 31.3126 3.41283 31.3876C4.43839 31.4389 5.47038 31.3876 6.50022 31.3876C8.26229 31.3876 9.2536 32.3532 9.30284 34.1003C9.30284 34.1902 9.30284 34.2801 9.31783 34.355C10.4933 34.5049 11.6451 34.6034 12.7778 34.8089C14.9851 35.2404 17.0915 36.0836 18.9868 37.2947C20.2992 38.104 21.6652 38.7934 23.2196 38.9904C24.5556 39.1617 25.8938 39.3008 27.2319 39.4571C29.1268 39.6712 31.0216 39.8854 32.9143 40.1187C35.6184 40.4484 37.7637 42.9877 37.586 45.4906C37.5689 45.7261 37.586 45.9659 37.586 46.2935C38.7679 45.7775 39.8748 45.2936 40.9817 44.8055C44.7435 43.1504 48.4903 41.4654 52.2714 39.8575C53.0245 39.5367 53.8383 39.3833 54.6566 39.4079C56.166 39.4764 57.3714 40.6733 57.7097 42.1913C57.8851 42.9151 57.8301 43.6756 57.5521 44.3666C57.2742 45.0575 56.7873 45.6444 56.1596 46.0451C50.9183 49.368 45.6756 52.6895 40.4315 56.0095C39.0527 56.9181 37.4794 57.4895 35.8389 57.6774C35.7492 57.698 35.6617 57.7274 35.5777 57.7652H20.6418C19.7254 57.5254 18.7877 57.352 17.8991 57.0351C15.3491 56.1252 12.8206 55.1553 10.2834 54.2111C9.97727 54.0976 9.66468 53.997 9.34352 53.8813C9.12942 55.8747 8.25373 56.639 6.27113 56.639C5.31622 56.639 4.36131 56.6005 3.40855 56.639C1.86486 56.7182 0.813607 56.108 0.321167 54.6136V33.4108ZM9.31355 36.1407C9.31355 36.9821 9.31355 37.7486 9.31355 38.5129C9.31355 39.2024 8.98811 39.5985 8.45713 39.5835C7.92615 39.5685 7.64139 39.1917 7.63925 38.5258C7.63925 37.0677 7.63925 35.6075 7.63925 34.1495C7.63925 33.3766 7.35877 33.079 6.60299 33.079C5.42399 33.079 4.2457 33.079 3.06812 33.079C2.30591 33.079 2.02758 33.368 2.02758 34.1495C2.02758 40.7339 2.02758 47.3183 2.02758 53.9028C2.02758 54.6757 2.30591 54.9604 3.06598 54.9733C4.15149 54.9733 5.237 54.9733 6.32251 54.9733C7.40802 54.9733 7.63925 54.7742 7.63925 53.6887C7.63925 50.1545 7.63925 46.6189 7.63925 43.0819C7.62813 42.9141 7.63315 42.7456 7.65424 42.5788C7.68517 42.3839 7.78408 42.2064 7.93344 42.0775C8.0828 41.9486 8.27297 41.8768 8.47023 41.8747C8.6675 41.8727 8.85912 41.9405 9.01113 42.0663C9.16314 42.192 9.26573 42.3675 9.3007 42.5617C9.32718 42.7467 9.33435 42.934 9.32211 43.1205C9.32211 45.9274 9.32211 48.7321 9.32211 51.539C9.32211 51.9244 9.40989 52.1257 9.80599 52.2691C12.6293 53.2997 15.4469 54.3467 18.2588 55.4101C19.373 55.8523 20.5586 56.0874 21.7573 56.1038H34.5522C36.246 56.1216 37.909 55.6503 39.3417 54.7463C44.65 51.3892 49.9541 48.027 55.2539 44.6599C55.6443 44.4122 55.9326 44.0324 56.0662 43.5898C56.1998 43.1473 56.1699 42.6714 55.9819 42.2491C55.8232 41.8229 55.5093 41.4725 55.1031 41.268C54.6969 41.0635 54.2284 41.0201 53.7916 41.1464C53.4477 41.2304 53.1123 41.3458 52.7896 41.4911C47.711 43.7221 42.6325 45.9516 37.5539 48.1798C37.1283 48.3601 36.6715 48.4554 36.2093 48.4602C33.2718 48.4859 30.3343 48.4731 27.3968 48.4731C27.2298 48.4731 27.0606 48.4731 26.8937 48.4731C26.6792 48.4622 26.4772 48.3694 26.3292 48.2138C26.1813 48.0582 26.0988 47.8517 26.0988 47.637C26.0988 47.4223 26.1813 47.2158 26.3292 47.0602C26.4772 46.9046 26.6792 46.8118 26.8937 46.8009C27.0435 46.7881 27.1934 46.8009 27.3433 46.8009H35.3122C35.5071 46.8009 35.704 46.7838 35.9331 46.7731C35.9331 46.3449 35.9331 45.9616 35.9331 45.5891C35.9331 43.6622 34.6721 42.1056 32.7601 41.8465C30.2765 41.5104 27.7907 41.185 25.2964 40.9901C22.5987 40.776 20.0958 40.0952 17.8028 38.6114C16.8138 38.0081 15.7665 37.506 14.6769 37.1127C12.9603 36.4618 11.1386 36.1323 9.30284 36.1407H9.31355Z" fill="#6F63DE"/>
<path d="M35.6292 58.0927L20.5541 58.0841C20.2694 58.0092 19.9825 57.9407 19.6977 57.87C19.0511 57.7292 18.4128 57.5527 17.7858 57.3412C15.998 56.6989 14.191 56.0244 12.4332 55.3671L10.1594 54.5107C9.9731 54.4401 9.78469 54.3758 9.59628 54.3116C9.2794 56.1615 8.26026 56.9579 6.25839 56.9579H5.35915C4.71684 56.9579 4.05526 56.9408 3.41294 56.9729C1.67228 57.0607 0.524678 56.3071 0.00440416 54.727L0.00012207 54.6799V33.3572L0.0172504 33.308C0.539665 31.7365 1.69155 30.9828 3.42579 31.0663C4.10664 31.1006 4.80676 31.092 5.48333 31.0834H6.49819C8.42513 31.0834 9.55988 32.1818 9.62197 34.0809L10.4484 34.1794C11.2342 34.2693 12.0435 34.3614 12.8335 34.5048C14.951 34.8902 17.0171 35.7188 19.1517 37.0334C20.2908 37.7357 21.6675 38.4807 23.2583 38.6841C24.1618 38.7998 25.0824 38.8982 25.9753 39.0032L27.2599 39.1509L28.9149 39.3414C30.2595 39.4956 31.6019 39.6497 32.9443 39.8125C35.7748 40.1572 38.0828 42.8271 37.8966 45.5248C37.8966 45.6168 37.8966 45.7132 37.8966 45.8181L38.5924 45.5141L40.8491 44.5249L43.8765 43.1868C46.5785 41.9899 49.3747 40.7524 52.1431 39.5748C52.9403 39.2359 53.8015 39.0737 54.6674 39.0995C56.2582 39.1723 57.637 40.4205 58.0181 42.1334C58.2078 42.921 58.1471 43.7483 57.8442 44.4997C57.5414 45.2512 57.0117 45.8895 56.3288 46.3255L49.8479 50.4299L40.5986 56.2856C39.179 57.2213 37.5585 57.8082 35.869 57.9985C35.8385 58.0055 35.809 58.0163 35.7812 58.0306L35.6806 58.0691L35.6292 58.0927ZM20.6826 57.4504H35.5157H35.5329C35.6179 57.4115 35.708 57.3848 35.8005 57.3712C37.3915 57.1877 38.9167 56.6309 40.2517 55.7461C43.332 53.7892 46.4144 51.8358 49.4989 49.8861L55.9798 45.7817C56.5504 45.4155 56.9926 44.8804 57.2448 44.251C57.4969 43.6216 57.5465 42.9293 57.3865 42.2704C57.0675 40.8402 55.937 39.7996 54.6331 39.7397C53.8631 39.7202 53.098 39.8663 52.3893 40.1679C49.6252 41.3433 46.8226 42.5808 44.1313 43.7755L41.1081 45.1115L38.8493 46.1007L37.2543 46.7965V46.3041C37.2543 46.1949 37.2543 46.09 37.2543 46.0044C37.2543 45.8138 37.2543 45.6489 37.2543 45.4777C37.4234 43.1032 35.3723 40.7545 32.8651 40.4484C31.5248 40.2856 30.1824 40.1315 28.84 39.9773L27.1849 39.7868L25.9003 39.6412C25.0075 39.5406 24.0826 39.4271 23.1726 39.32C21.4598 39.1059 20.0082 38.3159 18.8113 37.5772C16.7474 36.3054 14.754 35.5068 12.7158 35.1364C11.9493 34.9951 11.1828 34.9073 10.3735 34.8153C10.0095 34.7725 9.64124 34.7318 9.27298 34.6847L9.01177 34.6611L8.9925 34.3143C8.9925 34.2543 8.9925 34.1858 8.9925 34.1194C8.94968 32.5522 8.09112 31.7236 6.50889 31.7193C6.17275 31.7193 5.83875 31.7193 5.5026 31.7193C4.81747 31.7193 4.10878 31.7365 3.40866 31.7022C1.95704 31.6358 1.08135 32.1968 0.642435 33.4621V54.5728C1.07064 55.8446 1.95061 56.4013 3.39367 56.3306C4.0574 56.2964 4.72969 56.3049 5.37842 56.3135C5.67603 56.3135 5.97149 56.3135 6.27124 56.3135C8.10183 56.3135 8.82122 55.6712 9.02462 53.8427L9.06958 53.4423L9.75471 53.68C9.96882 53.7549 10.1829 53.8277 10.397 53.9069L12.6751 54.7634C14.42 55.4185 16.2249 56.0951 18.0084 56.7331C18.6133 56.9355 19.2287 57.1048 19.8519 57.2406C20.1259 57.3133 20.4064 57.3797 20.6826 57.4504ZM21.7231 56.4055C20.4885 56.3883 19.2674 56.1459 18.1198 55.6904C15.4028 54.6713 12.5145 53.5879 9.66693 52.5517C9.05459 52.3376 8.97109 51.9222 8.97323 51.5175C8.98608 49.308 8.98394 47.0599 8.97323 44.8803V43.0947C8.97323 43.0476 8.97323 42.9983 8.97323 42.9491C8.98002 42.8339 8.97428 42.7183 8.9561 42.6044C8.94311 42.4821 8.88366 42.3695 8.79003 42.2898C8.69639 42.2101 8.57573 42.1695 8.45296 42.1762C8.32656 42.1697 8.20269 42.2133 8.10814 42.2974C8.01359 42.3815 7.95595 42.4995 7.94767 42.6258C7.93298 42.7272 7.9294 42.8298 7.93697 42.932C7.93697 42.9769 7.93697 43.0219 7.93697 43.0668V53.6736C7.93697 54.9389 7.58584 55.2858 6.29907 55.2879H5.39769C4.61193 55.2879 3.82831 55.2879 3.04254 55.2879C2.10477 55.2879 1.68512 54.8597 1.68512 53.9048C1.68512 47.3218 1.68512 40.7374 1.68512 34.1515C1.68512 33.2009 2.11333 32.7749 3.04468 32.7684C4.24153 32.7684 5.43195 32.7684 6.58383 32.7684C7.51732 32.7684 7.93697 33.1966 7.93911 34.1558C7.93911 34.8945 7.93911 35.6332 7.93911 36.3718C7.93911 37.1105 7.93911 37.8127 7.93911 38.5321C7.93911 39.2515 8.32021 39.2665 8.44439 39.2686C8.50472 39.2739 8.56548 39.2667 8.62292 39.2476C8.68037 39.2284 8.73328 39.1977 8.7784 39.1573C8.92441 38.9767 8.9943 38.7463 8.97323 38.515C8.97323 37.9904 8.97323 37.4659 8.97323 36.9178V35.8194H9.29653C11.1583 35.8058 13.0069 36.1315 14.7519 36.7807C15.8613 37.1797 16.9279 37.689 17.9356 38.3009C19.9996 39.6326 22.4019 40.3948 25.2858 40.6303C27.7994 40.8444 30.2595 41.157 32.7666 41.4868C34.8071 41.763 36.2266 43.4351 36.218 45.5547V47.0535L35.9118 47.0663L35.6977 47.077C35.5479 47.077 35.4108 47.0942 35.2695 47.0942H27.1742C27.0787 47.0887 26.9829 47.0887 26.8873 47.0942C26.7502 47.0963 26.6192 47.1515 26.5218 47.2481C26.4245 47.3446 26.3682 47.4752 26.3649 47.6123C26.3704 47.75 26.4286 47.8803 26.5274 47.9763C26.6262 48.0723 26.7581 48.1267 26.8959 48.1283C27.0008 48.1283 27.11 48.1283 27.2299 48.1283H29.5165C31.7004 48.1283 33.9571 48.1283 36.1773 48.1133C36.5969 48.111 37.0117 48.0251 37.3977 47.8606C40.8063 46.3619 44.2662 44.8503 47.6126 43.3794L52.6334 41.172C52.9741 41.0183 53.3282 40.8957 53.691 40.8059C54.2024 40.6589 54.7503 40.7094 55.2261 40.9473C55.702 41.1853 56.0711 41.5933 56.2603 42.0905C56.4813 42.5832 56.5162 43.1392 56.3588 43.6556C56.2013 44.1721 55.8621 44.614 55.4039 44.8996C50.0998 48.2653 44.795 51.6267 39.4895 54.9839C38.0058 55.9208 36.2834 56.41 34.5287 56.3927H21.7231V56.4055ZM8.46366 41.5296C8.73501 41.5222 8.99973 41.614 9.20823 41.7878C9.41673 41.9617 9.55469 42.2055 9.59628 42.4738C9.62481 42.6377 9.63487 42.8043 9.62625 42.9705C9.62625 43.0133 9.62625 43.0583 9.62625 43.1011V44.8867C9.62625 47.062 9.62625 49.3101 9.62625 51.524C9.62625 51.8087 9.66051 51.8644 9.89816 51.9522C12.7479 52.9906 15.6383 54.074 18.3553 55.0952C19.4323 55.5218 20.5777 55.7495 21.736 55.7675H34.5351C36.1675 55.7838 37.7701 55.3296 39.1512 54.4593C44.4596 51.1022 49.7644 47.7407 55.0656 44.375C55.3933 44.1689 55.6351 43.8508 55.7461 43.4799C55.8572 43.1091 55.8299 42.7105 55.6694 42.3582C55.537 42.0041 55.2756 41.7131 54.9377 41.5436C54.5998 41.374 54.2104 41.3384 53.8473 41.4439C53.5224 41.5235 53.2056 41.6332 52.901 41.7715L47.8824 43.9768C44.5359 45.4498 41.0739 46.9743 37.6653 48.4601C37.1997 48.6573 36.7 48.7613 36.1945 48.7663C33.9699 48.7856 31.7111 48.7834 29.5251 48.7813H27.2385C27.1042 48.7851 26.9698 48.7815 26.8359 48.7706C26.5293 48.7706 26.2352 48.6488 26.0184 48.432C25.8016 48.2151 25.6798 47.9211 25.6798 47.6144C25.6798 47.3078 25.8016 47.0137 26.0184 46.7969C26.2352 46.5801 26.5293 46.4583 26.8359 46.4583C26.9543 46.4519 27.073 46.4519 27.1914 46.4583H35.2824C35.3809 46.4583 35.4793 46.4583 35.5821 46.4476V45.5676C35.5821 43.7541 34.4259 42.3796 32.6853 42.1419C30.1867 41.8036 27.7373 41.4825 25.2387 41.2855C22.2413 41.0414 19.747 40.2471 17.5952 38.8554C16.6224 38.2687 15.594 37.7796 14.525 37.3952C12.9613 36.8039 11.3064 36.4902 9.63481 36.4682V36.9135C9.63481 37.4637 9.63481 37.984 9.63481 38.515C9.64592 38.7141 9.61718 38.9134 9.55026 39.1013C9.48335 39.2892 9.37962 39.4618 9.24514 39.6091C9.13907 39.7106 9.01324 39.7892 8.87549 39.8401C8.73773 39.8909 8.59099 39.9128 8.44439 39.9045C7.74641 39.8874 7.31392 39.3607 7.31178 38.5278C7.31178 37.8056 7.31178 37.0841 7.31178 36.3632C7.31178 35.6267 7.31178 34.8881 7.31178 34.1494C7.31178 33.5478 7.17476 33.4086 6.59453 33.4043C5.44693 33.4043 4.25866 33.4043 3.06181 33.4043C2.47731 33.4043 2.34242 33.5456 2.34242 34.1451C2.34242 40.7295 2.34242 47.314 2.34242 53.8984C2.34242 54.4979 2.47731 54.6349 3.06181 54.6392C3.84543 54.6392 4.62691 54.6392 5.41696 54.6392H6.32262C7.26254 54.6392 7.31821 54.5835 7.31821 53.6672V43.0626C7.31821 43.024 7.31821 42.9833 7.31821 42.9427C7.30842 42.7938 7.31632 42.6443 7.34176 42.4973C7.37798 42.2259 7.51276 41.9773 7.72043 41.7988C7.92811 41.6204 8.19417 41.5245 8.46795 41.5296H8.46366Z" fill="#6F63DE"/>
<path d="M27.0587 13.4649C26.4164 12.8462 25.9283 12.3773 25.4337 11.9212C24.9734 11.493 24.6907 11.0199 24.922 10.3818C25.1532 9.7438 25.6778 9.56181 26.3008 9.52542C28.5988 9.4098 30.8955 9.28919 33.1907 9.16358C33.7688 9.13361 34.3468 9.0865 34.9271 9.06723C35.8434 9.0394 36.4022 9.55539 36.3594 10.4589C36.2203 13.4285 36.0575 16.396 35.8948 19.3656C35.8942 19.621 35.8132 19.8697 35.6633 20.0764C35.5134 20.2832 35.3023 20.4375 35.0598 20.5175C34.8322 20.6103 34.5813 20.6296 34.3421 20.5727C34.103 20.5159 33.8876 20.3858 33.7259 20.2007C33.1885 19.659 32.6554 19.1002 32.1159 18.5264C31.9018 18.7276 31.7562 18.8646 31.6127 19.006C29.6815 20.9343 27.751 22.8613 25.8212 24.7868C25.029 25.5768 24.3888 25.5811 23.6052 24.8018C22.5989 23.8026 21.5941 22.7977 20.5906 21.7872C19.8498 21.0378 19.8563 20.4105 20.6078 19.6461C22.549 17.7021 24.4945 15.7601 26.4442 13.8203C26.6362 13.6809 26.8421 13.5618 27.0587 13.4649ZM27.0587 11.1933C27.5041 11.6215 27.8402 11.9341 28.1635 12.2638C28.9814 13.0838 28.9771 13.6919 28.1528 14.5162C26.2259 16.4474 24.2989 18.3743 22.372 20.297C22.2307 20.4383 22.0979 20.5882 22.0209 20.6674L24.8363 23.4957C24.9323 23.3541 25.0374 23.2189 25.1511 23.0911C27.0523 21.1841 28.955 19.28 30.8591 17.3788C31.8054 16.4324 32.345 16.4324 33.302 17.4002C33.5868 17.6871 33.8458 17.9997 34.1177 18.3015L34.2698 18.2095C34.4025 15.743 34.5352 13.2851 34.668 10.7715L27.0587 11.1933Z" fill="#6F63DE"/>
<path d="M24.7033 25.7096C24.2751 25.7096 23.8298 25.4955 23.3801 25.0352C22.4809 24.1488 21.4318 23.0997 20.3634 22.0292C19.4942 21.1513 19.507 20.3313 20.3805 19.4471C22.5494 17.2739 24.3715 15.4519 26.217 13.6191C26.3087 13.5349 26.4109 13.463 26.5211 13.405L26.2641 13.1588C25.883 12.7927 25.5512 12.4758 25.215 12.1675C24.9774 11.9534 24.2558 11.2854 24.6198 10.2813C24.9838 9.27711 25.9622 9.23429 26.2834 9.21074C28.139 9.11654 29.9945 9.01947 31.8501 8.91956L33.1669 8.8489L33.792 8.81251C34.1582 8.78896 34.535 8.7654 34.9097 8.75256C35.1528 8.73241 35.3974 8.76334 35.6279 8.84335C35.8583 8.92336 36.0695 9.05069 36.2478 9.21716C36.4035 9.38613 36.522 9.58583 36.5958 9.8034C36.6695 10.021 36.6969 10.2516 36.676 10.4804C36.5411 13.3451 36.3848 16.2098 36.2114 19.3893C36.2058 19.7065 36.1028 20.0143 35.9162 20.2709C35.7297 20.5275 35.4687 20.7205 35.1687 20.8238C34.8834 20.9384 34.5697 20.9625 34.2702 20.8928C33.9706 20.8231 33.6998 20.663 33.4944 20.4341C33.1155 20.053 32.7536 19.6719 32.3704 19.2694L32.1156 18.976C32.0171 19.0681 31.9336 19.1495 31.8501 19.2308L29.6384 21.4425L26.0479 25.0266C25.5876 25.4805 25.1465 25.7096 24.7033 25.7096ZM34.9975 9.39701H34.9354C34.5714 9.39701 34.1988 9.43127 33.8391 9.45482L33.1968 9.49336L31.8801 9.56401C30.0245 9.6625 28.169 9.75956 26.3134 9.8552C25.6882 9.88731 25.3713 10.0693 25.2193 10.4975C25.0673 10.9257 25.1872 11.2704 25.6475 11.6922C25.9879 12.0048 26.3198 12.3345 26.718 12.6921L27.2897 13.238L27.5937 13.5292L27.234 13.7433C27.1377 13.8011 27.0478 13.8504 26.9664 13.8932C26.8634 13.9414 26.767 14.0026 26.6795 14.0752C24.8361 15.8972 23.0033 17.7192 20.8344 19.8881C20.2071 20.5197 20.1921 20.9415 20.8195 21.5646C21.89 22.6351 22.9412 23.6928 23.8319 24.5791C24.4871 25.2215 24.9303 25.2215 25.594 24.5642L29.1738 20.9865L31.3855 18.7748C31.4819 18.6784 31.5803 18.5864 31.7002 18.475L32.1285 18.0682L32.3426 18.2995L32.835 18.8176C33.2161 19.2158 33.5737 19.5948 33.9483 19.9716C34.066 20.1126 34.2259 20.212 34.4044 20.2552C34.5829 20.2984 34.7705 20.283 34.9396 20.2114C35.1237 20.1531 35.284 20.037 35.397 19.8805C35.51 19.7239 35.5696 19.5352 35.567 19.3422C35.7425 16.1648 35.8988 13.3001 36.0316 10.4397C36.0491 10.2994 36.0366 10.157 35.9948 10.0219C35.9531 9.88678 35.8832 9.76209 35.7896 9.65608C35.6812 9.56283 35.5553 9.49194 35.4194 9.44748C35.2834 9.40302 35.1401 9.38587 34.9975 9.39701ZM24.866 23.9946L21.5581 20.6696L21.8386 20.3634C21.9157 20.2799 22.0163 20.1707 22.1212 20.0658L24.622 17.5865L27.917 14.2786C28.6171 13.5763 28.6193 13.1738 27.9277 12.4801C27.7136 12.266 27.4995 12.0519 27.2362 11.81L26.8272 11.4182L26.2941 10.9064L35.006 10.4311L34.5778 18.3958L34.0511 18.7127L33.8734 18.5157L33.6143 18.2288C33.4366 18.0147 33.2525 17.8156 33.0619 17.625C32.6337 17.1968 32.3211 16.9827 32.0599 16.9827C31.7987 16.9827 31.499 17.1711 31.0751 17.5951L29.9767 18.6934C28.4451 20.2378 26.9122 21.7779 25.3777 23.3138C25.3032 23.3918 25.2359 23.4764 25.1765 23.5664C25.1465 23.6114 25.1165 23.6521 25.0887 23.6885L24.866 23.9946ZM22.4531 20.6568L24.7975 23.0119C24.836 22.9623 24.8775 22.9151 24.9217 22.8706C26.4561 21.3305 27.9927 19.7925 29.5314 18.2566L30.6276 17.1583C31.1907 16.5973 31.621 16.3575 32.0685 16.3575C32.5203 16.3575 32.9549 16.6038 33.5266 17.1797C33.6807 17.336 33.8306 17.5009 33.974 17.6636L34.3273 11.1098L27.8078 11.4674C28.0219 11.6644 28.1996 11.8421 28.3816 12.0262C29.3258 12.9704 29.3215 13.7819 28.3816 14.7325L25.0652 18.0404L22.5837 20.5304C22.5387 20.5668 22.4938 20.6118 22.4531 20.6568Z" fill="#6F63DE"/>
<path d="M29.0621 34.4685C24.9432 34.4729 20.9617 32.9869 17.8528 30.285C14.7439 27.583 12.7176 23.8475 12.1479 19.7681C11.4585 14.7666 12.7902 10.2875 16.0018 6.38013C16.43 5.85985 16.8925 5.77635 17.3057 6.11464C17.7189 6.45292 17.7082 6.92395 17.3057 7.44851C17.2607 7.50846 17.2136 7.56627 17.1665 7.62407C16.0317 8.99609 15.1489 10.5582 14.5587 12.238C11.3472 21.3075 17.1601 31.1263 26.662 32.5929C28.6515 32.9284 30.6881 32.8604 32.6508 32.3929C34.6134 31.9254 36.462 31.068 38.0866 29.8717C38.7889 29.3685 39.2664 29.3428 39.6025 29.7989C39.9386 30.2549 39.7652 30.7366 39.0844 31.2269C36.1765 33.3519 32.6637 34.4881 29.0621 34.4685Z" fill="#6F63DE"/>
<path d="M29.0626 34.7896C24.8631 34.7734 20.8081 33.2544 17.6315 30.5075C14.4657 27.7598 12.4059 23.9553 11.8357 19.8023C11.1335 14.7708 12.4566 10.1826 15.7517 6.18527C16.2891 5.53225 16.9464 5.41663 17.5095 5.87696C18.0726 6.33728 18.0683 6.9903 17.548 7.65831C17.5009 7.71826 17.4538 7.78035 17.4046 7.83815C16.2964 9.18295 15.4333 10.7121 14.8546 12.3558C14.1144 14.4417 13.8427 16.665 14.0586 18.8679C14.2746 21.0707 14.973 23.1989 16.1042 25.1014C17.2354 27.0039 18.7716 28.6339 20.6038 29.8757C22.436 31.1176 24.5191 31.9407 26.7053 32.2867C28.6548 32.6132 30.6501 32.5445 32.5726 32.0847C34.4951 31.625 36.3056 30.7836 37.8965 29.6104C38.7529 29.0002 39.4102 29.0002 39.8598 29.6104C39.948 29.7228 40.0124 29.8519 40.0492 29.9899C40.086 30.1279 40.0944 30.272 40.0739 30.4133C40.0161 30.7837 39.7442 31.1455 39.2689 31.4838C36.3069 33.6435 32.7326 34.8009 29.0668 34.7875L29.0626 34.7896ZM16.7965 6.23237C16.6531 6.23237 16.4689 6.31159 16.2463 6.5835C13.0711 10.4374 11.8015 14.8672 12.4716 19.7231C13.0205 23.7209 15.0034 27.3831 18.0512 30.0279C21.1118 32.6722 25.0179 34.1335 29.0626 34.1473C32.5942 34.1598 36.0376 33.0452 38.8921 30.9657C39.3032 30.6681 39.4166 30.4454 39.4359 30.3127C39.4439 30.2549 39.4392 30.196 39.4222 30.1402C39.4052 30.0844 39.3763 30.0329 39.3374 29.9894C39.2261 29.8374 39.0377 29.5826 38.2669 30.1328C36.6084 31.3532 34.7218 32.2284 32.719 32.7065C30.7161 33.1846 28.6377 33.2559 26.6068 32.9162C24.327 32.5552 22.1547 31.6967 20.2441 30.4016C18.3335 29.1065 16.7315 27.4066 15.5519 25.4226C14.3723 23.4386 13.644 21.2192 13.4187 18.922C13.1935 16.6248 13.4769 14.3063 14.2487 12.1309C14.8541 10.4167 15.7564 8.82228 16.9143 7.42065L17.0427 7.25579C17.4881 6.68627 17.2076 6.45504 17.1006 6.36726C17.0185 6.28747 16.9107 6.23963 16.7965 6.23237Z" fill="#6F63DE"/>
<path d="M46.2036 17.3851C46.1746 21.1432 44.92 24.7891 42.6302 27.7692C42.5451 27.8918 42.4491 28.0065 42.3433 28.1117C42.2081 28.2588 42.0215 28.3482 41.8221 28.3614C41.6228 28.3746 41.4261 28.3104 41.2727 28.1824C41.0998 28.0642 40.9804 27.8827 40.9403 27.6771C40.9002 27.4716 40.9427 27.2585 41.0586 27.084C41.1368 26.9553 41.2248 26.8329 41.322 26.7179C48.4516 17.2973 42.7993 3.68029 31.0878 2.11733C27.2896 1.61205 23.7654 2.44491 20.5539 4.54741C19.8302 5.02059 19.3527 5.03557 19.0273 4.58167C18.6805 4.09351 18.8646 3.65032 19.6204 3.14289C29.8438 -3.70845 43.9854 2.45347 45.906 14.6018C46.0537 15.5224 46.1072 16.4623 46.2036 17.3851Z" fill="#6F63DE"/>
<path d="M41.7612 28.6877C41.5113 28.6826 41.2703 28.5945 41.0761 28.4371C40.8431 28.2738 40.6818 28.0271 40.6256 27.7481C40.5694 27.4692 40.6226 27.1793 40.7742 26.9384C40.8397 26.8194 40.9164 26.7068 41.0033 26.6023L41.0611 26.5273C42.6589 24.4249 43.6771 21.94 44.014 19.3208C44.3509 16.7017 43.9947 14.04 42.981 11.6016C41.9672 9.16324 40.3314 7.03353 38.237 5.42522C36.1425 3.81691 33.6627 2.7863 31.0453 2.43633C27.4314 1.92888 23.7576 2.77697 20.7319 4.81717C19.8583 5.38882 19.1989 5.3717 18.7685 4.76792C18.6783 4.65378 18.6127 4.52217 18.5758 4.3814C18.539 4.24064 18.5317 4.09377 18.5544 3.95004C18.6208 3.5775 18.9034 3.23708 19.443 2.87952C21.8655 1.28156 24.6487 0.313913 27.54 0.0644064C30.4313 -0.1851 33.3392 0.291439 35.9996 1.45077C38.66 2.61009 40.9888 4.4155 42.7745 6.7031C44.5603 8.99071 45.7464 11.6881 46.2253 14.5503C46.3259 15.1927 46.3837 15.835 46.4394 16.4773C46.4672 16.7706 46.4929 17.0661 46.5229 17.3594V17.3979C46.4854 21.2231 45.2083 24.9328 42.8831 27.9704L42.8382 28.0303C42.7545 28.1482 42.6599 28.2579 42.5555 28.3579C42.3408 28.5625 42.0577 28.68 41.7612 28.6877ZM28.9599 1.65485C29.686 1.65488 30.4113 1.70352 31.1309 1.80044C33.8587 2.16595 36.4429 3.24053 38.6255 4.91692C40.8082 6.59331 42.5129 8.81287 43.5697 11.354C44.6264 13.8952 44.9981 16.6691 44.6477 19.3989C44.2973 22.1286 43.2371 24.7187 41.5728 26.9106L41.5107 26.9919C41.4473 27.0674 41.3907 27.1484 41.3416 27.2339C41.1424 27.6107 41.3052 27.8013 41.4679 27.9276C41.6306 28.0539 41.8276 28.1417 42.1295 27.8719C42.2024 27.8006 42.2683 27.7224 42.3264 27.6385L42.3757 27.5743C44.6139 24.6504 45.8443 21.08 45.8827 17.3979C45.8527 17.1089 45.827 16.8177 45.8014 16.5265C45.7457 15.9078 45.6879 15.2676 45.5872 14.651C45.1259 11.8954 43.984 9.2986 42.2652 7.09598C40.5463 4.89336 38.3049 3.15462 35.7441 2.03741C33.1833 0.920201 30.3841 0.459865 27.6003 0.698143C24.8166 0.936421 22.1364 1.86578 19.8027 3.40194C19.3359 3.71453 19.2117 3.93292 19.1882 4.05924C19.1807 4.11835 19.1859 4.17839 19.2037 4.23529C19.2214 4.29218 19.2512 4.34459 19.291 4.38896C19.4002 4.54097 19.5821 4.79576 20.3786 4.27334C22.9162 2.56901 25.9031 1.65757 28.9599 1.65485Z" fill="#6F63DE"/>
</svg>
