<svg width="59" height="56" viewBox="0 0 59 56" fill="none" xmlns="http://www.w3.org/2000/svg">
<path d="M58.3049 42.4763C57.8274 43.7802 56.9624 44.5489 55.5087 44.536C55.4102 44.536 55.2775 44.6859 55.2154 44.7951C55.1169 44.9771 55.089 45.1976 54.9884 45.3753C54.5773 46.099 54.4424 46.6878 55.1083 47.4543C55.8148 48.2657 55.6007 49.5696 54.8599 50.3896C54.3175 50.9995 53.7399 51.5772 53.13 52.1196C52.0423 53.0809 50.6785 52.9289 49.351 51.7385C48.7087 51.989 48.0664 52.2309 47.4241 52.5136C47.3235 52.5585 47.2614 52.7812 47.2507 52.9268C47.1436 54.5904 46.1181 55.5645 44.4523 55.571C43.8635 55.571 43.2748 55.571 42.686 55.571C41.1872 55.5581 40.1167 54.5882 40.0332 53.0938C40.0075 52.6656 39.8834 52.4215 39.453 52.3637C39.4155 52.3568 39.3798 52.3422 39.3481 52.3209C38.5345 51.8777 37.8494 51.6507 36.963 52.4258C36.2008 53.0981 34.9226 52.8261 34.1325 52.1089C33.5395 51.5766 32.9743 51.0142 32.4389 50.4239C31.9956 49.9557 31.7516 49.3335 31.7584 48.6887C31.7652 48.0439 32.0223 47.427 32.4753 46.9683C32.7622 46.6642 32.8093 46.4416 32.5952 46.0947C32.4301 45.8397 32.3106 45.5578 32.242 45.2618C32.1156 44.6538 31.7945 44.4975 31.1714 44.5061C28.2682 44.5424 25.3649 44.5253 22.4617 44.5189C21.6866 44.5189 21.2006 44.1142 21.1556 43.4634C21.1064 42.7354 21.5839 42.2408 22.3932 42.2365C24.3651 42.2365 26.3391 42.2365 28.3132 42.2365H28.9426C28.9426 41.5086 28.9426 40.832 28.9426 40.1555C28.9426 38.4191 29.8611 37.447 31.5825 37.2929C31.7538 37.2757 31.9251 37.0916 32.0685 36.9567C32.1413 36.8861 32.1392 36.7426 32.1884 36.642C32.5931 35.8455 32.8415 35.1668 32.0857 34.3061C31.3941 33.5204 31.6575 32.2229 32.3811 31.4243C32.9207 30.8376 33.4838 30.2703 34.0726 29.735C34.544 29.2962 35.1667 29.0565 35.8107 29.0661C36.4547 29.0756 37.0701 29.3337 37.5282 29.7864C37.8151 30.0497 38.0142 30.0904 38.3611 29.9063C38.8599 29.6429 39.3995 29.4567 39.9133 29.2426C39.9391 28.8628 39.9942 28.4855 40.0782 28.1142C40.3951 27.0801 41.0952 26.4014 42.1828 26.3008C43.0514 26.2226 43.9249 26.214 44.7949 26.2751C45.4092 26.2961 45.9929 26.548 46.4295 26.9807C46.8661 27.4133 47.1234 27.9947 47.15 28.6088C47.1864 29.1055 47.3406 29.3774 47.8288 29.4545C47.9221 29.4711 48.0115 29.5052 48.0921 29.5552C48.8136 29.9834 49.4452 30.1418 50.1689 29.4288C50.5093 29.0948 51.1774 29.0927 51.7747 28.9171V17.5225H2.31661C2.31661 17.7238 2.29092 17.925 2.29092 18.1241C2.29092 24.7671 2.29092 31.4093 2.29092 38.0508C2.25334 39.0436 2.52654 40.0233 3.0724 40.8534C3.34635 41.2893 3.72914 41.6463 4.18304 41.8892C4.63694 42.1321 5.14629 42.2525 5.66092 42.2387C7.78697 42.2237 9.91303 42.2387 12.0391 42.2387C12.7563 42.2387 13.2316 42.6669 13.2659 43.3092C13.3002 43.9066 12.8848 44.4911 12.2767 44.4953C9.75459 44.5125 7.2196 44.6281 4.71244 44.4161C2.35729 44.217 0.515991 42.091 0.122039 39.5624C0.0489134 39.0949 0.0109817 38.6225 0.00856417 38.1493C0.00285472 27.5611 0 16.9715 0 6.38051C0 4.3037 0.668005 2.5095 2.29092 1.14566C3.16493 0.396589 4.28079 -0.0103542 5.43183 0.000200269C19.8482 0.000200269 34.2702 0.000200269 48.698 0.000200269C51.218 0.000200269 53.3848 1.90787 53.9543 4.61201C54.0892 5.30095 54.1538 6.00181 54.147 6.7038C54.1598 14.5015 54.147 22.3013 54.1641 30.1011C54.1575 30.3936 54.2487 30.6799 54.4232 30.9147C55.8534 32.4841 55.8855 33.5782 54.4853 35.1968C54.7315 35.8177 54.9734 36.4493 55.2389 37.0702C55.2665 37.1256 55.3066 37.1737 55.356 37.2109C55.4054 37.248 55.4628 37.2732 55.5237 37.2843C56.9517 37.2586 57.7975 38.0315 58.307 39.284L58.3049 42.4763ZM51.8454 15.1417C51.8454 14.4715 51.8454 13.857 51.8454 13.2618C51.8454 10.7761 51.8839 8.28818 51.809 5.80243C51.7447 3.61 50.2867 2.28683 48.1092 2.28683H28.7521C21.0828 2.28683 13.4151 2.28683 5.7487 2.28683C4.42339 2.28683 3.44708 2.85421 2.89683 3.99967C2.54799 4.7115 2.35043 5.48789 2.31661 6.27988C2.2481 9.08679 2.28877 11.898 2.29092 14.7049C2.29092 14.8505 2.31661 14.9961 2.3316 15.1566L51.8454 15.1417ZM35.7554 31.3129C35.4557 31.6063 35.188 31.8675 34.9226 32.1308C33.9591 33.0922 33.9591 33.0922 34.9097 34.077C35.5113 34.7022 35.522 35.0598 35.1345 35.8605C34.7248 36.6903 34.3672 37.5448 34.064 38.4191C33.76 39.3269 33.4838 39.6009 32.5331 39.6095C31.2721 39.6202 31.2721 39.6202 31.2721 40.8791C31.2721 42.2237 31.2721 42.2237 32.6359 42.2344C33.4923 42.2344 33.7728 42.5106 34.0533 43.3328C34.3553 44.2256 34.7128 45.0987 35.1238 45.947C35.5327 46.7756 35.522 47.146 34.8605 47.8118C33.9612 48.7175 33.9612 48.7175 34.884 49.6403C35.8068 50.5631 35.8068 50.5631 36.751 49.6403C37.3933 48.998 37.7487 48.998 38.5752 49.4069C39.3847 49.8133 40.2218 50.1624 41.0802 50.4517C42.095 50.7879 42.3177 51.0212 42.322 52.1153C42.322 53.4363 42.1893 53.2929 43.521 53.2865C45.161 53.2865 44.9362 53.5006 44.9555 51.8841C44.9555 51.0555 45.2231 50.7857 46.026 50.5053C46.9357 50.1902 47.8265 49.8227 48.6937 49.4048C49.5202 49.0001 49.8628 49.0001 50.5158 49.6403C51.4664 50.5716 51.4664 50.5716 52.387 49.6403C53.3077 48.7089 53.3077 48.7153 52.3742 47.7669C51.7319 47.1245 51.7319 46.7691 52.1472 45.9427C52.5534 45.1328 52.9033 44.2958 53.1942 43.4377C53.5282 42.4442 53.7445 42.2344 54.8128 42.2323C56.1403 42.2323 56.014 42.3436 56.014 41.0504C56.014 39.6416 56.014 39.6416 54.6373 39.6073C53.828 39.5859 53.5239 39.3012 53.2542 38.5368C52.9508 37.6431 52.5933 36.7686 52.1836 35.9183C51.7297 35.002 51.734 34.6894 52.447 33.9593C53.4469 32.938 53.4404 33.2335 52.4363 32.2143C51.4857 31.2487 51.4792 31.253 50.4879 32.2143C49.8906 32.7903 49.4923 32.801 48.7515 32.4477C47.8678 32.0162 46.9599 31.6359 46.0324 31.3087C45.1974 31.0218 44.9169 30.7327 44.9041 29.8442C44.887 28.5596 44.887 28.5596 43.6045 28.5596C42.2835 28.5596 42.2835 28.5596 42.2728 29.8806C42.2728 30.7734 42.0094 31.0603 41.1466 31.3279C40.4515 31.513 39.7787 31.7736 39.1404 32.1051C37.4126 33.0986 37.3013 32.7903 36.1879 31.6619C36.0507 31.5372 35.9063 31.4207 35.7554 31.3129Z" fill="#6F63DE"/>
<path d="M25.6927 29.8486L23.1342 26.9774C23.0162 26.8545 22.9067 26.7236 22.8066 26.5856C22.6481 26.3567 22.5792 26.0775 22.6132 25.8012C22.6471 25.5248 22.7815 25.2706 22.9907 25.0869C23.1908 24.8908 23.4599 24.7809 23.7401 24.7809C24.0203 24.7809 24.2893 24.8908 24.4894 25.0869C25.6606 26.3501 26.8125 27.6347 27.9151 28.9408C28.1373 29.209 28.2533 29.5495 28.2411 29.8976C28.2288 30.2457 28.0892 30.5772 27.8487 30.8292C26.7868 32.0624 25.7048 33.28 24.6029 34.4818C24.51 34.6125 24.3905 34.7222 24.2523 34.8036C24.1141 34.8851 23.9602 34.9365 23.8008 34.9544C23.6414 34.9724 23.48 34.9566 23.3272 34.908C23.1743 34.8594 23.0334 34.7791 22.9136 34.6724C22.7939 34.5656 22.698 34.4348 22.6322 34.2886C22.5664 34.1423 22.5321 33.9837 22.5317 33.8233C22.5313 33.6629 22.5648 33.5042 22.6298 33.3576C22.6949 33.211 22.7901 33.0797 22.9093 32.9724C23.6009 32.1673 24.3182 31.3858 25.0226 30.5937C25.2388 30.356 25.4465 30.1162 25.6927 29.8486Z" fill="#6F63DE"/>
<path d="M9.03757 29.8486C9.91754 30.8378 10.7675 31.7755 11.6068 32.7369C11.805 32.9383 11.9602 33.178 12.0629 33.4413C12.1454 33.6784 12.1419 33.937 12.053 34.1718C11.9642 34.4066 11.7956 34.6028 11.5768 34.7259C11.3489 34.8673 11.0783 34.9233 10.8129 34.8842C10.5476 34.845 10.3047 34.713 10.1274 34.5118C9.45508 33.7903 8.80848 33.0452 8.15118 32.3087C7.74867 31.8548 7.33759 31.4073 6.94577 30.9427C6.35271 30.2404 6.33772 29.4611 6.93079 28.7781C7.9642 27.5891 9.01117 26.4122 10.0717 25.2475C10.5599 24.708 11.2536 24.6609 11.7396 25.0955C12.2256 25.5301 12.2534 26.2281 11.776 26.7741C10.8853 27.7868 9.98391 28.7867 9.03757 29.8486Z" fill="#6F63DE"/>
<path d="M19.6977 25.0183C19.4086 26.2451 19.1517 27.352 18.8884 28.4568C18.4023 30.5036 17.9227 32.5505 17.411 34.5909C17.3262 34.9357 17.1527 35.2523 16.9079 35.5094C16.5503 35.8605 16.0707 35.8541 15.6425 35.5886C15.4316 35.473 15.2658 35.2897 15.1718 35.0683C15.0778 34.8469 15.0611 34.6003 15.1244 34.3682C15.5226 32.6554 15.9266 30.9426 16.3362 29.2297C16.6767 27.7909 17.0085 26.3522 17.3746 24.9198C17.6123 23.9799 18.6015 23.6181 19.2502 24.239C19.4643 24.4488 19.5649 24.7956 19.6977 25.0183Z" fill="#6F63DE"/>
<path d="M17.2118 42.2366C17.3636 42.2302 17.515 42.2547 17.657 42.3084C17.799 42.3622 17.9286 42.4442 18.0381 42.5494C18.1475 42.6547 18.2345 42.781 18.2938 42.9208C18.3531 43.0606 18.3834 43.2109 18.383 43.3628C18.385 43.515 18.3565 43.666 18.2993 43.8071C18.242 43.9481 18.1571 44.0763 18.0496 44.184C17.9421 44.2917 17.8141 44.3769 17.6731 44.4344C17.5322 44.4919 17.3812 44.5207 17.229 44.5189C16.9324 44.513 16.649 44.3956 16.4351 44.19C16.2212 43.9845 16.0927 43.706 16.0749 43.4099C16.0718 43.258 16.0988 43.107 16.1544 42.9656C16.21 42.8242 16.293 42.6953 16.3988 42.5862C16.5045 42.4771 16.6307 42.39 16.7703 42.33C16.9099 42.27 17.0599 42.2382 17.2118 42.2366Z" fill="#6F63DE"/>
<path d="M39.2281 12.6325C37.5024 12.6325 35.7746 12.6603 34.0489 12.6325C33.0268 12.6086 32.0561 12.1797 31.3502 11.4401C30.6443 10.7005 30.2611 9.71077 30.285 8.68866C30.3088 7.66654 30.7377 6.69577 31.4773 5.98989C32.217 5.28401 33.2067 4.90085 34.2288 4.9247C37.5667 4.9247 40.9067 4.90543 44.2446 4.9247C46.4991 4.93969 48.182 6.61827 48.1798 8.77858C48.1777 10.9389 46.4884 12.5982 44.2382 12.6325H39.2281ZM39.2431 10.3458C40.836 10.3458 42.429 10.3458 44.0219 10.3458C44.287 10.3494 44.5513 10.317 44.8077 10.2495C45.1356 10.1482 45.4199 9.93977 45.6151 9.65753C45.8103 9.37529 45.905 9.03564 45.884 8.69312C45.863 8.3506 45.7276 8.02507 45.4994 7.76877C45.2712 7.51248 44.9635 7.34029 44.6257 7.27985C44.3819 7.24449 44.1355 7.22945 43.8892 7.23489H34.6142C34.3679 7.22761 34.1214 7.24194 33.8777 7.27771C33.5939 7.31701 33.3282 7.43976 33.1143 7.63036C32.9005 7.82097 32.7481 8.07084 32.6765 8.34823C32.3618 9.39306 33.1047 10.3287 34.293 10.3415C35.9416 10.3565 37.5924 10.3415 39.2431 10.3437V10.3458Z" fill="#6F63DE"/>
<path d="M24.4872 8.79997C24.483 9.56118 24.2534 10.3041 23.8275 10.935C23.4016 11.5659 22.7983 12.0565 22.0939 12.345C21.3895 12.6335 20.6154 12.7069 19.8693 12.5559C19.1231 12.405 18.4385 12.0365 17.9015 11.4969C17.3646 10.9573 16.9995 10.2707 16.8523 9.52389C16.7051 8.77704 16.7823 8.00332 17.0743 7.30032C17.3663 6.59733 17.8599 5.99655 18.4929 5.57376C19.126 5.15097 19.87 4.92512 20.6312 4.92468C21.1393 4.92439 21.6424 5.02457 22.1117 5.21946C22.5809 5.41435 23.0069 5.70009 23.3653 6.06026C23.7237 6.42042 24.0073 6.8479 24.1998 7.31808C24.3924 7.78827 24.4901 8.29189 24.4872 8.79997ZM19.1004 8.75929C19.097 8.96375 19.1341 9.16686 19.2095 9.35693C19.2849 9.54699 19.3972 9.72025 19.5399 9.86672C19.6826 10.0132 19.8529 10.13 20.0409 10.2104C20.2289 10.2908 20.431 10.3331 20.6355 10.3351C21.0481 10.3295 21.4422 10.163 21.7338 9.87105C22.0254 9.57907 22.1913 9.18474 22.1963 8.77214C22.1904 8.36922 22.0288 7.98422 21.7455 7.6977C21.4622 7.41117 21.079 7.24533 20.6762 7.23487C20.4719 7.22887 20.2686 7.26381 20.078 7.33765C19.8875 7.41149 19.7137 7.52272 19.5668 7.66479C19.42 7.80686 19.303 7.9769 19.2229 8.16487C19.1428 8.35285 19.1011 8.55496 19.1004 8.75929Z" fill="#6F63DE"/>
<path d="M14.4972 8.77856C14.4947 9.53714 14.2676 10.278 13.8445 10.9077C13.4215 11.5374 12.8215 12.0277 12.1202 12.3168C11.4188 12.6059 10.6476 12.6809 9.90372 12.5323C9.15983 12.3837 8.4766 12.0181 7.9402 11.4817C7.4038 10.9453 7.03824 10.2621 6.88962 9.5182C6.741 8.77431 6.81599 8.00307 7.10511 7.30174C7.39424 6.60041 7.88456 6.0004 8.51424 5.57736C9.14392 5.15433 9.88477 4.92722 10.6434 4.92468C11.6655 4.92468 12.6457 5.33071 13.3685 6.05346C14.0912 6.7762 14.4972 7.75645 14.4972 8.77856ZM9.10822 8.79355C9.11674 9.2041 9.288 9.59444 9.58432 9.87872C9.88065 10.163 10.2778 10.3179 10.6883 10.3094C11.0989 10.3009 11.4892 10.1296 11.7735 9.83331C12.0578 9.53698 12.2127 9.13986 12.2042 8.72932C12.1831 8.3276 12.0063 7.94991 11.7112 7.67647C11.4162 7.40302 11.0262 7.25536 10.624 7.26484C10.2219 7.27431 9.83927 7.44018 9.55743 7.72722C9.2756 8.01426 9.11676 8.39985 9.11465 8.80211L9.10822 8.79355Z" fill="#6F63DE"/>
<path d="M43.6434 33.9078C45.0297 33.9091 46.3845 34.3214 47.5365 35.0926C48.6885 35.8638 49.586 36.9593 50.1154 38.2405C50.6449 39.5218 50.7825 40.9312 50.511 42.2907C50.2394 43.6501 49.5709 44.8985 48.5898 45.8781C47.6088 46.8576 46.3594 47.5242 44.9995 47.7937C43.6397 48.0632 42.2304 47.9233 40.95 47.392C39.6696 46.8606 38.5755 45.9614 37.806 44.8083C37.0366 43.6551 36.6264 42.2996 36.6272 40.9133C36.634 39.0556 37.3757 37.276 38.6903 35.9634C40.005 34.6508 41.7856 33.9118 43.6434 33.9078ZM38.9331 40.9155C38.9331 41.8481 39.21 42.7597 39.7286 43.5348C40.2472 44.3099 40.9843 44.9136 41.8463 45.2694C42.7084 45.6252 43.6567 45.7171 44.571 45.5335C45.4854 45.3498 46.3246 44.8988 46.9824 44.2377C47.6402 43.5766 48.087 42.7351 48.266 41.8199C48.4451 40.9046 48.3485 39.9568 47.9883 39.0965C47.6282 38.2363 47.0208 37.5023 46.2431 36.9875C45.4654 36.4728 44.5524 36.2005 43.6198 36.2052C42.3739 36.2103 41.1808 36.7088 40.3016 37.5916C39.4224 38.4744 38.9288 39.6696 38.9288 40.9155H38.9331Z" fill="#6F63DE"/>
</svg>
