<svg width="70" height="70" viewBox="0 0 70 70" fill="none" xmlns="http://www.w3.org/2000/svg">
<rect width="70" height="70" fill="#6F63DE"/>
<path d="M12.2542 38.4559C12.6472 37.2692 13.4809 36.7945 14.7008 36.8538C15.5124 36.8945 16.3291 36.8538 17.1441 36.8538C18.5386 36.8538 19.3231 37.6184 19.3621 39.0018C19.3621 39.073 19.3621 39.1442 19.3739 39.2036C20.3042 39.3222 21.2157 39.4002 22.1121 39.563C23.8589 39.9046 25.5259 40.5723 27.0258 41.5313C28.0644 42.1721 29.1454 42.718 30.3756 42.874C31.4328 43.0096 32.4918 43.1198 33.5508 43.2436C35.0504 43.4131 36.5499 43.5827 38.0477 43.7674C40.1877 44.0285 41.8855 46.0392 41.7449 48.0211C41.7313 48.2076 41.7449 48.3975 41.7449 48.6568C42.6801 48.2483 43.5561 47.8651 44.4321 47.4786C47.4092 46.1681 50.3743 44.8338 53.3666 43.5606C53.9626 43.3066 54.6066 43.1851 55.2542 43.2046C56.4487 43.2588 57.4026 44.2065 57.6703 45.4085C57.8092 45.9817 57.7656 46.5839 57.5457 47.131C57.3257 47.6782 56.9404 48.1429 56.4436 48.4602C52.2958 51.0914 48.1468 53.7214 43.9967 56.3504C42.9055 57.0698 41.6605 57.5222 40.3622 57.671C40.2912 57.6873 40.222 57.7106 40.1555 57.7406H28.3355C27.6103 57.5507 26.8682 57.4134 26.165 57.1624C24.147 56.4419 22.1459 55.6739 20.1381 54.9263C19.8958 54.8364 19.6484 54.7567 19.3943 54.6652C19.2248 56.2436 18.5318 56.8488 16.9628 56.8488C16.2071 56.8488 15.4514 56.8183 14.6974 56.8488C13.4758 56.9115 12.6439 56.4284 12.2542 55.245V38.4559ZM19.3706 40.6175C19.3706 41.2838 19.3706 41.8907 19.3706 42.4959C19.3706 43.0418 19.113 43.3555 18.6928 43.3436C18.2726 43.3317 18.0472 43.0334 18.0455 42.5061C18.0455 41.3516 18.0455 40.1953 18.0455 39.0408C18.0455 38.4288 17.8236 38.1931 17.2255 38.1931C16.2924 38.1931 15.36 38.1931 14.428 38.1931C13.8248 38.1931 13.6046 38.422 13.6046 39.0408C13.6046 44.2546 13.6046 49.4684 13.6046 54.6821C13.6046 55.2942 13.8248 55.5196 14.4263 55.5298C15.2854 55.5298 16.1444 55.5298 17.0035 55.5298C17.8626 55.5298 18.0455 55.3721 18.0455 54.5126C18.0455 51.7141 18.0455 48.9145 18.0455 46.1138C18.0367 45.9809 18.0407 45.8475 18.0574 45.7154C18.0819 45.5611 18.1602 45.4205 18.2784 45.3185C18.3966 45.2164 18.5471 45.1595 18.7032 45.1579C18.8593 45.1563 19.0109 45.21 19.1312 45.3096C19.2515 45.4091 19.3327 45.5481 19.3604 45.7018C19.3813 45.8484 19.387 45.9966 19.3773 46.1443C19.3773 48.3669 19.3773 50.5879 19.3773 52.8105C19.3773 53.1156 19.4468 53.275 19.7603 53.3886C21.9946 54.2046 24.2244 55.0336 26.4497 55.8757C27.3314 56.2258 28.2697 56.412 29.2183 56.425H39.3439C40.6844 56.4391 42.0005 56.0659 43.1342 55.3501C47.3352 52.6918 51.5327 50.0295 55.7269 47.3633C56.0358 47.1672 56.264 46.8664 56.3697 46.516C56.4755 46.1656 56.4518 45.7887 56.303 45.4543C56.1774 45.1169 55.929 44.8394 55.6075 44.6775C55.2861 44.5155 54.9153 44.4812 54.5696 44.5812C54.2975 44.6477 54.0321 44.7391 53.7766 44.8542C49.7576 46.6207 45.7385 48.3862 41.7194 50.1505C41.3826 50.2933 41.0211 50.3687 40.6554 50.3725C38.3307 50.3929 36.006 50.3827 33.6813 50.3827C33.5491 50.3827 33.4153 50.3827 33.2831 50.3827C33.1134 50.3741 32.9535 50.3006 32.8365 50.1774C32.7194 50.0542 32.6541 49.8907 32.6541 49.7207C32.6541 49.5507 32.7194 49.3872 32.8365 49.264C32.9535 49.1407 33.1134 49.0672 33.2831 49.0586C33.4017 49.0485 33.5203 49.0586 33.6389 49.0586H39.9454C40.0996 49.0586 40.2555 49.0451 40.4368 49.0366C40.4368 48.6975 40.4368 48.3941 40.4368 48.0991C40.4368 46.5733 39.4388 45.3407 37.9257 45.1356C35.9602 44.8694 33.9931 44.6117 32.0191 44.4575C29.8842 44.2879 27.9035 43.7488 26.0888 42.5739C25.3061 42.0962 24.4773 41.6986 23.615 41.3872C22.2565 40.8717 20.8149 40.6108 19.3621 40.6175H19.3706Z" fill="white"/>
<path d="M40.1962 57.9999L28.2661 57.9931C28.0407 57.9338 27.8137 57.8795 27.5883 57.8236C27.0766 57.7121 26.5715 57.5723 26.0752 57.4048C24.6604 56.8962 23.2304 56.3622 21.8393 55.8417L20.0398 55.1636C19.8924 55.1076 19.7433 55.0567 19.5942 55.0059C19.3434 56.4707 18.5369 57.1014 16.9527 57.1014H16.241C15.7327 57.1014 15.2092 57.0878 14.7008 57.1132C13.3233 57.1827 12.4151 56.586 12.0034 55.3348L12 55.2975V38.4135L12.0136 38.3745C12.427 37.1301 13.3386 36.5333 14.711 36.5994C15.2498 36.6266 15.8039 36.6198 16.3393 36.613H17.1424C18.6674 36.613 19.5654 37.4827 19.6145 38.9865L20.2686 39.0645C20.8904 39.1357 21.5309 39.2086 22.1561 39.3222C23.8319 39.6273 25.4669 40.2834 27.1562 41.3244C28.0576 41.8805 29.1471 42.4704 30.4061 42.6315C31.1211 42.723 31.8497 42.801 32.5562 42.8841L33.5729 43.0011L34.8826 43.152C35.9467 43.274 37.0091 43.3961 38.0714 43.525C40.3114 43.7979 42.138 45.912 41.9905 48.0482C41.9905 48.1211 41.9905 48.1973 41.9905 48.2804L42.5412 48.0397L44.3271 47.2564L46.7229 46.1968C48.8613 45.2491 51.0741 44.2692 53.265 43.3368C53.8958 43.0684 54.5774 42.94 55.2626 42.9604C56.5216 43.018 57.6127 44.0064 57.9143 45.3627C58.0645 45.9864 58.0164 46.6415 57.7768 47.2365C57.5371 47.8315 57.1179 48.3369 56.5775 48.6822L51.4486 51.9322L44.1288 56.569C43.0055 57.3099 41.723 57.7746 40.386 57.9253C40.3618 57.9308 40.3385 57.9394 40.3165 57.9507L40.2369 57.9812L40.1962 57.9999ZM28.3677 57.4913H40.1064H40.1199C40.1872 57.4605 40.2585 57.4394 40.3317 57.4286C41.5909 57.2833 42.7979 56.8424 43.8544 56.1418C46.292 54.5922 48.7314 53.0455 51.1724 51.5016L56.3013 48.2516C56.7529 47.9616 57.1028 47.5379 57.3023 47.0396C57.5019 46.5412 57.5411 45.9929 57.4145 45.4712C57.162 44.3387 56.2674 43.5148 55.2355 43.4673C54.6262 43.4519 54.0206 43.5675 53.4598 43.8064C51.2724 44.7371 49.0544 45.717 46.9246 46.6631L44.5321 47.721L42.7445 48.5042L41.4822 49.0552V48.6653C41.4822 48.5788 41.4822 48.4957 41.4822 48.4279C41.4822 48.277 41.4822 48.1465 41.4822 48.0109C41.6161 46.1307 39.9929 44.2709 38.0087 44.0285C36.9481 43.8996 35.8857 43.7776 34.8233 43.6555L33.5136 43.5046L32.4969 43.3893C31.7904 43.3096 31.0584 43.2198 30.3383 43.135C28.9828 42.9655 27.834 42.3399 26.8868 41.755C25.2534 40.748 23.676 40.1156 22.0629 39.8223C21.4563 39.7104 20.8498 39.6409 20.2093 39.568C19.9212 39.5341 19.6298 39.5019 19.3384 39.4646L19.1316 39.4459L19.1164 39.1713C19.1164 39.1238 19.1164 39.0696 19.1164 39.017C19.0825 37.776 18.4031 37.1199 17.1509 37.1165C16.8849 37.1165 16.6206 37.1165 16.3546 37.1165C15.8124 37.1165 15.2515 37.1301 14.6975 37.1029C13.5487 37.0504 12.8557 37.4946 12.5083 38.4965V55.2127C12.8472 56.2198 13.5436 56.6606 14.6856 56.6046C15.2109 56.5775 15.7429 56.5843 16.2563 56.591C16.4918 56.591 16.7256 56.591 16.9628 56.591C18.4115 56.591 18.9808 56.0824 19.1418 54.6346L19.1774 54.3176L19.7196 54.5058C19.889 54.5651 20.0585 54.6227 20.2279 54.6855L22.0307 55.3636C23.4117 55.8824 24.84 56.4181 26.2514 56.9233C26.7301 57.0835 27.2171 57.2177 27.7103 57.3251C27.9272 57.3828 28.1491 57.4353 28.3677 57.4913ZM29.1912 56.6639C28.2141 56.6503 27.2478 56.4584 26.3395 56.0977C24.1894 55.2907 21.9037 54.4329 19.6501 53.6123C19.1655 53.4428 19.0995 53.1139 19.1012 52.7935C19.1113 51.0438 19.1096 49.2637 19.1012 47.5379V46.1239C19.1012 46.0866 19.1012 46.0476 19.1012 46.0086C19.1065 45.9174 19.102 45.8259 19.0876 45.7357C19.0773 45.6389 19.0303 45.5497 18.9562 45.4866C18.8821 45.4235 18.7866 45.3913 18.6894 45.3966C18.5894 45.3915 18.4914 45.426 18.4165 45.4926C18.3417 45.5592 18.2961 45.6526 18.2895 45.7526C18.2779 45.8329 18.2751 45.9142 18.2811 45.9951C18.2811 46.0307 18.2811 46.0663 18.2811 46.1019V54.5007C18.2811 55.5026 18.0032 55.7773 16.9849 55.779H16.2715C15.6497 55.779 15.0296 55.779 14.4077 55.779C13.6656 55.779 13.3335 55.4399 13.3335 54.6838C13.3335 49.4711 13.3335 44.2573 13.3335 39.0424C13.3335 38.2897 13.6724 37.9523 14.4094 37.9472C15.3566 37.9472 16.2986 37.9472 17.2102 37.9472C17.949 37.9472 18.2811 38.2863 18.2828 39.0458C18.2828 39.6307 18.2828 40.2156 18.2828 40.8005C18.2828 41.3854 18.2828 41.9415 18.2828 42.5111C18.2828 43.0808 18.5844 43.0926 18.6826 43.0943C18.7304 43.0985 18.7785 43.0928 18.8239 43.0776C18.8694 43.0625 18.9113 43.0382 18.947 43.0062C19.0625 42.8632 19.1178 42.6807 19.1012 42.4976C19.1012 42.0822 19.1012 41.6668 19.1012 41.2328V40.3631H19.357C20.8304 40.3523 22.2934 40.6103 23.6743 41.1243C24.5522 41.4403 25.3963 41.8435 26.1938 42.328C27.8272 43.3825 29.7283 43.9861 32.0106 44.1726C33.9998 44.3421 35.9467 44.5896 37.9308 44.8507C39.5455 45.0694 40.6689 46.3935 40.6621 48.0719V49.2586L40.4199 49.2688L40.2504 49.2773C40.1318 49.2773 40.0234 49.2909 39.9115 49.2909H33.5051C33.4295 49.2865 33.3537 49.2865 33.278 49.2909C33.1695 49.2926 33.0659 49.3362 32.9888 49.4127C32.9117 49.4892 32.8672 49.5926 32.8646 49.7011C32.8689 49.8101 32.915 49.9133 32.9932 49.9894C33.0714 50.0654 33.1758 50.1085 33.2848 50.1097C33.3678 50.1097 33.4543 50.1097 33.5491 50.1097H35.3587C37.087 50.1097 38.8729 50.1097 40.63 50.0978C40.962 50.096 41.2903 50.028 41.5958 49.8978C44.2932 48.711 47.0313 47.5141 49.6796 46.3494L53.653 44.6015C53.9226 44.4798 54.2028 44.3827 54.49 44.3116C54.8946 44.1952 55.3282 44.2352 55.7048 44.4236C56.0814 44.612 56.3735 44.9351 56.5232 45.3288C56.6981 45.7189 56.7258 46.1592 56.6012 46.5681C56.4766 46.9771 56.2081 47.327 55.8455 47.5531C51.6479 50.2182 47.4498 52.8799 43.2512 55.5382C42.077 56.2801 40.7139 56.6674 39.3253 56.6538H29.1912V56.6639ZM18.6979 44.8846C18.9126 44.8788 19.1221 44.9515 19.2871 45.0891C19.4521 45.2268 19.5613 45.4199 19.5942 45.6323C19.6168 45.7621 19.6248 45.894 19.6179 46.0256C19.6179 46.0595 19.6179 46.0951 19.6179 46.129V47.5429C19.6179 49.2654 19.6179 51.0455 19.6179 52.7985C19.6179 53.024 19.645 53.0681 19.8331 53.1376C22.0883 53.9599 24.3758 54.8177 26.5259 55.6264C27.3783 55.9641 28.2847 56.1445 29.2014 56.1587H39.3304C40.6222 56.1716 41.8904 55.812 42.9834 55.1229C47.1844 52.4646 51.3825 49.8028 55.5778 47.1377C55.8371 46.9745 56.0285 46.7227 56.1163 46.429C56.2042 46.1353 56.1826 45.8197 56.0556 45.5407C55.9508 45.2603 55.744 45.0299 55.4766 44.8957C55.2092 44.7615 54.901 44.7333 54.6137 44.8168C54.3565 44.8798 54.1058 44.9666 53.8648 45.0762L49.8931 46.8224C47.2448 47.9888 44.505 49.1959 41.8075 50.3725C41.4391 50.5286 41.0436 50.611 40.6435 50.6149C38.883 50.6302 37.0955 50.6285 35.3655 50.6268H33.5559C33.4497 50.6298 33.3433 50.627 33.2374 50.6183C32.9947 50.6183 32.762 50.5219 32.5904 50.3502C32.4188 50.1785 32.3224 49.9456 32.3224 49.7028C32.3224 49.46 32.4188 49.2272 32.5904 49.0555C32.762 48.8838 32.9947 48.7873 33.2374 48.7873C33.3311 48.7823 33.4249 48.7823 33.5186 48.7873H39.9217C39.9996 48.7873 40.0776 48.7873 40.1589 48.7789V48.0821C40.1589 46.6461 39.244 45.5577 37.8664 45.3695C35.8891 45.1016 33.9507 44.8473 31.9734 44.6914C29.6012 44.4981 27.6273 43.8691 25.9244 42.7671C25.1546 42.3026 24.3407 41.9153 23.4947 41.6109C22.2572 41.1427 20.9476 40.8942 19.6247 40.8768V41.2294C19.6247 41.6651 19.6247 42.0771 19.6247 42.4976C19.6335 42.6552 19.6108 42.8131 19.5578 42.9618C19.5049 43.1106 19.4228 43.2473 19.3163 43.3639C19.2324 43.4443 19.1328 43.5065 19.0238 43.5468C18.9148 43.587 18.7987 43.6044 18.6826 43.5979C18.1303 43.5843 17.788 43.1672 17.7863 42.5077C17.7863 41.9358 17.7863 41.3645 17.7863 40.7937C17.7863 40.2105 17.7863 39.6256 17.7863 39.0407C17.7863 38.5643 17.6779 38.4541 17.2187 38.4508C16.3105 38.4508 15.3701 38.4508 14.423 38.4508C13.9604 38.4508 13.8537 38.5626 13.8537 39.0373C13.8537 44.2511 13.8537 49.4649 13.8537 54.6787C13.8537 55.1534 13.9604 55.2619 14.423 55.2653C15.0431 55.2653 15.6616 55.2653 16.2868 55.2653H17.0035C17.7473 55.2653 17.7914 55.2212 17.7914 54.4956V46.0985C17.7914 46.068 17.7914 46.0358 17.7914 46.0036C17.7836 45.8857 17.7899 45.7673 17.81 45.6509C17.8387 45.436 17.9454 45.2391 18.1097 45.0978C18.2741 44.9565 18.4846 44.8806 18.7013 44.8846H18.6979Z" fill="white"/>
<path d="M33.4137 22.662C32.9054 22.172 32.5191 21.8008 32.1277 21.4396C31.7634 21.1006 31.5397 20.7259 31.7227 20.2207C31.9057 19.7155 32.3209 19.5714 32.8139 19.5425C34.6326 19.451 36.4501 19.3555 38.2664 19.256C38.7239 19.2323 39.1814 19.195 39.6406 19.1797C40.3658 19.1577 40.808 19.5663 40.7741 20.2817C40.664 22.6332 40.5352 24.9829 40.4064 27.3344C40.4059 27.5366 40.3419 27.7335 40.2232 27.8972C40.1046 28.0609 39.9375 28.1831 39.7456 28.2465C39.5655 28.3199 39.3669 28.3352 39.1777 28.2902C38.9884 28.2452 38.8179 28.1422 38.69 27.9956C38.2647 27.5667 37.8428 27.1242 37.4159 26.6698C37.2464 26.8292 37.1312 26.9377 37.0177 27.0496C35.4893 28.5765 33.9616 30.1023 32.4344 31.627C31.8075 32.2526 31.3008 32.256 30.6807 31.6389C29.8843 30.8477 29.0891 30.052 28.295 29.2518C27.7087 28.6585 27.7138 28.1617 28.3086 27.5565C29.8448 26.0171 31.3844 24.4794 32.9274 22.9434C33.0794 22.833 33.2423 22.7387 33.4137 22.662ZM33.4137 20.8632C33.7662 21.2023 34.0322 21.4498 34.288 21.7109C34.9353 22.3602 34.9319 22.8417 34.2796 23.4944C32.7546 25.0236 31.2297 26.5494 29.7047 28.0719C29.5929 28.1838 29.4878 28.3024 29.4269 28.3652L31.655 30.6047C31.7309 30.4926 31.8141 30.3855 31.904 30.2843C33.4086 28.7743 34.9144 27.2666 36.4213 25.7611C37.1702 25.0118 37.5972 25.0118 38.3545 25.7781C38.5799 26.0052 38.7849 26.2528 39.0001 26.4918L39.1204 26.4189C39.2255 24.4659 39.3305 22.5196 39.4356 20.5292L33.4137 20.8632Z" fill="white"/>
<path d="M31.5497 32.3578C31.2108 32.3578 30.8584 32.1882 30.5026 31.8237C29.7909 31.1219 28.9607 30.2911 28.1152 29.4435C27.4273 28.7484 27.4375 28.099 28.1288 27.3989C29.8452 25.6781 31.2871 24.2353 32.7476 22.7841C32.8202 22.7174 32.9011 22.6604 32.9882 22.6146L32.7849 22.4196C32.4833 22.1297 32.2207 21.8788 31.9547 21.6347C31.7666 21.4651 31.1956 20.9362 31.4836 20.1411C31.7717 19.3459 32.546 19.312 32.8002 19.2934C34.2686 19.2188 35.7371 19.1419 37.2056 19.0628L38.2476 19.0069L38.7424 18.978C39.0321 18.9594 39.3303 18.9407 39.6268 18.9306C39.8192 18.9146 40.0128 18.9391 40.1952 19.0025C40.3776 19.0658 40.5447 19.1666 40.6858 19.2985C40.809 19.4323 40.9028 19.5904 40.9612 19.7627C41.0195 19.935 41.0412 20.1176 41.0247 20.2987C40.918 22.5671 40.7943 24.8355 40.657 27.3531C40.6526 27.6043 40.571 27.848 40.4234 28.0512C40.2758 28.2544 40.0693 28.4073 39.8319 28.489C39.606 28.5798 39.3578 28.5989 39.1207 28.5437C38.8837 28.4885 38.6694 28.3617 38.5068 28.1804C38.2069 27.8787 37.9206 27.5769 37.6173 27.2582L37.4157 27.0259C37.3377 27.0988 37.2716 27.1632 37.2056 27.2276L35.4553 28.9789L32.6138 31.817C32.2495 32.1764 31.9005 32.3578 31.5497 32.3578ZM39.6963 19.4409H39.6472C39.3591 19.4409 39.0643 19.468 38.7796 19.4867L38.2713 19.5172L37.2293 19.5731C35.7608 19.6511 34.2924 19.728 32.8239 19.8037C32.3291 19.8291 32.0784 19.9732 31.9581 20.3123C31.8378 20.6514 31.9326 20.9243 32.2969 21.2583C32.5663 21.5058 32.829 21.7669 33.1441 22.05L33.5965 22.4823L33.8371 22.7129L33.5525 22.8824C33.4762 22.9282 33.4051 22.9672 33.3407 23.0011C33.2592 23.0393 33.1829 23.0877 33.1136 23.1452C31.6548 24.588 30.2044 26.0307 28.488 27.7481C27.9915 28.2482 27.9797 28.5822 28.4761 29.0756C29.3233 29.9233 30.1552 30.7608 30.8601 31.4626C31.3786 31.9712 31.7293 31.9712 32.2546 31.4508L35.0876 28.6178L36.8379 26.8665C36.9141 26.7902 36.9921 26.7173 37.087 26.6292L37.4258 26.3071L37.5953 26.4902L37.985 26.9004C38.2866 27.2158 38.5695 27.5158 38.8661 27.8142C38.9592 27.9259 39.0857 28.0046 39.227 28.0388C39.3682 28.0729 39.5167 28.0608 39.6506 28.0041C39.7962 27.9579 39.9231 27.866 40.0125 27.7421C40.1019 27.6181 40.1491 27.4686 40.147 27.3158C40.2859 24.7999 40.4096 22.5315 40.5147 20.2665C40.5285 20.1554 40.5186 20.0426 40.4856 19.9357C40.4526 19.8287 40.3973 19.73 40.3232 19.646C40.2374 19.5722 40.1378 19.516 40.0302 19.4808C39.9226 19.4456 39.8092 19.4321 39.6963 19.4409ZM31.6785 30.9998L29.0607 28.3669L29.2826 28.1245C29.3436 28.0584 29.4233 27.9719 29.5063 27.8888L31.4853 25.9256L34.093 23.3063C34.647 22.7502 34.6487 22.4315 34.1015 21.8822C33.932 21.7127 33.7626 21.5431 33.5542 21.3515L33.2305 21.0413L32.8086 20.6361L39.7031 20.2597L39.3642 26.5664L38.9474 26.8174L38.8068 26.6614L38.6017 26.4342C38.4611 26.2647 38.3154 26.107 38.1646 25.9561C37.8257 25.6171 37.5783 25.4475 37.3716 25.4475C37.1649 25.4475 36.9277 25.5967 36.5922 25.9324L35.723 26.8021C34.5109 28.025 33.2978 29.2445 32.0834 30.4607C32.0245 30.5224 31.9712 30.5894 31.9242 30.6607C31.9005 30.6963 31.8767 30.7285 31.8547 30.7574L31.6785 30.9998ZM29.7689 28.3567L31.6243 30.2216C31.6547 30.1824 31.6875 30.145 31.7225 30.1097C32.9369 28.8902 34.1529 27.6724 35.3705 26.4563L36.2381 25.5865C36.6837 25.1424 37.0243 24.9525 37.3784 24.9525C37.7359 24.9525 38.0799 25.1474 38.5323 25.6035C38.6543 25.7272 38.7729 25.8578 38.8864 25.9866L39.166 20.7972L34.0066 21.0803C34.176 21.2363 34.3166 21.377 34.4607 21.5228C35.2079 22.2704 35.2045 22.913 34.4607 23.6657L31.8361 26.285L29.8723 28.2567C29.8367 28.2855 29.8011 28.3211 29.7689 28.3567Z" fill="white"/>
<path d="M34.9991 39.2934C31.7395 39.2969 28.5886 38.1203 26.1283 35.9807C23.668 33.8412 22.0643 30.8833 21.6135 27.6531C21.0679 23.6927 22.1218 20.146 24.6634 17.052C25.0023 16.6401 25.3683 16.5739 25.6953 16.8418C26.0223 17.1097 26.0138 17.4826 25.6953 17.898C25.6597 17.9455 25.6224 17.9912 25.5852 18.037C24.6871 19.1234 23.9884 20.3604 23.5214 21.6905C20.9798 28.872 25.5801 36.6469 33.0997 37.8082C34.6742 38.0739 36.2859 38.02 37.8391 37.6499C39.3923 37.2797 40.8553 36.6008 42.141 35.6535C42.6967 35.255 43.0746 35.2347 43.3406 35.5958C43.6066 35.9569 43.4693 36.3384 42.9305 36.7266C40.6293 38.4093 37.8493 39.3089 34.9991 39.2934Z" fill="white"/>
<path d="M34.9997 39.5477C31.6763 39.5348 28.4672 38.332 25.9534 36.157C23.4479 33.9812 21.8179 30.9687 21.3667 27.6802C20.8109 23.6961 21.858 20.063 24.4657 16.8978C24.891 16.3807 25.4112 16.2891 25.8568 16.6536C26.3024 17.0181 26.299 17.5352 25.8873 18.0642C25.85 18.1116 25.8127 18.1608 25.7738 18.2066C24.8968 19.2714 24.2137 20.4822 23.7557 21.7838C23.17 23.4355 22.9549 25.196 23.1258 26.9403C23.2967 28.6845 23.8494 30.3698 24.7446 31.8762C25.6398 33.3827 26.8556 34.6734 28.3055 35.6567C29.7555 36.64 31.4041 37.2918 33.1341 37.5658C34.677 37.8243 36.256 37.7699 37.7774 37.4059C39.2988 37.0418 40.7316 36.3756 41.9907 35.4466C42.6684 34.9634 43.1886 34.9634 43.5444 35.4466C43.6142 35.5356 43.6652 35.6378 43.6943 35.7471C43.7234 35.8564 43.7301 35.9705 43.7139 36.0824C43.6681 36.3757 43.4529 36.6622 43.0768 36.9301C40.7327 38.6402 37.904 39.5566 35.003 39.546L34.9997 39.5477ZM25.2925 16.935C25.179 16.935 25.0333 16.9978 24.8571 17.2131C22.3443 20.2647 21.3396 23.7724 21.8699 27.6175C22.3042 30.7831 23.8735 33.683 26.2855 35.7772C28.7076 37.8711 31.7988 39.0281 34.9997 39.0391C37.7945 39.049 40.5196 38.1664 42.7786 36.5198C43.1039 36.2841 43.1937 36.1078 43.2089 36.0027C43.2153 35.9569 43.2116 35.9103 43.1981 35.8661C43.1847 35.8219 43.1617 35.7812 43.131 35.7467C43.0429 35.6263 42.8938 35.4246 42.2838 35.8603C40.9713 36.8266 39.4783 37.5196 37.8933 37.8982C36.3083 38.2768 34.6634 38.3332 33.0562 38.0642C31.252 37.7784 29.5329 37.0986 28.0209 36.0731C26.5088 35.0476 25.2411 33.7015 24.3075 32.1305C23.374 30.5595 22.7977 28.8021 22.6194 26.9832C22.4412 25.1642 22.6654 23.3282 23.2762 21.6058C23.7554 20.2483 24.4694 18.9858 25.3857 17.876L25.4874 17.7454C25.8398 17.2945 25.6179 17.1114 25.5331 17.0419C25.4682 16.9787 25.3829 16.9408 25.2925 16.935Z" fill="white"/>
<path d="M48.5647 25.7661C48.5418 28.7419 47.5489 31.6289 45.7368 33.9886C45.6695 34.0857 45.5935 34.1765 45.5097 34.2599C45.4028 34.3764 45.2551 34.4471 45.0973 34.4576C44.9396 34.468 44.7839 34.4172 44.6626 34.3158C44.5257 34.2223 44.4312 34.0785 44.3995 33.9157C44.3678 33.753 44.4014 33.5842 44.4931 33.4461C44.555 33.3442 44.6246 33.2473 44.7015 33.1562C50.3438 25.6966 45.8706 14.9142 36.6024 13.6766C33.5966 13.2765 30.8076 13.936 28.266 15.6008C27.6933 15.9755 27.3155 15.9873 27.0579 15.6279C26.7834 15.2414 26.9292 14.8904 27.5273 14.4886C35.6179 9.06352 46.8093 13.9427 48.3292 23.5622C48.4461 24.2912 48.4885 25.0354 48.5647 25.7661Z" fill="white"/>
<path d="M45.049 34.7159C44.8512 34.7119 44.6604 34.6421 44.5068 34.5176C44.3224 34.3882 44.1948 34.1928 44.1503 33.972C44.1058 33.7511 44.1479 33.5215 44.2679 33.3308C44.3197 33.2365 44.3804 33.1474 44.4492 33.0646L44.4949 33.0053C45.7594 31.3405 46.5652 29.3729 46.8318 27.2989C47.0984 25.225 46.8165 23.1174 46.0143 21.1866C45.212 19.2558 43.9175 17.5694 42.2599 16.2959C40.6024 15.0224 38.64 14.2063 36.5686 13.9292C33.7087 13.5274 30.8013 14.1989 28.4068 15.8144C27.7155 16.2671 27.1936 16.2535 26.853 15.7754C26.7816 15.685 26.7297 15.5808 26.7005 15.4694C26.6714 15.3579 26.6656 15.2416 26.6836 15.1278C26.7361 14.8328 26.9598 14.5632 27.3867 14.2801C29.3039 13.0148 31.5065 12.2486 33.7946 12.051C36.0827 11.8534 38.3839 12.2308 40.4894 13.1488C42.5948 14.0668 44.4377 15.4964 45.8509 17.3078C47.2641 19.1192 48.2028 21.255 48.5818 23.5215C48.6614 24.0301 48.7071 24.5387 48.7512 25.0473C48.7732 25.2796 48.7936 25.5135 48.8173 25.7458V25.7763C48.7876 28.8052 47.7769 31.7427 45.9368 34.148L45.9012 34.1954C45.8351 34.2888 45.7602 34.3756 45.6776 34.4548C45.5076 34.6168 45.2836 34.7098 45.049 34.7159ZM34.9183 13.3104C35.4929 13.3104 36.0669 13.3489 36.6364 13.4257C38.7951 13.7151 40.8401 14.566 42.5674 15.8934C44.2948 17.2208 45.6439 18.9783 46.4802 20.9905C47.3164 23.0027 47.6106 25.1992 47.3333 27.3607C47.056 29.5222 46.2169 31.5731 44.8999 33.3088L44.8507 33.3732C44.8005 33.433 44.7558 33.4971 44.7169 33.5648C44.5593 33.8631 44.6881 34.014 44.8168 34.1141C44.9456 34.2141 45.1015 34.2836 45.3404 34.07C45.3981 34.0135 45.4503 33.9516 45.4963 33.8852L45.5353 33.8343C47.3065 31.5191 48.2803 28.6919 48.3107 25.7763C48.2869 25.5474 48.2666 25.3169 48.2463 25.0863C48.2022 24.5963 48.1565 24.0894 48.0768 23.6012C47.7117 21.4192 46.8081 19.363 45.4478 17.6189C44.0876 15.8747 42.3137 14.4979 40.2871 13.6133C38.2605 12.7287 36.0453 12.3641 33.8423 12.5528C31.6393 12.7415 29.5182 13.4774 27.6714 14.6938C27.302 14.9413 27.2038 15.1142 27.1851 15.2143C27.1792 15.2611 27.1833 15.3086 27.1974 15.3537C27.2114 15.3987 27.235 15.4402 27.2664 15.4753C27.3529 15.5957 27.4969 15.7975 28.1272 15.3838C30.1354 14.0342 32.4992 13.3125 34.9183 13.3104Z" fill="white"/>
</svg>
