<svg width="70" height="70" viewBox="0 0 70 70" fill="none" xmlns="http://www.w3.org/2000/svg">
<rect width="70" height="70" fill="#6F63DE"/>
<path d="M58.9982 46.3963C58.6052 47.4522 57.8931 48.0746 56.6963 48.0642C56.6152 48.0642 56.506 48.1855 56.4549 48.274C56.3738 48.4213 56.3509 48.5999 56.268 48.7438C55.9296 49.3298 55.8186 49.8066 56.3667 50.4273C56.9484 51.0844 56.7721 52.1403 56.1623 52.8043C55.7157 53.2982 55.2402 53.7659 54.7381 54.2052C53.8427 54.9836 52.72 54.8605 51.6272 53.8966C51.0984 54.0994 50.5696 54.2953 50.0409 54.5242C49.958 54.5606 49.9069 54.7409 49.8981 54.8588C49.81 56.2059 48.9657 56.9948 47.5944 57C47.1097 57 46.625 57 46.1403 57C44.9065 56.9896 44.0252 56.2042 43.9565 54.994C43.9353 54.6473 43.8331 54.4496 43.4788 54.4028C43.4479 54.3972 43.4185 54.3854 43.3925 54.3681C42.7227 54.0093 42.1587 53.8255 41.429 54.4531C40.8015 54.9975 39.7492 54.7773 39.0989 54.1965C38.6107 53.7654 38.1454 53.31 37.7047 52.832C37.3397 52.4529 37.1388 51.949 37.1444 51.4269C37.15 50.9048 37.3616 50.4053 37.7346 50.0337C37.9708 49.7875 38.0096 49.6072 37.8333 49.3264C37.6974 49.1198 37.599 48.8916 37.5425 48.6519C37.4385 48.1595 37.1741 48.033 36.6612 48.0399C34.2712 48.0694 31.8811 48.0555 29.4911 48.0503C28.853 48.0503 28.4529 47.7226 28.4159 47.1956C28.3754 46.6061 28.7684 46.2056 29.4347 46.2021C31.058 46.2021 32.6831 46.2021 34.3082 46.2021H34.8264C34.8264 45.6126 34.8264 45.0648 34.8264 44.5169C34.8264 43.1108 35.5825 42.3237 36.9996 42.1989C37.1406 42.185 37.2816 42.0359 37.3997 41.9267C37.4597 41.8694 37.4579 41.7533 37.4984 41.6718C37.8316 41.0268 38.036 40.4772 37.4138 39.7803C36.8445 39.144 37.0613 38.0933 37.6571 37.4466C38.1012 36.9716 38.5648 36.5121 39.0495 36.0787C39.4376 35.7233 39.9503 35.5292 40.4804 35.537C41.0105 35.5447 41.5171 35.7537 41.8943 36.1203C42.1305 36.3335 42.2944 36.3665 42.5799 36.2174C42.9906 36.0041 43.4348 35.8533 43.8578 35.6799C43.879 35.3724 43.9244 35.0669 43.9935 34.7662C44.2544 33.9288 44.8307 33.3792 45.7261 33.2977C46.4412 33.2344 47.1602 33.2275 47.8764 33.2769C48.3821 33.2939 48.8627 33.498 49.2221 33.8483C49.5816 34.1986 49.7934 34.6695 49.8153 35.1667C49.8452 35.5689 49.9721 35.7891 50.374 35.8516C50.4509 35.8649 50.5244 35.8926 50.5908 35.933C51.1848 36.2798 51.7047 36.4081 52.3005 35.8307C52.5807 35.5603 53.1307 35.5585 53.6224 35.4164V26.1893H12.9071C12.9071 26.3523 12.8859 26.5152 12.8859 26.6765C12.8859 32.0558 12.8859 37.4345 12.8859 42.8126C12.855 43.6165 13.0799 44.4099 13.5293 45.0821C13.7548 45.4351 14.0699 45.7241 14.4436 45.9208C14.8173 46.1175 15.2366 46.2151 15.6602 46.2039C17.4105 46.1917 19.1607 46.2039 20.9109 46.2039C21.5014 46.2039 21.8927 46.5506 21.9209 47.0707C21.9491 47.5545 21.6071 48.0278 21.1066 48.0312C19.0303 48.0451 16.9434 48.1387 14.8794 47.9671C12.9406 47.8059 11.4248 46.0842 11.1005 44.0366C11.0403 43.6581 11.009 43.2756 11.0071 42.8924C11.0024 34.3183 11 25.7431 11 17.1668C11 15.485 11.5499 14.0321 12.8859 12.9277C13.6055 12.3211 14.5241 11.9916 15.4716 12.0002C27.3396 12.0002 39.2122 12.0002 51.0896 12.0002C53.1641 12.0002 54.9479 13.5449 55.4167 15.7347C55.5278 16.2926 55.5809 16.8601 55.5753 17.4286C55.5859 23.7429 55.5753 30.059 55.5894 36.3751C55.584 36.612 55.6591 36.8438 55.8027 37.034C56.9801 38.3048 57.0065 39.1908 55.8538 40.5015C56.0565 41.0043 56.2557 41.5158 56.4742 42.0185C56.497 42.0634 56.53 42.1024 56.5706 42.1325C56.6113 42.1626 56.6586 42.1829 56.7087 42.1919C57.8843 42.1711 58.5805 42.797 59 43.8113L58.9982 46.3963ZM53.6806 24.2613C53.6806 23.7187 53.6806 23.2211 53.6806 22.7391C53.6806 20.7262 53.7123 18.7116 53.6506 16.6987C53.5977 14.9233 52.3974 13.8518 50.6049 13.8518H34.6695C28.356 13.8518 22.0437 13.8518 15.7325 13.8518C14.6415 13.8518 13.8377 14.3113 13.3848 15.2388C13.0976 15.8153 12.9349 16.444 12.9071 17.0853C12.8507 19.3583 12.8842 21.6347 12.8859 23.9077C12.8859 24.0255 12.9071 24.1434 12.9194 24.2735L53.6806 24.2613ZM40.4349 37.3565C40.1881 37.594 39.9678 37.8055 39.7492 38.0188C38.9561 38.7972 38.9561 38.7972 39.7387 39.5947C40.2339 40.101 40.2428 40.3905 39.9237 41.039C39.5864 41.7109 39.2921 42.4028 39.0425 43.1108C38.7922 43.8459 38.5648 44.0679 37.7822 44.0748C36.7441 44.0835 36.7441 44.0835 36.7441 45.1029C36.7441 46.1917 36.7441 46.1917 37.8668 46.2004C38.5718 46.2004 38.8027 46.424 39.0336 47.0898C39.2822 47.8128 39.5766 48.5199 39.9149 49.2067C40.2516 49.8777 40.2428 50.1776 39.6981 50.7168C38.9578 51.4502 38.9578 51.4502 39.7175 52.1975C40.4772 52.9447 40.4772 52.9447 41.2545 52.1975C41.7832 51.6773 42.0758 51.6773 42.7562 52.0085C43.4226 52.3376 44.1117 52.6203 44.8184 52.8546C45.6538 53.1268 45.8371 53.3158 45.8407 54.2017C45.8407 55.2714 45.7314 55.1553 46.8277 55.1501C48.1778 55.1501 47.9928 55.3235 48.0086 54.0145C48.0086 53.3435 48.229 53.125 48.8899 52.8979C49.6388 52.6428 50.3721 52.3452 51.0861 52.0068C51.7664 51.6791 52.0484 51.6791 52.586 52.1975C53.3686 52.9517 53.3686 52.9517 54.1265 52.1975C54.8844 51.4433 54.8844 51.4485 54.1159 50.6804C53.5872 50.1603 53.5872 49.8725 53.9291 49.2033C54.2635 48.5474 54.5515 47.8696 54.791 47.1748C55.066 46.3703 55.244 46.2004 56.1235 46.1987C57.2163 46.1987 57.1123 46.2888 57.1123 45.2416C57.1123 44.1008 57.1123 44.1008 55.979 44.0731C55.3127 44.0557 55.0624 43.8251 54.8403 43.2062C54.5906 42.4824 54.2963 41.7743 53.9591 41.0858C53.5854 40.3437 53.5889 40.0906 54.1759 39.4994C54.999 38.6724 54.9937 38.9116 54.167 38.0864C53.3845 37.3044 53.3792 37.3079 52.5631 38.0864C52.0714 38.5528 51.7435 38.5614 51.1337 38.2754C50.4061 37.9259 49.6587 37.618 48.8952 37.353C48.2078 37.1207 47.9769 36.8866 47.9663 36.1671C47.9522 35.1268 47.9522 35.1268 46.8965 35.1268C45.8089 35.1268 45.8089 35.1268 45.8001 36.1966C45.8001 36.9195 45.5833 37.1519 44.873 37.3686C44.3008 37.5184 43.747 37.7295 43.2215 37.9979C41.7991 38.8024 41.7075 38.5528 40.7909 37.6391C40.678 37.5381 40.5591 37.4437 40.4349 37.3565Z" fill="white"/>
<path d="M32.151 36.1707L30.0448 33.8457C29.9476 33.7461 29.8575 33.6401 29.7751 33.5284C29.6446 33.343 29.5879 33.117 29.6159 32.8932C29.6438 32.6694 29.7544 32.4635 29.9267 32.3148C30.0914 32.1559 30.3129 32.067 30.5436 32.067C30.7742 32.067 30.9957 32.1559 31.1605 32.3148C32.1246 33.3377 33.0729 34.3779 33.9806 35.4355C34.1635 35.6528 34.259 35.9285 34.2489 36.2104C34.2388 36.4922 34.1239 36.7607 33.9259 36.9647C33.0517 37.9634 32.161 38.9493 31.2539 39.9225C31.1773 40.0284 31.079 40.1172 30.9652 40.1831C30.8514 40.2491 30.7248 40.2907 30.5936 40.3053C30.4624 40.3198 30.3295 40.307 30.2036 40.2676C30.0778 40.2283 29.9618 40.1633 29.8632 40.0768C29.7646 39.9904 29.6857 39.8845 29.6315 39.766C29.5773 39.6476 29.5492 39.5192 29.5488 39.3893C29.5485 39.2594 29.576 39.1309 29.6296 39.0122C29.6831 38.8934 29.7615 38.7871 29.8597 38.7002C30.429 38.0483 31.0195 37.4155 31.5993 36.774C31.7774 36.5816 31.9483 36.3874 32.151 36.1707Z" fill="white"/>
<path d="M18.4399 36.1707C19.1643 36.9717 19.864 37.7311 20.555 38.5095C20.7181 38.6727 20.8458 38.8667 20.9304 39.0799C20.9983 39.2719 20.9954 39.4813 20.9223 39.6715C20.8492 39.8616 20.7104 40.0205 20.5303 40.1202C20.3426 40.2347 20.1198 40.2801 19.9014 40.2483C19.683 40.2166 19.483 40.1098 19.337 39.9468C18.7836 39.3625 18.2513 38.7592 17.7102 38.1628C17.3788 37.7952 17.0404 37.4329 16.7179 37.0566C16.2296 36.488 16.2173 35.8569 16.7055 35.3038C17.5563 34.341 18.4181 33.388 19.2912 32.4448C19.6931 32.0079 20.2641 31.9698 20.6642 32.3217C21.0644 32.6737 21.0873 33.2389 20.6942 33.681C19.961 34.5011 19.2189 35.3107 18.4399 36.1707Z" fill="white"/>
<path d="M27.2156 32.2592C26.9776 33.2526 26.7661 34.149 26.5493 35.0436C26.1492 36.7011 25.7544 38.3586 25.3332 40.0109C25.2633 40.29 25.1205 40.5464 24.919 40.7546C24.6246 41.039 24.2298 41.0338 23.8773 40.8188C23.7037 40.7252 23.5671 40.5767 23.4898 40.3974C23.4124 40.2182 23.3986 40.0185 23.4507 39.8305C23.7786 38.4435 24.1111 37.0565 24.4484 35.6695C24.7286 34.5044 25.0018 33.3393 25.3032 32.1794C25.4988 31.4183 26.3131 31.1253 26.8472 31.6281C27.0235 31.798 27.1063 32.0789 27.2156 32.2592Z" fill="white"/>
<path d="M25.1693 46.2022C25.2942 46.197 25.4188 46.2168 25.5357 46.2603C25.6526 46.3039 25.7593 46.3703 25.8494 46.4555C25.9395 46.5407 26.0112 46.643 26.06 46.7562C26.1088 46.8694 26.1337 46.9912 26.1334 47.1141C26.1351 47.2374 26.1116 47.3597 26.0645 47.4739C26.0174 47.5881 25.9475 47.6919 25.8589 47.7791C25.7704 47.8664 25.665 47.9353 25.549 47.9819C25.433 48.0285 25.3087 48.0517 25.1834 48.0503C24.9392 48.0455 24.7059 47.9505 24.5298 47.784C24.3538 47.6176 24.2479 47.392 24.2334 47.1523C24.2308 47.0293 24.253 46.907 24.2988 46.7925C24.3445 46.678 24.4129 46.5736 24.4999 46.4852C24.5869 46.3969 24.6909 46.3264 24.8058 46.2778C24.9207 46.2292 25.0442 46.2035 25.1693 46.2022Z" fill="white"/>
<path d="M43.2938 22.2295C41.8731 22.2295 40.4508 22.252 39.0301 22.2295C38.1887 22.2101 37.3895 21.8628 36.8084 21.2639C36.2273 20.665 35.9119 19.8635 35.9315 19.0359C35.9512 18.2082 36.3042 17.4221 36.9131 16.8505C37.522 16.2789 38.3367 15.9686 39.1782 15.9879C41.926 15.9879 44.6756 15.9723 47.4235 15.9879C49.2795 16 50.6648 17.3593 50.6631 19.1087C50.6613 20.8581 49.2706 22.2017 47.4182 22.2295H43.2938ZM43.3061 20.3778C44.6175 20.3778 45.9288 20.3778 47.2402 20.3778C47.4584 20.3807 47.676 20.3545 47.887 20.2998C48.157 20.2178 48.3911 20.049 48.5517 19.8204C48.7124 19.5919 48.7904 19.3168 48.7731 19.0395C48.7558 18.7621 48.6443 18.4985 48.4565 18.291C48.2686 18.0834 48.0153 17.944 47.7372 17.895C47.5365 17.8664 47.3337 17.8542 47.1309 17.8586H39.4954C39.2927 17.8527 39.0898 17.8643 38.8891 17.8933C38.6555 17.9251 38.4368 18.0245 38.2607 18.1789C38.0847 18.3332 37.9592 18.5356 37.9003 18.7602C37.6412 19.6063 38.2528 20.3639 39.2311 20.3743C40.5882 20.3865 41.9472 20.3743 43.3061 20.3761V20.3778Z" fill="white"/>
<path d="M31.1587 19.126C31.1552 19.7424 30.9662 20.344 30.6156 20.8549C30.2649 21.3657 29.7683 21.763 29.1884 21.9966C28.6085 22.2302 27.9712 22.2897 27.357 22.1674C26.7428 22.0452 26.1791 21.7468 25.7371 21.3099C25.2951 20.8729 24.9946 20.317 24.8734 19.7122C24.7522 19.1074 24.8158 18.4809 25.0561 17.9116C25.2965 17.3423 25.7029 16.8558 26.224 16.5135C26.7451 16.1711 27.3576 15.9882 27.9843 15.9879C28.4026 15.9876 28.8167 16.0688 29.203 16.2266C29.5893 16.3844 29.94 16.6158 30.2351 16.9074C30.5301 17.1991 30.7636 17.5452 30.9221 17.926C31.0806 18.3067 31.161 18.7145 31.1587 19.126ZM26.7241 19.093C26.7213 19.2586 26.7518 19.4231 26.8139 19.577C26.876 19.7309 26.9684 19.8712 27.0859 19.9898C27.2034 20.1084 27.3435 20.203 27.4983 20.2681C27.6531 20.3332 27.8195 20.3675 27.9878 20.3691C28.3275 20.3646 28.6519 20.2297 28.8919 19.9933C29.132 19.7569 29.2686 19.4376 29.2727 19.1034C29.2678 18.7772 29.1348 18.4654 28.9016 18.2334C28.6684 18.0014 28.3529 17.8671 28.0213 17.8586C27.8532 17.8537 27.6857 17.882 27.5289 17.9418C27.372 18.0016 27.2289 18.0917 27.108 18.2067C26.9871 18.3218 26.8909 18.4595 26.8249 18.6117C26.759 18.7639 26.7247 18.9276 26.7241 19.093Z" fill="white"/>
<path d="M22.9347 19.1086C22.9326 19.7229 22.7456 20.3228 22.3974 20.8327C22.0491 21.3426 21.5552 21.7397 20.9778 21.9738C20.4005 22.2079 19.7656 22.2687 19.1532 22.1483C18.5408 22.028 17.9783 21.7319 17.5367 21.2976C17.0952 20.8632 16.7942 20.31 16.6719 19.7076C16.5495 19.1052 16.6113 18.4807 16.8493 17.9127C17.0873 17.3448 17.4909 16.8589 18.0093 16.5164C18.5277 16.1738 19.1376 15.9899 19.762 15.9879C20.6035 15.9879 21.4105 16.3167 22.0054 16.9019C22.6004 17.4872 22.9347 18.281 22.9347 19.1086ZM18.4983 19.1208C18.5053 19.4532 18.6463 19.7693 18.8902 19.9995C19.1342 20.2297 19.4611 20.3552 19.7991 20.3483C20.137 20.3414 20.4584 20.2027 20.6924 19.9627C20.9264 19.7228 21.054 19.4012 21.047 19.0688C21.0296 18.7435 20.8841 18.4376 20.6412 18.2162C20.3983 17.9948 20.0772 17.8752 19.7462 17.8829C19.4151 17.8905 19.1001 18.0249 18.8681 18.2573C18.6361 18.4897 18.5053 18.802 18.5036 19.1277L18.4983 19.1208Z" fill="white"/>
<path d="M46.9285 39.4578C48.0698 39.4588 49.1851 39.7927 50.1334 40.4172C51.0818 41.0417 51.8206 41.9288 52.2565 42.9663C52.6923 44.0038 52.8056 45.1451 52.5821 46.246C52.3585 47.3468 51.8082 48.3578 51.0006 49.151C50.193 49.9442 49.1644 50.484 48.0449 50.7022C46.9254 50.9204 45.7653 50.8072 44.7112 50.3769C43.6572 49.9466 42.7565 49.2185 42.123 48.2847C41.4896 47.3509 41.1519 46.2533 41.1526 45.1307C41.1582 43.6263 41.7688 42.1853 42.851 41.1223C43.9333 40.0594 45.3992 39.461 46.9285 39.4578ZM43.0509 45.1324C43.0509 45.8876 43.2788 46.6258 43.7057 47.2535C44.1327 47.8811 44.7394 48.37 45.4491 48.6581C46.1588 48.9462 46.9395 49.0207 47.6922 48.8719C48.4449 48.7232 49.1358 48.358 49.6773 47.8227C50.2188 47.2873 50.5866 46.6059 50.734 45.8648C50.8814 45.1236 50.8019 44.3561 50.5054 43.6595C50.2089 42.9628 49.7089 42.3685 49.0687 41.9516C48.4285 41.5348 47.6769 41.3143 46.9091 41.3181C45.8835 41.3222 44.9012 41.7259 44.1775 42.4408C43.4537 43.1557 43.0473 44.1235 43.0473 45.1324H43.0509Z" fill="white"/>
</svg>
