<svg width="70" height="70" viewBox="0 0 70 70" fill="none" xmlns="http://www.w3.org/2000/svg">
<rect width="70" height="70" fill="#272D3D"/>
<path d="M33.9734 11.0903C34.7808 11.2414 35.6011 11.3446 36.3938 11.5528C44.7903 13.7511 50.1232 19.0562 52.0624 27.5104C53.4283 33.4936 52.09 39.0474 48.5213 44.0485C48.4475 44.1498 48.3775 44.2512 48.2743 44.3949C48.4033 44.4981 48.5268 44.605 48.6558 44.7026C51.5223 46.8954 54.3979 49.079 57.2552 51.2828C57.725 51.6535 58.111 52.1193 58.3878 52.6497C58.6646 53.1802 58.826 53.7632 58.8612 54.3604C58.8964 54.9577 58.8048 55.5556 58.5922 56.1149C58.3797 56.6742 58.0511 57.1821 57.6281 57.6054C57.2051 58.0286 56.6973 58.3575 56.138 58.5705C55.5787 58.7835 54.9806 58.8756 54.3831 58.841C53.7856 58.8063 53.2023 58.6456 52.6714 58.3694C52.1405 58.0932 51.6741 57.7077 51.3029 57.2384C49.5609 55.0272 47.8761 52.7699 46.1655 50.5329L44.464 48.3088C43.4022 48.95 42.3995 49.6318 41.3303 50.1938C29.1327 56.6045 13.9268 49.2393 11.3922 35.7067C11.2834 35.1373 11.1912 34.5495 11.0898 33.969V29.5816C11.182 29.0656 11.2557 28.5442 11.3682 28.0337C13.2411 19.4874 18.3877 14.0208 26.8082 11.6339C27.7133 11.3796 28.6516 11.2653 29.5844 11.0811L33.9734 11.0903ZM31.7964 50.942C42.1764 51.0322 50.855 42.4546 50.9453 32.0139C51.0375 21.4646 42.5598 12.7837 32.0655 12.6824C21.4588 12.5773 12.7728 21.0555 12.6825 31.6012C12.6592 34.1279 13.1359 36.6342 14.0853 38.976C15.0347 41.3178 16.438 43.4488 18.2145 45.2463C19.991 47.0439 22.1055 48.4725 24.4364 49.45C26.7674 50.4275 29.2687 50.9345 31.7964 50.942ZM45.6917 47.299L46.2097 47.9789C48.3062 50.7196 50.404 53.4597 52.503 56.1991C53.4707 57.4577 55.0984 57.6733 56.304 56.7353C56.6248 56.4859 56.8836 56.1657 57.0603 55.7999C57.237 55.434 57.3268 55.0323 57.3227 54.626C57.3186 54.2198 57.2207 53.82 57.0366 53.4577C56.8526 53.0955 56.5873 52.7807 56.2616 52.5377C54.5307 51.1907 52.7795 49.8714 51.0375 48.5391L47.2973 45.6829L45.6917 47.299Z" fill="white"/>
<path d="M54.6657 59C53.9997 58.9986 53.343 58.8441 52.7463 58.5485C52.1495 58.253 51.6287 57.8243 51.2241 57.2955C50.0131 55.7606 48.8112 54.1759 47.648 52.6446C47.1282 51.9591 46.6071 51.2743 46.0848 50.59L44.4258 48.4304C44.1124 48.6147 43.8046 48.8155 43.5041 49.0071C42.8129 49.442 42.0976 49.8916 41.3677 50.2749C35.5334 53.343 28.7295 53.4296 22.7017 50.5145C16.6739 47.5993 12.5152 42.2058 11.3023 35.7251C11.2286 35.3271 11.1604 34.9291 11.0922 34.5292C11.0608 34.3449 11.0313 34.1607 11 33.9764V29.5724C11.0295 29.3881 11.0571 29.2296 11.0848 29.0656C11.1419 28.7174 11.2028 28.3562 11.2802 28.0043C13.1531 19.4542 18.3716 13.917 26.7829 11.551C27.4093 11.3879 28.0437 11.2569 28.6834 11.1585C28.9784 11.1069 29.2733 11.0571 29.5664 11H33.9905C34.2449 11.0479 34.5029 11.0903 34.7592 11.1345C35.3122 11.2248 35.8652 11.3188 36.4182 11.4625C44.9327 13.6922 50.225 19.0838 52.144 27.4938C53.4804 33.337 52.2841 38.9277 48.5881 44.1056L48.3927 44.382L48.448 44.4262C48.5328 44.4963 48.6176 44.5663 48.7043 44.6345L51.4066 46.6983C53.3422 48.1724 55.3441 49.7018 57.3054 51.2128C58.0002 51.7481 58.5169 52.4809 58.7876 53.315C59.0583 54.149 59.0705 55.0454 58.8226 55.8866C58.5746 56.7277 58.078 57.4742 57.398 58.0282C56.718 58.5821 55.8864 58.9177 55.0123 58.9908C54.8961 58.9963 54.7818 59 54.6657 59ZM44.4793 48.1872L46.2323 50.4776C46.7546 51.1606 47.2756 51.8455 47.7955 52.5322C48.9568 54.0635 50.1587 55.6482 51.3698 57.1813C51.7912 57.733 52.3442 58.1704 52.9782 58.4537C53.6122 58.7369 54.307 58.857 54.9994 58.8028C55.8365 58.7324 56.6328 58.4107 57.2838 57.8798C57.9347 57.3489 58.4099 56.6337 58.6469 55.828C58.8839 55.0223 58.8718 54.1638 58.612 53.3652C58.3522 52.5666 57.8569 51.8651 57.1911 51.3529C55.2316 49.8419 53.2297 48.3161 51.2923 46.8383L48.5881 44.7745C48.4996 44.7063 48.413 44.6345 48.3264 44.5626L48.142 44.4097L48.437 43.9932C52.0997 38.8595 53.2869 33.3204 51.9633 27.5288C50.061 19.1981 44.8148 13.8525 36.3721 11.6413C35.8339 11.5012 35.2661 11.4072 34.7315 11.3151C34.4753 11.2727 34.2209 11.2303 33.9665 11.1824H29.5848C29.3083 11.2377 29.0116 11.2893 28.7148 11.3409C28.0811 11.4404 27.453 11.572 26.8327 11.7352C18.4914 14.0736 13.3171 19.5666 11.459 28.0522C11.3816 28.4004 11.3226 28.7598 11.2747 29.1062C11.247 29.2702 11.2194 29.4342 11.1899 29.5963V33.9709C11.2194 34.1349 11.2507 34.3173 11.282 34.4997C11.3484 34.8959 11.4166 35.2939 11.4903 35.6901C12.6941 42.1137 16.8121 47.4556 22.7883 50.3486C28.7645 53.2416 35.5076 53.1513 41.2902 50.1109C42.0128 49.7313 42.693 49.3038 43.4138 48.8524C43.7438 48.6441 44.0774 48.4341 44.4166 48.2295L44.4793 48.1872ZM54.6639 57.4006C54.5529 57.4011 54.4421 57.3944 54.3321 57.3803C53.9557 57.3273 53.5937 57.1999 53.2671 57.0057C52.9405 56.8114 52.6559 56.5542 52.4297 56.2489C50.9255 54.2956 49.4047 52.3019 47.9319 50.3744C47.3346 49.5894 46.7362 48.8057 46.1364 48.0232L45.7512 47.5146L45.5668 47.2787L47.2867 45.5558L51.0896 48.4617L52.6638 49.6613C53.8638 50.5826 55.1044 51.5169 56.3155 52.4603C56.656 52.7199 56.932 53.0544 57.1222 53.4379C57.3124 53.8214 57.4117 54.2435 57.4123 54.6715C57.412 55.0852 57.3166 55.4933 57.1335 55.8642C56.9503 56.2351 56.6843 56.559 56.3561 56.8109C55.8739 57.1918 55.2784 57.4012 54.6639 57.4061V57.4006ZM45.8157 47.2953L45.8968 47.404C46.0222 47.5662 46.1512 47.7394 46.2839 47.9107L48.0794 50.262C49.5541 52.1895 51.0711 54.1832 52.5753 56.1365C52.7867 56.4224 53.0528 56.6634 53.3582 56.8456C53.6636 57.0279 54.0021 57.1476 54.3542 57.1979C54.6898 57.238 55.03 57.2109 55.3551 57.1182C55.6801 57.0256 55.9834 56.8691 56.2473 56.658C56.5524 56.4237 56.7998 56.1227 56.9704 55.7781C57.1411 55.4334 57.2304 55.0543 57.2317 54.6697C57.2301 54.2709 57.1366 53.8777 56.9585 53.5208C56.7805 53.1639 56.5226 52.8527 56.2049 52.6114C54.9957 51.6698 53.7551 50.7245 52.5569 49.8124L50.9808 48.6128L47.3125 45.8046L45.8157 47.2953ZM31.9609 51.0286H31.7969C29.2526 51.0179 26.7354 50.5048 24.3901 49.5189C22.0447 48.5329 19.9173 47.0934 18.1301 45.2831C15.4698 42.5812 13.6684 39.153 12.9527 35.43C12.237 31.707 12.639 27.8556 14.108 24.3605C15.5771 20.8653 18.0477 17.8827 21.2087 15.788C24.3697 13.6932 28.0799 12.58 31.8725 12.5884H32.0679C42.6211 12.6897 51.1301 21.4056 51.038 32.0139C51.0155 34.5278 50.4966 37.0125 49.5109 39.3254C48.5252 41.6382 47.0921 43.7336 45.294 45.4913C41.7605 49.0327 36.9646 51.0264 31.9609 51.0341V51.0286ZM31.7969 50.8443H31.9609C36.916 50.8375 41.6656 48.8636 45.165 45.3568C46.946 43.6161 48.3655 41.5407 49.3417 39.25C50.3179 36.9593 50.8318 34.4983 50.8536 32.0084C50.9458 21.5014 42.5198 12.8758 32.066 12.7745H31.8725C26.8533 12.759 22.0315 14.7275 18.4583 18.251C16.6757 20.0031 15.2563 22.0896 14.2815 24.3908C13.3067 26.6921 12.7956 29.163 12.7775 31.662C12.7593 34.161 13.2345 36.6391 14.1757 38.9542C15.117 41.2694 16.5059 43.3763 18.2629 45.1541C20.032 46.9482 22.1384 48.375 24.4611 49.3525C26.7838 50.3299 29.2768 50.8388 31.7969 50.8498V50.8443Z" fill="white"/>
<path d="M31.8009 49.4218C23.0725 49.3628 15.6382 42.8913 14.4419 34.2547C13.838 29.9982 14.822 25.6684 17.2065 22.0906C19.591 18.5129 23.2091 15.9373 27.3713 14.8549C27.6071 14.7885 27.8551 14.7778 28.0957 14.8236C28.2579 14.862 28.4006 14.9578 28.4975 15.0933C28.5944 15.2289 28.639 15.3949 28.6229 15.5607C28.6256 15.7344 28.569 15.904 28.4625 16.0413C28.3559 16.1786 28.2058 16.2756 28.0367 16.3162C27.4597 16.5004 26.868 16.6423 26.3058 16.869C20.5914 19.117 17.1424 23.2797 16.0825 29.296C14.6078 37.6489 20.4089 45.8801 28.7243 47.428C37.1927 49.0053 45.1303 43.9582 47.2667 35.6348C49.4788 27.0166 43.9007 18.0593 35.1558 16.2461C34.1272 16.0324 33.0636 15.9753 32.011 15.8776C31.3787 15.8205 31.0138 15.5588 31.0174 15.0687C31.0211 14.5785 31.4119 14.2708 32.07 14.2782C35.9927 14.3412 39.7813 15.7151 42.8321 18.1806C45.8829 20.6462 48.0203 24.0617 48.9037 27.8827C51.1544 37.6268 44.745 47.3432 34.9051 49.0735C33.882 49.2559 32.8369 49.3094 31.8009 49.4218Z" fill="white"/>
<path d="M31.8063 49.5102C23.054 49.4512 15.5515 42.8968 14.3551 34.2639C13.7501 29.9863 14.7396 25.6358 17.1353 22.0403C19.5309 18.4447 23.1655 15.8552 27.3472 14.7646C27.5975 14.6947 27.8609 14.6846 28.1159 14.7351C28.2982 14.7786 28.459 14.8859 28.5689 15.0377C28.6788 15.1896 28.7306 15.3757 28.7149 15.5625C28.7177 15.7559 28.6549 15.9446 28.5368 16.0979C28.4186 16.2511 28.2521 16.3599 28.0642 16.4064C27.8799 16.4672 27.6771 16.5244 27.4817 16.5815C27.102 16.692 26.7094 16.8063 26.3388 16.95C20.6428 19.1981 17.2215 23.357 16.1727 29.3107C15.4667 33.3186 16.4031 37.4185 18.8087 40.8588C21.136 44.2416 24.7056 46.5688 28.7408 47.334C37.1318 48.8984 45.0564 43.8569 47.1744 35.6072C47.6841 33.5506 47.7755 31.4127 47.4432 29.3202C47.1109 27.2276 46.3617 25.2231 45.24 23.4254C44.1182 21.6277 42.6469 20.0735 40.913 18.8548C39.1792 17.6361 37.2183 16.7779 35.1465 16.3309C34.3124 16.1757 33.4696 16.0717 32.6229 16.0195L32.0127 15.9734C31.115 15.8923 30.9307 15.439 30.9344 15.0723C30.9322 14.963 30.952 14.8543 30.9926 14.7527C31.0331 14.6512 31.0935 14.5587 31.1703 14.4808C31.295 14.3741 31.4398 14.2933 31.5962 14.2433C31.7526 14.1933 31.9174 14.1751 32.0809 14.1897C35.2447 14.239 38.3369 15.1385 41.0332 16.7938C43.7294 18.4491 45.9304 20.7992 47.4052 23.5975C48.8801 26.3959 49.5744 29.5394 49.4154 32.6984C49.2564 35.8574 48.25 38.9154 46.5016 41.5517C45.1966 43.5466 43.4952 45.2521 41.5031 46.5622C39.5111 47.8723 37.2708 48.7591 34.9216 49.1675C34.2174 49.2909 33.4948 49.3517 32.7943 49.4181C32.4662 49.4494 32.1381 49.4789 31.81 49.5139L31.8063 49.5102ZM27.8172 14.8862C27.6747 14.8876 27.5329 14.9068 27.3951 14.9433C23.2557 16.0219 19.6576 18.5843 17.2857 22.1429C14.9137 25.7015 13.9337 30.0077 14.5321 34.2417C15.7155 42.7844 23.1369 49.2688 31.7971 49.3296C32.1233 49.2946 32.4515 49.2651 32.7777 49.2356C33.4745 49.173 34.1934 49.1085 34.8884 48.985C37.2137 48.5664 39.4298 47.6804 41.4027 46.3807C43.3755 45.081 45.064 43.3947 46.3659 41.4238C47.6679 39.4529 48.5562 37.2384 48.9772 34.9144C49.3982 32.5903 49.343 30.205 48.815 27.9029C47.9365 24.1015 45.8102 20.7034 42.775 18.2505C39.7399 15.7975 35.9706 14.4309 32.068 14.3684C31.7876 14.3425 31.5082 14.4279 31.2901 14.6061C31.2299 14.6669 31.1825 14.7391 31.1508 14.8186C31.1191 14.8981 31.1038 14.9831 31.1058 15.0686C31.1058 15.4888 31.4081 15.7302 32.0164 15.7836L32.6247 15.8352C33.4808 15.8914 34.3328 15.9991 35.176 16.1577C37.2722 16.6089 39.2565 17.4762 41.0112 18.7082C42.7659 19.9403 44.2553 21.5119 45.3911 23.33C46.5269 25.1482 47.286 27.1757 47.6234 29.2925C47.9607 31.4093 47.8695 33.5723 47.3551 35.6532C45.2094 43.9969 37.1926 49.1048 28.7076 47.5164C24.6246 46.7417 21.0127 44.3867 18.6575 40.9638C16.2224 37.4849 15.2768 33.3351 15.9902 29.2794C17.052 23.2575 20.5101 19.0525 26.2725 16.7805C26.6412 16.6312 27.0467 16.5151 27.4301 16.412C27.6145 16.3548 27.8172 16.2996 28.0089 16.2387C28.1593 16.2031 28.293 16.1171 28.3879 15.9952C28.4828 15.8732 28.5331 15.7225 28.5306 15.568C28.5458 15.4231 28.5078 15.2776 28.4237 15.1587C28.3396 15.0397 28.2152 14.9553 28.0735 14.9212C27.9897 14.8996 27.9037 14.8878 27.8172 14.8862Z" fill="white"/>
<path d="M31.8281 39.7717C28.9635 39.7717 26.0971 39.7109 23.2362 39.792C21.2085 39.8491 20.0213 37.7798 21.0721 36.0034C23.9846 31.0835 26.84 26.1211 29.7248 21.179C30.7553 19.4138 32.8586 19.399 33.8908 21.1551C36.7849 26.1082 39.6729 31.065 42.5547 36.0255C43.445 37.5586 42.7722 39.3258 41.1611 39.7109C40.9019 39.7614 40.6379 39.7824 40.374 39.7735C37.5254 39.7748 34.6767 39.7742 31.8281 39.7717ZM31.8281 38.1796C34.6614 38.1796 37.4946 38.1465 40.326 38.1981C41.2791 38.2165 41.5814 37.4813 41.15 36.7479C38.2688 31.8592 35.4245 26.9485 32.5655 22.0543C32.0972 21.2509 31.5332 21.2435 31.0705 22.0377C28.2059 26.954 25.356 31.8777 22.4656 36.7792C22.073 37.4444 22.3182 38.222 23.2786 38.2054C26.1284 38.1483 28.9783 38.1796 31.8281 38.1796Z" fill="white"/>
<path d="M23.1643 39.8857C22.72 39.8933 22.2816 39.7837 21.8933 39.5679C21.5049 39.3522 21.1803 39.0378 20.9523 38.6567C20.7161 38.2435 20.5965 37.7741 20.6063 37.2983C20.616 36.8226 20.7547 36.3584 21.0076 35.9553C22.9044 32.7232 24.8233 29.4248 26.6796 26.2278C27.6627 24.5288 28.6508 22.8305 29.6437 21.1328C30.1562 20.2575 30.9507 19.7545 31.8226 19.7545C32.6853 19.7545 33.4687 20.2483 33.9701 21.1088C36.6504 25.6953 39.4836 30.5599 42.634 35.9793C42.8588 36.3424 42.9949 36.7533 43.0311 37.1788C43.0672 37.6043 43.0026 38.0324 42.8423 38.4282C42.693 38.7708 42.4649 39.0733 42.1766 39.3112C41.8884 39.5491 41.548 39.7156 41.1832 39.7973C40.9167 39.8485 40.6453 39.8701 40.374 39.8618H31.8281C30.9691 39.8618 30.112 39.8618 29.2474 39.8507C27.275 39.8397 25.2362 39.8268 23.2325 39.8821L23.1643 39.8857ZM31.8281 19.9387C31.0226 19.9387 30.2871 20.4086 29.8004 21.2286C28.8173 22.9226 27.8299 24.6197 26.8381 26.3199C24.9837 29.5133 23.0648 32.8154 21.1513 36.0585C20.9156 36.4334 20.7862 36.8652 20.7767 37.3078C20.7673 37.7505 20.8783 38.1874 21.0979 38.5719C21.3172 38.9374 21.6319 39.2364 22.0083 39.4367C22.3847 39.637 22.8085 39.7311 23.2343 39.7088C25.2399 39.6517 27.2898 39.6665 29.2548 39.6775C30.112 39.6775 30.9691 39.6886 31.8355 39.6886H40.3795C40.6365 39.6969 40.8937 39.6771 41.1464 39.6296C41.4844 39.5566 41.8 39.4037 42.0668 39.1838C42.3337 38.9639 42.5439 38.6833 42.68 38.3655C42.8285 37.9961 42.8878 37.5969 42.8533 37.2002C42.8187 36.8036 42.6911 36.4207 42.481 36.0825C39.3325 30.6631 36.4992 25.7984 33.8171 21.212C33.3434 20.3957 32.6189 19.9387 31.8281 19.9387ZM40.3629 38.29H40.3279C38.3002 38.2531 36.2227 38.2587 34.2208 38.266C33.4245 38.266 32.6257 38.266 31.8244 38.266C31.0281 38.266 30.2324 38.266 29.4373 38.266C27.4096 38.266 25.3321 38.2531 23.2804 38.29C22.8306 38.29 22.4859 38.137 22.3127 37.8385C22.2266 37.664 22.188 37.4699 22.201 37.2758C22.2139 37.0817 22.2779 36.8944 22.3864 36.7329C24.486 33.1692 26.6003 29.5336 28.6538 26.0177L30.9986 21.9915C31.3046 21.4645 31.6125 21.3557 31.8171 21.3557C32.1139 21.3557 32.4033 21.5806 32.6521 22.0081L35.0024 26.0435C37.0301 29.5446 39.1445 33.1618 41.233 36.7108C41.4726 37.118 41.5058 37.5308 41.3215 37.8441C41.1371 38.1573 40.8053 38.29 40.3574 38.29H40.3629ZM36.5896 38.0854C37.832 38.0854 39.0855 38.0854 40.3261 38.1149C40.7242 38.1149 41.0155 37.9933 41.1574 37.7464C41.2994 37.4995 41.2699 37.142 41.0689 36.8011C38.9786 33.2521 36.8734 29.6331 34.8365 26.1338C34.0549 24.7825 33.2721 23.4367 32.4881 22.0965C32.2724 21.728 32.0401 21.5437 31.8115 21.5437C31.583 21.5437 31.3599 21.728 31.1516 22.0965L28.8068 26.108C26.7626 29.6239 24.6464 33.2595 22.5394 36.8232C22.447 36.9567 22.3915 37.1122 22.3786 37.274C22.3656 37.4358 22.3957 37.5981 22.4657 37.7445C22.6058 37.9841 22.897 38.1131 23.2731 38.1131C25.3247 38.0762 27.4133 38.0836 29.4318 38.0891C31.022 38.0891 32.6134 38.0891 34.2061 38.0891C34.9969 38.0854 35.7914 38.0854 36.5896 38.0854Z" fill="white"/>
<path d="M54.0608 53.2526C54.2799 53.3332 54.4894 53.4376 54.6857 53.564C54.9798 53.8178 55.2551 54.0925 55.5096 54.3859C55.6563 54.5344 55.7379 54.7352 55.7366 54.9439C55.7352 55.1526 55.6509 55.3522 55.5023 55.4989C55.3536 55.6455 55.1529 55.7271 54.944 55.7257C54.7352 55.7243 54.5355 55.6401 54.3889 55.4915C54.0717 55.2416 53.7901 54.9496 53.552 54.6236C53.4817 54.502 53.4371 54.3674 53.4209 54.2279C53.4047 54.0885 53.4173 53.9472 53.458 53.8128C53.5391 53.5769 53.8469 53.435 54.0608 53.2526Z" fill="white"/>
<path d="M54.9291 55.7992C54.7032 55.7948 54.4867 55.7076 54.3208 55.5541L54.2102 55.4565C53.9292 55.2282 53.681 54.9622 53.4729 54.666C53.3955 54.5319 53.3468 54.3833 53.3296 54.2295C53.3125 54.0757 53.3274 53.92 53.3733 53.7723C53.471 53.5881 53.6203 53.4363 53.8028 53.3355C53.8729 53.2858 53.9466 53.2342 54.0093 53.1826L54.0554 53.1439L54.1088 53.1697C54.1973 53.2121 54.2803 53.2471 54.354 53.2784C54.4944 53.3286 54.6262 53.4001 54.7448 53.4903C55.0424 53.7467 55.3209 54.0244 55.578 54.3214C55.6574 54.4026 55.7198 54.499 55.7613 54.6047C55.8028 54.7104 55.8227 54.8234 55.8198 54.937C55.8169 55.0506 55.7912 55.1624 55.7443 55.2659C55.6974 55.3693 55.6302 55.4623 55.5467 55.5394C55.4661 55.6214 55.37 55.6866 55.264 55.7312C55.158 55.7758 55.0442 55.7989 54.9291 55.7992ZM54.0738 53.3613C54.0185 53.4056 53.9595 53.4461 53.9005 53.4866C53.8012 53.5287 53.7129 53.5931 53.6425 53.6749C53.5721 53.7566 53.5215 53.8534 53.4946 53.9578C53.4677 54.0623 53.4652 54.1715 53.4873 54.277C53.5094 54.3826 53.5556 54.4816 53.6222 54.5665C53.8228 54.8487 54.0616 55.1017 54.3319 55.3183L54.4425 55.4159C54.5737 55.5368 54.7463 55.6027 54.9247 55.5998C55.1031 55.5969 55.2736 55.5256 55.4008 55.4006C55.528 55.2755 55.6023 55.1063 55.6082 54.9281C55.614 54.7498 55.5511 54.5761 55.4324 54.443C55.181 54.1526 54.9086 53.881 54.6176 53.6304C54.5129 53.5526 54.3974 53.4905 54.2747 53.4461C54.2139 53.4222 54.1457 53.3945 54.0738 53.3613Z" fill="white"/>
<path d="M32.6044 29.0178C32.6044 29.9041 32.6044 30.7886 32.6044 31.6731C32.6044 32.2535 32.3168 32.5779 31.8394 32.5944C31.362 32.611 31.0173 32.2683 31.0154 31.6731C31.0056 29.9041 31.0056 28.1339 31.0154 26.3625C31.0154 25.7728 31.338 25.4411 31.8357 25.4411C32.3334 25.4411 32.5989 25.7765 32.6044 26.3625C32.6099 27.2488 32.6044 28.1351 32.6044 29.0178Z" fill="white"/>
<path d="M31.81 32.6829C31.6992 32.6868 31.5888 32.6688 31.485 32.6299C31.3813 32.591 31.2862 32.532 31.2054 32.4562C31.1079 32.3525 31.0325 32.2301 30.9837 32.0965C30.9349 31.9628 30.9138 31.8207 30.9215 31.6786C30.9215 29.9409 30.9215 28.1535 30.9215 26.3661C30.9137 26.2237 30.9347 26.0811 30.9832 25.9469C31.0316 25.8127 31.1066 25.6896 31.2035 25.5849C31.2872 25.5071 31.3856 25.4469 31.4929 25.4077C31.6002 25.3684 31.7143 25.351 31.8284 25.3564C32.3685 25.3693 32.6801 25.7359 32.6874 26.3625C32.6948 26.989 32.6874 27.6081 32.6874 28.2309V29.812C32.6874 30.4329 32.6874 31.0539 32.6874 31.6749C32.6874 32.2959 32.3704 32.6681 31.8321 32.6829H31.81ZM31.81 25.5406C31.7222 25.5382 31.6347 25.5533 31.5528 25.5849C31.4708 25.6165 31.396 25.6641 31.3326 25.7249C31.2532 25.8126 31.1922 25.9154 31.1532 26.0272C31.1143 26.1389 31.0982 26.2573 31.1058 26.3754C31.1058 28.1609 31.1058 29.9483 31.1058 31.6841C31.0984 31.8016 31.1146 31.9194 31.1535 32.0305C31.1925 32.1416 31.2534 32.2438 31.3326 32.3309C31.3995 32.3942 31.4787 32.4431 31.5652 32.4748C31.6517 32.5065 31.7438 32.5202 31.8358 32.5152C32.2653 32.5041 32.5049 32.2111 32.5105 31.6897C32.5105 31.0687 32.5105 30.4495 32.5105 29.8285V28.2309C32.5105 27.6081 32.5105 26.9853 32.5105 26.3643C32.5105 25.8428 32.2635 25.5517 31.8321 25.5406H31.81Z" fill="white"/>
<path d="M32.5951 35.4099C32.5951 36.2207 32.3573 36.5855 31.8117 36.5837C31.266 36.5818 31.0079 36.2023 31.0098 35.4062C31.0036 35.2214 31.0141 35.0364 31.0411 34.8534C31.0695 34.6578 31.1738 34.4812 31.3315 34.3618C31.4891 34.2425 31.6875 34.1901 31.8835 34.2158C32.0743 34.223 32.2548 34.3038 32.3871 34.4413C32.5195 34.5787 32.5934 34.7621 32.5932 34.9529C32.6061 35.0985 32.5951 35.2551 32.5951 35.4099Z" fill="white"/>
<path d="M31.8156 36.6759C31.6829 36.6839 31.5505 36.6576 31.431 36.5995C31.3115 36.5414 31.2091 36.4534 31.1335 36.3442C30.9717 36.0593 30.898 35.733 30.9215 35.4063V35.3362C30.916 35.1679 30.9272 34.9994 30.9547 34.8332C30.9889 34.6156 31.1066 34.42 31.2829 34.2878C31.4591 34.1557 31.68 34.0975 31.8985 34.1256C32.1083 34.1362 32.3063 34.2256 32.453 34.376C32.5996 34.5263 32.684 34.7265 32.6893 34.9364C32.6958 35.0462 32.6958 35.1564 32.6893 35.2662C32.6893 35.3141 32.6893 35.362 32.6893 35.4099C32.6893 35.9167 32.6008 36.2613 32.4018 36.4621C32.3235 36.5354 32.2313 36.5922 32.1305 36.6289C32.0298 36.6657 31.9226 36.6816 31.8156 36.6759ZM31.7861 34.3043C31.6274 34.304 31.4739 34.3608 31.3537 34.4643C31.2336 34.5679 31.1547 34.7113 31.1317 34.8682C31.1069 35.0229 31.0971 35.1796 31.1022 35.3362V35.4063C31.0816 35.6965 31.1457 35.9864 31.2865 36.241C31.3454 36.325 31.4251 36.3923 31.5179 36.4363C31.6106 36.4802 31.7132 36.4993 31.8156 36.4916C31.8979 36.4972 31.9806 36.4861 32.0586 36.4589C32.1365 36.4316 32.2081 36.3888 32.269 36.3331C32.4312 36.1673 32.5087 35.8669 32.5031 35.4118C32.5031 35.362 32.5031 35.3123 32.5031 35.2625C32.5096 35.1601 32.5096 35.0573 32.5031 34.9548C32.5027 34.7867 32.4369 34.6254 32.3195 34.505C32.2022 34.3847 32.0426 34.3147 31.8745 34.3099C31.8452 34.3061 31.8156 34.3043 31.7861 34.3043Z" fill="white"/>
</svg>
