<svg width="60" height="60" viewBox="0 0 60 60" fill="none" xmlns="http://www.w3.org/2000/svg">
<path d="M27.9656 59.6591L24.6341 59.201C24.4414 59.1731 24.2508 59.1346 24.0624 59.0918C23.3109 58.9226 22.9298 58.4002 23.0519 57.7194C23.1739 57.0385 23.7477 56.7302 24.4971 56.8051C26.424 57 28.3509 57.3083 30.2779 57.2997C41.1158 57.2526 51.3051 50.3221 55.2467 40.2206C58.9614 30.7058 57.7346 21.7413 51.8553 13.4019C51.7547 13.2606 51.6412 13.1257 51.6027 13.0679C50.7313 13.2285 49.9241 13.4961 49.1148 13.4961C48.0478 13.5029 47.0089 13.1547 46.1616 12.5062C45.3142 11.8577 44.7066 10.9459 44.4345 9.91416C44.1568 8.88955 44.22 7.80244 44.6145 6.81688C45.0089 5.83133 45.7132 5.00081 46.6211 4.45067C47.529 3.90053 48.5912 3.66061 49.6474 3.76713C50.7036 3.87364 51.6965 4.32081 52.4762 5.04115C53.2568 5.75343 53.7821 6.70213 53.9717 7.74172C54.1612 8.78131 54.0044 9.85437 53.5253 10.7963C53.2898 11.2502 53.3455 11.5157 53.6388 11.9053C57.0837 16.4479 59.1378 21.8918 59.5524 27.5778C59.5757 27.7493 59.6086 27.9194 59.6508 28.0873V31.6971C59.6166 31.8491 59.5759 31.9969 59.5524 32.1489C59.3511 33.5277 59.2205 34.9322 58.94 36.2875C56.5528 47.8492 46.6633 57.3104 35.0246 59.1967C33.9198 59.3765 32.8043 59.505 31.6931 59.657L27.9656 59.6591ZM49.1447 11.1945C49.6545 11.2 50.1544 11.0538 50.5808 10.7744C51.0072 10.4949 51.3408 10.095 51.5392 9.62542C51.7376 9.15584 51.7919 8.63784 51.695 8.13734C51.5982 7.63684 51.3546 7.17646 50.9954 6.81478C50.6361 6.4531 50.1774 6.20647 49.6776 6.10627C49.1777 6.00607 48.6594 6.05683 48.1885 6.25209C47.7176 6.44735 47.3154 6.77829 47.0331 7.20279C46.7508 7.6273 46.6012 8.12618 46.6033 8.63596C46.6061 9.31071 46.8742 9.9573 47.3497 10.436C47.8253 10.9148 48.47 11.1872 49.1447 11.1945Z" fill="#6F63DE"/>
<path d="M13.77 39.1802C13.1812 37.658 12.6609 36.2855 12.1064 34.926C12.055 34.847 11.9862 34.7809 11.9053 34.7326C11.8244 34.6844 11.7335 34.6553 11.6396 34.6476C11.0573 34.6134 10.4749 34.6476 9.89254 34.6305C9.07895 34.6134 8.63361 34.1702 8.63147 33.3459C8.63147 30.9979 8.63147 28.6492 8.63147 26.2997C8.63147 25.4754 9.07038 25.0472 9.89254 25.0301C10.4728 25.0172 11.0573 25.0472 11.6375 25.013C11.7317 25.0036 11.8226 24.9732 11.9034 24.9239C11.9842 24.8746 12.0529 24.8077 12.1042 24.7282C12.6566 23.3708 13.1748 21.9984 13.7678 20.4697C13.391 20.1164 12.8857 19.6668 12.4061 19.185C11.7638 18.5427 11.7638 17.9175 12.4061 17.2581C14.0248 15.6438 15.6462 14.0301 17.2706 12.4172C17.945 11.7471 18.5552 11.7513 19.2339 12.4365C19.6964 12.9011 20.1353 13.3914 20.4843 13.7639C21.998 13.1794 23.3704 12.6591 24.73 12.1089C24.8091 12.0577 24.8761 11.9898 24.926 11.9099C24.976 11.8299 25.0077 11.74 25.019 11.6464C25.0533 11.0662 25.019 10.4817 25.0361 9.89933C25.0533 9.08146 25.4858 8.6404 26.3058 8.63826C28.6538 8.62969 31.0025 8.62969 33.3519 8.63826C34.172 8.63826 34.6066 9.07931 34.6237 9.89719C34.6344 10.4796 34.6045 11.0641 34.6409 11.6443C34.6501 11.7382 34.6808 11.8287 34.7305 11.9089C34.7803 11.9891 34.8477 12.0568 34.9278 12.1067C36.2873 12.6591 37.6597 13.1773 39.1734 13.7618C39.5353 13.3785 39.987 12.8754 40.4581 12.3958C41.1004 11.7663 41.7106 11.7535 42.3358 12.3765C43.9915 14.0151 45.6394 15.6616 47.2794 17.3159C47.8789 17.9197 47.8811 18.5513 47.2794 19.1551C46.7913 19.6496 46.2689 20.11 45.877 20.4782C46.4658 22.0048 46.9861 23.3772 47.5385 24.7346C47.5899 24.8141 47.6585 24.881 47.7393 24.9303C47.8202 24.9796 47.911 25.0101 48.0052 25.0194C48.6047 25.0536 49.2085 25.0194 49.8101 25.0386C50.5595 25.0579 51.0091 25.4925 51.0113 26.2419C51.0241 28.6313 51.0241 31.0193 51.0113 33.4058C51.0113 34.1531 50.5574 34.6005 49.8144 34.6241C49.2149 34.6412 48.6112 34.6048 48.0117 34.6455C47.9111 34.6597 47.8151 34.6966 47.7309 34.7533C47.6468 34.8101 47.5766 34.8852 47.5257 34.9731C46.9754 36.3134 46.4551 37.6687 45.8749 39.1588C46.2539 39.5207 46.757 39.9746 47.2345 40.4542C47.8896 41.1093 47.9003 41.7259 47.2559 42.3811C45.6401 44.0154 44.0115 45.6462 42.37 47.2734C41.742 47.8986 41.1154 47.8986 40.4902 47.2734C39.9977 46.7831 39.5331 46.2607 39.1713 45.8753C37.6619 46.4641 36.3087 46.9822 34.9684 47.5324C34.8809 47.5837 34.806 47.654 34.7493 47.7381C34.6926 47.8223 34.6555 47.9181 34.6409 48.0185C34.6002 48.618 34.6409 49.2217 34.6194 49.8234C34.598 50.5706 34.1591 51.0223 33.4119 51.0266C31.0239 51.0395 28.6367 51.0395 26.2501 51.0266C25.4986 51.0266 25.0597 50.5727 25.0383 49.8276C25.0212 49.226 25.0576 48.6222 25.0169 48.0227C25.0037 47.9221 24.9678 47.8258 24.9118 47.7412C24.8557 47.6566 24.7811 47.5859 24.6936 47.5346C23.3533 46.9822 22.0001 46.4641 20.4928 45.8731C20.1417 46.2478 19.69 46.7531 19.2082 47.2327C18.5338 47.9071 17.9236 47.9028 17.2449 47.2327C15.6348 45.6312 14.029 44.0247 12.4275 42.4132C11.7317 41.7131 11.736 41.1136 12.4468 40.4092C12.9178 39.9489 13.4081 39.51 13.77 39.1802ZM44.9221 41.3213C44.4939 40.923 44.0443 40.5248 43.6204 40.1009C43.0873 39.5678 43.0295 39.0775 43.4341 38.4266C44.3985 36.8749 45.1049 35.1772 45.5259 33.3994C45.7272 32.5537 46.0847 32.2925 46.9711 32.2882C47.5278 32.2882 48.0866 32.2882 48.6583 32.2882V27.4045C48.6062 27.391 48.5532 27.381 48.4998 27.3745C47.9774 27.3745 47.4529 27.3745 46.9283 27.3745C46.0869 27.3574 45.725 27.0833 45.5302 26.2697C45.1099 24.4935 44.4042 22.7971 43.4405 21.2469C43.0123 20.5767 43.0787 20.0864 43.6546 19.534C44.0829 19.1208 44.5453 18.7525 44.9628 18.3886L41.3038 14.7167C40.9462 15.1149 40.5865 15.5474 40.1926 15.9456C39.5503 16.588 39.1028 16.6436 38.3342 16.1597C36.8152 15.2155 35.1517 14.527 33.4098 14.1215C32.594 13.9245 32.3028 13.5648 32.2921 12.7362C32.2921 12.1603 32.2921 11.5843 32.2921 10.987H27.4384C27.4084 11.0448 27.3784 11.079 27.3784 11.1112C27.3784 11.655 27.3784 12.1988 27.3613 12.7405C27.3463 13.5455 27.0637 13.9309 26.2908 14.1129C24.495 14.5334 22.7802 15.2451 21.2144 16.2197C20.5721 16.6243 20.0775 16.5644 19.5422 16.0227C19.114 15.5945 18.7372 15.1363 18.3711 14.7381L14.7955 18.3629C15.1724 18.7161 15.6091 19.1015 16.0159 19.5148C16.5747 20.08 16.6325 20.566 16.2129 21.2276C15.2585 22.7604 14.5593 24.4379 14.1425 26.1948C13.9284 27.0726 13.5773 27.3381 12.6631 27.3467C12.1085 27.3467 11.554 27.3467 10.9909 27.3467V32.2218C11.0401 32.254 11.0551 32.2732 11.0701 32.2732C11.6503 32.2732 12.2327 32.2732 12.8151 32.2968C13.5473 32.3118 13.9434 32.6008 14.0997 33.3052C14.5191 35.1232 15.236 36.8594 16.2215 38.4437C16.624 39.086 16.5598 39.5806 16.0223 40.1159C15.5941 40.5441 15.1402 40.9295 14.7377 41.302L18.2726 44.8454C18.2976 44.8383 18.3204 44.8251 18.339 44.8069C18.7265 44.4258 19.1097 44.0404 19.4994 43.6614C20.0968 43.0769 20.5464 43.0191 21.2658 43.4602C22.7843 44.4056 24.448 45.0949 26.1902 45.5006C27.0937 45.7147 27.3613 46.0765 27.3656 47.025C27.3656 47.5795 27.3656 48.1319 27.3656 48.6736H32.29C32.29 48.0741 32.29 47.5132 32.29 46.9608C32.29 46.0894 32.5683 45.734 33.4226 45.5284C35.1802 45.113 36.8586 44.4145 38.392 43.4602C39.0942 43.0213 39.561 43.0791 40.1562 43.6743C40.563 44.0854 40.9419 44.5307 41.3038 44.9225L44.9221 41.3213Z" fill="#6F63DE"/>
<path d="M8.14779 46.7147C10.9654 45.3679 13.5004 46.6311 14.6137 48.3889C15.2312 49.3535 15.4906 50.504 15.347 51.6402C15.2033 52.7764 14.6656 53.8261 13.8275 54.6066C12.9895 55.3871 11.9042 55.8489 10.7607 55.9115C9.61716 55.974 8.48794 55.6335 7.56971 54.9491C5.99818 53.7865 4.71998 51.198 6.33219 48.4232C5.30877 46.7425 4.21255 45.1581 3.33473 43.4624C-5.35363 26.8008 3.68158 6.09265 21.7927 1.09759C26.2777 -0.159019 30.9959 -0.339475 35.5638 0.570897C36.3646 0.729334 36.7971 1.26674 36.6836 1.92618C36.5616 2.62844 35.9471 2.9967 35.1378 2.85111C27.3594 1.44444 20.1826 2.92176 13.7744 7.5614C7.36631 12.201 3.55739 18.5749 2.56823 26.4775C1.66257 33.7314 3.48674 40.3236 7.77525 46.2458C7.88872 46.3914 8.0129 46.5412 8.14779 46.7147ZM10.5222 48.4746C10.0127 48.4678 9.51259 48.6127 9.08559 48.8908C8.6586 49.169 8.32397 49.5678 8.12424 50.0367C7.92452 50.5055 7.86873 51.0231 7.96396 51.5237C8.05919 52.0244 8.30115 52.4854 8.65906 52.8481C9.01698 53.2109 9.47468 53.459 9.97398 53.5609C10.4733 53.6629 10.9916 53.614 11.4631 53.4206C11.9346 53.2272 12.3379 52.898 12.6217 52.4747C12.9056 52.0515 13.0572 51.5534 13.0572 51.0438C13.0573 50.3683 12.7913 49.72 12.3168 49.2391C11.8424 48.7583 11.1977 48.4836 10.5222 48.4746Z" fill="#6F63DE"/>
<path d="M40.5802 4.41597C40.2785 4.41355 39.9888 4.29768 39.7686 4.0914C39.5485 3.88511 39.414 3.60353 39.392 3.30263C39.3865 3.14842 39.4118 2.99468 39.4663 2.85032C39.5208 2.70597 39.6034 2.57388 39.7094 2.46173C39.8154 2.34958 39.9426 2.25961 40.0836 2.19703C40.2247 2.13446 40.3767 2.10053 40.531 2.09722C40.8327 2.08795 41.1258 2.19811 41.3467 2.40378C41.5676 2.60945 41.6984 2.894 41.7107 3.19558C41.7223 3.50723 41.6098 3.81075 41.3978 4.03954C41.1859 4.26833 40.8919 4.40371 40.5802 4.41597Z" fill="#6F63DE"/>
<path d="M20.3027 56.4242C20.3081 56.5751 20.2832 56.7255 20.2295 56.8665C20.1758 57.0076 20.0943 57.1364 19.9899 57.2454C19.8855 57.3544 19.7603 57.4414 19.6216 57.5011C19.483 57.5609 19.3338 57.5922 19.1829 57.5932C19.0261 57.5994 18.8698 57.5735 18.7234 57.5171C18.577 57.4608 18.4436 57.3752 18.3314 57.2656C18.2192 57.156 18.1305 57.0247 18.0708 56.8797C18.011 56.7346 17.9815 56.5789 17.9839 56.4221C17.9927 56.1185 18.1182 55.83 18.3344 55.6166C18.5505 55.4032 18.8407 55.2815 19.1444 55.2766C19.45 55.2755 19.7437 55.3957 19.9609 55.6108C20.178 55.826 20.301 56.1185 20.3027 56.4242Z" fill="#6F63DE"/>
<path d="M29.5781 20.2083C34.7958 19.9942 39.2128 24.197 39.4547 29.5818C39.6795 34.7823 35.4552 39.2357 30.0833 39.4605C24.872 39.6746 20.4251 35.4568 20.2046 30.0849C19.9905 24.8715 24.2105 20.4245 29.5781 20.2083ZM37.1317 29.843C37.1359 28.3988 36.7117 26.9858 35.9128 25.7827C35.1139 24.5797 33.9762 23.6406 32.6435 23.0842C31.3108 22.5278 29.843 22.3792 28.4258 22.6571C27.0086 22.935 25.7057 23.6269 24.6818 24.6454C23.658 25.6639 22.9591 26.9632 22.6737 28.3788C22.3884 29.7945 22.5293 31.2631 23.0786 32.5987C23.6279 33.9343 24.561 35.077 25.7598 35.8823C26.9587 36.6875 28.3694 37.1191 29.8136 37.1225C31.745 37.117 33.5963 36.3503 34.9663 34.9888C36.3362 33.6273 37.1142 31.7807 37.1317 29.8494V29.843Z" fill="#6F63DE"/>
</svg>
