<svg width="196" height="73" viewBox="0 0 196 73" fill="none" xmlns="http://www.w3.org/2000/svg">
<rect width="196" height="73" fill=""/>
<g clip-path="url(#clip0_4385_1273)">
<path d="M36.8988 17.9998C38.0895 18.2834 39.2979 18.5315 40.4708 18.8683C42.9055 19.5595 45.1447 20.7824 47.0462 22.4306C35.2816 25.3727 25.3119 31.2568 16.3196 39.0374L15.9997 38.6297V34.6774C16.0886 34.5002 16.1596 34.3053 16.213 34.1103C17.3325 26.5247 22.9483 20.3747 30.4123 18.567C31.2831 18.3543 32.1005 18.177 32.9358 17.9998H36.8988Z" fill="white"/>
<path d="M25.0272 53.1805C28.4926 52.1171 31.7981 51.2841 34.9436 50.1321C41.4301 47.7749 47.1881 44.0707 52.946 40.3488C53.2303 40.1538 53.3014 39.6044 53.4613 39.2322L53.1059 38.9841C52.1107 39.569 51.0978 40.1361 50.1203 40.721C43.9359 44.4074 37.4494 47.4381 30.3586 48.9446C28.0839 49.4231 25.738 49.6358 23.41 49.5295C19.5536 49.3877 18.0075 46.4811 20.1401 43.2377C21.4907 41.235 23.0901 39.4095 24.9206 37.8498C31.1405 32.3379 38.2668 27.907 45.9618 24.7523C46.495 24.5219 47.0814 24.3978 47.6323 24.2383C48.6098 23.937 49.1784 24.3978 49.7116 25.1954C50.2447 25.9752 49.7116 26.4537 49.3206 26.9323C46.6016 29.9098 43.3317 32.3201 39.6708 34.0393L40.1328 32.9936C39.6885 33.1 39.262 33.224 38.8355 33.3835C36.1521 34.5887 33.6818 36.2193 31.5315 38.2397C30.9628 38.7714 30.2875 39.7817 30.4119 40.402C30.6252 41.3413 31.7981 41.4654 32.74 41.3945C33.7174 41.3413 34.677 41.1286 35.6011 40.7919C41.3235 38.4879 46.5838 35.1736 51.1333 31.0086L52.3773 29.8743C53.4969 32.4797 53.9767 35.3154 53.7635 38.1511C53.0704 45.7012 49.214 51.1068 42.2832 54.2793C40.666 55.0591 38.8711 55.4313 37.0584 55.3604C34.7659 55.2364 32.4201 55.3959 30.1631 55.0414C28.5104 54.7224 26.8576 53.854 25.0272 53.1805Z" fill="white"/>
<path d="M174.449 34.4113C173.845 36.2546 173.24 38.0978 172.636 39.9587C172.192 41.3412 171.801 42.6704 171.303 44.0174C171.197 44.3187 170.823 44.7086 170.557 44.7086C168.726 44.7795 166.896 44.7086 164.994 44.7086L161.636 34.4822L161.547 34.5354V44.7086H154.687V29.0057C157.353 29.0057 159.983 29.0057 162.613 29.0057C165.101 29.0057 164.443 28.6335 165.297 30.9376C166.15 33.2416 166.878 35.4925 167.678 37.761C167.802 38.0978 167.962 38.4523 168.175 38.9485C169.206 36.0596 170.148 33.3657 171.143 30.6717C171.836 28.6867 171.374 29.0057 173.56 28.988C176.013 28.988 178.43 28.988 180.971 28.988V44.6731H174.591V34.4468L174.449 34.4113Z" fill="white"/>
<path d="M130.535 29.0059V44.7088H123.409V29.8212L123.214 29.768C123.054 30.0162 122.876 30.2643 122.752 30.5301C120.672 34.9432 118.575 39.3741 116.496 43.8049C116.301 44.4429 115.696 44.8506 115.039 44.7797C112.96 44.7088 110.863 44.7797 108.783 44.7265C108.339 44.6911 107.948 44.4784 107.699 44.1239C105.407 39.2677 103.168 34.3938 100.928 29.5199C100.857 29.3427 100.804 29.1832 100.768 29.0059C103.043 29.0059 105.229 29.0059 107.415 29.0414C107.699 29.0414 108.108 29.5199 108.25 29.8567C109.37 32.7456 110.454 35.6522 111.556 38.5588C111.698 38.931 111.84 39.2855 112.089 39.8703C113.208 36.946 114.239 34.2343 115.27 31.5049C116.229 28.9882 116.212 28.9882 118.895 28.9882H130.535V29.0059Z" fill="white"/>
<path d="M146.228 29.1302H153.283C153.337 29.272 153.372 29.4137 153.39 29.5732C153.39 32.7812 153.39 36.0068 153.319 39.2147C153.39 40.8807 152.501 42.4404 151.026 43.2025C149.587 43.9646 148.023 44.514 146.424 44.8153C143.136 45.4179 139.742 45.2406 136.525 44.319C133.06 43.2556 131.78 41.5542 131.78 37.9032C131.78 35.0497 131.78 32.1963 131.78 29.3428C131.798 29.2542 131.833 29.1656 131.887 29.077H138.977C138.977 29.5024 138.977 29.8923 138.977 30.2822C138.977 33.047 138.977 35.7764 138.977 38.5058C138.977 39.835 139.475 40.668 140.772 40.8807C141.999 41.0757 143.243 41.0757 144.469 40.8807C145.713 40.6858 146.193 39.835 146.193 38.2222C146.193 35.6169 146.193 33.0293 146.193 30.4417C146.228 30.0518 146.228 29.6619 146.228 29.1302Z" fill="white"/>
<path d="M83.7793 34.4647C81.4513 34.4647 79.372 34.4647 77.2928 34.4647C76.9907 34.4115 76.7241 34.252 76.5641 34.0038C75.4446 32.3201 73.2409 31.7353 71.0017 32.5683C69.2601 33.3304 68.2472 35.1381 68.496 37.0168C68.7803 39.4626 71.0195 41.2172 73.4719 40.9337C74.1117 40.8628 74.7337 40.6501 75.2846 40.3133C75.7644 40.0475 76.1554 39.6399 76.3687 39.1436C76.6708 38.2397 77.2395 38.1688 78.0214 38.1866C79.9229 38.222 81.8245 38.1866 83.7971 38.1866C83.6371 40.1184 82.5353 41.8553 80.847 42.8123C77.6837 44.8151 74.165 45.0455 70.5752 44.6556C67.6962 44.3365 65.0661 43.4149 63.0757 41.1995C60.4989 38.5233 60.6055 34.2697 63.289 31.6998C63.36 31.6289 63.4311 31.558 63.5022 31.5049C65.4571 29.7503 67.9273 28.7046 70.5397 28.4919C73.7918 28.102 77.0084 28.2615 79.9407 29.8743C81.0425 30.5655 82.0377 31.434 82.8907 32.4265C83.335 32.8696 83.4594 33.6494 83.7793 34.4647Z" fill="white"/>
<path d="M97.4634 29.5193C97.1968 29.218 96.8058 29.0408 96.3793 29.0408C94.691 28.9699 93.0028 29.0408 91.3145 28.9876C90.6925 28.9344 90.106 29.3066 89.8928 29.8915C88.5599 32.4613 87.2093 34.9958 85.8409 37.5125L82.0378 44.779C84.0815 44.779 85.8765 44.6904 87.6714 44.779C88.791 44.8499 89.5018 44.5132 89.8039 43.4321C89.9994 42.67 90.497 42.475 91.2789 42.4927C92.8606 42.5636 94.4245 42.5636 96.0061 42.4927C97.0013 42.4396 97.6589 42.67 97.9965 43.6979C98.1031 44.1056 98.5297 44.6904 98.8318 44.6904C101.035 44.7613 103.239 44.7259 105.62 44.7259C102.83 39.5507 100.165 34.5173 97.4634 29.5193ZM91.6521 39.0544C92.3452 37.3175 93.0383 35.6693 93.8558 33.7906C94.5489 35.6693 95.242 37.3353 95.8995 39.0544H91.6521Z" fill="white"/>
</g>
<defs>
<clipPath id="clip0_4385_1273">
<rect width="164.954" height="37.3253" fill="white" transform="translate(16 18)"/>
</clipPath>
</defs>
</svg>
