<svg width="196" height="73" viewBox="0 0 196 73" fill="none" xmlns="http://www.w3.org/2000/svg">
<rect width="196" height="73" fill=""/>
<g clip-path="url(#clip0_4385_1257)">
<path d="M62.6707 44.7091C62.7584 44.6802 62.8481 44.6583 62.9392 44.6434C63.4805 44.6154 64.0217 44.5958 64.563 44.5651C65.1042 44.5343 65.6653 44.4882 66.2178 44.4575C66.8481 44.4225 67.4812 44.3554 68.1115 44.375C69.5049 44.4169 70.1874 45.6036 70.032 46.6534C70.0825 46.5897 70.1297 46.5234 70.1733 46.4549C70.7923 45.4149 71.431 44.3862 72.0203 43.3308C72.3995 42.6508 72.6106 41.8917 72.6362 41.1155C72.6618 40.3393 72.5013 39.5681 72.1677 38.8651C71.8341 38.1621 71.3369 37.5471 70.7169 37.0707C70.0969 36.5942 69.3716 36.2697 68.6004 36.1238C68.065 36.0425 67.5252 35.9935 66.9837 35.977C65.6978 35.8946 64.4132 35.8233 63.1272 35.7436C62.9958 35.7352 62.8643 35.7087 62.6877 35.6835L62.9067 35.2348C63.1653 34.7473 63.285 34.1994 63.253 33.6497C63.1936 32.9508 62.8474 32.3819 62.3372 31.9067C61.7638 31.3983 61.1028 30.9959 60.3856 30.7185C59.3276 30.2948 58.2207 30.0018 57.0901 29.8463C55.1888 29.5748 53.273 29.4133 51.3526 29.3627C48.4146 29.255 45.478 29.2886 42.5415 29.3948C40.3736 29.4745 38.2087 29.6101 36.0408 29.7219C35.8995 29.7303 35.7582 29.7527 35.5802 29.7722C35.5733 30.4527 35.7048 31.1276 35.967 31.7567C36.2292 32.3859 36.6167 32.9564 37.1064 33.4344C37.5872 33.9185 38.1602 34.3036 38.7923 34.5675C39.4244 34.8314 40.103 34.9689 40.7891 34.972V59.0001C33.767 55.3658 27.0304 46.5807 28.1073 35.2376C28.6563 29.5864 31.1657 24.2973 35.2096 20.2684C39.2534 16.2395 44.5824 13.719 50.2916 13.1351C56.0009 12.5511 61.7385 13.9396 66.5303 17.0647C71.3221 20.1899 74.8727 24.8591 76.5792 30.2796C79.8507 40.7799 75.5646 51.055 68.722 56.4184L62.6707 44.7091Z" fill="white"/>
<path d="M52.862 45.3547C48.5631 45.3715 45.0203 41.9008 44.9723 37.6864C44.9535 36.6593 45.1404 35.6386 45.5219 34.6831C45.9035 33.7276 46.4724 32.8561 47.1957 32.1189C47.9191 31.3817 48.7827 30.7932 49.7368 30.3873C50.691 29.9814 51.7169 29.7662 52.7555 29.7539C53.794 29.7416 54.8248 29.9326 55.7885 30.3159C56.7522 30.6991 57.6297 31.2671 58.3706 31.987C59.1116 32.707 59.7013 33.5648 60.1058 34.511C60.5103 35.4572 60.7217 36.4732 60.7278 37.5005C60.7478 38.5312 60.5587 39.5553 60.1714 40.5124C59.7842 41.4694 59.2068 42.3398 58.4734 43.0722C57.7399 43.8045 56.8654 44.3839 55.9016 44.776C54.9377 45.168 53.9041 45.3648 52.862 45.3547ZM50.1332 37.5411C50.1307 38.0554 50.2824 38.5589 50.5693 38.9879C50.8561 39.4169 51.2652 39.7521 51.7447 39.9511C52.2242 40.1501 52.7526 40.2039 53.263 40.1058C53.7735 40.0077 54.243 39.7621 54.6123 39.3999C54.9815 39.0378 55.2339 38.5755 55.3375 38.0715C55.4411 37.5675 55.3912 37.0444 55.1941 36.5684C54.9971 36.0924 54.6617 35.685 54.2305 35.3976C53.7993 35.1101 53.2916 34.9557 52.7716 34.9538C52.4266 34.9523 52.0847 35.018 51.7654 35.1473C51.4461 35.2765 51.1556 35.4667 50.9106 35.7069C50.6656 35.9472 50.4709 36.2328 50.3375 36.5475C50.2041 36.8622 50.1347 37.1998 50.1332 37.5411Z" fill="white"/>
<path d="M115.305 31.8982C115.659 31.497 115.948 31.1392 116.268 30.8135C117.642 29.4157 119.339 28.9125 121.267 29.0635C122.24 29.1197 123.185 29.4115 124.018 29.9133C125.301 30.7142 126.042 31.894 126.421 33.3183C126.598 34.0009 126.687 34.7032 126.683 35.408C126.689 38.39 126.689 41.372 126.683 44.3539C126.683 45.1143 126.401 45.7363 125.714 46.1151C124.454 46.814 122.77 46.0187 122.769 44.4112C122.769 41.8188 122.769 39.2263 122.769 36.6339C122.784 35.9961 122.685 35.3607 122.478 34.7567C122.002 33.4511 121.065 32.7285 119.664 32.5733C119.047 32.4931 118.419 32.5504 117.827 32.741C116.497 33.1925 115.741 34.1528 115.452 35.4793C115.354 35.9607 115.307 36.4506 115.31 36.9414C115.296 39.4449 115.31 41.9469 115.303 44.4504C115.31 44.8678 115.176 45.2755 114.922 45.6087C114.668 45.9418 114.308 46.1811 113.9 46.2885C113.629 46.3708 113.343 46.3929 113.062 46.3534C112.782 46.3138 112.513 46.2135 112.276 46.0596C112.039 45.9057 111.839 45.702 111.691 45.4629C111.543 45.2239 111.45 44.9555 111.418 44.6768C111.4 44.5214 111.391 44.365 111.393 44.2085C111.393 38.2074 111.393 32.2066 111.393 26.2064C111.388 25.9165 111.428 25.6277 111.51 25.3495C111.661 24.9251 111.958 24.5662 112.348 24.3351C112.738 24.1039 113.198 24.015 113.647 24.0836C114.097 24.1523 114.508 24.3743 114.81 24.7111C115.111 25.0479 115.284 25.4785 115.299 25.9282C115.307 27.7719 115.299 29.6156 115.299 31.4593L115.305 31.8982Z" fill="white"/>
<path d="M141.732 36.6633C141.821 36.7863 141.874 36.8673 141.937 36.9428L146.676 43.0624C146.817 43.2497 146.958 43.437 147.091 43.6341C147.493 44.2533 147.531 44.9019 147.149 45.5337C146.768 46.1655 146.142 46.3919 145.414 46.3723C144.752 46.3528 144.255 46.0397 143.868 45.5337L142.483 43.7165L139.206 39.4029C139.145 39.3233 139.08 39.2464 139.005 39.1527C138.939 39.1951 138.876 39.2418 138.816 39.2925C138.077 39.983 137.343 40.6791 136.6 41.3654C136.537 41.4195 136.487 41.487 136.455 41.5628C136.422 41.6386 136.408 41.7207 136.412 41.803C136.419 42.6961 136.423 43.5907 136.412 44.4839C136.402 45.2891 136.018 45.8817 135.281 46.2032C134.943 46.3673 134.564 46.4284 134.19 46.3786C133.817 46.3288 133.468 46.1705 133.186 45.9237C132.987 45.7643 132.826 45.5648 132.712 45.3387C132.598 45.1126 132.534 44.865 132.524 44.6125C132.524 44.5007 132.524 44.3889 132.524 44.2771C132.524 38.2442 132.524 32.2113 132.524 26.1784C132.517 25.9333 132.543 25.6884 132.602 25.4502C132.728 25.01 133.011 24.6301 133.399 24.3807C133.787 24.1314 134.253 24.0296 134.71 24.0943C135.163 24.1485 135.582 24.3586 135.894 24.6878C136.205 25.0171 136.39 25.4443 136.415 25.8947C136.415 26.0177 136.415 26.1407 136.415 26.2637V37.1106C136.556 36.9932 136.624 36.9316 136.697 36.8646C139.053 34.5806 141.408 32.2975 143.763 30.0154C143.955 29.8259 144.165 29.6563 144.392 29.5094C145.142 29.0383 146.06 29.132 146.629 29.7218C146.915 30.0207 147.088 30.408 147.118 30.8184C147.149 31.2287 147.035 31.6368 146.796 31.9737C146.612 32.2284 146.401 32.4627 146.167 32.6726C144.785 33.9427 143.398 35.2077 142.005 36.4676C141.918 36.5263 141.826 36.5906 141.732 36.6633Z" fill="white"/>
<path d="M156.079 37.0421C156.521 36.6143 156.965 36.188 157.407 35.7575C159.386 33.8397 161.361 31.9224 163.331 30.0056C163.525 29.8172 163.736 29.6478 163.962 29.4996C164.704 29.0229 165.633 29.1096 166.202 29.6911C166.491 29.9872 166.667 30.3734 166.7 30.7838C166.734 31.1941 166.623 31.6033 166.385 31.9415C166.196 32.2055 165.977 32.4478 165.734 32.6642C164.369 33.9222 162.995 35.1648 161.624 36.4145C161.534 36.4969 161.445 36.5808 161.342 36.68C161.402 36.7681 161.456 36.8506 161.515 36.9288C163.094 38.9715 164.672 41.0127 166.251 43.0526C166.402 43.2469 166.555 43.4426 166.686 43.6508C167.079 44.2728 167.11 44.9186 166.727 45.549C166.344 46.1794 165.738 46.3877 165.019 46.3751C164.359 46.3598 163.856 46.055 163.464 45.5462C163.11 45.0836 162.758 44.6195 162.404 44.1484L158.804 39.4183C158.737 39.3316 158.662 39.2478 158.582 39.1388C158.5 39.2072 158.431 39.259 158.367 39.3177C157.645 39.9942 156.928 40.6763 156.202 41.3459C156.135 41.403 156.081 41.4747 156.047 41.5554C156.012 41.6362 155.996 41.7237 156.001 41.8113C156.01 42.6817 156.01 43.553 156.001 44.4252C155.991 45.5127 155.258 46.2829 154.164 46.3709C153.911 46.3901 153.656 46.359 153.414 46.2794C153.173 46.1999 152.95 46.0734 152.759 45.9076C152.568 45.7417 152.412 45.5397 152.301 45.3135C152.189 45.0873 152.125 44.8414 152.111 44.5901C152.111 44.5119 152.111 44.4336 152.111 44.3553C152.111 38.2665 152.111 32.1782 152.111 26.0903C152.098 25.8334 152.136 25.5765 152.224 25.3342C152.311 25.092 152.446 24.8692 152.621 24.6786C152.886 24.3985 153.229 24.2028 153.606 24.1167C153.984 24.0305 154.379 24.0578 154.741 24.1949C155.106 24.3222 155.423 24.5564 155.65 24.8662C155.877 25.1761 156.004 25.547 156.013 25.9296C156.02 26.1085 156.013 26.2874 156.013 26.4664V37.0141L156.079 37.0421Z" fill="white"/>
<path d="M99.8657 29.0229C102.057 29.0467 104.03 29.6589 105.703 31.0958C106.284 31.5963 106.505 32.2281 106.3 32.9661C105.962 34.1892 104.449 34.6365 103.386 33.8453C103.071 33.6105 102.761 33.3645 102.425 33.1618C100.489 31.9974 98.1232 32.2169 96.532 33.7069C95.7544 34.4346 95.22 35.3797 95.0001 36.4159C94.6595 37.9353 94.8107 39.4057 95.6148 40.749C96.6111 42.4264 98.126 43.2273 100.092 43.1966C101.364 43.177 102.462 42.6947 103.447 41.9301C103.588 41.8197 103.729 41.6995 103.871 41.5989C104.209 41.3575 104.63 41.2555 105.043 41.3145C105.456 41.3734 105.83 41.5886 106.086 41.9148C106.355 42.2368 106.491 42.6469 106.469 43.0637C106.446 43.4805 106.266 43.8737 105.964 44.1652C104.824 45.2499 103.517 46.0425 101.956 46.3584C99.1746 46.9175 96.5744 46.5261 94.2879 44.7761C92.3843 43.3321 91.299 41.3752 91.0135 39.0116C90.7026 36.448 91.3273 34.1193 93.0089 32.1288C94.5182 30.3382 96.4755 29.3444 98.8185 29.097C99.1661 29.0593 99.5166 29.0467 99.8657 29.0229Z" fill="white"/>
</g>
<defs>
<clipPath id="clip0_4385_1257">
<rect width="139" height="46" fill="white" transform="translate(28 13)"/>
</clipPath>
</defs>
</svg>
