<svg width="110" height="58" viewBox="0 0 110 58" fill="none" xmlns="http://www.w3.org/2000/svg">
<path d="M42.4616 52.354V56.6705L42.7835 56.7231C43.7918 56.9079 44.8089 57.0357 45.8314 57.1066C46.7241 57.1883 47.6222 57.2066 48.517 57.1593C49.3693 57.0991 50.2118 56.9444 51.0281 56.6963C51.9906 56.4277 52.8843 55.9593 53.6471 55.3212C54.3335 54.7432 54.8584 54.0009 55.1716 53.1662C55.726 51.7728 55.726 50.2237 55.1716 48.8304C54.8802 48.1128 54.4208 47.4736 53.8283 46.9665C53.2444 46.4498 52.5591 46.0587 51.8138 45.8159L48.504 44.6063C48.1078 44.4419 47.7859 44.1411 47.5971 43.7598C47.452 43.4418 47.4662 43.0744 47.6375 42.7682C47.6975 42.6618 47.7717 42.5641 47.859 42.4771C47.9594 42.3761 48.0729 42.2869 48.1951 42.2128L48.3424 42.1269C48.7135 41.9464 49.1129 41.8325 49.5243 41.7895C50.2227 41.6832 50.9342 41.6832 51.6326 41.7895C52.4565 41.8765 53.2728 42.0205 54.0771 42.2192L54.2451 42.259V38.2927L53.9298 38.2261C53.096 38.022 52.2514 37.8673 51.398 37.7631C50.3122 37.6245 49.2133 37.6245 48.1286 37.7631C46.7514 37.8877 45.4418 38.4077 44.3615 39.2574C43.6282 39.8225 43.0705 40.5777 42.7497 41.4382C42.2706 42.7499 42.2706 44.1852 42.7497 45.4969C42.9963 46.149 43.3914 46.7366 43.9042 47.2157C44.3495 47.6401 44.8537 48 45.4015 48.2868C46.1195 48.6714 46.8812 48.9711 47.6713 49.1795L48.4505 49.4245L48.8401 49.563L48.9546 49.6092C49.3431 49.7553 49.6956 49.9799 49.9892 50.2699C50.1921 50.4536 50.3504 50.6792 50.453 50.9306C50.513 51.1691 50.513 51.4194 50.453 51.6579C50.3253 52.0403 50.0503 52.3583 49.688 52.5431C49.294 52.7451 48.8663 52.8772 48.4254 52.9331C47.7793 53.0351 47.1246 53.0673 46.472 53.0319C45.6154 52.9674 44.7642 52.8557 43.9206 52.6946C43.4732 52.6065 43.0258 52.5055 42.5773 52.3905L42.4158 52.3508" fill="#12A4DB"/>
<path d="M24.4674 56.5181V51.5012L24.367 51.541C23.219 52.0899 21.9694 52.4026 20.6938 52.4595C19.3689 52.5658 18.0507 52.1845 16.9943 51.3884C16.2381 50.818 15.6761 50.0338 15.3825 49.141C15.0584 48.1688 15.0213 47.1257 15.2756 46.1341C15.5124 45.12 16.0897 44.2144 16.9136 43.5634C17.6404 42.9618 18.5287 42.5804 19.4715 42.4665C21.1466 42.2839 22.8392 42.5976 24.3331 43.3657L24.4401 43.4183V38.3746L24.2055 38.3155C22.7104 37.8439 21.1412 37.6419 19.573 37.7203C18.1478 37.7558 16.7444 38.0706 15.4436 38.6453C14.1407 39.2426 12.9916 40.1235 12.0869 41.2236C9.22558 44.7848 9.14919 49.7931 11.8992 53.4382C13.248 55.1388 15.1414 56.3409 17.2704 56.849C19.5239 57.3872 21.8832 57.3045 24.092 56.6116L24.4685 56.5128" fill="#12A4DB"/>
<path d="M35.9279 56.8488V38.0371H31.1078V56.8488H35.9279Z" fill="#12A4DB"/>
<path d="M0 22.9209C0.0993057 24.2165 1.24623 25.1887 2.56231 25.0909C3.74088 25.0039 4.67828 24.0811 4.76667 22.9209V17.7063C4.76667 16.4108 3.69941 15.3601 2.38225 15.3601C1.06726 15.3601 0 16.4108 0 17.7063V22.9209Z" fill="#12A4DB"/>
<path d="M13.1871 22.9209C13.2864 24.2165 14.4334 25.1887 15.7494 25.091C16.928 25.004 17.8654 24.0811 17.9538 22.9209V11.2349C17.9538 9.93932 16.8865 8.88867 15.5705 8.88867C14.2544 8.88867 13.1871 9.93932 13.1871 11.2349V22.9209Z" fill="#12A4DB"/>
<path d="M26.306 27.6273C26.4053 28.9229 27.5523 29.8951 28.8683 29.7973C30.0469 29.7103 30.9843 28.7875 31.0727 27.6273V2.34516C31.0727 1.0485 30.0044 -0.00107346 28.6883 8.23942e-07C27.3733 0.0010751 26.3071 1.05065 26.306 2.34516V27.6273Z" fill="#12A4DB"/>
<path d="M39.4996 22.9208C39.5989 24.2164 40.7459 25.1886 42.0619 25.0909C43.2405 25.0039 44.1779 24.081 44.2663 22.9208V11.2348C44.2652 9.93922 43.1979 8.88857 41.8808 8.88965C40.5658 8.89072 39.4996 9.9403 39.4985 11.2348V22.9208" fill="#12A4DB"/>
<path d="M52.6266 22.9208C52.7259 24.2164 53.8728 25.1886 55.1889 25.0908C56.3675 25.0038 57.3049 24.081 57.3933 22.9208V17.7062C57.3922 16.4107 56.3249 15.36 55.0077 15.3611C53.6928 15.3622 52.6266 16.4117 52.6255 17.7062V22.9208" fill="#12A4DB"/>
<path d="M65.8003 22.9208C65.8996 24.2164 67.0466 25.1886 68.3626 25.0909C69.5412 25.0039 70.4786 24.081 70.567 22.9208V11.2348C70.5659 9.93922 69.4987 8.88857 68.1815 8.88965C66.8665 8.89072 65.8003 9.9403 65.7993 11.2348V22.9208" fill="#12A4DB"/>
<path d="M78.9262 27.6273C79.0255 28.9229 80.1724 29.8951 81.4885 29.7973C82.6671 29.7103 83.6045 28.7875 83.6929 27.6273V2.34516C83.6929 1.0485 82.6245 -0.00107346 81.3085 8.23942e-07C79.9935 0.0010751 78.9273 1.05065 78.9262 2.34516V27.6273Z" fill="#12A4DB"/>
<path d="M92.0935 22.9209C92.1928 24.2165 93.3397 25.1887 94.6558 25.091C95.8344 25.004 96.7718 24.0811 96.8602 22.9209V11.2349C96.8602 9.93932 95.7929 8.88867 94.4768 8.88867C93.1608 8.88867 92.0935 9.93932 92.0935 11.2349V22.9209Z" fill="#12A4DB"/>
<path d="M105.233 22.9209C105.333 24.2165 106.48 25.1887 107.796 25.0909C108.974 25.0039 109.912 24.0811 110 22.9209V17.7063C110 16.4108 108.933 15.3601 107.617 15.3601C106.301 15.3601 105.233 16.4108 105.233 17.7063V22.9209Z" fill="#12A4DB"/>
<path d="M74.811 56.5181V51.5012L74.7106 51.541C73.5626 52.0899 72.3131 52.4026 71.0374 52.4595C69.7148 52.5637 68.3987 52.1823 67.3445 51.3884C66.5883 50.818 66.0263 50.0338 65.7327 49.141C65.4086 48.1688 65.3715 47.1257 65.6258 46.1341C65.8626 45.12 66.4399 44.2144 67.2638 43.5634C67.9928 42.9607 68.8832 42.5793 69.8283 42.4665C71.5034 42.2839 73.1959 42.5976 74.6899 43.3657L74.7968 43.4183V38.3746L74.5622 38.3155C73.0672 37.8439 71.4979 37.6419 69.9298 37.7203C68.5046 37.7558 67.1012 38.0706 65.8004 38.6453C64.4974 39.2426 63.3494 40.1246 62.4436 41.2236C59.5823 44.7848 59.5059 49.7931 62.2559 53.4382C63.6048 55.1388 65.4981 56.3409 67.6272 56.849C69.8807 57.3872 72.24 57.3045 74.4487 56.6116L74.8252 56.5128" fill="#12A4DB"/>
<path d="M79.8994 47.4499C80.0129 52.9245 84.6137 57.2721 90.1748 57.1604C90.8263 57.1475 91.4756 57.0723 92.1129 56.9348C97.434 55.9303 100.921 50.8704 99.9003 45.6322C99.3775 42.9455 97.721 40.6035 95.3431 39.1876C90.5917 36.2914 84.3551 37.7352 81.413 42.4126C80.4603 43.9284 79.9376 45.6677 79.8994 47.4499ZM86.8956 43.59C89.065 41.8884 92.2242 42.2397 93.9528 44.3753C95.6814 46.511 95.3246 49.6211 93.1551 51.3227C90.9857 53.0244 87.8264 52.6731 86.0978 50.5374C85.2663 49.5104 84.8843 48.1998 85.036 46.8945C85.1877 45.5936 85.8567 44.4054 86.8956 43.59Z" fill="#12A4DB"/>
</svg>
