<svg width="196" height="73" viewBox="0 0 196 73" fill="none" xmlns="http://www.w3.org/2000/svg">
<rect width="196" height="73" fill=""/>
<path d="M86.9892 56.3738V60.0323L87.2621 60.077C88.1167 60.2336 88.9787 60.3419 89.8454 60.402C90.602 60.4712 91.3632 60.4867 92.1217 60.4466C92.844 60.3956 93.5581 60.2645 94.2499 60.0542C95.0657 59.8266 95.8232 59.4296 96.4698 58.8887C97.0515 58.3988 97.4964 57.7697 97.7619 57.0622C98.2317 55.8812 98.2317 54.5682 97.7619 53.3873C97.5149 52.779 97.1255 52.2373 96.6233 51.8075C96.1285 51.3695 95.5476 51.0381 94.9159 50.8323L92.1106 49.8071C91.7748 49.6678 91.502 49.4128 91.3419 49.0896C91.2189 48.82 91.2309 48.5086 91.3762 48.2491C91.427 48.159 91.4899 48.0761 91.5639 48.0024C91.649 47.9168 91.7452 47.8412 91.8488 47.7784L91.9737 47.7056C92.2881 47.5526 92.6267 47.4561 92.9754 47.4197C93.5673 47.3295 94.1704 47.3295 94.7623 47.4197C95.4607 47.4934 96.1525 47.6154 96.8342 47.7839L96.9766 47.8176V44.4559L96.7093 44.3994C96.0027 44.2264 95.2868 44.0953 94.5635 44.007C93.6432 43.8895 92.7118 43.8895 91.7924 44.007C90.6251 44.1126 89.5152 44.5533 88.5995 45.2735C87.978 45.7525 87.5053 46.3926 87.2334 47.1219C86.8274 48.2337 86.8274 49.4501 87.2334 50.5619C87.4424 51.1146 87.7773 51.6127 88.212 52.0187C88.5893 52.3784 89.0167 52.6834 89.481 52.9265C90.0896 53.2525 90.7352 53.5066 91.4048 53.6832L92.0652 53.8908L92.3954 54.0083L92.4926 54.0474C92.8218 54.1712 93.1206 54.3615 93.3694 54.6074C93.5414 54.7631 93.6755 54.9543 93.7625 55.1674C93.8134 55.3695 93.8134 55.5817 93.7625 55.7838C93.6543 56.1079 93.4212 56.3775 93.1141 56.5341C92.7802 56.7053 92.4176 56.8172 92.044 56.8646C91.4964 56.9511 90.9414 56.9784 90.3883 56.9484C89.6623 56.8937 88.9408 56.799 88.2258 56.6625C87.8466 56.5878 87.4674 56.5022 87.0873 56.4048L86.9504 56.3711" fill="white"/>
<path d="M71.7379 59.9031V55.6509L71.6528 55.6846C70.6798 56.1499 69.6207 56.4149 68.5395 56.4631C67.4166 56.5533 66.2993 56.23 65.404 55.5553C64.763 55.0718 64.2866 54.4071 64.0378 53.6505C63.7631 52.8265 63.7317 51.9423 63.9472 51.1019C64.1479 50.2424 64.6372 49.4748 65.3355 48.923C65.9515 48.4131 66.7044 48.0899 67.5035 47.9934C68.9233 47.8386 70.3579 48.1044 71.6241 48.7555L71.7148 48.8001V44.5251L71.5159 44.4751C70.2487 44.0753 68.9187 43.9042 67.5896 43.9706C66.3816 44.0007 65.1921 44.2675 64.0896 44.7546C62.9853 45.2609 62.0113 46.0075 61.2445 46.9399C58.8194 49.9583 58.7546 54.2032 61.0855 57.2926C62.2287 58.734 63.8334 59.7529 65.638 60.1836C67.5479 60.6397 69.5476 60.5696 71.4197 59.9823L71.7388 59.8986" fill="white"/>
<path d="M81.4515 60.1834V44.2391H77.3661V60.1834H81.4515Z" fill="white"/>
<path d="M51 31.427C51.0842 32.5251 52.0563 33.3491 53.1717 33.2663C54.1707 33.1925 54.9652 32.4104 55.0401 31.427V27.0073C55.0401 25.9092 54.1355 25.0187 53.0191 25.0187C51.9046 25.0187 51 25.9092 51 27.0073V31.427Z" fill="white"/>
<path d="M62.177 31.4271C62.2612 32.5252 63.2333 33.3492 64.3488 33.2664C65.3477 33.1926 66.1422 32.4105 66.2171 31.4271V21.5224C66.2171 20.4243 65.3126 19.5338 64.1971 19.5338C63.0816 19.5338 62.177 20.4243 62.177 21.5224V31.4271Z" fill="white"/>
<path d="M73.2963 35.4161C73.3804 36.5142 74.3525 37.3382 75.468 37.2554C76.4669 37.1816 77.2614 36.3995 77.3364 35.4161V13.9877C77.3364 12.8887 76.4309 11.9991 75.3154 12C74.2008 12.0009 73.2972 12.8905 73.2963 13.9877V35.4161Z" fill="white"/>
<path d="M84.4788 31.4271C84.563 32.5252 85.5351 33.3492 86.6505 33.2664C87.6494 33.1926 88.444 32.4105 88.5189 31.4271V21.5224C88.518 20.4243 87.6134 19.5338 86.497 19.5347C85.3824 19.5356 84.4788 20.4252 84.4779 21.5224V31.4271" fill="white"/>
<path d="M95.6048 31.427C95.689 32.5251 96.6611 33.3491 97.7766 33.2663C98.7755 33.1925 99.57 32.4104 99.6449 31.427V27.0073C99.644 25.9092 98.7394 25.0187 97.623 25.0196C96.5085 25.0205 95.6048 25.9101 95.6039 27.0073V31.427" fill="white"/>
<path d="M106.77 31.4271C106.855 32.5252 107.827 33.3492 108.942 33.2664C109.941 33.1926 110.736 32.4105 110.811 31.4271V21.5224C110.81 20.4243 109.905 19.5338 108.789 19.5347C107.674 19.5356 106.771 20.4252 106.77 21.5224V31.4271" fill="white"/>
<path d="M117.896 35.4161C117.98 36.5142 118.952 37.3382 120.067 37.2554C121.066 37.1816 121.861 36.3995 121.936 35.4161V13.9877C121.936 12.8887 121.03 11.9991 119.915 12C118.8 12.0009 117.897 12.8905 117.896 13.9877V35.4161Z" fill="white"/>
<path d="M129.056 31.4271C129.14 32.5252 130.112 33.3492 131.228 33.2664C132.226 33.1926 133.021 32.4105 133.096 31.4271V21.5224C133.096 20.4243 132.191 19.5338 131.076 19.5338C129.96 19.5338 129.056 20.4243 129.056 21.5224V31.4271Z" fill="white"/>
<path d="M140.193 31.427C140.277 32.5251 141.249 33.3491 142.365 33.2663C143.363 33.1925 144.158 32.4104 144.233 31.427V27.0073C144.233 25.9092 143.328 25.0187 142.213 25.0187C141.097 25.0187 140.193 25.9092 140.193 27.0073V31.427Z" fill="white"/>
<path d="M114.408 59.9031V55.6509L114.323 55.6846C113.35 56.1499 112.291 56.4149 111.209 56.4631C110.088 56.5514 108.973 56.2282 108.079 55.5553C107.438 55.0718 106.962 54.4071 106.713 53.6505C106.439 52.8265 106.407 51.9423 106.623 51.1019C106.823 50.2424 107.313 49.4748 108.011 48.923C108.629 48.4122 109.384 48.089 110.185 47.9934C111.604 47.8386 113.039 48.1044 114.305 48.7555L114.396 48.8001V44.5251L114.197 44.4751C112.93 44.0753 111.6 43.9042 110.271 43.9706C109.063 44.0007 107.873 44.2675 106.771 44.7546C105.666 45.2609 104.693 46.0084 103.926 46.9399C101.5 49.9583 101.436 54.2032 103.766 57.2926C104.91 58.734 106.514 59.7529 108.319 60.1836C110.229 60.6397 112.229 60.5696 114.101 59.9823L114.42 59.8986" fill="white"/>
<path d="M118.721 52.2173C118.817 56.8573 122.716 60.5422 127.43 60.4476C127.982 60.4366 128.532 60.3729 129.072 60.2563C133.582 59.405 136.537 55.1164 135.673 50.6766C135.23 48.3994 133.826 46.4144 131.81 45.2144C127.783 42.7596 122.497 43.9833 120.003 47.9478C119.196 49.2325 118.753 50.7067 118.721 52.2173ZM124.65 48.9457C126.489 47.5034 129.167 47.8012 130.632 49.6113C132.097 51.4215 131.794 54.0574 129.956 55.4997C128.117 56.942 125.439 56.6443 123.974 54.8341C123.269 53.9637 122.946 52.8528 123.074 51.7465C123.203 50.6439 123.77 49.6368 124.65 48.9457Z" fill="white"/>
</svg>
