<svg width="196" height="73" viewBox="0 0 196 73" fill="none" xmlns="http://www.w3.org/2000/svg">
<rect width="196" height="73" fill=""/>
<g clip-path="url(#clip0_4385_1261)">
<path d="M133.37 49.807C136.371 45.7223 143.104 45.4475 146.579 49.0558C148.798 51.3508 149.497 54.9882 148.311 57.9474C147.605 59.8681 146.532 61.6212 145.571 63.4197C144.114 66.0739 142.669 68.7357 141.205 71.3862C139.214 71.3802 137.222 71.3892 135.231 71.3862C137.778 66.8175 140.338 62.2551 142.889 57.6882C143.199 57.1211 143.439 56.5136 143.594 55.8847C143.897 54.7013 143.509 53.3452 142.565 52.5538C141.452 51.5682 139.691 51.4635 138.436 52.2349C136.695 53.2533 136.437 55.7789 137.488 57.3758C138.174 58.355 139.416 58.6853 140.551 58.7559C139.724 60.3048 138.895 61.8525 138.053 63.3939C135.203 62.7549 132.84 60.4762 132.033 57.6808C131.29 55.0404 131.708 52.0257 133.369 49.8075" fill="white"/>
<path d="M85.96 46.297C85.5731 46.301 85.1863 46.3284 84.803 46.3799C81.3537 46.7467 78.2886 49.4627 77.5435 52.8539C77.1162 54.7267 77.2059 56.7583 78.0175 58.5173C78.993 60.7052 80.9525 62.3966 83.2239 63.1326C86.9847 64.4156 91.5572 62.9272 93.6269 59.4807C95.8622 55.9644 95.0749 50.8651 91.7728 48.2817C90.1505 46.9503 88.05 46.2766 85.9602 46.2968M56.7242 46.2988C54.1166 46.3147 51.5106 47.4139 49.8769 49.4945C47.1836 52.727 47.4142 57.9518 50.4062 60.9165C53.1376 63.8379 57.9379 64.4267 61.3322 62.3422C63.267 61.1852 64.6706 59.2156 65.1918 57.0274C63.7021 57.0061 62.2123 57.0244 60.7222 57.0184C60.3328 57.8174 59.8077 58.5749 59.0662 59.0866C57.7063 60.0747 55.7339 60.0646 54.36 59.1081C52.1078 57.5566 51.6085 54.1313 53.1716 51.9242C54.239 50.2959 56.5039 49.586 58.2923 50.3854C59.4278 50.8618 60.2584 51.8687 60.7242 52.9866C62.2151 52.9786 63.7048 52.9926 65.1958 52.9796C64.7862 50.6682 63.2209 48.637 61.2094 47.4645C59.8535 46.6714 58.2884 46.2908 56.7238 46.3003M117.258 46.3043C116.323 46.3023 115.388 46.3043 114.454 46.3187C114.457 52.0698 114.455 57.8207 114.454 63.5717C116.659 63.5707 118.866 63.5727 121.072 63.5707C123.389 63.5052 125.842 62.7942 127.42 61.0046C129.07 59.1544 129.508 56.5471 129.375 54.1434C129.254 51.5572 127.982 48.9811 125.779 47.5564C124.092 46.4725 122.021 46.2823 120.063 46.3049C119.128 46.3089 118.193 46.3044 117.258 46.3029M67.003 46.3049C67.004 52.0611 67.002 57.8159 67.004 63.5719C70.1965 63.5689 73.3873 63.5689 76.5805 63.5719C76.5835 62.2687 76.5805 60.9669 76.5815 59.6637C74.87 59.6627 73.1573 59.6637 71.4456 59.6637C71.4446 55.2112 71.4486 50.7577 71.4446 46.3057C69.9637 46.3017 68.484 46.3047 67.0032 46.3047M100.906 46.3047C99.4254 46.3047 97.9456 46.3017 96.4648 46.3057C96.485 50.0554 96.4157 53.8072 96.5026 57.5557C96.5026 59.4714 97.453 61.3543 99.0313 62.4488C100.321 63.2983 101.901 63.6006 103.427 63.5717C106.367 63.5707 109.309 63.5707 112.249 63.5727C112.252 57.8165 112.249 52.0617 112.25 46.3057H108.343V59.6967C106.62 59.6957 104.895 59.6997 103.172 59.6957C102.581 59.6947 101.945 59.528 101.553 59.0566C101.011 58.3937 100.933 57.4951 100.906 56.6722V46.3052M86.2204 50.0348C87.5801 50.0704 88.8868 50.7973 89.6586 51.9162C91.2278 54.0638 90.7992 57.4301 88.6137 59.0002C87.0219 60.1988 84.6009 60.0212 83.158 58.665C81.2587 56.9093 81.0569 53.6751 82.6651 51.6646C83.4427 50.6639 84.6836 50.0602 85.9483 50.0362C86.0392 50.0322 86.1302 50.0312 86.2208 50.0342M120.41 50.1991C121.558 50.2021 122.705 50.3221 123.583 51.1418C125.123 52.6252 125.208 55.0601 124.683 57.0089C124.397 58.0133 123.691 58.917 122.713 59.3217C121.499 59.846 120.151 59.662 118.867 59.6961C118.866 56.5352 118.866 53.3743 118.867 50.2124C119.365 50.2204 119.888 50.1983 120.41 50.1998" fill="white"/>
<path d="M91.07 3.989C94.667 1.2238 100.263 1.3335 103.672 4.36584C105.991 6.39744 106.997 9.66304 106.597 12.6764C106.285 14.49 105.462 16.1625 104.625 17.7845C103.192 20.406 101.761 23.0312 100.318 25.6477C103.038 27.1588 105.753 28.6775 108.47 30.1912C109.139 30.5794 109.858 30.8882 110.605 31.0936C111.892 31.4579 113.385 31.1176 114.319 30.1396C115.712 28.7432 115.731 26.2288 114.356 24.8147C113.088 23.4435 110.864 23.3716 109.291 24.2223C108.066 24.9382 107.632 26.4279 107.563 27.7613C105.854 26.8224 104.13 25.9149 102.414 24.9873C103.016 22.3343 104.885 20.0405 107.335 18.8722C111.155 17.0246 116.234 17.8803 118.991 21.1925C121.929 24.763 121.873 30.5113 118.78 33.9725C117.062 35.9323 114.446 36.967 111.866 36.9771C109.725 37.0678 107.739 36.1125 105.859 35.2038C98.7827 31.3875 91.7694 27.4566 84.7164 23.5948C83.6514 23.0743 82.4453 22.613 81.2442 22.8827C80.004 23.0932 78.9416 24.0296 78.5194 25.2067C78.0355 26.5842 78.314 28.2592 79.3803 29.2952C80.6406 30.5618 82.7402 30.6362 84.2715 29.8536C85.5621 29.1742 86.0145 27.6405 86.0952 26.2818C87.8105 27.2043 89.5372 28.108 91.2373 29.057C90.3715 33.085 86.472 36.1161 82.3759 36.1035C79.8868 36.2093 77.3321 35.3939 75.4844 33.6975C71.3064 29.9329 71.5421 22.3725 76.0491 18.9565C78.6895 16.9526 82.4263 16.4585 85.4763 17.7831C88.8956 19.1745 91.9783 21.2515 95.2993 22.8496C96.8961 19.9912 98.4993 17.1365 100.092 14.2756C100.688 13.1022 101.182 11.736 100.779 10.419C100.336 8.68225 98.479 7.55425 96.7297 7.78735C95.1114 7.89322 93.6545 9.19135 93.4201 10.8071C93.255 12.0359 93.4261 13.4248 94.3049 14.3663C95.1115 15.2119 96.3126 15.4829 97.4368 15.5661C96.5016 17.2776 95.6156 19.0181 94.6439 20.7082C91.0079 19.8889 88.1268 16.6436 87.6869 12.9534C87.2168 9.65505 88.3889 6.06065 91.0709 3.98865" fill="white"/>
</g>
<defs>
<clipPath id="clip0_4385_1261">
<rect width="100.89" height="69.39" fill="white" transform="translate(48 2)"/>
</clipPath>
</defs>
</svg>
