<svg width="74" height="69" viewBox="0 0 74 69" fill="none" xmlns="http://www.w3.org/2000/svg">
<circle cx="30" cy="30" r="30" fill="#F5F8FA" fill-opacity="0.5"/>
<path d="M29.2603 68.0466C27.1509 66.8301 25.0395 65.6241 22.9383 64.3949C22.6455 64.2328 22.4028 63.9906 22.2372 63.6954C22.0717 63.4002 21.9899 63.0638 22.001 62.7238C22.001 60.3791 22.001 58.0337 22.001 55.6876C22.001 54.8584 22.413 54.2796 23.099 53.8776C24.8314 52.8715 26.5556 51.8528 28.2942 50.8594C28.4383 50.7969 28.5588 50.6886 28.6379 50.5506C28.7169 50.4126 28.7503 50.2522 28.733 50.0933C28.7021 49.2514 28.7144 48.4095 28.733 47.5676C28.7536 45.6733 29.969 44.4315 31.8229 44.4294C36.6391 44.4294 41.4546 44.4294 46.2695 44.4294H47.0275C47.0275 43.3876 47.044 42.3794 47.009 41.3733C47.009 41.2302 46.7577 41.066 46.597 40.9671C45.052 40.0558 43.507 39.1571 41.9497 38.2499C40.5077 37.408 40.4521 37.3217 40.2708 35.6022C40.0813 35.6022 39.8815 35.5748 39.6796 35.5748C37.9884 35.5748 36.2951 35.5874 34.6018 35.5748C30.1543 35.5306 26.6998 32.5145 25.95 28.0419C25.1692 23.3821 28.4693 18.6927 33.0301 18.0003C33.6481 17.9076 33.9509 17.733 34.1816 17.0637C35.6236 12.8542 38.5075 10.1622 42.7819 9.27613C47.147 8.36057 50.8714 9.74128 53.8584 13.1278C54.1138 13.4161 54.2827 13.4709 54.6494 13.3383C55.4019 13.0453 56.2064 12.9177 57.0104 12.9639C57.8144 13.0101 58.5998 13.2291 59.3154 13.6065C60.031 13.9838 60.6606 14.5112 61.1632 15.154C61.6658 15.7969 62.03 16.5408 62.2321 17.3373C62.2563 17.52 62.3438 17.6878 62.4787 17.8102C62.6137 17.9327 62.7871 18.0016 62.9675 18.0045C67.038 18.6359 70.1218 22.3634 70.1465 26.6528C70.1712 30.9423 67.1678 34.7413 63.0911 35.3959C61.8037 35.6064 60.4688 35.5348 59.1545 35.5643C58.0298 35.5874 56.9051 35.5643 55.8174 35.5643C55.7577 35.6485 55.7185 35.68 55.7206 35.7095C55.7927 36.9239 55.185 37.648 54.1674 38.1973C52.5585 39.0687 51.0033 40.0431 49.4109 40.9461C49.259 41.0142 49.1327 41.1308 49.051 41.2784C48.9693 41.426 48.9366 41.5966 48.9577 41.7648C48.9845 42.6257 48.9577 43.4865 48.9577 44.421H63.9955C66.0802 44.421 67.2543 45.6144 67.2605 47.7317C67.2605 48.521 67.2832 49.3082 67.2502 50.0954C67.2325 50.2543 67.266 50.4149 67.3455 50.5527C67.425 50.6906 67.5463 50.7982 67.6911 50.8594C69.3802 51.8254 71.0488 52.8273 72.7421 53.785C73.6052 54.2733 74.009 54.9636 73.9945 55.9802C73.9657 58.1312 73.9698 60.2844 73.9945 62.4375C74.0247 62.8691 73.9295 63.3002 73.7211 63.6768C73.5126 64.0535 73.2 64.3589 72.8224 64.5549C71.02 65.5904 69.2319 66.6491 67.4356 67.6952C67.2111 67.8256 66.9701 67.933 66.7373 68.0508H65.833C63.8266 66.889 61.8243 65.7188 59.8076 64.5717C59.4176 64.3775 59.0934 64.0684 58.8768 63.6843C58.6602 63.3002 58.5611 62.8586 58.5922 62.4165C58.621 60.2654 58.621 58.113 58.5922 55.9591C58.564 55.516 58.6667 55.0744 58.8871 54.6916C59.1075 54.3088 59.4353 54.0024 59.8282 53.8123C61.5359 52.8441 63.2189 51.8297 64.9225 50.8531C65.0676 50.7918 65.1891 50.6838 65.2687 50.5456C65.3482 50.4073 65.3815 50.2463 65.3633 50.0869C65.3344 49.3187 65.3633 48.5505 65.3633 47.7717C65.3633 46.6815 65.0584 46.3784 63.9728 46.3784H48.966C48.966 47.6644 48.9804 48.8725 48.9557 50.0785C48.9388 50.239 48.9727 50.4008 49.0524 50.5402C49.1321 50.6796 49.2534 50.7892 49.3986 50.8531C51.1351 51.8444 52.8593 52.8631 54.5917 53.8691C54.9385 54.0463 55.2276 54.3222 55.4243 54.6636C55.6209 55.0049 55.7167 55.3971 55.7 55.7929C55.689 58.059 55.689 60.3265 55.7 62.5954C55.7189 62.9729 55.632 63.348 55.4496 63.6768C55.2672 64.0056 54.9967 64.2745 54.67 64.4518C52.61 65.6578 50.5233 66.849 48.4489 68.0466H47.5446C47.3139 67.9246 47.077 67.813 46.8504 67.6825C45.0561 66.6301 43.2681 65.5778 41.4656 64.5423C41.0932 64.3551 40.7833 64.0596 40.5747 63.693C40.3662 63.3264 40.2683 62.905 40.2935 62.4817C40.3155 60.2914 40.3155 58.1004 40.2935 55.9086C40.2687 55.4766 40.371 55.0469 40.5872 54.6748C40.8034 54.3027 41.1237 54.0053 41.5068 53.8207C42.6789 53.1683 43.8284 52.4758 44.982 51.796C45.6494 51.4024 46.5723 51.1519 46.9019 50.5605C47.2315 49.9691 47.0172 48.9946 47.0296 48.1906C47.0296 47.6055 47.0296 47.0203 47.0296 46.45C46.9438 46.4251 46.8564 46.4068 46.768 46.3952C41.765 46.3952 36.762 46.3952 31.7591 46.3952C31.0216 46.3952 30.6693 46.7783 30.6549 47.5507C30.6405 48.3926 30.6714 49.2345 30.6405 50.0764C30.624 50.2355 30.6581 50.3958 30.7379 50.5335C30.8177 50.6711 30.9389 50.7788 31.0834 50.8404C32.822 51.8339 34.5441 52.8547 36.2766 53.8586C36.6311 54.0413 36.926 54.3255 37.1253 54.6763C37.3247 55.0272 37.4198 55.4298 37.3992 55.835C37.3841 58.0646 37.3841 60.2935 37.3992 62.5217C37.4236 62.9173 37.3357 63.3116 37.146 63.6573C36.9564 64.003 36.6731 64.2855 36.3301 64.4707L30.1626 68.0487L29.2603 68.0466ZM52.5606 14.5611C50.0042 11.6482 46.8504 10.3769 43.0621 11.2167C39.4469 12.0144 37.117 14.3738 35.8893 17.9518C36.0922 17.9934 36.293 18.0454 36.4908 18.1076C37.2283 18.3854 37.9802 18.6359 38.6929 18.9705C38.805 19.0234 38.9053 19.0993 38.9875 19.1934C39.0697 19.2876 39.132 19.398 39.1707 19.5178C39.2093 19.6377 39.2234 19.7643 39.2121 19.89C39.2008 20.0156 39.1643 20.1375 39.1049 20.2481C38.9977 20.4739 38.8092 20.6486 38.5789 20.7357C38.3485 20.8228 38.0941 20.8155 37.8689 20.7154C37.7103 20.6543 37.564 20.5638 37.4116 20.4923C36.5284 20.0532 35.56 19.8223 34.5778 19.8165C33.5955 19.8107 32.6246 20.0301 31.7364 20.4586C30.3458 21.1043 29.2118 22.2145 28.5209 23.6064C27.83 24.9983 27.6234 26.5891 27.935 28.1169C28.2467 29.6448 29.0581 31.0187 30.2357 32.0127C31.4134 33.0067 32.8871 33.5615 34.4144 33.5858C36.258 33.6216 38.1017 33.5858 39.9433 33.5858C40.0692 33.5769 40.1944 33.5601 40.3182 33.5353C40.3182 32.1336 40.345 30.7528 40.3182 29.3742C40.2956 28.3766 40.7076 27.7052 41.5542 27.2274C43.3258 26.2143 45.087 25.1851 46.838 24.1398C47.1899 23.9108 47.5987 23.7895 48.0159 23.7902C48.4331 23.791 48.8414 23.9137 49.1926 24.144C50.8776 25.1521 52.5647 26.1624 54.2848 27.1095C55.2962 27.6652 55.7618 28.4271 55.7041 29.6121C55.6444 30.9107 55.6917 32.2156 55.6917 33.5416C55.8165 33.5647 55.9423 33.5808 56.0687 33.59C57.968 33.59 59.8694 33.6321 61.7666 33.5753C66.2388 33.4406 69.3246 28.8102 67.8579 24.4892C67.5144 23.4636 66.9388 22.5354 66.1777 21.7802C65.4167 21.025 64.4918 20.4641 63.4785 20.1433C62.4651 19.8224 61.3919 19.7506 60.3463 19.9338C59.3006 20.117 58.3121 20.5499 57.4613 21.1973C56.8041 21.6835 56.2459 21.6625 55.8833 21.1384C55.5208 20.6143 55.6773 20.0987 56.3056 19.623C57.2559 18.8956 58.3451 18.38 59.5027 18.1097L60.3802 17.8992C60.3486 17.7527 60.3094 17.608 60.2628 17.4657C60.1981 17.285 60.1195 17.1097 60.028 16.9416C59.2781 15.6198 58.141 14.8979 56.6538 14.9105C55.1026 14.9252 53.9367 15.6893 53.2054 17.11C52.8511 17.7982 52.3361 18.0234 51.8005 17.7287C51.2649 17.4341 51.1495 16.8742 51.4977 16.2386C51.7964 15.6893 52.1651 15.1799 52.5606 14.5611ZM30.6529 65.4241C30.729 65.4217 30.8045 65.409 30.8774 65.3863C32.3194 64.5444 33.784 63.7025 35.2239 62.8395C35.2965 62.7775 35.3554 62.7003 35.3966 62.6132C35.4378 62.5261 35.4604 62.4311 35.4629 62.3344C35.4835 61.2399 35.4732 60.1455 35.4732 59.051V56.8116C33.8829 57.7377 32.3832 58.6027 30.898 59.4951C30.8257 59.559 30.7674 59.6378 30.727 59.7263C30.6865 59.8148 30.6648 59.911 30.6632 60.0087C30.6405 60.9874 30.6632 61.9661 30.6632 62.9553L30.6529 65.4241ZM60.5224 56.8052C60.5224 58.6848 60.5347 60.4612 60.5224 62.2376C60.5084 62.386 60.5408 62.5351 60.6148 62.6636C60.6888 62.7922 60.8006 62.8935 60.9344 62.9532C62.2445 63.7004 63.5443 64.4686 64.8483 65.2263C64.9863 65.3063 65.1346 65.3631 65.3489 65.4641C65.3489 64.1171 65.3489 62.8543 65.3489 61.5914C65.3489 60.9432 65.5281 60.1707 65.2479 59.6782C64.9678 59.1857 64.2179 58.9647 63.6721 58.6406C62.6503 58.0302 61.6265 57.4493 60.5224 56.8052ZM42.2257 56.8052C42.2257 58.7479 42.2257 60.5685 42.2402 62.3891C42.258 62.4931 42.2972 62.592 42.355 62.6794C42.4129 62.7668 42.4882 62.8407 42.5759 62.8964C43.917 63.7025 45.2704 64.4854 46.6238 65.2726C46.7569 65.3349 46.8947 65.3862 47.0358 65.4262C47.0358 63.532 47.0358 61.684 47.0358 59.8466C47.0286 59.7756 47.0064 59.7071 46.9709 59.6457C46.9353 59.5843 46.8872 59.5315 46.8298 59.4909C45.3157 58.6069 43.8202 57.7376 42.2278 56.8052H42.2257ZM67.2708 65.4347C67.35 65.4241 67.4279 65.4058 67.5036 65.3799C68.9456 64.538 70.3752 63.7193 71.7966 62.8543C71.8756 62.7863 71.9398 62.702 71.9849 62.607C72.03 62.512 72.0549 62.4084 72.0582 62.3028C72.0829 61.2273 72.0705 60.1539 72.0705 59.0784V56.8158C70.5626 57.6956 69.1577 58.529 67.7343 59.3415C67.5819 59.4057 67.4537 59.5184 67.3688 59.6628C67.2838 59.8072 67.2466 59.9757 67.2626 60.1434C67.2873 61.6588 67.2729 63.1742 67.2729 64.6896L67.2708 65.4347ZM48.968 38.8624C49.0495 38.8507 49.1296 38.8302 49.207 38.8014C50.649 37.9595 52.0909 37.1428 53.4999 36.2757C53.5788 36.2073 53.6426 36.1226 53.687 36.0272C53.7314 35.9318 53.7554 35.8278 53.7574 35.7221C53.7822 34.5351 53.7698 33.3438 53.7698 32.1441V30.2477C52.1548 31.1906 50.6448 32.0683 49.1431 32.9607C49.0933 32.9995 49.0525 33.049 49.0237 33.1058C48.9948 33.1625 48.9786 33.2251 48.9763 33.289C48.966 35.1202 48.968 36.9597 48.968 38.8624ZM24.0136 56.8621C23.9703 56.9463 23.9394 56.9778 23.9394 57.0073C23.9394 58.8111 23.923 60.6148 23.9394 62.4186C23.9562 62.5141 23.9926 62.605 24.0462 62.6852C24.0999 62.7653 24.1695 62.833 24.2505 62.8837C24.9715 63.3341 25.711 63.7488 26.4443 64.176L28.7227 65.5062V64.839C28.7227 63.593 28.6382 62.3386 28.7474 61.101C28.8463 59.975 28.5023 59.3225 27.4826 58.8447C26.2837 58.2828 25.1692 57.5314 24.0136 56.8621ZM53.7698 56.8137C52.1713 57.7461 50.6798 58.6132 49.1864 59.5056C49.1215 59.5649 49.0696 59.6376 49.0341 59.7189C48.9986 59.8001 48.9803 59.8881 48.9804 59.9771C48.966 61.724 48.9804 63.4709 48.9804 65.2179C48.9951 65.3044 49.0207 65.3886 49.0566 65.4683C50.5933 64.5738 52.0909 63.7067 53.5885 62.8227C53.6441 62.7788 53.6898 62.7231 53.7225 62.6596C53.7552 62.596 53.7741 62.526 53.778 62.4544C53.7719 60.6127 53.7698 58.7711 53.7698 56.8137ZM42.2814 30.2709C42.2605 30.3447 42.2447 30.42 42.234 30.4961C42.234 31.7231 42.234 32.9502 42.234 34.1772C42.234 34.8276 42.0548 35.6022 42.337 36.0926C42.6192 36.583 43.367 36.7955 43.919 37.1197C44.9222 37.709 45.9275 38.2899 46.9513 38.8855C46.9846 38.8189 47.0096 38.7481 47.0255 38.6751C47.0255 36.8924 47.0399 35.097 47.0255 33.3248C47.0079 33.2287 46.971 33.1374 46.9171 33.0566C46.8632 32.9758 46.7935 32.9073 46.7124 32.8555C46.1253 32.4808 45.5135 32.1441 44.9119 31.8031L42.2814 30.2709ZM43.1857 28.5345C44.7657 29.4521 46.2447 30.3193 47.7341 31.1654C47.8125 31.204 47.8979 31.2253 47.9849 31.2278C48.0719 31.2303 48.1584 31.2141 48.2388 31.1801C49.7467 30.3256 51.2402 29.4479 52.814 28.5302C51.2216 27.6042 49.6972 26.7139 48.1626 25.8278C48.1057 25.8037 48.0445 25.7924 47.983 25.7946C47.9216 25.7968 47.8613 25.8124 47.8062 25.8404C46.2921 26.7181 44.7801 27.6042 43.1857 28.5345ZM43.2413 55.0752C43.3058 55.1383 43.3747 55.1967 43.4473 55.2499C44.8893 56.0917 46.3107 56.9336 47.7568 57.7461C47.8537 57.7803 47.9567 57.7933 48.0589 57.7843C48.1611 57.7752 48.2603 57.7442 48.35 57.6934C49.3697 57.1252 50.377 56.5274 51.3864 55.9381C51.8375 55.675 52.2846 55.4077 52.7996 55.0962C51.2216 54.1743 49.7302 53.2967 48.2264 52.4358C48.154 52.4037 48.0756 52.388 47.9966 52.3898C47.9177 52.3916 47.8401 52.4109 47.7691 52.4463C46.2653 53.3093 44.7719 54.1849 43.2413 55.0836V55.0752ZM34.5029 55.1067C32.9291 54.187 31.4707 53.3198 29.9916 52.4884C29.8871 52.4475 29.7752 52.4295 29.6634 52.4357C29.5516 52.4419 29.4424 52.472 29.3427 52.5242C28.2551 53.1283 27.1859 53.7681 26.1106 54.3953L24.8994 55.1067C26.0427 55.7739 27.1653 56.2938 28.1397 57.0284C29.25 57.8702 30.1667 57.8492 31.2709 57.0284C32.2473 56.298 33.3638 55.7697 34.5029 55.1067ZM71.1044 55.1067C70.0353 54.4753 69.0753 53.9197 68.1154 53.3619C67.5283 53.023 66.9371 52.4232 66.3479 52.4253C65.7588 52.4274 65.1243 53.002 64.5228 53.3472C63.5361 53.9112 62.5556 54.49 61.4988 55.1067C62.8687 55.9065 64.1767 56.6158 65.4251 57.4219C66.0596 57.8429 66.5395 57.8429 67.1802 57.4219C68.4244 56.6158 69.7325 55.9086 71.1044 55.1046V55.1067Z" fill="#6F63DE"/>
</svg>
