<svg width="101" height="104" viewBox="0 0 101 104" fill="none" xmlns="http://www.w3.org/2000/svg">
<path d="M93.7291 49.6726V18.3069C93.7291 13.3575 89.7566 9.34521 84.8562 9.34521H13.8729C8.97254 9.34521 5 13.3575 5 18.3069V63.1151C5 68.0644 8.97254 72.0767 13.8729 72.0767C41.5936 72.0767 32.8241 72.0767 60.5448 72.0767" stroke="#6F63DE" stroke-width="4" stroke-linecap="round" stroke-linejoin="round"/>
<path d="M31.6191 89.9998H67.1108" stroke="#6F63DE" stroke-width="4" stroke-linecap="round" stroke-linejoin="round"/>
<path d="M49.3662 72.0767V89.9999" stroke="#6F63DE" stroke-width="4" stroke-linecap="round" stroke-linejoin="round"/>
<rect x="55" y="28" width="24" height="9" rx="2" stroke="#6F63DE" stroke-width="2"/>
<path d="M45.3333 28H26.6667C25.1939 28 24 29.1939 24 30.6667V49.3333C24 50.8061 25.1939 52 26.6667 52H45.3333C46.8061 52 48 50.8061 48 49.3333V30.6667C48 29.1939 46.8061 28 45.3333 28Z" stroke="#6F63DE" stroke-width="2" stroke-linecap="round" stroke-linejoin="round"/>
<path d="M31.333 37.3333C32.4376 37.3333 33.333 36.4378 33.333 35.3333C33.333 34.2287 32.4376 33.3333 31.333 33.3333C30.2284 33.3333 29.333 34.2287 29.333 35.3333C29.333 36.4378 30.2284 37.3333 31.333 37.3333Z" stroke="#6F63DE" stroke-width="2" stroke-linecap="round" stroke-linejoin="round"/>
<path d="M48.0003 43.9999L41.3337 37.3333L26.667 51.9999" stroke="#6F63DE" stroke-width="2" stroke-linecap="round" stroke-linejoin="round"/>
<path d="M75.0522 64.1477H73.2795C73.2113 63.7689 73.0844 63.4356 72.8988 63.1477C72.7132 62.8598 72.486 62.6155 72.217 62.4148C71.9481 62.214 71.6469 62.0625 71.3136 61.9602C70.9841 61.858 70.6337 61.8068 70.2625 61.8068C69.592 61.8068 68.9916 61.9754 68.4613 62.3125C67.9348 62.6496 67.5182 63.1439 67.2113 63.7955C66.9083 64.447 66.7568 65.2424 66.7568 66.1818C66.7568 67.1288 66.9083 67.928 67.2113 68.5795C67.5182 69.2311 67.9367 69.7235 68.467 70.0568C68.9973 70.3902 69.5939 70.5568 70.2568 70.5568C70.6242 70.5568 70.9727 70.5076 71.3022 70.4091C71.6356 70.3068 71.9367 70.1572 72.2057 69.9602C72.4746 69.7633 72.7019 69.5227 72.8875 69.2386C73.0769 68.9508 73.2075 68.6212 73.2795 68.25L75.0522 68.2557C74.9575 68.8277 74.7738 69.3542 74.5011 69.8352C74.2322 70.3125 73.8856 70.7254 73.4613 71.0739C73.0409 71.4186 72.5598 71.6856 72.0182 71.875C71.4765 72.0644 70.8856 72.1591 70.2454 72.1591C69.2379 72.1591 68.3401 71.9205 67.5522 71.4432C66.7644 70.9621 66.1432 70.2746 65.6886 69.3807C65.2379 68.4867 65.0125 67.4205 65.0125 66.1818C65.0125 64.9394 65.2397 63.8731 65.6943 62.983C66.1488 62.089 66.77 61.4034 67.5579 60.9261C68.3458 60.4451 69.2416 60.2045 70.2454 60.2045C70.8629 60.2045 71.4386 60.2936 71.9727 60.4716C72.5106 60.6458 72.9935 60.9034 73.4216 61.2443C73.8496 61.5814 74.2038 61.9943 74.4841 62.483C74.7644 62.9678 74.9538 63.5227 75.0522 64.1477ZM76.8331 60.3636H78.9638L82.6683 69.4091H82.8047L86.5092 60.3636H88.6399V72H86.9695V63.5795H86.8615L83.4297 71.983H82.0433L78.6115 63.5739H78.5036V72H76.8331V60.3636ZM97.2191 63.4205C97.1585 62.8826 96.9085 62.4659 96.4691 62.1705C96.0297 61.8712 95.4766 61.7216 94.81 61.7216C94.3327 61.7216 93.9198 61.7973 93.5713 61.9489C93.2229 62.0966 92.952 62.3011 92.7588 62.5625C92.5694 62.8201 92.4747 63.1136 92.4747 63.4432C92.4747 63.7197 92.5391 63.9583 92.6679 64.1591C92.8005 64.3598 92.9729 64.5284 93.185 64.6648C93.4009 64.7973 93.6319 64.9091 93.8782 65C94.1244 65.0871 94.3611 65.1591 94.5884 65.2159L95.7247 65.5114C96.096 65.6023 96.4766 65.7254 96.8668 65.8807C97.2569 66.036 97.6187 66.2405 97.952 66.4943C98.2854 66.7481 98.5543 67.0625 98.7588 67.4375C98.9672 67.8125 99.0713 68.2614 99.0713 68.7841C99.0713 69.4432 98.9009 70.0284 98.56 70.5398C98.2229 71.0511 97.7323 71.4545 97.0884 71.75C96.4482 72.0455 95.6736 72.1932 94.7645 72.1932C93.8933 72.1932 93.1395 72.0549 92.5032 71.7784C91.8668 71.5019 91.3687 71.1098 91.0088 70.6023C90.649 70.0909 90.4501 69.4848 90.4122 68.7841H92.1736C92.2077 69.2045 92.3441 69.5549 92.5827 69.8352C92.8251 70.1117 93.1338 70.3182 93.5088 70.4545C93.8876 70.5871 94.3024 70.6534 94.7532 70.6534C95.2494 70.6534 95.6907 70.5758 96.077 70.4205C96.4672 70.2614 96.774 70.0417 96.9975 69.7614C97.221 69.4773 97.3327 69.1458 97.3327 68.767C97.3327 68.4223 97.2342 68.1402 97.0372 67.9205C96.8441 67.7008 96.5808 67.5189 96.2475 67.375C95.9179 67.2311 95.5448 67.1042 95.1282 66.9943L93.7532 66.6193C92.8213 66.3655 92.0827 65.9924 91.5372 65.5C90.9956 65.0076 90.7247 64.3561 90.7247 63.5455C90.7247 62.875 90.9066 62.2898 91.2702 61.7898C91.6338 61.2898 92.1263 60.9015 92.7475 60.625C93.3687 60.3447 94.0694 60.2045 94.8497 60.2045C95.6376 60.2045 96.3327 60.3428 96.935 60.6193C97.541 60.8958 98.0183 61.2765 98.3668 61.7614C98.7153 62.2424 98.8971 62.7955 98.9122 63.4205H97.2191Z" fill="#6F63DE"/>
<line x1="79" y1="43" x2="59" y2="43" stroke="#6F63DE" stroke-width="2" stroke-linecap="round"/>
<line x1="79" y1="48" x2="61" y2="48" stroke="#6F63DE" stroke-width="2" stroke-linecap="round"/>
</svg>
