<svg width="340" height="93" viewBox="0 0 340 93" fill="none" xmlns="http://www.w3.org/2000/svg">
<rect width="340" height="93" rx="3.00121" fill="white"/>
<path d="M12.81 44.592C12.81 42.636 13.404 41.04 14.592 39.804C15.792 38.568 17.328 37.95 19.2 37.95C20.796 37.95 22.152 38.394 23.268 39.282C24.384 40.17 25.074 41.37 25.338 42.882H23.016C22.8 41.994 22.35 41.298 21.666 40.794C20.994 40.29 20.172 40.038 19.2 40.038C17.928 40.038 16.926 40.452 16.194 41.28C15.474 42.096 15.114 43.2 15.114 44.592C15.114 45.984 15.474 47.094 16.194 47.922C16.926 48.75 17.928 49.164 19.2 49.164C20.172 49.164 20.994 48.912 21.666 48.408C22.35 47.904 22.8 47.208 23.016 46.32H25.338C25.074 47.832 24.384 49.032 23.268 49.92C22.152 50.808 20.796 51.252 19.2 51.252C17.328 51.252 15.792 50.634 14.592 49.398C13.404 48.162 12.81 46.56 12.81 44.592ZM31.3613 51.216C29.9213 51.216 28.7513 50.742 27.8513 49.794C26.9633 48.846 26.5193 47.694 26.5193 46.338C26.5193 44.982 26.9633 43.83 27.8513 42.882C28.7513 41.922 29.9213 41.442 31.3613 41.442C32.8133 41.442 33.9833 41.922 34.8713 42.882C35.7713 43.83 36.2213 44.982 36.2213 46.338C36.2213 47.694 35.7713 48.846 34.8713 49.794C33.9833 50.742 32.8133 51.216 31.3613 51.216ZM28.6613 46.338C28.6613 47.226 28.9133 47.946 29.4173 48.498C29.9333 49.05 30.5813 49.326 31.3613 49.326C32.1533 49.326 32.8013 49.05 33.3053 48.498C33.8213 47.946 34.0793 47.226 34.0793 46.338C34.0793 45.438 33.8213 44.712 33.3053 44.16C32.8013 43.608 32.1533 43.332 31.3613 43.332C30.5813 43.332 29.9333 43.608 29.4173 44.16C28.9133 44.712 28.6613 45.438 28.6613 46.338ZM40.1556 51H38.0136V37.5H40.1556V51ZM46.7801 51.216C45.3401 51.216 44.1701 50.742 43.2701 49.794C42.3821 48.846 41.9381 47.694 41.9381 46.338C41.9381 44.982 42.3821 43.83 43.2701 42.882C44.1701 41.922 45.3401 41.442 46.7801 41.442C48.2321 41.442 49.4021 41.922 50.2901 42.882C51.1901 43.83 51.6401 44.982 51.6401 46.338C51.6401 47.694 51.1901 48.846 50.2901 49.794C49.4021 50.742 48.2321 51.216 46.7801 51.216ZM44.0801 46.338C44.0801 47.226 44.3321 47.946 44.8361 48.498C45.3521 49.05 46.0001 49.326 46.7801 49.326C47.5721 49.326 48.2201 49.05 48.7241 48.498C49.2401 47.946 49.4981 47.226 49.4981 46.338C49.4981 45.438 49.2401 44.712 48.7241 44.16C48.2201 43.608 47.5721 43.332 46.7801 43.332C46.0001 43.332 45.3521 43.608 44.8361 44.16C44.3321 44.712 44.0801 45.438 44.0801 46.338ZM58.4723 41.586V43.584C58.3043 43.56 58.1423 43.548 57.9863 43.548C56.3783 43.548 55.5743 44.412 55.5743 46.14V51H53.4323V41.658H55.4123V42.954C55.9403 42.03 56.8583 41.568 58.1663 41.568L58.4723 41.586ZM66.7099 43.944H69.8419C70.5379 43.944 71.0539 43.782 71.3899 43.458C71.7379 43.134 71.9119 42.684 71.9119 42.108C71.9119 41.532 71.7379 41.076 71.3899 40.74C71.0419 40.404 70.5259 40.236 69.8419 40.236H66.7099V43.944ZM66.7099 45.96V51H64.5319V38.22H69.8239C71.2759 38.22 72.3499 38.58 73.0459 39.3C73.7539 40.008 74.1079 40.944 74.1079 42.108C74.1079 43.26 73.7479 44.19 73.0279 44.898C72.3079 45.606 71.2399 45.96 69.8239 45.96H66.7099ZM80.6593 46.608L78.1753 46.986C77.0113 47.166 76.4293 47.61 76.4293 48.318C76.4293 49.134 76.9813 49.542 78.0853 49.542C78.9133 49.542 79.5493 49.32 79.9933 48.876C80.4373 48.432 80.6593 47.874 80.6593 47.202V46.608ZM77.6533 51.216C76.5493 51.216 75.7273 50.958 75.1873 50.442C74.6473 49.926 74.3773 49.242 74.3773 48.39C74.3773 46.758 75.5713 45.774 77.9593 45.438L80.6593 45.06V44.916C80.6593 43.776 79.9933 43.206 78.6613 43.206C77.4973 43.206 76.8373 43.668 76.6813 44.592H74.5933C74.6893 43.68 75.0673 42.93 75.7273 42.342C76.3993 41.742 77.3953 41.442 78.7153 41.442C80.0473 41.442 81.0493 41.748 81.7213 42.36C82.4053 42.972 82.7473 43.83 82.7473 44.934V49.236C82.7473 49.992 82.8373 50.58 83.0173 51H80.9833C80.9713 51 80.9533 50.958 80.9293 50.874C80.9173 50.778 80.8993 50.628 80.8753 50.424C80.8633 50.22 80.8573 50.004 80.8573 49.776C80.2213 50.736 79.1533 51.216 77.6533 51.216ZM87.2379 51H85.0959V37.5H87.2379V51ZM98.2365 46.95H91.1265C91.2105 47.694 91.4805 48.288 91.9365 48.732C92.3925 49.164 92.9925 49.38 93.7365 49.38C94.2285 49.38 94.6725 49.26 95.0685 49.02C95.4645 48.78 95.7465 48.456 95.9145 48.048H98.0745C97.7865 48.996 97.2465 49.764 96.4545 50.352C95.6745 50.928 94.7505 51.216 93.6825 51.216C92.2905 51.216 91.1625 50.754 90.2985 49.83C89.4465 48.906 89.0205 47.736 89.0205 46.32C89.0205 44.94 89.4525 43.782 90.3165 42.846C91.1805 41.91 92.2965 41.442 93.6645 41.442C95.0325 41.442 96.1365 41.904 96.9765 42.828C97.8285 43.74 98.2545 44.892 98.2545 46.284L98.2365 46.95ZM93.6645 43.188C92.9925 43.188 92.4345 43.386 91.9905 43.782C91.5465 44.178 91.2705 44.706 91.1625 45.366H96.1305C96.0345 44.706 95.7705 44.178 95.3385 43.782C94.9065 43.386 94.3485 43.188 93.6645 43.188ZM104.216 49.092V50.946C103.952 51.018 103.58 51.054 103.1 51.054C101.276 51.054 100.364 50.136 100.364 48.3V43.368H98.9425V41.658H100.364V39.228H102.506V41.658H104.252V43.368H102.506V48.084C102.506 48.816 102.854 49.182 103.55 49.182L104.216 49.092ZM109.966 49.092V50.946C109.702 51.018 109.33 51.054 108.85 51.054C107.026 51.054 106.114 50.136 106.114 48.3V43.368H104.692V41.658H106.114V39.228H108.256V41.658H110.002V43.368H108.256V48.084C108.256 48.816 108.604 49.182 109.3 49.182L109.966 49.092ZM119.932 46.95H112.822C112.906 47.694 113.176 48.288 113.632 48.732C114.088 49.164 114.688 49.38 115.432 49.38C115.924 49.38 116.368 49.26 116.764 49.02C117.16 48.78 117.442 48.456 117.61 48.048H119.77C119.482 48.996 118.942 49.764 118.15 50.352C117.37 50.928 116.446 51.216 115.378 51.216C113.986 51.216 112.858 50.754 111.994 49.83C111.142 48.906 110.716 47.736 110.716 46.32C110.716 44.94 111.148 43.782 112.012 42.846C112.876 41.91 113.992 41.442 115.36 41.442C116.728 41.442 117.832 41.904 118.672 42.828C119.524 43.74 119.95 44.892 119.95 46.284L119.932 46.95ZM115.36 43.188C114.688 43.188 114.13 43.386 113.686 43.782C113.242 44.178 112.966 44.706 112.858 45.366H117.826C117.73 44.706 117.466 44.178 117.034 43.782C116.602 43.386 116.044 43.188 115.36 43.188Z" fill="#181B23"/>
<rect x="210.02" y="25" width="50.0202" height="44.0178" fill="#006DF0"/>
<path d="M221.639 49.135C220.895 49.135 220.325 48.835 219.929 48.235C219.539 47.629 219.344 46.819 219.344 45.805C219.344 44.791 219.539 43.984 219.929 43.384C220.325 42.778 220.895 42.475 221.639 42.475C222.377 42.475 222.944 42.778 223.34 43.384C223.736 43.984 223.934 44.791 223.934 45.805C223.934 46.819 223.736 47.629 223.34 48.235C222.944 48.835 222.377 49.135 221.639 49.135ZM222.818 45.805C222.818 44.275 222.425 43.51 221.639 43.51C220.853 43.51 220.46 44.275 220.46 45.805C220.46 47.335 220.853 48.1 221.639 48.1C222.425 48.1 222.818 47.335 222.818 45.805ZM226.721 49.135C225.977 49.135 225.407 48.835 225.011 48.235C224.621 47.629 224.426 46.819 224.426 45.805C224.426 44.791 224.621 43.984 225.011 43.384C225.407 42.778 225.977 42.475 226.721 42.475C227.459 42.475 228.026 42.778 228.422 43.384C228.818 43.984 229.016 44.791 229.016 45.805C229.016 46.819 228.818 47.629 228.422 48.235C228.026 48.835 227.459 49.135 226.721 49.135ZM227.9 45.805C227.9 44.275 227.507 43.51 226.721 43.51C225.935 43.51 225.542 44.275 225.542 45.805C225.542 47.335 225.935 48.1 226.721 48.1C227.507 48.1 227.9 47.335 227.9 45.805ZM231.857 49.135C231.173 49.135 230.624 48.916 230.21 48.478C229.796 48.034 229.589 47.485 229.589 46.831C229.589 46.141 229.784 45.454 230.174 44.77C230.564 44.086 231.11 43.366 231.812 42.61H233.162C232.226 43.516 231.554 44.347 231.146 45.103C231.416 44.917 231.725 44.824 232.073 44.824C232.691 44.824 233.186 45.028 233.558 45.436C233.93 45.844 234.116 46.345 234.116 46.939C234.116 47.551 233.903 48.07 233.477 48.496C233.057 48.922 232.517 49.135 231.857 49.135ZM233 46.939C233 46.579 232.892 46.285 232.676 46.057C232.466 45.829 232.193 45.715 231.857 45.715C231.521 45.715 231.245 45.829 231.029 46.057C230.819 46.279 230.714 46.573 230.714 46.939C230.714 47.305 230.819 47.602 231.029 47.83C231.245 48.058 231.521 48.172 231.857 48.172C232.193 48.172 232.466 48.058 232.676 47.83C232.892 47.602 233 47.305 233 46.939ZM237.192 49H235.023V42.61H237.192C238.272 42.61 239.112 42.904 239.712 43.492C240.318 44.074 240.621 44.845 240.621 45.805C240.621 46.765 240.318 47.539 239.712 48.127C239.112 48.709 238.272 49 237.192 49ZM238.884 47.416C239.274 47.026 239.469 46.489 239.469 45.805C239.469 45.121 239.274 44.587 238.884 44.203C238.5 43.813 237.924 43.618 237.156 43.618H236.112V47.992H237.156C237.924 47.992 238.5 47.8 238.884 47.416ZM242.723 49H241.634V42.61H245.81V43.618H242.723V45.256H245.657V46.264H242.723V49ZM248.544 49.135C247.8 49.135 247.23 48.835 246.834 48.235C246.444 47.629 246.249 46.819 246.249 45.805C246.249 44.791 246.444 43.984 246.834 43.384C247.23 42.778 247.8 42.475 248.544 42.475C249.282 42.475 249.849 42.778 250.245 43.384C250.641 43.984 250.839 44.791 250.839 45.805C250.839 46.819 250.641 47.629 250.245 48.235C249.849 48.835 249.282 49.135 248.544 49.135ZM249.723 45.805C249.723 44.275 249.33 43.51 248.544 43.51C247.758 43.51 247.365 44.275 247.365 45.805C247.365 47.335 247.758 48.1 248.544 48.1C249.33 48.1 249.723 47.335 249.723 45.805Z" fill="white"/>
<rect x="274.04" y="25" width="50.0202" height="44.0178" fill="#FB9827"/>
<path d="M284.885 49H283.796V42.61H287.972V43.618H284.885V45.256H287.819V46.264H284.885V49ZM291.525 49H288.843V42.61H291.426C292.128 42.61 292.656 42.769 293.01 43.087C293.364 43.405 293.541 43.825 293.541 44.347C293.541 44.683 293.457 44.974 293.289 45.22C293.127 45.466 292.902 45.649 292.614 45.769C292.932 45.877 293.184 46.06 293.37 46.318C293.556 46.57 293.649 46.867 293.649 47.209C293.649 47.773 293.466 48.214 293.1 48.532C292.734 48.844 292.209 49 291.525 49ZM291.516 46.264H289.914V48.01H291.507C292.203 48.01 292.551 47.719 292.551 47.137C292.551 46.861 292.461 46.648 292.281 46.498C292.101 46.342 291.846 46.264 291.516 46.264ZM291.435 43.6H289.914V45.265H291.435C292.107 45.265 292.443 44.989 292.443 44.437C292.443 44.173 292.359 43.969 292.191 43.825C292.023 43.675 291.771 43.6 291.435 43.6ZM296.508 42.475C297.192 42.475 297.741 42.697 298.155 43.141C298.569 43.579 298.776 44.125 298.776 44.779C298.776 45.469 298.581 46.156 298.191 46.84C297.801 47.524 297.255 48.244 296.553 49H295.203C296.145 48.082 296.817 47.254 297.219 46.516C296.943 46.702 296.634 46.795 296.292 46.795C295.674 46.795 295.179 46.591 294.807 46.183C294.435 45.775 294.249 45.271 294.249 44.671C294.249 44.059 294.459 43.54 294.879 43.114C295.305 42.688 295.848 42.475 296.508 42.475ZM295.68 43.78C295.47 44.008 295.365 44.305 295.365 44.671C295.365 45.037 295.47 45.334 295.68 45.562C295.896 45.79 296.172 45.904 296.508 45.904C296.844 45.904 297.117 45.79 297.327 45.562C297.543 45.334 297.651 45.037 297.651 44.671C297.651 44.305 297.543 44.008 297.327 43.78C297.117 43.552 296.844 43.438 296.508 43.438C296.172 43.438 295.896 43.552 295.68 43.78ZM303.246 48.622C302.862 48.964 302.328 49.135 301.644 49.135C300.96 49.135 300.423 48.964 300.033 48.622C299.643 48.28 299.448 47.83 299.448 47.272C299.448 46.948 299.526 46.645 299.682 46.363C299.838 46.075 300.066 45.853 300.366 45.697C300.12 45.547 299.931 45.346 299.799 45.094C299.673 44.842 299.61 44.572 299.61 44.284C299.61 43.762 299.793 43.33 300.159 42.988C300.525 42.646 301.02 42.475 301.644 42.475C302.274 42.475 302.772 42.649 303.138 42.997C303.504 43.339 303.687 43.774 303.687 44.302C303.687 44.59 303.621 44.86 303.489 45.112C303.363 45.358 303.171 45.553 302.913 45.697C303.213 45.859 303.441 46.081 303.597 46.363C303.753 46.645 303.831 46.948 303.831 47.272C303.831 47.83 303.636 48.28 303.246 48.622ZM302.436 46.498C302.238 46.318 301.974 46.228 301.644 46.228C301.314 46.228 301.05 46.318 300.852 46.498C300.654 46.678 300.555 46.912 300.555 47.2C300.555 47.476 300.648 47.71 300.834 47.902C301.02 48.088 301.29 48.181 301.644 48.181C301.998 48.181 302.268 48.088 302.454 47.902C302.64 47.71 302.733 47.476 302.733 47.2C302.733 46.912 302.634 46.678 302.436 46.498ZM301.644 45.247C301.956 45.247 302.202 45.163 302.382 44.995C302.568 44.827 302.661 44.605 302.661 44.329C302.661 44.083 302.571 43.87 302.391 43.69C302.217 43.51 301.968 43.42 301.644 43.42C301.32 43.42 301.071 43.507 300.897 43.681C300.723 43.855 300.636 44.065 300.636 44.311C300.636 44.587 300.723 44.812 300.897 44.986C301.077 45.16 301.326 45.247 301.644 45.247ZM308.922 49H304.575V48.091L307.095 45.688C307.497 45.31 307.698 44.905 307.698 44.473C307.698 44.173 307.605 43.933 307.419 43.753C307.233 43.573 306.984 43.483 306.672 43.483C306.33 43.483 306.072 43.582 305.898 43.78C305.724 43.978 305.637 44.239 305.637 44.563L305.664 44.86H304.575C304.563 44.77 304.557 44.665 304.557 44.545C304.557 43.927 304.749 43.429 305.133 43.051C305.523 42.667 306.036 42.475 306.672 42.475C307.332 42.475 307.851 42.658 308.229 43.024C308.613 43.39 308.805 43.864 308.805 44.446C308.805 44.86 308.721 45.226 308.553 45.544C308.391 45.862 308.112 46.195 307.716 46.543L306.078 47.992H308.922V49ZM310.629 44.419H309.567V42.61H314.175V43.582C313.533 44.428 313.062 45.253 312.762 46.057C312.468 46.861 312.234 47.842 312.06 49H310.917C311.253 46.78 311.922 44.98 312.924 43.6H310.629V44.419Z" fill="white"/>
<rect x="146" y="25" width="50.0202" height="44.0178" fill="#122131"/>
<path d="M160.734 48.091V49H156.828V48.091H158.232V43.69H156.864V42.97L158.448 42.61H159.33V48.091H160.734ZM165.897 49H161.55V48.091L164.07 45.688C164.472 45.31 164.673 44.905 164.673 44.473C164.673 44.173 164.58 43.933 164.394 43.753C164.208 43.573 163.959 43.483 163.647 43.483C163.305 43.483 163.047 43.582 162.873 43.78C162.699 43.978 162.612 44.239 162.612 44.563L162.639 44.86H161.55C161.538 44.77 161.532 44.665 161.532 44.545C161.532 43.927 161.724 43.429 162.108 43.051C162.498 42.667 163.011 42.475 163.647 42.475C164.307 42.475 164.826 42.658 165.204 43.024C165.588 43.39 165.78 43.864 165.78 44.446C165.78 44.86 165.696 45.226 165.528 45.544C165.366 45.862 165.087 46.195 164.691 46.543L163.053 47.992H165.897V49ZM170.979 49H166.632V48.091L169.152 45.688C169.554 45.31 169.755 44.905 169.755 44.473C169.755 44.173 169.662 43.933 169.476 43.753C169.29 43.573 169.041 43.483 168.729 43.483C168.387 43.483 168.129 43.582 167.955 43.78C167.781 43.978 167.694 44.239 167.694 44.563L167.721 44.86H166.632C166.62 44.77 166.614 44.665 166.614 44.545C166.614 43.927 166.806 43.429 167.19 43.051C167.58 42.667 168.093 42.475 168.729 42.475C169.389 42.475 169.908 42.658 170.286 43.024C170.67 43.39 170.862 43.864 170.862 44.446C170.862 44.86 170.778 45.226 170.61 45.544C170.448 45.862 170.169 46.195 169.773 46.543L168.135 47.992H170.979V49ZM175.981 48.091V49H172.075V48.091H173.479V43.69H172.111V42.97L173.695 42.61H174.577V48.091H175.981ZM178.327 46.192V45.265H178.903C179.269 45.265 179.545 45.184 179.731 45.022C179.923 44.86 180.019 44.65 180.019 44.392C180.019 44.116 179.929 43.894 179.749 43.726C179.569 43.552 179.311 43.465 178.975 43.465C178.639 43.465 178.384 43.564 178.21 43.762C178.036 43.954 177.943 44.188 177.931 44.464H176.86C176.872 43.9 177.073 43.429 177.463 43.051C177.853 42.667 178.36 42.475 178.984 42.475C179.632 42.475 180.142 42.646 180.514 42.988C180.892 43.324 181.081 43.771 181.081 44.329C181.081 45.001 180.772 45.457 180.154 45.697C180.826 45.937 181.162 46.42 181.162 47.146C181.162 47.716 180.958 48.19 180.55 48.568C180.142 48.946 179.608 49.135 178.948 49.135C178.3 49.135 177.775 48.952 177.373 48.586C176.971 48.214 176.755 47.719 176.725 47.101H177.805C177.829 47.413 177.937 47.668 178.129 47.866C178.327 48.058 178.6 48.154 178.948 48.154C179.29 48.154 179.563 48.064 179.767 47.884C179.971 47.698 180.073 47.452 180.073 47.146C180.073 46.846 179.974 46.612 179.776 46.444C179.578 46.276 179.29 46.192 178.912 46.192H178.327ZM186.145 48.091V49H182.239V48.091H183.643V43.69H182.275V42.97L183.859 42.61H184.741V48.091H186.145Z" fill="white"/>
</svg>
