<svg width="76" height="76" viewBox="0 0 76 76" fill="none" xmlns="http://www.w3.org/2000/svg">
<circle cx="30" cy="30" r="30" fill="#F5F8FA" fill-opacity="0.5"/>
<path d="M45.7542 54.4134V53.5983C45.7542 42.4009 45.75 31.203 45.7417 20.0045C45.7417 19.4694 45.8576 19.3178 46.4123 19.3214C51.335 19.3463 56.2565 19.3463 61.1768 19.3214C61.6762 19.3214 61.8207 19.4355 61.794 19.9385C61.7494 20.8303 61.8064 21.7221 61.7708 22.6263C61.7565 23.0366 61.8992 23.1079 62.272 23.1061C65.4824 23.0918 68.6929 23.0972 71.9033 23.0972H72.5026C72.6096 23.3505 72.4384 23.5288 72.3653 23.7143C71.7606 25.2482 71.1506 26.7785 70.5228 28.3017C70.4576 28.4441 70.4238 28.599 70.4238 28.7556C70.4238 28.9123 70.4576 29.0671 70.5228 29.2095C71.1506 30.772 71.7713 32.3415 72.4116 33.9057C72.5632 34.2731 72.6132 34.4408 72.0852 34.4408C67.2422 34.4206 62.4004 34.4206 57.5597 34.4408C57.1602 34.4408 57.055 34.3266 57.0657 33.9432C57.0889 32.9872 57.0657 32.0294 57.0799 31.0734C57.0799 30.7488 57.0086 30.6257 56.6554 30.6275C53.7857 30.6418 50.9159 30.6471 48.0479 30.6275C47.5931 30.6275 47.6466 30.8683 47.6466 31.1483C47.6466 34.4777 47.6466 37.807 47.6466 41.1364V54.2261C47.857 54.2885 47.8838 54.103 47.9569 54.0156C50.1043 51.3997 52.2446 48.7778 54.3778 46.15C54.4791 46.0078 54.6154 45.8941 54.7735 45.82C54.9316 45.746 55.1062 45.714 55.2803 45.7273C56.4343 45.7523 57.59 45.7273 58.7708 45.6881C57.4795 45.2315 56.4147 44.5091 55.7565 43.2874C55.4293 42.703 55.2332 42.0545 55.1818 41.3868C55.1303 40.719 55.2248 40.0481 55.4587 39.4206C56.1864 37.3587 58.1982 36.1352 60.4527 36.3546C61.4475 36.4715 62.379 36.9028 63.1117 37.5858C63.8444 38.2687 64.34 39.1677 64.5264 40.1518C64.9438 42.6489 63.8041 44.4324 60.8576 45.7327H64.1233C64.373 45.7327 64.4979 45.524 64.6584 45.376C66.7606 43.5115 68.8605 41.6459 70.958 39.7791C71.3073 39.4453 71.7443 39.2178 72.218 39.1231C72.6917 39.0283 73.1826 39.0703 73.6334 39.244C74.6215 39.5847 75.1994 40.3141 75.3599 41.3415C75.5204 42.3688 75.1048 43.1554 74.3611 43.8278C71.939 46.0198 69.5793 48.2868 67.0823 50.3896C65.9247 51.3634 65.5109 52.3694 65.5323 53.8819C65.6233 60.3955 65.5769 66.902 65.5591 73.4282C65.5591 73.9151 65.659 74.0524 66.1655 74.0471C68.9354 74.0185 71.7053 74.0471 74.4752 74.0239C74.889 74.0239 75.0103 74.122 75.0103 74.5447C74.9943 75.9323 75.0103 75.9323 73.6173 75.9323C55.4462 75.9323 37.2744 75.9371 19.1021 75.9466C18.5224 75.9466 18.3672 75.811 18.3886 75.2332C18.4368 74.0328 18.4029 74.031 19.6015 74.031C22.152 74.031 24.7025 74.031 27.2531 74.0399C27.6829 74.0399 27.8541 73.9811 27.8523 73.4799C27.8238 66.4228 27.819 59.3688 27.8381 52.3177C27.8451 52.1531 27.8132 51.9891 27.745 51.8392C27.6768 51.6892 27.5743 51.5574 27.4457 51.4544C24.6371 48.9146 21.8351 46.3682 19.0397 43.8153C17.8054 42.6863 17.6538 41.0811 18.6722 39.9503C19.6907 38.8195 21.3209 38.791 22.5587 39.8896C24.63 41.7291 26.699 43.5722 28.7655 45.4188C28.8771 45.5285 29.01 45.6142 29.1561 45.6703C29.3021 45.7265 29.4582 45.7519 29.6145 45.7452C30.5242 45.7237 31.4338 45.7452 32.3648 45.6863C31.0985 45.2475 30.0569 44.5377 29.3987 43.3676C29.0699 42.8075 28.8641 42.1838 28.7952 41.5379C28.7263 40.8921 28.7959 40.239 28.9992 39.6221C29.6823 37.4551 31.7085 36.1423 34.0253 36.3599C36.2067 36.5668 37.9242 38.3219 38.1918 40.6084C38.4522 42.8236 37.0556 44.7767 34.5889 45.7452C35.3987 45.7452 36.2209 45.8254 37.02 45.7255C38.215 45.5757 38.9712 46.0305 39.6953 46.974C41.6198 49.4532 43.6585 51.8504 45.7542 54.4134ZM39.1549 54.9003C39.1549 61.273 39.1549 67.4674 39.1549 73.6636C39.1549 74.1559 39.4563 74.0203 39.7025 74.0203C44.363 74.0203 49.0235 74.0203 53.6858 74.0364C54.1745 74.0364 54.2565 73.8883 54.2547 73.4424C54.2405 67.4674 54.2458 61.4924 54.2405 55.5156C54.2405 55.3551 54.3314 55.1589 54.1424 55.0073C53.1911 56.1155 52.244 57.2201 51.3011 58.3212C51.0258 58.6645 50.6704 58.935 50.2661 59.1088C49.8618 59.2826 49.421 59.3546 48.9825 59.3182C48.5187 59.2915 48.1156 59.0774 47.7019 58.8884C47.6826 58.9342 47.6689 58.9821 47.6608 59.0311C47.6608 61.043 47.6608 63.0548 47.6608 65.0667C47.6608 66.5221 47.6608 66.5025 46.1983 66.4936C45.8023 66.4936 45.7542 66.3545 45.7577 66.0156C45.7702 63.8253 45.7577 61.6333 45.7577 59.4431V58.8563C44.0758 59.65 43.0306 59.411 41.8535 58.0287C40.9938 57.0299 40.1288 56.0275 39.1603 54.9003H39.1549ZM37.2625 49.7939C38.1757 50.864 38.9908 51.8076 39.8041 52.7582C41.0372 54.1946 42.2679 55.6322 43.4962 57.0709C43.7726 57.3973 44.1026 57.54 44.4985 57.3706C44.6472 57.3095 44.7709 57.2 44.8496 57.0598C44.9282 56.9196 44.9573 56.757 44.9319 56.5983C44.907 56.3165 44.7197 56.1327 44.5574 55.9348C42.4171 53.3129 40.2661 50.6982 38.1365 48.0692C38.031 47.9181 37.8885 47.7965 37.7228 47.716C37.557 47.6354 37.3734 47.5986 37.1894 47.609C34.4195 47.6304 31.6496 47.609 28.8815 47.6251C28.7352 47.6338 28.5887 47.6128 28.4508 47.5635C28.3129 47.5141 28.1864 47.4374 28.0789 47.3379C26.5878 45.9895 25.0789 44.6625 23.5753 43.3195C22.7709 42.606 21.9701 41.8926 21.1586 41.1792C20.7876 40.8581 20.3809 40.8349 20.0581 41.2309C19.762 41.5876 19.8244 41.9675 20.1669 42.2903C20.2828 42.3991 20.3987 42.5079 20.5236 42.615C23.4427 45.2677 26.3648 47.917 29.2899 50.5626C29.4409 50.684 29.5609 50.8394 29.6403 51.0161C29.7196 51.1928 29.756 51.3858 29.7465 51.5793C29.7322 58.8325 29.7287 66.0857 29.7358 73.339C29.7429 73.4578 29.7429 73.5769 29.7358 73.6957C29.7037 73.9543 29.8 74.0524 30.0658 74.0346C30.7025 74.0185 31.3428 74.0007 31.9778 74.0346C32.4308 74.0613 32.5717 73.9418 32.5681 73.4603C32.5467 69.6755 32.5557 65.8907 32.5557 62.1042C32.5557 60.8307 32.5557 60.8557 33.822 60.8218C34.3036 60.8075 34.4516 60.911 34.4498 61.4264C34.4249 65.4502 34.4498 69.4757 34.4266 73.4995C34.4266 73.9062 34.5051 74.0649 34.9421 74.0346C35.518 73.9909 36.0963 73.9909 36.6722 74.0346C37.1698 74.0756 37.2911 73.9294 37.2893 73.4264C37.2715 65.8164 37.2673 58.2065 37.2768 50.5965L37.2625 49.7939ZM56.1311 49.7832V50.5573C56.1311 58.1874 56.1281 65.8164 56.1222 73.4442C56.1222 73.8866 56.1971 74.081 56.6911 74.0382C57.2473 73.9927 57.8062 73.9927 58.3623 74.0382C58.8207 74.0703 58.9545 73.9418 58.9527 73.4638C58.9295 69.6595 58.9402 65.8551 58.9402 62.0489C58.9402 60.8343 58.9402 60.8717 60.1441 60.8182C60.7327 60.7933 60.8487 60.9663 60.8451 61.5317C60.8166 65.5144 60.8451 69.4989 60.8183 73.4817C60.8183 73.9258 60.9182 74.0703 61.3712 74.0346C61.9273 73.9864 62.4864 73.9864 63.0425 74.0346C63.5775 74.0863 63.6881 73.9062 63.6863 73.3871C63.6667 66.0959 63.6756 58.8063 63.6649 51.515C63.6558 51.3409 63.6876 51.1671 63.7579 51.0075C63.8283 50.848 63.9351 50.7072 64.0698 50.5965C66.9973 47.9544 69.9176 45.3046 72.8308 42.6471C72.9997 42.5084 73.1588 42.3582 73.307 42.1976C73.5852 41.8605 73.5977 41.4842 73.2945 41.172C73.1751 41.0339 73.0063 40.948 72.8243 40.9326C72.6423 40.9173 72.4615 40.9738 72.3207 41.09C72.2258 41.1625 72.1353 41.2406 72.0496 41.3236C69.8344 43.3022 67.6203 45.2773 65.4075 47.2487C65.2822 47.3717 65.1335 47.4682 64.9702 47.5326C64.8069 47.5969 64.6323 47.6278 64.4568 47.6233C61.6673 47.6072 58.8796 47.6233 56.09 47.6072C55.9455 47.5984 55.801 47.6266 55.6703 47.689C55.5396 47.7514 55.4268 47.846 55.3427 47.9639C53.1584 50.6524 50.967 53.3349 48.7684 56.0115C48.3636 56.5073 48.3564 56.9621 48.7346 57.26C49.1127 57.5578 49.5265 57.4651 49.9242 57.0121C50.552 56.2986 51.1727 55.562 51.7916 54.8379L56.1311 49.7832ZM53.7108 28.7529C55.6031 28.7529 57.4955 28.744 59.3897 28.7529C59.7553 28.7529 59.9016 28.6923 59.8962 28.2749C59.8736 26.0835 59.8736 23.8921 59.8962 21.7007C59.8962 21.2601 59.7535 21.187 59.3611 21.1888C55.6346 21.203 51.9087 21.203 48.1834 21.1888C47.7785 21.1888 47.6394 21.2726 47.6483 21.706C47.6715 23.8766 47.6769 26.049 47.6483 28.2214C47.6483 28.7101 47.816 28.7565 48.2244 28.7565C50.0437 28.7422 51.8772 28.7529 53.7108 28.7529ZM69.7898 25.0609C69.7166 25.027 69.6845 25.0003 69.6506 25.0003C67.1411 25.0003 64.6316 25.0003 62.1221 24.9878C61.8047 24.9878 61.7761 25.1198 61.7779 25.3766C61.7868 26.6109 61.7922 27.8469 61.7779 29.0811C61.7779 29.5912 62.0008 30.2708 61.6691 30.5615C61.3855 30.8112 60.722 30.6346 60.2262 30.6364C58.9402 30.6364 58.9777 30.6364 58.9313 31.9456C58.9152 32.4806 59.099 32.5502 59.5698 32.5466C62.7803 32.5252 65.9907 32.5359 69.1905 32.5359H69.8219C69.3563 31.3784 68.9301 30.2904 68.4806 29.2131C68.4154 29.0707 68.3816 28.9159 68.3816 28.7592C68.3816 28.6025 68.4154 28.4477 68.4806 28.3053C68.9336 27.2298 69.3564 26.1436 69.7898 25.0609ZM57.0799 41.0311C57.0799 41.7756 57.3743 42.4899 57.8989 43.0182C58.4235 43.5464 59.1357 43.8458 59.8802 43.851C60.4427 43.8577 60.9945 43.6969 61.4653 43.3889C61.9361 43.081 62.3047 42.6399 62.524 42.1218C62.7432 41.6037 62.8034 41.0321 62.6967 40.4798C62.5901 39.9274 62.3214 39.4192 61.925 39.0201C61.5286 38.6209 61.0224 38.3487 60.4708 38.2382C59.9191 38.1277 59.3471 38.1838 58.8275 38.3995C58.3079 38.6152 57.8643 38.9806 57.5531 39.4492C57.2418 39.9179 57.0771 40.4686 57.0799 41.0311ZM36.3137 41.0311C36.3133 40.4725 36.147 39.9266 35.8359 39.4626C35.5248 38.9986 35.0829 38.6375 34.5663 38.4251C34.0496 38.2126 33.4815 38.1584 32.934 38.2693C32.3865 38.3802 31.8843 38.6512 31.491 39.048C31.0978 39.4447 30.8313 39.9493 30.7252 40.4978C30.6192 41.0463 30.6785 41.6139 30.8955 42.1286C31.1125 42.6433 31.4776 43.082 31.9443 43.389C32.411 43.6959 32.9584 43.8574 33.517 43.8528C34.2588 43.8402 34.9664 43.5384 35.4888 43.0116C36.0113 42.4848 36.3073 41.7748 36.3137 41.0329V41.0311Z" fill="#6F63DE"/>
</svg>
