<svg width="196" height="73" viewBox="0 0 196 73" fill="none" xmlns="http://www.w3.org/2000/svg">
<rect width="196" height="73" fill=""/>
<g clip-path="url(#clip0_4385_1272)">
<path d="M105.278 43.0728C103.359 43.0728 101.441 43.0728 99.5218 43.0728C99.1623 43.08 98.8027 43.0656 98.4449 43.0297C97.7446 42.9459 97.1594 42.6225 97.169 41.8562C97.169 41.0156 97.8189 40.7401 98.5672 40.697C98.9246 40.6755 99.2868 40.6827 99.6465 40.6827C103.201 40.6827 106.76 40.6563 110.315 40.6994C111.274 40.7114 111.869 40.4216 112.344 39.5762C114.044 36.5515 115.797 33.5531 117.553 30.557C117.722 30.3125 117.813 30.0222 117.813 29.7248C117.813 29.4274 117.722 29.1372 117.553 28.8926C116.546 27.2161 115.555 25.5277 114.622 23.8106C114.114 22.8742 113.816 23.2238 113.444 23.8729C111.818 26.7132 110.144 29.5272 108.571 32.3939C107.957 33.5099 107.168 34.0129 105.894 33.9889C103.139 33.9386 100.378 33.9746 97.6223 33.9746C97.4616 33.9746 97.3009 33.9746 97.1426 33.9746C96.3128 33.9075 95.4038 33.7854 95.4326 32.7268C95.4613 31.6683 96.3727 31.5892 97.2098 31.5892C99.8072 31.5892 102.405 31.5461 105.002 31.606C106.012 31.6299 106.611 31.2779 107.103 30.4085C108.923 27.1754 110.806 23.9758 112.66 20.7595C113.62 19.095 114.425 19.0543 115.378 20.6805C116.972 23.3987 118.531 26.1408 120.129 28.859C120.297 29.105 120.39 29.395 120.395 29.693C120.4 29.9909 120.317 30.2839 120.158 30.5355C117.937 34.3673 115.722 38.2039 113.514 42.0454C113.061 42.8357 112.353 43.0824 111.499 43.08H105.264L105.278 43.0728Z" fill="white"/>
<path d="M88.9137 43.1231C87.3932 43.1231 85.875 43.0968 84.3568 43.1231C83.9797 43.1594 83.6005 43.08 83.2697 42.8956C82.9389 42.7112 82.6722 42.4305 82.5052 42.0909C80.3515 38.3117 78.1738 34.5462 75.972 30.7941C75.7823 30.5106 75.681 30.1772 75.681 29.8362C75.681 29.4952 75.7823 29.1618 75.972 28.8782C78.181 25.0823 80.3683 21.2768 82.5772 17.4809C82.9585 16.8271 83.4622 16.226 84.304 16.7624C85.1003 17.2654 84.8868 17.9814 84.4983 18.6568C82.5796 21.9785 80.7041 25.3146 78.7422 28.6028C78.2241 29.4698 78.1905 30.1356 78.7134 30.9977C80.4786 33.941 82.1863 36.9179 83.8723 39.9067C84.2537 40.5797 84.6926 40.891 85.4792 40.8647C87.3164 40.8216 89.156 40.8647 90.9955 40.8479C92.2787 40.8479 92.3146 40.7761 91.6887 39.6936C90.0098 36.7886 88.3621 33.8716 86.6521 30.9905C86.1724 30.1667 86.1484 29.4841 86.6353 28.6627C88.2206 25.9852 89.7532 23.2742 91.3193 20.5847C91.6983 19.9333 92.1755 19.3106 93.0366 19.7561C93.9719 20.235 93.6985 20.9822 93.2764 21.6959C91.9213 24.0477 90.5974 26.4163 89.1991 28.7417C88.7482 29.4889 88.7195 30.09 89.1704 30.8349C91.0891 34.1015 92.979 37.3921 94.8761 40.6755C95.8619 42.3783 95.4589 43.0704 93.4755 43.092C91.9597 43.1279 90.4319 43.1231 88.9137 43.1231Z" fill="white"/>
<path d="M97.9796 4.01675C100.095 4.01675 102.213 4.04309 104.328 4.01675C105.237 3.99999 105.818 4.35204 106.264 5.13038C108.401 8.87121 110.56 12.6001 112.739 16.317C113.154 17.0354 113.308 17.6988 112.499 18.1754C111.653 18.6807 111.152 18.0748 110.773 17.4234C108.825 14.0705 106.868 10.7416 104.976 7.36482C104.496 6.51942 103.923 6.20569 102.968 6.21766C99.5738 6.26077 96.1792 6.26077 92.7847 6.21766C91.8733 6.21766 91.3097 6.51224 90.866 7.32411C90.0434 8.87361 89.1248 10.3728 88.2542 11.896C87.6498 12.9569 87.7241 13.0934 88.9377 13.1054C92.2139 13.1054 95.4877 13.1413 98.7711 13.0934C99.8552 13.0791 100.558 13.4335 101.093 14.3963C102.563 17.0474 104.108 19.665 105.623 22.2803C106.031 22.9844 106.343 23.734 105.436 24.2393C104.53 24.7446 104.062 24.0261 103.666 23.3484C102.359 21.1092 101.009 18.8939 99.7736 16.6139C99.27 15.6871 98.68 15.3039 97.6151 15.3207C93.9024 15.3758 90.1801 15.347 86.4746 15.3374C84.5151 15.3374 84.1002 14.6022 85.0835 12.8923C86.5561 10.3345 88.0623 7.7959 89.5037 5.22857C89.9834 4.35443 90.6262 3.9952 91.6263 4.01675C93.7465 4.05028 95.8619 4.01675 97.9796 4.01675Z" fill="white"/>
<path d="M121.75 61.7554C121.75 59.8012 121.784 57.8469 121.736 55.8927C121.714 54.9347 122.019 54.4893 123.033 54.542C124.189 54.6018 125.352 54.518 126.508 54.5803C128.029 54.6617 129.18 55.4089 129.794 56.8051C130.408 58.2014 130.209 59.4635 129.135 60.5556C128.789 60.9076 128.667 61.0776 129.211 61.4153C130.857 62.4427 131.461 63.9443 131.041 65.6806C130.841 66.544 130.372 67.3219 129.702 67.9027C129.031 68.4836 128.194 68.8375 127.309 68.9138C125.76 69.0407 124.192 68.9545 122.64 68.9664C121.87 68.9664 121.733 68.4875 121.736 67.8576C121.748 65.8243 121.736 63.7863 121.736 61.7554H121.75ZM125.537 67.2637V67.2254C126.016 67.2496 126.497 67.2496 126.976 67.2254C127.601 67.1824 128.189 66.914 128.63 66.4703C129.071 66.0266 129.336 65.4378 129.374 64.8137C129.473 63.5851 128.696 62.5697 127.379 62.2104C126.362 61.9326 125.324 62.0667 124.29 62.0572C123.736 62.0572 123.513 62.3685 123.513 62.8906C123.513 64.0425 123.513 65.1945 123.513 66.3488C123.513 67.017 123.853 67.2709 124.472 67.2541C124.818 67.2469 125.177 67.2541 125.537 67.2541V67.2637ZM123.482 58.4025C123.482 60.522 123.482 60.522 125.026 60.522C127.317 60.522 128.271 59.8491 128.25 58.2588C128.228 56.7764 127.437 56.2447 125.252 56.2447C123.479 56.2399 123.479 56.2399 123.482 58.3977V58.4025Z" fill="white"/>
<path d="M62.2413 69C57.7515 69 54.8063 66.1525 54.8063 61.7914C54.8063 57.5021 57.9865 54.3073 62.2772 54.3025C66.568 54.2977 69.7722 57.4925 69.765 61.7674C69.765 66.1908 66.8414 69 62.2413 69ZM62.2653 67.5128C65.647 67.5128 67.995 65.2017 68.0214 61.8273C68.0478 58.4529 65.5774 55.8807 62.3084 55.8712C59.0826 55.8592 56.5787 58.381 56.5523 61.662C56.5355 65.1682 58.8188 67.5056 62.2653 67.5128Z" fill="white"/>
<path d="M80.7304 61.7626C80.7304 59.8108 80.7736 57.8565 80.7112 55.9047C80.6776 54.8389 81.0973 54.4869 82.1191 54.542C83.2343 54.6018 84.3544 54.542 85.4768 54.5659C87.8368 54.6378 89.59 56.3501 89.7651 58.7235C89.9282 60.9244 88.4604 62.7948 86.2083 63.2905C85.3434 63.4426 84.4632 63.49 83.5869 63.4318C82.7594 63.4151 82.438 63.7743 82.4644 64.5814C82.498 65.5777 82.486 66.5739 82.4644 67.5702C82.4524 68.1833 82.6203 68.9329 81.6178 68.9545C80.6153 68.976 80.7232 68.2576 80.7208 67.6205C80.7208 65.6695 80.7208 63.7168 80.7208 61.7626H80.7304ZM82.4596 58.9462C82.546 61.9901 81.8001 61.7985 85.3641 61.7027C86.9902 61.6596 87.9807 60.4861 87.9471 58.8863C87.9136 57.2362 86.9518 56.2663 85.2298 56.2519C82.0135 56.2208 82.5004 56.0124 82.4596 58.9462Z" fill="white"/>
<path d="M39.4998 69C35.883 69 33.3815 67.3044 32.3718 64.1719C31.362 61.0393 32.4581 57.5524 35.01 55.7275C37.7801 53.7493 41.3921 53.7541 44.0519 55.7825C44.462 56.0963 45.2847 56.3669 44.6587 57.1548C44.1167 57.8398 43.625 57.538 43.047 57.083C42.0693 56.3469 40.8866 55.9328 39.6627 55.898C38.4388 55.8633 37.2343 56.2096 36.2164 56.889C34.1322 58.3451 33.2903 61.0561 34.0914 63.7216C34.7893 66.0279 36.8543 67.4649 39.4566 67.5199C40.958 67.5463 42.3179 67.2134 43.3947 66.1189C43.92 65.5849 44.2893 65.8411 44.6971 66.2411C45.2319 66.7656 44.8146 67.0817 44.4572 67.4098C43.1045 68.6623 42.0181 69 39.4998 69Z" fill="white"/>
<path d="M158.429 62.6056V58.4169C158.429 56.2471 158.429 56.2471 156.311 56.2376C155.951 56.2376 155.591 56.2376 155.234 56.2064C154.706 56.1705 154.445 55.8735 154.45 55.3467C154.454 54.8198 154.766 54.5659 155.289 54.5659C157.926 54.5659 160.564 54.5659 163.204 54.5659C163.736 54.5659 164.002 54.8389 164.007 55.3826C164.012 55.9262 163.717 56.2088 163.192 56.2088C162.592 56.228 161.993 56.2639 161.395 56.2256C160.448 56.1657 160.141 56.5968 160.151 57.5069C160.184 60.7376 160.17 63.9731 160.17 67.199C160.17 67.5175 160.17 67.8385 160.155 68.157C160.155 68.7006 159.853 68.9401 159.323 68.9497C158.74 68.9497 158.421 68.7102 158.421 68.1019C158.429 66.2722 158.432 64.4401 158.429 62.6056Z" fill="white"/>
<path d="M142.143 61.6716V55.6987C142.143 55.0952 142.211 54.5683 143.017 54.5731C143.822 54.5779 143.863 55.1263 143.866 55.7179C143.866 59.7413 143.87 63.7647 143.878 67.7882C143.878 68.3677 143.878 68.9305 143.055 68.9569C142.175 68.9856 142.127 68.4108 142.129 67.7594C142.129 65.7285 142.129 63.6881 142.129 61.6644L142.143 61.6716Z" fill="white"/>
<path d="M105.662 68.9713C104.345 68.9713 103.023 68.9713 101.709 68.9713C101.157 68.9713 100.663 68.9042 100.644 68.1642C100.623 67.3571 101.143 67.2709 101.75 67.2709H109.665C110.226 67.2709 110.715 67.3547 110.734 68.0827C110.753 68.8778 110.243 68.9784 109.626 68.976C108.297 68.9689 106.981 68.9736 105.662 68.9713Z" fill="white"/>
<path d="M105.573 54.5587C106.887 54.5587 108.211 54.5587 109.513 54.5587C110.029 54.5587 110.473 54.6449 110.499 55.3107C110.526 55.9765 110.091 56.216 109.511 56.2184C106.884 56.2296 104.257 56.2296 101.63 56.2184C101.04 56.2184 100.625 56.0292 100.656 55.3203C100.687 54.6641 101.11 54.5515 101.632 54.5515L105.573 54.5587Z" fill="white"/>
<path d="M105.28 62.232C104.081 62.232 102.882 62.232 101.683 62.232C101.124 62.232 100.642 62.1338 100.635 61.401C100.627 60.6681 101.062 60.5412 101.647 60.5412C104.117 60.5412 106.588 60.5412 109.06 60.5412C109.657 60.5412 110.067 60.7232 110.051 61.4225C110.036 62.0691 109.619 62.22 109.091 62.2248C107.815 62.2248 106.542 62.2248 105.266 62.2248L105.28 62.232Z" fill="white"/>
</g>
<defs>
<clipPath id="clip0_4385_1272">
<rect width="132" height="65" fill="white" transform="translate(32 4)"/>
</clipPath>
</defs>
</svg>
