<svg width="69" height="69" viewBox="0 0 69 69" fill="none" xmlns="http://www.w3.org/2000/svg">
<circle cx="34.5" cy="34.5" r="34" stroke="#006DF0"/>
<path d="M29.5156 25C29.9844 24.5312 30.5573 24.2969 31.2344 24.2969C31.9115 24.2969 32.4844 24.5312 32.9531 25C33.4219 25.4688 33.6562 26.0677 33.6562 26.7969C33.6562 27.526 33.4219 28.125 32.9531 28.5938L29.125 32.5H46.0781C46.7552 32.5 47.3281 32.7604 47.7969 33.2812C48.2656 33.75 48.5 34.3229 48.5 35C48.5 35.6771 48.2656 36.276 47.7969 36.7969C47.3281 37.2656 46.7552 37.5 46.0781 37.5H29.125L32.875 41.4062C33.3438 41.875 33.5781 42.474 33.5781 43.2031C33.5781 43.9323 33.3438 44.5312 32.875 45C32.4062 45.4688 31.8333 45.7031 31.1562 45.7031C30.5312 45.7031 29.9844 45.4688 29.5156 45L21.7031 36.7188C21.2344 36.25 21 35.6771 21 35C21 34.2708 21.2344 33.6719 21.7031 33.2031L29.5156 25Z" fill="white"/>
</svg>
