<svg width="196" height="73" viewBox="0 0 196 73" fill="none" xmlns="http://www.w3.org/2000/svg">
<rect width="196" height="73" fill=""/>
<g clip-path="url(#clip0_4385_1266)">
<path d="M77.4917 25.9034C80.0107 27.257 82.6489 27.229 85.3042 27.0306C86.0178 26.9783 86.7132 27.1073 87.4184 27.1219C89.6724 27.1657 91.9009 27.0659 94.0041 25.8851C94.0041 26.6654 93.9944 27.3678 94.0041 28.0763C94.0041 28.3563 93.8388 28.4074 93.6321 28.4573C93.1033 28.5863 92.578 28.7373 92.0443 28.8432C91.6978 28.9113 91.4997 29.0367 91.558 29.4299C91.5823 29.6109 91.5823 29.7943 91.558 29.9753C91.5203 30.3112 91.6334 30.4257 91.9896 30.4293C93.0206 30.4403 93.0206 30.4585 93.0206 31.4774V32.1469C93.0206 32.999 93.0206 33.0197 92.1878 33.0903C91.7939 33.1232 91.9106 33.3509 91.9446 33.5493C92.2688 35.7063 92.5995 37.863 92.9367 40.0192C92.9732 40.2627 92.9938 40.5062 93.0327 40.7399C93.1774 41.6358 93.1798 41.6638 92.2729 41.6882C91.1191 41.7174 89.9629 41.6784 88.8104 41.704C88.3545 41.7149 88.4007 41.4496 88.4007 41.1586C88.4007 38.6851 88.3812 36.2115 88.4177 33.7331C88.4262 33.1731 88.256 33.0684 87.743 33.0818C86.3461 33.1171 84.9467 33.1086 83.5498 33.0818C83.1486 33.0745 83.0441 33.1963 83.0477 33.5907C83.0647 36.0837 83.0477 38.5816 83.0684 41.0722C83.0684 41.5871 82.9201 41.7247 82.4228 41.6979C81.207 41.6334 79.9913 41.7478 78.7828 41.6297C78.4473 41.5969 78.3391 41.5567 78.4023 41.1708C78.8132 38.6802 79.1731 36.1799 79.5962 33.6905C79.6813 33.1926 79.6108 33.0051 79.1099 33.0928C78.5397 33.1926 78.3804 32.9455 78.4278 32.4026C78.462 31.8756 78.462 31.347 78.4278 30.8201C78.4144 30.506 78.5093 30.3587 78.8351 30.4086C78.8553 30.4111 78.8757 30.4111 78.8959 30.4086C79.9159 30.3831 79.8916 30.3831 79.905 29.3788C79.905 28.9966 79.753 28.9016 79.4369 28.8371C78.9044 28.7275 78.3804 28.5705 77.8491 28.4561C77.5658 28.3952 77.4418 28.2723 77.454 27.9692C77.4771 27.4031 77.4601 26.8346 77.4613 26.2649C77.4747 26.1675 77.482 26.0689 77.4917 25.9034ZM83.737 30.3952C84.2939 30.5291 84.4312 30.3052 84.4191 29.772C84.4069 29.2607 84.334 29.0416 83.7419 29.0538C83.2009 29.0684 83.0355 29.1913 83.0428 29.7501C83.0501 30.3088 83.1693 30.5584 83.737 30.3952ZM87.7734 30.3855C88.335 30.5742 88.4299 30.293 88.4274 29.7768C88.425 29.2607 88.3667 29.027 87.76 29.0538C87.2348 29.0757 87.0378 29.1682 87.0548 29.7428C87.0707 30.2808 87.1618 30.5644 87.7734 30.3855Z" fill="white"/>
<path d="M151.119 30.1481C151.119 28.6703 151.141 27.2546 151.107 25.8413C151.096 25.369 151.248 25.2521 151.69 25.2789C152.297 25.3204 152.906 25.3204 153.513 25.2789C153.999 25.2424 154.07 25.4323 154.069 25.8644C154.053 29.8815 154.059 33.8889 154.059 37.9011C154.059 38.7727 154.053 39.6431 154.059 40.5147C154.059 40.7667 154.013 40.9395 153.736 41.0016C151.781 41.4727 149.803 41.7758 147.794 41.5616C145.494 41.3181 144.055 39.9791 143.551 37.7003C143.171 35.979 143.15 34.248 143.752 32.5693C144.393 30.7823 145.78 29.9436 147.595 29.6758C148.791 29.4972 150.013 29.6609 151.119 30.1481ZM151.119 35.71V33.7684C151.119 32.6448 150.918 32.4135 149.782 32.2407C149.546 32.1905 149.306 32.1588 149.065 32.1457C147.849 32.1591 146.766 32.4793 146.39 33.9181C146.127 34.9321 146.186 35.9571 146.399 36.976C146.633 38.0935 147.455 38.8993 148.574 39.0223C149.303 39.1002 150.018 38.9894 150.728 38.8141C151.051 38.7338 151.13 38.5706 151.123 38.259C151.107 37.4093 151.119 36.5597 151.119 35.71Z" fill="white"/>
<path d="M18.6319 30.1445C18.6319 28.6727 18.6465 27.257 18.6234 25.8413C18.6161 25.4286 18.7146 25.2655 19.1559 25.2899C19.8015 25.3276 20.4507 25.3154 21.1011 25.2899C21.4282 25.2826 21.5497 25.3739 21.5497 25.7305C21.5392 30.6533 21.5392 35.5765 21.5497 40.5001C21.5497 40.7666 21.5096 40.9249 21.185 41.0113C19.2823 41.5165 17.3408 41.7612 15.3943 41.5725C13.4479 41.3838 11.9246 40.539 11.2522 38.3588C10.6079 36.2821 10.5398 34.1859 11.4589 32.1506C12.158 30.607 13.4734 29.9728 15.0661 29.6807C16.3025 29.4579 17.449 29.716 18.6319 30.1445ZM18.6319 35.7161V33.7684C18.6319 32.6363 18.3219 32.3076 17.1852 32.2273C16.9858 32.2139 16.7839 32.1579 16.5955 32.1481C15.8199 32.1104 14.4691 32.3636 14.0874 33.4154C13.58 34.7621 13.5964 36.2507 14.1336 37.5858C14.536 38.6303 15.3968 38.9723 16.4095 39.0466C17.0174 39.088 17.5997 38.937 18.193 38.8397C18.5675 38.7776 18.6465 38.5962 18.6416 38.27C18.6234 37.4166 18.6319 36.5657 18.6319 35.7161Z" fill="white"/>
<path d="M85.788 15C88.6888 14.9014 91.22 17.3397 91.2128 20.4134C91.2042 23.4335 88.8238 25.7938 85.7552 25.7926C85.0473 25.7931 84.3464 25.6532 83.6928 25.381C83.0393 25.1087 82.446 24.7095 81.9474 24.2064C81.4488 23.7033 81.0547 23.1063 80.7878 22.4498C80.5209 21.7934 80.3866 21.0905 80.3925 20.3817C80.3852 17.3945 82.8447 14.916 85.788 15Z" fill="white"/>
<path d="M33.8289 37.2012C33.8289 38.5195 33.8192 39.8379 33.835 41.1562C33.835 41.4922 33.7511 41.5993 33.3997 41.6115C32.5937 41.6407 31.8253 41.6492 31.3256 40.8506C31.0959 40.4855 30.8539 40.7399 30.6144 40.8701C28.7324 41.8854 26.8334 41.928 24.938 40.9213C24.166 40.511 23.8195 39.7539 23.6737 38.9602C23.5278 38.1665 23.4901 37.3326 23.7952 36.5377C24.2827 35.2072 25.3915 34.6862 26.6559 34.4537C27.8676 34.2326 29.1086 34.2256 30.3226 34.433C30.7494 34.5049 30.9305 34.388 30.9196 33.8974C30.8904 32.7288 30.3044 32.1421 29.1288 32.1019C27.7001 32.0411 26.2702 32.1875 24.8833 32.5365C24.5028 32.6351 24.47 32.5085 24.4761 32.2066C24.4858 31.6795 24.504 31.1512 24.4761 30.6241C24.4542 30.2918 24.5976 30.1481 24.8833 30.0897C26.9501 29.6685 29.0169 29.3058 31.1238 29.9205C32.8782 30.433 33.7414 31.5371 33.8155 33.3082C33.8666 34.6047 33.8289 35.9035 33.8289 37.2012ZM30.9111 37.5664C30.7652 37.2499 31.2053 36.6546 30.612 36.5536C29.5689 36.3758 28.499 36.1884 27.451 36.5341C26.7641 36.7581 26.5234 37.1622 26.5392 37.9693C26.5526 38.7228 26.8115 39.0831 27.5118 39.3083C28.3896 39.5907 29.2139 39.357 30.0211 39.0259C30.6606 38.763 31.1384 38.4027 30.9111 37.5688V37.5664Z" fill="white"/>
<path d="M53.2725 37.2389C53.2725 38.5366 53.2579 39.8342 53.281 41.1343C53.2871 41.508 53.1777 41.6005 52.8057 41.6212C52.0154 41.6541 51.269 41.6468 50.7887 40.8738C50.6185 40.6011 50.4046 40.6474 50.1809 40.7922C48.57 41.8172 46.8606 41.8233 45.0978 41.2865C43.9197 40.9286 43.3118 40.0387 43.1088 38.9249C42.9471 38.0521 42.9398 37.144 43.3519 36.2846C43.9173 35.094 44.9786 34.6668 46.1482 34.4513C47.3601 34.2318 48.6011 34.2264 49.8149 34.4355C50.2234 34.5049 50.3802 34.3673 50.3742 33.9218C50.3571 32.7459 49.7663 32.1421 48.6089 32.1019C47.1789 32.0377 45.7472 32.1816 44.3586 32.5292C43.9282 32.6399 43.9197 32.4817 43.9282 32.164C43.9379 31.7988 43.9853 31.4239 43.9197 31.0684C43.7823 30.3453 44.1154 30.0787 44.7707 29.9728C46.6941 29.6563 48.6052 29.3447 50.5468 29.9095C52.3145 30.4232 53.2008 31.5553 53.2616 33.3399C53.3078 34.6424 53.2725 35.9376 53.2725 37.2389ZM50.3462 37.5785C50.2246 37.2523 50.6416 36.6619 50.0605 36.5597C49.0186 36.3746 47.9487 36.1945 46.8995 36.5341C46.2321 36.7483 45.9768 37.1537 45.9804 37.9048C45.9804 38.7131 46.2333 39.0795 46.9421 39.3096C47.8211 39.5944 48.6441 39.3631 49.4538 39.0308C50.1006 38.7666 50.5893 38.4124 50.3462 37.5785Z" fill="white"/>
<path d="M102.01 36.7009C100.916 36.7009 99.8216 36.724 98.7274 36.6911C98.2484 36.6777 98.19 36.8725 98.2727 37.2669C98.4648 38.1896 99.2319 38.8494 100.33 39.0588C101.724 39.3278 103.105 39.1805 104.485 38.9772C105.267 38.8555 105.266 38.8494 105.267 39.6139V39.6747C105.267 41.3254 105.267 41.3643 103.662 41.5323C102.437 41.6541 101.199 41.6991 99.9723 41.5031C97.2721 41.0722 95.8679 39.7393 95.4205 37.0587C95.1591 35.4909 95.2126 33.9218 95.8132 32.4074C96.28 31.2291 97.097 30.4171 98.286 29.9996C99.8027 29.4511 101.461 29.4382 102.986 29.9631C104.908 30.6192 105.661 32.1749 105.871 34.0727C105.949 34.7787 105.911 35.486 105.888 36.1957C105.875 36.5986 105.739 36.7155 105.35 36.7082C104.237 36.6875 103.127 36.7009 102.01 36.7009ZM100.625 34.5986C101.312 34.5986 102 34.6047 102.692 34.5986C102.851 34.5986 103.111 34.6667 103.086 34.3734C103.021 33.5931 102.868 32.8469 102.14 32.3746C100.581 31.363 98.4514 32.3831 98.2654 34.2249C98.2338 34.5292 98.3395 34.612 98.6301 34.6059C99.2891 34.5828 99.9577 34.5986 100.625 34.5986Z" fill="white"/>
<path d="M137.764 36.7009C136.691 36.7009 135.617 36.7301 134.545 36.6899C133.966 36.668 133.909 36.8956 134.04 37.3667C134.327 38.399 135.086 38.8506 136.054 39.0527C137.464 39.3461 138.868 39.1744 140.269 38.9723C141.007 38.8652 140.998 38.8506 141.007 39.5968V40.1446C141.007 41.3461 141.007 41.3497 139.779 41.4836C138.429 41.6358 137.076 41.7064 135.729 41.497C132.996 41.071 131.589 39.7222 131.15 37.0113C130.907 35.4848 130.957 33.9534 131.522 32.4744C132.036 31.1354 132.981 30.2625 134.354 29.8888C135.954 29.453 137.543 29.4591 139.095 30.1213C140.495 30.7178 141.162 31.8694 141.482 33.2729C141.703 34.2468 141.675 35.2401 141.624 36.2346C141.604 36.6254 141.449 36.7057 141.104 36.7021C139.993 36.6923 138.879 36.7009 137.764 36.7009ZM136.387 34.5986C137.075 34.5986 137.763 34.5986 138.454 34.5986C138.614 34.5986 138.853 34.657 138.818 34.3551C138.743 33.5724 138.585 32.8274 137.853 32.3673C137.493 32.1435 137.082 32.0138 136.659 31.9898C136.236 31.9658 135.813 32.0484 135.43 32.23C135.047 32.4116 134.715 32.6864 134.466 33.0293C134.216 33.3723 134.056 33.7724 134 34.1932C133.958 34.517 134.059 34.6217 134.381 34.6132C135.052 34.5803 135.719 34.5986 136.387 34.5986Z" fill="white"/>
<path d="M167.549 35.654C167.591 36.5631 167.473 37.4724 167.2 38.3406C166.714 39.8671 165.719 40.8519 164.205 41.3218C162.8 41.7576 161.368 41.7539 159.949 41.4338C158.116 41.0187 156.95 39.8513 156.483 38.0253C156.072 36.4136 156.036 34.7824 156.483 33.1841C157.123 30.9126 158.805 29.6758 161.225 29.5991C162.197 29.5687 163.163 29.5833 164.106 29.8645C166.161 30.4732 167.42 32.2163 167.544 34.6254C167.562 34.9638 167.549 35.3095 167.549 35.654ZM164.656 35.8171C164.678 35.1222 164.596 34.428 164.412 33.7574C164.115 32.7203 163.264 32.013 162.23 31.968C160.716 31.8998 159.806 32.3868 159.424 33.5615C158.988 34.8777 158.988 36.3 159.424 37.6163C159.812 38.8068 160.67 39.3205 162.056 39.295C163.197 39.273 164.01 38.6522 164.384 37.525C164.558 36.9716 164.649 36.3958 164.656 35.8159V35.8171Z" fill="white"/>
<path d="M186.148 35.6503C186.19 36.5594 186.072 37.4689 185.799 38.3369C185.313 39.8634 184.323 40.8531 182.806 41.3193C181.407 41.7377 179.921 41.771 178.504 41.4155C176.664 40.9833 175.533 39.7953 175.078 37.9669C174.687 36.3941 174.653 34.8019 175.078 33.2425C175.712 30.9296 177.381 29.6758 179.82 29.5906C180.792 29.559 181.758 29.5748 182.701 29.8548C184.756 30.4634 186.018 32.2042 186.143 34.6132C186.164 34.9638 186.148 35.3058 186.148 35.6503ZM183.258 35.6029C183.261 34.9961 183.182 34.3918 183.023 33.8061C182.706 32.6947 181.87 31.9984 180.76 31.9668C179.237 31.9242 178.392 32.4123 178.008 33.6308C177.59 34.931 177.598 36.3308 178.031 37.626C178.413 38.7971 179.262 39.3096 180.61 39.2949C181.767 39.2816 182.601 38.679 182.976 37.5737C183.175 36.9361 183.27 36.2707 183.258 35.6029Z" fill="white"/>
<path d="M110.665 31.2693C111.205 30.7488 111.825 30.317 112.499 29.9899C113.893 29.3423 116.419 29.492 117.467 30.7556C118.138 31.5651 118.412 32.4963 118.425 33.4981C118.459 36.0545 118.434 38.6047 118.455 41.1574C118.455 41.5567 118.313 41.6297 117.963 41.6176C117.336 41.5932 116.706 41.5823 116.081 41.6176C115.635 41.6456 115.499 41.5238 115.504 41.0564C115.53 38.7666 115.517 36.4769 115.516 34.1871C115.516 32.5742 114.728 31.8828 113.141 32.1275C112.442 32.2511 111.787 32.5534 111.239 33.0051C110.975 33.2096 110.902 33.4677 110.903 33.7988C110.915 36.1908 110.896 38.5816 110.921 40.9736C110.921 41.4605 110.836 41.6614 110.304 41.62C109.656 41.584 109.007 41.5816 108.359 41.6127C108.077 41.62 107.971 41.536 107.972 41.239C107.981 37.4897 107.981 33.7404 107.972 29.9911C107.972 29.7099 108.051 29.5663 108.348 29.6016C108.368 29.6028 108.388 29.6028 108.408 29.6016C108.996 29.6101 109.673 29.4372 110.142 29.6758C110.611 29.9144 110.384 30.7117 110.665 31.2693Z" fill="white"/>
<path d="M55.7126 38.5122C57.2089 39.0908 58.8075 39.3571 60.4102 39.295C60.9914 39.2718 61.5664 39.1732 61.8752 38.6121C62.3251 37.7892 61.7743 36.9151 60.7908 36.881C60.0419 36.8555 59.2917 36.881 58.5428 36.881C55.7247 36.8725 55.1387 35.0368 55.1873 33.1159C55.2542 30.6241 56.9794 29.8158 58.8978 29.5858C60.5677 29.3918 62.2594 29.5354 63.8727 30.0082C64.2666 30.1201 64.3833 30.3015 64.359 30.6874C64.3299 31.2328 64.342 31.783 64.359 32.3296C64.3663 32.6448 64.28 32.7106 63.97 32.5949C62.6774 32.1154 61.3025 31.8977 59.9252 31.9546C59.5415 31.9655 59.1606 32.0231 58.7909 32.1263C58.1562 32.3076 57.8596 32.713 57.9021 33.3217C57.9435 33.884 58.3593 34.3089 58.9902 34.343C59.6565 34.3807 60.3276 34.3637 60.995 34.3527C61.5005 34.3399 62.0056 34.3923 62.4977 34.5085C63.835 34.836 64.646 35.6479 64.8466 37.032C64.9681 37.9048 64.9949 38.7776 64.6472 39.6017C64.1524 40.7715 63.1591 41.3388 61.9786 41.5616C60.0334 41.9268 58.1161 41.749 56.2159 41.2378C55.8183 41.1306 55.6712 40.9383 55.7004 40.5147C55.7429 39.8695 55.7126 39.2244 55.7126 38.5122Z" fill="white"/>
<path d="M72.8037 41.631C71.4518 41.6504 70.1205 41.5287 68.9352 40.8312C67.2222 39.8233 66.5875 38.1714 66.4635 36.2955C66.3833 35.0855 66.4039 33.8682 66.8623 32.7069C67.5917 30.87 69.0579 30.041 70.8974 29.7306C72.2858 29.4969 73.6705 29.6089 75.0529 29.8377C75.4176 29.8986 75.5586 30.0374 75.5392 30.4208C75.5027 31.0295 75.7544 31.8195 75.4565 32.1932C75.1343 32.5986 74.3696 32.0824 73.786 32.091C73.2402 32.0983 72.6919 32.0398 72.1496 32.091C70.0585 32.2833 69.2889 33.6734 69.3534 35.7429C69.3684 36.066 69.4128 36.387 69.4859 36.7021C69.8567 38.4063 71.188 39.3412 73.0274 39.2097C73.7523 39.1679 74.4727 39.0682 75.1817 38.9115C75.4674 38.8433 75.5465 38.9212 75.5343 39.1915C75.5234 39.4349 75.5343 39.6784 75.5343 39.9219C75.5343 41.3364 75.5343 41.3437 74.1374 41.5372C73.6936 41.5993 73.2462 41.6017 72.8037 41.631Z" fill="white"/>
<path d="M127.035 41.6248C125.684 41.6541 124.352 41.5323 123.164 40.8409C121.449 39.8403 120.799 38.1896 120.68 36.3125C120.598 35.0039 120.629 33.6953 121.196 32.4464C121.956 30.7738 123.357 30.0519 125.035 29.7415C126.46 29.4774 127.89 29.5955 129.311 29.8462C129.606 29.8986 129.769 29.9947 129.751 30.3417C129.722 30.9077 129.733 31.4762 129.751 32.0459C129.758 32.3295 129.659 32.3916 129.386 32.3247C128.558 32.1165 127.715 32.0812 126.864 32.0739C124.273 32.0495 123.478 33.7197 123.564 35.7915C123.58 36.0938 123.621 36.3942 123.686 36.6899C124.05 38.3941 125.38 39.3412 127.211 39.2146C127.917 39.1843 128.618 39.0882 129.305 38.9273C129.699 38.8238 129.764 38.9675 129.736 39.301C129.721 39.4812 129.736 39.6662 129.736 39.8476C129.736 41.4118 129.736 41.4155 128.179 41.5652C127.807 41.6005 127.419 41.6054 127.035 41.6248Z" fill="white"/>
<path d="M36.2604 33.5152C36.2604 31.7124 36.2689 29.9095 36.2604 28.1067C36.2604 27.7525 36.3297 27.5881 36.7236 27.6198C37.2464 27.66 37.8616 27.4835 38.2749 27.7038C38.7162 27.9473 38.6093 28.6387 38.7235 29.1378C38.8086 29.5115 38.9995 29.5943 39.3497 29.5809C40.0159 29.5565 40.687 29.5809 41.352 29.5687C41.6377 29.5687 41.7483 29.6503 41.7374 29.9461C41.7179 30.4719 41.7119 31.0002 41.7374 31.5286C41.7569 31.8937 41.6559 32.0374 41.2693 32.0155C40.7247 31.9838 40.1752 32.0228 39.6305 32.0021C39.2986 31.9899 39.1673 32.0824 39.1709 32.4403C39.1855 34.2224 39.1636 36.0046 39.1831 37.7867C39.194 38.7423 39.6974 39.189 40.6736 39.1915C41.7301 39.1915 41.7301 39.1915 41.7301 40.2225C41.7301 41.6054 41.7301 41.6066 40.3575 41.6054C39.7302 41.6054 39.0943 41.6675 38.478 41.5871C37.1625 41.4167 36.3054 40.3954 36.2896 38.9894C36.2616 37.1635 36.2835 35.3375 36.2835 33.5213L36.2604 33.5152Z" fill="white"/>
<path d="M172.655 35.9206C172.655 37.7465 172.684 39.5725 172.647 41.3911C172.619 43.0774 172.088 44.7169 171.122 46.0984C170.843 46.505 170.607 46.6974 170.15 46.275C169.708 45.8897 169.233 45.5454 168.73 45.2463C168.4 45.0382 168.428 44.8629 168.635 44.5914C169.45 43.5129 169.719 42.2554 169.729 40.9395C169.748 37.3533 169.748 33.7668 169.729 30.1798C169.729 29.6929 169.867 29.548 170.337 29.5821C170.882 29.6229 171.43 29.6229 171.976 29.5821C172.511 29.5395 172.705 29.6819 172.691 30.2662C172.649 32.1494 172.675 34.0338 172.675 35.9181L172.655 35.9206Z" fill="white"/>
<path d="M18.8751 52.6719C16.1031 52.6719 13.33 52.6536 10.5581 52.6877C9.99273 52.695 10.028 52.4309 10.0061 52.0365C9.97935 51.5824 10.1143 51.4619 10.5726 51.4631C16.1578 51.4802 21.7434 51.4802 27.3295 51.4631C27.8936 51.4631 27.8583 51.72 27.8814 52.1144C27.9069 52.5672 27.7732 52.6914 27.3137 52.6877C24.4992 52.6609 21.6859 52.6719 18.8751 52.6719Z" fill="white"/>
<path d="M178.054 51.8393C180.851 51.8393 183.64 51.8563 186.432 51.8246C186.971 51.8186 186.991 52.0438 187 52.4613C187.009 52.8788 186.933 53.0517 186.447 53.0493C180.862 53.0298 175.276 53.0298 169.691 53.0493C169.153 53.0493 169.132 52.8314 169.123 52.4138C169.115 51.9963 169.19 51.8198 169.677 51.8246C172.469 51.8526 175.262 51.8393 178.054 51.8393Z" fill="white"/>
<path d="M136.371 50.6134C136.309 51.0809 136.043 51.1831 135.641 51.2683C134.753 51.4582 134.573 51.7346 134.573 52.6451C134.573 53.597 134.549 54.5502 134.584 55.5009C134.601 55.9549 134.384 55.9756 134.038 55.9781C133.691 55.9805 133.524 55.9391 133.53 55.5252C133.553 53.9257 133.538 52.3262 133.541 50.7266C133.541 50.5513 133.488 50.3334 133.784 50.3444C133.994 50.3517 134.27 50.2592 134.318 50.5879C134.375 51.031 134.568 50.953 134.822 50.7571C135.552 50.2068 136.403 50.3919 137.218 50.3517C137.461 50.3407 137.474 50.5623 137.536 50.7315C137.963 51.9058 138.392 53.0797 138.822 54.2532C138.855 54.3445 138.854 54.4528 139.048 54.5088C139.476 53.3755 139.899 52.2361 140.336 51.1003C140.654 50.2677 140.66 50.2701 141.652 50.4211C140.834 52.4455 140.028 54.4638 139.198 56.4735C138.944 57.075 138.493 57.5721 137.92 57.8832C137.709 58.0049 137.494 58.1266 137.329 57.776C137.207 57.5216 137.066 57.3536 137.431 57.1601C137.706 56.9898 137.95 56.7732 138.151 56.5198C138.266 56.404 138.344 56.257 138.376 56.0971C138.408 55.9371 138.392 55.7713 138.331 55.6202C137.711 54.0231 137.093 52.4244 136.479 50.824C136.447 50.7517 136.411 50.6814 136.371 50.6134Z" fill="white"/>
<path d="M42.4328 51.9878C42.4328 53.0432 42.417 54.0974 42.4413 55.1528C42.4499 55.5179 42.3514 55.7176 41.9733 55.7845C41.1539 55.9306 40.3308 56.028 39.5016 55.9464C38.2069 55.8247 37.4567 54.8874 37.3874 53.356C37.3711 52.9716 37.4038 52.5867 37.4847 52.2105C37.7072 51.1527 38.3357 50.5489 39.4044 50.4016C39.9241 50.3133 40.4566 50.3365 40.9666 50.4698C41.2839 50.5623 41.4189 50.4759 41.4031 50.1314C41.3848 49.7479 41.4104 49.3608 41.3958 48.9762C41.3812 48.5915 41.3532 48.2993 41.9319 48.3079C42.479 48.3164 42.4389 48.5891 42.4353 48.9482C42.4268 49.961 42.4328 50.975 42.4328 51.9878ZM41.3982 53.199C41.3982 52.7547 41.3982 52.3091 41.3982 51.8599C41.3982 51.7248 41.4298 51.5824 41.3095 51.4643C40.8378 51.0054 39.0761 51.1673 38.7369 51.7577C38.2397 52.6208 38.2506 53.5483 38.7114 54.4175C39.1345 55.2148 39.9174 55.1759 40.6821 55.1053C41.1855 55.059 41.5052 54.8898 41.4116 54.2848C41.3532 53.9342 41.3982 53.5642 41.3982 53.199Z" fill="white"/>
<path d="M53.489 51.4071C53.2616 50.7339 53.5777 50.5124 54.1309 50.4393C54.9175 50.3359 55.6992 50.2957 56.4749 50.5099C57.2505 50.7242 57.6651 51.2294 57.6712 52.0437C57.6809 53.1977 57.6809 54.3518 57.6712 55.5058C57.6712 55.6628 57.783 55.9014 57.5143 55.9562C57.3174 55.9963 57.1192 55.9975 57.0086 55.7492C56.887 55.4705 56.7156 55.4741 56.436 55.6275C55.8234 55.9526 55.1188 56.0603 54.4372 55.933C53.4379 55.7748 52.9528 55.2282 52.9492 54.2726C52.9492 53.3937 53.5254 52.7303 54.4616 52.5964C55.0836 52.5087 55.715 52.5112 56.3363 52.6037C56.7156 52.6597 56.7314 52.5002 56.718 52.2203C56.6852 51.5921 56.3387 51.2282 55.6725 51.1989C54.9442 51.1673 54.2135 51.1624 53.489 51.4071ZM55.5472 53.3816V53.3901C55.3063 53.3779 55.0648 53.3779 54.8239 53.3901C54.2099 53.4534 53.9619 53.7443 53.9813 54.3408C53.9984 54.8825 54.2683 55.1162 54.8919 55.143C55.3406 55.1613 55.7539 55.0407 56.1806 54.9056C56.8773 54.6865 56.7545 54.1485 56.6949 53.6786C56.6353 53.2087 56.177 53.4729 55.9071 53.384C55.7879 53.3654 55.6667 53.3646 55.5472 53.3816Z" fill="white"/>
<path d="M44.1276 51.3974C43.916 50.7729 44.1714 50.5185 44.7513 50.4406C45.5598 50.331 46.3609 50.2908 47.1536 50.516C47.9001 50.7279 48.3037 51.2464 48.311 52.0194C48.322 53.1929 48.3171 54.3676 48.311 55.5423C48.311 55.6835 48.4034 55.8977 48.1736 55.9476C47.9803 55.9902 47.77 56.0134 47.6594 55.7626C47.5135 55.4352 47.3287 55.5009 47.0406 55.6409C46.348 55.9895 45.5507 56.0681 44.8036 55.8612C44.0364 55.6604 43.6607 55.2246 43.5878 54.409C43.5526 54.056 43.634 53.7013 43.8196 53.3991C44.0052 53.097 44.2846 52.8642 44.6151 52.7364C45.3579 52.4516 46.1348 52.527 46.8922 52.6147C47.3554 52.6646 47.3943 52.4929 47.3469 52.1277C47.2679 51.5349 46.936 51.2294 46.271 51.2038C45.5464 51.1685 44.8218 51.1734 44.1276 51.3974ZM46.1676 53.3779C45.9464 53.3779 45.7239 53.3621 45.5038 53.3779C44.8619 53.4339 44.5932 53.737 44.6212 54.3518C44.6455 54.8801 44.9239 55.1101 45.5512 55.1345C45.9792 55.1515 46.3743 55.0347 46.7828 54.9154C47.4648 54.7145 47.398 54.1996 47.3433 53.7102C47.2837 53.1771 46.812 53.4668 46.5287 53.3755C46.4087 53.3604 46.2871 53.3624 46.1676 53.3816V53.3779Z" fill="white"/>
<path d="M95.3086 53.429C94.8223 53.429 94.336 53.4582 93.8497 53.4205C93.3634 53.3828 93.3111 53.6275 93.4048 54.006C93.5446 54.577 94.0941 55.0395 94.7773 55.1126C95.4012 55.1926 96.034 55.1675 96.6496 55.0383C96.8004 55.003 97.052 54.8801 97.035 55.2087C97.0229 55.4205 97.1979 55.7504 96.8332 55.8174C95.711 56.0231 94.5646 56.1716 93.5227 55.58C92.4163 54.9543 92.2522 53.8429 92.3556 52.7193C92.5379 50.7473 94.2594 49.7674 96.1062 50.5282C97.0058 50.8934 97.6332 52.3651 97.2915 53.2623C97.204 53.4911 97.0387 53.4266 96.894 53.429C96.3615 53.4339 95.8326 53.4278 95.3086 53.429ZM94.8102 52.5903C95.1749 52.5903 95.5396 52.5672 95.8983 52.5903C96.3748 52.628 96.3919 52.3785 96.2897 52.0316C96.1001 51.3864 95.5943 51.1308 94.6242 51.1868C94.3307 51.2007 94.0505 51.3131 93.8287 51.5059C93.6068 51.6986 93.4562 51.9606 93.4011 52.2495C93.3658 52.4771 93.4145 52.5976 93.6661 52.594C94.0442 52.5842 94.4272 52.5879 94.8102 52.5903Z" fill="white"/>
<path d="M77.8467 53.4291C77.3191 53.4291 76.7914 53.4473 76.2662 53.423C75.8784 53.4047 75.8261 53.5849 75.8808 53.9099C75.9854 54.5295 76.5531 55.042 77.2923 55.1199C77.8966 55.1911 78.5082 55.1702 79.1062 55.0578C79.2485 55.0298 79.5062 54.8484 79.522 55.1722C79.5342 55.395 79.7141 55.7504 79.3117 55.8259C78.271 56.0195 77.2206 56.1254 76.2115 55.6896C75.0881 55.2027 74.6894 54.0207 74.8584 52.6463C75.0954 50.7206 76.7258 49.8088 78.5579 50.5112C79.4782 50.8642 80.1603 52.4272 79.7737 53.2818C79.691 53.4644 79.5524 53.4291 79.4223 53.4303C78.8995 53.4315 78.3731 53.4278 77.8467 53.4291ZM77.3361 52.5903C77.6789 52.5903 78.0242 52.566 78.3646 52.5903C78.8704 52.6354 78.8971 52.3737 78.778 52.0024C78.5749 51.3694 78.0485 51.1162 77.0893 51.1868C76.8062 51.2047 76.5367 51.3146 76.3217 51.4998C76.1067 51.685 75.9579 51.9354 75.8978 52.213C75.848 52.4637 75.8978 52.5964 76.1872 52.5867C76.5701 52.5794 76.9531 52.5891 77.3361 52.5903Z" fill="white"/>
<path d="M157.715 53.429C157.188 53.429 156.661 53.4473 156.134 53.4229C155.748 53.4047 155.693 53.5824 155.746 53.9038C155.851 54.5246 156.419 55.0359 157.158 55.1211C157.762 55.1923 158.374 55.1714 158.972 55.059C159.114 55.031 159.372 54.8496 159.389 55.1722C159.401 55.395 159.581 55.7516 159.18 55.8259C158.139 56.0207 157.089 56.1266 156.08 55.692C154.955 55.2051 154.556 54.0231 154.725 52.6487C154.961 50.7218 156.59 49.8112 158.424 50.5124C159.345 50.8642 160.025 52.4235 159.639 53.2817C159.558 53.4656 159.419 53.4302 159.288 53.4315C158.765 53.4315 158.239 53.4278 157.715 53.429ZM157.215 52.5903C157.558 52.5903 157.902 52.5672 158.242 52.5903C158.766 52.6354 158.769 52.3469 158.639 51.9938C158.564 51.7508 158.41 51.5396 158.203 51.3929C157.995 51.2463 157.745 51.1725 157.491 51.1831C156.529 51.1673 156.117 51.3706 155.844 51.9951C155.65 52.4357 155.733 52.6341 156.247 52.5903C156.565 52.5684 156.889 52.5903 157.211 52.5903H157.215Z" fill="white"/>
<path d="M119.254 53.429C118.768 53.429 118.282 53.4583 117.795 53.4205C117.309 53.3828 117.26 53.6323 117.353 54.0085C117.494 54.5782 118.045 55.0408 118.728 55.1126C119.351 55.1926 119.984 55.1675 120.599 55.0383C120.751 55.003 121.003 54.8825 120.983 55.21C120.971 55.423 121.145 55.7517 120.78 55.8186C119.662 56.0231 118.524 56.1448 117.46 55.5849C116.6 55.1308 116.122 53.8685 116.294 52.6561C116.57 50.7315 118.143 49.8149 119.993 50.5027C120.923 50.8484 121.587 52.3444 121.233 53.2611C121.146 53.4875 120.978 53.4217 120.834 53.4254C120.307 53.4339 119.783 53.4278 119.254 53.429ZM118.81 52.5903C119.175 52.5903 119.54 52.5721 119.899 52.5903C120.293 52.6147 120.345 52.415 120.263 52.1034C120.121 51.5897 119.798 51.2598 119.259 51.1916C118.318 51.0699 117.743 51.3207 117.461 51.9452C117.218 52.4759 117.282 52.5769 117.846 52.5842C118.159 52.594 118.482 52.5903 118.81 52.5903Z" fill="white"/>
<path d="M130.335 53.429C129.808 53.429 129.281 53.4449 128.754 53.429C128.404 53.4144 128.348 53.5788 128.389 53.8746C128.473 54.4978 129.034 55.0298 129.773 55.115C130.396 55.1966 131.029 55.1744 131.645 55.0493C131.791 55.0176 132.048 54.8691 132.044 55.1966C132.044 55.4218 132.222 55.7614 131.801 55.8344C130.819 56.0073 129.83 56.1035 128.868 55.7504C127.632 55.2952 127.211 54.1059 127.363 52.6816C127.57 50.7339 129.261 49.7893 131.093 50.5221C132.006 50.8873 132.619 52.2969 132.298 53.2464C132.22 53.4777 132.062 53.429 131.914 53.4303C131.389 53.4327 130.861 53.4278 130.335 53.429ZM129.874 52.5903C130.217 52.5903 130.562 52.5648 130.902 52.5964C131.389 52.6414 131.407 52.3773 131.293 52.0401C131.114 51.513 130.753 51.2123 130.177 51.188C129.194 51.1502 128.748 51.3706 128.475 52.0133C128.313 52.4016 128.331 52.6293 128.839 52.5928C129.191 52.5696 129.535 52.5903 129.874 52.5903Z" fill="white"/>
<path d="M109.455 53.1625C109.478 53.7772 109.422 54.3798 109.09 54.9154C108.551 55.787 107.36 56.1741 106.061 55.9026C104.7 55.6165 104.029 54.5636 104.128 52.8533C104.196 51.6615 104.747 50.7632 105.719 50.5136C106.84 50.2251 107.977 50.163 108.88 51.1223C109.414 51.6944 109.476 52.4211 109.455 53.1625ZM105.158 53.1734C105.158 53.255 105.158 53.3365 105.158 53.4169C105.177 54.4686 105.712 55.0968 106.629 55.1454C107.745 55.2027 108.331 54.706 108.463 53.5983C108.511 53.197 108.492 52.7906 108.407 52.3956C108.152 51.199 107.112 50.9908 106.134 51.2939C105.223 51.5775 105.159 52.3773 105.158 53.1734Z" fill="white"/>
<path d="M147.502 53.1685C147.526 53.7845 147.467 54.3858 147.13 54.9214C146.594 55.7796 145.453 56.1619 144.157 55.916C142.767 55.653 142.067 54.5696 142.17 52.8459C142.243 51.6542 142.795 50.7607 143.768 50.5124C144.891 50.2251 146.028 50.1667 146.929 51.121C147.465 51.7005 147.523 52.4284 147.502 53.1685ZM144.891 51.1916C143.848 51.1819 143.272 51.709 143.208 52.7461C143.19 53.0299 143.19 53.3145 143.208 53.5982C143.267 54.5209 143.816 55.1016 144.667 55.1466C145.712 55.2014 146.321 54.7559 146.481 53.7833C146.573 53.3251 146.561 52.8521 146.446 52.3992C146.208 51.5191 145.8 51.2001 144.892 51.1916H144.891Z" fill="white"/>
<path d="M148.735 53.1211C148.735 52.3517 148.735 51.5824 148.735 50.8082C148.735 50.6122 148.626 50.3322 149.008 50.3334C149.262 50.3334 149.494 50.3164 149.532 50.6706C149.569 51.0249 149.704 50.992 149.957 50.8094C150.248 50.5884 150.59 50.4444 150.952 50.3907C152.593 50.1837 153.669 50.7205 153.599 52.5818C153.562 53.5727 153.575 54.566 153.599 55.5569C153.609 55.9355 153.445 55.9805 153.134 55.9744C152.823 55.9683 152.598 55.9744 152.611 55.5386C152.641 54.5477 152.624 53.5544 152.618 52.5623C152.618 51.793 152.355 51.3682 151.826 51.2233C151.228 51.065 150.074 51.4083 149.831 51.8441C149.773 51.9931 149.751 52.1537 149.767 52.3128C149.761 53.3864 149.744 54.4589 149.767 55.5313C149.78 55.9623 149.567 55.9756 149.247 55.9696C148.927 55.9635 148.699 55.9878 148.716 55.5447C148.758 54.7413 148.735 53.9306 148.735 53.1211Z" fill="white"/>
<path d="M80.9055 53.1137C80.9055 52.3237 80.9055 51.5313 80.9055 50.7449C80.9055 50.5805 80.8301 50.348 81.1256 50.3456C81.3566 50.3456 81.6483 50.2567 81.6897 50.6231C81.742 51.0809 81.9085 50.9579 82.176 50.7729C82.8507 50.32 83.6167 50.275 84.3911 50.4077C85.1655 50.5404 85.7102 51.1539 85.7406 52.0425C85.7831 53.2355 85.7406 54.4309 85.7649 55.625C85.7722 56.0231 85.5339 55.9671 85.2932 55.9683C85.0269 55.9683 84.7692 56.0182 84.7801 55.5922C84.8032 54.6183 84.7887 53.6445 84.7862 52.6706C84.7862 51.8185 84.5674 51.3998 84.0434 51.2342C83.472 51.0529 82.3644 51.3657 82.0216 51.7954C81.8903 51.9597 81.934 52.1423 81.9328 52.3176C81.9328 53.3706 81.9109 54.4236 81.9401 55.4753C81.9523 55.9002 81.7869 55.972 81.4125 55.9732C81.038 55.9744 80.8703 55.8941 80.8873 55.4741C80.9286 54.6938 80.9055 53.9038 80.9055 53.1137Z" fill="white"/>
<path d="M65.8131 51.468C65.0415 51.2371 64.2353 51.144 63.4314 51.1929C63.0777 51.2099 62.7458 51.2951 62.5245 51.5946C62.2485 51.9683 62.4564 52.5039 62.9391 52.6439C63.4217 52.7839 63.9056 52.6889 64.3882 52.712C65.4727 52.762 66.0745 53.412 66.0149 54.4686C65.9772 55.1296 65.6283 55.5971 64.9706 55.7979C63.9749 56.1022 62.9695 55.9732 61.9725 55.7894C61.5507 55.7115 61.688 55.3402 61.7148 55.0931C61.7549 54.7279 62.0212 54.9555 62.1804 54.9884C62.8121 55.1318 63.4613 55.1819 64.1074 55.1369C64.7347 55.087 65.0046 54.8034 64.9815 54.2848C64.9536 53.6761 64.5037 53.6652 64.0746 53.6287C63.5944 53.5885 63.108 53.6847 62.6278 53.552C61.8874 53.3487 61.5251 52.9239 61.457 52.1302C61.3975 51.4205 61.7087 50.8277 62.3713 50.5818C63.4339 50.1886 64.5244 50.292 65.587 50.5818C66.0465 50.7132 65.7195 51.1295 65.8131 51.468Z" fill="white"/>
<path d="M100.963 52.6573C101.017 51.7747 100.867 50.6986 101.041 49.6311C101.189 48.7217 101.727 48.1922 102.643 48.0899C103.145 48.0226 103.654 48.0382 104.151 48.1362C104.582 48.2275 104.595 48.5014 104.539 48.8142C104.465 49.2342 104.201 48.9043 104.026 48.908C103.643 48.9177 103.256 48.8739 102.877 48.908C102.704 48.9178 102.537 48.9785 102.398 49.0824C102.259 49.1863 102.154 49.3288 102.095 49.4923C101.852 50.1204 101.973 50.3359 102.638 50.3383C102.84 50.3383 103.043 50.3444 103.246 50.3383C103.52 50.3298 103.753 50.3018 103.746 50.723C103.74 51.1016 103.624 51.1953 103.26 51.1989C102.001 51.2111 102.001 51.2245 102.001 52.4625C102.001 53.4753 101.977 54.4893 102.012 55.5058C102.028 55.9659 101.804 55.9744 101.463 55.9805C101.121 55.9866 100.945 55.933 100.958 55.524C100.983 54.6305 100.963 53.7382 100.963 52.6573Z" fill="white"/>
<path d="M124.472 54.4978C124.931 53.2501 125.385 52.0036 125.846 50.7583C125.968 50.4162 126.576 50.1971 126.873 50.3748C127.05 50.4807 126.961 50.6317 126.916 50.74C126.242 52.4004 125.548 54.0535 124.887 55.72C124.737 56.0986 124.461 55.9197 124.233 55.9635C123.946 56.017 123.798 55.8795 123.698 55.6105C123.212 54.2872 122.706 52.9701 122.207 51.6518C122.086 51.3316 121.979 51.0054 121.837 50.695C121.694 50.3846 121.837 50.3748 122.087 50.3408C122.606 50.2702 122.881 50.4369 123.051 50.9652C123.435 52.1618 123.894 53.3353 124.322 54.5185L124.472 54.4978Z" fill="white"/>
<path d="M69.892 50.3444C70.3065 50.37 70.6093 50.3906 70.912 50.4065C71.3752 50.4296 71.3144 50.7717 71.2974 51.065C71.2731 51.5154 70.9789 51.2245 70.8111 51.2208C70.1667 51.2062 69.5212 51.1052 68.8865 51.3036C68.6629 51.3672 68.4593 51.4869 68.2948 51.6514C68.1304 51.8158 68.0105 52.0196 67.9467 52.2434C67.799 52.7299 67.7776 53.2461 67.8847 53.7431C68.0477 54.6256 68.6142 55.0992 69.5333 55.1381C69.9953 55.1588 70.4634 55.1893 70.9205 55.0578C71.07 55.014 71.2852 54.9531 71.2852 55.2039C71.2852 55.4181 71.4433 55.6908 71.1442 55.8454C69.8129 56.5246 67.5224 55.6896 67.0106 54.3201C66.7247 53.555 66.7105 52.7146 66.9705 51.9403C67.2829 50.9798 68.0391 50.5611 68.9728 50.4089C69.2778 50.3709 69.5847 50.3494 69.892 50.3444Z" fill="white"/>
<path d="M90.0638 50.3432C90.4517 50.3675 90.7337 50.3955 91.0158 50.3992C91.479 50.4053 91.513 50.6926 91.4814 51.0517C91.4352 51.5508 91.1167 51.2063 90.9428 51.2136C90.4565 51.233 89.9702 51.1807 89.4839 51.2051C89.0244 51.2282 88.6025 51.4083 88.3448 51.8076C87.8414 52.5879 87.8949 53.4315 88.2232 54.2422C88.5004 54.9276 89.1338 55.115 89.8134 55.1369C90.2353 55.1503 90.6644 55.1759 91.079 55.059C91.2285 55.0164 91.4437 54.9373 91.4535 55.1881C91.4644 55.4035 91.6066 55.6835 91.3319 55.8393C90.0955 56.5222 87.7308 55.7006 87.2141 54.3871C86.8993 53.5887 86.8833 52.7033 87.1691 51.894C87.4852 50.9555 88.2353 50.5635 89.1399 50.4065C89.4464 50.3676 89.7549 50.3465 90.0638 50.3432Z" fill="white"/>
<path d="M49.7869 52.1338C49.7869 51.3637 49.7869 50.5927 49.7869 49.821C49.7869 49.6298 49.7869 49.4387 50.0508 49.4314C50.2453 49.4253 50.4933 49.3657 50.5067 49.6749C50.5407 50.5014 51.1437 50.3261 51.6458 50.3407C51.9097 50.348 52.2027 50.2385 52.2087 50.7242C52.2087 51.1843 51.996 51.1977 51.6531 51.1953C50.8216 51.1953 50.8216 51.1953 50.8216 52.0377C50.8216 52.768 50.8216 53.4984 50.8216 54.2288C50.8288 54.9787 50.9699 55.1381 51.6957 55.1381C52.0337 55.1381 52.2063 55.1832 52.2051 55.5934C52.2039 56.0036 51.9619 55.9817 51.6969 55.9695C51.2398 55.9464 50.7644 56.0499 50.3523 55.737C49.8538 55.3597 49.8113 54.8082 49.7918 54.2629C49.7675 53.5532 49.7857 52.8435 49.7869 52.1338Z" fill="white"/>
<path d="M110.565 53.1539C110.565 52.3424 110.565 51.5309 110.565 50.7193C110.565 50.5428 110.519 50.3286 110.808 50.3395C111.019 50.348 111.295 50.2592 111.338 50.583C111.397 51.0358 111.599 50.9348 111.845 50.7461C112.082 50.5532 112.369 50.432 112.672 50.3967C112.864 50.3809 113.194 50.1654 113.229 50.5976C113.252 50.8837 113.315 51.1466 112.84 51.2269C111.777 51.4071 111.596 51.6846 111.596 52.7644C111.596 53.6762 111.569 54.5903 111.607 55.4985C111.625 55.9574 111.4 55.9683 111.059 55.9732C110.717 55.9781 110.537 55.9282 110.553 55.5179C110.588 54.734 110.565 53.944 110.565 53.1539Z" fill="white"/>
<path d="M171.155 27.7087C169.731 27.7087 169.731 27.7087 169.731 26.3136C169.731 25.2875 169.731 25.2875 170.728 25.2875C171.233 25.2875 171.737 25.3081 172.241 25.2814C172.598 25.2619 172.689 25.4031 172.675 25.7366C172.649 26.2407 172.649 26.7457 172.675 27.2497C172.699 27.6405 172.534 27.7367 172.181 27.7135C171.829 27.6904 171.498 27.7087 171.155 27.7087Z" fill="white"/>
<path d="M72.518 53.171C72.518 52.3627 72.5436 51.5532 72.5083 50.7461C72.4876 50.2823 72.7612 50.348 73.0445 50.3371C73.3545 50.3261 73.5697 50.3286 73.5624 50.7656C73.5356 52.3619 73.5356 53.9586 73.5624 55.5557C73.5684 56.0024 73.3192 55.9659 73.0262 55.9756C72.7028 55.9854 72.4925 55.9622 72.5095 55.535C72.5411 54.7486 72.518 53.9537 72.518 53.171Z" fill="white"/>
<path d="M72.9934 49.233C72.6177 49.3146 72.5229 49.1648 72.5071 48.7899C72.4767 48.2567 72.7964 48.3553 73.115 48.3237C73.5247 48.2823 73.5502 48.4831 73.5709 48.8167C73.5952 49.3146 73.301 49.2646 72.9934 49.233Z" fill="white"/>
</g>
<defs>
<clipPath id="clip0_4385_1266">
<rect width="177" height="43" fill="white" transform="translate(10 15)"/>
</clipPath>
</defs>
</svg>
