<svg width="196" height="73" viewBox="0 0 196 73" fill="none" xmlns="http://www.w3.org/2000/svg">
<rect width="196" height="73" fill=""/>
<g clip-path="url(#clip0_4385_1274)">
<path d="M40.5686 25.591H48.7627C50.2124 25.591 51.5738 25.8815 52.8453 26.4625C54.1168 27.0435 55.2287 27.8171 56.1793 28.7815C57.1299 29.7476 57.8785 30.8708 58.4251 32.1544C58.9718 33.4381 59.2451 34.7825 59.2451 36.1878C59.2451 37.5745 58.9768 38.9105 58.4404 40.1941C57.904 41.4777 57.1588 42.6077 56.2081 43.5822C55.2575 44.5568 54.1456 45.3354 52.8741 45.9148C51.6027 46.4958 50.2328 46.7863 48.7627 46.7863H40.5686V25.591ZM46.106 42.1196H47.3775C48.3383 42.1196 49.1956 41.9692 49.9493 41.6703C50.703 41.3713 51.3379 40.9575 51.8556 40.4339C52.3734 39.9087 52.7689 39.2854 53.0422 38.5642C53.3155 37.843 53.4513 37.0509 53.4513 36.1895C53.4513 35.3467 53.3104 34.5596 53.0269 33.8282C52.7451 33.0969 52.3445 32.4703 51.8268 31.945C51.309 31.4197 50.6724 31.0076 49.9204 30.7087C49.1667 30.4097 48.3196 30.2594 47.3775 30.2594H46.106V42.1196Z" fill="white"/>
<path d="M73.4824 32.3654H78.6243V46.7861H73.4824V45.1833C72.3892 46.5514 70.9106 47.2354 69.0467 47.2354C67.9908 47.2354 67.0215 47.0429 66.1371 46.6595C65.251 46.2761 64.4803 45.7373 63.82 45.0431C63.1596 44.3506 62.647 43.5348 62.2803 42.5974C61.9136 41.66 61.7286 40.6399 61.7286 39.5336C61.7286 38.5033 61.9068 37.5236 62.265 36.5964C62.6232 35.6691 63.1223 34.8584 63.7622 34.1642C64.4022 33.4717 65.1644 32.9228 66.0505 32.5191C66.935 32.1171 67.9145 31.9145 68.989 31.9145C70.7969 31.9145 72.2941 32.5428 73.4807 33.7977V32.3654H73.4824ZM67.0419 39.5336C67.0419 40.0014 67.1268 40.4372 67.2965 40.8408C67.4663 41.2445 67.6972 41.5958 67.9891 41.8948C68.2811 42.1954 68.6291 42.4285 69.0348 42.5974C69.4389 42.7663 69.8768 42.8508 70.3487 42.8508C70.8003 42.8508 71.2298 42.7663 71.6338 42.5974C72.0378 42.4285 72.3875 42.1954 72.6795 41.8948C72.9715 41.5958 73.2057 41.2479 73.3857 40.8544C73.5639 40.4608 73.6539 40.0386 73.6539 39.5893C73.6539 39.14 73.5639 38.7127 73.3857 38.3107C73.2057 37.9087 72.9715 37.5557 72.6795 37.2568C72.3875 36.9578 72.0395 36.7231 71.6338 36.5542C71.2281 36.3853 70.8003 36.3008 70.3487 36.3008C69.8785 36.3008 69.4405 36.3853 69.0348 36.5542C68.6291 36.7231 68.2811 36.9578 67.9891 37.2568C67.6972 37.5574 67.4663 37.8986 67.2965 38.282C67.1268 38.6671 67.0419 39.0826 67.0419 39.5336Z" fill="white"/>
<path d="M87.8082 36.61V46.7862H82.6952V36.61H80.9993V32.3655H82.6952V28.0349H87.8082V32.3638H90.7178V36.6083H87.8082V36.61Z" fill="white"/>
<path d="M104.108 32.3654H109.25V46.7861H104.108V45.1833C103.015 46.5514 101.536 47.2354 99.6721 47.2354C98.6162 47.2354 97.6469 47.0429 96.7625 46.6595C95.8764 46.2761 95.104 45.7373 94.4453 45.0431C93.785 44.3506 93.2723 43.5348 92.9056 42.5974C92.539 41.66 92.3539 40.6399 92.3539 39.5336C92.3539 38.5033 92.5322 37.5236 92.8904 36.5964C93.2485 35.6691 93.7476 34.8584 94.3876 34.1642C95.0276 33.4717 95.7898 32.9228 96.6759 32.5191C97.5603 32.1171 98.5398 31.9145 99.6144 31.9145C101.422 31.9145 102.919 32.5428 104.106 33.7977V32.3654H104.108ZM97.6673 39.5336C97.6673 40.0014 97.7521 40.4372 97.9219 40.8408C98.0917 41.2445 98.3225 41.5958 98.6145 41.8948C98.9065 42.1954 99.2545 42.4285 99.6602 42.5974C100.064 42.7663 100.502 42.8508 100.974 42.8508C101.426 42.8508 101.855 42.7663 102.259 42.5974C102.663 42.4285 103.013 42.1954 103.305 41.8948C103.597 41.5958 103.833 41.2479 104.011 40.8544C104.189 40.4608 104.279 40.0386 104.279 39.5893C104.279 39.14 104.189 38.7127 104.011 38.3107C103.831 37.9087 103.597 37.5557 103.305 37.2568C103.013 36.9578 102.665 36.7231 102.259 36.5542C101.853 36.3853 101.426 36.3008 100.974 36.3008C100.502 36.3008 100.066 36.3853 99.6602 36.5542C99.2545 36.7231 98.9065 36.9578 98.6145 37.2568C98.3225 37.5574 98.0917 37.8986 97.9219 38.282C97.7521 38.6671 97.6673 39.0826 97.6673 39.5336Z" fill="white"/>
<path d="M124.903 31.0159C124.3 30.5295 123.698 30.1681 123.095 29.9333C122.492 29.6985 121.908 29.582 121.343 29.582C120.627 29.582 120.043 29.7509 119.591 30.0887C119.14 30.4265 118.914 30.8673 118.914 31.4095C118.914 31.7844 119.028 32.0935 119.253 32.3367C119.479 32.58 119.776 32.7911 120.143 32.9684C120.51 33.1475 120.924 33.3012 121.386 33.4329C121.847 33.5647 122.304 33.7048 122.755 33.8552C124.563 34.4548 125.887 35.257 126.724 36.2586C127.563 37.2619 127.982 38.5692 127.982 40.1805C127.982 41.2682 127.799 42.2512 127.431 43.1329C127.064 44.0145 126.526 44.7678 125.82 45.3961C125.113 46.0244 124.246 46.5109 123.221 46.8571C122.194 47.2034 121.031 47.3773 119.732 47.3773C117.038 47.3773 114.543 46.5818 112.244 44.9874L114.617 40.5453C115.446 41.2766 116.266 41.8205 117.075 42.1752C117.885 42.5316 118.686 42.7089 119.478 42.7089C120.382 42.7089 121.055 42.5029 121.498 42.0908C121.941 41.6786 122.161 41.2108 122.161 40.6855C122.161 40.3663 122.105 40.091 121.992 39.8562C121.878 39.6214 121.689 39.4069 121.426 39.2093C121.161 39.0134 120.819 38.8293 120.396 38.6604C119.972 38.4915 119.459 38.304 118.856 38.0979C118.14 37.8733 117.439 37.625 116.751 37.3531C116.064 37.0812 115.451 36.7214 114.915 36.2704C114.378 35.8212 113.944 35.2537 113.614 34.5696C113.285 33.8856 113.12 33.0191 113.12 31.9685C113.12 30.9197 113.293 29.9688 113.643 29.1158C113.991 28.2629 114.482 27.5332 115.111 26.9235C115.743 26.3154 116.514 25.8408 117.429 25.5047C118.342 25.1669 119.364 24.998 120.494 24.998C121.549 24.998 122.65 25.1433 123.799 25.4338C124.949 25.7243 126.05 26.1499 127.105 26.7124L124.903 31.0159Z" fill="white"/>
<path d="M136.967 36.61V46.7862H131.854V36.61H130.158V32.3655H131.854V28.0349H136.967V32.3638H139.877V36.6083H136.967V36.61Z" fill="white"/>
<path d="M141.486 39.4491C141.486 38.3817 141.702 37.3835 142.136 36.4545C142.569 35.5272 143.172 34.7216 143.944 34.0375C144.717 33.3535 145.635 32.8147 146.699 32.4212C147.764 32.0276 148.926 31.83 150.188 31.83C151.43 31.83 152.585 32.0226 153.649 32.406C154.713 32.7911 155.637 33.3248 156.418 34.0088C157.199 34.6929 157.806 35.5087 158.241 36.4545C158.674 37.4004 158.891 38.4458 158.891 39.5893C158.891 40.7328 158.669 41.7783 158.227 42.7241C157.784 43.6699 157.177 44.4857 156.404 45.1698C155.632 45.8538 154.705 46.3842 153.622 46.7574C152.539 47.1324 151.366 47.3199 150.105 47.3199C148.862 47.3199 147.713 47.1324 146.657 46.7574C145.601 46.3825 144.693 45.8488 143.931 45.1546C143.168 44.4621 142.569 43.6328 142.136 42.6667C141.702 41.7022 141.486 40.6297 141.486 39.4491ZM146.883 39.5049C146.883 39.993 146.973 40.4372 147.151 40.8409C147.329 41.2445 147.565 41.5958 147.857 41.8948C148.149 42.1954 148.497 42.4285 148.903 42.5974C149.307 42.7663 149.736 42.8508 150.188 42.8508C150.639 42.8508 151.069 42.7663 151.473 42.5974C151.877 42.4285 152.226 42.1954 152.518 41.8948C152.81 41.5958 153.045 41.2445 153.225 40.8409C153.403 40.4389 153.493 40.0031 153.493 39.5336C153.493 39.0843 153.403 38.657 153.225 38.255C153.045 37.853 152.81 37.5 152.518 37.201C152.226 36.9021 151.878 36.6673 151.473 36.4984C151.067 36.3295 150.639 36.2451 150.188 36.2451C149.736 36.2451 149.307 36.3295 148.903 36.4984C148.497 36.6673 148.149 36.9021 147.857 37.201C147.565 37.5017 147.329 37.8479 147.151 38.2415C146.971 38.6333 146.883 39.0556 146.883 39.5049Z" fill="white"/>
<path d="M161.828 32.3654H166.941V34.7266C167.488 33.8652 168.157 33.2048 168.948 32.7454C169.739 32.286 170.662 32.0563 171.716 32.0563C171.849 32.0563 171.995 32.0563 172.154 32.0563C172.314 32.0563 172.497 32.0749 172.706 32.112V36.9747C172.029 36.6369 171.294 36.468 170.503 36.468C169.316 36.468 168.426 36.8193 167.832 37.5219C167.238 38.2245 166.943 39.2514 166.943 40.5993V46.7844H161.83V32.3654H161.828Z" fill="white"/>
<path d="M179.769 40.4322C179.769 42.6245 180.805 43.7207 182.878 43.7207C183.99 43.7207 184.826 43.2714 185.392 42.3712H190.337C189.339 45.6698 186.843 47.3183 182.849 47.3183C181.625 47.3183 180.505 47.1359 179.486 46.7694C178.469 46.4045 177.597 45.8843 176.872 45.2087C176.147 44.5348 175.587 43.7292 175.191 42.7918C174.796 41.8544 174.597 40.8055 174.597 39.6435C174.597 38.4443 174.785 37.3616 175.162 36.3972C175.539 35.4328 176.076 34.6119 176.773 33.938C177.469 33.2641 178.313 32.7439 179.303 32.3774C180.292 32.0125 181.408 31.8284 182.65 31.8284C183.874 31.8284 184.976 32.0108 185.955 32.3774C186.935 32.7422 187.763 33.2725 188.442 33.965C189.12 34.6592 189.639 35.5071 189.996 36.5087C190.354 37.5119 190.532 38.6402 190.532 39.8968V40.4305H179.769V40.4322ZM185.758 37.4815C185.589 36.7688 185.241 36.1979 184.713 35.7672C184.185 35.3365 183.545 35.1203 182.791 35.1203C182 35.1203 181.355 35.3264 180.856 35.7385C180.357 36.1506 180.041 36.7316 179.909 37.4815H185.758Z" fill="white"/>
<path d="M34.3791 25.679H13.3804V29.7056H34.3791V25.679Z" fill="white"/>
<path d="M34.3791 31.3723H13.3804V35.3989H34.3791V31.3723Z" fill="white"/>
<path d="M25.9981 37.066H4.99939V41.0926H25.9981V37.066Z" fill="white"/>
<path d="M34.3791 42.7581H13.3804V46.7847H34.3791V42.7581Z" fill="white"/>
</g>
<defs>
<clipPath id="clip0_4385_1274">
<rect width="185.534" height="22.3759" fill="white" transform="translate(5 25)"/>
</clipPath>
</defs>
</svg>
