<svg width="77" height="74" viewBox="0 0 77 74" fill="none" xmlns="http://www.w3.org/2000/svg">
<circle cx="30" cy="30" r="30" fill="#F5F8FA" fill-opacity="0.5"/>
<path d="M18.3213 48.4108C18.818 46.9121 19.8714 46.3126 21.413 46.3876C22.4385 46.4389 23.4705 46.3876 24.5003 46.3876C26.2624 46.3876 27.2537 47.3532 27.303 49.1003C27.303 49.1902 27.303 49.2801 27.318 49.355C28.4934 49.5049 29.6453 49.6034 30.7779 49.8089C32.9853 50.2404 35.0916 51.0836 36.9869 52.2947C38.2994 53.104 39.6653 53.7934 41.2197 53.9904C42.5558 54.1617 43.8939 54.3008 45.2321 54.4571C47.1269 54.6712 49.0217 54.8854 50.9144 55.1187C53.6185 55.4484 55.7638 57.9877 55.5861 60.4906C55.569 60.7261 55.5861 60.9659 55.5861 61.2935C56.768 60.7775 57.8749 60.2936 58.9818 59.8055C62.7436 58.1504 66.4905 56.4654 70.2716 54.8575C71.0247 54.5367 71.8385 54.3833 72.6567 54.4079C74.1661 54.4764 75.3715 55.6733 75.7098 57.1913C75.8853 57.9151 75.8302 58.6756 75.5522 59.3666C75.2743 60.0575 74.7875 60.6444 74.1597 61.0451C68.9184 64.368 63.6757 67.6895 58.4316 71.0095C57.0528 71.9181 55.4795 72.4895 53.839 72.6774C53.7493 72.698 53.6618 72.7274 53.5778 72.7652H38.6419C37.7256 72.5254 36.7878 72.352 35.8993 72.0351C33.3493 71.1252 30.8207 70.1553 28.2836 69.2111C27.9774 69.0976 27.6648 68.997 27.3436 68.8813C27.1295 70.8747 26.2539 71.639 24.2712 71.639C23.3163 71.639 22.3614 71.6005 21.4087 71.639C19.865 71.7182 18.8137 71.108 18.3213 69.6136V48.4108ZM27.3137 51.1407C27.3137 51.9821 27.3137 52.7486 27.3137 53.5129C27.3137 54.2024 26.9882 54.5985 26.4573 54.5835C25.9263 54.5685 25.6415 54.1917 25.6394 53.5258C25.6394 52.0677 25.6394 50.6075 25.6394 49.1495C25.6394 48.3766 25.3589 48.079 24.6031 48.079C23.4241 48.079 22.2458 48.079 21.0682 48.079C20.306 48.079 20.0277 48.368 20.0277 49.1495C20.0277 55.7339 20.0277 62.3183 20.0277 68.9028C20.0277 69.6757 20.306 69.9604 21.0661 69.9733C22.1516 69.9733 23.2371 69.9733 24.3226 69.9733C25.4081 69.9733 25.6394 69.7742 25.6394 68.6887C25.6394 65.1545 25.6394 61.6189 25.6394 58.0819C25.6283 57.9141 25.6333 57.7456 25.6544 57.5788C25.6853 57.3839 25.7842 57.2064 25.9336 57.0775C26.0829 56.9486 26.2731 56.8768 26.4704 56.8747C26.6676 56.8727 26.8592 56.9405 27.0113 57.0663C27.1633 57.192 27.2658 57.3675 27.3008 57.5617C27.3273 57.7467 27.3345 57.934 27.3222 58.1205C27.3222 60.9274 27.3222 63.7321 27.3222 66.539C27.3222 66.9244 27.41 67.1257 27.8061 67.2691C30.6294 68.2997 33.447 69.3467 36.2589 70.4101C37.3732 70.8523 38.5588 71.0874 39.7574 71.1038H52.5523C54.2461 71.1216 55.9092 70.6503 57.3418 69.7463C62.6502 66.3892 67.9542 63.027 73.254 59.6599C73.6444 59.4122 73.9327 59.0324 74.0663 58.5898C74.2 58.1473 74.17 57.6714 73.982 57.2491C73.8233 56.8229 73.5094 56.4725 73.1032 56.268C72.697 56.0635 72.2285 56.0201 71.7917 56.1464C71.4478 56.2304 71.1124 56.3458 70.7897 56.4911C65.7111 58.7221 60.6326 60.9516 55.554 63.1798C55.1284 63.3601 54.6716 63.4554 54.2094 63.4602C51.2719 63.4859 48.3344 63.4731 45.3969 63.4731C45.2299 63.4731 45.0608 63.4731 44.8938 63.4731C44.6793 63.4622 44.4773 63.3694 44.3294 63.2138C44.1814 63.0582 44.0989 62.8517 44.0989 62.637C44.0989 62.4223 44.1814 62.2158 44.3294 62.0602C44.4773 61.9046 44.6793 61.8118 44.8938 61.8009C45.0436 61.7881 45.1935 61.8009 45.3434 61.8009H53.3124C53.5072 61.8009 53.7042 61.7838 53.9333 61.7731C53.9333 61.3449 53.9333 60.9616 53.9333 60.5891C53.9333 58.6622 52.6722 57.1056 50.7602 56.8465C48.2766 56.5104 45.7909 56.185 43.2966 55.9901C40.5988 55.776 38.096 55.0952 35.8029 53.6114C34.8139 53.0081 33.7667 52.506 32.677 52.1127C30.9604 51.4618 29.1388 51.1323 27.303 51.1407H27.3137Z" fill="#6F63DE"/>
<path d="M53.6291 73.0927L38.554 73.0841C38.2693 73.0092 37.9824 72.9407 37.6976 72.87C37.051 72.7292 36.4127 72.5527 35.7856 72.3412C33.9979 71.6989 32.1908 71.0244 30.433 70.3671L28.1592 69.5107C27.973 69.4401 27.7846 69.3758 27.5962 69.3116C27.2793 71.1615 26.2601 71.9579 24.2583 71.9579H23.359C22.7167 71.9579 22.0551 71.9408 21.4128 71.9729C19.6722 72.0607 18.5246 71.3071 18.0043 69.727L18 69.6799V48.3572L18.0171 48.308C18.5395 46.7365 19.6914 45.9828 21.4257 46.0663C22.1065 46.1006 22.8066 46.092 23.4832 46.0834H24.4981C26.425 46.0834 27.5598 47.1818 27.6218 49.0809L28.4483 49.1794C29.2341 49.2693 30.0434 49.3614 30.8334 49.5048C32.9509 49.8902 35.017 50.7188 37.1516 52.0334C38.2907 52.7357 39.6674 53.4807 41.2581 53.6841C42.1617 53.7998 43.0823 53.8982 43.9751 54.0032L45.2598 54.1509L46.9148 54.3414C48.2594 54.4956 49.6018 54.6497 50.9442 54.8125C53.7747 55.1572 56.0827 57.8271 55.8965 60.5248C55.8965 60.6168 55.8965 60.7132 55.8965 60.8181L56.5923 60.5141L58.8489 59.5249L61.8764 58.1868C64.5784 56.9899 67.3746 55.7524 70.143 54.5748C70.9402 54.2359 71.8014 54.0737 72.6672 54.0995C74.258 54.1723 75.6369 55.4205 76.018 57.1334C76.2077 57.921 76.1469 58.7483 75.8441 59.4997C75.5413 60.2512 75.0115 60.8895 74.3287 61.3255L67.8478 65.4299L58.5984 71.2856C57.1789 72.2213 55.5583 72.8082 53.8689 72.9985C53.8384 73.0055 53.8089 73.0163 53.7811 73.0306L53.6805 73.0691L53.6291 73.0927ZM38.6825 72.4504H53.5156H53.5327C53.6178 72.4115 53.7079 72.3848 53.8004 72.3712C55.3914 72.1877 56.9166 71.6309 58.2516 70.7461C61.3318 68.7892 64.4142 66.8358 67.4988 64.8861L73.9797 60.7817C74.5503 60.4155 74.9925 59.8804 75.2447 59.251C75.4968 58.6216 75.5463 57.9293 75.3864 57.2704C75.0674 55.8402 73.9369 54.7996 72.633 54.7397C71.863 54.7202 71.0979 54.8663 70.3892 55.1679C67.6251 56.3433 64.8225 57.5808 62.1312 58.7755L59.108 60.1115L56.8492 61.1007L55.2541 61.7965V61.3041C55.2541 61.1949 55.2541 61.09 55.2541 61.0044C55.2541 60.8138 55.2541 60.6489 55.2541 60.4777C55.4233 58.1032 53.3722 55.7545 50.865 55.4484C49.5247 55.2856 48.1823 55.1315 46.8398 54.9773L45.1848 54.7868L43.9002 54.6412C43.0074 54.5406 42.0824 54.4271 41.1725 54.32C39.4597 54.1059 38.008 53.3159 36.8112 52.5772C34.7472 51.3054 32.7539 50.5068 30.7157 50.1364C29.9492 49.9951 29.1827 49.9073 28.3734 49.8153C28.0094 49.7725 27.6411 49.7318 27.2729 49.6847L27.0116 49.6611L26.9924 49.3143C26.9924 49.2543 26.9924 49.1858 26.9924 49.1194C26.9496 47.5522 26.091 46.7236 24.5088 46.7193C24.1726 46.7193 23.8386 46.7193 23.5025 46.7193C22.8173 46.7193 22.1087 46.7365 21.4085 46.7022C19.9569 46.6358 19.0812 47.1968 18.6423 48.4621V69.5728C19.0705 70.8446 19.9505 71.4013 21.3936 71.3306C22.0573 71.2964 22.7296 71.3049 23.3783 71.3135C23.6759 71.3135 23.9714 71.3135 24.2711 71.3135C26.1017 71.3135 26.8211 70.6712 27.0245 68.8427L27.0695 68.4423L27.7546 68.68C27.9687 68.7549 28.1828 68.8277 28.3969 68.9069L30.675 69.7634C32.4199 70.4185 34.2248 71.0951 36.0083 71.7331C36.6132 71.9355 37.2285 72.1048 37.8517 72.2406C38.1258 72.3133 38.4063 72.3797 38.6825 72.4504ZM39.723 71.4055C38.4884 71.3883 37.2673 71.1459 36.1196 70.6904C33.4027 69.6713 30.5144 68.5879 27.6668 67.5517C27.0545 67.3376 26.971 66.9222 26.9731 66.5175C26.986 64.308 26.9838 62.0599 26.9731 59.8803V58.0947C26.9731 58.0476 26.9731 57.9983 26.9731 57.9491C26.9799 57.8339 26.9742 57.7183 26.956 57.6044C26.943 57.4821 26.8835 57.3695 26.7899 57.2898C26.6963 57.2101 26.5756 57.1695 26.4528 57.1762C26.3264 57.1697 26.2026 57.2133 26.108 57.2974C26.0135 57.3815 25.9558 57.4995 25.9476 57.6258C25.9329 57.7272 25.9293 57.8298 25.9368 57.932C25.9368 57.9769 25.9368 58.0219 25.9368 58.0668V68.6736C25.9368 69.9389 25.5857 70.2858 24.2989 70.2879H23.3976C22.6118 70.2879 21.8282 70.2879 21.0424 70.2879C20.1046 70.2879 19.685 69.8597 19.685 68.9048C19.685 62.3218 19.685 55.7374 19.685 49.1515C19.685 48.2009 20.1132 47.7749 21.0446 47.7684C22.2414 47.7684 23.4318 47.7684 24.5837 47.7684C25.5172 47.7684 25.9368 48.1966 25.939 49.1558C25.939 49.8945 25.939 50.6332 25.939 51.3718C25.939 52.1105 25.939 52.8127 25.939 53.5321C25.939 54.2515 26.3201 54.2665 26.4443 54.2686C26.5046 54.2739 26.5654 54.2667 26.6228 54.2476C26.6802 54.2284 26.7332 54.1977 26.7783 54.1573C26.9243 53.9767 26.9942 53.7463 26.9731 53.515C26.9731 52.9904 26.9731 52.4659 26.9731 51.9178V50.8194H27.2964C29.1582 50.8058 31.0068 51.1315 32.7518 51.7807C33.8612 52.1797 34.9278 52.689 35.9355 53.3009C37.9995 54.6326 40.4017 55.3948 43.2857 55.6303C45.7993 55.8444 48.2594 56.157 50.7665 56.4868C52.8069 56.763 54.2264 58.4351 54.2179 60.5547V62.0535L53.9117 62.0663L53.6976 62.077C53.5477 62.077 53.4107 62.0942 53.2694 62.0942H45.1741C45.0786 62.0887 44.9828 62.0887 44.8872 62.0942C44.7501 62.0963 44.6191 62.1515 44.5217 62.2481C44.4243 62.3446 44.3681 62.4752 44.3648 62.6123C44.3703 62.75 44.4284 62.8803 44.5273 62.9763C44.6261 63.0723 44.758 63.1267 44.8958 63.1283C45.0007 63.1283 45.1099 63.1283 45.2298 63.1283H47.5164C49.7003 63.1283 51.9569 63.1283 54.1772 63.1133C54.5967 63.111 55.0116 63.0251 55.3976 62.8606C58.8061 61.3619 62.2661 59.8503 65.6125 58.3794L70.6333 56.172C70.974 56.0183 71.328 55.8957 71.6909 55.8059C72.2023 55.6589 72.7501 55.7094 73.226 55.9473C73.7019 56.1853 74.071 56.5933 74.2602 57.0905C74.4811 57.5832 74.5161 58.1392 74.3587 58.6556C74.2012 59.1721 73.862 59.614 73.4038 59.8996C68.0997 63.2653 62.7949 66.6267 57.4894 69.9839C56.0057 70.9208 54.2833 71.41 52.5286 71.3927H39.723V71.4055ZM26.4635 56.5296C26.7349 56.5222 26.9996 56.614 27.2081 56.7878C27.4166 56.9617 27.5546 57.2055 27.5962 57.4738C27.6247 57.6377 27.6347 57.8043 27.6261 57.9705C27.6261 58.0133 27.6261 58.0583 27.6261 58.1011V59.8867C27.6261 62.062 27.6261 64.3101 27.6261 66.524C27.6261 66.8087 27.6604 66.8644 27.898 66.9522C30.7478 67.9906 33.6382 69.074 36.3552 70.0952C37.4322 70.5218 38.5776 70.7495 39.7359 70.7675H52.535C54.1674 70.7838 55.77 70.3296 57.1511 69.4593C62.4595 66.1022 67.7643 62.7407 73.0655 59.375C73.3932 59.1689 73.635 58.8508 73.746 58.4799C73.857 58.1091 73.8298 57.7105 73.6693 57.3582C73.5368 57.0041 73.2755 56.7131 72.9376 56.5436C72.5997 56.374 72.2102 56.3384 71.8472 56.4439C71.5223 56.5235 71.2055 56.6332 70.9009 56.7715L65.8823 58.9768C62.5358 60.4498 59.0738 61.9743 55.6652 63.4601C55.1996 63.6573 54.6999 63.7613 54.1943 63.7663C51.9698 63.7856 49.711 63.7834 47.525 63.7813H45.2383C45.1041 63.7851 44.9697 63.7815 44.8358 63.7706C44.5292 63.7706 44.2351 63.6488 44.0183 63.432C43.8015 63.2151 43.6797 62.9211 43.6797 62.6144C43.6797 62.3078 43.8015 62.0137 44.0183 61.7969C44.2351 61.5801 44.5292 61.4583 44.8358 61.4583C44.9542 61.4519 45.0729 61.4519 45.1912 61.4583H53.2822C53.3807 61.4583 53.4792 61.4583 53.582 61.4476V60.5676C53.582 58.7541 52.4258 57.3796 50.6852 57.1419C48.1866 56.8036 45.7372 56.4825 43.2386 56.2855C40.2411 56.0414 37.7468 55.2471 35.5951 53.8554C34.6223 53.2687 33.5939 52.7796 32.5248 52.3952C30.9612 51.8039 29.3063 51.4902 27.6347 51.4682V51.9135C27.6347 52.4637 27.6347 52.984 27.6347 53.515C27.6458 53.7141 27.6171 53.9134 27.5501 54.1013C27.4832 54.2892 27.3795 54.4618 27.245 54.6091C27.1389 54.7106 27.0131 54.7892 26.8754 54.8401C26.7376 54.8909 26.5909 54.9128 26.4443 54.9045C25.7463 54.8874 25.3138 54.3607 25.3117 53.5278C25.3117 52.8056 25.3117 52.0841 25.3117 51.3632C25.3117 50.6267 25.3117 49.8881 25.3117 49.1494C25.3117 48.5478 25.1746 48.4086 24.5944 48.4043C23.4468 48.4043 22.2585 48.4043 21.0617 48.4043C20.4772 48.4043 20.3423 48.5456 20.3423 49.1451C20.3423 55.7295 20.3423 62.314 20.3423 68.8984C20.3423 69.4979 20.4772 69.6349 21.0617 69.6392C21.8453 69.6392 22.6268 69.6392 23.4168 69.6392H24.3225C25.2624 69.6392 25.3181 69.5835 25.3181 68.6672V58.0626C25.3181 58.024 25.3181 57.9833 25.3181 57.9427C25.3083 57.7938 25.3162 57.6443 25.3416 57.4973C25.3779 57.2259 25.5126 56.9773 25.7203 56.7988C25.928 56.6204 26.194 56.5245 26.4678 56.5296H26.4635Z" fill="#6F63DE"/>
<path d="M45.0582 28.4649C44.4159 27.8462 43.9278 27.3773 43.4332 26.9212C42.9729 26.493 42.6902 26.0199 42.9215 25.3818C43.1527 24.7438 43.6773 24.5618 44.3003 24.5254C46.5984 24.4098 48.895 24.2892 51.1902 24.1636C51.7683 24.1336 52.3463 24.0865 52.9266 24.0672C53.8429 24.0394 54.4018 24.5554 54.3589 25.4589C54.2198 28.4285 54.057 31.396 53.8943 34.3656C53.8937 34.621 53.8127 34.8697 53.6628 35.0764C53.513 35.2832 53.3018 35.4375 53.0593 35.5175C52.8317 35.6103 52.5808 35.6296 52.3416 35.5727C52.1025 35.5159 51.8871 35.3858 51.7254 35.2007C51.188 34.659 50.6549 34.1002 50.1154 33.5264C49.9013 33.7276 49.7557 33.8646 49.6122 34.006C47.681 35.9343 45.7505 37.8613 43.8207 39.7868C43.0285 40.5768 42.3884 40.5811 41.6047 39.8018C40.5984 38.8026 39.5936 37.7977 38.5901 36.7872C37.8493 36.0378 37.8558 35.4105 38.6073 34.6461C40.5485 32.7021 42.494 30.7601 44.4438 28.8203C44.6357 28.6809 44.8417 28.5618 45.0582 28.4649ZM45.0582 26.1933C45.5036 26.6215 45.8397 26.9341 46.163 27.2638C46.9809 28.0838 46.9766 28.6919 46.1523 29.5162C44.2254 31.4474 42.2984 33.3743 40.3715 35.297C40.2302 35.4383 40.0974 35.5882 40.0204 35.6674L42.8358 38.4957C42.9318 38.3541 43.0369 38.2189 43.1506 38.0911C45.0518 36.1841 46.9545 34.28 48.8586 32.3788C49.8049 31.4324 50.3445 31.4324 51.3015 32.4002C51.5863 32.6871 51.8453 32.9997 52.1173 33.3015L52.2693 33.2095C52.402 30.743 52.5348 28.2851 52.6675 25.7715L45.0582 26.1933Z" fill="#6F63DE"/>
<path d="M42.7037 40.7096C42.2755 40.7096 41.8301 40.4955 41.3805 40.0352C40.4813 39.1488 39.4322 38.0997 38.3638 37.0292C37.4945 36.1513 37.5074 35.3313 38.3809 34.4471C40.5498 32.2739 42.3718 30.4519 44.2174 28.6191C44.3091 28.5349 44.4112 28.463 44.5214 28.405L44.2645 28.1588C43.8834 27.7927 43.5515 27.4758 43.2154 27.1675C42.9777 26.9534 42.2562 26.2854 42.6202 25.2813C42.9842 24.2771 43.9626 24.2343 44.2838 24.2107C46.1393 24.1165 47.9949 24.0195 49.8505 23.9196L51.1672 23.8489L51.7924 23.8125C52.1585 23.789 52.5354 23.7654 52.91 23.7526C53.1531 23.7324 53.3978 23.7633 53.6282 23.8433C53.8587 23.9234 54.0699 24.0507 54.2482 24.2172C54.4038 24.3861 54.5224 24.5858 54.5961 24.8034C54.6699 25.021 54.6972 25.2516 54.6764 25.4804C54.5415 28.3451 54.3852 31.2098 54.2118 34.3893C54.2062 34.7065 54.1031 35.0143 53.9166 35.2709C53.7301 35.5275 53.4691 35.7205 53.1691 35.8238C52.8838 35.9384 52.57 35.9625 52.2705 35.8928C51.971 35.8231 51.7002 35.663 51.4948 35.4341C51.1158 35.053 50.754 34.6719 50.3708 34.2694L50.116 33.976C50.0175 34.0681 49.934 34.1495 49.8505 34.2308L47.6388 36.4425L44.0483 40.0266C43.5879 40.4805 43.1469 40.7096 42.7037 40.7096ZM52.9978 24.397H52.9357C52.5717 24.397 52.1992 24.4313 51.8395 24.4548L51.1972 24.4934L49.8805 24.564C48.0249 24.6625 46.1693 24.7596 44.3137 24.8552C43.6886 24.8873 43.3717 25.0693 43.2197 25.4975C43.0677 25.9257 43.1876 26.2704 43.6479 26.6922C43.9883 27.0048 44.3202 27.3345 44.7184 27.6921L45.2901 28.238L45.5941 28.5292L45.2344 28.7433C45.138 28.8011 45.0481 28.8504 44.9668 28.8932C44.8638 28.9414 44.7674 29.0026 44.6799 29.0752C42.8364 30.8972 41.0037 32.7192 38.8348 34.8881C38.2075 35.5197 38.1925 35.9415 38.8198 36.5646C39.8904 37.6351 40.9416 38.6928 41.8323 39.5791C42.4874 40.2215 42.9306 40.2215 43.5944 39.5642L47.1742 35.9865L49.3859 33.7748C49.4822 33.6784 49.5807 33.5864 49.7006 33.475L50.1288 33.0682L50.3429 33.2995L50.8354 33.8176C51.2165 34.2158 51.574 34.5948 51.9487 34.9716C52.0664 35.1126 52.2263 35.212 52.4048 35.2552C52.5833 35.2984 52.7709 35.283 52.94 35.2114C53.124 35.1531 53.2844 35.037 53.3974 34.8805C53.5103 34.7239 53.5699 34.5352 53.5673 34.3422C53.7429 31.1648 53.8992 28.3001 54.0319 25.4397C54.0494 25.2994 54.0369 25.157 53.9952 25.0219C53.9535 24.8868 53.8836 24.7621 53.79 24.6561C53.6815 24.5628 53.5557 24.4919 53.4198 24.4475C53.2838 24.403 53.1404 24.3859 52.9978 24.397ZM42.8664 38.9946L39.5585 35.6696L39.839 35.3634C39.916 35.2799 40.0167 35.1707 40.1216 35.0658L42.6223 32.5865L45.9174 29.2786C46.6175 28.5763 46.6196 28.1738 45.9281 27.4801C45.714 27.266 45.4999 27.0519 45.2365 26.81L44.8276 26.4182L44.2945 25.9064L53.0064 25.4311L52.5782 33.3958L52.0515 33.7127L51.8738 33.5157L51.6147 33.2288C51.437 33.0147 51.2529 32.8156 51.0623 32.625C50.6341 32.1968 50.3215 31.9827 50.0603 31.9827C49.7991 31.9827 49.4994 32.1711 49.0754 32.5951L47.9771 33.6934C46.4455 35.2378 44.9125 36.7779 43.3781 38.3138C43.3036 38.3918 43.2362 38.4764 43.1769 38.5664C43.1469 38.6114 43.1169 38.6521 43.0891 38.6885L42.8664 38.9946ZM40.4534 35.6568L42.7979 38.0119C42.8364 37.9623 42.8778 37.9151 42.9221 37.8706C44.4565 36.3305 45.993 34.7925 47.5317 33.2566L48.6279 32.1583C49.191 31.5973 49.6214 31.3575 50.0689 31.3575C50.5206 31.3575 50.9553 31.6038 51.5269 32.1797C51.6811 32.336 51.8309 32.5009 51.9744 32.6636L52.3277 26.1098L45.8082 26.4674C46.0223 26.6644 46.2 26.8421 46.382 27.0262C47.3262 27.9704 47.3219 28.7819 46.382 29.7325L43.0655 33.0404L40.584 35.5304C40.5391 35.5668 40.4941 35.6118 40.4534 35.6568Z" fill="#6F63DE"/>
<path d="M47.062 49.4685C42.9431 49.4729 38.9616 47.9869 35.8527 45.285C32.7438 42.583 30.7174 38.8475 30.1478 34.7681C29.4584 29.7666 30.7901 25.2875 34.0017 21.3801C34.4299 20.8599 34.8923 20.7764 35.3056 21.1146C35.7188 21.4529 35.7081 21.924 35.3056 22.4485C35.2606 22.5085 35.2135 22.5663 35.1664 22.6241C34.0316 23.9961 33.1487 25.5582 32.5586 27.238C29.347 36.3075 35.16 46.1263 44.6619 47.5929C46.6514 47.9284 48.688 47.8604 50.6507 47.3929C52.6133 46.9254 54.4619 46.068 56.0865 44.8717C56.7888 44.3685 57.2662 44.3428 57.6024 44.7989C57.9385 45.2549 57.7651 45.7366 57.0842 46.2269C54.1764 48.3519 50.6635 49.4881 47.062 49.4685Z" fill="#6F63DE"/>
<path d="M47.0621 49.7897C42.8626 49.7735 38.8076 48.2545 35.631 45.5076C32.4652 42.7599 30.4055 38.9555 29.8352 34.8024C29.133 29.771 30.4561 25.1827 33.7512 21.1854C34.2886 20.5324 34.9459 20.4168 35.509 20.8771C36.0721 21.3374 36.0678 21.9904 35.5475 22.6584C35.5004 22.7184 35.4533 22.7805 35.4041 22.8383C34.2959 24.1831 33.4328 25.7122 32.8541 27.3559C32.1139 29.4418 31.8422 31.6652 32.0582 33.868C32.2741 36.0708 32.9725 38.199 34.1037 40.1015C35.2349 42.004 36.7711 43.634 38.6033 44.8759C40.4355 46.1177 42.5186 46.9409 44.7048 47.2868C46.6543 47.6133 48.6496 47.5446 50.5721 47.0849C52.4946 46.6251 54.3051 45.7837 55.896 44.6105C56.7524 44.0003 57.4097 44.0003 57.8593 44.6105C57.9475 44.7229 58.0119 44.852 58.0487 44.99C58.0855 45.128 58.0939 45.2721 58.0735 45.4134C58.0156 45.7838 57.7437 46.1457 57.2684 46.484C54.3064 48.6436 50.7321 49.801 47.0664 49.7876L47.0621 49.7897ZM34.796 21.2325C34.6526 21.2325 34.4685 21.3117 34.2458 21.5836C31.0706 25.4375 29.801 29.8673 30.4711 34.7232C31.02 38.7211 33.0029 42.3833 36.0507 45.028C39.1113 47.6723 43.0174 49.1336 47.0621 49.1474C50.5937 49.1599 54.0372 48.0454 56.8916 45.9658C57.3027 45.6682 57.4162 45.4455 57.4354 45.3128C57.4434 45.255 57.4388 45.1961 57.4218 45.1403C57.4047 45.0845 57.3758 45.033 57.3369 44.9895C57.2256 44.8375 57.0372 44.5827 56.2664 45.133C54.6079 46.3534 52.7214 47.2285 50.7185 47.7066C48.7156 48.1847 46.6372 48.256 44.6063 47.9163C42.3265 47.5553 40.1542 46.6968 38.2436 45.4017C36.333 44.1066 34.731 42.4067 33.5514 40.4227C32.3718 38.4387 31.6435 36.2193 31.4183 33.9221C31.193 31.625 31.4764 29.3064 32.2482 27.1311C32.8536 25.4168 33.7559 23.8224 34.9138 22.4208L35.0423 22.2559C35.4876 21.6864 35.2071 21.4552 35.1001 21.3674C35.0181 21.2876 34.9102 21.2397 34.796 21.2325Z" fill="#6F63DE"/>
<path d="M64.2032 32.385C64.1743 36.143 62.9196 39.789 60.6298 42.769C60.5448 42.8917 60.4487 43.0064 60.3429 43.1116C60.2077 43.2587 60.0211 43.3481 59.8218 43.3613C59.6224 43.3744 59.4257 43.3103 59.2724 43.1823C59.0994 43.0641 58.98 42.8826 58.9399 42.677C58.8999 42.4714 58.9424 42.2584 59.0583 42.0839C59.1364 41.9552 59.2245 41.8328 59.3216 41.7178C66.4513 32.2972 60.7989 18.6802 49.0874 17.1172C45.2892 16.6119 41.7651 17.4448 38.5535 19.5473C37.8298 20.0205 37.3524 20.0354 37.0269 19.5815C36.6801 19.0934 36.8642 18.6502 37.62 18.1428C47.8435 11.2914 61.9851 17.4534 63.9056 29.6016C64.0533 30.5223 64.1068 31.4622 64.2032 32.385Z" fill="#6F63DE"/>
<path d="M59.7617 43.6878C59.5118 43.6828 59.2707 43.5946 59.0766 43.4373C58.8436 43.2739 58.6823 43.0272 58.6261 42.7482C58.5699 42.4693 58.6231 42.1794 58.7747 41.9385C58.8402 41.8195 58.9169 41.7069 59.0038 41.6024L59.0616 41.5275C60.6594 39.425 61.6776 36.9401 62.0145 34.321C62.3514 31.7018 61.9952 29.0401 60.9814 26.6017C59.9677 24.1634 58.3319 22.0337 56.2374 20.4253C54.143 18.817 51.6632 17.7864 49.0458 17.4364C45.4319 16.929 41.7581 17.7771 38.7324 19.8173C37.8588 20.3889 37.1994 20.3718 36.769 19.768C36.6788 19.6539 36.6132 19.5223 36.5763 19.3815C36.5395 19.2408 36.5322 19.0939 36.5549 18.9502C36.6213 18.5776 36.9039 18.2372 37.4435 17.8796C39.866 16.2817 42.6492 15.314 45.5405 15.0645C48.4318 14.815 51.3397 15.2916 54.0001 16.4509C56.6605 17.6102 58.9893 19.4156 60.775 21.7032C62.5608 23.9908 63.7469 26.6882 64.2258 29.5505C64.3264 30.1928 64.3842 30.8351 64.4399 31.4774C64.4677 31.7707 64.4934 32.0662 64.5234 32.3595V32.3981C64.4859 36.2232 63.2087 39.933 60.8836 42.9705L60.8386 43.0305C60.755 43.1484 60.6604 43.258 60.556 43.3581C60.3412 43.5626 60.0582 43.6801 59.7617 43.6878ZM46.9604 16.655C47.6865 16.655 48.4118 16.7036 49.1314 16.8006C51.8592 17.1661 54.4433 18.2406 56.626 19.917C58.8086 21.5934 60.5134 23.813 61.5702 26.3542C62.6269 28.8953 62.9986 31.6692 62.6482 34.399C62.2978 37.1287 61.2376 39.7188 59.5733 41.9107L59.5112 41.9921C59.4478 42.0676 59.3912 42.1485 59.342 42.234C59.1429 42.6108 59.3056 42.8014 59.4684 42.9277C59.6311 43.054 59.8281 43.1418 60.13 42.872C60.2029 42.8007 60.2688 42.7225 60.3269 42.6387L60.3762 42.5744C62.6144 39.6505 63.8448 36.0801 63.8832 32.3981C63.8532 32.109 63.8275 31.8178 63.8018 31.5267C63.7462 30.9079 63.6884 30.2677 63.5877 29.6511C63.1264 26.8955 61.9845 24.2987 60.2657 22.0961C58.5468 19.8935 56.3054 18.1547 53.7446 17.0375C51.1837 15.9203 48.3846 15.46 45.6008 15.6983C42.8171 15.9365 40.1369 16.8659 37.8032 18.4021C37.3364 18.7147 37.2122 18.933 37.1887 19.0594C37.1812 19.1185 37.1864 19.1785 37.2042 19.2354C37.2219 19.2923 37.2517 19.3447 37.2914 19.3891C37.4006 19.5411 37.5826 19.7959 38.3791 19.2735C40.9167 17.5691 43.9036 16.6577 46.9604 16.655Z" fill="#6F63DE"/>
</svg>
