<svg width="85" height="75" viewBox="0 0 85 75" fill="none" xmlns="http://www.w3.org/2000/svg">
<circle cx="30" cy="30" r="30" fill="#F5F8FA" fill-opacity="0.5"/>
<path d="M58.1838 13C59.4277 13.2848 60.7187 13.4282 61.9027 13.88C67.4866 15.9675 70.8587 19.9777 71.9892 25.8398C72.0727 26.268 72.2632 26.3751 72.6465 26.4243C78.4787 27.1694 82.9021 31.1753 84.1803 36.8534C85.906 44.529 80.2986 52.2517 72.4538 52.8684C69.9252 53.0675 67.3752 52.9647 64.8338 52.9668C64.6416 52.945 64.4475 52.9874 64.2818 53.0873C64.116 53.1872 63.988 53.339 63.9175 53.5192C62.8812 55.4886 62.2431 57.6428 62.0398 59.8589C62.0306 59.9663 62.045 60.0745 62.082 60.1758C62.119 60.2772 62.1776 60.3692 62.2539 60.4455C64.153 61.6916 64.4955 63.2974 63.228 65.2843C63.5524 65.6618 63.7816 66.1114 63.8967 66.5956C64.0118 67.0798 64.0094 67.5846 63.8896 68.0676C63.5578 69.425 62.4273 70.3221 60.9607 70.3821C60.8151 70.3782 60.6715 70.4165 60.5472 70.4925C60.423 70.5685 60.3234 70.6789 60.2606 70.8103C59.5849 71.9353 58.6298 72.8666 57.488 73.5136C56.3463 74.1606 55.0566 74.5014 53.7443 74.5029C52.4319 74.5044 51.1415 74.1665 49.9982 73.5222C48.855 72.8778 47.8977 71.9488 47.2195 70.8253C47.1588 70.7227 47.0774 70.6339 46.9804 70.5646C46.8834 70.4953 46.7731 70.447 46.6564 70.4228C43.8152 70.3671 42.6184 67.254 44.1963 65.3742C44.2157 65.3399 44.2281 65.302 44.2327 65.2629C43.2157 63.6399 43.2714 62.1755 44.3976 61.06C44.5398 60.8921 44.7156 60.7557 44.9136 60.6596C45.4638 60.4584 45.5002 60.0687 45.436 59.572C45.1646 57.4246 44.5121 55.343 43.509 53.425C43.4442 53.2732 43.3315 53.1466 43.1881 53.0647C43.0447 52.9828 42.8785 52.9499 42.7147 52.9711C39.972 52.9883 37.2315 52.984 34.4888 52.9711C28.5667 52.9668 23.9378 48.9374 23.0985 43.0602C23.0746 42.9659 23.0416 42.8741 23 42.7862V40.6195C23.0385 40.4674 23.0878 40.3154 23.1135 40.1591C23.8229 35.8985 26.1673 32.9167 30.1468 31.2139C30.5086 31.0597 30.8897 30.9441 31.2773 30.8028C30.9219 27.4049 31.896 24.5124 34.5274 22.3178C37.1587 20.1232 40.2225 19.6908 43.4641 20.6649C43.509 20.6285 43.5283 20.62 43.539 20.6028C43.6054 20.5044 43.6718 20.4037 43.7339 20.3031C45.8513 16.9459 48.8103 14.6936 52.6235 13.5974C53.5377 13.334 54.4883 13.197 55.4218 13H58.1838ZM65.5746 50.9307C67.1483 50.9307 68.5271 50.965 69.9038 50.9307C71.0985 50.8943 72.3211 50.905 73.4815 50.6609C79.1424 49.4727 82.87 44.21 82.3454 38.487C81.8573 33.1686 77.314 28.7559 71.7665 28.3962C70.696 28.3277 70.195 27.8481 70.0708 26.7605C69.3364 20.3374 63.7783 15.1989 57.3123 15.079C52.009 14.9762 47.9646 17.2821 45.2197 21.8275C44.6138 22.8317 44.0272 23.0393 42.9117 22.6839C42.2719 22.4596 41.6066 22.3157 40.9312 22.2557C36.2124 21.9924 32.746 25.782 33.3327 30.5052C33.5189 32.0039 33.2385 32.4128 31.7761 32.8218C27.6182 33.9822 24.7128 38.0952 25.0768 42.2852C25.4793 46.8777 28.8429 50.4661 33.2899 50.8258C35.675 51.0185 38.0858 50.9072 40.4859 50.9307C40.8991 50.9307 41.3123 50.9307 41.9075 50.9307C38.5846 47.2224 36.9831 43.0345 37.4114 38.1936C37.8396 33.3528 40.0834 29.3961 43.9822 26.4736C47.0023 24.2247 50.7065 23.0879 54.4682 23.2557C58.2299 23.4234 61.8182 24.8854 64.6261 27.3942C67.4551 29.8417 69.3244 33.2131 69.9017 36.909C70.7624 42.1995 69.2465 46.8285 65.5746 50.9307ZM56.8285 60.1458C57.8155 60.1458 58.7126 60.165 59.6118 60.1265C59.7467 60.1265 59.9437 59.8524 59.9801 59.6769C60.1535 58.8205 60.2413 57.9362 60.4361 57.0819C61.1812 53.834 62.8041 51.0592 64.913 48.5006C67.6514 45.1777 68.6427 41.3024 67.8613 37.0846C66.3625 29.0193 58.7319 23.9664 50.7008 25.6214C44.5218 26.9061 39.7815 32.4 39.4368 38.7096C39.2227 42.5935 40.411 45.9892 42.9267 48.946C44.8733 51.1949 46.2665 53.8683 46.9947 56.7522C47.2687 57.8484 47.4229 58.9746 47.637 60.1136H50.6815V59.497C50.6815 57.4159 50.6815 55.3341 50.6815 53.2516C50.6815 51.7657 50.0114 51.0528 48.5405 50.9243C47.2002 50.8087 46.2325 50.1471 45.7571 48.8817C45.0485 46.9826 46.3738 44.8609 48.4056 44.8138C51.9854 44.7367 55.5695 44.7923 59.1515 44.7988C59.3514 44.8039 59.5496 44.8371 59.7403 44.8973C61.1941 45.3148 62.0783 46.6508 61.9391 48.2009C61.8064 49.6675 60.586 50.7894 58.9781 50.9243C57.5436 51.042 56.8627 51.7807 56.852 53.2109C56.852 54.2301 56.852 55.2513 56.852 56.2726L56.8285 60.1458ZM54.7731 60.1244V59.4092C54.7731 57.3496 54.7859 55.2899 54.7731 53.2323C54.7624 51.8728 55.2013 50.7295 56.2547 49.8366C56.3083 49.78 56.3563 49.7183 56.3981 49.6525C55.7879 48.7961 55.6766 47.8819 55.9314 46.8692H51.5294C51.8591 47.914 51.6429 48.8389 51.0798 49.7167C52.3644 50.7188 52.7562 52.059 52.722 53.6049C52.6813 55.5639 52.722 57.5251 52.722 59.4842C52.722 59.6983 52.7434 59.9124 52.7562 60.1265L54.7731 60.1244ZM53.8053 66.312C51.4673 66.312 49.1271 66.2991 46.7891 66.327C46.4615 66.327 46.0205 66.4468 45.8385 66.6759C45.7388 66.827 45.671 66.9968 45.6393 67.175C45.6077 67.3533 45.6128 67.536 45.6544 67.7122C45.7957 68.2389 46.2967 68.3652 46.8105 68.3545C51.4295 68.3545 56.047 68.3545 60.6631 68.3545C61.4767 68.3545 61.9263 67.9691 61.922 67.3118C61.9177 66.6545 61.4938 66.3098 60.6374 66.3098C58.3622 66.3027 56.0848 66.3034 53.8053 66.312ZM53.7411 62.2119H48.7632C48.0245 62.2119 47.2837 62.1969 46.545 62.2247C46.2919 62.2189 46.0466 62.3133 45.8626 62.4873C45.6786 62.6613 45.5707 62.9008 45.5623 63.1539C45.539 63.4162 45.6198 63.677 45.7872 63.8802C45.9547 64.0833 46.1954 64.2123 46.4573 64.2394C46.6363 64.2605 46.8167 64.2677 46.9968 64.2608C51.493 64.2608 55.9892 64.2608 60.4854 64.2608C60.7423 64.2608 61.0699 64.2994 61.239 64.1624C61.5195 63.9333 61.8599 63.5843 61.8813 63.2738C61.9027 62.9634 61.5923 62.578 61.3311 62.3275C61.1812 62.184 60.8386 62.2183 60.5817 62.2183C58.2972 62.199 56.0192 62.2033 53.7411 62.2033V62.2119ZM49.504 70.4399C52.1717 73.5829 56.5801 72.5552 57.884 70.4399H49.504ZM49.6431 47.8733C49.6443 47.7385 49.6186 47.6048 49.5676 47.48C49.5166 47.3552 49.4413 47.2418 49.3461 47.1464C49.2508 47.0509 49.1376 46.9754 49.0129 46.9241C48.8882 46.8728 48.7545 46.8469 48.6197 46.8477C48.4899 46.8438 48.3607 46.8655 48.2394 46.9118C48.118 46.958 48.0071 47.0279 47.9129 47.1173C47.8188 47.2067 47.7433 47.3138 47.6907 47.4326C47.6382 47.5513 47.6098 47.6793 47.607 47.8091C47.5954 48.081 47.6921 48.3464 47.8759 48.5471C48.0598 48.7478 48.3157 48.8674 48.5876 48.8796C48.8611 48.8814 49.1245 48.7763 49.3217 48.5868C49.5189 48.3972 49.6342 48.1381 49.6431 47.8647V47.8733ZM59.8752 47.8733C59.879 47.7387 59.8554 47.6047 59.8058 47.4795C59.7562 47.3543 59.6817 47.2405 59.5868 47.145C59.4919 47.0495 59.3785 46.9742 59.2537 46.9239C59.1288 46.8735 58.9949 46.8491 58.8603 46.852C58.598 46.8512 58.3454 46.9515 58.1552 47.1322C57.965 47.3128 57.8517 47.5599 57.839 47.8219C57.8342 48.0952 57.9359 48.3597 58.1224 48.5594C58.309 48.7592 58.5659 48.8786 58.8389 48.8924C58.9754 48.8939 59.1108 48.868 59.2372 48.8165C59.3635 48.7649 59.4783 48.6886 59.5749 48.5921C59.6714 48.4956 59.7476 48.3808 59.7992 48.2544C59.8508 48.1281 59.8766 47.9927 59.8752 47.8562V47.8733Z" fill="#6F63DE"/>
<path d="M46.9503 37.5943C47.7424 38.3715 48.5068 39.093 49.2433 39.8531C49.7893 40.4097 49.7443 41.1377 49.1705 41.4995C48.9747 41.6454 48.7309 41.7118 48.4882 41.6852C48.2455 41.6585 48.0218 41.541 47.8623 41.3561C46.8518 40.3626 45.8455 39.3628 44.8649 38.3586C44.3831 37.8619 44.396 37.3309 44.8927 36.8235C45.8719 35.8243 46.8603 34.8366 47.8581 33.8603C47.9515 33.7551 48.0656 33.6703 48.1932 33.6111C48.3209 33.552 48.4593 33.5198 48.6 33.5166C48.7406 33.5134 48.8804 33.5392 49.0106 33.5925C49.1408 33.6457 49.2587 33.7252 49.3568 33.826C49.7722 34.2542 49.7614 34.8302 49.2819 35.3247C48.5325 36.0591 47.7681 36.7914 46.9503 37.5943Z" fill="#6F63DE"/>
<path d="M60.5287 37.5858C59.7493 36.8236 59.0299 36.1277 58.3234 35.4233C57.7453 34.8452 57.6982 34.2607 58.1778 33.8026C58.6231 33.3743 59.2162 33.4322 59.76 33.9696C60.6707 34.8716 61.5756 35.7766 62.4749 36.6844C63.1172 37.3396 63.1343 37.8406 62.4984 38.485C61.5863 39.4099 60.6678 40.3292 59.7429 41.2427C59.1691 41.8101 58.5653 41.855 58.1178 41.384C57.6704 40.913 57.7367 40.3606 58.2891 39.8039C59.0064 39.0802 59.7343 38.3694 60.5287 37.5858Z" fill="#6F63DE"/>
<path d="M55.7938 34.6011C55.7596 34.7274 55.7189 34.9008 55.6632 35.07C55.0338 36.9669 54.4014 38.8618 53.7663 40.7544C53.5072 41.5252 52.9912 41.8485 52.3939 41.6344C51.7965 41.4203 51.5738 40.8658 51.8286 40.0971C52.4681 38.1631 53.1104 36.2311 53.7556 34.3013C53.9697 33.6804 54.4364 33.4 55.0016 33.5434C55.5176 33.6697 55.7574 34.0294 55.7938 34.6011Z" fill="#6F63DE"/>
</svg>
