<svg width="86" height="76" viewBox="0 0 86 76" fill="none" xmlns="http://www.w3.org/2000/svg">
<circle cx="30" cy="30" r="30" fill="#F5F8FA" fill-opacity="0.5"/>
<path d="M85.3049 62.4763C84.8274 63.7802 83.9624 64.5489 82.5087 64.536C82.4102 64.536 82.2775 64.6859 82.2154 64.7951C82.1169 64.9771 82.089 65.1976 81.9884 65.3753C81.5773 66.099 81.4424 66.6878 82.1083 67.4543C82.8148 68.2657 82.6007 69.5696 81.8599 70.3896C81.3175 70.9995 80.7399 71.5772 80.13 72.1196C79.0423 73.0809 77.6785 72.9289 76.351 71.7385C75.7087 71.989 75.0664 72.2309 74.4241 72.5136C74.3235 72.5585 74.2614 72.7812 74.2507 72.9268C74.1436 74.5904 73.1181 75.5645 71.4523 75.571C70.8635 75.571 70.2748 75.571 69.686 75.571C68.1872 75.5581 67.1167 74.5882 67.0332 73.0938C67.0075 72.6656 66.8834 72.4215 66.453 72.3637C66.4155 72.3568 66.3798 72.3422 66.3481 72.3209C65.5345 71.8777 64.8494 71.6507 63.963 72.4258C63.2008 73.0981 61.9226 72.8261 61.1325 72.1089C60.5395 71.5766 59.9743 71.0142 59.4389 70.4239C58.9956 69.9557 58.7516 69.3335 58.7584 68.6887C58.7652 68.0439 59.0223 67.427 59.4753 66.9683C59.7622 66.6642 59.8093 66.4416 59.5952 66.0947C59.4301 65.8397 59.3106 65.5578 59.242 65.2618C59.1156 64.6538 58.7945 64.4975 58.1714 64.5061C55.2682 64.5424 52.3649 64.5253 49.4617 64.5189C48.6866 64.5189 48.2006 64.1142 48.1556 63.4634C48.1064 62.7354 48.5839 62.2408 49.3932 62.2365C51.3651 62.2365 53.3391 62.2365 55.3132 62.2365H55.9426C55.9426 61.5086 55.9426 60.832 55.9426 60.1555C55.9426 58.4191 56.8611 57.447 58.5825 57.2929C58.7538 57.2757 58.9251 57.0916 59.0685 56.9567C59.1413 56.8861 59.1392 56.7426 59.1884 56.642C59.5931 55.8455 59.8415 55.1668 59.0857 54.3061C58.3941 53.5204 58.6575 52.2229 59.3811 51.4243C59.9207 50.8376 60.4838 50.2703 61.0726 49.735C61.544 49.2962 62.1667 49.0565 62.8107 49.0661C63.4547 49.0756 64.0701 49.3337 64.5282 49.7864C64.8151 50.0497 65.0142 50.0904 65.3611 49.9063C65.8599 49.6429 66.3995 49.4567 66.9133 49.2426C66.9391 48.8628 66.9942 48.4855 67.0782 48.1142C67.3951 47.0801 68.0952 46.4014 69.1828 46.3008C70.0514 46.2226 70.9249 46.214 71.7949 46.2751C72.4092 46.2961 72.9929 46.548 73.4295 46.9807C73.8661 47.4133 74.1234 47.9947 74.15 48.6088C74.1864 49.1055 74.3406 49.3774 74.8288 49.4545C74.9221 49.4711 75.0115 49.5052 75.0921 49.5552C75.8136 49.9834 76.4452 50.1418 77.1689 49.4288C77.5093 49.0948 78.1774 49.0927 78.7747 48.9171V37.5225H29.3166C29.3166 37.7238 29.2909 37.925 29.2909 38.1241C29.2909 44.7671 29.2909 51.4093 29.2909 58.0508C29.2533 59.0436 29.5265 60.0233 30.0724 60.8534C30.3464 61.2893 30.7291 61.6463 31.183 61.8892C31.6369 62.1321 32.1463 62.2525 32.6609 62.2387C34.787 62.2237 36.913 62.2387 39.0391 62.2387C39.7563 62.2387 40.2316 62.6669 40.2659 63.3092C40.3002 63.9066 39.8848 64.4911 39.2767 64.4953C36.7546 64.5125 34.2196 64.6281 31.7124 64.4161C29.3573 64.217 27.516 62.091 27.122 59.5624C27.0489 59.0949 27.011 58.6225 27.0086 58.1493C27.0029 47.5611 27 36.9715 27 26.3805C27 24.3037 27.668 22.5095 29.2909 21.1457C30.1649 20.3966 31.2808 19.9896 32.4318 20.0002C46.8482 20.0002 61.2702 20.0002 75.698 20.0002C78.218 20.0002 80.3848 21.9079 80.9543 24.612C81.0892 25.3009 81.1538 26.0018 81.147 26.7038C81.1598 34.5015 81.147 42.3013 81.1641 50.1011C81.1575 50.3936 81.2487 50.6799 81.4232 50.9147C82.8534 52.4841 82.8855 53.5782 81.4853 55.1968C81.7315 55.8177 81.9734 56.4493 82.2389 57.0702C82.2665 57.1256 82.3066 57.1737 82.356 57.2109C82.4054 57.248 82.4628 57.2732 82.5237 57.2843C83.9517 57.2586 84.7975 58.0315 85.307 59.284L85.3049 62.4763ZM78.8454 35.1417C78.8454 34.4715 78.8454 33.857 78.8454 33.2618C78.8454 30.7761 78.8839 28.2882 78.809 25.8024C78.7447 23.61 77.2867 22.2868 75.1092 22.2868H55.7521C48.0828 22.2868 40.4151 22.2868 32.7487 22.2868C31.4234 22.2868 30.4471 22.8542 29.8968 23.9997C29.548 24.7115 29.3504 25.4879 29.3166 26.2799C29.2481 29.0868 29.2888 31.898 29.2909 34.7049C29.2909 34.8505 29.3166 34.9961 29.3316 35.1566L78.8454 35.1417ZM62.7554 51.3129C62.4557 51.6063 62.188 51.8675 61.9226 52.1308C60.9591 53.0922 60.9591 53.0922 61.9097 54.077C62.5113 54.7022 62.522 55.0598 62.1345 55.8605C61.7248 56.6903 61.3672 57.5448 61.064 58.4191C60.76 59.3269 60.4838 59.6009 59.5331 59.6095C58.2721 59.6202 58.2721 59.6202 58.2721 60.8791C58.2721 62.2237 58.2721 62.2237 59.6359 62.2344C60.4923 62.2344 60.7728 62.5106 61.0533 63.3328C61.3553 64.2256 61.7128 65.0987 62.1238 65.947C62.5327 66.7756 62.522 67.146 61.8605 67.8118C60.9612 68.7175 60.9612 68.7175 61.884 69.6403C62.8068 70.5631 62.8068 70.5631 63.751 69.6403C64.3933 68.998 64.7487 68.998 65.5752 69.4069C66.3847 69.8133 67.2218 70.1624 68.0802 70.4517C69.095 70.7879 69.3177 71.0212 69.322 72.1153C69.322 73.4363 69.1893 73.2929 70.521 73.2865C72.161 73.2865 71.9362 73.5006 71.9555 71.8841C71.9555 71.0555 72.2231 70.7857 73.026 70.5053C73.9357 70.1902 74.8265 69.8227 75.6937 69.4048C76.5202 69.0001 76.8628 69.0001 77.5158 69.6403C78.4664 70.5716 78.4664 70.5716 79.387 69.6403C80.3077 68.7089 80.3077 68.7153 79.3742 67.7669C78.7319 67.1245 78.7319 66.7691 79.1472 65.9427C79.5534 65.1328 79.9033 64.2958 80.1942 63.4377C80.5282 62.4442 80.7445 62.2344 81.8128 62.2323C83.1403 62.2323 83.014 62.3436 83.014 61.0504C83.014 59.6416 83.014 59.6416 81.6373 59.6073C80.828 59.5859 80.5239 59.3012 80.2542 58.5368C79.9508 57.6431 79.5933 56.7686 79.1836 55.9183C78.7297 55.002 78.734 54.6894 79.447 53.9593C80.4469 52.938 80.4404 53.2335 79.4363 52.2143C78.4857 51.2487 78.4792 51.253 77.4879 52.2143C76.8906 52.7903 76.4923 52.801 75.7515 52.4477C74.8678 52.0162 73.9599 51.6359 73.0324 51.3087C72.1974 51.0218 71.9169 50.7327 71.9041 49.8442C71.887 48.5596 71.887 48.5596 70.6045 48.5596C69.2835 48.5596 69.2835 48.5596 69.2728 49.8806C69.2728 50.7734 69.0094 51.0603 68.1466 51.3279C67.4515 51.513 66.7787 51.7736 66.1404 52.1051C64.4126 53.0986 64.3013 52.7903 63.1879 51.6619C63.0507 51.5372 62.9063 51.4207 62.7554 51.3129Z" fill="#6F63DE"/>
<path d="M52.6922 49.8487L50.1337 46.9776C50.0157 46.8546 49.9062 46.7237 49.8061 46.5858C49.6476 46.3569 49.5787 46.0777 49.6127 45.8013C49.6466 45.525 49.781 45.2707 49.9902 45.087C50.1903 44.8909 50.4594 44.781 50.7396 44.781C51.0198 44.781 51.2888 44.8909 51.489 45.087C52.6601 46.3502 53.812 47.6349 54.9146 48.9409C55.1368 49.2091 55.2528 49.5496 55.2406 49.8977C55.2283 50.2458 55.0887 50.5773 54.8482 50.8293C53.7863 52.0625 52.7044 53.2801 51.6024 54.4819C51.5095 54.6126 51.39 54.7223 51.2518 54.8037C51.1136 54.8852 50.9598 54.9366 50.8003 54.9546C50.6409 54.9725 50.4795 54.9567 50.3267 54.9081C50.1738 54.8595 50.0329 54.7792 49.9131 54.6725C49.7934 54.5658 49.6975 54.435 49.6317 54.2887C49.5659 54.1424 49.5317 53.9838 49.5313 53.8234C49.5309 53.663 49.5643 53.5043 49.6293 53.3577C49.6944 53.2111 49.7896 53.0798 49.9089 52.9725C50.6004 52.1674 51.3177 51.386 52.0221 50.5938C52.2383 50.3561 52.446 50.1163 52.6922 49.8487Z" fill="#6F63DE"/>
<path d="M36.0373 49.8485C36.9173 50.8376 37.7673 51.7754 38.6066 52.7368C38.8048 52.9382 38.9599 53.1779 39.0626 53.4412C39.1451 53.6783 39.1416 53.9369 39.0528 54.1717C38.9639 54.4065 38.7954 54.6026 38.5766 54.7258C38.3487 54.8672 38.078 54.9232 37.8127 54.884C37.5473 54.8448 37.3044 54.7129 37.1271 54.5117C36.4548 53.7901 35.8082 53.0451 35.1509 52.3085C34.7484 51.8546 34.3373 51.4072 33.9455 50.9426C33.3525 50.2403 33.3375 49.461 33.9305 48.778C34.964 47.589 36.0109 46.4121 37.0715 45.2474C37.5596 44.7078 38.2533 44.6607 38.7393 45.0954C39.2253 45.53 39.2532 46.228 38.7757 46.7739C37.885 47.7867 36.9837 48.7865 36.0373 49.8485Z" fill="#6F63DE"/>
<path d="M46.6979 45.0182C46.4089 46.245 46.1519 47.3519 45.8886 48.4567C45.4026 50.5035 44.923 52.5504 44.4113 54.5908C44.3264 54.9355 44.153 55.2522 43.9081 55.5093C43.5506 55.8604 43.071 55.854 42.6428 55.5885C42.4319 55.4729 42.266 55.2896 42.172 55.0682C42.078 54.8468 42.0613 54.6002 42.1246 54.3681C42.5229 52.6553 42.9268 50.9424 43.3365 49.2296C43.6769 47.7908 44.0088 46.352 44.3749 44.9197C44.6125 43.9798 45.6017 43.6179 46.2504 44.2388C46.4645 44.4487 46.5652 44.7955 46.6979 45.0182Z" fill="#6F63DE"/>
<path d="M44.2123 62.2366C44.364 62.2302 44.5155 62.2547 44.6575 62.3084C44.7995 62.3622 44.9291 62.4442 45.0386 62.5494C45.148 62.6547 45.235 62.781 45.2943 62.9208C45.3536 63.0606 45.3839 63.2109 45.3835 63.3628C45.3855 63.515 45.357 63.666 45.2998 63.8071C45.2425 63.9481 45.1576 64.0763 45.0501 64.184C44.9426 64.2917 44.8145 64.3769 44.6736 64.4344C44.5327 64.4919 44.3817 64.5207 44.2295 64.5189C43.9329 64.513 43.6495 64.3956 43.4356 64.19C43.2217 63.9845 43.0931 63.706 43.0754 63.4099C43.0723 63.258 43.0993 63.107 43.1549 62.9656C43.2105 62.8242 43.2935 62.6953 43.3992 62.5862C43.505 62.4771 43.6312 62.39 43.7708 62.33C43.9104 62.27 44.0604 62.2382 44.2123 62.2366Z" fill="#6F63DE"/>
<path d="M66.2284 32.6326C64.5027 32.6326 62.7749 32.6604 61.0492 32.6326C60.0271 32.6087 59.0563 32.1798 58.3504 31.4402C57.6445 30.7006 57.2614 29.7109 57.2852 28.6888C57.3091 27.6667 57.738 26.6959 58.4776 25.99C59.2172 25.2841 60.2069 24.901 61.229 24.9248C64.5669 24.9248 67.9069 24.9056 71.2448 24.9248C73.4993 24.9398 75.1822 26.6184 75.1801 28.7787C75.1779 30.939 73.4886 32.5983 71.2384 32.6326H66.2284ZM66.2434 30.3459C67.8363 30.3459 69.4292 30.3459 71.0222 30.3459C71.2872 30.3496 71.5516 30.3172 71.8079 30.2496C72.1358 30.1484 72.4202 29.9399 72.6154 29.6576C72.8106 29.3754 72.9053 29.0358 72.8843 28.6932C72.8633 28.3507 72.7278 28.0252 72.4996 27.7689C72.2714 27.5126 71.9637 27.3404 71.6259 27.28C71.3821 27.2446 71.1357 27.2296 70.8894 27.235H61.6144C61.3681 27.2277 61.1217 27.2421 60.8779 27.2778C60.5941 27.3171 60.3284 27.4399 60.1146 27.6305C59.9007 27.8211 59.7483 28.071 59.6768 28.3484C59.362 29.3932 60.105 30.3288 61.2933 30.3417C62.9419 30.3566 64.5926 30.3417 66.2434 30.3438V30.3459Z" fill="#6F63DE"/>
<path d="M51.487 28.7998C51.4828 29.5611 51.2532 30.304 50.8273 30.9349C50.4013 31.5658 49.7981 32.0564 49.0937 32.3449C48.3892 32.6333 47.6151 32.7067 46.869 32.5558C46.1229 32.4049 45.4382 32.0363 44.9013 31.4967C44.3644 30.9571 43.9993 30.2706 43.8521 29.5238C43.7048 28.7769 43.7821 28.0032 44.0741 27.3002C44.3661 26.5972 44.8597 25.9964 45.4927 25.5736C46.1257 25.1509 46.8698 24.925 47.631 24.9246C48.1391 24.9243 48.6422 25.0245 49.1114 25.2193C49.5806 25.4142 50.0067 25.7 50.3651 26.0601C50.7234 26.4203 51.0071 26.8478 51.1996 27.318C51.3921 27.7881 51.4898 28.2918 51.487 28.7998ZM46.1001 28.7592C46.0967 28.9636 46.1338 29.1667 46.2093 29.3568C46.2847 29.5469 46.397 29.7201 46.5397 29.8666C46.6824 30.0131 46.8527 30.1299 47.0407 30.2103C47.2287 30.2906 47.4308 30.333 47.6353 30.335C48.0479 30.3294 48.442 30.1629 48.7335 29.8709C49.0251 29.579 49.1911 29.1846 49.1961 28.772C49.1901 28.3691 49.0286 27.9841 48.7453 27.6976C48.4619 27.411 48.0788 27.2452 47.6759 27.2347C47.4717 27.2287 47.2683 27.2637 47.0778 27.3375C46.8873 27.4114 46.7134 27.5226 46.5666 27.6647C46.4197 27.8067 46.3028 27.9768 46.2227 28.1648C46.1426 28.3527 46.1009 28.5548 46.1001 28.7592Z" fill="#6F63DE"/>
<path d="M41.4975 28.7784C41.4949 29.537 41.2678 30.2779 40.8448 30.9075C40.4218 31.5372 39.8217 32.0276 39.1204 32.3167C38.4191 32.6058 37.6478 32.6808 36.904 32.5322C36.1601 32.3836 35.4768 32.018 34.9404 31.4816C34.404 30.9452 34.0385 30.262 33.8899 29.5181C33.7412 28.7742 33.8162 28.0029 34.1054 27.3016C34.3945 26.6003 34.8848 26.0003 35.5145 25.5772C36.1442 25.1542 36.885 24.9271 37.6436 24.9246C38.6657 24.9246 39.646 25.3306 40.3687 26.0533C41.0914 26.7761 41.4975 27.7563 41.4975 28.7784ZM36.1085 28.7934C36.117 29.204 36.2882 29.5943 36.5846 29.8786C36.8809 30.1629 37.278 30.3178 37.6886 30.3093C38.0991 30.3008 38.4895 30.1295 38.7737 29.8332C39.058 29.5369 39.2129 29.1397 39.2044 28.7292C39.1834 28.3275 39.0065 27.9498 38.7115 27.6763C38.4165 27.4029 38.0264 27.2552 37.6243 27.2647C37.2221 27.2742 36.8395 27.4401 36.5577 27.7271C36.2758 28.0141 36.117 28.3997 36.1149 28.802L36.1085 28.7934Z" fill="#6F63DE"/>
<path d="M70.6432 53.908C72.0295 53.9092 73.3843 54.3215 74.5363 55.0927C75.6883 55.8639 76.5857 56.9594 77.1152 58.2406C77.6446 59.5219 77.7823 60.9313 77.5107 62.2908C77.2392 63.6502 76.5706 64.8987 75.5896 65.8782C74.6086 66.8577 73.3591 67.5243 71.9993 67.7938C70.6394 68.0633 69.2302 67.9235 67.9498 67.3921C66.6693 66.8607 65.5752 65.9615 64.8058 64.8084C64.0363 63.6552 63.6261 62.2998 63.627 60.9135C63.6337 59.0557 64.3755 57.2762 65.6901 55.9635C67.0047 54.6509 68.7854 53.9119 70.6432 53.908ZM65.9329 60.9156C65.9329 61.8482 66.2097 62.7598 66.7283 63.5349C67.247 64.31 67.984 64.9137 68.8461 65.2695C69.7081 65.6254 70.6564 65.7172 71.5708 65.5336C72.4851 65.3499 73.3244 64.899 73.9822 64.2379C74.64 63.5768 75.0867 62.7353 75.2658 61.82C75.4449 60.9047 75.3482 59.9569 74.9881 59.0967C74.628 58.2364 74.0206 57.5024 73.2429 56.9877C72.4652 56.4729 71.5522 56.2006 70.6196 56.2053C69.3737 56.2104 68.1806 56.7089 67.3014 57.5917C66.4222 58.4745 65.9286 59.6697 65.9286 60.9156H65.9329Z" fill="#6F63DE"/>
</svg>
