<svg width="74" height="70" viewBox="0 0 74 70" fill="none" xmlns="http://www.w3.org/2000/svg">
<circle cx="30" cy="30" r="30" fill="#F5F8FA" fill-opacity="0.5"/>
<path d="M73.9413 30.1945C73.7615 29.0379 73.6652 27.9433 73.389 26.8664C71.8221 20.7698 66.6247 16.0464 60.5796 15.1818C59.2385 14.9897 57.8811 14.9497 56.5316 15.0624C50.7263 15.7059 46.5328 18.7796 43.8078 24.0625C43.7393 24.1996 43.6644 24.3323 43.5937 24.4826C43.5274 24.4207 43.491 24.3897 43.4567 24.3544C43.0158 23.8988 42.5042 23.806 42.0675 24.1001C41.6308 24.3942 41.4852 24.9249 41.7293 25.5197C42.0461 26.2893 42.3715 27.0677 42.7097 27.8129C42.958 28.3679 43.4268 28.6465 43.9234 28.4497C44.8389 28.0883 45.7363 27.6794 46.612 27.2247C47.0401 27.0035 47.16 26.5613 47.0401 26.0681C46.984 25.8414 46.8544 25.6414 46.6729 25.5014C46.4914 25.3614 46.269 25.2898 46.0426 25.2986C45.8971 25.2986 45.7515 25.3185 45.5546 25.334C45.6402 25.1394 45.698 24.9934 45.7686 24.8541C47.1448 22.0884 49.3573 19.8624 52.0699 18.5141C54.7826 17.1659 57.8471 16.7692 60.7979 17.3843C68.3671 18.9963 73.1643 26.2826 71.6872 34.124C70.6576 39.5948 67.5066 43.3739 62.3648 45.0346C57.1717 46.713 52.3917 45.656 48.4016 41.6955C44.4115 37.7351 39.685 36.1296 34.2029 37.0009C32.6522 37.2593 31.1527 37.7769 29.7632 38.5333C29.6363 38.5922 29.5223 38.6774 29.4286 38.7836C29.3348 38.8898 29.2631 39.0148 29.2179 39.1508C29.1728 39.2868 29.1551 39.4309 29.1661 39.5742C29.177 39.7175 29.2163 39.857 29.2816 39.984C29.5363 40.4992 30.0864 40.6894 30.6537 40.4528C30.7821 40.3997 30.9042 40.3334 31.0283 40.2737C35.0955 38.3631 39.1627 38.3985 43.1999 40.4108C44.519 41.0773 45.7196 41.9692 46.7512 43.0489C50.2939 46.7042 54.5922 48.1902 59.5392 47.8098C62.7487 47.5473 65.8017 46.2684 68.2818 44.1476C70.7619 42.0269 72.5483 39.1675 73.3976 35.9594C73.6614 34.8781 73.8432 33.7772 73.9413 32.6667C74.0196 31.8446 74.0196 31.0166 73.9413 30.1945Z" fill="#6F63DE"/>
<path d="M67.71 33.465C67.3396 33.1731 66.9458 32.9122 66.5947 32.5982C66.4631 32.4551 66.3771 32.2737 66.3485 32.0785C66.1238 30.88 66.5176 29.9888 67.6179 29.4714C67.6639 29.4465 67.7064 29.4153 67.7442 29.3785C68.2515 28.9561 68.3628 28.4652 68.0396 27.8704C67.3874 26.6777 66.7238 25.4917 66.0488 24.3124C65.7149 23.7241 65.2504 23.5716 64.6403 23.8236C64.1929 24.0072 63.7605 24.2283 63.3088 24.4052C63.1575 24.4668 62.9901 24.4715 62.8358 24.4185C61.8318 23.9762 61.0419 23.3438 61.2089 22.0325C61.2119 21.9432 61.2033 21.854 61.1832 21.7671C61.0933 21.1037 60.7273 20.7499 60.0765 20.7455C58.7493 20.7455 57.4221 20.7455 56.095 20.7455C55.4249 20.7455 55.0461 21.1192 54.969 21.8091C54.9133 22.2868 54.8791 22.7666 54.8063 23.2399C54.7836 23.4059 54.7029 23.5577 54.5794 23.6666C53.218 24.5799 53.2137 24.5755 51.7174 23.9055L51.6253 23.8612C50.9104 23.5517 50.4544 23.7042 50.0606 24.3964C49.5297 25.3318 49.0074 26.2738 48.4808 27.2136C47.6588 28.6841 47.6695 28.8345 49.0009 29.8053C49.5725 30.221 49.8336 30.6898 49.7951 31.3023C49.7951 32.4434 49.7951 32.4434 49.0009 33.0471C48.8062 33.1952 48.6071 33.3345 48.4187 33.4893C47.9028 33.9095 47.7936 34.3938 48.1212 34.993C48.7719 36.1871 49.4348 37.3739 50.1098 38.5532C50.4523 39.1547 50.9254 39.3007 51.5675 39.0287C51.9957 38.8451 52.4238 38.6329 52.8519 38.4626C53.0018 38.3981 53.1693 38.3926 53.3229 38.4471C54.7977 39.2189 54.7956 39.2233 54.9647 40.9393C54.9647 40.957 54.9647 40.9746 54.9647 40.9923C55.0439 41.7774 55.41 42.1245 56.187 42.129C57.1867 42.129 58.1863 42.129 59.1839 42.129C61.0291 42.129 61.1318 42.0427 61.2774 40.1565C61.3202 39.5948 61.4915 39.3228 62.0266 38.9402C62.2334 38.7804 62.4593 38.6488 62.6988 38.5488C62.9016 38.4607 63.1255 38.4383 63.341 38.4847C63.7819 38.6306 64.1972 38.8628 64.6253 39.0419C65.2397 39.2962 65.6956 39.1481 66.0403 38.5643C66.7153 37.3849 67.3782 36.1989 68.0289 35.0063C68.3693 34.3915 68.2558 33.9006 67.71 33.465ZM64.1737 30.2719C64.2143 31.0497 64.2143 31.8292 64.1737 32.607C64.1409 32.8448 64.1739 33.0873 64.269 33.3064C64.3641 33.5256 64.5173 33.7124 64.7109 33.8453C65.077 34.1085 65.4302 34.3915 65.8241 34.6901C65.4345 35.3888 65.0727 36.0323 64.6874 36.7223C64.2743 36.5409 63.8761 36.3862 63.4951 36.1938C62.9556 35.9218 62.504 36.0058 62.0116 36.3729C61.4523 36.7819 60.8575 37.1364 60.2349 37.4321C59.734 37.6754 59.4172 37.9872 59.3787 38.5776C59.3466 39.0375 59.2716 39.4908 59.2138 39.9663H56.9448C56.8848 39.4599 56.8249 38.969 56.7714 38.4781C56.7179 37.9872 56.4524 37.7041 56.0265 37.4808C55.3414 37.1166 54.6748 36.7166 54.0293 36.2822C53.8588 36.1466 53.6561 36.061 53.4424 36.0345C53.2288 36.008 53.0122 36.0417 52.8155 36.1319C52.3874 36.3264 51.9593 36.5144 51.4841 36.7289L50.3367 34.6945C50.7049 34.4137 51.0517 34.1328 51.407 33.8763C51.6108 33.7428 51.7731 33.5515 51.8745 33.3252C51.9758 33.0989 52.012 32.8473 51.9785 32.6004C51.9347 31.8227 51.9347 31.0429 51.9785 30.2652C52.0085 29.7345 51.8801 29.3298 51.4498 29.0247C51.0838 28.7615 50.7327 28.4763 50.3367 28.1711L51.4755 26.1345C51.9272 26.3379 52.3489 26.5237 52.7599 26.7183C52.9704 26.8203 53.2045 26.8587 53.4352 26.8289C53.6659 26.7992 53.8838 26.7026 54.0635 26.5502C54.6573 26.1339 55.2805 25.7643 55.928 25.4445C56.431 25.1969 56.735 24.8696 56.7842 24.2902C56.8206 23.848 56.8784 23.4057 56.9298 22.9303H59.2117C59.2716 23.43 59.338 23.9209 59.3894 24.4163C59.4407 24.9116 59.6955 25.1637 60.0958 25.3804C60.7936 25.7586 61.4765 26.1676 62.1379 26.6055C62.3101 26.7388 62.5138 26.8218 62.7277 26.8459C62.9416 26.87 63.1578 26.8344 63.3538 26.7426C63.7819 26.5502 64.21 26.3622 64.6767 26.15L65.8198 28.1888C65.4366 28.4807 65.0727 28.7704 64.696 29.0402C64.2743 29.3365 64.1458 29.7411 64.1737 30.2719Z" fill="#6F63DE"/>
<path d="M46.5821 55.2421C46.2246 54.9612 45.8414 54.7136 45.5117 54.4084C45.3708 54.2506 45.279 54.0525 45.2484 53.8401C45.0344 52.6924 45.409 51.8499 46.4065 51.3303C46.4811 51.2935 46.5527 51.2506 46.6206 51.202C47.1493 50.7774 47.2778 50.2732 46.9567 49.6828C46.2973 48.474 45.6252 47.2725 44.9402 46.0784C44.6212 45.5211 44.1503 45.373 43.5638 45.614C43.1164 45.7975 42.684 46.0231 42.2323 46.1934C42.0656 46.2553 41.8832 46.2553 41.7164 46.1934C40.6825 45.7511 39.9654 45.0877 40.1152 43.7919C40.1157 43.7211 40.1078 43.6506 40.0917 43.5818C39.9954 42.8764 39.6443 42.5491 38.9507 42.5447C37.6378 42.5447 36.3271 42.5447 35.0184 42.5447C34.3184 42.5447 33.9481 42.9118 33.8711 43.6503C33.8218 44.1103 33.794 44.5725 33.7169 45.028C33.6782 45.2073 33.5852 45.3691 33.4515 45.4902C32.5503 46.2265 31.6041 46.4853 30.5916 45.6936C30.5333 45.6559 30.4698 45.6276 30.4033 45.6096C29.8167 45.3884 29.3479 45.5366 29.029 46.0938C28.3468 47.2909 27.6761 48.4939 27.0168 49.7027C26.7043 50.2777 26.8027 50.7575 27.3101 51.1644C27.6847 51.4696 28.0871 51.7371 28.4531 52.0489C28.5866 52.1735 28.6787 52.3383 28.7164 52.5199C28.9112 53.734 28.5837 54.6915 27.4321 55.2133H27.4149C26.8327 55.6556 26.6893 56.1421 27.0275 56.7613C27.6854 57.9731 28.3561 59.176 29.0397 60.3701C29.3586 60.9274 29.8296 61.0777 30.4161 60.8389C30.8635 60.6554 31.2959 60.4343 31.7454 60.2551C31.8941 60.1855 32.0621 60.1737 32.2185 60.222C33.6998 60.9539 33.7169 60.9782 33.8711 62.7075C33.8711 62.7252 33.8711 62.7429 33.8711 62.7606C33.9481 63.5478 34.3184 63.9127 35.0784 63.9171C36.1658 63.9171 37.2511 63.9171 38.3385 63.9171C39.8669 63.9171 40.051 63.7181 40.1837 62.1104C40.1848 62.095 40.1848 62.0795 40.1837 62.064C40.1837 61.4006 40.1966 61.0932 40.8259 60.7372C41.04 60.6244 41.2969 60.4431 41.5152 60.3524C41.9433 60.1777 42.0996 60.1313 42.4785 60.337C42.8039 60.5094 43.1442 60.651 43.5231 60.8058C43.7072 60.8836 43.908 60.9097 44.105 60.8813C44.3021 60.853 44.4883 60.7712 44.6448 60.6443C44.7657 60.551 44.8706 60.4374 44.9552 60.3082C45.6466 59.1605 46.2845 57.9797 46.9288 56.8011C47.2713 56.1819 47.1579 55.6998 46.5821 55.2421ZM43.0714 52.0843C43.1164 52.8443 43.1164 53.6064 43.0714 54.3664C43.0372 54.9214 43.1742 55.3372 43.6216 55.6534C43.9898 55.9143 44.3408 56.1996 44.7219 56.4893L43.583 58.5259C43.1271 58.3224 42.7032 58.1389 42.2815 57.9443C41.8106 57.7232 41.4082 57.8183 40.9779 58.119C40.3829 58.5332 39.7598 58.9027 39.1134 59.2247C38.6125 59.4745 38.3086 59.7952 38.2743 60.3856C38.2486 60.8279 38.1737 61.2701 38.118 61.7411H35.8383C35.7933 61.321 35.7355 60.8876 35.7013 60.4519C35.6563 59.8372 35.3652 59.4657 34.8086 59.2092C34.1846 58.9146 33.5896 58.5583 33.0319 58.1455C32.5567 57.7962 32.1136 57.7033 31.5913 57.9664C31.2038 58.1544 30.8078 58.3224 30.3754 58.517L29.2388 56.4826C29.6155 56.1907 29.9666 55.9055 30.3326 55.6423C30.5275 55.5112 30.6822 55.3257 30.7789 55.1072C30.8755 54.8887 30.9101 54.6464 30.8785 54.4084C30.8378 53.6122 30.8378 52.8142 30.8785 52.018C30.9098 51.7889 30.8783 51.5553 30.7874 51.3438C30.6966 51.1323 30.5502 50.9514 30.3647 50.8216C29.9987 50.5585 29.6455 50.2732 29.2366 49.957C29.6134 49.2936 29.9773 48.6302 30.3754 47.9204C30.8207 48.1216 31.2317 48.3052 31.6598 48.502C32.1307 48.7231 32.5332 48.6413 32.9634 48.3428C33.6313 47.9005 34.1729 47.5754 34.875 47.1973C35.1004 47.109 35.2967 46.9563 35.4412 46.757C35.5856 46.5577 35.6721 46.32 35.6906 46.0717C35.7313 45.6295 35.7826 45.1872 35.8319 44.7074H38.1095C38.1673 45.1739 38.2422 45.6582 38.2872 46.1447C38.3321 46.6666 38.6147 46.9518 39.0556 47.1796C39.7283 47.5322 40.3808 47.9242 41.01 48.3538C41.1848 48.4985 41.395 48.5901 41.6172 48.6186C41.8395 48.6471 42.065 48.6114 42.2687 48.5152C42.6968 48.3206 43.125 48.1349 43.583 47.927C43.9662 48.6125 44.3344 49.2715 44.724 49.9637C44.3344 50.26 43.9684 50.5519 43.5895 50.8239C43.1613 51.1467 43.0415 51.5558 43.0714 52.0865V52.0843Z" fill="#6F63DE"/>
<path d="M53.2565 58.9394C52.9718 58.276 52.6914 57.6126 52.4002 56.9492C52.0642 56.1929 51.5847 55.9961 50.8526 56.3146C50.2339 56.5844 49.6217 56.8696 49.0095 57.1527C48.1533 57.5507 47.8964 57.9178 48.0334 58.5524C48.1597 59.1406 48.5386 59.3573 49.5168 59.364C49.4269 59.5652 49.367 59.7112 49.3028 59.8483C44.5442 69.3569 31.5977 70.299 25.6661 61.5134C22.5879 56.9603 22.271 52.0755 24.4545 47.016C24.5981 46.7358 24.6793 46.4261 24.6921 46.1093C24.6685 45.5963 24.3432 45.2735 23.8358 45.1784C23.3285 45.0833 22.9582 45.3243 22.6885 45.8838C20.9634 49.3802 20.5428 53.4098 21.5068 57.2057C23.5169 65.5269 31.0454 70.7678 39.2376 69.4918C44.7219 68.6405 48.7719 65.6309 51.3 60.494C51.3513 60.39 51.4156 60.2905 51.4755 60.1822C52.0385 60.766 52.5244 60.8809 52.9975 60.5559C53.4706 60.2308 53.5776 59.6913 53.2565 58.9394Z" fill="#6F63DE"/>
<path d="M26.4624 41.271C26.186 41.265 25.9185 41.372 25.7181 41.5687C25.5176 41.7654 25.4005 42.0359 25.3921 42.3213C25.3987 42.6069 25.512 42.8788 25.7083 43.0799C25.9047 43.2811 26.1688 43.396 26.4452 43.4005C26.7133 43.3947 26.9685 43.2809 27.1565 43.0834C27.3445 42.886 27.4503 42.6204 27.4513 42.3435C27.4548 42.2059 27.4319 42.069 27.384 41.9406C27.3361 41.8122 27.2642 41.6948 27.1723 41.5952C27.0804 41.4956 26.9704 41.4157 26.8486 41.36C26.7268 41.3044 26.5955 41.2741 26.4624 41.271Z" fill="#6F63DE"/>
<path d="M54.4552 31.4859C54.4813 32.4622 54.876 33.3894 55.5549 34.0692C56.2338 34.749 57.1431 35.1276 58.0886 35.1242C59.0341 35.1207 59.9409 34.7354 60.6151 34.0506C61.2893 33.3659 61.6776 32.4359 61.697 31.4593C61.7069 30.9605 61.6201 30.4647 61.4417 30.001C61.2634 29.5374 60.9971 29.1152 60.6585 28.7595C60.3199 28.4037 59.9158 28.1215 59.4701 27.9294C59.0243 27.7374 58.5459 27.6393 58.0629 27.6411C57.58 27.6429 57.1022 27.7444 56.6578 27.9397C56.2134 28.1351 55.8113 28.4202 55.4751 28.7785C55.139 29.1367 54.8756 29.5608 54.7004 30.0257C54.5253 30.4907 54.4419 30.9871 54.4552 31.4859ZM58.0729 29.834C58.4797 29.8351 58.8698 30.0012 59.1593 30.2965C59.4487 30.5918 59.6144 30.9927 59.6206 31.4129C59.6214 31.6231 59.5821 31.8315 59.505 32.0261C59.4279 32.2206 59.3145 32.3976 59.1712 32.5469C59.0279 32.6962 58.8575 32.8149 58.6698 32.8961C58.4821 32.9774 58.2807 33.0197 58.0772 33.0205C57.8736 33.0214 57.672 32.9808 57.4836 32.9012C57.2952 32.8215 57.1239 32.7043 56.9794 32.5563C56.8349 32.4082 56.72 32.2322 56.6414 32.0383C56.5627 31.8444 56.5218 31.6364 56.5209 31.4262C56.5276 31.0041 56.6936 30.6015 56.9835 30.3041C57.2734 30.0067 57.6643 29.838 58.0729 29.834Z" fill="#6F63DE"/>
<path d="M33.3509 53.1745C33.3403 53.6696 33.426 54.1619 33.6029 54.6221C33.7799 55.0823 34.0445 55.5012 34.3811 55.8538C34.7177 56.2065 35.1194 56.4857 35.5623 56.675C36.0053 56.8643 36.4806 56.9598 36.96 56.9558C39.0342 56.9691 40.599 55.3239 40.599 53.1568C40.5968 52.1651 40.2132 51.2149 39.5328 50.5153C38.8523 49.8157 37.9307 49.424 36.9707 49.4263C36.0106 49.4287 35.0908 49.8249 34.4136 50.5278C33.7364 51.2307 33.3572 52.1828 33.3594 53.1745H33.3509ZM37.0199 51.642C37.2223 51.6443 37.4221 51.6883 37.6077 51.7716C37.7933 51.8549 37.9609 51.9758 38.1006 52.1271C38.2402 52.2784 38.3491 52.457 38.4209 52.6525C38.4926 52.8479 38.5258 53.0563 38.5183 53.2652C38.5094 53.6861 38.3409 54.0867 38.0491 54.3807C37.7573 54.6747 37.3654 54.8387 36.9578 54.8374C36.5505 54.8244 36.1636 54.6499 35.8775 54.3502C35.5913 54.0505 35.4278 53.6485 35.4209 53.2276C35.4213 53.0138 35.4634 52.8024 35.5447 52.6058C35.6261 52.4093 35.7449 52.2317 35.8942 52.0837C36.0434 51.9357 36.2201 51.8203 36.4135 51.7444C36.6069 51.6685 36.8132 51.6337 37.0199 51.642Z" fill="#6F63DE"/>
</svg>
