<svg width="80" height="62" viewBox="0 0 80 62" fill="none" xmlns="http://www.w3.org/2000/svg">
<path d="M0.724267 61.2985C0.534916 61.2985 0.355033 61.2322 0.21302 61.0902C-0.0710066 60.8061 -0.0710066 60.3422 0.21302 60.0677L23.0677 37.213C23.3517 36.929 23.8156 36.929 24.0996 37.213C24.3837 37.497 24.3837 37.961 24.0996 38.245L1.24498 61.0807C1.10297 61.2227 0.913618 61.2985 0.724267 61.2985Z" fill="white"/>
<path d="M30.7243 49.4253C30.5349 49.4253 30.355 49.3591 30.213 49.217C29.929 48.933 29.929 48.4691 30.213 48.1945L78.1945 0.21302C78.4786 -0.0710066 78.9425 -0.0710066 79.217 0.21302C79.5011 0.497046 79.5011 0.960956 79.217 1.23551L31.2355 49.217C31.103 49.3591 30.9136 49.4253 30.7243 49.4253Z" fill="white"/>
</svg>
