<svg width="102" height="88" viewBox="0 0 102 88" fill="none" xmlns="http://www.w3.org/2000/svg">
<path d="M41.1702 63.4809C43.0456 63.4809 44.566 61.9605 44.566 60.0851C44.566 58.2097 43.0456 56.6894 41.1702 56.6894C39.2948 56.6894 37.7745 58.2097 37.7745 60.0851C37.7745 61.9605 39.2948 63.4809 41.1702 63.4809Z" stroke="#6F63DE" stroke-width="3.57447" stroke-linecap="round" stroke-linejoin="round"/>
<path d="M60.4723 63.4809C62.3478 63.4809 63.8681 61.9605 63.8681 60.0851C63.8681 58.2097 62.3478 56.6894 60.4723 56.6894C58.5969 56.6894 57.0766 58.2097 57.0766 60.0851C57.0766 61.9605 58.5969 63.4809 60.4723 63.4809Z" stroke="#6F63DE" stroke-width="3.57447" stroke-linecap="round" stroke-linejoin="round"/>
<path d="M26.6936 24.1617H33.9075L38.7409 48.0922C38.9058 48.915 39.3575 49.6541 40.0169 50.1802C40.6763 50.7062 41.5015 50.9856 42.3478 50.9696H59.8777C60.7241 50.9856 61.5492 50.7062 62.2086 50.1802C62.868 49.6541 63.3197 48.915 63.4846 48.0922L66.3702 33.0977H35.711" stroke="#6F63DE" stroke-width="3.57447" stroke-linecap="round" stroke-linejoin="round"/>
<path d="M90.3192 86L98.3617 77.5106L90.3192 69.0213" stroke="#6F63DE" stroke-width="3.57447" stroke-linecap="round" stroke-linejoin="round"/>
<path d="M80.4894 69.0213L72.4468 77.5106L80.4894 86" stroke="#6F63DE" stroke-width="3.57447" stroke-linecap="round" stroke-linejoin="round"/>
<line x1="3.6383" y1="14.0638" x2="98.3617" y2="14.0638" stroke="#6F63DE" stroke-width="2.68085"/>
<path d="M63.5107 79.7447C64.4977 79.7447 65.2979 78.9445 65.2979 77.9575C65.2979 76.9704 64.4977 76.1702 63.5107 76.1702V79.7447ZM97.4681 60.9787C97.4681 61.9658 98.2683 62.766 99.2553 62.766C100.242 62.766 101.043 61.9658 101.043 60.9787H97.4681ZM8.10639 3.78723H93.8936V0.212766H8.10639V3.78723ZM4.53192 72.5957V7.3617H0.957456V72.5957H4.53192ZM63.5107 77.9575C63.5107 76.1702 63.5105 76.1702 63.5103 76.1702C63.5101 76.1702 63.5098 76.1702 63.5093 76.1702C63.5089 76.1702 63.5083 76.1702 63.5077 76.1702C63.507 76.1702 63.5062 76.1702 63.5053 76.1702C63.5044 76.1702 63.5034 76.1702 63.5023 76.1702C63.5012 76.1702 63.5 76.1702 63.4987 76.1702C63.4974 76.1702 63.4959 76.1702 63.4944 76.1702C63.4928 76.1702 63.4912 76.1702 63.4894 76.1702C63.4877 76.1702 63.4858 76.1702 63.4838 76.1702C63.4818 76.1702 63.4797 76.1702 63.4775 76.1702C63.4753 76.1702 63.473 76.1702 63.4706 76.1702C63.4682 76.1702 63.4656 76.1702 63.463 76.1702C63.4604 76.1702 63.4576 76.1702 63.4548 76.1702C63.4519 76.1702 63.449 76.1702 63.4459 76.1702C63.4428 76.1702 63.4397 76.1702 63.4364 76.1702C63.4331 76.1702 63.4297 76.1702 63.4262 76.1702C63.4227 76.1702 63.4191 76.1702 63.4154 76.1702C63.4117 76.1702 63.4078 76.1702 63.4039 76.1702C63.4 76.1702 63.396 76.1702 63.3918 76.1702C63.3877 76.1702 63.3834 76.1702 63.3791 76.1702C63.3747 76.1702 63.3703 76.1702 63.3657 76.1702C63.3611 76.1702 63.3564 76.1702 63.3517 76.1702C63.3469 76.1702 63.342 76.1702 63.337 76.1702C63.332 76.1702 63.3269 76.1702 63.3217 76.1702C63.3165 76.1702 63.3112 76.1702 63.3058 76.1702C63.3004 76.1702 63.2949 76.1702 63.2892 76.1702C63.2836 76.1702 63.2779 76.1702 63.2721 76.1702C63.2662 76.1702 63.2603 76.1702 63.2543 76.1702C63.2482 76.1702 63.2421 76.1702 63.2358 76.1702C63.2296 76.1702 63.2232 76.1702 63.2167 76.1702C63.2103 76.1702 63.2037 76.1702 63.1971 76.1702C63.1904 76.1702 63.1836 76.1702 63.1767 76.1702C63.1699 76.1702 63.1629 76.1702 63.1558 76.1702C63.1487 76.1702 63.1415 76.1702 63.1343 76.1702C63.127 76.1702 63.1196 76.1702 63.1121 76.1702C63.1046 76.1702 63.097 76.1702 63.0893 76.1702C63.0816 76.1702 63.0738 76.1702 63.0659 76.1702C63.058 76.1702 63.05 76.1702 63.0419 76.1702C63.0337 76.1702 63.0255 76.1702 63.0172 76.1702C63.0089 76.1702 63.0005 76.1702 62.992 76.1702C62.9835 76.1702 62.9748 76.1702 62.9661 76.1702C62.9574 76.1702 62.9486 76.1702 62.9397 76.1702C62.9307 76.1702 62.9217 76.1702 62.9126 76.1702C62.9035 76.1702 62.8942 76.1702 62.8849 76.1702C62.8756 76.1702 62.8661 76.1702 62.8566 76.1702C62.8471 76.1702 62.8375 76.1702 62.8277 76.1702C62.818 76.1702 62.8082 76.1702 62.7983 76.1702C62.7883 76.1702 62.7783 76.1702 62.7682 76.1702C62.758 76.1702 62.7478 76.1702 62.7375 76.1702C62.7271 76.1702 62.7167 76.1702 62.7062 76.1702C62.6957 76.1702 62.685 76.1702 62.6743 76.1702C62.6636 76.1702 62.6528 76.1702 62.6418 76.1702C62.6309 76.1702 62.6199 76.1702 62.6088 76.1702C62.5977 76.1702 62.5864 76.1702 62.5751 76.1702C62.5638 76.1702 62.5524 76.1702 62.5409 76.1702C62.5294 76.1702 62.5177 76.1702 62.506 76.1702C62.4943 76.1702 62.4825 76.1702 62.4706 76.1702C62.4587 76.1702 62.4467 76.1702 62.4346 76.1702C62.4225 76.1702 62.4103 76.1702 62.398 76.1702C62.3857 76.1702 62.3733 76.1702 62.3608 76.1702C62.3484 76.1702 62.3358 76.1702 62.3231 76.1702C62.3104 76.1702 62.2976 76.1702 62.2847 76.1702C62.2719 76.1702 62.2589 76.1702 62.2458 76.1702C62.2328 76.1702 62.2196 76.1702 62.2063 76.1702C62.1931 76.1702 62.1797 76.1702 62.1663 76.1702C62.1528 76.1702 62.1393 76.1702 62.1256 76.1702C62.112 76.1702 62.0982 76.1702 62.0844 76.1702C62.0706 76.1702 62.0566 76.1702 62.0426 76.1702C62.0286 76.1702 62.0145 76.1702 62.0003 76.1702C61.9861 76.1702 61.9717 76.1702 61.9573 76.1702C61.9429 76.1702 61.9284 76.1702 61.9139 76.1702C61.8993 76.1702 61.8846 76.1702 61.8698 76.1702C61.855 76.1702 61.8401 76.1702 61.8252 76.1702C61.8102 76.1702 61.7951 76.1702 61.78 76.1702C61.7648 76.1702 61.7496 76.1702 61.7342 76.1702C61.7189 76.1702 61.7035 76.1702 61.6879 76.1702C61.6724 76.1702 61.6568 76.1702 61.6411 76.1702C61.6254 76.1702 61.6095 76.1702 61.5936 76.1702C61.5777 76.1702 61.5618 76.1702 61.5457 76.1702C61.5296 76.1702 61.5134 76.1702 61.4971 76.1702C61.4809 76.1702 61.4645 76.1702 61.4481 76.1702C61.4316 76.1702 61.4151 76.1702 61.3984 76.1702C61.3818 76.1702 61.3651 76.1702 61.3482 76.1702C61.3314 76.1702 61.3145 76.1702 61.2975 76.1702C61.2805 76.1702 61.2634 76.1702 61.2462 76.1702C61.229 76.1702 61.2118 76.1702 61.1944 76.1702C61.177 76.1702 61.1596 76.1702 61.142 76.1702C61.1245 76.1702 61.1068 76.1702 61.0891 76.1702C61.0714 76.1702 61.0536 76.1702 61.0357 76.1702C61.0177 76.1702 60.9997 76.1702 60.9817 76.1702C60.9636 76.1702 60.9454 76.1702 60.9271 76.1702C60.9089 76.1702 60.8905 76.1702 60.8721 76.1702C60.8536 76.1702 60.8351 76.1702 60.8165 76.1702C60.7978 76.1702 60.7791 76.1702 60.7603 76.1702C60.7415 76.1702 60.7226 76.1702 60.7036 76.1702C60.6847 76.1702 60.6656 76.1702 60.6464 76.1702C60.6273 76.1702 60.608 76.1702 60.5887 76.1702C60.5694 76.1702 60.55 76.1702 60.5304 76.1702C60.5109 76.1702 60.4913 76.1702 60.4717 76.1702C60.452 76.1702 60.4322 76.1702 60.4123 76.1702C60.3925 76.1702 60.3725 76.1702 60.3525 76.1702C60.3325 76.1702 60.3124 76.1702 60.2921 76.1702C60.2719 76.1702 60.2516 76.1702 60.2313 76.1702C60.2109 76.1702 60.1904 76.1702 60.1699 76.1702C60.1493 76.1702 60.1287 76.1702 60.1079 76.1702C60.0872 76.1702 60.0664 76.1702 60.0455 76.1702C60.0246 76.1702 60.0036 76.1702 59.9826 76.1702C59.9615 76.1702 59.9403 76.1702 59.9191 76.1702C59.8978 76.1702 59.8765 76.1702 59.8551 76.1702C59.8337 76.1702 59.8122 76.1702 59.7906 76.1702C59.769 76.1702 59.7474 76.1702 59.7256 76.1702C59.7039 76.1702 59.682 76.1702 59.6601 76.1702C59.6382 76.1702 59.6162 76.1702 59.5941 76.1702C59.572 76.1702 59.5498 76.1702 59.5276 76.1702C59.5053 76.1702 59.483 76.1702 59.4606 76.1702C59.4381 76.1702 59.4156 76.1702 59.393 76.1702C59.3704 76.1702 59.3478 76.1702 59.325 76.1702C59.3022 76.1702 59.2794 76.1702 59.2565 76.1702C59.2335 76.1702 59.2105 76.1702 59.1875 76.1702C59.1644 76.1702 59.1412 76.1702 59.1179 76.1702C59.0947 76.1702 59.0713 76.1702 59.0479 76.1702C59.0245 76.1702 59.001 76.1702 58.9774 76.1702C58.9538 76.1702 58.9301 76.1702 58.9064 76.1702C58.8826 76.1702 58.8588 76.1702 58.8349 76.1702C58.811 76.1702 58.787 76.1702 58.7629 76.1702C58.7388 76.1702 58.7147 76.1702 58.6904 76.1702C58.6662 76.1702 58.6419 76.1702 58.6175 76.1702C58.5931 76.1702 58.5686 76.1702 58.544 76.1702C58.5195 76.1702 58.4948 76.1702 58.4701 76.1702C58.4454 76.1702 58.4206 76.1702 58.3957 76.1702C58.3708 76.1702 58.3458 76.1702 58.3208 76.1702C58.2958 76.1702 58.2706 76.1702 58.2454 76.1702C58.2202 76.1702 58.1949 76.1702 58.1696 76.1702C58.1442 76.1702 58.1188 76.1702 58.0933 76.1702C58.0677 76.1702 58.0421 76.1702 58.0165 76.1702C57.9908 76.1702 57.965 76.1702 57.9392 76.1702C57.9133 76.1702 57.8874 76.1702 57.8614 76.1702C57.8354 76.1702 57.8094 76.1702 57.7832 76.1702C57.7571 76.1702 57.7308 76.1702 57.7045 76.1702C57.6782 76.1702 57.6518 76.1702 57.6254 76.1702C57.5989 76.1702 57.5724 76.1702 57.5457 76.1702C57.5191 76.1702 57.4924 76.1702 57.4656 76.1702C57.4389 76.1702 57.412 76.1702 57.3851 76.1702C57.3582 76.1702 57.3312 76.1702 57.3041 76.1702C57.277 76.1702 57.2498 76.1702 57.2226 76.1702C57.1954 76.1702 57.1681 76.1702 57.1407 76.1702C57.1133 76.1702 57.0858 76.1702 57.0583 76.1702C57.0307 76.1702 57.0031 76.1702 56.9754 76.1702C56.9477 76.1702 56.92 76.1702 56.8921 76.1702C56.8643 76.1702 56.8364 76.1702 56.8084 76.1702C56.7804 76.1702 56.7523 76.1702 56.7241 76.1702C56.696 76.1702 56.6678 76.1702 56.6395 76.1702C56.6112 76.1702 56.5828 76.1702 56.5544 76.1702C56.5259 76.1702 56.4974 76.1702 56.4688 76.1702C56.4402 76.1702 56.4116 76.1702 56.3828 76.1702C56.3541 76.1702 56.3252 76.1702 56.2964 76.1702C56.2675 76.1702 56.2385 76.1702 56.2095 76.1702C56.1804 76.1702 56.1513 76.1702 56.1221 76.1702C56.0929 76.1702 56.0637 76.1702 56.0343 76.1702C56.005 76.1702 55.9756 76.1702 55.9461 76.1702C55.9166 76.1702 55.8871 76.1702 55.8575 76.1702C55.8278 76.1702 55.7981 76.1702 55.7684 76.1702C55.7386 76.1702 55.7088 76.1702 55.6788 76.1702C55.6489 76.1702 55.6189 76.1702 55.5889 76.1702C55.5588 76.1702 55.5287 76.1702 55.4985 76.1702C55.4683 76.1702 55.438 76.1702 55.4077 76.1702C55.3773 76.1702 55.3469 76.1702 55.3164 76.1702C55.2859 76.1702 55.2554 76.1702 55.2247 76.1702C55.1941 76.1702 55.1634 76.1702 55.1326 76.1702C55.1018 76.1702 55.071 76.1702 55.0401 76.1702C55.0092 76.1702 54.9782 76.1702 54.9471 76.1702C54.9161 76.1702 54.8849 76.1702 54.8538 76.1702C54.8226 76.1702 54.7913 76.1702 54.7599 76.1702C54.7286 76.1702 54.6972 76.1702 54.6657 76.1702C54.6343 76.1702 54.6027 76.1702 54.5711 76.1702C54.5395 76.1702 54.5078 76.1702 54.476 76.1702C54.4443 76.1702 54.4125 76.1702 54.3806 76.1702C54.3487 76.1702 54.3167 76.1702 54.2847 76.1702C54.2527 76.1702 54.2206 76.1702 54.1884 76.1702C54.1562 76.1702 54.124 76.1702 54.0917 76.1702C54.0594 76.1702 54.027 76.1702 53.9946 76.1702C53.9621 76.1702 53.9296 76.1702 53.897 76.1702C53.8645 76.1702 53.8318 76.1702 53.7991 76.1702C53.7664 76.1702 53.7336 76.1702 53.7008 76.1702C53.6679 76.1702 53.635 76.1702 53.602 76.1702C53.5691 76.1702 53.536 76.1702 53.5029 76.1702C53.4698 76.1702 53.4366 76.1702 53.4034 76.1702C53.3701 76.1702 53.3368 76.1702 53.3034 76.1702C53.27 76.1702 53.2366 76.1702 53.2031 76.1702C53.1696 76.1702 53.136 76.1702 53.1024 76.1702C53.0687 76.1702 53.035 76.1702 53.0012 76.1702C52.9674 76.1702 52.9336 76.1702 52.8997 76.1702C52.8658 76.1702 52.8318 76.1702 52.7978 76.1702C52.7637 76.1702 52.7296 76.1702 52.6955 76.1702C52.6613 76.1702 52.6271 76.1702 52.5928 76.1702C52.5585 76.1702 52.5241 76.1702 52.4897 76.1702C52.4553 76.1702 52.4208 76.1702 52.3862 76.1702C52.3517 76.1702 52.3171 76.1702 52.2824 76.1702C52.2477 76.1702 52.2129 76.1702 52.1781 76.1702C52.1433 76.1702 52.1085 76.1702 52.0735 76.1702C52.0386 76.1702 52.0036 76.1702 51.9685 76.1702C51.9335 76.1702 51.8983 76.1702 51.8631 76.1702C51.8279 76.1702 51.7927 76.1702 51.7574 76.1702C51.7221 76.1702 51.6867 76.1702 51.6512 76.1702C51.6158 76.1702 51.5803 76.1702 51.5447 76.1702C51.5092 76.1702 51.4735 76.1702 51.4379 76.1702C51.4022 76.1702 51.3664 76.1702 51.3306 76.1702C51.2948 76.1702 51.2589 76.1702 51.223 76.1702C51.187 76.1702 51.151 76.1702 51.115 76.1702C51.0789 76.1702 51.0428 76.1702 51.0066 76.1702C50.9704 76.1702 50.9342 76.1702 50.8979 76.1702C50.8616 76.1702 50.8252 76.1702 50.7888 76.1702C50.7524 76.1702 50.7159 76.1702 50.6793 76.1702C50.6428 76.1702 50.6062 76.1702 50.5695 76.1702C50.5329 76.1702 50.4961 76.1702 50.4594 76.1702C50.4226 76.1702 50.3857 76.1702 50.3488 76.1702C50.3119 76.1702 50.2749 76.1702 50.2379 76.1702C50.2009 76.1702 50.1638 76.1702 50.1267 76.1702C50.0895 76.1702 50.0523 76.1702 50.0151 76.1702C49.9778 76.1702 49.9405 76.1702 49.9031 76.1702C49.8657 76.1702 49.8283 76.1702 49.7908 76.1702C49.7533 76.1702 49.7157 76.1702 49.6781 76.1702C49.6405 76.1702 49.6028 76.1702 49.5651 76.1702C49.5274 76.1702 49.4896 76.1702 49.4518 76.1702C49.4139 76.1702 49.376 76.1702 49.338 76.1702C49.3001 76.1702 49.2621 76.1702 49.224 76.1702C49.1859 76.1702 49.1478 76.1702 49.1096 76.1702C49.0714 76.1702 49.0332 76.1702 48.9949 76.1702C48.9566 76.1702 48.9182 76.1702 48.8798 76.1702C48.8414 76.1702 48.8029 76.1702 48.7644 76.1702C48.7258 76.1702 48.6873 76.1702 48.6486 76.1702C48.61 76.1702 48.5713 76.1702 48.5325 76.1702C48.4938 76.1702 48.455 76.1702 48.4161 76.1702C48.3772 76.1702 48.3383 76.1702 48.2994 76.1702C48.2604 76.1702 48.2214 76.1702 48.1823 76.1702C48.1432 76.1702 48.104 76.1702 48.0648 76.1702C48.0257 76.1702 47.9864 76.1702 47.9471 76.1702C47.9078 76.1702 47.8684 76.1702 47.829 76.1702C47.7896 76.1702 47.7501 76.1702 47.7106 76.1702C47.6711 76.1702 47.6315 76.1702 47.5919 76.1702C47.5523 76.1702 47.5126 76.1702 47.4728 76.1702C47.4331 76.1702 47.3933 76.1702 47.3535 76.1702C47.3136 76.1702 47.2737 76.1702 47.2338 76.1702C47.1938 76.1702 47.1538 76.1702 47.1138 76.1702C47.0737 76.1702 47.0336 76.1702 46.9934 76.1702C46.9533 76.1702 46.9131 76.1702 46.8728 76.1702C46.8325 76.1702 46.7922 76.1702 46.7518 76.1702C46.7115 76.1702 46.671 76.1702 46.6306 76.1702C46.5901 76.1702 46.5496 76.1702 46.509 76.1702C46.4684 76.1702 46.4278 76.1702 46.3871 76.1702C46.3464 76.1702 46.3057 76.1702 46.2649 76.1702C46.2241 76.1702 46.1833 76.1702 46.1424 76.1702C46.1015 76.1702 46.0605 76.1702 46.0196 76.1702C45.9786 76.1702 45.9375 76.1702 45.8964 76.1702C45.8553 76.1702 45.8142 76.1702 45.773 76.1702C45.7318 76.1702 45.6906 76.1702 45.6493 76.1702C45.608 76.1702 45.5666 76.1702 45.5253 76.1702C45.4839 76.1702 45.4424 76.1702 45.4009 76.1702C45.3594 76.1702 45.3179 76.1702 45.2763 76.1702C45.2347 76.1702 45.1931 76.1702 45.1514 76.1702C45.1097 76.1702 45.068 76.1702 45.0262 76.1702C44.9844 76.1702 44.9425 76.1702 44.9007 76.1702C44.8588 76.1702 44.8168 76.1702 44.7749 76.1702C44.7329 76.1702 44.6909 76.1702 44.6488 76.1702C44.6067 76.1702 44.5646 76.1702 44.5224 76.1702C44.4802 76.1702 44.438 76.1702 44.3957 76.1702C44.3535 76.1702 44.3111 76.1702 44.2688 76.1702C44.2264 76.1702 44.184 76.1702 44.1415 76.1702C44.0991 76.1702 44.0566 76.1702 44.014 76.1702C43.9715 76.1702 43.9289 76.1702 43.8862 76.1702C43.8436 76.1702 43.8009 76.1702 43.7581 76.1702C43.7154 76.1702 43.6726 76.1702 43.6298 76.1702C43.587 76.1702 43.5441 76.1702 43.5011 76.1702C43.4582 76.1702 43.4152 76.1702 43.3722 76.1702C43.3292 76.1702 43.2862 76.1702 43.243 76.1702C43.1999 76.1702 43.1568 76.1702 43.1136 76.1702C43.0704 76.1702 43.0271 76.1702 42.9839 76.1702C42.9406 76.1702 42.8972 76.1702 42.8539 76.1702C42.8105 76.1702 42.767 76.1702 42.7236 76.1702C42.6801 76.1702 42.6366 76.1702 42.593 76.1702C42.5495 76.1702 42.5059 76.1702 42.4622 76.1702C42.4186 76.1702 42.3749 76.1702 42.3312 76.1702C42.2874 76.1702 42.2437 76.1702 42.1998 76.1702C42.156 76.1702 42.1121 76.1702 42.0682 76.1702C42.0243 76.1702 41.9804 76.1702 41.9364 76.1702C41.8924 76.1702 41.8484 76.1702 41.8043 76.1702C41.7602 76.1702 41.7161 76.1702 41.6719 76.1702C41.6277 76.1702 41.5835 76.1702 41.5393 76.1702C41.495 76.1702 41.4507 76.1702 41.4064 76.1702C41.3621 76.1702 41.3177 76.1702 41.2733 76.1702C41.2288 76.1702 41.1844 76.1702 41.1399 76.1702C41.0954 76.1702 41.0508 76.1702 41.0062 76.1702C40.9617 76.1702 40.917 76.1702 40.8724 76.1702C40.8277 76.1702 40.783 76.1702 40.7382 76.1702C40.6935 76.1702 40.6487 76.1702 40.6039 76.1702C40.559 76.1702 40.5141 76.1702 40.4692 76.1702C40.4243 76.1702 40.3794 76.1702 40.3344 76.1702C40.2894 76.1702 40.2443 76.1702 40.1993 76.1702C40.1542 76.1702 40.1091 76.1702 40.0639 76.1702C40.0188 76.1702 39.9736 76.1702 39.9283 76.1702C39.8831 76.1702 39.8378 76.1702 39.7925 76.1702C39.7472 76.1702 39.7018 76.1702 39.6565 76.1702C39.6111 76.1702 39.5656 76.1702 39.5202 76.1702C39.4747 76.1702 39.4292 76.1702 39.3836 76.1702C39.3381 76.1702 39.2925 76.1702 39.2469 76.1702C39.2013 76.1702 39.1556 76.1702 39.1099 76.1702C39.0642 76.1702 39.0185 76.1702 38.9727 76.1702C38.9269 76.1702 38.8811 76.1702 38.8352 76.1702C38.7894 76.1702 38.7435 76.1702 38.6976 76.1702C38.6516 76.1702 38.6057 76.1702 38.5597 76.1702C38.5137 76.1702 38.4676 76.1702 38.4216 76.1702C38.3755 76.1702 38.3294 76.1702 38.2832 76.1702C38.2371 76.1702 38.1909 76.1702 38.1447 76.1702C38.0984 76.1702 38.0522 76.1702 38.0059 76.1702C37.9596 76.1702 37.9133 76.1702 37.8669 76.1702C37.8205 76.1702 37.7741 76.1702 37.7277 76.1702C37.6813 76.1702 37.6348 76.1702 37.5883 76.1702C37.5418 76.1702 37.4952 76.1702 37.4486 76.1702C37.4021 76.1702 37.3554 76.1702 37.3088 76.1702C37.2621 76.1702 37.2155 76.1702 37.1687 76.1702C37.122 76.1702 37.0753 76.1702 37.0285 76.1702C36.9817 76.1702 36.9349 76.1702 36.888 76.1702C36.8411 76.1702 36.7943 76.1702 36.7473 76.1702C36.7004 76.1702 36.6534 76.1702 36.6064 76.1702C36.5594 76.1702 36.5124 76.1702 36.4654 76.1702C36.4183 76.1702 36.3712 76.1702 36.3241 76.1702C36.2769 76.1702 36.2298 76.1702 36.1826 76.1702C36.1354 76.1702 36.0882 76.1702 36.0409 76.1702C35.9936 76.1702 35.9463 76.1702 35.899 76.1702C35.8517 76.1702 35.8043 76.1702 35.7569 76.1702C35.7096 76.1702 35.6621 76.1702 35.6147 76.1702C35.5672 76.1702 35.5197 76.1702 35.4722 76.1702C35.4247 76.1702 35.3771 76.1702 35.3296 76.1702C35.282 76.1702 35.2344 76.1702 35.1867 76.1702C35.1391 76.1702 35.0914 76.1702 35.0437 76.1702C34.996 76.1702 34.9482 76.1702 34.9005 76.1702C34.8527 76.1702 34.8049 76.1702 34.757 76.1702C34.7092 76.1702 34.6614 76.1702 34.6135 76.1702C34.5656 76.1702 34.5176 76.1702 34.4697 76.1702C34.4217 76.1702 34.3737 76.1702 34.3257 76.1702C34.2777 76.1702 34.2297 76.1702 34.1816 76.1702C34.1335 76.1702 34.0854 76.1702 34.0373 76.1702C33.9891 76.1702 33.941 76.1702 33.8928 76.1702C33.8446 76.1702 33.7964 76.1702 33.7481 76.1702C33.6999 76.1702 33.6516 76.1702 33.6033 76.1702C33.555 76.1702 33.5066 76.1702 33.4583 76.1702C33.4099 76.1702 33.3615 76.1702 33.3131 76.1702C33.2647 76.1702 33.2162 76.1702 33.1677 76.1702C33.1193 76.1702 33.0708 76.1702 33.0222 76.1702C32.9737 76.1702 32.9251 76.1702 32.8765 76.1702C32.8279 76.1702 32.7793 76.1702 32.7307 76.1702C32.682 76.1702 32.6334 76.1702 32.5847 76.1702C32.536 76.1702 32.4872 76.1702 32.4385 76.1702C32.3897 76.1702 32.3409 76.1702 32.2921 76.1702C32.2433 76.1702 32.1945 76.1702 32.1456 76.1702C32.0968 76.1702 32.0479 76.1702 31.999 76.1702C31.9501 76.1702 31.9011 76.1702 31.8522 76.1702C31.8032 76.1702 31.7542 76.1702 31.7052 76.1702C31.6562 76.1702 31.6071 76.1702 31.5581 76.1702C31.509 76.1702 31.4599 76.1702 31.4108 76.1702C31.3617 76.1702 31.3125 76.1702 31.2633 76.1702C31.2142 76.1702 31.165 76.1702 31.1158 76.1702C31.0665 76.1702 31.0173 76.1702 30.968 76.1702C30.9188 76.1702 30.8695 76.1702 30.8202 76.1702C30.7708 76.1702 30.7215 76.1702 30.6721 76.1702C30.6228 76.1702 30.5734 76.1702 30.524 76.1702C30.4746 76.1702 30.4251 76.1702 30.3757 76.1702C30.3262 76.1702 30.2767 76.1702 30.2272 76.1702C30.1777 76.1702 30.1282 76.1702 30.0786 76.1702C30.0291 76.1702 29.9795 76.1702 29.9299 76.1702C29.8803 76.1702 29.8307 76.1702 29.781 76.1702C29.7314 76.1702 29.6817 76.1702 29.632 76.1702C29.5824 76.1702 29.5326 76.1702 29.4829 76.1702C29.4332 76.1702 29.3834 76.1702 29.3336 76.1702C29.2839 76.1702 29.2341 76.1702 29.1843 76.1702C29.1344 76.1702 29.0846 76.1702 29.0347 76.1702C28.9849 76.1702 28.935 76.1702 28.8851 76.1702C28.8352 76.1702 28.7852 76.1702 28.7353 76.1702C28.6853 76.1702 28.6354 76.1702 28.5854 76.1702C28.5354 76.1702 28.4854 76.1702 28.4354 76.1702C28.3853 76.1702 28.3353 76.1702 28.2852 76.1702C28.2351 76.1702 28.185 76.1702 28.1349 76.1702C28.0848 76.1702 28.0347 76.1702 27.9845 76.1702C27.9344 76.1702 27.8842 76.1702 27.834 76.1702C27.7838 76.1702 27.7336 76.1702 27.6834 76.1702C27.6332 76.1702 27.5829 76.1702 27.5327 76.1702C27.4824 76.1702 27.4321 76.1702 27.3818 76.1702C27.3315 76.1702 27.2812 76.1702 27.2308 76.1702C27.1805 76.1702 27.1301 76.1702 27.0797 76.1702C27.0294 76.1702 26.979 76.1702 26.9286 76.1702C26.8781 76.1702 26.8277 76.1702 26.7773 76.1702C26.7268 76.1702 26.6763 76.1702 26.6259 76.1702C26.5754 76.1702 26.5249 76.1702 26.4743 76.1702C26.4238 76.1702 26.3733 76.1702 26.3227 76.1702C26.2722 76.1702 26.2216 76.1702 26.171 76.1702C26.1204 76.1702 26.0698 76.1702 26.0192 76.1702C25.9686 76.1702 25.9179 76.1702 25.8673 76.1702C25.8166 76.1702 25.7659 76.1702 25.7153 76.1702C25.6646 76.1702 25.6139 76.1702 25.5631 76.1702C25.5124 76.1702 25.4617 76.1702 25.4109 76.1702C25.3602 76.1702 25.3094 76.1702 25.2586 76.1702C25.2079 76.1702 25.1571 76.1702 25.1062 76.1702C25.0554 76.1702 25.0046 76.1702 24.9538 76.1702C24.9029 76.1702 24.8521 76.1702 24.8012 76.1702C24.7503 76.1702 24.6994 76.1702 24.6485 76.1702C24.5976 76.1702 24.5467 76.1702 24.4958 76.1702C24.4448 76.1702 24.3939 76.1702 24.3429 76.1702C24.292 76.1702 24.241 76.1702 24.19 76.1702C24.139 76.1702 24.088 76.1702 24.037 76.1702C23.986 76.1702 23.935 76.1702 23.8839 76.1702C23.8329 76.1702 23.7819 76.1702 23.7308 76.1702C23.6797 76.1702 23.6286 76.1702 23.5775 76.1702C23.5265 76.1702 23.4753 76.1702 23.4242 76.1702C23.3731 76.1702 23.322 76.1702 23.2708 76.1702C23.2197 76.1702 23.1685 76.1702 23.1174 76.1702C23.0662 76.1702 23.015 76.1702 22.9638 76.1702C22.9127 76.1702 22.8614 76.1702 22.8102 76.1702C22.759 76.1702 22.7078 76.1702 22.6566 76.1702C22.6053 76.1702 22.5541 76.1702 22.5028 76.1702C22.4516 76.1702 22.4003 76.1702 22.349 76.1702C22.2977 76.1702 22.2464 76.1702 22.1951 76.1702C22.1438 76.1702 22.0925 76.1702 22.0412 76.1702C21.9899 76.1702 21.9385 76.1702 21.8872 76.1702C21.8358 76.1702 21.7845 76.1702 21.7331 76.1702C21.6818 76.1702 21.6304 76.1702 21.579 76.1702C21.5276 76.1702 21.4762 76.1702 21.4248 76.1702C21.3734 76.1702 21.322 76.1702 21.2706 76.1702C21.2192 76.1702 21.1677 76.1702 21.1163 76.1702C21.0649 76.1702 21.0134 76.1702 20.9619 76.1702C20.9105 76.1702 20.859 76.1702 20.8075 76.1702C20.7561 76.1702 20.7046 76.1702 20.6531 76.1702C20.6016 76.1702 20.5501 76.1702 20.4986 76.1702C20.4471 76.1702 20.3956 76.1702 20.3441 76.1702C20.2925 76.1702 20.241 76.1702 20.1895 76.1702C20.1379 76.1702 20.0864 76.1702 20.0348 76.1702C19.9833 76.1702 19.9317 76.1702 19.8801 76.1702C19.8286 76.1702 19.777 76.1702 19.7254 76.1702C19.6738 76.1702 19.6223 76.1702 19.5707 76.1702C19.5191 76.1702 19.4675 76.1702 19.4159 76.1702C19.3643 76.1702 19.3126 76.1702 19.261 76.1702C19.2094 76.1702 19.1578 76.1702 19.1061 76.1702C19.0545 76.1702 19.0029 76.1702 18.9512 76.1702C18.8996 76.1702 18.8479 76.1702 18.7963 76.1702C18.7446 76.1702 18.693 76.1702 18.6413 76.1702C18.5896 76.1702 18.538 76.1702 18.4863 76.1702C18.4346 76.1702 18.3829 76.1702 18.3313 76.1702C18.2796 76.1702 18.2279 76.1702 18.1762 76.1702C18.1245 76.1702 18.0728 76.1702 18.0211 76.1702C17.9694 76.1702 17.9177 76.1702 17.866 76.1702C17.8143 76.1702 17.7626 76.1702 17.7108 76.1702C17.6591 76.1702 17.6074 76.1702 17.5557 76.1702C17.504 76.1702 17.4522 76.1702 17.4005 76.1702C17.3488 76.1702 17.297 76.1702 17.2453 76.1702C17.1936 76.1702 17.1418 76.1702 17.0901 76.1702C17.0383 76.1702 16.9866 76.1702 16.9348 76.1702C16.8831 76.1702 16.8313 76.1702 16.7796 76.1702C16.7278 76.1702 16.6761 76.1702 16.6243 76.1702C16.5726 76.1702 16.5208 76.1702 16.469 76.1702C16.4173 76.1702 16.3655 76.1702 16.3138 76.1702C16.262 76.1702 16.2102 76.1702 16.1585 76.1702C16.1067 76.1702 16.0549 76.1702 16.0031 76.1702C15.9514 76.1702 15.8996 76.1702 15.8478 76.1702C15.7961 76.1702 15.7443 76.1702 15.6925 76.1702C15.6407 76.1702 15.589 76.1702 15.5372 76.1702C15.4854 76.1702 15.4337 76.1702 15.3819 76.1702C15.3301 76.1702 15.2783 76.1702 15.2266 76.1702C15.1748 76.1702 15.123 76.1702 15.0712 76.1702C15.0195 76.1702 14.9677 76.1702 14.9159 76.1702C14.8641 76.1702 14.8124 76.1702 14.7606 76.1702C14.7088 76.1702 14.6571 76.1702 14.6053 76.1702C14.5535 76.1702 14.5018 76.1702 14.45 76.1702C14.3982 76.1702 14.3465 76.1702 14.2947 76.1702C14.2429 76.1702 14.1912 76.1702 14.1394 76.1702C14.0876 76.1702 14.0359 76.1702 13.9841 76.1702C13.9324 76.1702 13.8806 76.1702 13.8289 76.1702C13.7771 76.1702 13.7254 76.1702 13.6736 76.1702C13.6219 76.1702 13.5701 76.1702 13.5184 76.1702C13.4666 76.1702 13.4149 76.1702 13.3632 76.1702C13.3114 76.1702 13.2597 76.1702 13.208 76.1702C13.1562 76.1702 13.1045 76.1702 13.0528 76.1702C13.0011 76.1702 12.9493 76.1702 12.8976 76.1702C12.8459 76.1702 12.7942 76.1702 12.7425 76.1702C12.6908 76.1702 12.6391 76.1702 12.5874 76.1702C12.5357 76.1702 12.484 76.1702 12.4323 76.1702C12.3806 76.1702 12.3289 76.1702 12.2772 76.1702C12.2256 76.1702 12.1739 76.1702 12.1222 76.1702C12.0705 76.1702 12.0189 76.1702 11.9672 76.1702C11.9155 76.1702 11.8639 76.1702 11.8122 76.1702C11.7606 76.1702 11.7089 76.1702 11.6573 76.1702C11.6056 76.1702 11.554 76.1702 11.5024 76.1702C11.4508 76.1702 11.3991 76.1702 11.3475 76.1702C11.2959 76.1702 11.2443 76.1702 11.1927 76.1702C11.1411 76.1702 11.0895 76.1702 11.0379 76.1702C10.9863 76.1702 10.9347 76.1702 10.8831 76.1702C10.8315 76.1702 10.78 76.1702 10.7284 76.1702C10.6768 76.1702 10.6253 76.1702 10.5737 76.1702C10.5222 76.1702 10.4706 76.1702 10.4191 76.1702C10.3676 76.1702 10.316 76.1702 10.2645 76.1702C10.213 76.1702 10.1615 76.1702 10.11 76.1702C10.0585 76.1702 10.007 76.1702 9.9555 76.1702C9.90401 76.1702 9.85253 76.1702 9.80106 76.1702C9.74959 76.1702 9.69812 76.1702 9.64667 76.1702C9.59521 76.1702 9.54377 76.1702 9.49233 76.1702C9.4409 76.1702 9.38947 76.1702 9.33805 76.1702C9.28663 76.1702 9.23522 76.1702 9.18383 76.1702C9.13243 76.1702 9.08104 76.1702 9.02966 76.1702C8.97828 76.1702 8.92691 76.1702 8.87554 76.1702C8.82418 76.1702 8.77283 76.1702 8.72149 76.1702C8.67015 76.1702 8.61882 76.1702 8.5675 76.1702C8.51618 76.1702 8.46487 76.1702 8.41357 76.1702C8.36228 76.1702 8.31099 76.1702 8.25971 76.1702C8.20843 76.1702 8.15717 76.1702 8.10591 76.1702V79.7447C8.15717 79.7447 8.20843 79.7447 8.25971 79.7447C8.31099 79.7447 8.36228 79.7447 8.41357 79.7447C8.46487 79.7447 8.51618 79.7447 8.5675 79.7447C8.61882 79.7447 8.67015 79.7447 8.72149 79.7447C8.77283 79.7447 8.82418 79.7447 8.87554 79.7447C8.92691 79.7447 8.97828 79.7447 9.02966 79.7447C9.08104 79.7447 9.13243 79.7447 9.18383 79.7447C9.23522 79.7447 9.28663 79.7447 9.33805 79.7447C9.38947 79.7447 9.4409 79.7447 9.49233 79.7447C9.54377 79.7447 9.59521 79.7447 9.64667 79.7447C9.69812 79.7447 9.74959 79.7447 9.80106 79.7447C9.85253 79.7447 9.90401 79.7447 9.9555 79.7447C10.007 79.7447 10.0585 79.7447 10.11 79.7447C10.1615 79.7447 10.213 79.7447 10.2645 79.7447C10.316 79.7447 10.3676 79.7447 10.4191 79.7447C10.4706 79.7447 10.5222 79.7447 10.5737 79.7447C10.6253 79.7447 10.6768 79.7447 10.7284 79.7447C10.78 79.7447 10.8315 79.7447 10.8831 79.7447C10.9347 79.7447 10.9863 79.7447 11.0379 79.7447C11.0895 79.7447 11.1411 79.7447 11.1927 79.7447C11.2443 79.7447 11.2959 79.7447 11.3475 79.7447C11.3991 79.7447 11.4508 79.7447 11.5024 79.7447C11.554 79.7447 11.6056 79.7447 11.6573 79.7447C11.7089 79.7447 11.7606 79.7447 11.8122 79.7447C11.8639 79.7447 11.9155 79.7447 11.9672 79.7447C12.0189 79.7447 12.0705 79.7447 12.1222 79.7447C12.1739 79.7447 12.2256 79.7447 12.2772 79.7447C12.3289 79.7447 12.3806 79.7447 12.4323 79.7447C12.484 79.7447 12.5357 79.7447 12.5874 79.7447C12.6391 79.7447 12.6908 79.7447 12.7425 79.7447C12.7942 79.7447 12.8459 79.7447 12.8976 79.7447C12.9493 79.7447 13.0011 79.7447 13.0528 79.7447C13.1045 79.7447 13.1562 79.7447 13.208 79.7447C13.2597 79.7447 13.3114 79.7447 13.3632 79.7447C13.4149 79.7447 13.4666 79.7447 13.5184 79.7447C13.5701 79.7447 13.6219 79.7447 13.6736 79.7447C13.7254 79.7447 13.7771 79.7447 13.8289 79.7447C13.8806 79.7447 13.9324 79.7447 13.9841 79.7447C14.0359 79.7447 14.0876 79.7447 14.1394 79.7447C14.1912 79.7447 14.2429 79.7447 14.2947 79.7447C14.3465 79.7447 14.3982 79.7447 14.45 79.7447C14.5018 79.7447 14.5535 79.7447 14.6053 79.7447C14.6571 79.7447 14.7088 79.7447 14.7606 79.7447C14.8124 79.7447 14.8641 79.7447 14.9159 79.7447C14.9677 79.7447 15.0195 79.7447 15.0712 79.7447C15.123 79.7447 15.1748 79.7447 15.2266 79.7447C15.2783 79.7447 15.3301 79.7447 15.3819 79.7447C15.4337 79.7447 15.4854 79.7447 15.5372 79.7447C15.589 79.7447 15.6407 79.7447 15.6925 79.7447C15.7443 79.7447 15.7961 79.7447 15.8478 79.7447C15.8996 79.7447 15.9514 79.7447 16.0031 79.7447C16.0549 79.7447 16.1067 79.7447 16.1585 79.7447C16.2102 79.7447 16.262 79.7447 16.3138 79.7447C16.3655 79.7447 16.4173 79.7447 16.469 79.7447C16.5208 79.7447 16.5726 79.7447 16.6243 79.7447C16.6761 79.7447 16.7278 79.7447 16.7796 79.7447C16.8313 79.7447 16.8831 79.7447 16.9348 79.7447C16.9866 79.7447 17.0383 79.7447 17.0901 79.7447C17.1418 79.7447 17.1936 79.7447 17.2453 79.7447C17.297 79.7447 17.3488 79.7447 17.4005 79.7447C17.4522 79.7447 17.504 79.7447 17.5557 79.7447C17.6074 79.7447 17.6591 79.7447 17.7108 79.7447C17.7626 79.7447 17.8143 79.7447 17.866 79.7447C17.9177 79.7447 17.9694 79.7447 18.0211 79.7447C18.0728 79.7447 18.1245 79.7447 18.1762 79.7447C18.2279 79.7447 18.2796 79.7447 18.3313 79.7447C18.3829 79.7447 18.4346 79.7447 18.4863 79.7447C18.538 79.7447 18.5896 79.7447 18.6413 79.7447C18.693 79.7447 18.7446 79.7447 18.7963 79.7447C18.8479 79.7447 18.8996 79.7447 18.9512 79.7447C19.0029 79.7447 19.0545 79.7447 19.1061 79.7447C19.1578 79.7447 19.2094 79.7447 19.261 79.7447C19.3126 79.7447 19.3643 79.7447 19.4159 79.7447C19.4675 79.7447 19.5191 79.7447 19.5707 79.7447C19.6223 79.7447 19.6738 79.7447 19.7254 79.7447C19.777 79.7447 19.8286 79.7447 19.8801 79.7447C19.9317 79.7447 19.9833 79.7447 20.0348 79.7447C20.0864 79.7447 20.1379 79.7447 20.1895 79.7447C20.241 79.7447 20.2925 79.7447 20.3441 79.7447C20.3956 79.7447 20.4471 79.7447 20.4986 79.7447C20.5501 79.7447 20.6016 79.7447 20.6531 79.7447C20.7046 79.7447 20.7561 79.7447 20.8075 79.7447C20.859 79.7447 20.9105 79.7447 20.9619 79.7447C21.0134 79.7447 21.0649 79.7447 21.1163 79.7447C21.1677 79.7447 21.2192 79.7447 21.2706 79.7447C21.322 79.7447 21.3734 79.7447 21.4248 79.7447C21.4762 79.7447 21.5276 79.7447 21.579 79.7447C21.6304 79.7447 21.6818 79.7447 21.7331 79.7447C21.7845 79.7447 21.8358 79.7447 21.8872 79.7447C21.9385 79.7447 21.9899 79.7447 22.0412 79.7447C22.0925 79.7447 22.1438 79.7447 22.1951 79.7447C22.2464 79.7447 22.2977 79.7447 22.349 79.7447C22.4003 79.7447 22.4516 79.7447 22.5028 79.7447C22.5541 79.7447 22.6053 79.7447 22.6566 79.7447C22.7078 79.7447 22.759 79.7447 22.8102 79.7447C22.8614 79.7447 22.9127 79.7447 22.9638 79.7447C23.015 79.7447 23.0662 79.7447 23.1174 79.7447C23.1685 79.7447 23.2197 79.7447 23.2708 79.7447C23.322 79.7447 23.3731 79.7447 23.4242 79.7447C23.4753 79.7447 23.5265 79.7447 23.5775 79.7447C23.6286 79.7447 23.6797 79.7447 23.7308 79.7447C23.7819 79.7447 23.8329 79.7447 23.8839 79.7447C23.935 79.7447 23.986 79.7447 24.037 79.7447C24.088 79.7447 24.139 79.7447 24.19 79.7447C24.241 79.7447 24.292 79.7447 24.3429 79.7447C24.3939 79.7447 24.4448 79.7447 24.4958 79.7447C24.5467 79.7447 24.5976 79.7447 24.6485 79.7447C24.6994 79.7447 24.7503 79.7447 24.8012 79.7447C24.8521 79.7447 24.9029 79.7447 24.9538 79.7447C25.0046 79.7447 25.0554 79.7447 25.1062 79.7447C25.1571 79.7447 25.2079 79.7447 25.2586 79.7447C25.3094 79.7447 25.3602 79.7447 25.4109 79.7447C25.4617 79.7447 25.5124 79.7447 25.5631 79.7447C25.6139 79.7447 25.6646 79.7447 25.7153 79.7447C25.7659 79.7447 25.8166 79.7447 25.8673 79.7447C25.9179 79.7447 25.9686 79.7447 26.0192 79.7447C26.0698 79.7447 26.1204 79.7447 26.171 79.7447C26.2216 79.7447 26.2722 79.7447 26.3227 79.7447C26.3733 79.7447 26.4238 79.7447 26.4743 79.7447C26.5249 79.7447 26.5754 79.7447 26.6259 79.7447C26.6763 79.7447 26.7268 79.7447 26.7773 79.7447C26.8277 79.7447 26.8781 79.7447 26.9286 79.7447C26.979 79.7447 27.0294 79.7447 27.0797 79.7447C27.1301 79.7447 27.1805 79.7447 27.2308 79.7447C27.2812 79.7447 27.3315 79.7447 27.3818 79.7447C27.4321 79.7447 27.4824 79.7447 27.5327 79.7447C27.5829 79.7447 27.6332 79.7447 27.6834 79.7447C27.7336 79.7447 27.7838 79.7447 27.834 79.7447C27.8842 79.7447 27.9344 79.7447 27.9845 79.7447C28.0347 79.7447 28.0848 79.7447 28.1349 79.7447C28.185 79.7447 28.2351 79.7447 28.2852 79.7447C28.3353 79.7447 28.3853 79.7447 28.4354 79.7447C28.4854 79.7447 28.5354 79.7447 28.5854 79.7447C28.6354 79.7447 28.6853 79.7447 28.7353 79.7447C28.7852 79.7447 28.8352 79.7447 28.8851 79.7447C28.935 79.7447 28.9849 79.7447 29.0347 79.7447C29.0846 79.7447 29.1344 79.7447 29.1843 79.7447C29.2341 79.7447 29.2839 79.7447 29.3336 79.7447C29.3834 79.7447 29.4332 79.7447 29.4829 79.7447C29.5326 79.7447 29.5824 79.7447 29.632 79.7447C29.6817 79.7447 29.7314 79.7447 29.781 79.7447C29.8307 79.7447 29.8803 79.7447 29.9299 79.7447C29.9795 79.7447 30.0291 79.7447 30.0786 79.7447C30.1282 79.7447 30.1777 79.7447 30.2272 79.7447C30.2767 79.7447 30.3262 79.7447 30.3757 79.7447C30.4251 79.7447 30.4746 79.7447 30.524 79.7447C30.5734 79.7447 30.6228 79.7447 30.6721 79.7447C30.7215 79.7447 30.7708 79.7447 30.8202 79.7447C30.8695 79.7447 30.9188 79.7447 30.968 79.7447C31.0173 79.7447 31.0665 79.7447 31.1158 79.7447C31.165 79.7447 31.2142 79.7447 31.2633 79.7447C31.3125 79.7447 31.3617 79.7447 31.4108 79.7447C31.4599 79.7447 31.509 79.7447 31.5581 79.7447C31.6071 79.7447 31.6562 79.7447 31.7052 79.7447C31.7542 79.7447 31.8032 79.7447 31.8522 79.7447C31.9011 79.7447 31.9501 79.7447 31.999 79.7447C32.0479 79.7447 32.0968 79.7447 32.1456 79.7447C32.1945 79.7447 32.2433 79.7447 32.2921 79.7447C32.3409 79.7447 32.3897 79.7447 32.4385 79.7447C32.4872 79.7447 32.536 79.7447 32.5847 79.7447C32.6334 79.7447 32.682 79.7447 32.7307 79.7447C32.7793 79.7447 32.8279 79.7447 32.8765 79.7447C32.9251 79.7447 32.9737 79.7447 33.0222 79.7447C33.0708 79.7447 33.1193 79.7447 33.1677 79.7447C33.2162 79.7447 33.2647 79.7447 33.3131 79.7447C33.3615 79.7447 33.4099 79.7447 33.4583 79.7447C33.5066 79.7447 33.555 79.7447 33.6033 79.7447C33.6516 79.7447 33.6999 79.7447 33.7481 79.7447C33.7964 79.7447 33.8446 79.7447 33.8928 79.7447C33.941 79.7447 33.9891 79.7447 34.0373 79.7447C34.0854 79.7447 34.1335 79.7447 34.1816 79.7447C34.2297 79.7447 34.2777 79.7447 34.3257 79.7447C34.3737 79.7447 34.4217 79.7447 34.4697 79.7447C34.5176 79.7447 34.5656 79.7447 34.6135 79.7447C34.6614 79.7447 34.7092 79.7447 34.757 79.7447C34.8049 79.7447 34.8527 79.7447 34.9005 79.7447C34.9482 79.7447 34.996 79.7447 35.0437 79.7447C35.0914 79.7447 35.1391 79.7447 35.1867 79.7447C35.2344 79.7447 35.282 79.7447 35.3296 79.7447C35.3771 79.7447 35.4247 79.7447 35.4722 79.7447C35.5197 79.7447 35.5672 79.7447 35.6147 79.7447C35.6621 79.7447 35.7096 79.7447 35.7569 79.7447C35.8043 79.7447 35.8517 79.7447 35.899 79.7447C35.9463 79.7447 35.9936 79.7447 36.0409 79.7447C36.0882 79.7447 36.1354 79.7447 36.1826 79.7447C36.2298 79.7447 36.2769 79.7447 36.3241 79.7447C36.3712 79.7447 36.4183 79.7447 36.4654 79.7447C36.5124 79.7447 36.5594 79.7447 36.6064 79.7447C36.6534 79.7447 36.7004 79.7447 36.7473 79.7447C36.7943 79.7447 36.8411 79.7447 36.888 79.7447C36.9349 79.7447 36.9817 79.7447 37.0285 79.7447C37.0753 79.7447 37.122 79.7447 37.1687 79.7447C37.2155 79.7447 37.2621 79.7447 37.3088 79.7447C37.3554 79.7447 37.4021 79.7447 37.4486 79.7447C37.4952 79.7447 37.5418 79.7447 37.5883 79.7447C37.6348 79.7447 37.6813 79.7447 37.7277 79.7447C37.7741 79.7447 37.8205 79.7447 37.8669 79.7447C37.9133 79.7447 37.9596 79.7447 38.0059 79.7447C38.0522 79.7447 38.0984 79.7447 38.1447 79.7447C38.1909 79.7447 38.2371 79.7447 38.2832 79.7447C38.3294 79.7447 38.3755 79.7447 38.4216 79.7447C38.4676 79.7447 38.5137 79.7447 38.5597 79.7447C38.6057 79.7447 38.6516 79.7447 38.6976 79.7447C38.7435 79.7447 38.7894 79.7447 38.8352 79.7447C38.8811 79.7447 38.9269 79.7447 38.9727 79.7447C39.0185 79.7447 39.0642 79.7447 39.1099 79.7447C39.1556 79.7447 39.2013 79.7447 39.2469 79.7447C39.2925 79.7447 39.3381 79.7447 39.3836 79.7447C39.4292 79.7447 39.4747 79.7447 39.5202 79.7447C39.5656 79.7447 39.6111 79.7447 39.6565 79.7447C39.7018 79.7447 39.7472 79.7447 39.7925 79.7447C39.8378 79.7447 39.8831 79.7447 39.9283 79.7447C39.9736 79.7447 40.0188 79.7447 40.0639 79.7447C40.1091 79.7447 40.1542 79.7447 40.1993 79.7447C40.2443 79.7447 40.2894 79.7447 40.3344 79.7447C40.3794 79.7447 40.4243 79.7447 40.4692 79.7447C40.5141 79.7447 40.559 79.7447 40.6039 79.7447C40.6487 79.7447 40.6935 79.7447 40.7382 79.7447C40.783 79.7447 40.8277 79.7447 40.8724 79.7447C40.917 79.7447 40.9617 79.7447 41.0062 79.7447C41.0508 79.7447 41.0954 79.7447 41.1399 79.7447C41.1844 79.7447 41.2288 79.7447 41.2733 79.7447C41.3177 79.7447 41.3621 79.7447 41.4064 79.7447C41.4507 79.7447 41.495 79.7447 41.5393 79.7447C41.5835 79.7447 41.6277 79.7447 41.6719 79.7447C41.7161 79.7447 41.7602 79.7447 41.8043 79.7447C41.8484 79.7447 41.8924 79.7447 41.9364 79.7447C41.9804 79.7447 42.0243 79.7447 42.0682 79.7447C42.1121 79.7447 42.156 79.7447 42.1998 79.7447C42.2437 79.7447 42.2874 79.7447 42.3312 79.7447C42.3749 79.7447 42.4186 79.7447 42.4622 79.7447C42.5059 79.7447 42.5495 79.7447 42.593 79.7447C42.6366 79.7447 42.6801 79.7447 42.7236 79.7447C42.767 79.7447 42.8105 79.7447 42.8539 79.7447C42.8972 79.7447 42.9406 79.7447 42.9839 79.7447C43.0271 79.7447 43.0704 79.7447 43.1136 79.7447C43.1568 79.7447 43.1999 79.7447 43.243 79.7447C43.2862 79.7447 43.3292 79.7447 43.3722 79.7447C43.4152 79.7447 43.4582 79.7447 43.5011 79.7447C43.5441 79.7447 43.587 79.7447 43.6298 79.7447C43.6726 79.7447 43.7154 79.7447 43.7581 79.7447C43.8009 79.7447 43.8436 79.7447 43.8862 79.7447C43.9289 79.7447 43.9715 79.7447 44.014 79.7447C44.0566 79.7447 44.0991 79.7447 44.1415 79.7447C44.184 79.7447 44.2264 79.7447 44.2688 79.7447C44.3111 79.7447 44.3535 79.7447 44.3957 79.7447C44.438 79.7447 44.4802 79.7447 44.5224 79.7447C44.5646 79.7447 44.6067 79.7447 44.6488 79.7447C44.6909 79.7447 44.7329 79.7447 44.7749 79.7447C44.8168 79.7447 44.8588 79.7447 44.9007 79.7447C44.9425 79.7447 44.9844 79.7447 45.0262 79.7447C45.068 79.7447 45.1097 79.7447 45.1514 79.7447C45.1931 79.7447 45.2347 79.7447 45.2763 79.7447C45.3179 79.7447 45.3594 79.7447 45.4009 79.7447C45.4424 79.7447 45.4839 79.7447 45.5253 79.7447C45.5666 79.7447 45.608 79.7447 45.6493 79.7447C45.6906 79.7447 45.7318 79.7447 45.773 79.7447C45.8142 79.7447 45.8553 79.7447 45.8964 79.7447C45.9375 79.7447 45.9786 79.7447 46.0196 79.7447C46.0605 79.7447 46.1015 79.7447 46.1424 79.7447C46.1833 79.7447 46.2241 79.7447 46.2649 79.7447C46.3057 79.7447 46.3464 79.7447 46.3871 79.7447C46.4278 79.7447 46.4684 79.7447 46.509 79.7447C46.5496 79.7447 46.5901 79.7447 46.6306 79.7447C46.671 79.7447 46.7115 79.7447 46.7518 79.7447C46.7922 79.7447 46.8325 79.7447 46.8728 79.7447C46.9131 79.7447 46.9533 79.7447 46.9934 79.7447C47.0336 79.7447 47.0737 79.7447 47.1138 79.7447C47.1538 79.7447 47.1938 79.7447 47.2338 79.7447C47.2737 79.7447 47.3136 79.7447 47.3535 79.7447C47.3933 79.7447 47.4331 79.7447 47.4728 79.7447C47.5126 79.7447 47.5523 79.7447 47.5919 79.7447C47.6315 79.7447 47.6711 79.7447 47.7106 79.7447C47.7501 79.7447 47.7896 79.7447 47.829 79.7447C47.8684 79.7447 47.9078 79.7447 47.9471 79.7447C47.9864 79.7447 48.0257 79.7447 48.0648 79.7447C48.104 79.7447 48.1432 79.7447 48.1823 79.7447C48.2214 79.7447 48.2604 79.7447 48.2994 79.7447C48.3383 79.7447 48.3772 79.7447 48.4161 79.7447C48.455 79.7447 48.4938 79.7447 48.5325 79.7447C48.5713 79.7447 48.61 79.7447 48.6486 79.7447C48.6873 79.7447 48.7258 79.7447 48.7644 79.7447C48.8029 79.7447 48.8414 79.7447 48.8798 79.7447C48.9182 79.7447 48.9566 79.7447 48.9949 79.7447C49.0332 79.7447 49.0714 79.7447 49.1096 79.7447C49.1478 79.7447 49.1859 79.7447 49.224 79.7447C49.2621 79.7447 49.3001 79.7447 49.338 79.7447C49.376 79.7447 49.4139 79.7447 49.4518 79.7447C49.4896 79.7447 49.5274 79.7447 49.5651 79.7447C49.6028 79.7447 49.6405 79.7447 49.6781 79.7447C49.7157 79.7447 49.7533 79.7447 49.7908 79.7447C49.8283 79.7447 49.8657 79.7447 49.9031 79.7447C49.9405 79.7447 49.9778 79.7447 50.0151 79.7447C50.0523 79.7447 50.0895 79.7447 50.1267 79.7447C50.1638 79.7447 50.2009 79.7447 50.2379 79.7447C50.2749 79.7447 50.3119 79.7447 50.3488 79.7447C50.3857 79.7447 50.4226 79.7447 50.4594 79.7447C50.4961 79.7447 50.5329 79.7447 50.5695 79.7447C50.6062 79.7447 50.6428 79.7447 50.6793 79.7447C50.7159 79.7447 50.7524 79.7447 50.7888 79.7447C50.8252 79.7447 50.8616 79.7447 50.8979 79.7447C50.9342 79.7447 50.9704 79.7447 51.0066 79.7447C51.0428 79.7447 51.0789 79.7447 51.115 79.7447C51.151 79.7447 51.187 79.7447 51.223 79.7447C51.2589 79.7447 51.2948 79.7447 51.3306 79.7447C51.3664 79.7447 51.4022 79.7447 51.4379 79.7447C51.4735 79.7447 51.5092 79.7447 51.5447 79.7447C51.5803 79.7447 51.6158 79.7447 51.6512 79.7447C51.6867 79.7447 51.7221 79.7447 51.7574 79.7447C51.7927 79.7447 51.8279 79.7447 51.8631 79.7447C51.8983 79.7447 51.9335 79.7447 51.9685 79.7447C52.0036 79.7447 52.0386 79.7447 52.0735 79.7447C52.1085 79.7447 52.1433 79.7447 52.1781 79.7447C52.2129 79.7447 52.2477 79.7447 52.2824 79.7447C52.3171 79.7447 52.3517 79.7447 52.3862 79.7447C52.4208 79.7447 52.4553 79.7447 52.4897 79.7447C52.5241 79.7447 52.5585 79.7447 52.5928 79.7447C52.6271 79.7447 52.6613 79.7447 52.6955 79.7447C52.7296 79.7447 52.7637 79.7447 52.7978 79.7447C52.8318 79.7447 52.8658 79.7447 52.8997 79.7447C52.9336 79.7447 52.9674 79.7447 53.0012 79.7447C53.035 79.7447 53.0687 79.7447 53.1024 79.7447C53.136 79.7447 53.1696 79.7447 53.2031 79.7447C53.2366 79.7447 53.27 79.7447 53.3034 79.7447C53.3368 79.7447 53.3701 79.7447 53.4034 79.7447C53.4366 79.7447 53.4698 79.7447 53.5029 79.7447C53.536 79.7447 53.5691 79.7447 53.602 79.7447C53.635 79.7447 53.6679 79.7447 53.7008 79.7447C53.7336 79.7447 53.7664 79.7447 53.7991 79.7447C53.8318 79.7447 53.8645 79.7447 53.897 79.7447C53.9296 79.7447 53.9621 79.7447 53.9946 79.7447C54.027 79.7447 54.0594 79.7447 54.0917 79.7447C54.124 79.7447 54.1562 79.7447 54.1884 79.7447C54.2206 79.7447 54.2527 79.7447 54.2847 79.7447C54.3167 79.7447 54.3487 79.7447 54.3806 79.7447C54.4125 79.7447 54.4443 79.7447 54.476 79.7447C54.5078 79.7447 54.5395 79.7447 54.5711 79.7447C54.6027 79.7447 54.6343 79.7447 54.6657 79.7447C54.6972 79.7447 54.7286 79.7447 54.7599 79.7447C54.7913 79.7447 54.8226 79.7447 54.8538 79.7447C54.8849 79.7447 54.9161 79.7447 54.9471 79.7447C54.9782 79.7447 55.0092 79.7447 55.0401 79.7447C55.071 79.7447 55.1018 79.7447 55.1326 79.7447C55.1634 79.7447 55.1941 79.7447 55.2247 79.7447C55.2554 79.7447 55.2859 79.7447 55.3164 79.7447C55.3469 79.7447 55.3773 79.7447 55.4077 79.7447C55.438 79.7447 55.4683 79.7447 55.4985 79.7447C55.5287 79.7447 55.5588 79.7447 55.5889 79.7447C55.6189 79.7447 55.6489 79.7447 55.6788 79.7447C55.7088 79.7447 55.7386 79.7447 55.7684 79.7447C55.7981 79.7447 55.8278 79.7447 55.8575 79.7447C55.8871 79.7447 55.9166 79.7447 55.9461 79.7447C55.9756 79.7447 56.005 79.7447 56.0343 79.7447C56.0637 79.7447 56.0929 79.7447 56.1221 79.7447C56.1513 79.7447 56.1804 79.7447 56.2095 79.7447C56.2385 79.7447 56.2675 79.7447 56.2964 79.7447C56.3252 79.7447 56.3541 79.7447 56.3828 79.7447C56.4116 79.7447 56.4402 79.7447 56.4688 79.7447C56.4974 79.7447 56.5259 79.7447 56.5544 79.7447C56.5828 79.7447 56.6112 79.7447 56.6395 79.7447C56.6678 79.7447 56.696 79.7447 56.7241 79.7447C56.7523 79.7447 56.7804 79.7447 56.8084 79.7447C56.8364 79.7447 56.8643 79.7447 56.8921 79.7447C56.92 79.7447 56.9477 79.7447 56.9754 79.7447C57.0031 79.7447 57.0307 79.7447 57.0583 79.7447C57.0858 79.7447 57.1133 79.7447 57.1407 79.7447C57.1681 79.7447 57.1954 79.7447 57.2226 79.7447C57.2498 79.7447 57.277 79.7447 57.3041 79.7447C57.3312 79.7447 57.3582 79.7447 57.3851 79.7447C57.412 79.7447 57.4389 79.7447 57.4656 79.7447C57.4924 79.7447 57.5191 79.7447 57.5457 79.7447C57.5724 79.7447 57.5989 79.7447 57.6254 79.7447C57.6518 79.7447 57.6782 79.7447 57.7045 79.7447C57.7308 79.7447 57.7571 79.7447 57.7832 79.7447C57.8094 79.7447 57.8354 79.7447 57.8614 79.7447C57.8874 79.7447 57.9133 79.7447 57.9392 79.7447C57.965 79.7447 57.9908 79.7447 58.0165 79.7447C58.0421 79.7447 58.0677 79.7447 58.0933 79.7447C58.1188 79.7447 58.1442 79.7447 58.1696 79.7447C58.1949 79.7447 58.2202 79.7447 58.2454 79.7447C58.2706 79.7447 58.2958 79.7447 58.3208 79.7447C58.3458 79.7447 58.3708 79.7447 58.3957 79.7447C58.4206 79.7447 58.4454 79.7447 58.4701 79.7447C58.4948 79.7447 58.5195 79.7447 58.544 79.7447C58.5686 79.7447 58.5931 79.7447 58.6175 79.7447C58.6419 79.7447 58.6662 79.7447 58.6904 79.7447C58.7147 79.7447 58.7388 79.7447 58.7629 79.7447C58.787 79.7447 58.811 79.7447 58.8349 79.7447C58.8588 79.7447 58.8826 79.7447 58.9064 79.7447C58.9301 79.7447 58.9538 79.7447 58.9774 79.7447C59.001 79.7447 59.0245 79.7447 59.0479 79.7447C59.0713 79.7447 59.0947 79.7447 59.1179 79.7447C59.1412 79.7447 59.1644 79.7447 59.1875 79.7447C59.2105 79.7447 59.2335 79.7447 59.2565 79.7447C59.2794 79.7447 59.3022 79.7447 59.325 79.7447C59.3478 79.7447 59.3704 79.7447 59.393 79.7447C59.4156 79.7447 59.4381 79.7447 59.4606 79.7447C59.483 79.7447 59.5053 79.7447 59.5276 79.7447C59.5498 79.7447 59.572 79.7447 59.5941 79.7447C59.6162 79.7447 59.6382 79.7447 59.6601 79.7447C59.682 79.7447 59.7039 79.7447 59.7256 79.7447C59.7474 79.7447 59.769 79.7447 59.7906 79.7447C59.8122 79.7447 59.8337 79.7447 59.8551 79.7447C59.8765 79.7447 59.8978 79.7447 59.9191 79.7447C59.9403 79.7447 59.9615 79.7447 59.9826 79.7447C60.0036 79.7447 60.0246 79.7447 60.0455 79.7447C60.0664 79.7447 60.0872 79.7447 60.1079 79.7447C60.1287 79.7447 60.1493 79.7447 60.1699 79.7447C60.1904 79.7447 60.2109 79.7447 60.2313 79.7447C60.2516 79.7447 60.2719 79.7447 60.2921 79.7447C60.3124 79.7447 60.3325 79.7447 60.3525 79.7447C60.3725 79.7447 60.3925 79.7447 60.4123 79.7447C60.4322 79.7447 60.452 79.7447 60.4717 79.7447C60.4913 79.7447 60.5109 79.7447 60.5304 79.7447C60.55 79.7447 60.5694 79.7447 60.5887 79.7447C60.608 79.7447 60.6273 79.7447 60.6464 79.7447C60.6656 79.7447 60.6847 79.7447 60.7036 79.7447C60.7226 79.7447 60.7415 79.7447 60.7603 79.7447C60.7791 79.7447 60.7978 79.7447 60.8165 79.7447C60.8351 79.7447 60.8536 79.7447 60.8721 79.7447C60.8905 79.7447 60.9089 79.7447 60.9271 79.7447C60.9454 79.7447 60.9636 79.7447 60.9817 79.7447C60.9997 79.7447 61.0177 79.7447 61.0357 79.7447C61.0536 79.7447 61.0714 79.7447 61.0891 79.7447C61.1068 79.7447 61.1245 79.7447 61.142 79.7447C61.1596 79.7447 61.177 79.7447 61.1944 79.7447C61.2118 79.7447 61.229 79.7447 61.2462 79.7447C61.2634 79.7447 61.2805 79.7447 61.2975 79.7447C61.3145 79.7447 61.3314 79.7447 61.3482 79.7447C61.3651 79.7447 61.3818 79.7447 61.3984 79.7447C61.4151 79.7447 61.4316 79.7447 61.4481 79.7447C61.4645 79.7447 61.4809 79.7447 61.4971 79.7447C61.5134 79.7447 61.5296 79.7447 61.5457 79.7447C61.5618 79.7447 61.5777 79.7447 61.5936 79.7447C61.6095 79.7447 61.6254 79.7447 61.6411 79.7447C61.6568 79.7447 61.6724 79.7447 61.6879 79.7447C61.7035 79.7447 61.7189 79.7447 61.7342 79.7447C61.7496 79.7447 61.7648 79.7447 61.78 79.7447C61.7951 79.7447 61.8102 79.7447 61.8252 79.7447C61.8401 79.7447 61.855 79.7447 61.8698 79.7447C61.8846 79.7447 61.8993 79.7447 61.9139 79.7447C61.9284 79.7447 61.9429 79.7447 61.9573 79.7447C61.9717 79.7447 61.9861 79.7447 62.0003 79.7447C62.0145 79.7447 62.0286 79.7447 62.0426 79.7447C62.0566 79.7447 62.0706 79.7447 62.0844 79.7447C62.0982 79.7447 62.112 79.7447 62.1256 79.7447C62.1393 79.7447 62.1528 79.7447 62.1663 79.7447C62.1797 79.7447 62.1931 79.7447 62.2063 79.7447C62.2196 79.7447 62.2328 79.7447 62.2458 79.7447C62.2589 79.7447 62.2719 79.7447 62.2847 79.7447C62.2976 79.7447 62.3104 79.7447 62.3231 79.7447C62.3358 79.7447 62.3484 79.7447 62.3608 79.7447C62.3733 79.7447 62.3857 79.7447 62.398 79.7447C62.4103 79.7447 62.4225 79.7447 62.4346 79.7447C62.4467 79.7447 62.4587 79.7447 62.4706 79.7447C62.4825 79.7447 62.4943 79.7447 62.506 79.7447C62.5177 79.7447 62.5294 79.7447 62.5409 79.7447C62.5524 79.7447 62.5638 79.7447 62.5751 79.7447C62.5864 79.7447 62.5977 79.7447 62.6088 79.7447C62.6199 79.7447 62.6309 79.7447 62.6418 79.7447C62.6528 79.7447 62.6636 79.7447 62.6743 79.7447C62.685 79.7447 62.6957 79.7447 62.7062 79.7447C62.7167 79.7447 62.7271 79.7447 62.7375 79.7447C62.7478 79.7447 62.758 79.7447 62.7682 79.7447C62.7783 79.7447 62.7883 79.7447 62.7983 79.7447C62.8082 79.7447 62.818 79.7447 62.8277 79.7447C62.8375 79.7447 62.8471 79.7447 62.8566 79.7447C62.8661 79.7447 62.8756 79.7447 62.8849 79.7447C62.8942 79.7447 62.9035 79.7447 62.9126 79.7447C62.9217 79.7447 62.9307 79.7447 62.9397 79.7447C62.9486 79.7447 62.9574 79.7447 62.9661 79.7447C62.9748 79.7447 62.9835 79.7447 62.992 79.7447C63.0005 79.7447 63.0089 79.7447 63.0172 79.7447C63.0255 79.7447 63.0337 79.7447 63.0419 79.7447C63.05 79.7447 63.058 79.7447 63.0659 79.7447C63.0738 79.7447 63.0816 79.7447 63.0893 79.7447C63.097 79.7447 63.1046 79.7447 63.1121 79.7447C63.1196 79.7447 63.127 79.7447 63.1343 79.7447C63.1415 79.7447 63.1487 79.7447 63.1558 79.7447C63.1629 79.7447 63.1699 79.7447 63.1767 79.7447C63.1836 79.7447 63.1904 79.7447 63.1971 79.7447C63.2037 79.7447 63.2103 79.7447 63.2167 79.7447C63.2232 79.7447 63.2296 79.7447 63.2358 79.7447C63.2421 79.7447 63.2482 79.7447 63.2543 79.7447C63.2603 79.7447 63.2662 79.7447 63.2721 79.7447C63.2779 79.7447 63.2836 79.7447 63.2892 79.7447C63.2949 79.7447 63.3004 79.7447 63.3058 79.7447C63.3112 79.7447 63.3165 79.7447 63.3217 79.7447C63.3269 79.7447 63.332 79.7447 63.337 79.7447C63.342 79.7447 63.3469 79.7447 63.3517 79.7447C63.3564 79.7447 63.3611 79.7447 63.3657 79.7447C63.3703 79.7447 63.3747 79.7447 63.3791 79.7447C63.3834 79.7447 63.3877 79.7447 63.3918 79.7447C63.396 79.7447 63.4 79.7447 63.4039 79.7447C63.4078 79.7447 63.4117 79.7447 63.4154 79.7447C63.4191 79.7447 63.4227 79.7447 63.4262 79.7447C63.4297 79.7447 63.4331 79.7447 63.4364 79.7447C63.4397 79.7447 63.4428 79.7447 63.4459 79.7447C63.449 79.7447 63.4519 79.7447 63.4548 79.7447C63.4576 79.7447 63.4604 79.7447 63.463 79.7447C63.4656 79.7447 63.4682 79.7447 63.4706 79.7447C63.473 79.7447 63.4753 79.7447 63.4775 79.7447C63.4797 79.7447 63.4818 79.7447 63.4838 79.7447C63.4858 79.7447 63.4877 79.7447 63.4894 79.7447C63.4912 79.7447 63.4928 79.7447 63.4944 79.7447C63.4959 79.7447 63.4974 79.7447 63.4987 79.7447C63.5 79.7447 63.5012 79.7447 63.5023 79.7447C63.5034 79.7447 63.5044 79.7447 63.5053 79.7447C63.5062 79.7447 63.507 79.7447 63.5077 79.7447C63.5083 79.7447 63.5089 79.7447 63.5093 79.7447C63.5098 79.7447 63.5101 79.7447 63.5103 79.7447C63.5105 79.7447 63.5107 79.7447 63.5107 77.9575ZM97.4681 7.3617V60.9787H101.043V7.3617H97.4681ZM0.957456 72.5957C0.957456 76.5438 4.15745 79.7447 8.10591 79.7447V76.1702C6.132 76.1702 4.53192 74.5701 4.53192 72.5957H0.957456ZM93.8936 3.78723C95.8678 3.78723 97.4681 5.38758 97.4681 7.3617H101.043C101.043 3.41346 97.8419 0.212766 93.8936 0.212766V3.78723ZM8.10639 0.212766C4.15815 0.212766 0.957456 3.41345 0.957456 7.3617H4.53192C4.53192 5.38758 6.13227 3.78723 8.10639 3.78723V0.212766Z" fill="#6F63DE"/>
<circle cx="11.234" cy="36.4043" r="2.23404" fill="#6F63DE"/>
<circle cx="19.2766" cy="8.70212" r="2.23404" fill="#6F63DE"/>
<circle cx="27.3192" cy="8.70212" r="2.23404" fill="#6F63DE"/>
</svg>
