<svg width="196" height="73" viewBox="0 0 196 73" fill="none" xmlns="http://www.w3.org/2000/svg">
<rect width="196" height="73" fill=""/>
<g clip-path="url(#clip0_4385_1265)">
<path d="M76.8376 18.9695C76.843 20.2783 76.5907 21.5753 76.095 22.7862C75.5994 23.997 74.8702 25.0979 73.9492 26.0257C73.0283 26.9534 71.9338 27.6899 70.7284 28.1927C69.523 28.6956 68.2304 28.9551 66.9248 28.9562C61.3638 28.9562 56.9744 24.5304 56.9761 18.92C56.9761 13.4241 61.4098 9.0376 66.9742 9.03931C69.5942 9.05016 72.1032 10.1012 73.9518 11.9624C75.8004 13.8235 76.8381 16.3431 76.8376 18.9695Z" fill="white"/>
<path d="M32.4778 18.9388C32.5307 13.2548 36.99 8.90257 42.788 9.0171C45.404 9.08918 47.8848 10.1976 49.6872 12.0995C51.4895 14.0014 52.4665 16.5419 52.4042 19.1644C52.3189 24.7526 47.6907 29.1066 42.1571 28.9921C36.8195 28.8827 32.4301 24.3714 32.4778 18.9388Z" fill="white"/>
<path d="M17.9333 28.9818C16.6229 28.981 15.3256 28.7204 14.116 28.215C12.9064 27.7097 11.8085 26.9696 10.8853 26.0374C9.96212 25.1051 9.23193 23.9991 8.73675 22.7829C8.24156 21.5667 7.99115 20.2643 7.99992 18.9507C8.00844 13.407 12.4951 9 18.1174 9C23.4874 9 27.9382 13.5454 27.9348 19.014C27.9333 20.3274 27.6731 21.6277 27.1692 22.8401C26.6653 24.0526 25.9276 25.1534 24.9984 26.0794C24.0692 27.0055 22.9668 27.7385 21.7545 28.2366C20.5421 28.7346 19.2435 28.9879 17.9333 28.9818Z" fill="white"/>
<path d="M89.0697 39.9839C89.9224 37.324 90.775 34.7102 91.6157 32.1016C91.909 31.2024 91.7641 31.264 92.7617 31.2622C93.6228 31.2622 94.484 31.2725 95.3435 31.2622C95.7187 31.2622 95.8448 31.4041 95.8431 31.7751C95.8363 35.7365 95.8363 39.6978 95.8431 43.6592C95.8431 44.0438 95.7272 44.2165 95.3315 44.2011C94.791 44.1789 94.247 44.1755 93.7064 44.2011C93.2818 44.2216 93.159 44.0473 93.1624 43.6387C93.1743 41.0745 93.1624 38.5274 93.1624 35.9718C93.1935 35.7805 93.1674 35.5842 93.0874 35.4077C92.9305 35.835 92.7804 36.2145 92.6491 36.6043C91.8493 38.9291 91.0427 41.2523 90.2617 43.584C90.1116 44.0353 89.8968 44.2524 89.4091 44.2062C89.0435 44.1781 88.6764 44.1781 88.3109 44.2062C87.9698 44.2285 87.7993 44.0815 87.6918 43.7567C86.8085 41.1902 85.9155 38.626 85.0128 36.0641C84.9884 35.8961 84.91 35.7406 84.7894 35.6214C84.7212 35.7831 84.7016 35.9614 84.7331 36.1342C84.7331 38.5468 84.7331 40.9588 84.7331 43.3703C84.7331 44.2045 84.7331 44.2045 83.8805 44.2062C83.4661 44.2062 83.05 44.1857 82.6373 44.2062C82.2247 44.2268 82.049 44.0746 82.0541 43.6302C82.0746 41.9378 82.0541 40.2437 82.0541 38.5514C82.0541 36.3302 82.0541 34.1079 82.0541 31.8845C82.0541 31.2879 82.0729 31.2708 82.6783 31.2691C83.5872 31.2691 84.4961 31.2879 85.4067 31.2691C85.845 31.2554 86.0564 31.4007 86.198 31.8281C87.0506 34.4042 87.9374 36.9701 88.8156 39.5394C88.8432 39.7137 88.9336 39.8719 89.0697 39.9839Z" fill="white"/>
<path d="M172.539 39.6847V39.1189C172.539 36.7052 172.539 34.2925 172.539 31.8811C172.539 31.2828 172.559 31.264 173.16 31.2622C173.671 31.2622 174.183 31.2622 174.694 31.2622C175.063 31.2622 175.226 31.4332 175.225 31.8264C175.216 35.7718 175.216 39.7178 175.225 43.6643C175.225 44.0661 175.075 44.1994 174.687 44.1874C174.084 44.1669 173.477 44.1652 172.871 44.1874C172.714 44.2027 172.556 44.1701 172.417 44.0939C172.278 44.0176 172.166 43.9013 172.094 43.7601C170.7 41.4933 169.296 39.2294 167.883 36.9684C167.634 36.5667 167.372 36.1701 167.113 35.7496C166.942 35.9479 167.003 36.1308 167.003 36.2949C167.003 38.7069 167.003 41.119 167.003 43.531C167.003 44.1755 166.991 44.1857 166.371 44.1874C165.878 44.1874 165.382 44.1652 164.891 44.1874C164.442 44.2131 164.316 44.0302 164.318 43.6011C164.333 41.1873 164.326 38.7753 164.326 36.3633C164.326 34.8777 164.341 33.3922 164.316 31.9067C164.316 31.4161 164.51 31.2383 164.962 31.2554H165.01C167.119 31.1904 167.116 31.1922 168.233 33.0025C169.532 35.1085 170.836 37.2112 172.145 39.3104C172.22 39.4454 172.271 39.6129 172.539 39.6847Z" fill="white"/>
<path d="M110.568 37.7188C110.568 35.7815 110.568 33.8486 110.568 31.9204C110.568 31.3272 110.63 31.2622 111.228 31.2605C113.22 31.2605 115.212 31.2383 117.197 31.2605C118.367 31.2759 119.462 31.5357 120.326 32.44C121.776 33.9529 121.51 36.6333 119.772 37.8077C119.618 37.9137 119.32 38.0385 119.67 38.2454C120.732 38.8727 120.974 39.8984 121.085 41.0164C121.177 41.9634 121.085 42.9395 121.47 43.8472C121.557 44.0455 121.47 44.1669 121.269 44.1686C120.52 44.1686 119.772 44.1789 119.023 44.1686C118.711 44.1601 118.665 43.8678 118.633 43.6404C118.539 42.9566 118.476 42.2728 118.399 41.589C118.382 41.4318 118.375 41.2711 118.346 41.1155C118.063 39.5445 117.637 39.1907 116.041 39.1907H114.09C113.442 39.1907 113.435 39.1992 113.435 39.8745C113.435 41.1207 113.418 42.3669 113.435 43.6113C113.435 44.0558 113.287 44.2079 112.853 44.1874C112.265 44.1618 111.675 44.1652 111.085 44.1874C110.693 44.2011 110.553 44.0524 110.556 43.6575C110.577 41.6831 110.568 39.7035 110.568 37.7188ZM115.382 33.5495C114.871 33.5495 114.359 33.5495 113.848 33.5495C113.578 33.5495 113.426 33.6452 113.428 33.9375C113.428 34.8623 113.428 35.7889 113.428 36.7137C113.428 36.9308 113.493 37.1 113.744 37.0983C114.842 37.0983 115.945 37.2009 117.035 37.0487C118.084 36.9017 118.484 36.2453 118.399 35.0128C118.336 34.1478 117.753 33.6025 116.81 33.558C116.337 33.5341 115.86 33.5529 115.382 33.5529V33.5495Z" fill="white"/>
<path d="M188.993 40.7155C188.993 41.7053 188.983 42.6968 188.993 43.6866C188.993 44.0609 188.86 44.2233 188.482 44.1891C188.371 44.1891 188.258 44.1891 188.141 44.1891C186.986 44.1891 187.182 44.2336 186.983 43.2626C186.908 42.8934 186.797 42.8541 186.544 43.1242C185.061 44.7139 182.716 44.7806 180.813 43.9789C178.48 42.9891 177.387 41.095 177.107 38.6437C176.93 37.1605 177.183 35.6575 177.837 34.3153C178.19 33.5498 178.71 32.8741 179.36 32.3386C180.009 31.8031 180.771 31.4217 181.589 31.2229C183.228 30.7853 184.829 30.9238 186.312 31.7563C186.942 32.0915 187.487 32.5674 187.904 33.1472C188.321 33.727 188.6 34.3951 188.719 35.1C188.785 35.4419 188.695 35.5786 188.347 35.5735C187.726 35.5632 187.104 35.5632 186.483 35.5735C186.364 35.5839 186.245 35.5515 186.148 35.4819C186.051 35.4123 185.981 35.3102 185.953 35.194C185.557 34.141 184.829 33.5341 183.674 33.4486C182.261 33.3426 181.149 33.8179 180.506 35.1085C179.694 36.741 179.674 38.4437 180.358 40.1189C180.941 41.5497 182.363 42.2831 183.894 42.0455C185.317 41.8233 186.031 41.1634 186.331 39.8523C186.428 39.4266 186.285 39.3035 185.884 39.3121C185.264 39.3275 184.641 39.3121 184.021 39.3121C183.679 39.3121 183.524 39.1685 183.531 38.8249C183.531 38.442 183.531 38.059 183.531 37.6744C183.531 37.365 183.645 37.1958 183.978 37.1975C185.508 37.1975 187.038 37.1975 188.569 37.1975C188.93 37.1975 188.978 37.4077 188.976 37.6983C188.99 38.7018 188.993 39.7087 188.993 40.7155Z" fill="white"/>
<path d="M126.347 36.4932C126.905 35.9547 127.391 35.5222 127.836 35.0521C128.965 33.8555 130.08 32.6589 131.196 31.452C131.262 31.3851 131.342 31.3335 131.431 31.3007C131.519 31.2679 131.613 31.2548 131.707 31.2622C132.599 31.2622 133.491 31.2622 134.383 31.2622C134.506 31.2622 134.671 31.2127 134.724 31.3477C134.801 31.5187 134.62 31.5956 134.528 31.6896C133.136 33.0965 131.75 34.5085 130.338 35.8932C129.997 36.2351 129.937 36.4932 130.234 36.9052C131.779 39.0557 133.303 41.2215 134.828 43.3874C134.98 43.6028 135.297 43.837 135.198 44.0712C135.084 44.331 134.71 44.1806 134.451 44.1857C133.735 44.2028 133.017 44.1772 132.301 44.1977C132.144 44.2104 131.987 44.1771 131.848 44.1018C131.71 44.0265 131.596 43.9126 131.521 43.7737C130.444 42.131 129.342 40.507 128.268 38.8642C128.036 38.5069 127.889 38.4454 127.563 38.777C126.341 40.0129 126.33 40.0027 126.33 41.7583C126.33 42.3959 126.318 43.0353 126.33 43.6746C126.341 44.0319 126.228 44.208 125.843 44.196C125.222 44.1772 124.6 44.1823 123.979 44.196C123.617 44.196 123.467 44.0644 123.467 43.6831C123.474 39.7058 123.474 35.7291 123.467 31.7529C123.467 31.3716 123.638 31.24 123.994 31.2554C124.6 31.2691 125.205 31.2742 125.81 31.2554C126.203 31.2417 126.344 31.3905 126.339 31.7853C126.324 33.1426 126.339 34.5017 126.339 35.859L126.347 36.4932Z" fill="white"/>
<path d="M136.484 37.7325C136.484 35.7684 136.494 33.8008 136.484 31.8401C136.484 31.4093 136.612 31.252 137.055 31.2537C139.873 31.2685 142.693 31.2685 145.513 31.2537C145.929 31.2537 146.091 31.3939 146.066 31.811C146.04 32.2281 146.066 32.6657 146.066 33.1033C146.066 33.7205 146.05 33.7324 145.408 33.7341H139.99C139.362 33.7341 139.347 33.7512 139.345 34.3786C139.345 34.8743 139.367 35.3701 139.345 35.8641C139.316 36.3171 139.516 36.4385 139.934 36.4351C141.574 36.418 143.215 36.4265 144.857 36.4351C145.539 36.4351 145.559 36.4624 145.563 37.1308C145.563 37.4505 145.563 37.7702 145.563 38.0898C145.575 38.495 145.392 38.6539 144.985 38.6505C143.327 38.6368 141.671 38.6505 140.014 38.6505C139.359 38.6505 139.354 38.6591 139.352 39.324C139.352 39.9303 139.352 40.5372 139.352 41.1446C139.352 41.7976 139.352 41.801 140.034 41.8028H145.578C146.236 41.8028 146.24 41.8028 146.243 42.4763C146.243 42.89 146.23 43.3071 146.243 43.7208C146.257 44.0627 146.115 44.208 145.766 44.2028C144.954 44.1892 144.141 44.2028 143.329 44.2028H137.159C136.487 44.2028 136.485 44.2028 136.485 43.5447C136.484 41.5982 136.484 39.6608 136.484 37.7325Z" fill="white"/>
<path d="M98.4574 44.1891C98.1402 44.1891 97.8213 44.1891 97.5024 44.1891C96.9908 44.1891 96.9601 44.1447 97.1358 43.6763C97.8929 41.6592 98.6512 39.6431 99.4106 37.6283C100.125 35.7308 100.855 33.8401 101.546 31.9358C101.716 31.4503 101.986 31.24 102.489 31.252C103.062 31.2742 103.636 31.2622 104.209 31.252C104.362 31.2368 104.515 31.2771 104.64 31.3656C104.765 31.4542 104.855 31.5849 104.891 31.7341C106.334 35.6236 107.783 39.5104 109.238 43.3942C109.272 43.4848 109.298 43.5772 109.334 43.666C109.47 44.0079 109.39 44.1789 108.993 44.1789C108.322 44.1709 107.653 44.1709 106.986 44.1789C106.859 44.1931 106.732 44.1594 106.629 44.0845C106.525 44.0095 106.454 43.8987 106.428 43.7737C106.206 43.09 105.95 42.4199 105.73 41.7361C105.705 41.6028 105.63 41.4841 105.521 41.4038C105.412 41.3236 105.277 41.2878 105.142 41.3036C103.853 41.3138 102.562 41.3155 101.273 41.3036C101.13 41.2901 100.987 41.3298 100.872 41.4153C100.756 41.5008 100.676 41.626 100.647 41.7668C100.434 42.4011 100.183 43.025 99.9922 43.6678C99.8762 44.0558 99.6784 44.2233 99.2742 44.1806C99.002 44.1696 98.7293 44.1724 98.4574 44.1891ZM103.287 34.7017L103.142 34.7136C102.752 35.8043 102.362 36.8949 101.972 37.9855C101.865 38.2864 101.766 38.589 101.668 38.8915C101.587 39.1462 101.737 39.201 101.941 39.201C102.768 39.201 103.595 39.201 104.423 39.201C104.747 39.201 104.803 39.0659 104.706 38.7821C104.445 38.03 104.194 37.2727 103.94 36.5188C103.73 35.9154 103.505 35.3085 103.287 34.7017Z" fill="white"/>
<path d="M150.928 38.924C150.928 37.3582 150.914 35.794 150.928 34.2282C150.928 33.7837 150.779 33.6401 150.348 33.6521C149.439 33.676 148.532 33.6521 147.619 33.664C147.232 33.664 147.065 33.5375 147.086 33.1375C147.11 32.7231 147.11 32.3075 147.086 31.893C147.062 31.4811 147.213 31.3255 147.635 31.3323C148.798 31.3511 149.961 31.3323 151.124 31.3323C153.051 31.3323 154.978 31.3323 156.906 31.3323C157.611 31.3323 157.611 31.3323 157.612 32.0589C157.612 32.4007 157.592 32.7632 157.612 33.1119C157.643 33.541 157.454 33.6675 157.05 33.6572C156.158 33.6384 155.264 33.6709 154.374 33.6435C153.917 33.6298 153.767 33.7871 153.769 34.2487C153.784 37.3137 153.777 40.3805 153.777 43.4472C153.777 44.1635 153.758 44.1789 153.063 44.1823C152.52 44.1823 151.978 44.1652 151.437 44.1823C151.047 44.196 150.902 44.0524 150.905 43.6541C150.936 42.0865 150.928 40.5053 150.928 38.924Z" fill="white"/>
<path d="M132.592 19.414C134.117 19.8943 134.442 21.1029 134.49 22.5218C134.519 23.4261 134.529 24.3441 134.859 25.2108C134.949 25.4518 134.896 25.5526 134.63 25.5954C133.752 25.7099 133.481 25.4791 133.423 24.5885C133.372 23.7782 133.329 22.9628 133.215 22.1594C133.044 20.9132 132.456 19.8414 130.716 19.9217C129.429 19.9798 128.136 19.9473 126.847 19.9217C126.397 19.9217 126.226 20.055 126.233 20.5217C126.255 22.0055 126.243 23.491 126.233 24.9766C126.233 25.5509 126.175 25.5971 125.551 25.592C124.975 25.592 124.924 25.5441 124.924 24.9629C124.924 21.0984 124.924 17.2344 124.924 13.3711C124.924 12.795 124.973 12.7488 125.556 12.7471C127.405 12.7471 129.252 12.7471 131.1 12.7471C131.854 12.7362 132.596 12.9299 133.249 13.3078C134.637 14.1369 135.142 16.0293 134.442 17.6208C134.299 17.9766 134.085 18.2998 133.814 18.5712C133.543 18.8425 133.22 19.0565 132.865 19.2003C132.778 19.2362 132.695 19.2858 132.614 19.3302C132.604 19.3422 132.604 19.3661 132.592 19.414ZM128.905 18.7986C129.637 18.7986 130.37 18.8208 131.102 18.7986C131.724 18.7868 132.318 18.5344 132.758 18.0941C133.199 17.6538 133.453 17.0598 133.467 16.4361C133.505 15.1557 132.955 14.0548 131.39 13.8822C129.802 13.7112 128.21 13.8412 126.615 13.807C126.274 13.807 126.235 14.0172 126.235 14.2856C126.235 15.6258 126.245 16.9661 126.235 18.3063C126.235 18.6858 126.392 18.8191 126.746 18.802C127.47 18.7866 128.186 18.7986 128.905 18.7986Z" fill="white"/>
<path d="M93.3568 56.3229C93.3568 54.3724 93.367 52.4236 93.3568 50.4748C93.3568 50.0287 93.4898 49.8338 93.9588 49.8526C95.5976 49.9124 97.2398 49.762 98.8786 49.9415C101.356 50.2133 102.961 51.6048 103.496 54.0356C103.913 55.9263 103.865 57.8084 103.155 59.6392C102.547 61.2205 101.329 62.0855 99.7448 62.4957C99.1095 62.6517 98.4564 62.723 97.8025 62.7077C96.5116 62.694 95.219 62.6889 93.9281 62.7077C93.4796 62.7162 93.3517 62.547 93.3551 62.1196C93.3653 60.1897 93.3568 58.2563 93.3568 56.3229ZM94.6784 56.2989C94.6784 57.8944 94.6784 59.4899 94.6784 61.0854C94.6784 61.4034 94.7023 61.6598 95.1235 61.6495C96.3326 61.6205 97.5416 61.6991 98.749 61.5436C100.625 61.3025 101.844 60.2512 102.257 58.3896C102.553 57.0278 102.553 55.6179 102.257 54.2561C101.895 52.5364 100.864 51.4749 99.1122 51.1398C97.852 50.8988 96.5815 50.9039 95.3077 50.9124C94.7483 50.9124 94.675 50.9945 94.6733 51.5552C94.6756 53.1359 94.6773 54.7171 94.6784 56.2989Z" fill="white"/>
<path d="M152.483 56.5041C152.824 56.7024 153.144 56.7776 153.395 56.9793C154.057 57.5092 154.263 58.2443 154.374 59.0392C154.485 59.8341 154.41 60.6358 154.545 61.4239C154.599 61.7546 154.682 62.0799 154.792 62.3966C154.829 62.5008 154.882 62.6034 154.737 62.6821C154.248 62.947 153.48 62.6205 153.412 62.0803C153.295 61.1316 153.23 60.176 153.121 59.2272C152.95 57.7605 152.138 57.0391 150.68 57.0357H146.758C146.154 57.0357 146.132 57.0579 146.131 57.6511C146.131 59.1366 146.115 60.6222 146.131 62.106C146.131 62.5675 145.984 62.7316 145.525 62.7111C144.915 62.6821 144.879 62.6803 144.879 62.1077C144.879 58.2272 144.879 54.345 144.879 50.4646C144.879 50.015 145.005 49.844 145.474 49.8492C147.306 49.8697 149.139 49.8406 150.97 49.8646C151.927 49.8782 152.826 50.121 153.59 50.7535C155.32 52.1911 154.869 55.6203 152.716 56.3605C152.635 56.4027 152.557 56.4507 152.483 56.5041ZM146.141 53.4459C146.141 54.1006 146.163 54.7553 146.132 55.4083C146.112 55.8596 146.303 56.0049 146.721 55.9793C147.138 55.9536 147.573 55.9793 148.01 55.9793C149.106 55.9485 150.208 56.0733 151.299 55.8853C152.621 55.6562 153.453 54.6493 153.412 53.3348C153.37 51.9672 152.578 51.133 151.195 50.9877C149.661 50.827 148.109 50.9518 146.567 50.9125C146.262 50.9039 146.137 51.0424 146.141 51.3449C146.148 52.0475 146.143 52.7501 146.141 53.4459Z" fill="white"/>
<path d="M130.936 56.2613C130.904 54.4202 131.385 52.7552 132.642 51.3654C133.823 50.0526 135.358 49.55 137.075 49.5825C139.277 49.6252 141.025 50.5432 142.109 52.5125C142.926 53.9997 143.145 55.622 142.962 57.299C142.792 58.7947 142.306 60.1589 141.24 61.2649C139.802 62.759 138 63.1983 136.03 62.9282C132.918 62.5042 131.156 60.0221 130.959 57.0323C130.923 56.7741 130.936 56.5229 130.936 56.2613ZM132.176 56.4169C132.145 57.0832 132.236 57.7496 132.446 58.3827C133.034 60.3418 134.241 61.6051 136.344 61.8991C137.272 62.041 138.221 61.8861 139.057 61.4565C139.892 61.0269 140.571 60.3444 140.998 59.5059C141.976 57.5468 142.011 55.528 141.207 53.5228C140.576 51.9501 139.405 50.9329 137.677 50.7261C135.769 50.497 134.176 51.068 133.095 52.7415C132.396 53.8219 132.145 55.0305 132.176 56.4169Z" fill="white"/>
<path d="M124.813 62.9778C123.488 62.9778 122.193 62.8154 121.092 61.9897C120.057 61.2119 119.637 60.1298 119.649 58.8563C119.649 58.434 119.958 58.4716 120.224 58.4836C120.49 58.4956 120.843 58.3588 120.906 58.8546C121.11 60.711 122.108 61.641 123.975 61.8512C124.963 61.9624 125.913 61.9555 126.83 61.5333C127.427 61.2902 127.918 60.8417 128.215 60.2683C128.737 59.1828 128.312 58.087 127.21 57.5332C126.628 57.2721 126.021 57.071 125.398 56.9331C124.305 56.6425 123.189 56.4374 122.118 56.0647C120.942 55.6545 120.191 54.8681 120.072 53.6065C119.995 52.9996 120.084 52.383 120.33 51.8229C120.575 51.2628 120.969 50.7802 121.467 50.4269C123.24 49.0901 126.939 49.2714 128.459 51.2406C128.867 51.7763 129.127 52.4109 129.212 53.08C129.264 53.4527 129.105 53.5792 128.731 53.5929C128.251 53.6185 127.986 53.5091 127.879 52.9757C127.791 52.5255 127.587 52.1061 127.288 51.7587C126.989 51.4113 126.605 51.1479 126.174 50.9945C125.59 50.7519 124.961 50.6362 124.329 50.655C123.698 50.6739 123.077 50.8269 122.509 51.1039C122.118 51.3098 121.796 51.6267 121.584 52.0149C121.371 52.4032 121.278 52.8456 121.315 53.2869C121.407 54.2134 121.943 54.7655 122.816 54.9963C124.079 55.3382 125.35 55.6374 126.615 55.9707C127.315 56.138 127.974 56.445 128.552 56.8733C130.258 58.1879 129.86 60.5179 128.8 61.6427C127.886 62.6119 126.692 62.8393 125.456 62.9607C125.242 62.9783 125.027 62.984 124.813 62.9778Z" fill="white"/>
<path d="M161.424 62.9846C160.399 63.0199 159.379 62.837 158.431 62.4478C157.757 62.1506 157.185 61.6612 156.787 61.0405C156.388 60.4197 156.181 59.6952 156.19 58.9571C156.19 58.6067 156.325 58.4443 156.671 58.4836C156.978 58.5212 157.387 58.3041 157.45 58.899C157.621 60.5862 158.445 61.4324 160.102 61.7709C161.323 62.0188 162.507 61.9983 163.642 61.4136C164.083 61.1842 164.45 60.8338 164.7 60.4033C165.249 59.4956 165.017 58.4494 164.128 57.7708C163.685 57.4547 163.182 57.2341 162.65 57.1229C161.507 56.834 160.36 56.5571 159.219 56.2579C158.405 56.0459 157.646 55.7228 157.135 54.9997C156.136 53.5843 156.569 51.4748 158.039 50.4047C159.754 49.1551 163.473 49.2491 164.998 51.2389C165.406 51.7538 165.663 52.3724 165.74 53.0253C165.765 53.2527 165.827 53.5176 165.472 53.5877C164.925 53.6971 164.572 53.5877 164.497 53.227C164.203 51.8202 163.294 51.0406 161.939 50.7757C161.025 50.5799 160.073 50.6676 159.21 51.027C158.776 51.2164 158.411 51.5367 158.166 51.9436C157.922 52.3504 157.81 52.8235 157.846 53.2971C157.919 54.2066 158.458 54.7826 159.471 55.063C160.991 55.4835 162.556 55.7348 164.036 56.2972C166.529 57.2408 166.656 59.6238 165.68 61.1931C165.128 62.0837 164.268 62.5607 163.267 62.7795C162.665 62.9329 162.045 63.0019 161.424 62.9846Z" fill="white"/>
<path d="M82.0661 19.1559V13.4053C82.0661 12.7642 82.0797 12.7505 82.6987 12.7505C85.2567 12.7505 87.8283 12.7505 90.393 12.7505C90.7887 12.7505 90.9745 12.8514 90.9677 13.289C90.9677 13.6856 90.8211 13.819 90.4323 13.8155C88.727 13.8036 87.0217 13.8155 85.3164 13.8155C84.7894 13.8155 84.2642 13.8155 83.739 13.8155C83.4371 13.8155 83.3058 13.9369 83.3075 14.2429C83.3075 15.4891 83.3178 16.7336 83.3075 17.9798C83.3075 18.4037 83.5531 18.4259 83.8686 18.4259C85.8928 18.4259 87.9169 18.4259 89.9394 18.4259C90.3589 18.4259 90.4919 18.573 90.4902 18.9866C90.4885 19.4003 90.2992 19.4995 89.9326 19.4995C87.9886 19.4892 86.0462 19.4995 84.1022 19.4995C83.3127 19.4995 83.3127 19.4995 83.3109 20.3029V23.8141C83.3109 24.539 83.3109 24.5407 84.0169 24.5407C86.1827 24.5407 88.3501 24.5407 90.5175 24.5407C90.9404 24.5407 91.07 24.6962 91.0632 25.1048C91.0632 25.4826 90.9166 25.6057 90.5516 25.6057C87.8902 25.5965 85.2294 25.5965 82.5691 25.6057C82.1531 25.6057 82.0576 25.421 82.0576 25.0518C82.0729 23.0842 82.0661 21.12 82.0661 19.1559Z" fill="white"/>
<path d="M114.3 19.1439C114.3 17.2122 114.311 15.2788 114.291 13.3454C114.291 12.8839 114.439 12.7386 114.896 12.742C117.454 12.7591 120.028 12.742 122.594 12.7505C123.141 12.7505 123.353 13.0651 123.169 13.5848C123.063 13.8805 122.807 13.8002 122.601 13.8002C120.555 13.8002 118.52 13.8002 116.481 13.8002C115.468 13.8002 115.544 13.7266 115.543 14.7267C115.543 15.7643 115.56 16.8037 115.543 17.8413C115.532 18.2892 115.701 18.4191 116.131 18.4157C118.138 18.3986 120.147 18.4157 122.154 18.402C122.555 18.402 122.734 18.508 122.725 18.9422C122.725 19.3422 122.572 19.4704 122.185 19.467C120.225 19.455 118.263 19.467 116.305 19.467C115.561 19.467 115.553 19.4755 115.551 20.2106C115.551 21.4722 115.565 22.7355 115.551 23.9971C115.551 24.4193 115.701 24.5509 116.111 24.5475C118.327 24.5338 120.544 24.5475 122.761 24.5355C123.186 24.5355 123.31 24.6911 123.312 25.0979C123.314 25.5048 123.113 25.6108 122.749 25.6005C120.502 25.6005 118.256 25.6005 116.008 25.6005C115.625 25.6005 115.241 25.5817 114.861 25.6005C114.436 25.6296 114.31 25.4484 114.313 25.0398C114.308 23.074 114.3 21.1098 114.3 19.1439Z" fill="white"/>
<path d="M103.009 19.173C103.009 17.2259 103.017 15.2771 103.009 13.3301C103.009 12.901 103.133 12.7369 103.58 12.742C105.394 12.7608 107.211 12.742 109.027 12.7557C110.715 12.7762 111.997 13.7557 112.396 15.2788C112.86 17.0481 112.284 18.7456 110.918 19.5747C110.264 19.9488 109.521 20.1378 108.768 20.1217C107.461 20.1337 106.155 20.1405 104.845 20.1217C104.38 20.1217 104.24 20.2807 104.247 20.732C104.269 22.1372 104.257 23.5423 104.247 24.9475C104.247 25.5834 104.225 25.6022 103.614 25.6005C103.004 25.5988 103.004 25.5817 103.004 24.9167C103.006 23.0033 103.008 21.0887 103.009 19.173ZM104.252 16.3712C104.252 17.0105 104.252 17.6481 104.252 18.2858C104.252 18.9866 104.252 18.9883 104.934 18.9901C106.128 18.9901 107.321 18.9678 108.515 18.9901C110.012 19.026 111.387 18.2225 111.257 16.2259C111.175 14.9523 110.492 14.072 109.228 13.8942C107.693 13.6788 106.145 13.8361 104.603 13.8036C104.289 13.8036 104.254 14.0138 104.262 14.2583C104.254 14.9677 104.252 15.6669 104.252 16.3712Z" fill="white"/>
<path d="M86.4623 58.7605C85.6506 58.7605 84.8372 58.7742 84.0255 58.7605C83.8768 58.739 83.7256 58.7741 83.6015 58.859C83.4774 58.9438 83.3896 59.0721 83.3553 59.2187C82.9801 60.2529 82.5726 61.27 82.1752 62.2957C82.0405 62.6376 81.1521 62.8906 80.8673 62.6496C80.6848 62.4923 80.84 62.3213 80.8997 62.1726C81.6864 60.201 82.4759 58.2318 83.2683 56.2647C84.0266 54.3695 84.7849 52.4732 85.5432 50.5757C85.8143 49.8919 86.4146 49.6355 87.0882 49.8816C87.2587 49.9466 87.3133 50.0936 87.3713 50.2423C88.9072 54.1638 90.4419 58.0859 91.9756 62.0085C92.0506 62.2051 92.3422 62.4735 91.996 62.6701C91.6498 62.8667 90.8978 62.6701 90.7767 62.3709C90.3675 61.3452 89.9497 60.3298 89.583 59.2939C89.4313 58.8734 89.1942 58.7366 88.7662 58.752C87.992 58.7811 87.2263 58.7605 86.4623 58.7605ZM86.5254 51.2834C86.3905 51.3828 86.2975 51.5291 86.2645 51.6937C85.5517 53.5171 84.8412 55.3451 84.1329 57.1776C83.9487 57.6528 83.9794 57.699 84.474 57.7007C85.6199 57.7007 86.7659 57.7007 87.9135 57.7007C88.9282 57.7007 88.9282 57.7007 88.5684 56.7297C88.5462 56.6699 88.5275 56.6101 88.5053 56.5502C87.8539 54.8134 87.1973 53.0646 86.5254 51.2834Z" fill="white"/>
<path d="M161.922 37.7599C161.922 39.6916 161.91 41.625 161.922 43.5566C161.922 44.025 161.806 44.2285 161.306 44.1977C160.719 44.1601 160.128 44.1789 159.539 44.1977C159.198 44.1977 159.045 44.1003 159.045 43.7344C159.052 39.7252 159.052 35.7171 159.045 31.7101C159.045 31.4144 159.149 31.2639 159.461 31.2691C160.097 31.2776 160.735 31.2691 161.373 31.2691C161.773 31.2691 161.922 31.464 161.918 31.8691C161.913 33.8316 161.922 35.7957 161.922 37.7599Z" fill="white"/>
<path d="M92.2859 12.7489C92.7975 12.6429 93.0789 12.901 93.3415 13.3044C94.2845 14.7472 95.2582 16.1695 96.22 17.6003C96.5321 18.0618 96.5611 18.0687 96.8714 17.6259C97.9185 16.1387 98.961 14.6481 99.9989 13.154C100.245 12.8036 101.034 12.5882 101.402 12.7796C101.643 12.9061 101.483 13.0446 101.402 13.166C100.82 14.0047 100.236 14.8424 99.6494 15.6789C98.9536 16.6721 98.2664 17.6704 97.5553 18.6533C97.3421 18.9473 97.412 19.1661 97.5979 19.4243C98.8882 21.25 100.172 23.0745 101.45 24.898C101.532 25.0159 101.61 25.1373 101.691 25.2552C101.834 25.4638 101.786 25.5646 101.52 25.5971C100.838 25.6723 100.301 25.5441 99.8762 24.8706C98.9297 23.3748 97.8878 21.9406 96.8851 20.4807C96.544 19.9901 96.544 19.9833 96.203 20.4534C95.1116 22.0078 94.0247 23.5646 92.9424 25.1236C92.7833 25.3379 92.5612 25.4968 92.3073 25.578C92.0535 25.6593 91.7806 25.6588 91.527 25.5766C91.2303 25.4638 91.4094 25.3048 91.5015 25.1715C92.2893 24.0318 93.0794 22.8922 93.8718 21.7526C94.426 20.9525 94.9734 20.1474 95.5447 19.3593C95.7698 19.0482 95.6828 18.814 95.4919 18.5405C94.2902 16.831 93.0965 15.1176 91.9107 13.4002C91.7948 13.2292 91.5458 13.0583 91.6277 12.8788C91.759 12.6104 92.071 12.8258 92.2859 12.7489Z" fill="white"/>
<path d="M109.806 61.1863C110.019 60.6119 110.22 60.0785 110.413 59.5435C111.491 56.5383 112.567 53.5325 113.641 50.5261C113.883 49.8526 114.165 49.7141 114.881 49.8645C115.232 49.9363 115.101 50.1534 115.033 50.3381C114.617 51.4766 114.192 52.6133 113.771 53.757C112.748 56.5263 111.725 59.295 110.701 62.0632C110.614 62.2957 110.596 62.6171 110.304 62.6718C109.898 62.7602 109.477 62.7526 109.075 62.6496C108.913 62.6034 108.904 62.4 108.841 62.2513C107.678 59.107 106.516 55.9633 105.355 52.8202C105.057 52.0116 104.762 51.2013 104.453 50.3962C104.315 50.0321 104.388 49.8662 104.81 49.8594C105.596 49.8457 105.587 49.8338 105.857 50.5842C107.078 53.9792 108.303 57.3719 109.532 60.7623C109.569 60.9321 109.667 61.0826 109.806 61.1863Z" fill="white"/>
<path d="M141.354 19.7183C141.354 21.4756 141.354 23.2312 141.354 24.9868C141.354 25.1834 141.439 25.4518 141.195 25.5407C140.894 25.6571 140.56 25.6534 140.261 25.5304C140.032 25.4313 140.118 25.1646 140.118 24.9663C140.118 22.3315 140.118 19.6972 140.118 17.0635C140.118 16.1541 140.106 15.2429 140.118 14.3284C140.118 13.9386 139.992 13.7865 139.594 13.7933C138.464 13.8104 137.331 13.7933 136.201 13.8036C135.817 13.8036 135.614 13.7249 135.616 13.2771C135.617 12.8292 135.786 12.7369 136.189 12.7386C139.216 12.7488 142.243 12.7488 145.268 12.7386C145.66 12.7386 145.859 12.8463 145.854 13.2805C145.854 13.6839 145.67 13.8053 145.297 13.7933C144.181 13.7813 143.066 13.807 141.953 13.7831C141.494 13.7728 141.342 13.9301 141.349 14.3882C141.371 16.1797 141.354 17.9473 141.354 19.7183Z" fill="white"/>
<path d="M117.65 56.3075C117.65 58.2448 117.65 60.1765 117.65 62.1025C117.65 62.682 117.62 62.6837 117.013 62.7111C116.566 62.7299 116.397 62.588 116.399 62.1179C116.415 58.2215 116.415 54.3262 116.399 50.4321C116.399 49.9483 116.588 49.8423 117.021 49.8474C117.454 49.8526 117.666 49.9141 117.661 50.4184C117.628 52.3808 117.65 54.345 117.65 56.3075Z" fill="white"/>
</g>
<defs>
<clipPath id="clip0_4385_1265">
<rect width="181" height="54" fill="white" transform="translate(8 9)"/>
</clipPath>
</defs>
</svg>
