<svg width="14" height="14" viewBox="0 0 14 14" fill="none" xmlns="http://www.w3.org/2000/svg">
<path d="M10.6232 6.83535V12.1883C10.6232 12.2706 10.5409 12.4353 10.3761 12.4353H1.48203C1.39968 12.4353 1.23497 12.353 1.23497 12.1883V3.29417C1.23497 3.21182 1.31733 3.04711 1.48203 3.04711H6.83497C7.16438 3.04711 7.41144 2.80005 7.41144 2.47064C7.41144 2.14123 7.16438 1.89417 6.83497 1.89417H1.48203C0.740855 1.81182 0.0820312 2.47064 0.0820312 3.29417V12.1883C0.0820312 12.9295 0.740855 13.5883 1.48203 13.5883H10.3761C11.1173 13.5883 11.7761 12.9295 11.7761 12.1883V6.83535C11.7761 6.50594 11.5291 6.25888 11.1997 6.25888C10.8703 6.25888 10.6232 6.50594 10.6232 6.83535Z" fill="#272D3D"/>
<path d="M12.9291 0.0825195H9.0585C8.72909 0.0825195 8.48203 0.329578 8.48203 0.65899C8.48203 0.988402 8.72909 1.23546 9.0585 1.23546H11.5291L5.51733 7.32958C5.27027 7.57664 5.27027 7.90605 5.51733 8.15311C5.76438 8.40017 6.0938 8.40017 6.34085 8.15311L12.3526 2.14134V4.61193C12.3526 4.94134 12.5997 5.1884 12.9291 5.1884C13.2585 5.1884 13.5056 4.94134 13.5056 4.61193V0.741343C13.5879 0.329578 13.3409 0.0825195 12.9291 0.0825195Z" fill="#272D3D"/>
</svg>
