<svg width="28" height="28" viewBox="0 0 28 28" fill="none" xmlns="http://www.w3.org/2000/svg">
<path d="M21.2464 13.6707V24.3766C21.2464 24.5413 21.0817 24.8707 20.7523 24.8707H2.96406C2.79936 24.8707 2.46994 24.706 2.46994 24.3766V6.58834C2.46994 6.42364 2.63465 6.09423 2.96406 6.09423H13.6699C14.3288 6.09423 14.8229 5.60011 14.8229 4.94129C14.8229 4.28246 14.3288 3.78834 13.6699 3.78834H2.96406C1.48171 3.62364 0.164062 4.94129 0.164062 6.58834V24.3766C0.164062 25.8589 1.48171 27.1766 2.96406 27.1766H20.7523C22.2347 27.1766 23.5523 25.8589 23.5523 24.3766V13.6707C23.5523 13.0119 23.0582 12.5178 22.3994 12.5178C21.7405 12.5178 21.2464 13.0119 21.2464 13.6707Z" fill="white"/>
<path d="M25.8582 0.164795H18.117C17.4582 0.164795 16.9641 0.658913 16.9641 1.31774C16.9641 1.97656 17.4582 2.47068 18.117 2.47068H23.0582L11.0347 14.6589C10.5405 15.153 10.5405 15.8119 11.0347 16.306C11.5288 16.8001 12.1876 16.8001 12.6817 16.306L24.7052 4.28244V9.22362C24.7052 9.88244 25.1994 10.3766 25.8582 10.3766C26.517 10.3766 27.0111 9.88244 27.0111 9.22362V1.48244C27.1758 0.658912 26.6817 0.164795 25.8582 0.164795Z" fill="white"/>
</svg>
