<svg width="196" height="73" viewBox="0 0 196 73" fill="none" xmlns="http://www.w3.org/2000/svg">
<rect width="196" height="73" fill=""/>
<path d="M66.1765 44.6007C65.5657 44.6007 64.961 44.4779 64.3972 44.2394L63.9417 44.0588C63.1054 43.7337 62.2442 43.3941 61.7389 42.4187C61.7159 42.3766 61.7013 42.3303 61.6962 42.2824C61.691 42.2345 61.6954 42.1861 61.7089 42.1399C61.7225 42.0938 61.745 42.0509 61.7751 42.0137C61.8053 41.9765 61.8424 41.9458 61.8844 41.9234C61.9264 41.901 61.9724 41.8874 62.0197 41.8833C62.0669 41.8792 62.1145 41.8847 62.1596 41.8995C62.2048 41.9144 62.2465 41.9382 62.2824 41.9697C62.3183 42.0011 62.3477 42.0396 62.3688 42.0827C62.7495 42.8052 63.4186 43.0798 64.1979 43.3833C64.3545 43.4447 64.511 43.5061 64.6712 43.5747C65.236 43.797 65.8404 43.8964 66.4455 43.8665C67.0505 43.8367 67.6426 43.6782 68.1835 43.4013C69.1443 42.9353 69.8774 42.1803 70.0945 41.4324C70.7492 39.1673 69.7386 37.5525 67.1017 36.6277L66.4113 36.4073C65.5528 36.1672 64.7296 35.8125 63.963 35.3524C63.5234 35.0647 63.1516 34.6821 62.8742 34.2319C62.5968 33.7817 62.4206 33.2749 62.3581 32.7477C62.2956 32.2676 62.3395 31.7794 62.4867 31.3188C62.6338 30.8582 62.8805 30.4367 63.2086 30.0852C64.7637 28.4162 67.728 28.474 70.251 30.2153C70.3212 30.272 70.3677 30.3535 70.3812 30.4435C70.3947 30.5336 70.3742 30.6254 70.3238 30.7008C70.2734 30.7761 70.1969 30.8294 70.1095 30.8499C70.0221 30.8704 69.9303 30.8566 69.8525 30.8114C67.6177 29.2724 65.0413 29.1748 63.7246 30.5801C63.4703 30.8552 63.2799 31.1845 63.1672 31.5439C63.0545 31.9033 63.0224 32.2838 63.0734 32.6574C63.1264 33.0785 63.2687 33.4828 63.4905 33.8427C63.7123 34.2025 64.0082 34.5093 64.358 34.7419C65.0732 35.1666 65.8401 35.4945 66.6391 35.7173L67.3223 35.9449C71.1407 37.2815 71.3008 39.7779 70.7635 41.6348C70.4895 42.5885 69.6354 43.4952 68.4789 44.0552C67.7605 44.4074 66.9742 44.5937 66.1765 44.6007Z" fill="white"/>
<path d="M168.098 44.579C167.596 44.5827 167.096 44.5109 166.614 44.3659C165.812 44.1075 165.081 43.6627 164.479 43.0669C163.877 42.471 163.42 41.7407 163.144 40.9339C162.575 39.5395 162.291 38.0417 162.311 36.5323C162.332 35.0228 162.655 33.5334 163.262 32.1552C164.475 29.2652 166.728 28.8786 168.98 28.8786C169.606 28.9156 170.214 29.0972 170.76 29.4097C171.075 29.5729 171.405 29.7036 171.745 29.7998C171.791 29.8114 171.833 29.832 171.871 29.8604C171.908 29.8887 171.94 29.9243 171.964 29.965C171.988 30.0058 172.004 30.0509 172.011 30.0979C172.017 30.1449 172.015 30.1927 172.003 30.2388C171.992 30.2848 171.972 30.328 171.944 30.3661C171.916 30.4042 171.881 30.4363 171.841 30.4606C171.801 30.4849 171.756 30.501 171.71 30.5079C171.664 30.5147 171.616 30.5123 171.571 30.5007C171.192 30.3931 170.825 30.2466 170.475 30.0635C170.021 29.7974 169.514 29.6393 168.991 29.6011C166.603 29.6011 164.924 30.078 163.927 32.4406C163.358 33.7333 163.055 35.1301 163.036 36.5457C163.017 37.9613 163.283 39.3659 163.817 40.6738C164.054 41.3772 164.449 42.0147 164.972 42.5353C165.495 43.0559 166.13 43.4453 166.827 43.6723C168.304 44.1166 169.988 43.7554 171.454 42.6824C171.531 42.6264 171.626 42.6036 171.72 42.6192C171.813 42.6348 171.897 42.6874 171.952 42.7655C172.007 42.8436 172.029 42.9407 172.014 43.0356C171.999 43.1304 171.947 43.2152 171.87 43.2713C170.78 44.0993 169.46 44.557 168.098 44.579Z" fill="white"/>
<path d="M137.227 44.5285C136.671 44.5296 136.118 44.4381 135.59 44.2575C133.928 43.6795 132.654 42.2381 132 40.1969C131.307 38.0273 131.253 35.6997 131.843 33.4991C132.363 31.4905 133.622 29.9371 135.295 29.2326C136.967 28.5282 138.871 28.7522 140.704 29.8396C140.746 29.8621 140.784 29.8932 140.814 29.9309C140.845 29.9686 140.867 30.0122 140.881 30.059C140.894 30.1058 140.898 30.1549 140.892 30.2032C140.886 30.2516 140.871 30.2983 140.847 30.3405C140.823 30.3826 140.791 30.4194 140.752 30.4487C140.714 30.4779 140.67 30.499 140.624 30.5105C140.577 30.5221 140.529 30.524 140.481 30.5161C140.434 30.5082 140.389 30.4907 140.348 30.4645C138.69 29.4783 137.039 29.2832 135.572 29.901C134.106 30.5187 133 31.8951 132.537 33.6834C131.981 35.7506 132.03 37.9374 132.679 39.9766C133.263 41.7829 134.38 43.069 135.825 43.5892C137.27 44.1094 138.939 43.777 140.505 42.6969C140.543 42.6694 140.587 42.6499 140.633 42.6396C140.679 42.6293 140.726 42.6284 140.773 42.6369C140.819 42.6454 140.863 42.6632 140.903 42.6891C140.942 42.7151 140.976 42.7488 141.003 42.7883C141.03 42.8277 141.048 42.8721 141.058 42.919C141.067 42.9658 141.068 43.014 141.059 43.061C141.05 43.1079 141.032 43.1526 141.006 43.1924C140.98 43.2322 140.946 43.2664 140.907 43.2929C139.83 44.0709 138.548 44.5014 137.227 44.5285Z" fill="white"/>
<path d="M151.01 44.0588C150.915 44.0588 150.825 44.0208 150.758 43.953C150.691 43.8853 150.654 43.7934 150.654 43.6976V29.3735C150.654 29.3236 150.664 29.2741 150.683 29.2283C150.703 29.1824 150.732 29.1412 150.768 29.1073C150.804 29.0733 150.847 29.0474 150.893 29.031C150.94 29.0146 150.989 29.0083 151.038 29.0123C151.75 29.0701 152.419 29.0592 153.077 29.052C154.079 28.9997 155.084 29.0676 156.07 29.2543C157.742 29.6372 158.999 30.9233 159.191 32.4515C159.411 34.1964 158.657 35.6739 157.056 36.6168C155.824 37.3393 154.565 37.2635 153.333 37.1876C152.691 37.1244 152.044 37.1244 151.401 37.1876H151.355V43.6903C151.357 43.7855 151.322 43.8777 151.257 43.9467C151.192 44.0157 151.103 44.056 151.01 44.0588ZM152.234 36.4181C152.625 36.4181 153.01 36.4434 153.39 36.4687C154.561 36.5446 155.664 36.6132 156.71 35.9955C158.056 35.1971 158.668 34.0049 158.49 32.5454C158.337 31.3171 157.301 30.2803 155.92 29.9624C154.988 29.7894 154.038 29.7275 153.091 29.7781C152.536 29.7781 151.963 29.7781 151.373 29.7601V36.4723C151.658 36.4348 151.946 36.4167 152.234 36.4181Z" fill="white"/>
<path d="M178.428 44.2647C177.448 44.2782 176.468 44.2033 175.5 44.0407C175.417 44.0254 175.342 43.9806 175.289 43.9144C175.235 43.8483 175.207 43.765 175.208 43.6795C175.208 42.7763 175.208 41.8732 175.208 41.0134C175.208 38.947 175.208 36.9998 175.226 35.02C175.226 34.4348 175.226 33.8315 175.204 33.2535C175.114 31.8908 175.18 30.5221 175.4 29.1748C175.409 29.1274 175.427 29.0822 175.454 29.0419C175.48 29.0017 175.514 28.967 175.553 28.94C175.593 28.913 175.637 28.8942 175.684 28.8846C175.731 28.8749 175.779 28.8748 175.825 28.884C175.872 28.8933 175.917 28.9118 175.956 28.9385C175.996 28.9652 176.03 28.9996 176.057 29.0396C176.083 29.0797 176.102 29.1247 176.111 29.1721C176.121 29.2195 176.121 29.2683 176.112 29.3157C175.906 30.6099 175.845 31.9237 175.93 33.2318C175.93 33.8207 175.962 34.4312 175.952 35.0381C175.92 37.0106 175.927 38.9578 175.934 41.017C175.934 41.7973 175.934 42.5861 175.934 43.3833C177.232 43.5432 178.542 43.5904 179.848 43.5241C180.667 43.5025 181.51 43.4844 182.339 43.5241C182.434 43.5285 182.523 43.5707 182.586 43.6415C182.65 43.7122 182.683 43.8059 182.679 43.9017C182.675 43.9975 182.633 44.0877 182.564 44.1524C182.494 44.2171 182.402 44.251 182.307 44.2467C181.5 44.2105 180.667 44.2286 179.863 44.2467C179.389 44.2503 178.912 44.2647 178.428 44.2647Z" fill="white"/>
<path d="M90.1578 44.0588C90.0634 44.0588 89.9729 44.0207 89.9061 43.953C89.8394 43.8852 89.8019 43.7934 89.8019 43.6975C89.8019 42.8233 89.8019 41.9466 89.8019 41.0676C89.8019 39.03 89.8019 36.9203 89.8019 34.843C89.8019 34.2867 89.8019 33.7159 89.7806 33.1632C89.6931 31.8353 89.7587 30.5016 89.9763 29.1893C89.9956 29.0935 90.0517 29.0094 90.1321 28.9555C90.2125 28.9017 90.3107 28.8824 90.4051 28.9021C90.4995 28.9217 90.5823 28.9786 90.6354 29.0603C90.6884 29.1419 90.7074 29.2416 90.688 29.3374C90.4807 30.5999 90.4186 31.8825 90.503 33.1595C90.5207 33.7159 90.535 34.2975 90.5279 34.8683C90.4958 36.9383 90.503 39.0445 90.5279 41.082C90.5279 41.9587 90.5279 42.8353 90.5279 43.712C90.526 43.7595 90.515 43.8061 90.4954 43.8492C90.4758 43.8923 90.448 43.9311 90.4137 43.9633C90.3793 43.9955 90.339 44.0205 90.2951 44.0369C90.2512 44.0533 90.2045 44.0607 90.1578 44.0588Z" fill="white"/>
<path d="M144.96 44.0588C144.866 44.0588 144.775 44.0207 144.708 43.953C144.642 43.8852 144.604 43.7934 144.604 43.6975C144.604 42.8209 144.604 41.943 144.604 41.0639C144.604 39.03 144.604 36.9239 144.586 34.8539C144.586 34.2831 144.586 33.705 144.611 33.1451C144.695 31.8682 144.634 30.5857 144.43 29.3229C144.41 29.2271 144.429 29.1274 144.482 29.0458C144.535 28.9642 144.618 28.9073 144.713 28.8876C144.807 28.868 144.905 28.8872 144.986 28.9411C145.066 28.9949 145.122 29.079 145.141 29.1748C145.358 30.4933 145.424 31.8329 145.337 33.1668C145.337 33.7159 145.305 34.2867 145.312 34.843C145.344 36.9203 145.337 39.0264 145.33 41.0676C145.33 41.9442 145.33 42.8209 145.33 43.6975C145.33 43.7462 145.32 43.7944 145.302 43.8392C145.283 43.884 145.255 43.9245 145.221 43.9582C145.186 43.992 145.145 44.0183 145.101 44.0356C145.056 44.0529 145.008 44.0608 144.96 44.0588Z" fill="white"/>
<path d="M120.05 44.0588H120.007C119.96 44.0535 119.915 44.0387 119.874 44.0154C119.833 43.9921 119.796 43.9607 119.767 43.923C119.738 43.8854 119.717 43.8422 119.704 43.7961C119.691 43.7499 119.688 43.7017 119.694 43.6542C119.876 41.8204 119.935 39.976 119.868 38.1341C119.868 37.0503 119.84 35.9377 119.868 34.8358C119.89 34.2144 119.868 33.5786 119.868 32.9609C119.788 31.6956 119.852 30.425 120.061 29.1748C120.08 29.0816 120.135 29 120.214 28.9479C120.293 28.8958 120.388 28.8774 120.48 28.8967C120.526 28.9061 120.57 28.9247 120.609 28.9512C120.647 28.9778 120.68 29.0118 120.706 29.0514C120.732 29.091 120.75 29.1354 120.759 29.182C120.768 29.2286 120.767 29.2765 120.758 29.323C120.561 30.5161 120.501 31.7284 120.58 32.9356C120.58 33.5642 120.612 34.2108 120.58 34.8539C120.545 35.9377 120.559 37.0467 120.58 38.1052C120.646 39.9809 120.587 41.859 120.402 43.7265C120.395 43.8166 120.355 43.9007 120.29 43.9622C120.224 44.0237 120.139 44.0582 120.05 44.0588Z" fill="white"/>
<path d="M192.645 44.2394H185.98C185.885 44.2394 185.795 44.2014 185.728 44.1336C185.661 44.0659 185.624 43.974 185.624 43.8782V29.5975C185.622 29.5145 185.648 29.4332 185.698 29.3674C185.748 29.3017 185.818 29.2553 185.898 29.2362C187.01 29.0268 188.144 28.9661 189.272 29.0556C190.375 29.1401 191.485 29.0831 192.574 28.8858C192.665 28.868 192.759 28.8868 192.836 28.9382C192.913 28.9895 192.968 29.0695 192.988 29.161C193.009 29.2526 192.993 29.3486 192.945 29.4287C192.897 29.5088 192.82 29.5668 192.73 29.5903C191.583 29.8048 190.413 29.8679 189.25 29.7781C188.278 29.7068 187.301 29.7419 186.336 29.8829V43.5169H192.652C192.747 43.5169 192.837 43.555 192.904 43.6227C192.971 43.6905 193.008 43.7824 193.008 43.8782C193.008 43.974 192.971 44.0659 192.904 44.1336C192.837 44.2014 192.747 44.2394 192.652 44.2394H192.645Z" fill="white"/>
<path d="M8.66612 44.4201C8.58791 44.4209 8.51162 44.3955 8.44905 44.3478C8.37868 44.2897 8.33286 44.2064 8.32095 44.1151C8.30904 44.0237 8.33195 43.9313 8.385 43.8565C10.9436 40.504 13.7834 37.3141 16.5306 34.2289C17.7797 32.8272 19.0714 31.3785 20.3205 29.9335C20.3466 29.8884 20.3821 29.8496 20.4245 29.8198C20.4668 29.79 20.515 29.7699 20.5658 29.7608C20.6166 29.7518 20.6687 29.7541 20.7185 29.7675C20.7683 29.7809 20.8146 29.8051 20.8543 29.8385C20.894 29.8719 20.9261 29.9137 20.9483 29.9609C20.9705 30.0081 20.9824 30.0596 20.983 30.1119C20.9837 30.1643 20.9732 30.2161 20.9522 30.2639C20.9312 30.3117 20.9002 30.3542 20.8614 30.3887C19.6088 31.8337 18.317 33.2788 17.0644 34.6985C14.3207 37.7692 11.4881 40.9664 8.94725 44.2828C8.91374 44.3258 8.87101 44.3606 8.8223 44.3844C8.77358 44.4082 8.72018 44.4204 8.66612 44.4201Z" fill="white"/>
<path d="M111.687 44.4201C111.604 44.4218 111.523 44.3938 111.458 44.341C111.393 44.2882 111.348 44.2139 111.331 44.1311C111.095 42.6737 111.029 41.1932 111.132 39.7201C111.132 39.2396 111.164 38.7591 111.168 38.275C111.168 37.4947 111.168 36.6999 111.136 35.934C111.038 34.0462 111.103 32.1533 111.328 30.2767C111.341 30.1809 111.392 30.0945 111.468 30.0366C111.545 29.9786 111.641 29.9539 111.735 29.9678C111.83 29.9817 111.915 30.0331 111.972 30.1107C112.029 30.1882 112.053 30.2856 112.04 30.3814C111.82 32.215 111.758 34.0643 111.854 35.9087C111.872 36.6818 111.89 37.4838 111.886 38.2714C111.886 38.7591 111.865 39.2432 111.851 39.7164C111.751 41.1351 111.813 42.5608 112.036 43.9649C112.045 44.0116 112.045 44.0598 112.036 44.1066C112.027 44.1534 112.009 44.1978 111.983 44.2375C111.957 44.2771 111.923 44.3111 111.884 44.3375C111.845 44.3639 111.801 44.3821 111.755 44.3912L111.687 44.4201Z" fill="white"/>
<path d="M41.761 44.0588C41.6666 44.0588 41.5761 44.0207 41.5094 43.953C41.4426 43.8852 41.4052 43.7934 41.4052 43.6975V29.4277C41.4052 29.3319 41.4426 29.24 41.5094 29.1723C41.5761 29.1045 41.6666 29.0665 41.761 29.0665H48.1665C48.2608 29.0665 48.3514 29.1045 48.4181 29.1723C48.4848 29.24 48.5223 29.3319 48.5223 29.4277C48.5223 29.5235 48.4848 29.6154 48.4181 29.6832C48.3514 29.7509 48.2608 29.789 48.1665 29.789H42.1169V43.6975C42.1169 43.745 42.1077 43.792 42.0898 43.8358C42.0719 43.8796 42.0457 43.9194 42.0126 43.953C41.9796 43.9865 41.9404 44.0132 41.8972 44.0313C41.854 44.0495 41.8077 44.0588 41.761 44.0588Z" fill="white"/>
<path d="M119.872 43.6976C119.844 43.701 119.815 43.701 119.787 43.6976C119.575 43.6314 119.381 43.5184 119.218 43.3665C119.054 43.2147 118.927 43.0279 118.844 42.8197C118.082 41.4433 117.342 40.0416 116.627 38.6869C115.061 35.7245 113.445 32.6574 111.57 29.8179C111.516 29.7384 111.496 29.6404 111.513 29.5455C111.53 29.4507 111.584 29.3667 111.662 29.3121C111.741 29.2575 111.837 29.2367 111.931 29.2543C112.024 29.2719 112.107 29.3265 112.161 29.406C114.057 32.2745 115.68 35.356 117.253 38.3364C117.965 39.6875 118.705 41.0856 119.456 42.4404C119.641 42.7727 119.737 42.9317 119.954 42.9823C120.048 42.9933 120.134 43.0419 120.193 43.1174C120.253 43.193 120.28 43.2892 120.269 43.3851C120.258 43.4809 120.21 43.5684 120.136 43.6283C120.061 43.6883 119.966 43.7158 119.872 43.7048V43.6976Z" fill="white"/>
<path d="M19.0821 45.4713C18.7146 45.4788 18.35 45.4035 18.0146 45.251C17.3028 44.9258 16.794 44.2503 16.5164 43.2496C15.9862 41.3602 16.1605 39.8429 17.1036 38.6146C18.2067 37.1479 19.6657 37.5308 20.9539 37.8668L21.1959 37.9282C21.2416 37.9396 21.2846 37.9601 21.3225 37.9885C21.3603 38.0168 21.3923 38.0526 21.4164 38.0935C21.4406 38.1345 21.4565 38.18 21.4632 38.2273C21.47 38.2745 21.4674 38.3227 21.4557 38.3689C21.4441 38.415 21.4236 38.4583 21.3955 38.4963C21.3674 38.5343 21.3322 38.5663 21.2918 38.5905C21.2515 38.6147 21.2069 38.6305 21.1605 38.6371C21.1141 38.6437 21.0669 38.641 21.0216 38.6291L20.776 38.5676C19.5483 38.2461 18.4878 37.9679 17.6694 39.0517C16.8509 40.1355 16.737 41.3963 17.1996 43.0545C17.4203 43.8384 17.7939 44.3587 18.3099 44.5935C18.922 44.8753 19.7761 44.7633 20.7796 44.2756C20.8664 44.2329 20.9664 44.2271 21.0575 44.2592C21.1486 44.2914 21.2233 44.359 21.2653 44.4472C21.3073 44.5353 21.3131 44.6368 21.2814 44.7293C21.2497 44.8218 21.1831 44.8977 21.0963 44.9403C20.4717 45.2659 19.7839 45.4473 19.0821 45.4713Z" fill="white"/>
<path d="M49.0561 44.4201C49.0173 44.4214 48.9787 44.4153 48.9422 44.402C48.8977 44.3869 48.8566 44.3631 48.8213 44.3318C48.7859 44.3006 48.757 44.2625 48.7362 44.2199C48.7153 44.1773 48.703 44.1309 48.6999 44.0834C48.6968 44.0359 48.7029 43.9883 48.718 43.9432C49.0406 42.9798 49.3633 42.008 49.6859 41.0278C50.7535 37.7765 51.878 34.4131 53.031 31.1293C53.0559 31.0498 53.0773 30.9595 53.1022 30.8583C53.216 30.3742 53.458 29.3663 54.643 29.6192C54.6924 29.6245 54.7401 29.6402 54.7831 29.6653C54.8262 29.6905 54.8635 29.7245 54.8928 29.7651C54.9221 29.8058 54.9427 29.8523 54.9533 29.9015C54.9639 29.9507 54.9642 30.0017 54.9542 30.051C54.9442 30.1004 54.9242 30.1471 54.8954 30.1881C54.8666 30.2292 54.8296 30.2636 54.7869 30.2893C54.7442 30.315 54.6967 30.3313 54.6474 30.3372C54.5981 30.3431 54.5481 30.3385 54.5007 30.3236C54.0488 30.2297 53.942 30.3887 53.789 31.0245C53.7662 31.1469 53.7353 31.2676 53.6965 31.3858C52.547 34.666 51.4332 38.0221 50.3585 41.2699C50.0347 42.2453 49.7144 43.2171 49.387 44.1889C49.3612 44.2568 49.3158 44.3152 49.2567 44.3564C49.1977 44.3977 49.1277 44.4199 49.0561 44.4201Z" fill="white"/>
<path d="M59.8742 44.4237C59.1233 44.4237 58.9881 43.7915 58.924 43.4844C58.9121 43.4132 58.8943 43.3431 58.8706 43.2749C57.6845 39.8911 56.5054 36.5024 55.3334 33.109L54.4117 30.4537C54.3801 30.3632 54.3852 30.2636 54.4259 30.1769C54.4666 30.0901 54.5396 30.0234 54.6288 29.9913C54.718 29.9592 54.8161 29.9644 54.9015 30.0057C54.9869 30.047 55.0527 30.1211 55.0843 30.2117L56.006 32.8705C57.1922 36.2592 58.3713 39.6466 59.5432 43.0328C59.5744 43.1313 59.6005 43.2314 59.6215 43.3327C59.6998 43.6939 59.7318 43.6939 59.8955 43.6939C59.9899 43.6939 60.0804 43.732 60.1472 43.7998C60.2139 43.8675 60.2514 43.9594 60.2514 44.0552C60.2514 44.151 60.2139 44.2429 60.1472 44.3107C60.0804 44.3784 59.9899 44.4165 59.8955 44.4165L59.8742 44.4237Z" fill="white"/>
<path d="M83.7523 36.653H75.9234C75.829 36.653 75.7385 36.6149 75.6718 36.5471C75.6051 36.4794 75.5676 36.3875 75.5676 36.2917C75.5676 36.1959 75.6051 36.104 75.6718 36.0362C75.7385 35.9685 75.829 35.9304 75.9234 35.9304H83.7523C83.8467 35.9304 83.9372 35.9685 84.0039 36.0362C84.0707 36.104 84.1082 36.1959 84.1082 36.2917C84.1082 36.3875 84.0707 36.4794 84.0039 36.5471C83.9372 36.6149 83.8467 36.653 83.7523 36.653Z" fill="white"/>
<path d="M75.3896 44.4201C75.2952 44.4201 75.2047 44.382 75.138 44.3143C75.0712 44.2465 75.0338 44.1546 75.0338 44.0588V29.2471C75.0338 29.1513 75.0712 29.0594 75.138 28.9916C75.2047 28.9239 75.2952 28.8858 75.3896 28.8858C75.484 28.8858 75.5745 28.9239 75.6412 28.9916C75.708 29.0594 75.7455 29.1513 75.7455 29.2471V44.0588C75.7455 44.1546 75.708 44.2465 75.6412 44.3143C75.5745 44.382 75.484 44.4201 75.3896 44.4201Z" fill="white"/>
<path d="M84.1082 44.0588C84.0138 44.0588 83.9233 44.0208 83.8565 43.953C83.7898 43.8853 83.7523 43.7934 83.7523 43.6976C83.7523 43.1015 83.7523 42.5054 83.7523 41.8912C83.7523 40.5835 83.7737 39.236 83.7345 37.9174C83.7025 36.8661 83.7345 35.8004 83.7345 34.7708C83.8227 32.9409 83.7632 31.1068 83.5566 29.2868C83.5429 29.191 83.5673 29.0936 83.6243 29.016C83.6814 28.9385 83.7665 28.8871 83.8608 28.8732C83.9552 28.8593 84.0512 28.884 84.1276 28.942C84.204 28.9999 84.2546 29.0862 84.2683 29.1821C84.4802 31.0415 84.5421 32.9155 84.4533 34.7852C84.4284 35.8076 84.4071 36.8625 84.4533 37.8957C84.4925 39.2287 84.4818 40.5871 84.4711 41.8985C84.4711 42.4946 84.4711 43.0906 84.4711 43.6831C84.4731 43.7324 84.4651 43.7815 84.4476 43.8275C84.4302 43.8735 84.4036 43.9154 84.3696 43.9506C84.3356 43.9858 84.2949 44.0135 84.2499 44.0322C84.205 44.0508 84.1567 44.0598 84.1082 44.0588Z" fill="white"/>
<path d="M159.55 44.2395C159.498 44.24 159.447 44.2289 159.399 44.2071C159.352 44.1852 159.31 44.1531 159.276 44.113C157.609 42.0788 156.269 39.7904 155.305 37.3321C155.276 37.2449 155.281 37.1498 155.319 37.0663C155.357 36.9827 155.424 36.9169 155.508 36.8824C155.592 36.8478 155.686 36.8471 155.771 36.8803C155.855 36.9135 155.924 36.9782 155.963 37.0612C156.899 39.4489 158.201 41.6716 159.821 43.647C159.851 43.6833 159.874 43.7252 159.888 43.7705C159.902 43.8157 159.907 43.8633 159.903 43.9107C159.899 43.958 159.886 44.004 159.865 44.0462C159.843 44.0883 159.814 44.1258 159.778 44.1564C159.714 44.2102 159.633 44.2396 159.55 44.2395Z" fill="white"/>
<path d="M54.1555 39.9404C53.0841 39.9441 52.0139 39.8705 50.9528 39.7201C50.8601 39.7066 50.7763 39.6566 50.7197 39.5808C50.663 39.5051 50.6381 39.4097 50.6503 39.3155C50.6564 39.2682 50.6717 39.2226 50.6953 39.1813C50.7188 39.1401 50.7502 39.104 50.7876 39.0751C50.825 39.0462 50.8676 39.0251 50.9131 39.013C50.9585 39.001 51.0059 38.9982 51.0524 39.0048C53.2071 39.2872 55.3886 39.2872 57.5433 39.0048C57.5898 38.9992 57.6369 39.0031 57.682 39.0161C57.727 39.0291 57.7691 39.0509 57.8058 39.0805C57.8425 39.11 57.8731 39.1466 57.8958 39.1882C57.9185 39.2297 57.933 39.2754 57.9383 39.3227C57.9437 39.3699 57.94 39.4177 57.9272 39.4635C57.9144 39.5092 57.8928 39.5519 57.8637 39.5892C57.8346 39.6264 57.7986 39.6575 57.7576 39.6806C57.7167 39.7036 57.6717 39.7183 57.6251 39.7237C56.4737 39.864 55.3152 39.9364 54.1555 39.9404Z" fill="white"/>
<path d="M8.84408 36.8336C8.7497 36.8336 8.65919 36.7955 8.59245 36.7278C8.52571 36.66 8.48822 36.5681 8.48822 36.4723V29.4277C8.48822 29.3319 8.52571 29.24 8.59245 29.1723C8.65919 29.1045 8.7497 29.0665 8.84408 29.0665H12.2247C12.3191 29.0665 12.4096 29.1045 12.4764 29.1723C12.5431 29.24 12.5806 29.3319 12.5806 29.4277C12.5806 29.5235 12.5431 29.6154 12.4764 29.6832C12.4096 29.7509 12.3191 29.789 12.2247 29.789H9.19994V36.4723C9.19994 36.5681 9.16245 36.66 9.09571 36.7278C9.02897 36.7955 8.93846 36.8336 8.84408 36.8336Z" fill="white"/>
<path d="M45.2626 37.0395C44.8712 37.0395 44.4833 37.0395 44.0989 37.0178C43.4513 36.9962 42.7823 36.9781 42.1382 37.0178C42.0914 37.0207 42.0446 37.0142 42.0004 36.9986C41.9561 36.9831 41.9153 36.9589 41.8803 36.9273C41.8453 36.8958 41.8167 36.8576 41.7962 36.8148C41.7757 36.7721 41.7638 36.7257 41.761 36.6782C41.7582 36.6308 41.7646 36.5833 41.7799 36.5383C41.7952 36.4934 41.819 36.452 41.8501 36.4164C41.8811 36.3809 41.9188 36.3519 41.9609 36.3311C42.003 36.3103 42.0487 36.2982 42.0955 36.2953C42.7752 36.252 43.4584 36.2736 44.1167 36.2953C45.2062 36.3747 46.3011 36.3164 47.3764 36.1219C47.423 36.1086 47.4718 36.1052 47.5198 36.1117C47.5678 36.1183 47.6139 36.1347 47.6555 36.16C47.697 36.1852 47.733 36.2189 47.7613 36.2588C47.7895 36.2986 47.8095 36.344 47.8199 36.392C47.8304 36.44 47.831 36.4896 47.8219 36.5379C47.8128 36.5862 47.794 36.632 47.7668 36.6727C47.7396 36.7134 47.7046 36.748 47.6637 36.7744C47.6229 36.8008 47.5772 36.8185 47.5294 36.8264C46.7837 36.9812 46.0236 37.0527 45.2626 37.0395Z" fill="white"/>
<path d="M191.577 36.653H186.24C186.145 36.653 186.055 36.6149 185.988 36.5471C185.921 36.4794 185.884 36.3875 185.884 36.2917C185.884 36.1959 185.921 36.104 185.988 36.0362C186.055 35.9685 186.145 35.9304 186.24 35.9304H191.577C191.672 35.9304 191.762 35.9685 191.829 36.0362C191.896 36.104 191.933 36.1959 191.933 36.2917C191.933 36.3875 191.896 36.4794 191.829 36.5471C191.762 36.6149 191.672 36.653 191.577 36.653Z" fill="white"/>
<path d="M10.5415 33.4305C10.0528 33.4286 9.56711 33.3531 9.10026 33.2065C9.01279 33.1761 8.94043 33.1122 8.89851 33.0285C8.8566 32.9448 8.84842 32.8479 8.87572 32.7582C8.90301 32.6685 8.96363 32.5931 9.04474 32.548C9.12584 32.5029 9.22106 32.4916 9.31022 32.5165C10.111 32.7694 10.9685 32.7694 11.7692 32.5165C11.8155 32.4971 11.8653 32.4878 11.9153 32.4893C11.9654 32.4907 12.0145 32.5029 12.0596 32.525C12.1047 32.5471 12.1447 32.5786 12.177 32.6174C12.2093 32.6563 12.2332 32.7016 12.247 32.7504C12.2609 32.7993 12.2644 32.8505 12.2574 32.9009C12.2504 32.9512 12.2331 32.9995 12.2064 33.0425C12.1798 33.0856 12.1445 33.1224 12.1029 33.1507C12.0613 33.1789 12.0143 33.198 11.9649 33.2065C11.5039 33.352 11.0243 33.4275 10.5415 33.4305Z" fill="white"/>
<path d="M100.648 44.5971C99.1218 44.5971 97.8016 43.8746 96.6628 42.462C94.1718 39.3046 94.7448 35.7173 95.5241 32.9464C95.7751 31.913 96.3203 30.9774 97.0918 30.2566C97.8633 29.5357 98.8267 29.0615 99.862 28.8931C99.9136 28.8821 99.9669 28.8821 100.019 28.8931C100.04 28.8893 100.061 28.8893 100.083 28.8931C103.762 28.6221 105.94 30.4248 106.556 34.2433C106.859 36.1544 106.799 38.1067 106.378 39.9946C105.89 42.4115 104.488 43.8095 101.997 44.4273C101.556 44.5379 101.103 44.5949 100.648 44.5971ZM100.033 29.5975H100.008C99.0984 29.7334 98.2502 30.1436 97.5731 30.7749C96.8961 31.4062 96.4215 32.2294 96.2109 33.1379C95.4743 35.7426 94.9263 39.1059 97.218 42.0032C98.467 43.5856 100.015 44.1708 101.819 43.7156C104.086 43.1557 105.246 41.996 105.695 39.8357C106.096 38.0344 106.156 36.1719 105.869 34.3481C105.314 30.9125 103.442 29.3663 100.147 29.6011C100.109 29.6073 100.07 29.606 100.033 29.5975Z" fill="white"/>
<path d="M14.641 49.998C10.6589 49.998 7.23201 48.2097 4.43141 44.6838C1.19309 40.6052 1.18953 33.4413 4.42073 29.3446C6.83345 26.2884 9.86181 24.594 13.9542 24.0124C14.003 24.0057 14.0527 24.0094 14.1001 24.0232H14.1641C15.6503 23.9279 17.1405 24.1266 18.5519 24.6085C25.4876 26.9639 29.0462 33.2065 27.3985 40.1427C26.153 45.3702 22.3916 48.8817 17.0786 49.774C16.2736 49.9168 15.4582 49.9917 14.641 49.998ZM14.1001 24.7096H14.0609C10.1465 25.2624 7.27472 26.8772 4.98655 29.7673C1.94396 33.622 1.94751 40.3667 4.98655 44.2178C8.16792 48.235 12.1962 49.8607 16.947 49.0623C21.9646 48.2205 25.5196 44.9078 26.6939 39.9729C28.2668 33.4197 24.9004 27.5239 18.3277 25.2949C17.003 24.8377 15.6035 24.6462 14.2068 24.7313C14.1702 24.7309 14.134 24.7235 14.1001 24.7096Z" fill="white"/>
</svg>
