<svg width="196" height="73" viewBox="0 0 196 73" fill="none" xmlns="http://www.w3.org/2000/svg">
<rect width="196" height="73" fill=""/>
<path d="M36.984 42.2612C36.984 39.4711 38.8889 38.1314 41.5526 37.9961V40.3039H41.107C39.9479 40.3039 39.3022 41.2703 39.3022 42.4405V44.2968H41.4864V46.3341H39.3022V57.7311H37.0163V46.3226H35V44.2854H37.0163V42.2498H36.984V42.2612Z" fill="white"/>
<path d="M59.4508 55.1088C57.675 57.1003 55.7733 58 53.4438 58C48.7413 58 46.2116 54.5579 46.2116 50.9805C46.2116 47.1554 48.9076 43.9937 53.0645 43.9937C57.1552 43.9937 60.019 47.1669 60.019 51.9144H48.6735C49.0528 54.2205 50.8577 55.8747 53.4438 55.8747C55.0824 55.8747 56.5111 55.1202 57.7009 53.7023L59.4508 55.1088ZM57.4393 49.9782C57.2053 47.7731 55.423 46.1531 53.037 46.1531C50.241 46.1531 48.8817 48.1447 48.6363 49.9782H57.4393Z" fill="white"/>
<path d="M74.7967 49.9114C74.7967 47.9198 73.9895 46.1531 71.7294 46.1531C69.5791 46.1531 68.286 47.6379 68.286 50.1819V57.7197H66.0034V44.2968H68.2876V45.8842H68.3215C69.0012 44.6798 70.5057 43.9937 71.9651 43.9937C74.5626 43.9937 77.0809 45.4002 77.0809 49.0558V57.7311H74.7967V49.9114Z" fill="white"/>
<path d="M102.144 44.2968H105.041L99.8964 50.8681L105.245 57.7132H102.177L98.3886 52.7179L94.4432 57.7132H91.5374L96.8873 50.8681L91.7391 44.2968H94.8064L98.4177 49.1471L102.144 44.2968Z" fill="white"/>
<path d="M138.229 49.9114C138.229 47.9198 137.422 46.1531 135.131 46.1531C132.981 46.1531 131.688 47.6379 131.688 50.1819V57.7197H129.403V44.2968H131.688V45.8842H131.721C132.401 44.6798 133.906 43.9937 135.365 43.9937C137.929 43.9937 140.481 45.4002 140.481 49.0558V57.7311H138.197V49.9081L138.229 49.9114Z" fill="white"/>
<path d="M147.668 41.0569H149.954V44.2968H152.07V46.3341H149.954V54.5579C149.954 55.2783 150.188 55.526 151.084 55.526H152.143V57.6626C151.797 57.6969 151.295 57.6969 150.75 57.6969C148.398 57.6969 147.682 56.882 147.682 54.8056V46.2998H145.84V44.2626H147.681L147.67 41.0569H147.668Z" fill="white"/>
<path d="M159.85 38.1314V53.523C159.85 55.0419 160.596 55.5586 161.32 55.5586H162V57.7311H161.041C158.925 57.7311 157.531 56.5267 157.531 53.7023V38.1314H159.85Z" fill="white"/>
<path d="M84.9589 41.6762C85.2763 41.6762 85.5865 41.5811 85.8504 41.4031C86.1143 41.2251 86.32 40.9721 86.4414 40.6761C86.5629 40.3801 86.5946 40.0544 86.5327 39.7401C86.4708 39.4259 86.318 39.1372 86.0936 38.9106C85.8692 38.6841 85.5832 38.5298 85.272 38.4673C84.9607 38.4048 84.6381 38.4369 84.3448 38.5595C84.0516 38.6821 83.801 38.8897 83.6247 39.1561C83.4484 39.4225 83.3543 39.7358 83.3543 40.0562C83.3534 40.2691 83.3943 40.4802 83.4747 40.6771C83.555 40.8741 83.6732 41.053 83.8223 41.2036C83.9715 41.3542 84.1488 41.4735 84.3438 41.5546C84.5389 41.6357 84.7479 41.677 84.9589 41.6762Z" fill="white"/>
<path d="M83.8015 44.2968V57.7197H86.0857V48.9319V46.6258C86.092 46.3201 86.0374 46.0163 85.9251 45.7324C85.8129 45.4484 85.6452 45.1902 85.4321 44.9729C85.219 44.7557 84.9649 44.5839 84.6848 44.4678C84.4046 44.3516 84.1043 44.2935 83.8015 44.2968Z" fill="white"/>
<path d="M121.512 41.6762C121.83 41.6762 122.14 41.5811 122.404 41.4031C122.668 41.2251 122.873 40.9721 122.995 40.6761C123.116 40.3801 123.148 40.0544 123.086 39.7401C123.024 39.4259 122.871 39.1372 122.647 38.9106C122.423 38.6841 122.137 38.5298 121.825 38.4673C121.514 38.4048 121.192 38.4369 120.898 38.5595C120.605 38.6821 120.354 38.8897 120.178 39.1561C120.002 39.4225 119.908 39.7358 119.908 40.0562C119.907 40.2691 119.948 40.4802 120.028 40.6771C120.108 40.8741 120.227 41.053 120.376 41.2036C120.525 41.3542 120.702 41.4735 120.897 41.5546C121.092 41.6357 121.301 41.677 121.512 41.6762Z" fill="white"/>
<path d="M122.671 46.6372C122.674 46.3319 122.618 46.029 122.504 45.7459C122.391 45.4629 122.223 45.2052 122.011 44.9877C121.799 44.7702 121.546 44.5973 121.267 44.4787C120.989 44.3601 120.69 44.2983 120.387 44.2968V57.7197H122.671V46.6372Z" fill="white"/>
<path d="M98.3321 26.1151C101.399 23.0185 101.432 18.0607 98.366 15L87.5225 25.9472L93.0113 31.4884L98.3321 26.1151Z" fill="white"/>
<path d="M102.557 24.4625L94.2979 32.7988L98.4225 36.9612L102.546 32.7988C103.091 32.2533 103.523 31.6045 103.819 30.8896C104.115 30.1746 104.268 29.4077 104.269 28.633C104.27 27.8582 104.119 27.0909 103.825 26.3752C103.531 25.6594 103.1 25.0094 102.557 24.4625Z" fill="white"/>
</svg>
