<svg width="196" height="73" viewBox="0 0 196 73" fill="none" xmlns="http://www.w3.org/2000/svg">
<rect width="196" height="73" fill=""/>
<path d="M59.1942 23.663C57.3995 23.663 56.0339 24.1596 55.1229 25.1527C54.2451 26.1872 53.8533 27.5605 53.8102 29.7536V31.194H51.894C51.1358 31.194 50.4951 31.8383 50.4951 32.6009C50.4951 33.397 51.1221 34.0452 51.894 34.0452H53.8102V49.4954C53.8102 50.2717 54.4548 50.9022 55.2463 50.9022C56.0045 50.9022 56.6452 50.2579 56.6452 49.4954V34.0433H58.7103C59.5155 34.0433 60.1464 33.4088 60.1464 32.5989C60.1464 31.8226 59.5018 31.192 58.7103 31.192H56.6452V29.7517C56.6452 27.994 57.0292 27.3103 57.2565 27.0601L57.2722 27.0423C57.568 26.6857 58.195 26.5143 59.1942 26.5143C59.9524 26.5143 60.5931 25.8699 60.5931 25.1074C60.5931 24.3113 59.9661 23.663 59.1942 23.663Z" fill="white"/>
<path d="M72.7172 31.4916C67.5506 31.4916 63.3461 35.8541 63.3461 41.2156C63.3461 46.5358 67.5487 50.8648 72.7172 50.8648C75.8872 50.8648 78.8045 49.2215 80.5287 46.455C80.9107 45.7949 80.7265 44.9791 80.0918 44.5141L80.0545 44.4905C79.741 44.3013 79.3551 44.2461 78.9965 44.3388C78.6458 44.4294 78.35 44.654 78.1697 44.9634C77.0334 46.8668 74.9448 48.051 72.7172 48.051C69.3727 48.051 66.5984 45.4442 66.1889 42.0235H80.6149C81.3986 42.0235 82.0138 41.4383 82.0138 40.6915L82.0118 40.5023C81.6121 35.3654 77.6172 31.4916 72.7172 31.4916ZM66.3888 39.2472C67.2117 36.3093 69.7352 34.3073 72.7152 34.3073C75.6462 34.3073 78.1776 36.3506 78.9417 39.2472H66.3888Z" fill="white"/>
<path d="M91.8276 31.4916H89.9859V22L87.1136 24.9754V31.4916H85.3464C83.9475 31.4916 83.9475 32.4768 83.9475 32.8985C83.9475 33.3202 83.9475 34.3054 85.3464 34.3054H87.1136V47.1723C87.1136 49.2767 88.7085 50.8649 90.8225 50.8649C91.5611 50.8649 92.2586 50.1811 92.2586 49.458C92.2586 48.7289 91.5474 48.0136 90.8225 48.0136C90.6285 48.0136 89.9859 47.7516 89.9859 47.1723V34.3054H91.8276C92.5604 34.3054 93.2265 33.6354 93.2265 32.8985C93.2265 32.1615 92.5584 31.4916 91.8276 31.4916Z" fill="white"/>
<path d="M108.775 34.2679C110.366 34.2679 111.921 34.8137 113.152 35.8048L113.169 35.8186C113.761 36.2521 114.578 36.1556 115.074 35.596L115.087 35.5802C115.34 35.2689 115.456 34.8708 115.403 34.4866C115.354 34.1339 115.168 33.8186 114.888 33.6157C113.16 32.2462 110.989 31.4916 108.775 31.4916C106.118 31.4916 103.634 32.4866 101.774 34.2935C99.9092 36.1063 98.8825 38.5378 98.8825 41.1388C98.8825 46.591 103.228 50.8628 108.775 50.8628C110.985 50.8628 113.132 50.1338 114.815 48.8136C115.146 48.5634 115.356 48.2126 115.401 47.8264C115.446 47.452 115.334 47.0777 115.087 46.7762L115.074 46.7604C114.58 46.2008 113.761 46.1043 113.158 46.5456C111.906 47.5171 110.35 48.051 108.773 48.051C104.796 48.051 101.678 45.0166 101.678 41.1408C101.682 37.3516 104.864 34.2679 108.775 34.2679Z" fill="white"/>
<path d="M129.56 31.4917C127.603 31.4917 125.742 32.1971 124.292 33.4601V22.0533L121.457 24.8178V49.458C121.457 49.5901 121.457 49.728 121.52 49.9191C121.571 50.0748 121.627 50.1891 121.727 50.3388L121.79 50.4157C122.074 50.7014 122.462 50.8649 122.856 50.8649H123.042C123.165 50.8649 123.267 50.8255 123.342 50.7802C123.675 50.6639 123.933 50.4492 124.098 50.1516C124.149 50.0787 124.174 50.0137 124.19 49.9743C124.192 49.9664 124.196 49.9585 124.2 49.9487L124.253 49.8423V49.8029C124.27 49.7477 124.29 49.6689 124.29 49.5723V39.2295C124.29 36.398 126.506 34.3429 129.558 34.3429C132.633 34.3429 134.864 36.398 134.864 39.2295V49.4561C134.864 50.2186 135.505 50.8629 136.263 50.8629C137.055 50.8629 137.699 50.2324 137.699 49.4561V39.2295C137.703 34.8197 134.202 31.4917 129.56 31.4917Z" fill="white"/>
<path d="M146.249 46.1022C144.921 46.1022 143.883 47.1485 143.883 48.4825C143.883 49.8185 144.923 50.8628 146.249 50.8628C147.578 50.8628 148.616 49.8165 148.616 48.4825C148.616 47.1485 147.578 46.1022 146.249 46.1022Z" fill="white"/>
<path d="M166.381 34.2127C164.692 32.4886 162.403 31.4916 160.033 31.4916C154.99 31.4916 150.885 35.8364 150.885 41.1782C150.885 46.52 154.988 50.8648 160.033 50.8648C162.392 50.8648 164.682 49.856 166.381 48.1102V50.4904H169.178V31.9113H166.381V34.2127ZM166.381 41.1782C166.381 44.9673 163.532 48.051 160.033 48.051C156.532 48.051 153.685 44.9673 153.685 41.1782C153.685 37.3693 156.534 34.2679 160.033 34.2679C163.532 34.2679 166.381 37.3693 166.381 41.1782Z" fill="white"/>
<path d="M177.353 31.4916C176.569 31.4916 175.954 32.1103 175.954 32.8984V49.456C175.954 50.2185 176.594 50.8628 177.353 50.8628C178.144 50.8628 178.789 50.2323 178.789 49.456V32.8984C178.791 32.1103 178.158 31.4916 177.353 31.4916Z" fill="white"/>
<path d="M21.6022 24.1615H17V28.7901H21.6022V24.1615Z" fill="white"/>
<path d="M29.0181 24.1614H24.4158V28.79H29.0181V24.1614Z" fill="white"/>
<path d="M36.4357 24.1614H31.8335V28.79H36.4357V24.1614Z" fill="white"/>
<path d="M21.6022 31.519H16.9999V36.1475H21.6022V31.519Z" fill="white"/>
<path d="M29.0181 31.519H24.4158V36.1475H29.0181V31.519Z" fill="white"/>
<path d="M21.6022 38.8786H16.9999V43.5072H21.6022V38.8786Z" fill="white"/>
<path d="M41.5492 24.4334C40.4285 24.4334 39.5175 25.3497 39.5175 26.4768C39.5175 27.6039 40.4285 28.5201 41.5492 28.5201C42.6699 28.5201 43.5809 27.6039 43.5809 26.4768C43.5809 25.3497 42.6699 24.4334 41.5492 24.4334Z" fill="white"/>
<path d="M41.5492 31.791C40.4285 31.791 39.5175 32.7073 39.5175 33.8344C39.5175 34.9614 40.4285 35.8777 41.5492 35.8777C42.6699 35.8777 43.5809 34.9614 43.5809 33.8344C43.5809 32.7073 42.6699 31.791 41.5492 31.791Z" fill="white"/>
<path d="M41.5492 39.1486C40.4285 39.1486 39.5175 40.0649 39.5175 41.1919C39.5175 42.319 40.4285 43.2353 41.5492 43.2353C42.6699 43.2353 43.5809 42.319 43.5809 41.1919C43.5809 40.0649 42.6699 39.1486 41.5492 39.1486Z" fill="white"/>
<path d="M34.1333 31.791C33.0126 31.791 32.1016 32.7073 32.1016 33.8344C32.1016 34.9614 33.0126 35.8777 34.1333 35.8777C35.254 35.8777 36.1651 34.9614 36.1651 33.8344C36.1651 32.7073 35.254 31.791 34.1333 31.791Z" fill="white"/>
<path d="M34.1333 39.1486C33.0126 39.1486 32.1016 40.0649 32.1016 41.1919C32.1016 42.319 33.0126 43.2353 34.1333 43.2353C35.254 43.2353 36.1651 42.319 36.1651 41.1919C36.1651 40.0649 35.254 39.1486 34.1333 39.1486Z" fill="white"/>
<path d="M41.5729 46.5061C40.4522 46.4923 39.5313 47.3987 39.5176 48.5258C39.5039 49.6529 40.4051 50.579 41.5258 50.5928C42.6465 50.6066 43.5674 49.7002 43.5811 48.5731C43.5948 47.446 42.6935 46.5199 41.5729 46.5061Z" fill="white"/>
<path d="M34.1333 46.5062C33.0126 46.5062 32.1016 47.4224 32.1016 48.5495C32.1016 49.6766 33.0126 50.5928 34.1333 50.5928C35.254 50.5928 36.1651 49.6766 36.1651 48.5495C36.1651 47.4224 35.254 46.5062 34.1333 46.5062Z" fill="white"/>
<path d="M26.7177 39.1486C25.597 39.1486 24.686 40.0649 24.686 41.1919C24.686 42.319 25.597 43.2353 26.7177 43.2353C27.8384 43.2353 28.7494 42.319 28.7494 41.1919C28.7494 40.0649 27.8384 39.1486 26.7177 39.1486Z" fill="white"/>
<path d="M26.7177 46.5062C25.597 46.5062 24.686 47.4224 24.686 48.5495C24.686 49.6766 25.597 50.5928 26.7177 50.5928C27.8384 50.5928 28.7494 49.6766 28.7494 48.5495C28.7494 47.4224 27.8384 46.5062 26.7177 46.5062Z" fill="white"/>
<path d="M19.3 46.5062C18.1794 46.5062 17.2683 47.4224 17.2683 48.5495C17.2683 49.6766 18.1794 50.5928 19.3 50.5928C20.4207 50.5928 21.3318 49.6766 21.3318 48.5495C21.3337 47.4224 20.4207 46.5062 19.3 46.5062Z" fill="white"/>
<path d="M177.372 29.2375C178.395 29.2375 179.225 28.4021 179.225 27.3735C179.225 26.345 178.395 25.5095 177.372 25.5095C176.349 25.5095 175.518 26.345 175.518 27.3735C175.518 28.4021 176.349 29.2375 177.372 29.2375Z" fill="white"/>
</svg>
