<svg width="196" height="73" viewBox="0 0 196 73" fill="none" xmlns="http://www.w3.org/2000/svg">
<rect width="196" height="73" fill=""/>
<g clip-path="url(#clip0_4385_1275)">
<path fill-rule="evenodd" clip-rule="evenodd" d="M91.8718 26.8709V29.5335H101.205V32.0647H91.8718V36.0679H89.0367V24.3397H102.479V26.8709H91.8718Z" fill="white"/>
<path d="M109.98 24.3397H107.148V36.0679H109.98V24.3397Z" fill="white"/>
<path fill-rule="evenodd" clip-rule="evenodd" d="M126.482 32.4665C126.482 32.1998 126.432 31.988 126.338 31.8309C126.239 31.6739 126.124 31.557 125.99 31.4803C125.857 31.4036 125.72 31.3524 125.579 31.3306C125.44 31.3086 125.327 31.2977 125.243 31.2977H117.805V33.628H125.243C125.306 33.628 125.404 33.617 125.541 33.5951C125.675 33.5732 125.812 33.522 125.951 33.4454C126.092 33.365 126.215 33.2482 126.32 33.091C126.425 32.9304 126.482 32.7221 126.482 32.4665ZM126.482 27.941C126.482 27.6744 126.432 27.4625 126.338 27.3055C126.239 27.1484 126.124 27.0352 125.99 26.9622C125.857 26.8891 125.72 26.8416 125.579 26.8197C125.44 26.7978 125.327 26.7868 125.243 26.7868H117.805V29.1171H125.243C125.306 29.1171 125.404 29.1061 125.541 29.0843C125.675 29.0623 125.812 29.0075 125.951 28.9235C126.092 28.8396 126.215 28.719 126.32 28.562C126.425 28.4048 126.482 28.2003 126.482 27.941ZM129.2 32.8171C129.2 33.3979 129.102 33.8909 128.909 34.3C128.717 34.7092 128.457 35.0415 128.131 35.3044C127.804 35.5675 127.415 35.761 126.972 35.8816C126.527 36.0057 126.047 36.0643 125.531 36.0643H114.973V24.3397H125.531C126.067 24.3397 126.562 24.4054 127.011 24.5332C127.464 24.661 127.85 24.8619 128.169 25.1285C128.492 25.3952 128.744 25.7385 128.927 26.1585C129.109 26.5786 129.2 27.0826 129.2 27.6744C129.19 28.0323 129.127 28.372 129.008 28.6971C128.909 28.9784 128.755 29.2559 128.541 29.5335C128.327 29.8111 128.014 30.0412 127.608 30.2202C128.014 30.421 128.327 30.6695 128.541 30.9653C128.755 31.2611 128.909 31.5497 129.008 31.8273C129.123 32.1523 129.19 32.4847 129.2 32.8171Z" fill="white"/>
<path fill-rule="evenodd" clip-rule="evenodd" d="M133.702 36.0679V24.3397H147.27V26.8709H136.534V28.982H145.983V31.2611H136.534V33.5367H147.688V36.0679H133.702Z" fill="white"/>
<path fill-rule="evenodd" clip-rule="evenodd" d="M163.168 28.193C163.168 27.9118 163.119 27.689 163.024 27.5136C162.925 27.342 162.81 27.2069 162.67 27.1119C162.529 27.0169 162.389 26.9548 162.245 26.9183C162.101 26.8854 161.986 26.8672 161.898 26.8672H155.024V29.5298H161.898C161.961 29.5298 162.063 29.5116 162.203 29.4714C162.344 29.4312 162.483 29.3619 162.627 29.2633C162.771 29.1609 162.898 29.0258 163.007 28.8541C163.115 28.6824 163.168 28.4596 163.168 28.193ZM166 28.193C166 28.7081 165.936 29.1573 165.806 29.5481C165.677 29.9389 165.508 30.2786 165.297 30.5635C165.088 30.8484 164.852 31.0858 164.589 31.2758C164.326 31.4657 164.059 31.6155 163.792 31.7287L165.758 36.0679H162.73L160.926 32.0647H155.018V36.0679H152.185V24.3397H162.312C162.613 24.3397 162.975 24.3944 163.4 24.5076C163.824 24.6173 164.228 24.8181 164.613 25.103C164.999 25.3879 165.329 25.7787 165.596 26.2755C165.866 26.7722 166 27.4114 166 28.193Z" fill="white"/>
<path fill-rule="evenodd" clip-rule="evenodd" d="M98.1421 46.4367V40.242L95.3423 46.4367H93.5283L90.7388 40.2311V46.4367H88.8722V38.7079H91.9704L94.4405 44.3949L96.9142 38.7079H99.9983V46.4367H98.1421Z" fill="white"/>
<path fill-rule="evenodd" clip-rule="evenodd" d="M109.18 42.573C109.18 42.2407 109.116 41.9265 108.994 41.6307C108.871 41.3311 108.682 41.0682 108.432 40.8417C108.183 40.6153 107.868 40.4326 107.489 40.3011C107.11 40.1697 106.671 40.1039 106.169 40.1039C105.668 40.1039 105.226 40.1697 104.847 40.3011C104.468 40.4326 104.155 40.6153 103.903 40.8417C103.65 41.0682 103.464 41.3348 103.341 41.6307C103.219 41.9302 103.155 42.2443 103.155 42.573C103.155 42.9054 103.219 43.2196 103.341 43.519C103.464 43.8185 103.654 44.0815 103.903 44.308C104.152 44.5345 104.468 44.7171 104.847 44.8485C105.226 44.98 105.664 45.0458 106.169 45.0458C106.671 45.0458 107.113 44.98 107.489 44.8485C107.868 44.7171 108.18 44.5345 108.432 44.308C108.685 44.0815 108.871 43.8149 108.994 43.519C109.121 43.2196 109.18 42.9054 109.18 42.573ZM111.145 42.573C111.145 43.1319 111.032 43.6615 110.804 44.1583C110.58 44.6549 110.25 45.0896 109.822 45.4658C109.394 45.8421 108.871 46.1379 108.257 46.3607C107.643 46.5798 106.945 46.6931 106.166 46.6931C105.387 46.6931 104.692 46.5835 104.075 46.3607C103.461 46.1379 102.938 45.8421 102.51 45.4658C102.082 45.0896 101.756 44.6549 101.527 44.1583C101.303 43.6615 101.187 43.1319 101.187 42.573C101.187 42.0142 101.299 41.4846 101.527 40.9878C101.752 40.4911 102.082 40.0564 102.51 39.6802C102.938 39.304 103.461 39.0045 104.075 38.7853C104.689 38.5625 105.387 38.453 106.166 38.453C106.945 38.453 107.64 38.5625 108.257 38.7853C108.871 39.0045 109.394 39.304 109.822 39.6802C110.25 40.0564 110.576 40.4911 110.804 40.9878C111.029 41.4846 111.145 42.0142 111.145 42.573Z" fill="white"/>
<path fill-rule="evenodd" clip-rule="evenodd" d="M121.014 42.5723C121.014 43.1311 120.912 43.6608 120.705 44.1575C120.502 44.6543 120.208 45.0889 119.824 45.4651C119.442 45.8413 118.979 46.1371 118.436 46.36C117.891 46.5792 117.281 46.6923 116.6 46.6923C115.923 46.6923 115.309 46.5828 114.765 46.36C114.222 46.1371 113.754 45.8413 113.369 45.4651C112.983 45.0889 112.688 44.6543 112.481 44.1575C112.278 43.6608 112.172 43.1311 112.172 42.5723V38.7079H114.039V42.5723C114.039 42.9048 114.092 43.2188 114.193 43.5184C114.295 43.8178 114.453 44.0809 114.66 44.3072C114.871 44.5337 115.134 44.7163 115.456 44.8479C115.779 44.9794 116.158 45.0451 116.597 45.0451C117.036 45.0451 117.414 44.9794 117.733 44.8479C118.053 44.7163 118.316 44.5337 118.523 44.3072C118.73 44.0809 118.888 43.8142 118.99 43.5184C119.091 43.2224 119.144 42.9048 119.144 42.5723V38.7079H121.01V42.5723H121.014Z" fill="white"/>
<path fill-rule="evenodd" clip-rule="evenodd" d="M129.656 46.4367L124.288 41.0383V46.4367H122.422V38.7079H124.288L129.656 44.1064V38.7079H131.524V46.4367H129.656Z" fill="white"/>
<path fill-rule="evenodd" clip-rule="evenodd" d="M137.969 40.3735V46.4367H136.113V40.3735H132.773V38.7079H141.309V40.3735H137.969Z" fill="white"/>
<path fill-rule="evenodd" clip-rule="evenodd" d="M147.333 40.1544L145.636 43.2261H149.028L147.333 40.1544ZM150.8 46.4367L149.941 44.8917H144.709L143.849 46.4367H141.868L146.13 38.7079H148.516L152.779 46.4367H150.8Z" fill="white"/>
<path d="M155.526 38.7079H153.659V46.4367H155.526V38.7079Z" fill="white"/>
<path fill-rule="evenodd" clip-rule="evenodd" d="M164.33 46.4367L158.961 41.0383V46.4367H157.095V38.7079H158.961L164.33 44.1064V38.7079H166.197V46.4367H164.33Z" fill="white"/>
<path d="M59.3993 11.7305C71.641 11.7305 81.5987 22.0964 81.5987 34.84C81.5987 47.5837 71.641 57.9495 59.3993 57.9495C47.1575 57.9495 37.1998 47.5837 37.1998 34.84C37.1998 22.0964 47.1575 11.7305 59.3993 11.7305ZM59.3993 11C46.7504 11 36.498 21.6727 36.498 34.84C36.498 48.0073 46.7504 58.6801 59.3993 58.6801C72.048 58.6801 82.3004 48.0073 82.3004 34.84C82.3004 21.6727 72.048 11 59.3993 11Z" fill="white"/>
<path fill-rule="evenodd" clip-rule="evenodd" d="M45.8623 51.7516C45.8623 51.7516 63.2969 37.6639 65.2407 24.7924C65.2407 24.7924 73.0721 35.3044 73.623 46.5833C73.623 46.5833 68.4757 31.7139 66.4407 31.5094C58.9953 43.4458 56.9672 44.2895 45.8623 51.7516Z" fill="white"/>
<path fill-rule="evenodd" clip-rule="evenodd" d="M70.0977 30.7502L73.6975 26.0932C73.6975 26.0932 80.771 44.4508 91.483 50.503C91.483 50.503 79.957 46.4378 73.7011 30.7173L71.5327 33.4676C70.9537 32.1052 70.7362 31.9336 70.0977 30.7502Z" fill="white"/>
<path fill-rule="evenodd" clip-rule="evenodd" d="M22 51.6779C22 51.6779 39.2487 47.8245 46.3117 35.2051C46.3117 35.2051 49.6274 42.6452 51.9607 43.6388C51.9607 43.6388 50.8554 45.4321 49.7502 45.8302C49.7502 45.8302 46.1889 42.4443 45.5748 40.5195C38.7084 47.9888 31.277 50.1585 22 51.6779Z" fill="white"/>
<path fill-rule="evenodd" clip-rule="evenodd" d="M47.722 36.3225C49.4306 34.6095 53.227 30.61 53.8902 28.3052C53.8902 28.3052 58.2866 33.2142 60.4269 34.5073C59.9462 35.2779 59.4409 36.0413 58.9181 36.79C57.8795 36.0449 55.5077 34.2845 54.7498 33.1558C54.7498 33.1558 51.4342 37.148 48.9921 38.7551C48.4868 37.853 48.0483 36.9873 47.722 36.3225Z" fill="white"/>
<path fill-rule="evenodd" clip-rule="evenodd" d="M59.9077 13.1047C59.9077 13.1047 42.9046 12.1733 40.1012 29.0333C40.1012 29.0333 42.5643 23.5363 47.3853 19.1094C50.8483 15.9281 56.0832 13.5065 59.9077 13.1047Z" fill="white"/>
<path d="M167.208 25.9679C167.208 24.6201 168.25 23.561 169.569 23.561C170.889 23.561 171.931 24.6165 171.931 25.9679C171.931 27.3157 170.889 28.3749 169.569 28.3749C168.257 28.3749 167.208 27.3157 167.208 25.9679ZM171.39 25.9679C171.39 24.9087 170.586 24.0723 169.569 24.0723C168.555 24.0723 167.748 24.9087 167.748 25.9679C167.748 27.0236 168.555 27.8636 169.569 27.8636C170.586 27.8636 171.39 27.0236 171.39 25.9679ZM168.678 27.0747V24.77H169.765C170.219 24.77 170.545 25.0658 170.545 25.4712C170.545 25.8401 170.348 26.0958 170.022 26.1542L170.656 27.0747H170.071L169.534 26.2199H169.144V27.0747H168.678ZM169.148 25.8437H169.674C169.906 25.8437 170.043 25.716 170.043 25.4968C170.043 25.2849 169.919 25.179 169.688 25.179H169.148V25.8437Z" fill="white"/>
</g>
<defs>
<clipPath id="clip0_4385_1275">
<rect width="151.709" height="50.5697" fill="white" transform="translate(22 11)"/>
</clipPath>
</defs>
</svg>
