<svg width="86" height="76" viewBox="0 0 86 76" fill="none" xmlns="http://www.w3.org/2000/svg">
<circle cx="30" cy="30" r="30" fill="#F5F8FA" fill-opacity="0.5"/>
<path d="M28.0835 41.2636C30.2587 40.9421 32.1686 41.6045 33.8518 42.9275C35.0343 43.857 36.2519 44.0063 37.6031 43.43C37.7208 43.3808 37.8789 43.3984 37.9703 43.3246C38.2092 43.1278 38.146 42.9082 37.9281 42.7378C35.9479 41.2162 35.3119 39.1552 35.333 36.734C35.3506 34.7732 35.6844 32.9792 37.0619 31.5051C38.2742 30.2154 39.7677 29.5126 41.5441 29.4827C42.0009 29.4827 42.0027 29.3527 41.848 28.9925C41.5827 28.3758 41.0222 27.7187 41.1733 27.1371C41.3174 26.5837 42.0273 26.1743 42.4929 25.7069C43.5278 24.6667 44.5732 23.6354 45.601 22.5864C45.8049 22.3791 45.9524 22.3545 46.1896 22.5249C46.8925 23.0134 47.6339 23.4632 48.3473 23.9464C48.4474 24.0336 48.5736 24.0852 48.7061 24.0932C48.8387 24.1011 48.9701 24.0649 49.08 23.9903C49.9129 23.5246 50.7974 23.1578 51.7155 22.8974C51.8484 22.8748 51.9702 22.8091 52.062 22.7103C52.1538 22.6115 52.2105 22.4852 52.2233 22.351C52.3849 21.4865 52.594 20.6309 52.7504 19.7682C52.7996 19.5081 52.8997 19.4431 53.144 19.4449C55.2372 19.4519 57.3298 19.4519 59.4218 19.4449C59.7012 19.4449 59.789 19.5327 59.8382 19.805C59.9964 20.6695 60.2019 21.5252 60.3653 22.3879C60.3746 22.5049 60.4216 22.6157 60.4992 22.7038C60.5768 22.7919 60.6809 22.8524 60.7958 22.8763C61.7484 23.1496 62.6668 23.5304 63.5332 24.0114C63.6273 24.0774 63.7403 24.1109 63.8551 24.1068C63.9699 24.1027 64.0803 24.0611 64.1693 23.9885C64.8721 23.5018 65.6136 23.052 66.3252 22.5671C66.587 22.3914 66.7521 22.3598 67.0034 22.618C68.409 24.0483 69.824 25.4627 71.2484 26.8613C71.3489 26.9356 71.4176 27.0451 71.4407 27.168C71.4639 27.2908 71.4397 27.4179 71.3731 27.5237C71.092 28.1351 70.846 28.7536 70.5508 29.43C71.0059 29.474 71.417 29.481 71.8176 29.5548C73.2651 29.8091 74.584 30.5456 75.5599 31.6446C76.5357 32.7436 77.111 34.1403 77.1924 35.6077C77.2767 37.1891 77.3487 38.7704 76.6459 40.2586C76.2303 41.1614 75.6151 41.958 74.8467 42.5884C74.671 42.7325 74.4198 42.8326 74.4795 43.1419C74.5445 43.481 74.8573 43.3896 75.0558 43.4441C76.2365 43.7691 77.4594 43.9712 78.605 44.3964C79.2709 44.6424 79.7629 44.6125 80.3128 44.24C80.5834 44.0643 80.9208 43.9659 81.1808 43.7709C82.0787 43.0892 83.1135 43.0681 84.1678 43.1102C84.4296 43.1225 84.5069 43.1858 84.5069 43.4511C84.4987 47.668 84.4987 51.8901 84.5069 56.1175C84.5069 56.4443 84.3101 56.5023 84.101 56.6077C78.9576 59.1706 73.8142 61.7347 68.6708 64.3C68.2632 64.502 68.0875 64.7217 68.0664 65.1925C68.0119 66.3557 67.0315 67.4099 65.8596 67.5856C65.5081 67.6401 65.3746 67.749 65.3324 68.1127C65.2433 68.6811 64.9727 69.2054 64.561 69.6073C64.1493 70.0092 63.6187 70.267 63.0483 70.3424C62.7988 70.3758 62.66 70.4215 62.6126 70.7043C62.3877 72.0836 61.5584 72.8725 60.1914 73.0974C60.0666 73.1167 59.9349 73.0974 59.9155 73.2819C59.7644 74.6875 58.9088 75.4711 57.6121 75.8577C57.1746 75.9842 56.7863 76.1019 56.2908 75.8577C55.7496 75.5309 55.161 75.2726 54.7376 74.7859C54.4898 74.5013 54.2755 74.5101 53.9399 74.6682C53.5545 74.8519 53.1319 74.9443 52.705 74.9383C52.2781 74.9322 51.8584 74.8279 51.4783 74.6332C51.0983 74.4386 50.7683 74.1591 50.5138 73.8162C50.2594 73.4734 50.0874 73.0765 50.0112 72.6564C49.9479 72.2909 49.7933 72.1925 49.4647 72.1293C48.9109 72.0301 48.4017 71.7609 48.0079 71.3592C47.614 70.9574 47.3549 70.443 47.2667 69.8873C47.221 69.5675 47.1121 69.4814 46.8081 69.4235C46.2255 69.3281 45.6889 69.0479 45.2776 68.6243C44.8663 68.2006 44.6021 67.656 44.524 67.0708C44.4836 66.8301 44.4186 66.7458 44.1726 66.7036C42.8689 66.4857 42.0255 65.6371 41.7901 64.3158C41.7843 64.2184 41.7541 64.124 41.7022 64.0414C41.6503 63.9588 41.5784 63.8906 41.4931 63.8431C40.764 63.4232 40.0383 62.9945 39.3285 62.5412C39.0386 62.3549 38.956 62.4569 38.898 62.7292C38.8628 62.9049 38.8576 63.1245 38.5958 63.1105C37.9228 63.0736 37.2464 63.2001 36.5787 62.9717C34.66 62.3145 32.7349 61.6732 30.8034 61.0477C29.8915 60.7543 29.0217 60.3713 28.0835 60.2061V41.2636ZM82.611 45.1291C82.3914 45.1291 82.235 45.2696 82.0646 45.3592C76.8486 48.1002 71.6361 50.8482 66.4271 53.6032C65.8741 53.923 65.2361 54.0648 64.5998 54.0091C64.2185 53.9635 63.8421 53.8835 63.4753 53.7701C61.9098 53.3238 60.3442 52.8775 58.7823 52.4207C57.7398 52.0804 56.606 52.1578 55.6196 52.6368C53.9797 53.4451 52.3445 54.265 50.714 55.0967C49.9602 55.4815 49.6967 56.2985 50.0692 56.9943C50.4417 57.69 51.1884 57.8183 51.9615 57.3615C52.9384 56.7834 53.91 56.1948 54.8852 55.6045C56.6422 54.5502 58.1972 54.6961 59.7152 56.0578C62.1364 58.2376 64.5506 60.4164 66.9577 62.5939C67.2371 62.8469 67.4391 62.9102 67.7976 62.7292C72.6001 60.308 77.4108 57.9015 82.2298 55.5096C82.5917 55.3339 82.676 55.1213 82.6743 54.7541C82.662 51.7249 82.6743 48.6976 82.6637 45.6702C82.6637 45.4945 82.7165 45.3083 82.611 45.1343V45.1291ZM54.3089 51.2576C53.8485 51.1047 53.5059 50.9852 53.158 50.8781C51.8473 50.4739 50.5014 50.2543 49.1415 50.4529C46.838 50.7884 44.5995 51.421 42.3154 51.8883C42.2004 51.9008 42.0927 51.9507 42.0089 52.0304C41.9251 52.1101 41.8698 52.2151 41.8516 52.3294C41.1171 54.9567 40.3704 57.5823 39.6113 60.2061C39.5358 60.4679 39.5639 60.5979 39.8011 60.7332C40.5461 61.1637 41.2875 61.6029 42.0114 62.065C42.2645 62.2267 42.3628 62.1388 42.5385 61.9526C43.1093 61.3306 43.7122 60.7388 44.3448 60.1797C44.716 59.8574 45.1659 59.639 45.6487 59.5467C46.1316 59.4544 46.6304 59.4915 47.0943 59.6542C47.5582 59.8169 47.9708 60.0995 48.2902 60.4732C48.6097 60.847 48.8245 61.2985 48.913 61.7822C48.9798 62.123 49.1116 62.2495 49.4595 62.3093C50.0143 62.4048 50.5248 62.6732 50.9179 63.0761C51.3111 63.4791 51.5669 63.996 51.6487 64.553C51.6962 64.8815 51.8244 64.9571 52.1214 65.0168C53.3864 65.2734 54.1859 66.108 54.4055 67.3748C54.4406 67.5821 54.4828 67.684 54.7235 67.7262C55.602 67.8562 56.2152 68.364 56.774 69.0562C57.4888 69.8948 58.3393 70.6075 59.29 71.1647C59.4685 71.2832 59.6808 71.3401 59.8946 71.3268C60.1083 71.3135 60.3119 71.2306 60.4743 71.0909C60.6225 70.9786 60.7314 70.8221 60.785 70.6441C60.8387 70.466 60.8345 70.2754 60.773 70.0999C60.6921 69.8012 60.4567 69.615 60.23 69.427C59.0599 68.4518 57.8862 67.482 56.716 66.498C56.3857 66.2187 55.8006 65.9885 55.8058 65.63C55.8111 65.2716 56.3189 64.9606 56.5614 64.5987C56.8038 64.2367 56.9567 64.3175 57.2343 64.553C58.702 65.7981 60.1808 67.0327 61.6708 68.2568C62.2489 68.733 62.9552 68.7013 63.3365 68.2146C63.7177 67.7279 63.5877 67.2325 62.964 66.7106C61.8096 65.7443 60.6517 64.7779 59.4991 63.8168C59.1477 63.5234 58.5697 63.2335 58.5433 62.9067C58.5169 62.5798 59.0616 62.2038 59.3217 61.8349C59.5184 61.5502 59.6502 61.5608 59.9103 61.7804C61.351 63.0103 62.8094 64.2051 64.2624 65.4122C64.3857 65.5218 64.5173 65.6217 64.656 65.7109C64.8805 65.8407 65.1431 65.8891 65.3992 65.8478C65.6553 65.8065 65.8893 65.6781 66.0616 65.4842C66.3779 65.0836 66.3357 64.5706 65.9439 64.1418C65.8578 64.0487 65.7576 63.9661 65.661 63.8818L58.5802 57.5108C57.6121 56.6323 56.8794 56.562 55.7531 57.235C54.7147 57.8552 53.6939 58.5035 52.6379 59.0904C50.8493 60.0831 48.7215 59.1501 48.1927 57.1717C47.7921 55.6747 48.4439 54.2287 49.8812 53.4925C51.3184 52.7563 52.7592 52.0359 54.3089 51.2576ZM60.8257 37.0257C60.8257 35.1509 60.7466 34.5922 60.151 33.603C59.1301 31.9057 57.6226 31.1273 55.6284 31.3382C54.0313 31.5139 52.4886 32.8229 51.9773 34.4411C51.6259 35.5568 51.7559 36.6971 51.7682 37.8269C51.784 39.1446 52.2637 40.3746 53.3636 41.051C54.4635 41.7275 54.5935 42.5339 54.4688 43.5934C54.4433 43.8129 54.4433 44.0346 54.4688 44.2541C54.5092 44.6055 54.3914 44.7583 54.0225 44.8444C52.4552 45.2099 50.8932 45.6052 49.3347 46.0093C48.0767 46.3361 47.337 47.2393 47.1964 48.5008C47.1525 48.9032 47.2931 48.9295 47.6111 48.8522C49.9339 48.3374 52.1793 48.6027 54.4231 49.3635C55.8717 49.8678 57.3512 50.2786 58.8525 50.5934C60.6763 50.9606 62.4527 51.5703 64.2466 52.0869C64.4766 52.1446 64.7123 52.1765 64.9494 52.1818C65.2797 52.1993 65.4027 52.064 65.3975 51.7302C65.3834 50.7392 65.4168 49.7465 65.3869 48.7573C65.343 47.2691 64.584 46.3467 63.1256 45.9742C61.6673 45.6017 60.1808 45.2204 58.7014 44.8778C58.2587 44.7741 58.0531 44.6178 58.097 44.124C58.1373 43.5391 58.1373 42.952 58.097 42.367C58.0794 41.9998 58.1708 41.7644 58.5205 41.5816C59.103 41.2643 59.6036 40.8155 59.9823 40.2709C60.6433 39.3245 60.9426 38.1723 60.8257 37.0239V37.0257ZM65.9052 45.5121C66.6221 46.3151 67.0912 47.1672 67.151 48.1634C67.2072 49.121 67.1633 50.0856 67.1633 51.1504L77.2047 45.86C75.7463 45.4945 74.4584 45.1572 73.1635 44.8567C72.8121 44.7741 72.6364 44.6582 72.6645 44.2506C72.6979 43.5903 72.6979 42.9288 72.6645 42.2686C72.6483 42.1355 72.6755 42.0007 72.742 41.8843C72.8084 41.7678 72.9107 41.6758 73.0335 41.622C74.2634 40.9192 75.0945 39.8773 75.2913 38.4752C75.467 37.1733 75.5197 35.8397 75.1366 34.5483C74.5902 32.6999 72.7418 31.2696 70.9005 31.2819C69.9228 31.275 68.9689 31.5829 68.1797 32.16C67.3906 32.7372 66.8081 33.553 66.5184 34.4868C66.2338 35.3881 66.3427 36.3035 66.3041 37.2172C66.2338 39.1903 67.0262 40.6926 68.7499 41.6783C68.8485 41.7233 68.9302 41.7988 68.9827 41.8937C69.0352 41.9886 69.0558 42.0979 69.0415 42.2054C69.0275 42.9205 69.024 43.6374 69.0415 44.3525C69.0415 44.6476 68.9519 44.7601 68.6585 44.8251C67.7694 45.0184 66.8874 45.2608 65.9052 45.5103V45.5121ZM46.6342 45.5033C45.7012 45.2661 44.8244 45.0219 43.9371 44.8251C43.6138 44.7548 43.5278 44.6195 43.5383 44.3085C43.5594 43.6496 43.5682 42.9855 43.5383 42.3284C43.5172 41.9576 43.6595 41.7784 43.9617 41.601C44.5492 41.2765 45.0558 40.8236 45.4437 40.276C45.8316 39.7283 46.0908 39.1001 46.2019 38.4383C46.3513 37.6195 46.2705 36.792 46.2687 35.9679C46.2576 35.1202 46.0244 34.2902 45.5923 33.5608C45.1533 32.7657 44.478 32.1267 43.6599 31.7323C42.8417 31.3379 41.9212 31.2075 41.0257 31.3593C39.2336 31.6369 38.016 32.6999 37.4274 34.4358C37.0478 35.5603 37.1937 36.7199 37.2165 37.8743C37.2411 39.1517 37.6962 40.3693 38.7645 41.0071C39.9241 41.6994 39.9944 42.606 39.9048 43.7024C39.8854 43.8852 39.8854 44.0695 39.9048 44.2523C39.9452 44.6037 39.8433 44.7794 39.4638 44.8427C38.9489 44.9305 38.4464 45.0957 37.8561 45.2485C39.3759 46.1271 40.8079 46.9845 42.2486 47.8068C42.3801 47.8624 42.4891 47.9604 42.5582 48.0853C42.6273 48.2102 42.6526 48.3546 42.6299 48.4955C42.5965 48.9752 42.6299 49.4584 42.6299 49.9556C43.3749 49.7922 44.0865 49.6042 44.8069 49.4882C45.2409 49.4144 45.4236 49.2686 45.3884 48.7854C45.358 48.0861 45.503 47.3903 45.8101 46.7613C46.0139 46.3133 46.339 45.9443 46.6342 45.5016V45.5033ZM49.9233 36.7182C49.9233 36.3369 49.904 35.9328 49.9233 35.5304C49.989 34.1931 50.4734 32.9101 51.308 31.8631C52.1426 30.816 53.2851 30.0577 54.5742 29.6953C57.2677 28.9627 60.021 30.0222 61.5636 32.4012C62.8849 34.434 62.8463 36.683 62.4913 38.9426C62.2541 40.4642 61.4108 41.6871 60.2072 42.6481C60.0473 42.7764 59.8927 42.8836 59.9226 43.1313C59.9419 43.2982 60.0297 43.3299 60.1668 43.365C62.0134 43.8394 63.8425 44.5492 65.7682 43.6795C66.0651 43.546 66.413 43.5337 66.7205 43.4195C66.8857 43.3597 67.1527 43.4564 67.2019 43.1577C67.2458 42.8906 67.086 42.7606 66.905 42.6306C66.3248 42.2077 65.8384 41.6693 65.4765 41.0493C64.0902 38.6 64.1992 36.0417 64.9635 33.4431C65.0285 33.2235 65.169 33.0478 65.0144 32.7789C62.906 29.0892 58.907 27.1564 54.85 27.7749C51.7032 28.2476 49.2873 29.9132 47.6462 32.663C47.5643 32.7882 47.515 32.932 47.5031 33.0812C47.4911 33.2304 47.5168 33.3802 47.5777 33.5169C48.3578 35.8151 48.4105 38.1185 47.4688 40.3869C47.0655 41.2982 46.4329 42.0894 45.6327 42.6833C45.2813 42.9556 45.2813 43.2789 45.6081 43.3668C46.7062 43.6567 47.8096 43.922 48.9095 44.2031C49.0548 44.2215 49.2023 44.2002 49.3365 44.1416C50.3146 43.9073 51.2915 43.6614 52.2672 43.4037C52.4078 43.3668 52.6186 43.4247 52.6573 43.184C52.6736 43.0853 52.6589 42.9839 52.6151 42.8939C52.5714 42.8039 52.5008 42.7297 52.413 42.6815C52.0127 42.388 51.6544 42.041 51.3483 41.6502C50.1851 40.2024 49.8161 38.5367 49.9233 36.7147V36.7182ZM46.1896 31.3628C46.3829 31.3118 46.4374 31.1396 46.5252 31.0114C47.4638 29.6472 48.6716 28.4895 50.0744 27.6098C54.2193 24.9531 59.9559 25.3256 63.7388 28.4883C64.6279 29.2308 65.4138 30.0888 66.0757 31.0395C66.1582 31.1607 66.1881 31.3909 66.4745 31.2152C68.1823 30.161 68.2913 30.0573 69.1101 28.1351C69.1403 28.0488 69.1767 27.9649 69.219 27.8839C69.3631 27.659 69.3139 27.4938 69.1241 27.3093C68.3112 26.5163 67.5071 25.7098 66.7117 24.8899C66.5167 24.6896 66.3779 24.6878 66.1547 24.8389C65.5204 25.2729 64.8651 25.677 64.222 26.1093C64.1361 26.188 64.0252 26.2338 63.9088 26.2386C63.7924 26.2435 63.678 26.207 63.586 26.1356C62.273 25.3006 60.8247 24.7007 59.3058 24.3628C58.9755 24.2872 58.8666 24.1344 58.8121 23.8234C58.6891 23.1206 58.5099 22.4265 58.3852 21.7149C58.3272 21.3899 58.2095 21.2546 57.8581 21.2634C56.8302 21.2915 55.8006 21.288 54.7745 21.2634C54.4231 21.2634 54.2474 21.3512 54.1929 21.7237C54.0752 22.4459 53.8924 23.1575 53.7572 23.8778C53.7485 23.9937 53.6997 24.1028 53.6192 24.1865C53.5387 24.2702 53.4315 24.3232 53.3161 24.3364C51.7777 24.6841 50.3111 25.2958 48.9816 26.1444C48.7303 26.306 48.5616 26.2533 48.3455 26.1075C47.7235 25.6858 47.084 25.2905 46.462 24.8688C46.2353 24.7159 46.0807 24.6755 45.8593 24.9039C45.0687 25.7245 44.2604 26.5239 43.4452 27.3181C43.36 27.3852 43.3031 27.4817 43.2855 27.5887C43.2679 27.6957 43.291 27.8054 43.3503 27.8962C43.6209 28.4971 43.8669 29.1085 44.1146 29.7182C44.1433 29.8051 44.1892 29.8854 44.2495 29.9542C44.3099 30.0231 44.3835 30.079 44.466 30.1188C45.0283 30.3868 45.5443 30.7426 45.9946 31.173C46.0544 31.245 46.1246 31.3048 46.1896 31.3628ZM29.909 50.9027C29.909 53.3801 29.9196 55.8575 29.9003 58.3366C29.9003 58.7161 30.0074 58.8831 30.3676 58.9938C31.3996 59.3077 32.4239 59.6468 33.4407 60.0111C33.7569 60.1235 33.8413 60.0445 33.9133 59.751C34.9394 55.6115 35.9737 51.4731 37.0162 47.3359C37.1006 47.0056 37.0268 46.8597 36.7439 46.6981C35.1397 45.7792 33.5443 44.8427 31.9472 43.9097C31.5361 43.6707 31.1355 43.4089 30.7173 43.1963C30.1708 42.924 29.9178 43.0927 29.9178 43.6883C29.912 46.0919 29.909 48.4967 29.909 50.9027ZM40.8202 49.3125C40.8518 49.0613 40.6743 49.0068 40.5373 48.926C40.1279 48.6835 39.715 48.4481 39.3074 48.2091C38.7504 47.8858 38.7469 47.8841 38.6046 48.478C37.6991 52.0799 36.7978 55.6794 35.9005 59.2766C35.7863 59.737 35.4806 60.2957 35.6387 60.6366C35.8144 61.0231 36.5172 60.9739 36.9494 61.183C37.2921 61.3464 37.4397 61.2392 37.5416 60.8808C38.5958 57.1325 39.6617 53.3883 40.7394 49.6481C40.7745 49.5251 40.7991 49.3986 40.8202 49.3125ZM52.7469 73.1132C52.9333 73.1322 53.1204 73.0835 53.274 72.9762C53.9871 72.4047 54.6353 71.7566 55.2067 71.0434C55.3432 70.8572 55.405 70.6265 55.38 70.3969C55.355 70.1673 55.2449 69.9555 55.0714 69.803C54.6919 69.4516 54.2421 69.3672 53.8274 69.6923C53.1257 70.247 52.4896 70.8802 51.9316 71.5793C51.8251 71.7195 51.7631 71.8883 51.7537 72.0641C51.7443 72.2398 51.7879 72.4144 51.8789 72.565C51.9569 72.7288 52.08 72.8669 52.2337 72.9631C52.3875 73.0592 52.5655 73.1095 52.7469 73.1079V73.1132ZM47.163 62.3462C47.1706 62.1478 47.1188 61.9517 47.0142 61.783C46.9096 61.6143 46.757 61.4807 46.5759 61.3993C46.3949 61.3179 46.1936 61.2925 45.998 61.3263C45.8024 61.3601 45.6213 61.4515 45.4781 61.5889C44.9509 62.0738 44.4537 62.5798 43.9582 63.0911C43.4627 63.6024 43.4311 64.2192 43.8651 64.6408C44.2991 65.0625 44.8684 65.0309 45.3761 64.5477C45.8839 64.0645 46.3372 63.5954 46.8116 63.114C46.9225 63.0181 47.0114 62.8994 47.072 62.7659C47.1327 62.6325 47.1637 62.4875 47.163 62.3409V62.3462ZM51.6276 66.7739C51.4533 66.7754 51.2825 66.8227 51.1322 66.9109C50.4028 67.4912 49.7436 68.1546 49.1678 68.8876C48.8674 69.2829 48.9816 69.7292 49.3154 70.0876C49.4733 70.2561 49.6871 70.3615 49.9169 70.3841C50.1467 70.4067 50.3769 70.3451 50.5646 70.2106C51.2747 69.6652 51.9076 69.0263 52.4464 68.3113C52.9243 67.6629 52.4429 66.7967 51.6276 66.7739ZM49.9022 65.1047C49.9153 64.902 49.8655 64.7002 49.7595 64.5269C49.6535 64.3536 49.4966 64.2173 49.3101 64.1366C49.1273 64.0466 48.9208 64.0165 48.7199 64.0506C48.5189 64.0847 48.3339 64.1811 48.1909 64.3263C47.6732 64.8148 47.1677 65.3167 46.6746 65.8321C46.1932 66.3381 46.1651 66.9215 46.5727 67.3449C46.9803 67.7683 47.6023 67.7578 48.1206 67.2623C48.5968 66.8073 49.0554 66.3346 49.5157 65.8567C49.7406 65.6406 49.9181 65.3876 49.904 65.1047H49.9022ZM57.0955 74.0216C57.288 74.0348 57.4798 73.988 57.6446 73.8879C57.8095 73.7877 57.9393 73.639 58.0163 73.4621C58.0933 73.2852 58.1137 73.0888 58.0747 72.8999C58.0356 72.711 57.9391 72.5388 57.7983 72.4069C57.5892 72.2031 57.3591 72.0204 57.1377 71.8306C57.0287 71.7357 56.9251 71.6848 56.8372 71.8605C56.6 72.3261 56.2188 72.6704 55.8568 73.0306C55.7777 73.1097 55.6811 73.194 55.8023 73.2977C56.1854 73.6175 56.5034 74.0655 57.0973 74.0216H57.0955Z" fill="#6F63DE"/>
</svg>
