<svg width="81" height="81" viewBox="0 0 81 81" fill="none" xmlns="http://www.w3.org/2000/svg">
<circle cx="30" cy="30" r="30" fill="#F5F8FA" fill-opacity="0.5"/>
<path d="M48.9654 80.6591L45.634 80.201C45.4413 80.1731 45.2507 80.1346 45.0623 80.0918C44.3108 79.9226 43.9297 79.4002 44.0517 78.7194C44.1738 78.0385 44.7476 77.7302 45.4969 77.8051C47.4239 78 49.3508 78.3083 51.2778 78.2997C62.1157 78.2526 72.3049 71.3221 76.2466 61.2206C79.9613 51.7058 78.7345 42.7413 72.8552 34.4019C72.7546 34.2606 72.6411 34.1257 72.6025 34.0679C71.7311 34.2285 70.924 34.4961 70.1147 34.4961C69.0477 34.5029 68.0088 34.1547 67.1614 33.5062C66.3141 32.8577 65.7065 31.9459 65.4343 30.9142C65.1567 29.8895 65.2199 28.8024 65.6143 27.8169C66.0088 26.8313 66.7131 26.0008 67.621 25.4507C68.5289 24.9005 69.591 24.6606 70.6472 24.7671C71.7034 24.8736 72.6963 25.3208 73.4761 26.0411C74.2567 26.7534 74.782 27.7021 74.9715 28.7417C75.161 29.7813 75.0042 30.8544 74.5252 31.7963C74.2897 32.2502 74.3454 32.5157 74.6387 32.9053C78.0836 37.4479 80.1377 42.8918 80.5522 48.5778C80.5756 48.7493 80.6084 48.9194 80.6507 49.0873V52.6971C80.6165 52.8491 80.5758 52.9969 80.5522 53.1489C80.351 54.5277 80.2204 55.9322 79.9399 57.2875C77.5526 68.8492 67.6632 78.3104 56.0245 80.1967C54.9197 80.3765 53.8042 80.505 52.693 80.657L48.9654 80.6591ZM70.1446 32.1945C70.6544 32.2 71.1543 32.0538 71.5806 31.7744C72.007 31.4949 72.3407 31.095 72.5391 30.6254C72.7375 30.1558 72.7917 29.6378 72.6949 29.1373C72.5981 28.6368 72.3545 28.1765 71.9953 27.8148C71.636 27.4531 71.1773 27.2065 70.6774 27.1063C70.1776 27.0061 69.6592 27.0568 69.1883 27.2521C68.7174 27.4474 68.3153 27.7783 68.033 28.2028C67.7507 28.6273 67.6011 29.1262 67.6032 29.636C67.606 30.3107 67.8741 30.9573 68.3496 31.436C68.8251 31.9148 69.4699 32.1872 70.1446 32.1945Z" fill="#6F63DE"/>
<path d="M34.7703 60.1802C34.1816 58.658 33.6613 57.2855 33.1067 55.926C33.0554 55.847 32.9866 55.7809 32.9057 55.7326C32.8248 55.6844 32.7339 55.6553 32.64 55.6476C32.0576 55.6134 31.4753 55.6476 30.8929 55.6305C30.0793 55.6134 29.634 55.1702 29.6318 54.3459C29.6318 51.9979 29.6318 49.6492 29.6318 47.2997C29.6318 46.4754 30.0707 46.0472 30.8929 46.0301C31.4731 46.0172 32.0576 46.0472 32.6379 46.013C32.7321 46.0036 32.823 45.9732 32.9038 45.9239C32.9846 45.8746 33.0532 45.8077 33.1046 45.7282C33.657 44.3708 34.1751 42.9984 34.7682 41.4697C34.3914 41.1164 33.8861 40.6668 33.4065 40.185C32.7642 39.5427 32.7642 38.9175 33.4065 38.2581C35.0251 36.6438 36.6466 35.0301 38.2709 33.4172C38.9454 32.7471 39.5556 32.7513 40.2343 33.4365C40.6967 33.9011 41.1357 34.3914 41.4846 34.7639C42.9984 34.1794 44.3708 33.6591 45.7303 33.1089C45.8095 33.0577 45.8764 32.9898 45.9264 32.9099C45.9763 32.8299 46.0081 32.74 46.0194 32.6464C46.0536 32.0662 46.0194 31.4817 46.0365 30.8993C46.0536 30.0815 46.4861 29.6404 47.3061 29.6383C49.6542 29.6297 52.0029 29.6297 54.3523 29.6383C55.1723 29.6383 55.607 30.0793 55.6241 30.8972C55.6348 31.4796 55.6048 32.0641 55.6412 32.6443C55.6505 32.7382 55.6812 32.8287 55.7309 32.9089C55.7806 32.9891 55.8481 33.0568 55.9281 33.1067C57.2877 33.6591 58.6601 34.1773 60.1738 34.7618C60.5356 34.3785 60.9874 33.8754 61.4584 33.3958C62.1007 32.7663 62.7109 32.7535 63.3361 33.3765C64.9919 35.0151 66.6398 36.6616 68.2798 38.3159C68.8793 38.9197 68.8814 39.5513 68.2798 40.1551C67.7916 40.6496 67.2692 41.11 66.8774 41.4782C67.4662 43.0048 67.9865 44.3772 68.5389 45.7346C68.5902 45.8141 68.6589 45.881 68.7397 45.9303C68.8205 45.9796 68.9114 46.0101 69.0056 46.0194C69.6051 46.0536 70.2089 46.0194 70.8105 46.0386C71.5599 46.0579 72.0095 46.4925 72.0116 47.2419C72.0245 49.6313 72.0245 52.0193 72.0116 54.4058C72.0116 55.1531 71.5577 55.6005 70.8148 55.6241C70.2153 55.6412 69.6115 55.6048 69.012 55.6455C68.9115 55.6597 68.8155 55.6966 68.7313 55.7533C68.6471 55.8101 68.5769 55.8852 68.526 55.9731C67.9758 57.3134 67.4555 58.6687 66.8753 60.1588C67.2542 60.5207 67.7574 60.9746 68.2348 61.4542C68.89 62.1093 68.9007 62.7259 68.2562 63.3811C66.6405 65.0154 65.0119 66.6462 63.3704 68.2734C62.7423 68.8986 62.1157 68.8986 61.4906 68.2734C60.9981 67.7831 60.5335 67.2607 60.1717 66.8753C58.6622 67.4641 57.3091 67.9822 55.9688 68.5324C55.8813 68.5837 55.8064 68.654 55.7497 68.7381C55.6929 68.8223 55.6559 68.9181 55.6412 69.0185C55.6005 69.618 55.6412 70.2217 55.6198 70.8234C55.5984 71.5706 55.1595 72.0223 54.4123 72.0266C52.0243 72.0395 49.637 72.0395 47.2505 72.0266C46.499 72.0266 46.0601 71.5727 46.0386 70.8276C46.0215 70.226 46.0579 69.6222 46.0172 69.0227C46.0041 68.9221 45.9682 68.8258 45.9121 68.7412C45.8561 68.6566 45.7815 68.5859 45.6939 68.5346C44.3536 67.9822 43.0005 67.4641 41.4932 66.8731C41.1421 67.2478 40.6903 67.7531 40.2086 68.2327C39.5342 68.9071 38.924 68.9028 38.2453 68.2327C36.6352 66.6312 35.0294 65.0247 33.4279 63.4132C32.7321 62.7131 32.7363 62.1136 33.4472 61.4092C33.9182 60.9489 34.4085 60.51 34.7703 60.1802ZM65.9225 62.3213C65.4943 61.923 65.0447 61.5248 64.6208 61.1009C64.0876 60.5678 64.0298 60.0775 64.4345 59.4266C65.3989 57.8749 66.1053 56.1772 66.5263 54.3994C66.7275 53.5537 67.0851 53.2925 67.9715 53.2882C68.5282 53.2882 69.087 53.2882 69.6586 53.2882V48.4045C69.6065 48.391 69.5536 48.381 69.5002 48.3745C68.9778 48.3745 68.4532 48.3745 67.9287 48.3745C67.0872 48.3574 66.7254 48.0833 66.5306 47.2697C66.1102 45.4935 65.4045 43.7971 64.4409 42.2469C64.0127 41.5767 64.0791 41.0864 64.655 40.534C65.0832 40.1208 65.5457 39.7525 65.9632 39.3886L62.3041 35.7167C61.9466 36.1149 61.5869 36.5474 61.1929 36.9456C60.5506 37.588 60.1032 37.6436 59.3345 37.1597C57.8156 36.2155 56.152 35.527 54.4101 35.1215C53.5944 34.9245 53.3032 34.5648 53.2925 33.7362C53.2925 33.1603 53.2925 32.5843 53.2925 31.987H48.4388C48.4088 32.0448 48.3788 32.079 48.3788 32.1112C48.3788 32.655 48.3788 33.1988 48.3617 33.7405C48.3467 34.5455 48.0641 34.9309 47.2912 35.1129C45.4954 35.5334 43.7805 36.2451 42.2147 37.2197C41.5724 37.6243 41.0779 37.5644 40.5426 37.0227C40.1144 36.5945 39.7376 36.1363 39.3714 35.7381L35.7959 39.3629C36.1727 39.7161 36.6095 40.1015 37.0163 40.5148C37.5751 41.08 37.6329 41.566 37.2133 42.2276C36.2588 43.7604 35.5596 45.4379 35.1429 47.1948C34.9288 48.0726 34.5776 48.3381 33.6634 48.3467C33.1089 48.3467 32.5544 48.3467 31.9913 48.3467V53.2218C32.0405 53.254 32.0555 53.2732 32.0705 53.2732C32.6507 53.2732 33.2331 53.2732 33.8154 53.2968C34.5477 53.3118 34.9438 53.6008 35.1001 54.3052C35.5195 56.1232 36.2364 57.8594 37.2218 59.4437C37.6243 60.086 37.5601 60.5806 37.0227 61.1159C36.5945 61.5441 36.1406 61.9295 35.7381 62.302L39.273 65.8454C39.2979 65.8383 39.3207 65.8251 39.3393 65.8069C39.7269 65.4258 40.1101 65.0404 40.4998 64.6614C41.0971 64.0769 41.5467 64.0191 42.2661 64.4602C43.7847 65.4056 45.4483 66.0949 47.1905 66.5006C48.094 66.7147 48.3617 67.0765 48.366 68.025C48.366 68.5795 48.366 69.1319 48.366 69.6736H53.2904C53.2904 69.0741 53.2904 68.5132 53.2904 67.9608C53.2904 67.0894 53.5687 66.734 54.423 66.5284C56.1806 66.113 57.859 65.4145 59.3923 64.4602C60.0946 64.0213 60.5613 64.0791 61.1565 64.6743C61.5633 65.0854 61.9423 65.5307 62.3041 65.9225L65.9225 62.3213Z" fill="#6F63DE"/>
<path d="M29.1478 67.7147C31.9654 66.3679 34.5004 67.6311 35.6137 69.3889C36.2312 70.3535 36.4906 71.504 36.347 72.6402C36.2033 73.7764 35.6656 74.8261 34.8275 75.6066C33.9895 76.3871 32.9042 76.8489 31.7607 76.9115C30.6172 76.974 29.4879 76.6335 28.5697 75.9491C26.9982 74.7865 25.72 72.198 27.3322 69.4232C26.3088 67.7425 25.2126 66.1581 24.3347 64.4624C15.6464 47.8008 24.6816 27.0926 42.7927 22.0976C47.2777 20.841 51.9959 20.6605 56.5638 21.5709C57.3646 21.7293 57.7971 22.2667 57.6836 22.9262C57.5616 23.6284 56.9471 23.9967 56.1378 23.8511C48.3594 22.4444 41.1826 23.9218 34.7744 28.5614C28.3663 33.201 24.5574 39.5749 23.5682 47.4775C22.6626 54.7314 24.4867 61.3236 28.7752 67.2458C28.8887 67.3914 29.0129 67.5412 29.1478 67.7147ZM31.5222 69.4746C31.0127 69.4678 30.5126 69.6127 30.0856 69.8908C29.6586 70.169 29.324 70.5678 29.1242 71.0367C28.9245 71.5055 28.8687 72.0231 28.964 72.5237C29.0592 73.0244 29.3011 73.4854 29.6591 73.8481C30.017 74.2109 30.4747 74.459 30.974 74.5609C31.4733 74.6629 31.9916 74.614 32.4631 74.4206C32.9346 74.2272 33.3379 73.898 33.6217 73.4747C33.9056 73.0515 34.0572 72.5534 34.0572 72.0438C34.0573 71.3683 33.7913 70.72 33.3168 70.2391C32.8424 69.7583 32.1977 69.4836 31.5222 69.4746Z" fill="#6F63DE"/>
<path d="M61.5806 25.416C61.2789 25.4135 60.9892 25.2977 60.769 25.0914C60.5488 24.8851 60.4144 24.6035 60.3923 24.3026C60.3869 24.1484 60.4122 23.9947 60.4667 23.8503C60.5212 23.706 60.6038 23.5739 60.7098 23.4617C60.8157 23.3496 60.9429 23.2596 61.084 23.197C61.225 23.1345 61.3771 23.1005 61.5314 23.0972C61.833 23.0879 62.1262 23.1981 62.3471 23.4038C62.568 23.6095 62.6988 23.894 62.7111 24.1956C62.7227 24.5072 62.6101 24.8107 62.3982 25.0395C62.1863 25.2683 61.8922 25.4037 61.5806 25.416Z" fill="#6F63DE"/>
<path d="M41.3023 77.4242C41.3077 77.5751 41.2829 77.7255 41.2291 77.8665C41.1754 78.0076 41.0939 78.1364 40.9895 78.2454C40.8851 78.3544 40.7599 78.4414 40.6213 78.5011C40.4827 78.5609 40.3335 78.5922 40.1825 78.5932C40.0258 78.5994 39.8694 78.5735 39.723 78.5171C39.5766 78.4608 39.4433 78.3752 39.331 78.2656C39.2188 78.156 39.1301 78.0247 39.0704 77.8797C39.0106 77.7346 38.9811 77.5789 38.9835 77.4221C38.9923 77.1185 39.1179 76.83 39.334 76.6166C39.5502 76.4032 39.8403 76.2815 40.144 76.2766C40.4497 76.2755 40.7433 76.3957 40.9605 76.6108C41.1777 76.826 41.3006 77.1185 41.3023 77.4242Z" fill="#6F63DE"/>
<path d="M50.5776 41.2083C55.7953 40.9942 60.2123 45.197 60.4542 50.5818C60.679 55.7823 56.4547 60.2357 51.0829 60.4605C45.8716 60.6746 41.4246 56.4568 41.2041 51.0849C40.99 45.8715 45.21 41.4245 50.5776 41.2083ZM58.1312 50.843C58.1354 49.3988 57.7112 47.9858 56.9123 46.7827C56.1134 45.5797 54.9757 44.6406 53.643 44.0842C52.3103 43.5278 50.8425 43.3792 49.4253 43.6571C48.0081 43.935 46.7052 44.6269 45.6813 45.6454C44.6575 46.6639 43.9586 47.9632 43.6733 49.3788C43.3879 50.7945 43.5288 52.2631 44.0781 53.5987C44.6274 54.9343 45.5605 56.077 46.7594 56.8823C47.9582 57.6875 49.3689 58.1191 50.8131 58.1225C52.7445 58.117 54.5959 57.3503 55.9658 55.9888C57.3357 54.6273 58.1137 52.7807 58.1312 50.8494V50.843Z" fill="#6F63DE"/>
</svg>
