<svg width="196" height="73" viewBox="0 0 196 73" fill="none" xmlns="http://www.w3.org/2000/svg">
<rect width="196" height="73" fill=""/>
<path d="M27.935 32.2258L39.439 29.2598C42.2076 28.5447 44.9815 27.851 47.7376 27.0948C48.3554 26.916 48.6061 27.0751 48.7673 27.6454C49.0019 28.4732 49.2526 29.3009 49.5516 30.109C49.7791 30.724 49.5516 30.9332 48.9678 31.0762C43.1179 32.5065 37.2751 33.9481 31.4396 35.401C29.3855 35.9105 27.3207 36.4111 25.281 36.9385C24.8118 37.0601 24.5361 37.0529 24.3283 36.5076C24.0118 35.6633 23.4507 34.932 22.7166 34.4069C22.2958 34.1084 22.3316 33.8706 22.5644 33.4737C26.331 26.9517 30.0881 20.4226 33.8356 13.8864C34.0738 13.468 34.2941 13.3357 34.7471 13.5556C35.6049 13.9704 36.4735 14.3673 37.3563 14.7231C37.9545 14.9644 37.9867 15.2201 37.6608 15.7671C34.5949 20.9065 31.5464 26.0566 28.5152 31.2175C28.3433 31.4982 28.1857 31.7842 27.935 32.2258Z" fill="white"/>
<path d="M125.213 38.7339C126.224 36.9461 127.154 35.2906 128.078 33.6404C129.097 31.8222 130.121 30.0076 131.122 28.1769C131.36 27.7371 131.617 27.5243 132.154 27.5386C133.635 27.5815 135.116 27.5529 136.751 27.5529C136.165 28.5666 135.655 29.4623 135.139 30.3491C132.177 35.38 129.219 40.4109 126.264 45.4418C125.988 45.912 125.707 46.157 125.148 46.1015C124.149 46.0104 122.881 46.5074 122.213 45.8942C121.601 45.3292 121.601 44.0903 121.35 43.1427C120.048 38.2244 118.762 33.3008 117.442 28.3878C117.263 27.7532 117.279 27.4939 118.06 27.5315C119.253 27.6013 120.449 27.6013 121.642 27.5315C122.369 27.4886 122.6 27.78 122.749 28.4254C123.465 31.5272 124.213 34.622 124.955 37.722C125.009 37.9974 125.086 38.2745 125.213 38.7339Z" fill="white"/>
<path d="M28.8644 43.0278L33.6565 47.8835C35.8556 50.1058 38.0458 52.3387 40.2645 54.5413C40.7087 54.9811 40.7767 55.2457 40.1893 55.5836C39.473 56.0002 38.771 56.4614 38.0762 56.9227C37.718 57.1551 37.4817 57.1337 37.1683 56.8083C32.7295 52.2041 28.2758 47.6046 23.8072 43.0099C23.5206 42.7167 23.4884 42.52 23.7481 42.1947C24.2377 41.6253 24.554 40.9281 24.6596 40.1851C24.7384 39.4021 25.1341 39.3377 25.7806 39.3395C30.2218 39.3502 34.6629 39.327 39.1059 39.3145C42.4439 39.3055 45.7838 39.3341 49.1218 39.2608C50.0423 39.2412 50.087 39.5844 49.9097 40.2799C49.7325 40.9754 49.5516 41.6655 49.4352 42.3663C49.3224 43.001 49.0197 43.2012 48.3607 43.194C42.2487 43.1154 36.1386 43.0778 30.0284 43.0278C29.7311 43.026 29.4338 43.0278 28.8644 43.0278Z" fill="white"/>
<path d="M169.588 46.5145C169.173 46.4877 168.752 46.4931 168.335 46.4287C166.032 46.0712 164.059 45.1576 163.244 42.7941C162.395 40.3287 163.065 38.0671 164.676 36.1291C167.042 33.2686 171.51 32.2513 174.957 33.6512C177.833 34.8186 179.044 37.7131 178.002 40.9133C176.891 44.2923 173.586 46.4859 169.588 46.5145ZM170.222 42.5813C172.124 42.567 173.625 41.0814 173.582 39.2542C173.548 37.8365 172.579 36.9569 171.061 36.9694C170.62 36.9636 170.183 37.0461 169.775 37.212C169.367 37.3779 168.997 37.6239 168.686 37.9353C168.375 38.2467 168.13 38.6173 167.965 39.025C167.8 39.4327 167.719 39.8694 167.726 40.309C167.73 41.75 168.666 42.5939 170.222 42.5939V42.5813Z" fill="white"/>
<path d="M17.7794 28.3051C18.8323 24.5131 19.8173 20.975 20.8004 17.4209C21.2141 15.9316 21.6331 14.4441 22.0361 12.9513C22.1328 12.5937 22.2151 12.2719 22.6754 12.2255C23.8286 12.1128 24.9748 11.9197 26.2301 12.0359C25.8003 13.5288 25.3813 14.9787 24.964 16.4286C23.443 21.7134 21.9268 26.9994 20.4154 32.2866C20.2363 32.9052 20.034 33.2466 19.2854 33.1143C18.5798 32.9874 17.8528 33.1662 17.1866 33.429C16.7998 33.5809 16.5724 33.5881 16.3288 33.1715C13.811 28.8224 11.2758 24.4815 8.72332 20.1491C8.50126 19.7718 8.49768 19.5305 8.83255 19.2391C9.46112 18.6938 10.0861 18.136 10.6735 17.5496C11.1552 17.0704 11.4095 17.0901 11.7641 17.7284C13.5101 20.8767 15.3081 23.9947 17.0881 27.1233C17.2779 27.4541 17.4731 27.7831 17.7794 28.3051Z" fill="white"/>
<path d="M71.0412 35.085C72.5312 33.349 74.2521 32.9092 76.1987 33.1059C78.1453 33.3026 79.3523 34.5272 79.4221 36.5028C79.5009 38.5123 78.9153 40.4467 78.6736 42.4222C78.5518 43.4252 78.3333 44.4156 78.2044 45.4168C78.1399 45.9174 77.9752 46.1319 77.4236 46.1176C76.3814 46.0729 75.3355 46.0783 74.2933 46.1176C73.7417 46.1355 73.577 46.0122 73.6791 45.4186C74.0372 43.3108 74.3613 41.1922 74.6783 39.0736C74.8771 37.7667 74.6085 37.0516 73.8689 36.7495C72.8786 36.3561 71.582 36.7799 70.9391 37.7149C70.6088 38.2149 70.3946 38.7824 70.3124 39.3758C70.0026 41.3138 69.6802 43.25 69.4062 45.1933C69.3131 45.8513 69.1125 46.1749 68.3604 46.1141C67.3782 46.0557 66.3935 46.0527 65.411 46.1051C64.897 46.123 64.7251 45.9818 64.8128 45.4472C65.4289 41.6618 66.0312 37.874 66.6198 34.0838C66.6932 33.6154 66.8776 33.4384 67.3683 33.4581C68.3514 33.4956 69.3382 33.5135 70.3177 33.4581C71.086 33.4116 71.3779 33.619 71.0932 34.3895C71.0448 34.5147 71.0681 34.6738 71.0412 35.085Z" fill="white"/>
<path d="M185.741 34.883C186.898 33.5815 188.358 33.0058 190.097 33.0541C192.783 33.1309 194.215 34.5719 193.974 37.2679C193.795 39.3079 193.384 41.3263 193.078 43.3555C193.078 43.4145 193.055 43.4717 193.042 43.5343C192.863 44.371 193.11 45.542 192.48 45.9639C191.878 46.368 190.813 46.0926 189.95 46.098C188.098 46.1069 188.112 46.098 188.415 44.2923C188.709 42.5331 188.995 40.7721 189.233 39.0039C189.413 37.6452 189.13 36.9926 188.358 36.7316C187.826 36.5695 187.256 36.5827 186.732 36.7691C186.208 36.9556 185.759 37.3053 185.449 37.7668C184.773 38.8091 184.771 40.0301 184.554 41.1922C184.305 42.5974 184.074 44.0062 183.884 45.4204C183.814 45.9407 183.626 46.1248 183.095 46.1034C182.112 46.0461 181.127 46.0461 180.145 46.1034C179.336 46.1624 179.282 45.8084 179.388 45.1683C179.834 42.4991 180.254 39.8245 180.684 37.1535C180.838 36.1845 181.042 35.2209 181.132 34.2447C181.191 33.569 181.478 33.4098 182.101 33.4438C183.023 33.4921 183.949 33.4849 184.873 33.4438C185.526 33.4152 185.947 33.501 185.646 34.3002C185.601 34.3954 185.586 34.5022 185.603 34.6064C185.62 34.7105 185.668 34.807 185.741 34.883Z" fill="white"/>
<path d="M103.888 42.1165C103.386 43.359 102.713 44.2458 101.777 44.9019C99.2157 46.6897 96.4203 46.9865 93.5299 45.9138C91.1768 45.0414 90.0576 42.8584 90.4229 40.1124C91.2574 33.8246 97.0936 32.1601 101.119 33.4456C103.773 34.293 105.333 37.6684 104.355 40.2393C104.176 40.7077 103.818 40.5432 103.539 40.545C100.917 40.5593 98.2934 40.5826 95.6717 40.5343C94.916 40.52 94.7656 40.7971 94.8211 41.455C94.9518 43.0194 97.022 44.0706 98.4654 42.9836C100.193 41.6839 101.984 42.4598 103.888 42.1165ZM95.4335 37.908C95.6234 37.9187 95.7416 37.933 95.8598 37.933C97.1993 37.933 98.5459 37.8972 99.8783 37.9491C100.648 37.9795 100.575 37.6219 100.349 37.1571C100.234 36.9149 100.07 36.6982 99.8696 36.5198C99.6688 36.3415 99.4343 36.205 99.1799 36.1184C97.7365 35.5928 96.089 36.3472 95.4335 37.908Z" fill="white"/>
<path d="M20.3294 49.3835C19.5164 52.303 18.732 55.0151 18.0229 57.7469C17.833 58.4763 17.5823 58.5353 16.9484 58.2672C14.2944 57.1605 14.298 57.182 15.0967 54.4573C16.0017 51.3751 16.8923 48.2894 17.7686 45.2C17.9136 44.6833 18.1106 44.4849 18.6837 44.5653C19.4569 44.6733 20.245 44.5714 20.9651 44.2703C21.4093 44.0916 21.5937 44.2221 21.8086 44.5904C24.6237 49.4246 27.449 54.2517 30.2844 59.0717C30.5907 59.5937 30.4259 59.6706 29.9263 59.7689C26.6366 60.4018 26.6384 60.4126 25.007 57.5574C23.4758 54.9079 21.9608 52.2458 20.3294 49.3835Z" fill="white"/>
<path d="M150.762 33.0558C151.898 33.0494 153.026 33.2393 154.096 33.6172C154.519 33.7638 154.687 33.9176 154.352 34.352C153.882 34.9671 153.444 35.6056 153.038 36.265C152.794 36.6547 152.56 36.669 152.159 36.4938C151.416 36.1702 150.624 35.9878 149.809 36.2024C149.374 36.3168 148.914 36.4688 148.887 37.0284C148.86 37.5879 149.351 37.7435 149.782 37.874C150.352 38.0403 150.955 38.1028 151.518 38.2888C153.543 38.9646 154.245 40.3394 153.65 42.4008C153.14 44.1743 151.924 45.2952 150.248 45.9174C147.741 46.8453 145.286 46.6754 142.886 45.483C142.265 45.1737 142.202 44.893 142.63 44.3566C143.109 43.7478 143.546 43.1068 143.937 42.4383C144.204 41.9896 144.439 41.986 144.849 42.2595C145.594 42.7605 146.451 43.0706 147.345 43.1624C147.702 43.2048 148.063 43.1676 148.403 43.0533C148.848 42.896 149.211 42.6153 149.204 42.095C149.204 41.6302 148.821 41.4335 148.445 41.3209C147.789 41.1225 147.112 40.9973 146.459 40.7989C144.584 40.2286 143.935 39.07 144.41 37.1857C144.987 34.9026 146.969 33.3705 149.702 33.1095C150.046 33.0719 150.404 33.0719 150.762 33.0558Z" fill="white"/>
<path d="M59.1342 46.0908C58.4967 45.98 57.4455 46.4716 57.0014 45.8816C56.6146 45.3703 57.1142 44.4103 57.2324 43.6522C58.0293 38.573 58.8441 33.4992 59.6195 28.4164C59.727 27.7103 59.9777 27.4921 60.694 27.5333C61.7918 27.6012 62.8985 27.5672 63.9998 27.5476C64.435 27.5476 64.6552 27.594 64.5675 28.1268C63.6327 33.8752 62.7146 39.6261 61.8132 45.3793C61.7255 45.9371 61.5428 46.148 60.9769 46.0944C60.4111 46.0408 59.8416 46.0908 59.1342 46.0908Z" fill="white"/>
<path d="M83.7289 46.0926H82.9231C81.4295 46.0926 81.4331 46.0926 81.6695 44.6624C82.0277 42.4312 82.3536 40.1928 82.7565 37.9706C82.8711 37.3305 82.7673 37.0767 82.1029 37.1839C81.3579 37.3019 81.1466 37.0051 81.3615 36.29C81.4783 35.8591 81.5521 35.4178 81.5818 34.9724C81.6659 34.057 81.7053 33.1452 83.0645 33.4545C83.4836 33.5493 83.5194 33.1721 83.566 32.8771C83.7038 31.9957 83.8471 31.1161 83.9653 30.2311C84.0154 29.8414 84.1623 29.6733 84.5903 29.684C85.7245 29.7138 86.8586 29.7138 87.9928 29.684C88.5139 29.6697 88.5748 29.8467 88.4763 30.3133C88.2972 31.1268 88.2328 31.9599 88.0698 32.7769C87.957 33.3437 88.1414 33.476 88.7002 33.4796C90.491 33.4796 90.482 33.5117 90.2277 35.2674C89.9537 37.15 89.9537 37.1714 88.111 37.1732C87.563 37.1732 87.3463 37.3091 87.2639 37.8883C86.9058 40.3609 86.4635 42.8191 86.1089 45.2917C86.0193 45.9246 85.8224 46.1856 85.1651 46.1141C84.6872 46.0798 84.2077 46.0727 83.7289 46.0926Z" fill="white"/>
<path d="M9.21216 34.4409C8.35079 33.6381 7.47509 32.8497 6.63342 32.0273C5.61087 31.0279 4.61877 29.9963 3.60698 28.988C3.3688 28.7485 3.16823 28.5429 3.32224 28.1424C3.74308 27.0697 4.14421 25.9791 4.5937 25.2104C6.06036 26.5548 7.58791 27.8796 9.02949 29.2937C10.7719 31.0065 12.432 32.8068 14.1494 34.5374C14.563 34.954 14.615 35.2525 14.2443 35.7227C13.7881 36.3154 13.5032 37.0215 13.4205 37.7644C13.3686 38.2024 13.1859 38.349 12.7311 38.349C9.41989 38.349 6.10513 38.349 2.79933 38.4009C2.1833 38.4098 2.02034 38.181 2.03287 37.6286C2.05257 36.8544 2.05615 36.0785 2.00422 35.3044C1.96482 34.7233 2.20121 34.6268 2.72054 34.634C4.82472 34.6661 6.9289 34.6465 9.03308 34.6465L9.21216 34.4409Z" fill="white"/>
<path d="M111.947 35.1262C113.157 33.8264 114.66 33.2525 116.423 33.2775C116.866 33.2775 116.991 33.4045 116.911 33.8479C116.719 34.9009 116.552 35.9593 116.413 37.0195C116.357 37.4342 116.277 37.5361 115.807 37.402C113.279 36.6869 111.51 37.7006 110.942 40.2626C110.571 41.9431 110.333 43.6594 110.086 45.3596C110.005 45.896 109.849 46.1302 109.255 46.1016C108.216 46.0479 107.17 46.0694 106.128 46.1016C105.641 46.1141 105.448 46.0372 105.544 45.4615C106.178 41.6475 106.785 37.8335 107.366 34.0195C107.439 33.5386 107.654 33.4563 108.071 33.4653C109.054 33.4867 110.041 33.5243 111.021 33.4653C111.778 33.4116 112.059 33.6208 111.839 34.3771C111.798 34.5796 111.774 34.7854 111.769 34.9921C111.757 35.1011 111.701 35.2817 111.739 35.3031C111.884 35.3729 111.886 35.1959 111.947 35.1262Z" fill="white"/>
<path d="M10.1972 45.3609C8.58545 45.7596 6.95224 46.1189 5.35128 46.573C4.68152 46.7643 4.3735 46.5998 4.16219 45.9759C3.94821 45.3266 3.69096 44.6923 3.39215 44.0772C3.08413 43.4515 3.35096 43.2656 3.92939 43.1279C6.96776 42.3985 10.0014 41.6512 13.0302 40.886C13.4564 40.7787 13.6659 40.8145 13.845 41.2435C14.1509 41.9925 14.6442 42.6505 15.2776 43.1547C15.6591 43.4569 15.6913 43.6911 15.446 44.1148C13.6791 47.1445 11.9283 50.1838 10.1936 53.2327C9.96077 53.6403 9.82288 53.7225 9.42533 53.3739C6.99343 51.2625 6.97373 51.2196 8.58545 48.5057C9.1782 47.5098 9.75304 46.5033 10.3333 45.5003C10.3458 45.4342 10.3565 45.368 10.3691 45.3037L10.1972 45.3609Z" fill="white"/>
<path d="M137.669 46.0944H137.58C135.366 46.0944 135.372 46.0944 135.719 43.949C136.246 40.6934 136.783 37.4396 137.272 34.1786C137.358 33.6065 137.551 33.4295 138.113 33.451C139.188 33.4921 140.262 33.4796 141.337 33.451C141.776 33.4402 141.901 33.5564 141.826 34.0123C141.203 37.855 140.595 41.6994 140.003 45.5456C139.94 45.9514 139.786 46.1141 139.374 46.0944C138.801 46.0747 138.235 46.0944 137.669 46.0944Z" fill="white"/>
<path d="M159.907 33.4635C160.488 33.5797 161.482 33.1059 161.863 33.6601C162.16 34.0946 161.757 35.0135 161.648 35.7161C161.163 38.8252 160.638 41.9288 160.203 45.0432C160.083 45.9067 159.771 46.1945 158.908 46.1159C158.014 46.0517 157.117 46.0487 156.222 46.1069C155.669 46.1302 155.481 45.9818 155.576 45.4025C156.19 41.6517 156.787 37.8973 157.366 34.1393C157.443 33.6387 157.603 33.4009 158.152 33.4528C158.702 33.5046 159.231 33.4635 159.907 33.4635Z" fill="white"/>
<path d="M163.074 29.0672C163.047 30.569 161.598 31.9385 160.072 31.9063C159.788 31.9062 159.507 31.8491 159.246 31.7383C158.985 31.6275 158.749 31.4653 158.552 31.2614C158.355 31.0575 158.201 30.8161 158.099 30.5516C157.998 30.287 157.951 30.0047 157.961 29.7216C158.025 28.2091 159.485 26.8307 160.975 26.8772C161.258 26.8769 161.539 26.934 161.8 27.0452C162.061 27.1564 162.297 27.3193 162.493 27.524C162.69 27.7287 162.842 27.971 162.942 28.2363C163.042 28.5015 163.086 28.7842 163.074 29.0672Z" fill="white"/>
<path d="M140.812 26.8754C141.097 26.8701 141.379 26.9219 141.643 27.0276C141.907 27.1333 142.147 27.2909 142.349 27.491C142.551 27.691 142.711 27.9295 142.819 28.1923C142.927 28.4551 142.98 28.7368 142.977 29.0207C143.001 30.5029 141.545 31.9188 140.024 31.9081C138.771 31.9081 137.856 30.9981 137.859 29.7859C137.866 28.2806 139.29 26.8807 140.812 26.8754Z" fill="white"/>
</svg>
