<svg width="73" height="72" viewBox="0 0 73 72" fill="none" xmlns="http://www.w3.org/2000/svg">
<circle cx="30" cy="30" r="30" fill="#F5F8FA" fill-opacity="0.5"/>
<path d="M72.9924 31.5592C73.0221 31.9679 72.9649 32.3782 72.8245 32.7632C72.6873 33.2003 72.4633 33.6053 72.166 33.9539C71.8687 34.3025 71.5041 34.5875 71.094 34.792C70.6837 35.0135 70.2295 35.1419 69.7639 35.168C69.2982 35.1942 68.8325 35.1174 68.3999 34.9432C68.2634 34.8674 68.104 34.8439 67.9515 34.8771C67.7989 34.9103 67.6636 34.9979 67.571 35.1235C66.7897 35.9524 65.9649 36.7233 65.1773 37.5377C65.0125 37.7181 64.8103 37.8604 64.5848 37.9545C64.3593 38.0486 64.1159 38.0924 63.8717 38.0827C61.2149 38.0682 58.556 38.0827 55.8992 38.0827H55.3998C55.9614 38.9117 56.5189 39.6763 57.0287 40.4824C57.2744 40.9059 57.4864 41.3479 57.6628 41.8046C57.953 42.4822 57.7561 43.0479 57.1758 43.2966C56.5955 43.5453 56.0857 43.2738 55.8122 42.6045C55.0685 40.712 53.7379 39.1077 52.0155 38.0268C46.2439 34.3588 38.5843 37.9004 37.6434 44.6705C37.4559 45.9845 37.5478 47.3233 37.913 48.5994C38.2783 49.8755 38.9087 51.0601 39.763 52.076C40.6174 53.0918 41.6764 53.916 42.871 54.4946C44.0657 55.0733 45.3689 55.3933 46.6957 55.434C47.6801 55.4692 48.0158 55.8215 48.0199 56.8182C48.0199 57.5622 48.0199 58.3082 48.0199 59.0522C48.0331 59.1028 48.0526 59.1515 48.078 59.1972H48.5981C51.8477 59.1972 55.0972 59.2097 58.3384 59.1972C58.6404 59.172 58.9427 59.242 59.2029 59.3974C59.4631 59.5527 59.6681 59.7856 59.7891 60.0634C60.6657 61.7213 61.5921 63.3542 62.4832 65.0058C62.5022 65.064 62.5335 65.1175 62.5749 65.1626C62.6163 65.2077 62.6668 65.2434 62.7232 65.2674C62.7795 65.2913 62.8403 65.3029 62.9015 65.3014C62.9627 65.2999 63.0229 65.2853 63.078 65.2587C63.5159 65.1248 63.9764 65.0804 64.4318 65.1281C64.8873 65.1758 65.3285 65.3147 65.7291 65.5365C66.1298 65.7583 66.4817 66.0584 66.764 66.419C67.0462 66.7796 67.253 67.1934 67.372 67.6356C67.6094 68.5112 67.4922 69.4451 67.0457 70.2349C66.5992 71.0247 65.8594 71.6067 64.9867 71.8547C64.4437 72.0289 63.8628 72.0468 63.3101 71.9065C61.0305 71.2849 60.0233 69.1318 60.9704 66.9745C61.0004 66.878 61.0111 66.7765 61.0018 66.6759C60.9926 66.5753 60.9636 66.4775 60.9165 66.3881C60.0647 64.7965 59.184 63.2216 58.3322 61.6218C58.2664 61.5062 58.1716 61.4098 58.0571 61.3422C57.9426 61.2746 57.8124 61.2381 57.6794 61.2364C54.6164 61.2509 51.5555 61.2364 48.4925 61.2364C48.3474 61.2364 48.2002 61.255 48.022 61.2674V61.858C48.022 64.7862 48.022 67.7122 48.022 70.6383C48.022 71.1398 47.908 71.5397 47.5619 71.805C47.3813 71.9354 47.163 72.0031 46.9402 71.9977H42.526C42.3351 72.0011 42.1468 71.9533 41.9806 71.8593C41.8144 71.7652 41.6764 71.6284 41.581 71.4631C41.4526 71.2065 41.3946 70.9205 41.4131 70.6342C41.4339 69.8218 41.4297 69.0074 41.4131 68.1972C41.4131 68.0542 41.2888 67.82 41.1769 67.7827C39.1733 67.2304 37.2514 66.4159 35.4612 65.3602C34.7939 66.0337 34.1432 66.6989 33.4841 67.3537C32.7298 68.108 32.2096 68.0459 31.4117 67.1693C29.6692 65.2159 27.8191 63.361 25.8701 61.6135C24.9376 60.7846 24.8609 60.2645 25.6442 59.4811C26.2908 58.8367 26.9457 58.1984 27.5094 57.6451C26.6577 55.5935 25.8515 53.6207 24.9873 51.565H22.3864C21.3502 51.565 21 51.2086 21 50.2015C21 47.3914 21 44.5814 21 41.7714C21 40.8223 21.371 40.4431 22.3118 40.4348C23.1408 40.4348 23.9697 40.4348 24.7987 40.4223C24.8803 40.417 24.9594 40.3924 25.0296 40.3506C25.0998 40.3089 25.1592 40.2511 25.2028 40.182C25.7528 38.1865 26.5639 36.2725 27.6151 34.4894C26.9374 33.8118 26.2784 33.1569 25.6235 32.4979C24.8132 31.6835 24.9604 31.1137 26.0774 30.2184C27.953 28.7094 29.6596 27.0015 31.1672 25.1248C32.0915 23.9788 32.651 23.813 33.4696 24.6316C34.1266 25.2885 34.7732 25.9578 35.3348 26.5277L41.4194 24.0037C41.4194 23.2017 41.4194 22.2712 41.4194 21.3428C41.4194 20.3606 41.7841 20.0021 42.7747 20C44.0948 20 45.4149 20 46.7351 20C47.6345 20 48.0054 20.3709 48.0075 21.2662C48.0075 24.213 48.0075 27.1584 48.0075 30.1024V30.7033H48.6023C51.599 30.7033 54.5957 30.7033 57.5903 30.7033C57.7539 30.7222 57.9193 30.6876 58.0616 30.6047C58.204 30.5217 58.3156 30.395 58.3799 30.2433C59.1902 28.7202 60.0378 27.2136 60.8668 25.7133C60.9534 25.585 61.0032 25.4354 61.0105 25.2808C61.0178 25.1262 60.9824 24.9726 60.9082 24.8367C60.6748 24.3035 60.5807 23.7198 60.6347 23.1403C60.6886 22.5608 60.889 22.0044 61.2168 21.5235C61.5447 21.0426 61.9894 20.6529 62.5091 20.3909C63.0289 20.1289 63.6067 20.0032 64.1883 20.0256C64.7699 20.0481 65.3363 20.2179 65.8343 20.5191C66.3324 20.8204 66.7457 21.2432 67.0356 21.7479C67.3254 22.2527 67.4823 22.8227 67.4915 23.4047C67.5007 23.9866 67.3619 24.5614 67.0881 25.075C66.7237 25.7707 66.1287 26.318 65.405 26.6231C64.6813 26.9282 63.874 26.9721 63.1215 26.7474C62.7568 26.6375 62.6179 26.7474 62.4563 27.0375C61.5714 28.6725 60.6533 30.2889 59.7767 31.9301C59.6583 32.1913 59.4622 32.4096 59.2152 32.5554C58.9682 32.7011 58.6823 32.7671 58.3965 32.7445C55.1469 32.728 51.8974 32.7445 48.6458 32.7445H48.0241V34.5681C48.456 34.6109 48.8841 34.6857 49.3048 34.792C50.2954 35.1152 51.2695 35.4986 52.2559 35.8426C52.5316 35.9579 52.8242 36.0279 53.1222 36.0498C56.5085 36.0623 59.8927 36.0498 63.277 36.0664C63.4423 36.0747 63.6073 36.0452 63.7596 35.9803C63.9118 35.9153 64.0473 35.8165 64.1557 35.6913C64.8209 34.993 65.5069 34.3133 66.199 33.6439C66.4063 33.4367 66.485 33.2668 66.3503 32.9891C65.6229 31.495 66.3628 29.1719 68.4352 28.4798C70.3335 27.8436 72.2877 28.8942 72.8618 30.8525C72.9319 31.0824 72.9757 31.3195 72.9924 31.5592ZM23.0496 49.5342H25.636C26.5126 49.5342 26.7924 49.7414 26.9955 50.5703C27.5177 52.7612 28.3799 54.8568 29.5507 56.7809C30.0978 57.6762 30.0502 57.9456 29.3103 58.6833C28.728 59.2635 28.1436 59.8396 27.5882 60.3888L32.6034 65.4037C33.1567 64.8401 33.7204 64.2598 34.2924 63.6837C35.0488 62.9232 35.3099 62.8797 36.2342 63.4413C38.0618 64.5643 40.053 65.3963 42.1364 65.9073C43.3239 66.1953 43.4482 66.3777 43.4482 67.6252V69.9399H45.9517V57.4441C43.0275 57.1374 40.5469 55.9355 38.5636 53.7865C36.7421 51.8215 35.6668 49.2805 35.5244 46.605C35.3821 43.9296 36.1817 41.2888 37.7844 39.1417C39.8257 36.4477 42.5716 34.9287 45.933 34.5495V22.0702H43.4462C43.4462 22.9447 43.4462 23.7881 43.4462 24.6316C43.4462 25.5475 43.2389 25.8231 42.3457 26.0345C40.1272 26.5731 38.007 27.4562 36.0622 28.6518C35.3244 29.0973 34.9949 29.0289 34.3566 28.3886C33.7598 27.7918 33.1712 27.1867 32.6241 26.6313L27.5964 31.6504C28.1581 32.1954 28.7549 32.7673 29.3414 33.3476C30.0377 34.0376 30.0916 34.3402 29.5818 35.1691C28.405 37.0886 27.5365 39.1808 27.0079 41.3694C26.7841 42.2853 26.5333 42.4635 25.5904 42.4656H23.0496V49.5342ZM65.4136 23.8648C65.504 23.5663 65.4935 23.2462 65.3835 22.9543C65.2736 22.6624 65.0704 22.4149 64.8055 22.2502C64.5405 22.0854 64.2287 22.0127 63.9182 22.0433C63.6077 22.0738 63.316 22.2059 63.0883 22.419C62.8605 22.6322 62.7094 22.9145 62.6585 23.2223C62.6075 23.53 62.6595 23.846 62.8064 24.1212C62.9532 24.3964 63.1868 24.6155 63.4708 24.7445C63.7549 24.8735 64.0735 24.9052 64.3774 24.8346C64.6199 24.7779 64.8433 24.6585 65.0252 24.4883C65.207 24.3181 65.341 24.1031 65.4136 23.8648ZM64.1329 67.1258C63.8529 67.1114 63.575 67.1804 63.3343 67.3239C63.0936 67.4674 62.9008 67.6791 62.7803 67.9321C62.6598 68.1852 62.6171 68.4683 62.6575 68.7456C62.6979 69.023 62.8196 69.2821 63.0072 69.4903C63.1949 69.6985 63.44 69.8464 63.7117 69.9153C63.9834 69.9842 64.2694 69.971 64.5336 69.8774C64.7978 69.7838 65.0283 69.614 65.196 69.3895C65.3637 69.1649 65.4611 68.8956 65.4758 68.6158C65.4928 68.2407 65.3614 67.8741 65.11 67.5953C64.8587 67.3164 64.5076 67.1477 64.1329 67.1258ZM69.5211 33.1403C69.7994 33.1424 70.0722 33.0619 70.3048 32.9091C70.5375 32.7564 70.7197 32.5381 70.8285 32.2819C70.9373 32.0257 70.9677 31.743 70.916 31.4695C70.8643 31.196 70.7328 30.9439 70.538 30.7451C70.3432 30.5463 70.0939 30.4096 69.8215 30.3523C69.5491 30.295 69.2658 30.3196 69.0074 30.4231C68.749 30.5266 68.527 30.7043 68.3695 30.9337C68.212 31.1632 68.1259 31.4342 68.1222 31.7125C68.1211 32.0861 68.2678 32.445 68.5302 32.7109C68.7926 32.9769 69.1496 33.1282 69.5232 33.1321L69.5211 33.1403Z" fill="#6F63DE"/>
<path d="M72.9136 60.7535C72.8474 61.2994 72.6477 61.8206 72.3321 62.2709C72.0166 62.7213 71.5949 63.0869 71.1044 63.3356C70.4824 63.6517 69.7792 63.7717 69.0876 63.6795C68.3959 63.5874 67.7486 63.2875 67.2311 62.8196C66.7215 62.3681 66.3616 61.772 66.1994 61.1107C66.0373 60.4495 66.0805 59.7545 66.3234 59.1185C66.4039 58.9832 66.43 58.8224 66.3966 58.6685C66.3631 58.5147 66.2725 58.3792 66.1431 58.2896C65.4302 57.614 64.7608 56.8949 64.0479 56.2173C63.8669 56.0555 63.6356 55.9611 63.393 55.95C61.2605 55.9313 59.1301 55.95 56.9976 55.9375C56.3489 55.9375 55.9427 55.6578 55.8329 55.1708C55.6733 54.4621 56.1458 53.915 56.9561 53.9108C59.0037 53.9108 61.0533 53.9647 63.0987 53.8839C64.1909 53.8404 65.0116 54.1326 65.7141 54.9739C66.3307 55.672 66.9896 56.3315 67.687 56.9488C67.7625 57.0155 67.8529 57.0633 67.9505 57.0882C68.0482 57.1131 68.1504 57.1143 68.2486 57.0918C68.7164 56.9032 69.2198 56.8193 69.7234 56.8461C70.227 56.8728 70.7187 57.0094 71.1639 57.2464C71.6091 57.4834 71.997 57.815 72.3003 58.2179C72.6037 58.6208 72.8151 59.0852 72.9198 59.5785C72.9971 59.9666 72.9949 60.3663 72.9136 60.7535ZM69.5211 58.8636C69.2428 58.8714 68.9731 58.9613 68.7458 59.1221C68.5185 59.2828 68.3438 59.5072 68.2437 59.7669C68.1436 60.0267 68.1226 60.3102 68.1833 60.5819C68.244 60.8536 68.3837 61.1013 68.5848 61.2938C68.7859 61.4862 69.0395 61.615 69.3136 61.6637C69.5876 61.7124 69.87 61.679 70.1252 61.5677C70.3803 61.4563 70.5968 61.272 70.7475 61.0379C70.8981 60.8038 70.9762 60.5304 70.9718 60.252C70.9691 60.0652 70.9293 59.8807 70.8547 59.7094C70.7801 59.5381 70.6721 59.3833 70.5371 59.2541C70.4021 59.1249 70.2428 59.0239 70.0683 58.9568C69.8939 58.8898 69.7079 58.8581 69.5211 58.8636Z" fill="#6F63DE"/>
<path d="M72.7851 47.1593C72.5551 47.8076 72.1359 48.372 71.5818 48.7795C71.0276 49.187 70.3639 49.4189 69.6765 49.4452C68.9891 49.4715 68.3097 49.2911 67.7259 48.9272C67.1422 48.5633 66.6811 48.0326 66.4021 47.4039C66.3565 47.2717 66.2654 47.1599 66.1451 47.0886C66.0248 47.0173 65.8831 46.9909 65.7452 47.0143C64.9515 47.035 64.1557 47.0309 63.3619 47.0143C62.6925 47.0143 62.249 46.5998 62.2387 46.0237C62.2283 45.4476 62.6677 45.0125 63.3288 44.9876C64.1743 44.9627 65.0198 44.9876 65.8633 44.9669C65.9603 44.9587 66.0542 44.9293 66.1384 44.8805C66.2226 44.8318 66.295 44.765 66.3503 44.685C67.0342 43.2883 68.3295 42.447 69.6827 42.5547C71.3137 42.6874 72.4598 43.6489 72.9033 45.2487C72.9462 45.4535 72.9732 45.6614 72.9841 45.8704C73.0132 46.3094 72.9453 46.7495 72.7851 47.1593ZM70.9614 46.0154C70.9687 45.8246 70.9374 45.6343 70.8694 45.4558C70.8014 45.2773 70.6981 45.1144 70.5657 44.9768C70.4332 44.8392 70.2744 44.7298 70.0986 44.655C69.9229 44.5802 69.7338 44.5417 69.5429 44.5417C69.3519 44.5417 69.1628 44.5802 68.9871 44.655C68.8114 44.7298 68.6525 44.8392 68.5201 44.9768C68.3876 45.1144 68.2843 45.2773 68.2163 45.4558C68.1483 45.6343 68.117 45.8246 68.1243 46.0154C68.1383 46.3823 68.2939 46.7294 68.5584 46.984C68.8229 47.2385 69.1757 47.3807 69.5429 47.3807C69.91 47.3807 70.2628 47.2385 70.5273 46.984C70.7918 46.7294 70.9474 46.3823 70.9614 46.0154Z" fill="#6F63DE"/>
<path d="M46.9775 53.7202C44.9562 53.7273 43.0127 52.9408 41.5654 51.5297C40.1181 50.1187 39.2826 48.1959 39.2386 46.1751C39.1946 44.1543 39.9456 42.197 41.3302 40.7243C42.7147 39.2516 44.622 38.3812 46.6418 38.3003C47.4417 38.2589 47.9598 38.6298 47.993 39.2681C48.0262 39.9063 47.5557 40.2794 46.7682 40.3249C45.4115 40.3823 44.1195 40.9203 43.1232 41.8429C42.1269 42.7655 41.4914 44.0124 41.3302 45.3606C40.9841 47.9551 42.6359 50.5413 45.1973 51.3992C46.0268 51.6774 46.9093 51.7597 47.7759 51.6398C48.6425 51.5199 49.4695 51.2009 50.1922 50.7079C50.9149 50.2149 51.5135 49.5613 51.9413 48.7982C52.3691 48.0352 52.6144 47.1834 52.658 46.3097C52.7077 45.3399 53.2465 44.9855 53.7481 45.0062C54.4154 45.0352 54.7573 45.5803 54.6951 46.4693C54.5747 48.4336 53.709 50.2779 52.2747 51.6255C50.8403 52.973 48.9456 53.7223 46.9775 53.7202Z" fill="#6F63DE"/>
<path d="M57.4722 47.0122C57.1995 47.0122 56.9378 46.9048 56.7438 46.7131C56.5498 46.5215 56.4392 46.2611 56.436 45.9885C56.4348 45.7245 56.5369 45.4706 56.7204 45.2808C56.9039 45.0911 57.1544 44.9806 57.4183 44.9731C57.5533 44.9712 57.6874 44.996 57.8128 45.0463C57.9381 45.0965 58.0523 45.1711 58.1487 45.2657C58.245 45.3603 58.3217 45.4731 58.3741 45.5975C58.4266 45.7219 58.4539 45.8555 58.4545 45.9906C58.4512 46.2538 58.3478 46.5058 58.1653 46.6956C57.9829 46.8853 57.735 46.9985 57.4722 47.0122Z" fill="#6F63DE"/>
<path d="M52.6 55.9417C52.3996 55.94 52.2042 55.8786 52.0388 55.7655C51.8734 55.6524 51.7454 55.4926 51.6712 55.3065C51.5969 55.1204 51.5798 54.9164 51.6219 54.7205C51.664 54.5245 51.7635 54.3456 51.9076 54.2064C52.0518 54.0673 52.2341 53.9742 52.4314 53.939C52.6287 53.9038 52.832 53.9281 53.0154 54.0089C53.1988 54.0897 53.354 54.2232 53.4612 54.3925C53.5684 54.5617 53.6228 54.7591 53.6175 54.9594C53.6089 55.2233 53.4978 55.4734 53.3079 55.6568C53.1179 55.8402 52.864 55.9424 52.6 55.9417Z" fill="#6F63DE"/>
<path d="M31.0491 45.3855C31.1879 39.2888 35.3203 33.3973 40.9966 31.2131C41.6452 30.9644 42.2152 31.1634 42.4473 31.7167C42.6794 32.27 42.4473 32.8046 41.7675 33.0885C39.9407 33.8299 38.2905 34.9476 36.9243 36.369C34.5647 38.8167 33.1959 42.0519 33.0821 45.4497C33.0803 45.7026 33.0574 45.9549 33.0137 46.204C32.9702 46.4388 32.8428 46.6496 32.6551 46.7972C32.4675 46.9448 32.2325 47.019 31.9941 47.006C31.747 46.989 31.5147 46.882 31.3412 46.7051C31.1678 46.5283 31.0653 46.2939 31.0532 46.0465C31.0346 45.8248 31.0491 45.6051 31.0491 45.3855Z" fill="#6F63DE"/>
</svg>
