<svg width="32" height="52" viewBox="0 0 32 52" fill="none" xmlns="http://www.w3.org/2000/svg">
<path d="M24.7641 25.5278C24.7641 27.0399 24.7585 28.5577 24.7641 30.0697C24.7641 30.6837 24.8424 31.2805 25.0495 31.866C25.3461 32.6789 25.928 33.128 26.7506 33.2872C27.3438 33.4009 27.937 33.3952 28.5301 33.327C28.9498 33.2815 29.3695 33.219 29.7724 33.0768C29.8284 33.0598 29.8843 33.037 29.9347 33.0143C29.9963 32.9859 30.0075 33.0029 30.013 33.0655C30.0186 33.3611 30.0242 33.6623 30.0298 33.9579C30.0354 34.4525 30.0354 34.9527 30.0522 35.4473C30.0634 35.8168 30.0634 36.1863 30.069 36.5558C30.0802 37.2493 30.097 37.9428 30.1026 38.6363C30.1082 38.8352 30.1362 38.7954 29.9515 38.8523C29.252 39.0797 28.5301 39.2275 27.8027 39.3468C26.8234 39.5117 25.8329 39.5401 24.848 39.506C23.74 39.4662 22.6544 39.3127 21.6024 38.9319C20.6903 38.6022 19.8677 38.1247 19.185 37.4198C18.6198 36.8343 18.1889 36.1578 17.8755 35.4018C17.5398 34.5946 17.3551 33.7476 17.2376 32.8836C17.1704 32.3663 17.1369 31.849 17.1201 31.326C17.1145 31.1214 17.1145 30.9167 17.1145 30.7121C17.1145 27.4151 17.1145 24.1181 17.1145 20.8268C17.1145 20.7017 17.1145 20.7017 16.9914 20.7017C15.7938 20.7017 14.5963 20.7017 13.3988 20.7017C13.3148 20.7017 13.2869 20.6846 13.2869 20.5937C13.2869 18.6951 13.2869 16.7908 13.2869 14.8921C13.2869 14.8012 13.3148 14.7784 13.4044 14.7784C14.5851 14.7784 15.7659 14.7784 16.9466 14.7784C17.0697 14.7784 17.0697 14.7784 17.0697 14.6534C17.0697 12.6183 17.0697 10.5833 17.0697 8.54824C17.0697 8.42886 17.0697 8.42886 17.1928 8.42886C19.6774 8.42886 22.162 8.42886 24.641 8.42886C24.7585 8.42886 24.7585 8.42886 24.7585 8.55392C24.7585 10.589 24.7585 12.6183 24.7585 14.6534C24.7585 14.7841 24.7585 14.7841 24.8928 14.7841C26.6723 14.7841 28.4518 14.7841 30.2257 14.7841C30.3488 14.7841 30.3488 14.7841 30.3488 14.9035C30.3488 16.7964 30.3488 18.6951 30.3488 20.588C30.3488 20.6846 30.3208 20.7074 30.2313 20.7074C28.4518 20.7017 26.6667 20.7074 24.8872 20.7074C24.7585 20.7074 24.7585 20.7074 24.7585 20.8324C24.7641 22.4014 24.7641 23.9646 24.7641 25.5278Z" fill="white"/>
<path d="M2.20496 26.5783C2.20496 22.5992 2.20496 18.62 2.20496 14.6352C2.20496 14.4817 2.18817 14.4987 2.33926 14.4987C4.86862 14.4987 7.39237 14.4987 9.92172 14.4987C10.0448 14.4987 10.0448 14.4987 10.0448 14.6181C10.0448 22.5935 10.0448 30.5631 10.0448 38.5385C10.0448 38.6635 10.0448 38.6635 9.92732 38.6635C7.39237 38.6635 4.86302 38.6635 2.32807 38.6635C2.23294 38.6635 2.21056 38.6408 2.21056 38.5442C2.20496 34.5593 2.20496 30.5688 2.20496 26.5783Z" fill="white"/>
<path d="M11.1024 3.67551C11.192 3.76646 11.2367 3.88583 11.2871 3.99384C11.9082 5.24443 12.0425 6.55755 11.7516 7.91614C11.3822 9.63854 10.4029 10.9005 8.89204 11.7418C8.05265 12.2079 7.15171 12.4524 6.19481 12.4581C6.16124 12.4581 6.12766 12.4581 6.09409 12.4581C6.08289 12.2932 6.09409 12.1284 6.09409 11.9578C6.09968 11.0654 6.09968 10.1729 6.09968 9.28042C6.09968 8.94504 6.09968 8.60965 6.10528 8.27426C6.11647 7.71718 6.11087 7.16579 6.11087 6.60871C6.13885 6.59165 6.16124 6.5746 6.18922 6.55755C7.36995 5.86404 8.5451 5.17621 9.72583 4.48271C10.1847 4.21553 10.6436 3.94836 11.1024 3.67551Z" fill="white"/>
<path d="M11.1025 3.6755C10.6436 3.94835 10.1848 4.21552 9.7259 4.48838C8.54516 5.18189 7.37002 5.86971 6.18928 6.56322C6.1613 6.58027 6.13892 6.59733 6.11094 6.61438C5.70803 6.38132 5.31072 6.14257 4.90782 5.9095C3.91734 5.32968 2.92127 4.74418 1.93079 4.16436C1.65659 4.0052 1.38799 3.84035 1.11938 3.6755C1.29286 3.33443 1.51669 3.02178 1.76291 2.73187C2.68064 1.66318 3.84459 1.02652 5.21559 0.793456C6.86079 0.509232 8.33252 0.963991 9.64755 1.97015C10.2519 2.43628 10.7388 3.00473 11.1025 3.6755Z" fill="white"/>
<path d="M1.11938 3.67551C1.38798 3.84036 1.66218 3.99952 1.93079 4.16437C2.92126 4.74419 3.91734 5.32969 4.90781 5.90951C5.31072 6.14258 5.70803 6.38133 6.11093 6.61439C6.11653 7.17147 6.11653 7.72287 6.10534 8.27995C6.09974 8.61533 6.09974 8.95072 6.09974 9.28611C6.09974 10.1786 6.09414 11.071 6.09414 11.9635C6.09414 12.1284 6.08295 12.2932 6.09414 12.4637C5.4674 12.4694 4.85745 12.3728 4.26428 12.1625C2.95484 11.6963 1.89721 10.8948 1.16415 9.68402C0.710878 8.93935 0.459062 8.12078 0.363931 7.24537C0.240821 6.11416 0.425487 5.03979 0.929119 4.01658C0.985078 3.90289 1.04104 3.78351 1.11938 3.67551Z" fill="white"/>
<path d="M2.13606 49.1572V44.7652H3.7109C4.07899 44.7652 4.39479 44.8238 4.65831 44.9409C4.92183 45.058 5.1247 45.2274 5.26691 45.4491C5.40913 45.6666 5.48024 45.9322 5.48024 46.2459C5.48024 46.5513 5.40913 46.8148 5.26691 47.0365C5.1247 47.254 4.92183 47.4234 4.65831 47.5447C4.39479 47.6618 4.07899 47.7204 3.7109 47.7204H2.31174L2.45605 47.5698V49.1572H2.13606ZM5.18535 49.1572L4.04344 47.5635H4.40734L5.54926 49.1572H5.18535ZM2.45605 47.5886L2.31174 47.4381H3.7109C4.18356 47.4381 4.54119 47.3335 4.7838 47.1243C5.03058 46.9152 5.15398 46.6224 5.15398 46.2459C5.15398 45.8653 5.03058 45.5725 4.7838 45.3675C4.54119 45.1584 4.18356 45.0538 3.7109 45.0538H2.31174L2.45605 44.897V47.5886ZM8.50271 46.7855H10.8807V47.0679H8.50271V46.7855ZM8.54036 48.8686H11.2508V49.1572H8.22037V44.7652H11.1567V45.0538H8.54036V48.8686ZM14.8268 49.1572V45.0538H13.2457V44.7652H16.7279V45.0538H15.1468V49.1572H14.8268ZM18.1353 49.1572L20.1557 44.7652H20.4756L22.496 49.1572H22.1509L20.2435 44.966H20.3815L18.4804 49.1572H18.1353ZM18.8757 47.9212L18.9824 47.6514H21.6113L21.7179 47.9212H18.8757ZM24.8618 49.1572V44.7652H25.1818V49.1572H24.8618ZM28.2808 49.1572V44.7652H28.6008V48.8686H31.1293V49.1572H28.2808Z" fill="white"/>
</svg>
