<svg width="73" height="71" viewBox="0 0 73 71" fill="none" xmlns="http://www.w3.org/2000/svg">
<circle cx="30" cy="30" r="30" fill="#F5F8FA" fill-opacity="0.5"/>
<path d="M47.089 70.8581C44.0529 70.8581 41.0169 70.835 37.9809 70.8581C37.1219 70.8946 36.2673 70.7141 35.4921 70.3323C34.717 69.9505 34.045 69.3791 33.5352 68.6684C29.7746 63.734 25.9969 58.8107 22.2023 53.8986C21.1011 52.4661 20.7578 50.9162 21.1664 49.1103C22.57 42.9084 23.9164 36.6917 25.2853 30.4751C25.442 29.6829 25.7804 28.9405 26.2725 28.3095C26.7646 27.6784 27.3962 27.1769 28.1149 26.8466C33.6707 24.0921 39.2204 21.3277 44.7639 18.5536C45.4484 18.1898 46.2079 18 46.9786 18C47.7494 18 48.5089 18.1898 49.1933 18.5536C54.8077 21.3501 60.4207 24.1466 66.0323 26.9431C67.5217 27.6898 68.3962 28.9713 68.7578 30.6177C70.1199 36.8301 71.4819 43.044 72.844 49.2592C73.0413 50.0598 73.0516 50.897 72.8741 51.7025C72.6966 52.5079 72.3362 53.259 71.8224 53.8944C67.9869 58.8443 64.1643 63.8025 60.3546 68.7691C59.2779 70.1659 57.903 70.8811 56.1439 70.8664C53.1242 70.8371 50.1127 70.8581 47.089 70.8581ZM46.9991 69.1613V69.1298C50.0167 69.1298 53.0323 69.1067 56.0499 69.1424C57.3738 69.1571 58.3565 68.6327 59.1635 67.5757C62.9119 62.6818 66.6746 57.7935 70.4515 52.9108C70.8423 52.4363 71.1154 51.8719 71.2478 51.2657C71.3801 50.6595 71.3677 50.0294 71.2115 49.4291C69.8359 43.295 68.482 37.1552 67.1499 31.0099C67.0481 30.4524 66.8186 29.9278 66.4804 29.4792C66.1423 29.0307 65.7051 28.6711 65.2049 28.4301C59.66 25.6574 54.1151 22.8826 48.5702 20.1056C48.0789 19.8453 47.5336 19.7108 46.9807 19.7137C46.4278 19.7166 45.8839 19.8569 45.3953 20.1224C39.9062 22.884 34.4096 25.6357 28.9056 28.3777C28.3636 28.6303 27.8891 29.0135 27.5223 29.4948C27.1556 29.9761 26.9075 30.5412 26.7992 31.1421C25.4712 37.2874 24.1262 43.4271 22.7641 49.5613C22.62 50.1273 22.6097 50.7205 22.7341 51.2914C22.8585 51.8624 23.1139 52.3946 23.4792 52.8437C27.2698 57.7599 31.0529 62.6783 34.8285 67.5987C35.1907 68.1077 35.6699 68.5168 36.2236 68.7895C36.7772 69.0621 37.388 69.1898 38.0014 69.1613C41.0006 69.1424 43.9998 69.1613 46.9991 69.1613Z" fill="#6F63DE"/>
<path d="M48.0696 27.2262C47.9797 28.2456 47.8837 29.3698 47.7836 30.4961C47.7366 31.0582 48.2719 31.3853 48.5191 31.4147C51.5799 31.7659 54.4306 33.1844 56.5954 35.4333C56.6672 35.5099 56.756 35.5675 56.8541 35.6015C56.9523 35.6354 57.0569 35.6446 57.1593 35.6283C57.9438 35.6137 58.1931 34.9383 58.665 34.5587C59.2187 34.114 59.7029 33.5834 60.228 33.0905C60.8143 32.5536 61.4824 32.5599 61.8931 33.0905C62.3037 33.6212 62.2016 34.2671 61.5315 34.7474C60.6141 35.4039 59.6784 36.0373 58.7488 36.6749C58.4893 36.8511 58.3095 37.6272 58.475 37.9124C60.0686 40.639 60.7714 43.5753 60.4343 46.7403C60.3587 47.4597 60.753 47.8917 61.4375 47.9777C62.4753 48.1092 63.5098 48.2693 64.5409 48.458C65.2703 48.5902 65.6482 49.1669 65.4889 49.8108C65.3295 50.4547 64.7656 50.7693 64.0403 50.5428C62.9882 50.2135 61.9442 49.8612 60.9001 49.5088C60.4915 49.3725 59.8275 49.6787 59.6866 50.0814C58.6851 53.013 56.7438 55.5088 54.1805 57.1601C53.9333 57.3237 53.8904 57.5082 53.8107 57.8123C53.6472 58.429 54.0375 58.7247 54.2336 59.1274C54.6218 59.9223 55.0692 60.6858 55.4737 61.4723C55.8476 62.1959 55.678 62.8335 55.0488 63.1124C54.4195 63.3914 53.8965 63.1124 53.6186 62.3511C53.21 61.2646 52.8259 60.1677 52.4357 59.0729C52.3417 58.8065 51.6491 58.4437 51.3774 58.5422C48.467 59.5794 45.2945 59.5356 42.4124 58.4185C42.1611 58.322 42.0385 58.4479 41.826 58.538C41.2458 58.7813 41.2437 59.3204 41.0476 59.7587C40.8229 60.2642 40.639 60.7864 40.4347 61.3024C40.2998 61.6443 40.1772 61.9945 40.0261 62.3259C39.7196 62.9551 39.1373 63.1649 38.5959 62.8901C38.0545 62.6153 37.842 61.9903 38.1873 61.3758C38.7512 60.3418 39.358 59.3329 39.9586 58.3199C40.0659 58.0999 40.0974 57.8492 40.0481 57.6085C39.9987 57.3677 39.8714 57.1513 39.6869 56.9944C37.1616 55.2855 35.2703 52.7536 34.3177 49.8066C34.2222 49.5648 34.0437 49.3672 33.816 49.2513C33.5882 49.1354 33.327 49.1091 33.0816 49.1774C32.0111 49.5088 30.9385 49.8318 29.8597 50.1296C29.1998 50.3121 28.6625 49.9912 28.5092 49.3725C28.356 48.7538 28.7135 48.1728 29.4164 48.0553C30.5196 47.8708 31.6331 47.7386 32.7425 47.6044C33.0049 47.5634 33.2427 47.4223 33.4082 47.2092C33.5737 46.9961 33.6548 46.7268 33.6353 46.455C33.3665 43.3919 34.092 40.3235 35.6988 37.7278C35.8215 37.4963 35.8591 37.2273 35.8047 36.9697C35.7504 36.7122 35.6076 36.4832 35.4026 36.3247C34.5118 35.6955 33.6231 35.0537 32.7466 34.3951C32.1337 33.9274 32.0295 33.231 32.4687 32.7172C32.908 32.2033 33.5086 32.2117 34.0787 32.7717C34.8959 33.5813 35.7131 34.4056 36.514 35.2257C36.7183 35.4228 37.4743 35.4354 37.6724 35.2403C39.8117 33.099 42.5868 31.7532 45.5567 31.4168C45.7834 31.3895 46.0286 31.098 46.1144 30.8358C46.4393 29.8333 46.1144 28.9482 46.0593 27.9394C46.0388 27.5723 46.0041 27.199 46.002 26.8298C46.002 26.1188 46.4107 25.649 47.0236 25.6364C47.6365 25.6238 48.0696 26.1083 48.0696 26.8403V27.2262ZM36.0604 45.3245C36.0604 45.4735 36.0604 45.6224 36.0604 45.7692C36.0911 46.4382 36.0931 46.4341 36.7306 46.2306L41.7361 44.6408C42.5533 44.3807 42.6432 44.0242 42.0242 43.4096C40.7268 42.1239 39.4131 40.855 38.124 39.5609C37.8379 39.2715 37.7153 39.2778 37.511 39.6427C36.5385 41.4087 36.1197 43.3173 36.0604 45.3245ZM42.6391 48.1791C40.8004 48.4392 38.8799 48.7139 36.9492 48.9824C36.7449 49.0117 36.6713 49.0642 36.7571 49.2949C37.5536 51.4612 38.9667 53.3314 40.8126 54.6621C41.0435 54.8299 41.1375 54.769 41.2213 54.5174C41.9159 52.6696 42.6248 50.826 43.3134 48.9782C43.5218 48.4475 43.295 48.1539 42.6391 48.1791ZM48.6826 34.07C48.3618 34.0008 48.417 34.2357 48.4313 34.4412C48.5681 36.3771 48.7009 38.3151 48.8399 40.251C48.8889 40.9137 49.2485 41.113 49.7797 40.7543C51.3774 39.6805 52.9608 38.5857 54.5605 37.516C54.8465 37.323 54.777 37.1993 54.5748 37.0294C54.1846 36.7022 53.8086 36.354 53.4021 36.0478C52.0086 35.0051 50.3888 34.3263 48.6826 34.07ZM57.8989 46.6543C58.0517 45.7886 58.0662 44.9031 57.9418 44.0326C57.7772 42.5202 57.3179 41.0572 56.5913 39.7308C56.5218 39.5987 56.481 39.3114 56.2235 39.5714C54.7689 40.9851 53.2999 42.384 51.8555 43.8102C51.5286 44.1332 51.6368 44.5003 52.0945 44.6597C54.0089 45.3224 55.9416 45.9768 57.8886 46.6438L57.8989 46.6543ZM46.9868 56.6756C48.0536 56.688 49.116 56.5331 50.1372 56.2162C50.411 56.1386 50.4846 56.0589 50.3211 55.7716C49.3752 54.0937 48.4537 52.3864 47.5139 50.698C47.1686 50.0793 46.7866 50.0688 46.4331 50.6708C45.4627 52.3193 44.5106 53.9783 43.534 55.6248C43.3481 55.9415 43.4012 56.0443 43.7383 56.1512C44.7879 56.4988 45.884 56.6757 46.9868 56.6756ZM50.6316 48.8041C50.6491 48.9069 50.673 49.0085 50.7032 49.1082C51.361 50.9455 52.0291 52.7786 52.6788 54.6201C52.785 54.918 52.8954 54.941 53.1365 54.769C54.9611 53.4829 56.3737 51.6708 57.196 49.5613C57.2982 49.3096 57.2778 49.2194 56.9917 49.1753C55.0876 48.8712 53.1896 48.5461 51.2854 48.242C50.9156 48.1833 50.6541 48.3553 50.6316 48.8041ZM39.3947 37.1427C41.1109 38.3654 42.7638 39.5567 44.4309 40.7271C44.8947 41.0522 45.2236 40.8865 45.2808 40.3076C45.4708 38.3906 45.62 36.4694 45.8202 34.5545C45.8754 34.0448 45.6833 34.0071 45.289 34.0763C43.0661 34.4664 41.0093 35.5349 39.3866 37.1427H39.3947ZM46.9725 47.4639C47.3887 47.4684 47.7969 47.3459 48.1452 47.1119C48.4935 46.8779 48.7662 46.5429 48.9287 46.1495C49.0911 45.756 49.1361 45.3219 49.0577 44.9022C48.9794 44.4825 48.7814 44.0962 48.4888 43.7923C48.1962 43.4883 47.8222 43.2805 47.4143 43.1952C47.0064 43.1099 46.5831 43.1509 46.1979 43.3131C45.8128 43.4752 45.4833 43.7512 45.2513 44.106C45.0192 44.4608 44.8951 44.8783 44.8947 45.3057C44.8887 45.5887 44.9381 45.87 45.0401 46.133C45.142 46.396 45.2945 46.6353 45.4883 46.8366C45.6821 47.0379 45.9134 47.1972 46.1684 47.3049C46.4233 47.4127 46.6968 47.4667 46.9725 47.4639Z" fill="#6F63DE"/>
</svg>
