<svg width="77" height="74" viewBox="0 0 77 74" fill="none" xmlns="http://www.w3.org/2000/svg">
<circle cx="30" cy="30" r="30" fill="#F5F8FA" fill-opacity="0.5"/>
<path d="M61.2163 43.4991C65.5326 43.3689 69.2121 39.7054 69.3584 35.3963C69.3958 34.3083 69.3584 33.2167 69.378 32.127C69.3891 32.0128 69.3618 31.8981 69.3004 31.8012C69.239 31.7043 69.1471 31.6306 69.0391 31.5919C68.0118 31.0729 67.4481 30.2257 67.4802 29.0681C67.5106 27.9427 68.0777 27.1222 69.1122 26.6585C69.3423 26.5568 69.3619 26.4106 69.3815 26.2001C69.576 24.0366 71.2454 22.5366 73.35 22.6204C75.4101 22.7025 76.9725 24.3898 76.9796 26.5586C76.9796 29.3731 76.9957 32.1858 76.9796 35.0003C76.9706 39.2352 75.477 43.3329 72.7588 46.5803C70.0406 49.8277 66.2699 52.0193 62.1027 52.7737C60.8743 53.0038 59.6239 53.0948 58.3751 53.0448C58.0183 53.0306 57.8649 53.1483 57.8596 53.4943C57.8566 53.5933 57.8447 53.6918 57.8239 53.7886C57.7508 54.1364 57.5403 54.527 57.6349 54.8195C57.7294 55.112 58.2163 54.9158 58.5267 55.0317C59.3025 55.3242 59.8572 55.977 59.859 56.8153C59.8679 61.3314 59.8893 65.8492 59.8465 70.3706C59.8287 72.3914 58.1039 73.9681 56.0189 73.9734C51.7187 73.9859 47.4203 73.9734 43.1201 73.9734C41.7717 73.9734 40.4251 73.9734 39.0785 73.9734C36.783 73.9627 35.1421 72.3361 35.1385 70.0495C35.129 65.7095 35.129 61.3694 35.1385 57.0294C35.1385 55.7808 35.8198 55.0371 37.0844 54.9604C37.409 54.9408 37.4411 54.8373 37.3662 54.5734C37.2396 54.0793 37.2824 53.4087 36.9703 53.1304C36.6884 52.8807 36.0267 53.052 35.5327 53.043C27.2783 52.8986 19.8247 46.5722 18.3603 38.4569C18.1258 37.2107 18.0064 35.9456 18.0036 34.6775C18.0036 31.904 17.9911 29.1305 18.0125 26.3571C18.0304 24.4718 19.4109 22.9415 21.305 22.6436C23.069 22.3654 24.9079 23.4659 25.4073 25.237C25.632 26.0431 25.9227 26.6246 26.6219 27.1757C28.0684 28.3137 27.7723 30.5645 26.1403 31.4742C25.7301 31.706 25.6053 31.9397 25.6177 32.3891C25.673 33.9088 25.4947 35.4355 25.8514 36.9408C26.7022 40.6061 30.157 43.4777 33.783 43.4884C33.5226 42.9694 33.2711 42.4539 33.2372 41.8671C33.1641 40.7399 33.6296 39.8481 34.4269 39.0811C35.3954 38.1448 35.3793 37.5366 34.4269 36.5841C32.8074 34.9522 32.8038 33.1329 34.4376 31.4849C34.666 31.2662 34.8462 31.0022 34.9666 30.7098C35.087 30.4174 35.145 30.103 35.1367 29.7869C35.1367 27.8499 35.0529 25.9129 35.5933 24.0099C36.3653 21.3125 38.027 18.9557 40.3084 17.3226C42.5898 15.6896 45.3565 14.8764 48.1587 15.0152C53.7752 15.2614 58.6069 19.5241 59.6485 25.1175C59.9321 26.6335 59.8554 28.1496 59.8501 29.6781C59.8381 30.0231 59.8994 30.3668 60.0297 30.6865C60.16 31.0062 60.3565 31.2947 60.6063 31.533C62.1759 33.0937 62.158 34.9664 60.5903 36.5449C59.6022 37.5401 59.5986 38.1127 60.5742 39.0954C61.9137 40.4474 62.0903 41.6049 61.2163 43.4991ZM56.0564 31.1192C56.0564 31.7792 56.0564 32.275 56.0564 32.769C56.0707 35.9795 54.7455 38.4997 52.0683 40.2833C51.7829 40.4741 51.7615 40.615 51.9078 40.8879C52.2296 41.5261 52.6895 42.0847 53.2541 42.5231C53.8186 42.9614 54.4737 43.2686 55.1717 43.4224C55.9547 43.6007 56.752 43.4741 57.5386 43.5455C57.847 43.5839 58.1601 43.5432 58.4485 43.4271C58.7368 43.311 58.9908 43.1234 59.1866 42.882C60.0784 41.9188 60.1069 41.3231 59.1866 40.4081C58.6854 39.9123 58.2573 39.3808 58.079 38.6852C57.7223 37.2583 58.2341 36.1436 59.2597 35.1715C60.0926 34.3814 60.0873 33.6822 59.2686 32.8832C58.8359 32.4754 58.495 31.98 58.2686 31.4301C58.0423 30.8802 57.9357 30.2885 57.9559 29.6941C57.9702 28.3297 58.0558 26.9581 57.8204 25.6026C57.4203 23.3103 56.271 21.2155 54.5526 19.6465C52.8342 18.0775 50.6437 17.123 48.3246 16.9326C43.7354 16.517 39.2996 19.3654 37.6587 23.7602C37.0148 25.4902 36.9453 27.2863 37.038 29.0895C37.1129 30.6626 36.7277 32.0039 35.5238 33.0937C34.9459 33.6198 34.9887 34.3707 35.5095 34.9557C35.7182 35.1929 35.959 35.4016 36.1694 35.6388C36.722 36.2329 37.0292 37.0142 37.0292 37.8255C37.0292 38.6369 36.722 39.4181 36.1694 40.0122C35.9911 40.2209 35.7806 40.4081 35.5898 40.6097C34.9548 41.2803 34.9833 41.9545 35.5755 42.6608C36.1195 43.31 36.7188 43.6917 37.6052 43.5526C38.0119 43.4866 38.4364 43.5526 38.8537 43.5383C40.7033 43.4616 42.0802 42.6109 43.0077 41.0056C43.2146 40.6489 43.2003 40.4706 42.8293 40.2244C40.6676 38.7976 39.3264 36.7928 39.0303 34.2066C38.7806 32.0003 38.8341 29.7673 38.9893 27.561C39.1213 25.7061 40.2378 24.3987 41.9714 23.6781C42.2623 23.5501 42.5601 23.4382 42.8632 23.3428C43.1843 23.2447 43.3109 23.1323 43.1379 22.7667C42.9928 22.4241 42.8915 22.0645 42.8365 21.6966C42.6581 20.7263 42.6581 20.7245 43.6605 20.7245C43.8583 20.7352 44.0566 20.7352 44.2544 20.7245C44.5558 20.6888 44.6272 20.8012 44.6664 21.1044C44.934 23.1627 46.4821 24.5164 48.5475 24.5307C49.4999 24.5307 50.4506 24.5182 51.4012 24.5307C52.4874 24.5517 53.5333 24.9457 54.3634 25.6465C55.1935 26.3473 55.7573 27.3124 55.9601 28.3796C56.1474 29.3446 55.994 30.3166 56.0564 31.1192ZM47.5202 56.851C44.192 56.851 40.8638 56.8599 37.5321 56.8403C37.1076 56.8403 37.0166 56.9509 37.0202 57.3611C37.0368 60.8284 37.0368 64.2951 37.0202 67.7612C37.0202 68.1857 37.1343 68.2731 37.5428 68.2731C44.1801 68.2588 50.8168 68.2588 57.4529 68.2731C57.8774 68.2731 57.9684 68.1625 57.9648 67.7523C57.9494 64.285 57.9494 60.8183 57.9648 57.3522C57.9648 56.9277 57.8507 56.8385 57.4422 56.8403C54.1373 56.8581 50.8216 56.851 47.5202 56.851ZM47.4667 54.9479C50.0225 54.9479 52.5784 54.9479 55.1361 54.9479C55.4928 54.9479 55.623 54.8516 55.7246 54.4895C56.1759 52.9039 56.2133 51.37 55.334 49.9075C55.2377 49.7452 55.2431 49.6632 55.4286 49.5419C56.7502 48.6733 57.0748 48.7767 57.5885 50.2767C57.6581 50.4818 57.7044 50.6959 57.7668 50.9063C57.7745 50.9746 57.8083 51.0373 57.8612 51.0812C57.9141 51.1251 57.9819 51.1468 58.0504 51.1417C59.7336 51.2019 61.4164 51.0132 63.0445 50.5817C63.2228 50.5318 63.2942 50.4818 63.2442 50.2624C62.8875 48.7214 62.5593 47.1751 62.2205 45.6251C62.1794 45.4325 62.1081 45.3255 61.8637 45.3469C60.0249 45.5056 58.1824 45.3826 56.3346 45.4236C55.6608 45.4518 54.9873 45.3594 54.3459 45.1507C53.8929 44.9955 53.8358 45.1346 53.7841 45.5449C53.3971 48.5948 50.9054 50.9455 47.9125 51.1168C46.4278 51.2063 44.9585 50.7739 43.759 49.8945C42.5594 49.0151 41.705 47.7439 41.3436 46.3011C41.2473 45.9016 41.3133 45.3094 41.0707 45.1418C40.8281 44.9741 40.3056 45.2773 39.8989 45.3201C37.6855 45.5235 35.4685 45.4378 33.2533 45.3647C32.959 45.3558 32.827 45.3861 32.7628 45.6893C32.4507 47.1572 32.1403 48.6269 31.7872 50.0877C31.698 50.4586 31.8103 50.5603 32.1314 50.6352C33.3995 50.9513 34.7003 51.1183 36.0071 51.1328C37.0933 51.1328 37.0933 51.1328 37.4572 50.1572C37.5125 50.0092 37.5713 49.8629 37.6355 49.7202C38.0547 48.7856 38.0565 48.7856 38.9875 49.2476C39.1658 49.3368 39.3442 49.4349 39.5226 49.5133C39.7009 49.5918 39.799 49.6917 39.6653 49.9075C38.7735 51.3683 38.8323 52.9039 39.2746 54.4895C39.3781 54.857 39.5119 54.9443 39.865 54.9426C42.3959 54.9408 44.9357 54.955 47.4667 54.955V54.9479ZM40.8335 30.9427C40.887 31.8897 40.7532 33.058 40.9387 34.2227C41.4328 37.335 44.2812 39.7357 47.5023 39.7304C50.7235 39.725 53.5665 37.3225 54.0356 34.2013C54.2782 32.5675 54.1301 30.9213 54.1373 29.2804C54.1444 27.6395 52.8887 26.4462 51.2675 26.4266C50.2972 26.4141 49.3269 26.4266 48.3567 26.4266C47.3275 26.4124 46.2699 26.2483 45.5136 25.5687C44.6111 24.759 43.7996 24.8945 42.8828 25.3672C42.7954 25.4118 42.7045 25.4385 42.6082 25.4795C41.4738 25.9968 40.8727 26.8832 40.8389 28.1264C40.8192 28.9825 40.8335 29.8547 40.8335 30.9427ZM75.0783 31.5295C75.0783 29.6282 75.0783 28.0639 75.0783 26.4997C75.0783 25.3529 74.2436 24.5093 73.1574 24.5146C72.1015 24.5146 71.2971 25.36 71.2775 26.4766C71.2775 26.7352 71.2775 26.992 71.2775 27.2489C71.2775 28.2691 71.2775 28.278 70.2662 28.319C69.8078 28.3368 69.4975 28.5402 69.3994 28.9771C69.3013 29.4141 69.5153 29.6906 69.8934 29.8886C70.2288 30.0562 70.5534 30.2453 70.8994 30.3915C71.2044 30.5146 71.2953 30.6947 71.2864 31.0211C71.2597 31.9308 71.2704 32.8422 71.2864 33.7536C71.2989 35.0021 71.306 36.2506 70.9761 37.4688C70.0248 40.9694 67.8643 43.3986 64.4945 44.7565C64.268 44.8475 63.9488 44.8296 64.0611 45.2916C64.4054 46.6917 64.7032 48.1043 65.0029 49.5151C65.0778 49.8718 65.2062 49.8879 65.5147 49.7398C70.6461 47.2714 73.7888 43.269 74.8465 37.6596C75.2567 35.514 75.0088 33.3469 75.0783 31.5295ZM29.8859 49.9075C30.2176 48.4022 30.5137 46.9325 30.8811 45.4789C30.997 45.0133 30.8633 44.8867 30.4637 44.7262C26.9822 43.3279 24.8122 40.7981 23.9537 37.137C23.5577 35.4373 23.8306 33.7001 23.6933 31.9896C23.6076 30.9373 23.8716 30.2578 24.9257 29.9777C25.0199 29.9465 25.1088 29.9015 25.1897 29.844C25.5196 29.6282 25.6944 29.3249 25.5874 28.9343C25.543 28.7602 25.4427 28.6053 25.302 28.4936C25.1612 28.3818 24.9877 28.3192 24.808 28.3154C24.4513 28.2762 23.9519 28.5134 23.7575 28.1977C23.5898 27.923 23.7182 27.4664 23.7164 27.0901C23.7164 26.9314 23.7164 26.7726 23.7164 26.6157C23.7164 25.3904 22.9495 24.5307 21.8562 24.5146C20.7307 24.4986 19.9156 25.3672 19.9138 26.5961C19.9138 29.4284 19.9014 32.2607 19.9138 35.0913C19.9142 38.0578 20.7533 40.9639 22.3342 43.4741C24.1145 46.3574 26.7563 48.608 29.8859 49.9075ZM47.5202 70.1655C44.1742 70.1655 40.8281 70.1655 37.4804 70.1655C37.0505 70.1655 36.9756 70.2743 37.0969 70.6684C37.2127 71.0813 37.4629 71.4437 37.808 71.6983C38.153 71.9529 38.5731 72.0851 39.0018 72.0739C40.805 72.0739 42.6064 72.0739 44.4096 72.0739H55.8745C56.8679 72.0739 57.5617 71.5995 57.856 70.7719C58.0041 70.3545 58.0148 70.1548 57.4422 70.1601C54.1355 70.1797 50.8216 70.1655 47.5202 70.1655ZM47.4756 45.4378C48.7812 45.4378 50.0867 45.4378 51.3995 45.4378C51.5533 45.4611 51.7105 45.442 51.8543 45.3826C52.0933 45.2167 52.0326 44.0074 51.7883 43.8005C51.0969 43.2051 50.5425 42.467 50.1634 41.637C50.0314 41.3481 49.9298 41.2803 49.5998 41.3624C48.218 41.736 46.7617 41.736 45.3799 41.3624C45.0802 41.2821 44.9732 41.3302 44.8448 41.6067C44.5327 42.3201 44.1313 43.0086 43.5214 43.4759C42.9417 43.92 42.9363 44.4016 43.0398 45.0241C43.1004 45.3897 43.2182 45.4557 43.557 45.4503C44.8644 45.4271 46.17 45.4378 47.4756 45.4378ZM51.016 47.3837H43.9334C45.7491 49.8593 49.4714 49.8415 51.016 47.3837Z" fill="#6F63DE"/>
<path d="M69.3477 73.9698H63.8828C62.5165 73.9698 61.7639 73.2083 61.7621 71.8295C61.7621 68.8224 61.7621 65.8141 61.7621 62.8046C61.7621 61.4081 62.5237 60.6643 63.9309 60.6643C67.573 60.6643 71.2151 60.6643 74.8572 60.6643C76.227 60.6643 76.9778 61.4223 76.9796 62.8046C76.9796 65.8141 76.9796 68.823 76.9796 71.8313C76.9796 73.2386 76.2287 73.9805 74.8108 73.9823L69.3477 73.9698ZM69.4137 66.3611H65.0171C63.6563 66.3611 63.6848 66.3611 63.6491 67.7434C63.6384 68.2285 63.8114 68.2784 64.2181 68.2784C67.3483 68.2624 70.4767 68.2695 73.6069 68.2695C75.1229 68.2695 75.1086 68.2695 75.089 66.7677C75.089 66.411 74.9535 66.3593 74.6431 66.3629C72.9006 66.37 71.1544 66.37 69.4137 66.37V66.3611ZM69.3798 70.1655H65.0421C63.6598 70.1655 63.6777 70.1655 63.6545 71.5228C63.6545 71.9508 63.7312 72.0828 64.1895 72.0792C67.3572 72.0561 70.5266 72.0668 73.696 72.0668C75.0801 72.0668 75.0605 72.0668 75.0855 70.7094C75.0855 70.2814 75.0088 70.1441 74.5504 70.153C72.8274 70.1851 71.1045 70.1655 69.3798 70.1655ZM73.1645 64.458H73.6408C75.1104 64.458 75.0908 64.458 75.0908 62.9847C75.0908 62.5834 74.9446 62.5389 74.6128 62.5513C73.9796 62.5727 73.3447 62.5513 72.7115 62.5513C71.2418 62.5513 71.2508 62.5513 71.2668 64.0264C71.2668 64.3456 71.3257 64.483 71.6806 64.4616C72.1729 64.4348 72.6705 64.458 73.1645 64.458ZM64.6176 62.5567C63.6652 62.5567 63.6652 62.5567 63.6652 63.5056C63.6652 64.4544 63.6652 64.458 64.614 64.458C65.5629 64.458 65.5665 64.458 65.5665 63.5091C65.5665 62.5603 65.5665 62.5567 64.6176 62.5567ZM69.3709 63.5163C69.3709 62.5638 69.3709 62.5638 68.422 62.5638C67.4731 62.5638 67.4696 62.5638 67.4696 63.5127C67.4696 64.4616 67.4696 64.4651 68.4184 64.4651C69.3673 64.4651 69.3709 64.458 69.3709 63.5163Z" fill="#6F63DE"/>
<path d="M33.2283 67.194C33.1713 68.0466 33.33 69.0989 33.1267 70.1405C32.9225 71.1864 32.371 72.1326 31.5616 72.8257C30.7523 73.5188 29.7325 73.9182 28.6677 73.9592C27.7385 73.9824 26.8003 74.0591 25.88 73.911C25.0989 73.8078 24.3576 73.5049 23.7277 73.0315C23.0979 72.5582 22.6007 71.9304 22.2843 71.2089C22.2356 71.073 22.1485 70.9541 22.0336 70.8667C21.9186 70.7793 21.7808 70.7272 21.6368 70.7166C21.148 70.647 20.6647 70.5433 20.1903 70.4063C19.5032 70.1983 18.9122 69.7532 18.5224 69.1503C18.1327 68.5473 17.9695 67.8257 18.062 67.1137C18.1545 66.4018 18.4966 65.7457 19.0274 65.2624C19.5582 64.779 20.2434 64.4997 20.9608 64.4741C21.4959 64.4741 21.8009 64.4295 21.9632 63.7945C22.1665 63.0008 22.8354 62.571 23.6665 62.5639C26.2206 62.5437 28.7741 62.5437 31.327 62.5639C31.5754 62.562 31.8216 62.6094 32.0515 62.7034C32.2814 62.7974 32.4903 62.9361 32.6662 63.1115C32.8421 63.2869 32.9814 63.4954 33.076 63.725C33.1707 63.9546 33.2188 64.2008 33.2176 64.4491C33.2426 65.2999 33.2283 66.1507 33.2283 67.194ZM27.5209 64.4598C26.3918 64.4598 25.2628 64.4723 24.132 64.4509C23.8003 64.4509 23.6986 64.5312 23.704 64.8736C23.7236 66.3379 23.704 67.804 23.7183 69.2684C23.7294 70.0095 24.0301 70.7169 24.5561 71.2392C25.0821 71.7615 25.7915 72.0573 26.5327 72.0632C27.1855 72.0775 27.8401 72.0775 28.4947 72.0632C29.2463 72.0553 29.9644 71.7511 30.493 71.2167C31.0217 70.6824 31.3181 69.9611 31.3181 69.2095C31.3342 67.7648 31.3181 66.3183 31.3288 64.8736C31.3288 64.5401 31.2468 64.4402 30.9079 64.4455C29.7753 64.4723 28.6534 64.4598 27.5244 64.4598H27.5209ZM21.8134 67.6043C21.8134 67.2886 21.8134 66.9711 21.8134 66.6554C21.8134 66.527 21.8562 66.354 21.635 66.3647C21.3033 66.3772 20.9662 66.3112 20.6398 66.4485C20.3799 66.55 20.1664 66.7434 20.0399 66.992C19.9133 67.2406 19.8824 67.527 19.9531 67.7969C20.1208 68.3766 20.9555 68.9277 21.6225 68.7351C22.0863 68.6031 21.6975 68.0591 21.8134 67.722C21.8192 67.683 21.8198 67.6434 21.8152 67.6043H21.8134Z" fill="#6F63DE"/>
<path d="M26.5327 60.6625C26.4532 60.6563 26.3733 60.6563 26.2937 60.6625C25.7997 60.7446 25.5803 60.6001 25.5625 60.0383C25.5428 59.348 25.1398 58.7737 24.7545 58.2226C24.1683 57.3966 23.8125 56.4295 23.7236 55.4206C23.695 55.087 23.7361 54.8712 24.1427 54.9533C24.1623 54.955 24.182 54.955 24.2016 54.9533C24.6172 54.9533 25.0791 54.8409 25.4358 54.9854C25.8568 55.153 25.6142 55.6988 25.7569 56.0716C25.9946 56.6146 26.2868 57.1321 26.629 57.6161C27.0983 58.3507 27.3981 59.1805 27.5066 60.0454C27.5761 60.5127 27.4816 60.7588 26.9465 60.6643C26.8089 60.6512 26.6704 60.6506 26.5327 60.6625Z" fill="#6F63DE"/>
<path d="M30.3371 60.6625C30.2581 60.6563 30.1788 60.6563 30.0999 60.6625C29.604 60.7446 29.3864 60.6001 29.3668 60.0383C29.349 59.348 28.9441 58.7737 28.5589 58.2226C27.9725 57.3968 27.6172 56.4295 27.5297 55.4206C27.4994 55.087 27.5422 54.8712 27.9471 54.9533C27.9667 54.955 27.9864 54.955 28.0059 54.9533C28.4215 54.9533 28.8835 54.8409 29.242 54.9854C29.6629 55.153 29.4203 55.6988 29.5612 56.0716C29.7989 56.6146 30.0911 57.1321 30.4334 57.6161C30.9027 58.3507 31.2025 59.1805 31.3109 60.0454C31.3805 60.5127 31.286 60.7588 30.7509 60.6643C30.6133 60.6512 30.4748 60.6506 30.3371 60.6625Z" fill="#6F63DE"/>
<path d="M50.3472 61.5882C50.3511 62.154 50.1866 62.7082 49.8748 63.1804C49.563 63.6526 49.1178 64.0214 48.5959 64.24C48.0739 64.4586 47.4988 64.5171 46.9436 64.408C46.3883 64.299 45.878 64.0273 45.4775 63.6276C45.077 63.2278 44.8044 62.718 44.6943 62.163C44.5842 61.608 44.6416 61.0327 44.8592 60.5104C45.0768 59.988 45.4448 59.5422 45.9164 59.2294C46.3879 58.9167 46.9419 58.7512 47.5077 58.7541C48.2578 58.7606 48.9755 59.0611 49.5064 59.591C50.0374 60.121 50.3393 60.8381 50.3472 61.5882ZM47.5059 60.6625C47.3175 60.66 47.1326 60.7137 46.9748 60.8167C46.8171 60.9197 46.6935 61.0673 46.6199 61.2408C46.5463 61.4142 46.5261 61.6057 46.5617 61.7907C46.5973 61.9757 46.6872 62.1459 46.82 62.2797C46.9527 62.4134 47.1222 62.5046 47.307 62.5416C47.4917 62.5787 47.6833 62.5599 47.8573 62.4876C48.0314 62.4153 48.1799 62.2929 48.2841 62.1359C48.3883 61.9789 48.4434 61.7944 48.4423 61.606C48.4391 61.358 48.3397 61.1209 48.1649 60.9449C47.9902 60.7688 47.7539 60.6676 47.5059 60.6625Z" fill="#6F63DE"/>
<path d="M47.5202 32.1252C48.947 32.1252 50.3739 32.1359 51.8008 32.1252C52.1486 32.1252 52.2502 32.1877 52.2698 32.5694C52.4232 35.6835 50.2045 37.6651 47.8323 37.8256C44.8252 38.0307 42.4031 35.4284 42.7348 32.4017C42.7705 32.0753 42.9435 32.1342 43.1308 32.1342L47.5202 32.1252ZM44.8929 34.0497C45.1801 35.1627 46.3448 35.9635 47.5933 35.9278C48.7669 35.8922 49.8763 35.0592 50.0903 34.0497H44.8929Z" fill="#6F63DE"/>
<path d="M44.638 29.2893C44.634 29.4772 44.5742 29.6596 44.4662 29.8133C44.3582 29.9671 44.207 30.0853 44.0316 30.1528C43.8563 30.2204 43.6649 30.2343 43.4816 30.1927C43.2984 30.1512 43.1317 30.0561 43.0026 29.9195C42.8736 29.7829 42.7881 29.611 42.7571 29.4257C42.726 29.2404 42.7507 29.0501 42.8282 28.8789C42.9056 28.7077 43.0322 28.5634 43.1918 28.4643C43.3515 28.3653 43.537 28.3159 43.7248 28.3226C43.9727 28.3337 44.2066 28.4408 44.377 28.6212C44.5474 28.8016 44.641 29.0412 44.638 29.2893Z" fill="#6F63DE"/>
<path d="M52.2484 29.2465C52.253 29.4344 52.2016 29.6194 52.1007 29.7779C51.9999 29.9365 51.8542 30.0615 51.6821 30.137C51.51 30.2124 51.3194 30.2351 51.1344 30.2019C50.9495 30.1687 50.7785 30.0813 50.6434 29.9507C50.5083 29.8201 50.4151 29.6523 50.3756 29.4686C50.3362 29.2848 50.3522 29.0935 50.4218 28.919C50.4914 28.7444 50.6113 28.5945 50.7663 28.4883C50.9214 28.3821 51.1045 28.3245 51.2924 28.3226C51.5405 28.3225 51.7789 28.4188 51.9573 28.5912C52.1357 28.7636 52.24 28.9986 52.2484 29.2465Z" fill="#6F63DE"/>
</svg>
