<svg width="196" height="73" viewBox="0 0 196 73" fill="none" xmlns="http://www.w3.org/2000/svg">
<rect width="196" height="73" fill=""/>
<g clip-path="url(#clip0_4385_1253)">
<path d="M76.2588 47.8533C76.166 47.8795 76.071 47.8975 75.9749 47.9071C74.9866 47.9071 73.9965 47.9071 73.0065 47.9071C72.7551 47.9071 72.6542 47.8247 72.6132 47.5708C71.9771 43.6161 71.3353 39.6613 70.6878 35.7066C70.6337 35.3205 70.538 34.9411 70.4022 34.575C68.1793 39.3469 65.9563 44.1205 63.6907 49C61.4883 44.1238 59.3389 39.362 57.1929 34.6019L57.0766 34.612C56.962 35.219 56.8441 35.8277 56.7346 36.4363C56.0746 40.0817 55.4111 43.7287 54.7699 47.3774C54.6964 47.7978 54.5408 47.9357 54.103 47.9205C53.1027 47.8869 52.099 47.9104 51.0251 47.9104C52.6325 39.8614 54.2313 31.8662 55.8284 23.8659L55.9549 23.8508L63.7522 41.141C66.4762 35.3064 69.1608 29.561 71.8437 23.8222H71.9446C73.3809 31.8258 74.819 39.8362 76.2588 47.8533Z" fill="white"/>
<path d="M150.139 41.6101C150.004 43.7523 151.9 45.4774 154.113 45.3631C155.419 45.2941 156.298 44.6047 157.019 43.6278C157.257 43.305 157.493 42.9805 157.746 42.6307L160.532 44.144C160.535 44.195 160.529 44.246 160.516 44.2954C158.931 47.0058 156.635 48.4401 153.369 48.3308C149.468 48.1996 146.69 45.4421 146.549 41.2839C146.498 39.7336 146.7 38.2271 147.427 36.8247C148.678 34.4085 151.18 33.0987 154.046 33.3072C156.147 33.4619 157.912 34.2152 159.143 35.9571C160.109 37.3241 160.415 38.8879 160.458 40.5155C160.486 41.6034 160.474 41.6034 159.369 41.6034H150.135L150.139 41.6101ZM150.383 38.8425H156.895C156.724 37.3796 155.356 36.3203 153.678 36.3052C152.071 36.2951 150.568 37.4402 150.383 38.8425Z" fill="white"/>
<path d="M122.354 48.3291C118.166 48.43 114.575 44.9965 114.69 40.5407C114.794 36.5339 118.199 33.2988 122.497 33.3105C126.796 33.3223 130.192 36.623 130.192 40.8383C130.194 45.1159 126.83 48.3358 122.354 48.3291ZM126.718 40.7526C126.709 40.6113 126.707 40.3675 126.676 40.1271C126.461 38.4305 125.661 37.1207 123.959 36.5641C122.258 36.0076 120.675 36.248 119.366 37.5494C118.359 38.5583 118.086 39.8362 118.17 41.1982C118.272 42.8056 118.853 44.1877 120.416 44.9141C121.955 45.627 123.515 45.5867 124.943 44.6316C126.275 43.7371 126.711 42.3785 126.718 40.7526Z" fill="white"/>
<path d="M87.4914 48.3291C83.0797 48.3291 79.8274 45.1075 79.8274 40.7357C79.8274 36.5322 83.2046 33.3038 87.5906 33.3072C91.9116 33.3072 95.2614 36.5507 95.3024 40.8131C95.3469 45.3294 91.5799 48.4266 87.4914 48.3291ZM91.8347 40.9173C91.8347 38.259 90.4137 36.623 87.9479 36.3253C87.09 36.2259 86.2219 36.3944 85.4667 36.8069C84.7115 37.2194 84.1073 37.8551 83.7398 38.6239C83.2405 39.6764 83.1994 40.7778 83.379 41.901C83.4875 42.5768 83.763 43.2161 84.1813 43.7629C84.5996 44.3096 85.148 44.7471 85.7783 45.0369C86.4086 45.3267 87.1015 45.46 87.7964 45.4251C88.4913 45.3902 89.1669 45.1882 89.7639 44.8368C91.2926 43.9338 91.8141 42.5046 91.8347 40.9173Z" fill="white"/>
<path d="M102.147 47.8852H98.7975V33.7393H102.129V34.9752C102.341 34.807 102.457 34.7078 102.571 34.612C104.767 32.7624 108.247 32.8835 110.046 34.8911C110.913 35.8562 111.155 37.0534 111.219 38.2792C111.282 39.5049 111.251 40.7105 111.254 41.9262C111.254 43.759 111.243 45.5901 111.265 47.4211C111.265 47.8264 111.138 47.9256 110.752 47.9256C109.81 47.9003 108.871 47.9256 107.862 47.9256V47.3741C107.862 44.8839 107.876 42.3937 107.852 39.9034C107.838 39.2474 107.764 38.594 107.629 37.9513C107.443 37.0198 106.827 36.4632 105.861 36.3758C105.329 36.3182 104.791 36.334 104.263 36.4229C103.901 36.4869 103.564 36.6421 103.282 36.8732C103 37.1043 102.784 37.4033 102.655 37.7411C102.233 38.75 102.166 39.7992 102.158 40.8585C102.14 43.0326 102.158 45.2084 102.158 47.3841L102.147 47.8852Z" fill="white"/>
<path d="M134.404 47.8617V25.4566H137.873V44.0936C137.873 44.6938 137.873 44.6955 138.487 44.6955C140.349 44.6955 142.213 44.7107 144.077 44.6838C144.539 44.6838 144.645 44.8216 144.627 45.2437C144.595 46.0155 144.614 46.7906 144.627 47.5624C144.627 47.7793 144.593 47.9138 144.323 47.9121C141.063 47.9054 137.802 47.9015 134.541 47.9003C134.493 47.8931 134.447 47.8801 134.404 47.8617Z" fill="white"/>
<path d="M181.01 36.174L178.274 37.6049C178.172 37.4262 178.054 37.2573 177.92 37.1005C177.685 36.83 177.409 36.5964 177.103 36.4077C176.86 36.2842 176.579 36.2569 176.316 36.3313C176.054 36.4058 175.83 36.5763 175.692 36.8079C175.412 37.2653 175.521 37.7932 176.051 38.1531C176.501 38.4404 176.97 38.6993 177.453 38.9282C178.242 39.3267 179.049 39.6916 179.832 40.1052C182.26 41.3713 182.284 43.6446 181.656 45.247C180.948 47.0445 179.497 48.0063 177.595 48.2837C174.982 48.662 172.792 47.4598 171.711 45.0991C171.677 45.0234 171.651 44.9444 171.607 44.825L173.512 43.9456C173.715 43.8676 173.913 43.7777 174.105 43.6766C174.404 43.4916 174.572 43.5858 174.716 43.8716C174.824 44.0748 174.95 44.2683 175.092 44.45C175.356 44.8327 175.74 45.1202 176.185 45.2686C176.631 45.417 177.113 45.4183 177.559 45.2723C177.772 45.2082 177.965 45.0942 178.123 44.94C178.281 44.7859 178.398 44.5963 178.464 44.3876C178.53 44.1789 178.544 43.9575 178.504 43.7425C178.464 43.5275 178.371 43.3254 178.233 43.1537C177.857 42.7081 177.318 42.3701 176.798 42.0759C176.031 41.642 175.205 41.3108 174.422 40.8988C172.999 40.1607 172.282 39.0056 172.37 37.4065C172.452 35.7436 173.257 34.5245 174.764 33.7797C177.171 32.5842 180.136 33.7057 181.01 36.174Z" fill="white"/>
<path d="M167.761 47.8852H164.408C164.398 47.6969 164.379 47.5187 164.379 47.3388C164.379 44.0196 164.379 40.6999 164.379 37.3796C164.379 36.8079 164.379 36.8079 163.82 36.8063C162.955 36.8063 162.955 36.8063 162.955 35.9353C162.955 35.3199 162.968 34.7045 162.955 34.0857C162.946 33.7814 163.062 33.699 163.362 33.6973C164.388 33.6973 164.388 33.6805 164.388 32.6884V28.5487H167.746V33.7074C168.43 33.7074 169.057 33.7074 169.69 33.7074C170.403 33.7074 170.362 33.5947 170.364 34.3799C170.366 35.1652 170.364 35.9487 170.364 36.7945H167.761V47.8852Z" fill="white"/>
<path d="M21.7577 32.6212L27.8879 36.3926C28.4727 35.4392 29.2558 34.7835 30.4152 34.7112C31.1444 34.6433 31.8738 34.8387 32.4671 35.261C33.5854 36.0614 34.3002 37.8235 32.9903 39.6512L38.4468 43.4916C39.0247 42.9771 39.6335 42.6677 40.4098 42.819C40.6908 42.8809 40.9565 42.9969 41.1917 43.1604C41.4268 43.3238 41.6267 43.5314 41.7798 43.7712C41.9329 44.011 42.0362 44.2783 42.0837 44.5576C42.1312 44.8369 42.1219 45.1226 42.0565 45.3984C41.7709 46.6073 40.6629 47.3034 39.5001 47.0058C38.4092 46.7267 37.7166 45.4589 38.0466 44.3475C38.2604 43.6261 38.257 43.6295 37.638 43.194C36.205 42.1851 34.7738 41.1763 33.3443 40.1674C33.1733 40.043 32.9903 39.9236 32.8074 39.7975C32.0601 40.3877 31.2462 40.7391 30.2921 40.6046C28.4641 40.3457 27.3612 38.7802 27.7271 36.9408C27.7767 36.6869 27.7442 36.5608 27.5237 36.4262C25.6598 35.2907 23.7994 34.1473 21.9424 32.9961C21.7047 32.8482 21.5611 32.8717 21.3405 33.0466C20.9967 33.3303 20.5651 33.4907 20.1164 33.5014C19.6677 33.5121 19.2287 33.3725 18.8713 33.1054C18.4917 32.8106 18.2165 32.4054 18.085 31.9476C17.9536 31.4898 17.9727 31.0029 18.1395 30.5564C18.2891 30.1412 18.5728 29.7857 18.9471 29.5439C19.3215 29.3022 19.766 29.1875 20.2129 29.2174C20.6597 29.2473 21.0844 29.4202 21.422 29.7096C21.7596 29.999 21.9916 30.3891 22.0826 30.8203C22.1534 31.1266 22.1611 31.4438 22.1053 31.753C22.0495 32.0623 21.9313 32.3575 21.7577 32.6212Z" fill="white"/>
<path d="M38.4263 31.5753C38.1743 31.3656 37.9356 31.141 37.7115 30.9027C37.259 30.3708 37.01 29.7 37.0078 29.0065C37.0056 28.313 37.2504 27.6407 37.6995 27.1061C38.51 26.0972 40.1499 25.739 41.3451 26.3191C42.036 26.6461 42.5745 27.2195 42.8511 27.9227C43.1277 28.6259 43.1217 29.4063 42.8344 30.1053C42.5471 30.8044 42 31.3697 41.3041 31.6864C40.6083 32.0032 39.816 32.0476 39.088 31.8107C38.9613 31.7503 38.817 31.736 38.6806 31.7701C38.5441 31.8043 38.4244 31.8848 38.3425 31.9973C36.9745 33.4568 35.5672 34.8911 34.1839 36.3422C34.073 36.4914 33.98 36.6528 33.9069 36.8231L33.6555 36.5843C35.2099 34.881 36.8634 33.2752 38.4263 31.5753Z" fill="white"/>
<path d="M44.753 47.2564C44.4441 47.2595 44.1465 47.1425 43.9249 46.9309C43.7032 46.7193 43.5756 46.4301 43.5698 46.1264C43.5698 45.8174 43.6946 45.521 43.9168 45.3025C44.1391 45.084 44.4405 44.9612 44.7548 44.9612C45.069 44.9612 45.3704 45.084 45.5927 45.3025C45.8149 45.521 45.9397 45.8174 45.9397 46.1264C45.9384 46.2776 45.9066 46.427 45.846 46.5659C45.7854 46.7048 45.6973 46.8305 45.5869 46.9356C45.4765 47.0408 45.3459 47.1233 45.2027 47.1784C45.0596 47.2334 44.9067 47.2599 44.753 47.2564Z" fill="white"/>
<path d="M45.95 29.1255C45.6424 29.1251 45.347 29.0066 45.1269 28.7952C44.9068 28.5838 44.7794 28.2963 44.7719 27.9939C44.7853 27.6922 44.9172 27.4075 45.1397 27.1994C45.3622 26.9914 45.6581 26.8762 45.9651 26.8782C46.2722 26.8801 46.5665 26.999 46.7862 27.2099C47.006 27.4208 47.1341 27.7072 47.1435 28.009C47.1341 28.3121 47.0035 28.5994 46.7801 28.8084C46.5566 29.0174 46.2584 29.1314 45.95 29.1255Z" fill="white"/>
<path d="M43.274 41.5378C43.2792 41.6915 43.2523 41.8446 43.1948 41.9876C43.1374 42.1306 43.0506 42.2604 42.94 42.3691C42.8293 42.4777 42.6971 42.5628 42.5516 42.6191C42.4061 42.6754 42.2504 42.7017 42.0941 42.6963C41.7886 42.6772 41.501 42.5479 41.2865 42.3332C41.0719 42.1184 40.9455 41.8334 40.9313 41.5328C40.9446 41.2294 41.0765 40.9428 41.2996 40.7329C41.5226 40.523 41.8195 40.4059 42.1283 40.4062C42.281 40.3995 42.4335 40.4242 42.5759 40.4787C42.7184 40.5333 42.8476 40.6165 42.9555 40.723C43.0633 40.8295 43.1474 40.957 43.2022 41.0973C43.2571 41.2376 43.2815 41.3877 43.274 41.5378Z" fill="white"/>
<path d="M41.1793 24.177C41.1822 24.3264 41.1549 24.4749 41.0988 24.6138C41.0427 24.7527 40.9591 24.8792 40.8528 24.986C40.7464 25.0927 40.6195 25.1776 40.4795 25.2356C40.3394 25.2936 40.189 25.3235 40.037 25.3237C39.8813 25.3219 39.7275 25.2892 39.5849 25.2277C39.4422 25.1662 39.3137 25.0771 39.2068 24.9657C39.0999 24.8543 39.0169 24.7229 38.9627 24.5793C38.9085 24.4358 38.8842 24.2829 38.8914 24.1299C38.9002 23.8284 39.0278 23.542 39.2473 23.3312C39.4668 23.1204 39.761 23.0016 40.0678 23C40.2201 23.0034 40.3701 23.0368 40.509 23.0982C40.6479 23.1596 40.7728 23.2478 40.8765 23.3576C40.9801 23.4673 41.0603 23.5964 41.1123 23.7371C41.1643 23.8779 41.1871 24.0274 41.1793 24.177Z" fill="white"/>
<path d="M24.5364 29.186C24.5385 29.3367 24.5096 29.4864 24.4513 29.6258C24.3931 29.7653 24.3067 29.8917 24.1974 29.9975C24.0881 30.1032 23.9582 30.1861 23.8154 30.2411C23.6727 30.2961 23.52 30.3221 23.3668 30.3176C23.1385 30.3149 22.9162 30.2459 22.7278 30.1192C22.5394 29.9924 22.3934 29.8137 22.3082 29.6055C22.2229 29.3973 22.2023 29.1689 22.2488 28.9492C22.2954 28.7295 22.4071 28.5282 22.5698 28.3708C22.7325 28.2134 22.9389 28.1069 23.1631 28.0647C23.3873 28.0224 23.6191 28.0464 23.8295 28.1336C24.0398 28.2208 24.2192 28.3673 24.345 28.5546C24.4708 28.7418 24.5374 28.9615 24.5364 29.186Z" fill="white"/>
<path d="M34.8662 30.1881C34.7164 30.1928 34.5673 30.1672 34.4281 30.1129C34.2889 30.0585 34.1625 29.9766 34.0569 29.8722C33.9512 29.7679 33.8685 29.6432 33.8138 29.5061C33.7592 29.3689 33.7338 29.2222 33.7393 29.075C33.7333 28.9208 33.7605 28.767 33.8192 28.6239C33.8778 28.4807 33.9665 28.3513 34.0795 28.2441C34.1925 28.137 34.3272 28.0545 34.4749 28.0021C34.6225 27.9497 34.7797 27.9286 34.9363 27.94C35.0892 27.9388 35.2407 27.9681 35.3817 28.0262C35.5228 28.0842 35.6503 28.1699 35.7567 28.2779C35.863 28.3859 35.9459 28.5141 36.0003 28.6546C36.0548 28.7951 36.0796 28.945 36.0734 29.0952C36.0597 29.7341 35.5536 30.1915 34.8662 30.1881Z" fill="white"/>
<path d="M36.1264 47.2563C35.9703 47.2622 35.8146 47.2371 35.6686 47.1824C35.5226 47.1277 35.3893 47.0447 35.2767 46.9381C35.1642 46.8316 35.0746 46.7039 35.0135 46.5625C34.9523 46.4211 34.9208 46.2691 34.9208 46.1155C34.9208 45.9619 34.9523 45.8098 35.0135 45.6685C35.0746 45.5271 35.1642 45.3994 35.2767 45.2929C35.3893 45.1863 35.5226 45.1032 35.6686 45.0486C35.8146 44.9939 35.9703 44.9687 36.1264 44.9746C36.2825 44.9687 36.4382 44.9939 36.5842 45.0486C36.7302 45.1032 36.8634 45.1863 36.976 45.2929C37.0886 45.3994 37.1781 45.5271 37.2393 45.6685C37.3005 45.8098 37.332 45.9619 37.332 46.1155C37.332 46.2691 37.3005 46.4211 37.2393 46.5625C37.1781 46.7039 37.0886 46.8316 36.976 46.9381C36.8634 47.0447 36.7302 47.1277 36.5842 47.1824C36.4382 47.2371 36.2825 47.2622 36.1264 47.2563Z" fill="white"/>
<path d="M17.9873 28.2124C17.8334 28.2183 17.68 28.1936 17.5361 28.1397C17.3922 28.0858 17.2609 28.004 17.1499 27.899C17.039 27.7941 16.9507 27.6682 16.8905 27.5289C16.8302 27.3896 16.7991 27.2398 16.7991 27.0884C16.7991 26.937 16.8302 26.7872 16.8905 26.6479C16.9507 26.5086 17.039 26.3827 17.1499 26.2778C17.2609 26.1728 17.3922 26.091 17.5361 26.0371C17.68 25.9833 17.8334 25.9585 17.9873 25.9644C18.14 25.9573 18.2926 25.9815 18.4354 26.0353C18.5782 26.0892 18.7081 26.1715 18.8169 26.2772C18.9257 26.3829 19.011 26.5097 19.0674 26.6494C19.1239 26.7892 19.1503 26.939 19.1449 27.0892C19.1415 27.7568 18.6815 28.2124 17.9873 28.2124Z" fill="white"/>
<path d="M16.173 34.5531C16.0192 34.559 15.8658 34.5342 15.7219 34.4804C15.578 34.4265 15.4466 34.3447 15.3357 34.2397C15.2248 34.1348 15.1365 34.0089 15.0762 33.8696C15.0159 33.7303 14.9849 33.5805 14.9849 33.4291C14.9849 33.2777 15.0159 33.1279 15.0762 32.9886C15.1365 32.8493 15.2248 32.7234 15.3357 32.6185C15.4466 32.5135 15.578 32.4316 15.7219 32.3778C15.8658 32.3239 16.0192 32.2992 16.173 32.3051C16.3251 32.2985 16.4769 32.3229 16.6189 32.3766C16.7609 32.4304 16.8901 32.5124 16.9985 32.6175C17.1068 32.7226 17.1919 32.8486 17.2485 32.9875C17.305 33.1264 17.3319 33.2753 17.3272 33.4249C17.3272 34.0975 16.8673 34.5498 16.173 34.5531Z" fill="white"/>
</g>
<defs>
<clipPath id="clip0_4385_1253">
<rect width="167" height="26" fill="white" transform="translate(15 23)"/>
</clipPath>
</defs>
</svg>
