<svg width="196" height="73" viewBox="0 0 196 73" fill="none" xmlns="http://www.w3.org/2000/svg">
<rect width="196" height="73" fill=""/>
<path d="M25 29.9V43.553C25 51.2962 25 51.2962 32.9815 53.9491C33.2205 54.0138 33.555 53.8629 34.033 53.7766V20C25 21.9196 25 21.9196 25 29.9Z" fill="white"/>
<path d="M40.7715 30.4389V39.9507C40.7715 50.2175 40.7715 50.2175 51.5488 53.0861C51.6683 53.1077 51.8117 52.9999 52.433 52.8057C48.729 45.1488 45.1206 37.6645 41.5123 30.2017C41.2733 30.2664 41.0104 30.3526 40.7715 30.4389Z" fill="white"/>
<path d="M94.8488 30.0716C90.4757 30.1363 87.2975 33.005 87.2736 36.8873C87.2497 40.8559 90.7625 44.0912 95.0877 44.0912C99.2696 44.0697 103.093 40.5971 103.021 36.8873C102.95 32.9834 99.3652 29.9854 94.8488 30.0716ZM95.2311 41.654C92.2441 41.805 90.5235 39.7775 90.4279 37.1677C90.3084 34.5363 91.8139 32.5305 94.8726 32.3579C98.0269 32.1854 99.3891 34.1481 99.6997 36.6069C99.6758 39.5187 98.1226 41.4814 95.2311 41.654Z" fill="white"/>
<path d="M133.489 35.9819C132.437 35.8525 131.362 35.8957 130.287 35.9172C128.638 35.9604 126.941 35.7447 126.965 33.9329C127.013 32.0132 128.924 32.3152 130.43 32.0995C132.628 31.7975 135.448 33.2858 137.073 30.072C133.967 30.072 131.099 29.9641 128.231 30.1151C125.985 30.223 124.623 31.4524 124.408 33.5231C124.145 35.7878 125.292 37.2977 127.658 37.8585C128.972 38.1604 130.382 38.0526 131.744 38.1389C133.154 38.2251 134.707 38.2898 134.516 40.0801C134.397 41.4389 133.202 41.784 131.864 41.784C130.024 41.784 128.184 41.7625 126.368 41.8056C125.842 41.8056 125.053 41.5683 124.886 42.2801C124.719 43.0135 125.22 43.8331 125.937 43.8762C128.948 44.0057 132.055 44.6959 134.922 43.337C136.715 42.4743 137.479 40.986 137.121 39.1742C136.786 37.3624 135.52 36.2408 133.489 35.9819Z" fill="white"/>
<path d="M171.51 39.7137C171.342 37.7294 170.172 36.349 167.877 36.0039C166.826 35.853 165.727 35.9392 164.675 35.9177C163.122 35.8745 161.258 35.9392 161.282 34.0196C161.306 32.1216 163.218 32.3157 164.723 32.1001C166.922 31.7765 169.67 33.2216 171.51 30.0726C168.284 30.0726 165.44 30.0079 162.596 30.0942C160.231 30.1589 158.94 31.5824 158.677 33.5236C158.367 35.7236 159.705 37.2334 162.023 37.8588C163.026 38.1392 164.15 38.053 165.201 38.1392C166.754 38.2902 169.024 37.6647 168.905 40.0157C168.833 41.8059 166.898 41.5902 165.368 41.849C163.385 42.1725 159.538 40.749 159.753 42.8412C160.016 45.3862 163.887 43.6392 166.133 44.0274C166.969 44.1568 167.949 43.8549 168.786 43.5961C170.721 42.9274 171.677 41.5471 171.51 39.7137Z" fill="white"/>
<path d="M115.497 32.2297C117.05 32.165 118.962 32.7043 119.727 30.1376C117.313 30.1376 115.162 29.8787 113.083 30.2023C109.762 30.6984 107.755 32.8121 107.085 35.7239C106.44 38.571 107.802 40.8357 110.24 42.5827C112.844 44.4592 115.975 44.4161 118.962 43.8984C120.42 43.6396 119.392 42.4102 118.747 42.1514C117.839 41.7847 116.692 41.8278 115.664 41.7847C112.151 41.6122 109.642 40.2318 109.69 36.867C109.762 33.718 112.175 32.3807 115.497 32.2297Z" fill="white"/>
<path d="M151.484 32.339C149.262 37.5801 146.92 42.7782 144.746 48.0625C144.387 48.9037 142.738 50.1331 144.435 50.8017C146.132 51.5135 146.944 50.2625 147.565 48.7743C150.122 42.6272 152.87 36.5448 155.547 30.4625C152.99 29.2546 152.201 30.635 151.484 32.339Z" fill="white"/>
<path d="M76.4021 29.9863C75.4463 30.051 73.9647 29.6627 73.9886 31.1078C74.0364 32.4236 75.4702 32.3804 76.4738 32.2726C80.3212 31.7765 80.7274 33.7608 80.4884 36.457C80.3211 38.3766 80.4406 40.2963 80.4645 42.2159C80.4645 43.0787 80.6318 43.9846 81.7788 44.0493C83.1409 44.114 82.9975 43.0787 83.0214 42.3022C83.0692 40.7924 83.0453 39.2825 83.0214 37.7727C83.0214 29.6843 82.8542 29.4902 76.4021 29.9863Z" fill="white"/>
<path d="M71.3588 30.1158C69.2798 30.0727 70.2357 31.7119 70.164 32.5962C69.9967 34.1061 70.1162 35.6159 70.1162 37.1257C70.1162 38.6355 70.0445 40.1669 70.164 41.6551C70.2118 42.4747 69.5427 43.8336 71.1676 43.9414C72.7209 44.0492 72.5775 42.7767 72.6014 41.8492C72.6253 38.6786 72.6253 35.5296 72.6014 32.359C72.5537 31.4531 72.8404 30.1374 71.3588 30.1158Z" fill="white"/>
<path d="M143.122 30.2887C142.572 29.9652 141.592 29.9436 140.947 30.1377C139.8 30.5044 140.684 31.2593 140.899 31.777C142.285 35.0554 143.743 38.3123 145.511 42.3456C146.921 39.2182 145.057 31.3456 143.122 30.2887Z" fill="white"/>
<path d="M53.5813 22.5665C52.2431 22.7822 50.9288 23.0841 49.5906 23.192C46.7469 23.4508 46.0778 24.3567 47.5116 26.8155C50.0208 31.1508 52.1714 35.6371 54.4894 40.0587C54.7284 41.2881 55.0869 42.4743 56.6163 43.6822C56.6163 36.8665 56.5684 30.6332 56.6401 24.4214C56.664 22.243 56.1861 21.0783 53.5813 22.5665Z" fill="white"/>
</svg>
