<svg width="196" height="73" viewBox="0 0 196 73" fill="none" xmlns="http://www.w3.org/2000/svg">
<rect width="196" height="73" fill=""/>
<g clip-path="url(#clip0_4385_1280)">
<path fill-rule="evenodd" clip-rule="evenodd" d="M95.1555 17.3564C87.0032 19.3244 80.2664 23.3996 76.1431 29.3664C74.5226 31.7173 72.8868 34.8845 72.6568 38.2905C72.2238 44.6731 74.9663 48.3896 78.3852 51.2995C81.3259 53.8052 85.4569 55.2954 89.7592 55.8873C99.072 57.1667 106.803 54.2491 112.258 50.8005C117.522 47.4689 123.252 41.9441 123.797 34.1195C124.045 30.7357 123.105 27.3716 121.141 24.6123C117.536 19.5081 109.871 16.2549 100.8 16.6901C98.868 16.781 96.8453 16.9483 95.1555 17.3564ZM96.0687 8.09671C96.8636 8.03224 97.6424 8 98.4051 8H98.4763C107.592 8.0087 114.47 12.4408 118.816 17.2732C122.648 21.5389 125.967 28.026 126.004 35.8254V35.9163C126.003 37.778 125.82 39.635 125.457 41.4605C123.255 52.6785 115.409 60.5456 104.702 63.2263C98.8834 64.6837 91.9627 64.0271 86.6866 61.7245C82.0678 59.7091 78.1225 56.2973 75.1462 52.0538C72.1766 47.8181 70 42.8599 70 35.9541C70 27.5348 73.6181 21.3001 77.7203 16.7723C80.7668 13.4156 85.1076 10.5917 90.2576 9.09956C92.0359 8.58024 93.9979 8.26981 96.0687 8.09671Z" fill="white"/>
<path fill-rule="evenodd" clip-rule="evenodd" d="M86.9359 36.3709C87.8125 35.7713 87.9713 33.9706 87.3496 33.0345C86.8993 32.3575 85.3289 32.1032 84.1953 32.3682V36.7045C85.35 36.6958 86.2459 36.8438 86.9359 36.3709ZM84.1953 38.7885L84.1126 41.125C84.2405 41.5679 85.5646 41.8716 85.4405 42.7081C85.2981 43.6693 82.9271 43.3763 81.705 43.3763C80.2981 43.3763 78.0917 43.5978 77.9685 42.7081C77.8588 41.9112 79.0636 41.9683 79.2974 41.4586V32.5355C79.1155 31.8102 77.9675 31.6729 77.8906 31.1129C77.7943 30.4669 78.5382 30.2426 79.053 30.1961H87.0225C89.9756 30.1565 92.5228 31.1468 92.5853 34.3652C92.6671 38.5806 88.7363 38.8611 84.2001 38.7856L84.1953 38.7885Z" fill="white"/>
<path fill-rule="evenodd" clip-rule="evenodd" d="M103.457 30.2841C103.545 30.7754 106.038 33.3933 104.952 33.9522C104.069 34.4087 103.647 32.7753 102.71 32.5355L98.5581 32.6186L98.6419 35.6166L101.465 35.7007C102.285 35.5198 102.716 34.4648 103.457 34.6988C103.774 35.1717 103.632 35.6485 103.346 36.102C102.812 36.9521 102.101 38.0362 101.477 38.8098C101.166 39.1966 100.793 39.4577 100.303 39.3688C99.9178 39.1976 100.089 38.4704 100.053 37.9501H98.6419L98.7246 41.036C99.7667 41.1056 100.884 41.2342 101.713 41.1201C103.298 40.9006 104.008 39.2827 105.37 39.2827C105.893 40.83 103.974 42.2738 103.213 43.3695L94.5214 43.4508C93.4033 43.4614 92.4497 43.269 92.4189 42.7013C92.3737 41.8561 93.3811 42.0466 93.7478 41.4518C93.8844 38.5855 93.8863 35.1427 93.7478 32.2763C93.5005 31.6158 92.467 31.8015 92.4189 31.109C92.3669 30.3576 93.2984 30.1255 94.4502 30.142L103.457 30.2841Z" fill="white"/>
<path fill-rule="evenodd" clip-rule="evenodd" d="M112.917 30.7009C113.257 31.7647 112.058 31.6332 111.756 32.3682V41.2081H115.739C117.335 40.7981 117.775 38.5091 119.477 38.7073C119.697 38.7847 119.942 39.1376 119.714 39.5438L117.567 43.3773C115.2 43.5252 111.36 43.4604 108.185 43.4604C107.1 43.4604 105.683 43.6655 105.529 42.9605C105.306 41.9412 106.648 42.0746 106.939 41.3754C106.953 38.4694 106.934 35.5421 106.939 32.4513C106.579 31.7899 105.616 32.079 105.612 31.2009C105.612 30.5375 106.304 30.3006 107.225 30.3083L111.605 30.3451C112.218 30.3499 112.706 30.435 112.917 30.7009Z" fill="white"/>
</g>
<defs>
<clipPath id="clip0_4385_1280">
<rect width="56" height="56" fill="white" transform="translate(70 8)"/>
</clipPath>
</defs>
</svg>
