<svg width="196" height="73" viewBox="0 0 196 73" fill="none" xmlns="http://www.w3.org/2000/svg">
<rect width="196" height="73" fill=""/>
<g clip-path="url(#clip0_4385_1268)">
<path d="M32.5106 24.7355L31.8727 25.3611L41.4174 35.0304L44.0769 32.4029L33.9708 22.2176C33.7173 23.1712 33.2133 24.0403 32.5106 24.7355Z" fill="white"/>
<path d="M36.171 11.2502L32.1553 15.2071L32.6735 15.7388C33.4158 16.4889 33.9296 17.4331 34.1553 18.4621L36.1553 16.4915L47.7806 28.2994C48.1449 28.6715 48.3489 29.1707 48.3489 29.6904C48.3489 30.2101 48.1449 30.7093 47.7806 31.0813L45.2173 33.5915L42.5656 36.1877L30.7402 47.7747C29.6646 48.829 29.0533 50.2656 29.0408 51.7686C29.0283 53.2717 29.6155 54.7181 30.6734 55.7901L35.7765 61L50.3007 46.7875C51.3764 45.7332 51.9876 44.2966 52.0001 42.7936C52.0126 41.2905 51.4254 39.844 50.3675 38.7721L48.9936 37.3763L46.2889 39.9823L47.6628 41.3703C48.0272 41.7423 48.2311 42.2415 48.2311 42.7612C48.2311 43.281 48.0272 43.7801 47.6628 44.1522L35.8158 55.7685L33.3035 53.1997C32.9392 52.8292 32.7352 52.3313 32.7352 51.8127C32.7352 51.2941 32.9392 50.7961 33.3035 50.4256L45.1584 38.823L47.8042 36.219L50.3675 33.7244C51.4398 32.6684 52.0487 31.2324 52.0612 29.7305C52.0737 28.2285 51.4888 26.7828 50.4342 25.7091L36.171 11.2502Z" fill="white"/>
<path d="M29.4507 56.2338C28.7116 55.4813 28.1983 54.5381 27.9688 53.5105L25.9236 55.5242L14.2611 43.7162C13.8968 43.3442 13.6928 42.845 13.6928 42.3253C13.6928 41.8055 13.8968 41.3064 14.2611 40.9343L15.6919 39.5541L13.0972 36.9188L11.6899 38.3068C10.6191 39.3605 10.0109 40.7937 9.99838 42.293C9.98587 43.7922 10.5701 45.2353 11.6232 46.3065L25.8981 60.7576L29.9963 56.7577L29.4507 56.2338Z" fill="white"/>
<path d="M11.7939 25.2145C10.7191 26.2696 10.1089 27.7066 10.0975 29.2096C10.0861 30.7127 10.6744 32.1587 11.7331 33.2298L13.3484 34.8681L16.8696 38.4241L28.22 49.9037C28.4482 48.8253 28.9894 47.8376 29.7765 47.0631L30.2063 46.6428L19.5134 35.828L16.9049 33.177L14.3789 30.6356C14.0172 30.2633 13.815 29.7656 13.815 29.2476C13.815 28.7296 14.0172 28.2318 14.3789 27.8596L26.2907 16.2393L28.8128 18.8003C29.1772 19.1727 29.3812 19.6722 29.3812 20.1922C29.3812 20.7123 29.1772 21.2118 28.8128 21.5841L18.0688 32.0412L20.6773 34.6824L31.3624 24.2331C32.438 23.1788 33.0492 21.7423 33.0617 20.2392C33.0743 18.7362 32.487 17.2897 31.4291 16.2178L26.2907 11L11.7939 25.2145Z" fill="white"/>
<path d="M75.196 26.4989H66.4089V45.1179H71.5355V40.5199H74.6111C77.6625 40.5199 79.7024 40.0943 80.7309 39.2433C81.7594 38.3922 82.271 36.7097 82.2658 34.1956V32.7196C82.2658 30.2602 81.7941 28.5972 80.8506 27.7305C79.9072 26.8638 78.0224 26.4533 75.196 26.4989ZM77.1686 34.2405C77.1686 35.0714 76.9939 35.609 76.6484 35.8573C75.9302 36.1741 75.1413 36.2988 74.3599 36.219H71.5355V30.8389H74.8938C75.5315 30.7608 76.1774 30.8926 76.7328 31.2143C77.0748 31.6851 77.223 32.2685 77.147 32.8447L77.1686 34.2405ZM90.0892 26.4989H84.9626V45.1179H97.8557V41.0008H90.0892V26.4989ZM111.177 38.4241C111.177 39.4668 110.981 40.1582 110.588 40.4984C110.195 40.8385 109.368 41.006 108.107 41.0008C106.851 41.0008 106.026 40.8333 105.632 40.4984C105.24 40.1641 105.043 39.472 105.031 38.4241V26.4989H99.8931V38.3068C99.8931 41.0034 100.468 42.8411 101.618 43.8198C102.768 44.7986 104.91 45.2906 108.042 45.2958C111.198 45.2958 113.348 44.8038 114.49 43.8198C115.632 42.8358 116.193 40.9982 116.172 38.3068V26.4989H111.171L111.177 38.4241ZM134.68 26.4989L131.132 37.4877L127.568 26.4989H119.483V45.1179H124.612V31.097L129.138 45.1179H133.073L137.599 31.097V45.1179H142.728V26.4989H134.68Z" fill="white"/>
<path d="M159.317 31.9747H161.327V33.3979L161.497 33.2025C161.91 32.7244 162.429 32.3482 163.012 32.1033C163.595 31.8584 164.228 31.7515 164.859 31.791C165.378 31.7419 165.9 31.7982 166.396 31.9565C166.892 32.1147 167.35 32.3717 167.743 32.7118C168.412 33.5642 168.73 34.6388 168.632 35.7165V36.5728H166.496V35.5836C166.553 35.0136 166.395 34.4429 166.053 33.9825C165.841 33.8064 165.597 33.6744 165.333 33.5945C165.069 33.5146 164.792 33.4883 164.518 33.5172C164.099 33.4934 163.68 33.567 163.294 33.7323C162.909 33.8975 162.567 34.1498 162.296 34.4693C161.716 35.3419 161.431 36.376 161.482 37.4213V45.1179H159.364L159.317 31.9747Z" fill="white"/>
<path d="M170.424 26.4989H172.602V28.6494H170.424V26.4989ZM170.424 31.9962H172.551V45.1179H170.424V31.9962Z" fill="white"/>
<path d="M179.776 45.3036C177.916 45.3036 176.619 44.8631 175.888 43.9821C175.157 43.1011 174.791 41.5416 174.791 39.3039V37.8279C174.791 35.5745 175.157 34.0105 175.888 33.136C176.619 32.2615 177.916 31.8177 179.776 31.8047C181.639 31.8047 182.936 32.2608 183.666 33.1731L183.874 33.4312V26.4989H186.002V45.1179H184.082V43.2451C183.972 43.4899 183.833 43.7204 183.666 43.9313C182.935 44.8462 181.638 45.3036 179.776 45.3036ZM180.243 33.5739C178.935 33.5739 178.048 33.8619 177.584 34.438C177.119 35.014 176.89 36.1329 176.895 37.7946V39.2706C176.895 40.9402 177.122 42.0623 177.576 42.6371C178.03 43.2118 178.915 43.4999 180.23 43.5012C181.669 43.5012 182.635 43.1982 183.127 42.5921C183.619 41.9861 183.865 40.8131 183.867 39.0732V38.0019C183.867 36.2607 183.62 35.0877 183.127 34.4829C182.633 33.8782 181.672 33.5758 180.241 33.5758L180.243 33.5739Z" fill="white"/>
<path d="M154.791 31.9748V33.8124C154.683 33.5706 154.543 33.3444 154.375 33.1399C153.629 32.2406 152.312 31.791 150.426 31.791C148.539 31.791 147.225 32.2243 146.484 33.091C145.742 33.9616 145.372 35.5061 145.373 37.7243V39.2022C145.373 41.4061 145.744 42.9434 146.484 43.814C147.225 44.6846 148.539 45.1199 150.426 45.1199C152.314 45.1199 153.63 44.6696 154.375 43.769C154.465 43.6697 154.54 43.5578 154.598 43.4367V45.7474C154.598 46.9654 154.353 47.7767 153.856 48.1677C153.36 48.5587 152.375 48.7542 150.893 48.7542C150.05 48.836 149.203 48.6469 148.477 48.2146C148.27 48.0329 148.115 47.8012 148.025 47.5421H145.905C145.981 48.3276 146.34 49.0593 146.914 49.6026C147.653 50.2126 149.004 50.5175 150.967 50.5175C153.199 50.5175 154.681 50.195 155.413 49.5498C156.144 48.9047 156.524 47.6353 156.553 45.7416V31.9748H154.791ZM154.594 38.9931C154.594 40.6991 154.347 41.8505 153.852 42.4475C153.358 43.0444 152.37 43.3396 150.889 43.3331C149.55 43.3331 148.649 43.0502 148.184 42.4846C147.72 41.919 147.485 40.8242 147.481 39.2003V37.7243C147.481 36.0925 147.701 34.9926 148.141 34.4243C148.577 33.8574 149.423 33.568 150.692 33.568C152.234 33.568 153.273 33.8658 153.811 34.4615C154.349 35.0571 154.618 36.2059 154.618 37.908L154.594 38.9931Z" fill="white"/>
</g>
<defs>
<clipPath id="clip0_4385_1268">
<rect width="176" height="50" fill="white" transform="translate(10 11)"/>
</clipPath>
</defs>
</svg>
