<svg width="196" height="73" viewBox="0 0 196 73" fill="none" xmlns="http://www.w3.org/2000/svg">
<rect width="196" height="73" fill=""/>
<g clip-path="url(#clip0_4385_1270)">
<path d="M53.5407 26.9948C53.5616 26.3587 53.6198 25.7244 53.715 25.0953C54.6341 20.3116 58.3728 17.7524 63.224 18.4385C68.672 19.2065 70.5342 23.5809 70.2215 28.3767C70.1021 30.2304 69.6103 31.9999 68.4309 33.4781C68.006 34.0126 68.1444 34.2847 68.6219 34.5976C68.8606 34.7469 69.0469 34.9588 69.2737 35.1177C69.7893 35.4788 70.2119 35.758 69.5745 36.4707C69.0421 37.0653 68.672 37.27 68.0919 36.6175C67.9105 36.4129 67.6335 36.2925 67.4473 36.0903C66.7979 35.3873 66.1653 35.4041 65.2628 35.758C63.0918 36.6023 60.6893 36.616 58.5089 35.7966C55.2883 34.6674 53.5192 31.6003 53.5407 26.9948ZM64.3843 33.7743C64.065 33.4659 63.7235 33.1818 63.3625 32.9244C62.5794 32.4694 62.5985 32.0674 63.1691 31.3644C63.7397 30.6614 64.0333 30.9744 64.4726 31.3644C64.7758 31.622 65.122 31.8459 65.3965 32.1179C65.9504 32.6933 66.2918 32.5031 66.6523 31.8916C67.8317 29.891 67.9343 27.7098 67.5906 25.5214C67.082 22.2857 65.0957 20.5282 62.0995 20.4512C59.1034 20.3742 57.012 21.9607 56.3053 24.881C56.0288 26.0051 55.9417 27.1681 56.0475 28.3213C56.4748 33.0641 60.1037 35.5077 64.3771 33.7743H64.3843Z" fill="white"/>
<path d="M48.6274 34.3713C46.8775 36.0782 45.0249 36.6223 42.8977 36.0758C42.0084 35.8527 41.1967 35.3881 40.5509 34.7325C38.111 32.2624 38.2351 26.8311 40.7347 24.438C42.4823 22.7672 46.2973 22.4157 48.5988 24.9195C48.5988 23.1596 48.6322 21.5972 48.5845 20.0371C48.5582 19.2065 48.6441 18.7732 49.6874 18.79C50.6782 18.8045 50.7403 19.1969 50.7355 19.9938C50.7045 24.8088 50.7355 29.6502 50.6997 34.4773C50.6997 35.0117 51.1772 35.8856 49.9286 35.9218C48.9402 35.9193 48.3481 35.7532 48.6274 34.3713ZM48.6752 29.5563C48.6395 29.0098 48.5742 28.4657 48.4794 27.9265C48.0282 25.9331 46.8703 25.0086 44.8792 24.999C43.0362 24.999 41.7565 25.9788 41.2981 27.835C40.969 29.03 40.9517 30.2906 41.248 31.4944C41.6276 32.9389 42.4703 33.9909 43.9863 34.3111C45.3448 34.5976 46.6125 34.3545 47.5674 33.2615C48.4651 32.2022 48.6537 30.9094 48.6752 29.5636V29.5563Z" fill="white"/>
<path d="M109.239 34.6072C107.68 36.0517 105.87 36.6127 103.788 36.0879C103.671 36.0566 103.55 36.0397 103.44 36.0036C100.424 35.0406 98.8869 31.2969 99.8968 27.3655C100.697 24.2502 103.359 22.5505 106.515 23.1813C107.579 23.3907 108.487 23.9252 109.406 24.9219C109.406 22.9959 109.473 21.3468 109.38 19.6952C109.325 18.7106 109.869 18.8261 110.478 18.8189C111.087 18.8117 111.571 18.7419 111.559 19.7024C111.504 24.7269 111.533 29.7537 111.535 34.7806C111.535 35.3776 111.681 36.006 110.683 35.888C109.995 35.8062 109.158 36.0662 109.387 34.8624C109.406 34.8119 109.322 34.7445 109.239 34.6072ZM109.465 29.4961C109.446 29.188 109.437 28.8293 109.401 28.4729C109.196 26.3808 108.035 25.1554 106.135 25.011C104.003 24.8473 102.628 25.8103 102.105 27.9C101.824 29.0282 101.799 30.206 102.034 31.3451C102.396 33.1652 103.733 34.3256 105.5 34.4002C107.36 34.4772 108.628 33.5335 109.208 31.6845C109.43 30.9767 109.42 30.2617 109.465 29.4961Z" fill="white"/>
<path d="M17.7798 35.8712C16.1086 35.8712 14.4374 35.8495 12.7662 35.8832C12.1527 35.8929 11.9521 35.7195 11.9999 35.0599C12.0633 34.1396 12.3182 33.2432 12.7481 32.4289C13.1779 31.6146 13.7731 30.9008 14.4947 30.3339C15.8245 29.2385 17.3596 28.497 18.8684 27.6857C19.8664 27.1464 20.764 26.482 21.1508 25.3577C21.7787 23.5256 20.9359 21.9149 19.1358 21.4407C16.8869 20.8508 15.1465 21.886 14.7239 24.0215C14.626 24.556 14.9292 25.3504 13.8239 25.3239C12.2911 25.2878 12.1527 25.1988 12.4821 23.6387C12.9548 21.4383 14.1987 19.9817 16.4237 19.5002C18.7634 19.0067 20.9741 19.2595 22.6453 21.1855C24.369 23.162 23.9369 26.4627 21.824 28.2563C20.7163 29.1952 19.3602 29.6887 18.1045 30.3652C16.9108 31.008 15.7171 31.6581 14.9435 32.8329C14.4923 33.5094 14.4661 33.8681 15.464 33.8537C17.8514 33.8152 20.2388 33.8681 22.6262 33.8272C23.3854 33.8128 23.7721 33.9091 23.7554 34.8336C23.7387 35.6738 23.5167 35.9193 22.6763 35.888C21.0386 35.823 19.4008 35.8712 17.7798 35.8712Z" fill="white"/>
<path d="M178.464 25.5551C177.112 25.5551 175.761 25.6081 174.405 25.5358C173.55 25.4901 173.254 25.6803 173.278 26.6216C173.35 29.4889 173.278 32.3611 173.321 35.2332C173.321 35.9555 173.173 36.2179 172.412 36.1745C171.736 36.1384 171.332 36.124 171.352 35.2284C171.416 32.3972 171.321 29.5636 171.404 26.7348C171.435 25.6899 171.096 25.5093 170.148 25.531C167.372 25.5984 164.593 25.531 161.814 25.5671C161.112 25.5671 160.763 25.4901 160.763 24.6282C160.763 23.7663 161.071 23.593 161.869 23.593C164.686 23.6387 167.505 23.5665 170.323 23.6363C171.254 23.6604 171.423 23.3643 171.406 22.5048C171.352 19.6736 171.406 16.8424 171.368 14.0112C171.368 13.2408 171.554 12.988 172.354 12.9904C173.154 12.9928 173.343 13.2119 173.331 13.9895C173.285 16.8592 173.35 19.7314 173.29 22.6011C173.273 23.4678 173.543 23.6459 174.353 23.6315C177.091 23.5785 179.829 23.6002 182.568 23.6195C183.205 23.6195 183.986 23.2824 184 24.5512C184.017 25.8825 183.183 25.5142 182.513 25.5382C181.161 25.5719 179.812 25.5551 178.464 25.5551Z" fill="white"/>
<path d="M94.7615 34.4074C93.033 35.9169 91.1804 36.6296 88.9792 36.0927C87.308 35.693 86.3531 34.6193 86.217 32.9629C86.0666 31.0923 86.7852 29.8332 88.4325 29.1591C89.9676 28.5428 91.6173 28.5717 93.224 28.3526C94.5681 28.1696 94.9573 27.575 94.6254 26.3255C94.5928 26.1707 94.5294 26.0241 94.4392 25.8945C93.5654 24.7919 92.3407 24.9484 91.1589 25.0062C90.1419 25.0567 89.1893 25.4082 88.9553 26.4868C88.6617 27.8229 87.6661 27.2451 87.0956 27.1561C86.3197 27.0357 86.8568 26.3207 86.9714 25.9066C87.3128 24.5921 88.2797 23.8482 89.4973 23.4317C90.9297 22.9502 92.4027 22.9743 93.8519 23.2415C95.9743 23.6339 96.8958 24.7919 96.9269 26.9851C96.9579 29.0195 96.9269 31.0514 96.9412 33.0857C96.9412 33.7382 96.9245 34.3954 97.8961 34.3882C98.5718 34.3882 98.271 34.9539 98.3187 35.2886C98.3856 35.7701 98.1755 35.9964 97.6741 36.0831C96.1891 36.3358 95.3631 35.8977 94.7615 34.4074ZM94.6612 30.9382C94.4105 30.6542 95.1053 29.7658 94.2721 29.8428C92.7081 30.0297 91.1583 30.3224 89.6334 30.7192C88.8622 30.8997 88.4874 31.5257 88.4397 32.3153C88.3919 33.105 88.6354 33.7285 89.3516 34.1185C91.5791 35.3512 94.6397 33.572 94.6612 30.9382Z" fill="white"/>
<path d="M130.775 34.4459C129.104 35.9097 127.216 36.6464 124.979 36.0975C123.408 35.7099 122.434 34.653 122.264 33.1531C122.054 31.2608 122.72 29.9656 124.31 29.2385C125.714 28.5957 127.244 28.615 128.732 28.4055C129.627 28.2804 130.763 28.4441 130.766 26.9851C130.766 25.7814 130.15 25.1289 128.696 25.0278C127.058 24.9147 125.406 24.7606 124.807 26.9827C124.654 27.5461 123.663 27.2524 123.083 27.1777C122.503 27.1031 122.859 26.6071 122.911 26.3062C123.181 24.7606 124.198 23.8626 125.607 23.4172C127.098 22.9619 128.685 22.931 130.193 23.3281C132.086 23.7928 132.931 24.8545 132.967 26.8214C133.005 28.9352 132.984 31.049 132.979 33.1652C132.979 33.8176 133.041 34.4026 133.896 34.3689C134.593 34.3472 134.347 34.8649 134.373 35.2091C134.421 35.6401 134.34 35.9506 133.805 36.0662C132.377 36.3816 131.468 35.9314 130.775 34.4459ZM130.678 29.631C129.166 30.2714 127.631 30.1943 126.18 30.5506C124.953 30.854 124.394 31.5377 124.47 32.6163C124.547 33.6948 125.284 34.3376 126.588 34.4002C129.57 34.5422 130.945 32.9822 130.678 29.6334V29.631Z" fill="white"/>
<path d="M179.385 21.9462C178.191 21.9462 176.998 21.9197 175.804 21.9462C175.212 21.9631 174.959 21.8162 174.968 21.159C175.002 18.7306 175.002 16.3007 174.968 13.8691C174.968 13.2576 175.124 13.0289 175.763 13.0385C178.222 13.0698 180.681 13.0602 183.141 13.0385C183.68 13.0385 183.924 13.1661 183.916 13.7607C183.89 16.2308 183.885 18.7009 183.916 21.171C183.916 21.8547 183.625 21.951 183.057 21.9366C181.847 21.9246 180.615 21.9462 179.385 21.9462Z" fill="white"/>
<path d="M139.931 48.0363C140.018 49.505 139.601 50.9592 138.752 52.1555C138.172 52.9427 138.465 53.2292 139.064 53.73C139.418 54.0261 140.468 54.1056 139.8 55.0758C139.353 55.721 138.945 55.9617 138.327 55.2997C137.47 54.3848 136.605 54.2476 135.307 54.6858C130.644 56.2482 126.292 52.5335 126.617 47.4296C126.934 42.4485 130.959 39.5185 135.502 40.963C138.293 41.849 139.936 44.413 139.931 48.0363ZM135.142 52.9403C134.106 51.9075 134.106 51.9075 134.228 51.5897C134.536 50.7856 135.183 50.5617 135.827 51.166C136.739 52.0183 137.145 51.5753 137.498 50.6845C138.1 49.1919 138.212 47.5438 137.816 45.9827C137.25 43.6474 135.667 42.3088 133.485 42.2727C131.098 42.2318 129.415 43.5029 128.82 45.884C128.409 47.3949 128.493 48.9991 129.059 50.4582C130.064 53.0174 132.685 54.0983 135.142 52.9403Z" fill="white"/>
<path d="M81.5019 34.3424C80.0456 36.0277 78.2574 36.372 76.2759 36.0951C74.2203 35.8086 73.0195 34.6 72.9669 32.5368C72.8977 29.7513 72.9669 26.9611 72.9216 24.1708C72.9073 23.2078 73.5614 23.475 74.0556 23.4485C74.5498 23.422 75.1825 23.2415 75.1634 24.1924C75.1132 26.3833 75.1419 28.5741 75.149 30.7649C75.161 33.3891 75.7626 34.2534 77.6104 34.3304C79.8809 34.4243 81.3825 33.0857 81.4756 30.7408C81.5568 28.6728 81.4995 26.5975 81.5091 24.5271C81.5091 23.5906 82.6264 22.9791 83.4452 23.4726C83.8344 23.7133 83.672 24.1226 83.672 24.4573C83.684 27.9241 83.672 31.3884 83.684 34.8552C83.684 35.4378 83.7508 35.9916 82.8651 35.8688C82.2539 35.7845 81.4064 36.1095 81.5783 34.9467C81.5744 34.7431 81.5488 34.5405 81.5019 34.3424Z" fill="white"/>
<path d="M115.073 54.9939C113.974 55.0613 112.875 54.8512 111.877 54.3824C110.533 53.7565 109.656 52.7261 109.401 51.2527C109.341 50.9108 109.117 50.3475 109.742 50.3138C110.22 50.2873 110.793 49.955 111.137 50.7567C112.17 53.1642 114.918 54.0839 117.263 52.897C118.027 52.5094 118.49 51.934 118.507 51.024C118.523 50.1139 118.029 49.553 117.248 49.1919C116.265 48.7417 115.212 48.5442 114.171 48.3107C113.275 48.1421 112.405 47.8547 111.583 47.4561C111.098 47.208 110.681 46.8445 110.367 46.3969C110.053 45.9493 109.852 45.4313 109.781 44.8876C109.711 44.344 109.773 43.7913 109.962 43.2773C110.151 42.7633 110.462 42.3036 110.867 41.9381C112.805 40.13 117.005 40.2143 118.881 42.0922C119.331 42.4897 119.653 43.0136 119.805 43.5968C119.882 43.9941 120.364 44.6297 119.667 44.815C119.108 44.9643 118.392 45.193 118.024 44.218C117.258 42.1812 113.565 41.5697 112.075 43.1731C111.165 44.1482 111.426 45.4795 112.736 45.9345C114.379 46.5027 116.1 46.8373 117.75 47.3911C119.199 47.8726 120.199 48.8837 120.342 50.4967C120.49 52.182 119.731 53.4218 118.311 54.2596C117.557 54.7103 116.704 54.9667 115.828 55.006C115.551 55.006 115.274 54.9939 115.073 54.9939Z" fill="white"/>
<path d="M27.647 25.0664C29.3611 23.1163 31.3904 22.8394 33.6036 23.4052C35.1768 23.8096 36.1533 24.9532 36.1891 26.5855C36.2512 29.4552 36.1891 32.3298 36.2368 35.2019C36.2512 36.1216 35.64 35.8784 35.1959 35.8519C34.7519 35.8254 34.0213 36.2323 34.0357 35.2019C34.0691 32.8883 34.0595 30.5747 34.0357 28.2611C34.019 26.0655 33.4508 25.2108 31.9706 25.0639C29.7145 24.84 28.1149 25.8199 27.795 27.8422C27.4369 30.0932 27.7138 32.3803 27.6589 34.6506C27.6351 35.746 26.7493 36.3094 25.749 35.8543C25.2715 35.6401 25.5103 35.226 25.5103 34.913C25.4912 31.4414 25.5103 27.9722 25.4888 24.5006C25.4888 23.812 25.527 23.3763 26.4175 23.4317C27.1552 23.4798 27.7998 23.4317 27.6112 24.4741C27.6069 24.6722 27.6188 24.8703 27.647 25.0664Z" fill="white"/>
<path d="M138.503 25.0567C140.203 23.1524 142.149 22.8563 144.3 23.3715C146.007 23.7856 147.003 24.9219 147.036 26.6722C147.093 29.5034 147.036 32.337 147.081 35.1706C147.098 36.1914 146.408 35.8182 145.943 35.8495C145.429 35.8832 144.837 36.0638 144.861 35.108C144.921 32.8354 144.89 30.5603 144.878 28.2852C144.866 26.0896 144.307 25.218 142.844 25.0591C140.6 24.8184 138.981 25.7934 138.642 27.8037C138.265 30.0523 138.556 32.3418 138.499 34.6121C138.47 35.7605 137.706 36.2684 136.615 35.8519C136.099 35.6545 136.343 35.2356 136.34 34.9347C136.319 31.4222 136.34 27.912 136.314 24.3995C136.314 23.7206 136.407 23.3546 137.205 23.4365C137.878 23.4967 138.637 23.3161 138.446 24.4236C138.444 24.636 138.463 24.8481 138.503 25.0567Z" fill="white"/>
<path d="M74.7312 53.8191C73.8169 54.5028 73.0004 55.0228 71.9332 55.0228C70.262 54.9939 69.0325 54.2717 68.3521 52.7189C67.6383 51.0515 67.5735 49.1742 68.1707 47.4609C69.0158 44.8512 71.513 43.7967 74.0031 44.9378C74.3493 45.0967 74.5331 45.3953 74.9724 44.8199C75.4498 44.1987 76.5433 44.8054 76.5457 45.6216C76.5457 48.5346 76.5863 51.4477 76.5266 54.3608C76.4502 58.1766 73.1842 60.0858 69.7511 58.3813C69.2351 58.1603 68.8037 57.7769 68.5216 57.2883C68.2829 56.8333 67.7362 56.1736 68.4166 55.8679C68.8797 55.6584 69.7702 55.3238 70.1331 56.4457C70.4817 57.517 71.5417 57.4303 72.468 57.4255C73.4444 57.4255 74.1678 57.0066 74.4901 56.0629C74.7838 55.3541 74.8676 54.5748 74.7312 53.8191ZM74.8172 49.3869C74.6357 48.6237 75.192 47.6174 74.4925 46.8686C74.148 46.4777 73.7057 46.1872 73.2118 46.0276C72.718 45.8679 72.1906 45.8449 71.6849 45.961C70.6106 46.2018 70.083 47.042 69.8371 48.0724C69.5709 49.1969 69.5709 50.3689 69.8371 51.4934C70.2978 53.5422 72.1051 54.1585 73.8288 52.95C75.1347 52.0279 74.748 50.723 74.8172 49.3869Z" fill="white"/>
<path d="M12.2149 47.7666C12.2149 45.8141 12.2555 43.8593 12.1958 41.9068C12.1695 41.0449 12.4703 40.8258 13.282 40.8523C15.0678 40.9125 16.8631 40.8186 18.6394 40.898C21.8361 41.0377 23.4452 43.2911 22.6192 46.3655C22.1656 48.0507 20.6448 49.1052 18.3887 49.2183C17.2404 49.2761 16.0849 49.2737 14.9365 49.2328C14.2728 49.2087 14.0174 49.4061 14.0484 50.1019C14.0985 51.2575 14.0651 52.4155 14.0603 53.5711C14.0603 54.185 14.2394 54.8013 13.177 54.8134C12.0621 54.8134 12.222 54.185 12.222 53.5085C12.2173 51.5945 12.2149 49.6806 12.2149 47.7666ZM14.0627 45.0197C14.0627 45.6553 14.0627 46.2908 14.0627 46.924C14.0627 47.2779 14.1224 47.5668 14.5617 47.55C16.135 47.4922 17.7298 47.7594 19.2792 47.3092C20.4562 46.9673 20.8405 46.0742 20.8262 44.9306C20.8119 43.787 20.3487 43.0552 19.2219 42.7277C18.3242 42.4653 17.417 42.5472 16.5122 42.5424C14.0603 42.5375 14.0603 42.5472 14.0627 45.0197Z" fill="white"/>
<path d="M99.4862 50.203C98.4954 50.203 97.5022 50.2271 96.5115 50.203C95.9337 50.1837 95.7356 50.3691 95.8406 50.9614C96.065 52.2277 96.9221 53.2413 98.0609 53.5109C99.3549 53.8191 100.448 53.4002 101.165 52.1723C101.601 51.4356 102.27 51.6403 102.716 51.816C103.33 52.0568 102.912 52.6322 102.716 53.0198C101.714 54.9578 98.6792 55.6487 96.3778 54.4835C94.5442 53.5566 93.6203 51.4356 93.9188 48.8404C94.1766 46.6062 95.4658 45.0871 97.5142 44.6032C98.2399 44.4223 98.9978 44.4176 99.7257 44.5896C100.454 44.7616 101.131 45.1053 101.701 45.5925C102.272 46.0797 102.719 46.6964 103.007 47.392C103.296 48.0876 103.416 48.8423 103.359 49.5939C103.32 50.1789 103.017 50.2102 102.583 50.2054C101.551 50.1958 100.52 50.203 99.4862 50.203ZM98.4978 48.7585C99.214 48.7585 99.9302 48.7296 100.634 48.7585C101.258 48.7922 101.41 48.5177 101.239 47.9785C100.895 46.871 100.236 46.0934 99.0373 45.908C98.4876 45.8056 97.9198 45.8865 97.4197 46.1384C96.9196 46.3904 96.5145 46.7996 96.2656 47.3044C95.5875 48.5611 95.6926 48.7489 97.0749 48.7489L98.4978 48.7585Z" fill="white"/>
<path d="M153.554 36.0614C151.36 36.0614 150.665 35.368 150.65 33.312C150.631 30.9214 150.617 28.5307 150.65 26.1401C150.665 25.389 150.495 25.0134 149.681 25.141C149.029 25.2421 148.695 25.0856 148.695 24.2743C148.695 23.398 149.158 23.3787 149.743 23.4581C150.502 23.5617 150.724 23.2415 150.646 22.524C150.593 22.0425 150.693 21.561 150.622 21.094C150.479 20.1502 150.894 20.0082 151.742 19.9865C152.665 19.9649 152.959 20.2634 152.813 21.1277C152.8 21.2879 152.8 21.449 152.813 21.6092C152.813 23.2944 152.813 23.3522 154.485 23.4317C155.256 23.4678 155.122 23.9132 155.158 24.3947C155.198 24.9339 155.055 25.153 154.454 25.1771C152.811 25.2373 152.813 25.271 152.813 26.9346C152.813 28.8461 152.813 30.7577 152.813 32.6692C152.813 33.6948 153.183 34.2654 154.294 34.1595C154.69 34.1233 155.222 33.9452 155.158 34.7108C155.113 35.2645 155.366 35.9603 154.423 35.9964C154.072 35.9964 153.716 36.0469 153.554 36.0614Z" fill="white"/>
<path d="M38.1277 49.7504C38.1277 53.6842 35.1506 56.0099 31.7008 54.7507C29.5712 53.9779 28.8765 52.2421 28.7118 50.1741C28.3608 46.2234 31.3642 43.604 34.9572 44.7067C36.9984 45.335 38.1301 47.1334 38.1277 49.7504ZM36.2321 49.6709C36.2812 48.9544 36.1575 48.2366 35.8716 47.5788C35.3941 46.5099 34.5848 45.8791 33.3672 45.8936C31.7247 45.9225 30.6647 47.237 30.5334 49.3965C30.3949 51.6619 31.3355 53.3038 32.9208 53.535C32.9995 53.535 33.0783 53.535 33.1595 53.5518C35.1315 53.6866 36.2225 52.3625 36.2321 49.6709Z" fill="white"/>
<path d="M47.9661 55.0011C45.7864 54.9891 44.4949 54.2789 44.0126 52.8007C43.898 52.454 43.5805 51.9196 44.12 51.792C44.619 51.6764 45.2923 51.4236 45.6981 52.141C46.474 53.5085 47.9709 53.9731 49.4153 53.3448C49.6968 53.2442 49.9377 53.053 50.1008 52.8006C50.2639 52.5483 50.3401 52.2488 50.3177 51.9484C50.3177 51.3105 49.9071 51.036 49.3795 50.8795C48.2789 50.5545 47.164 50.2752 46.0729 49.9165C44.5927 49.435 44.0723 48.7706 44.0604 47.4729C44.0484 46.1753 44.7766 45.1617 46.1111 44.738C47.4829 44.287 48.97 44.3512 50.2986 44.9186C50.5619 45.0113 50.8043 45.1556 51.012 45.3432C51.2198 45.5308 51.3887 45.7579 51.509 46.0116C51.6809 46.4136 52.1059 47.0323 51.6069 47.2322C51.1605 47.4079 50.4132 47.6872 49.9357 46.912C49.2649 45.8238 47.5483 45.5325 46.4716 46.2258C46.2828 46.3369 46.1289 46.4996 46.028 46.6952C45.927 46.8908 45.883 47.1111 45.901 47.3309C45.9201 47.8653 46.2711 48.1085 46.708 48.2385C47.5818 48.4961 48.4675 48.72 49.3341 48.9607C51.5735 49.5891 52.3398 50.4558 52.156 52.1483C51.9889 53.7083 50.4705 54.9024 48.5463 54.9891C48.3624 55.0084 48.1643 55.0011 47.9661 55.0011Z" fill="white"/>
<path d="M146.814 47.7618C146.814 45.7684 146.847 43.775 146.797 41.784C146.778 41.0328 147.036 40.8402 147.752 40.8451C148.468 40.8499 148.707 41.0377 148.707 41.7888C148.671 45.1761 148.707 48.5635 148.674 51.9508C148.662 52.8151 148.843 53.1546 149.777 53.104C151.398 53.0246 153.028 53.104 154.654 53.0679C155.327 53.0511 155.432 53.352 155.43 53.925C155.428 54.498 155.332 54.7965 154.659 54.7869C152.317 54.7507 149.975 54.7459 147.635 54.7869C146.895 54.8013 146.804 54.4739 146.812 53.8576C146.831 51.828 146.814 49.7961 146.814 47.7618Z" fill="white"/>
<path d="M116.986 25.0664C117.848 23.9758 118.855 23.3041 120.211 23.2078C120.646 23.1789 121.228 23.097 121.056 23.7832C120.913 24.3489 121.715 25.2951 120.447 25.4684C117.833 25.8055 117.045 26.7083 117.045 29.3493C117.045 31.2584 116.991 33.1724 117.065 35.0791C117.1 36.006 116.568 35.8905 116.024 35.864C115.479 35.8375 114.83 36.1384 114.856 35.0864C114.912 31.5457 114.912 28.0035 114.856 24.4597C114.842 23.5785 115.145 23.4221 115.938 23.4221C116.73 23.4221 117.131 23.6074 117.002 24.4765C116.981 24.6724 116.976 24.8696 116.986 25.0664Z" fill="white"/>
<path d="M58.8789 49.7721C58.8789 48.9343 58.8789 48.0868 58.8789 47.2611C58.8789 46.6712 59.0293 46.0019 58.041 46.1175C57.6423 46.1632 57.6423 45.7949 57.6661 45.5229C57.69 45.2508 57.5133 44.7236 57.9526 44.7452C59.1797 44.8054 58.9076 43.9484 58.8622 43.3007C58.7978 42.4533 59.101 42.2174 59.9342 42.2246C60.827 42.2246 60.7483 42.7663 60.7244 43.332C60.691 44.1097 60.6026 44.9017 61.813 44.7019C62.3216 44.6176 62.3645 44.9956 62.3741 45.3928C62.3741 45.8551 62.2929 46.2114 61.7319 46.1271C60.8461 45.9923 60.6838 46.4257 60.7101 47.2153C60.765 48.8476 60.7387 50.4823 60.7268 52.117C60.7268 52.9524 60.9655 53.5615 61.9205 53.4989C62.4529 53.4676 62.6104 53.6963 62.6104 54.1971C62.6104 54.6978 62.3144 54.8567 61.8703 54.9193C59.9222 55.2178 58.9243 54.3897 58.8789 52.3914C58.8622 51.5199 58.8789 50.6484 58.8789 49.7721Z" fill="white"/>
<path d="M85.4626 45.8527C86.3674 45.0341 87.0478 44.5093 87.9813 44.4684C88.6139 44.4419 88.9362 44.6056 88.9028 45.3254C88.8718 45.9177 88.9482 46.3486 88.0577 46.3221C86.186 46.2643 85.4769 47.0444 85.4769 48.8789C85.4769 50.5521 85.4363 52.2253 85.4936 53.8937C85.5199 54.7002 85.1522 54.7821 84.4933 54.7941C83.8344 54.8061 83.6171 54.575 83.6243 53.9033C83.6577 51.1973 83.6243 48.4913 83.6529 45.7852C83.6529 45.3976 83.3235 44.7091 84.1471 44.7139C84.7464 44.7163 85.6655 44.2974 85.4626 45.8527Z" fill="white"/>
<path d="M160.864 18.8309C160.476 18.8399 160.091 18.7709 159.731 18.6279C159.37 18.4849 159.042 18.2708 158.764 17.9982C158.487 17.7256 158.266 17.3999 158.115 17.0402C157.964 16.6805 157.885 16.2941 157.884 15.9034C157.892 15.5228 157.974 15.1473 158.125 14.7987C158.277 14.4501 158.496 14.1352 158.769 13.8721C159.042 13.609 159.363 13.4029 159.716 13.2656C160.068 13.1283 160.443 13.0626 160.821 13.0722C162.492 13.0722 163.736 14.2422 163.767 15.8577C163.781 16.2481 163.716 16.6372 163.575 17.0014C163.435 17.3655 163.223 17.6969 162.951 17.9752C162.679 18.2536 162.354 18.4731 161.995 18.6202C161.636 18.7674 161.251 18.8391 160.864 18.8309ZM162.026 17.437C162.196 17.697 162.356 17.555 162.49 17.4105C163.232 16.604 163.206 15.1956 162.425 14.3458C162.069 13.964 161.588 13.7235 161.071 13.6678C160.554 13.6122 160.034 13.7451 159.606 14.0424C159.156 14.3768 158.841 14.8632 158.717 15.4127C158.594 15.9622 158.671 16.5381 158.935 17.0349C159.19 17.5152 159.614 17.8819 160.124 18.0632C160.634 18.2444 161.192 18.2272 161.69 18.0148C161.902 17.9161 162.363 17.8679 162.053 17.4105L162.026 17.437Z" fill="white"/>
<path d="M162.055 17.4105C161.53 17.5116 161.379 17.2011 161.289 16.7581C161.263 16.6184 161.187 16.4934 161.075 16.4075C160.962 16.3216 160.823 16.2809 160.682 16.2934C160.331 16.3055 160.444 16.6185 160.41 16.8303C160.382 17.0879 160.489 17.4226 160.045 17.4081C159.601 17.3937 159.723 17.047 159.708 16.7966C159.689 16.4812 159.708 16.1659 159.708 15.8481C159.708 14.5336 160.241 14.146 161.487 14.5384C161.816 14.6443 162.203 14.9428 162.053 15.1643C161.513 15.954 162.291 16.6907 162.031 17.437L162.055 17.4105Z" fill="white"/>
</g>
<defs>
<clipPath id="clip0_4385_1270">
<rect width="172" height="46" fill="white" transform="translate(12 13)"/>
</clipPath>
</defs>
</svg>
