<svg width="67" height="54" viewBox="0 0 67 54" fill="none" xmlns="http://www.w3.org/2000/svg">
<path d="M66.4189 27.6026C57.887 36.2177 49.3581 44.835 40.8324 53.4545C40.6409 53.6493 40.5053 53.7917 40.3098 54L35.7544 49.3095C41.8296 43.1707 48.3037 36.6516 54.4946 30.3959C54.3842 30.3959 53.758 30.3959 53.5824 30.3959H0V23.6014H0.780508C18.2938 23.6014 35.8076 23.6014 53.3218 23.6014C53.5731 23.6014 54.0013 23.6269 54.343 23.6269C48.0697 17.2906 41.7046 11.0174 35.5616 4.80466L40.3298 0C40.4415 0.112861 40.6117 0.30365 40.7898 0.485034C49.328 9.12607 57.871 17.7604 66.4189 26.388C66.508 26.478 67 26.9966 67 26.9966C67 26.9966 66.5067 27.5139 66.4189 27.6026Z" fill="#272D3D"/>
</svg>
