<svg width="75" height="76" viewBox="0 0 75 76" fill="none" xmlns="http://www.w3.org/2000/svg">
<circle cx="30" cy="30" r="30" fill="#F5F8FA" fill-opacity="0.5"/>
<path d="M45.6834 20.1049C46.6212 20.2805 47.5739 20.4004 48.4946 20.6423C58.247 23.1966 64.4411 29.3607 66.6935 39.1838C68.28 46.1357 66.7256 52.5888 62.5805 58.3996C62.4949 58.5174 62.4135 58.6352 62.2936 58.8022C62.4435 58.9221 62.5869 59.0462 62.7368 59.1597C66.0661 61.7075 69.4062 64.2447 72.7248 66.8054C73.2705 67.236 73.7188 67.7773 74.0403 68.3936C74.3618 69.0099 74.5492 69.6873 74.5901 70.3813C74.6311 71.0752 74.5246 71.7699 74.2778 72.4198C74.0309 73.0696 73.6493 73.6598 73.158 74.1516C72.6667 74.6434 72.0768 75.0256 71.4272 75.273C70.7776 75.5205 70.0829 75.6276 69.389 75.5873C68.695 75.547 68.0174 75.3602 67.4008 75.0393C66.7842 74.7184 66.2425 74.2705 65.8113 73.7252C63.7881 71.156 61.8311 68.5332 59.8443 65.934L57.8681 63.3497C56.6348 64.0948 55.4701 64.887 54.2283 65.54C40.061 72.9887 22.3996 64.431 19.4556 48.7071C19.3293 48.0456 19.2222 47.3626 19.1045 46.6881V41.5903C19.2115 40.9908 19.2972 40.3849 19.4278 39.7918C21.6031 29.8617 27.5809 23.5099 37.3612 20.7366C38.4124 20.4411 39.5022 20.3083 40.5856 20.0942L45.6834 20.1049ZM43.1548 66.4093C55.211 66.5142 65.2911 56.5476 65.396 44.4165C65.503 32.159 55.6564 22.0726 43.4674 21.9548C31.1479 21.8328 21.0593 31.6837 20.9544 43.9369C20.9272 46.8727 21.481 49.7849 22.5837 52.5058C23.6864 55.2268 25.3163 57.7028 27.3797 59.7914C29.443 61.88 31.899 63.54 34.6064 64.6758C37.3137 65.8115 40.2189 66.4007 43.1548 66.4093ZM59.294 62.1764L59.8956 62.9665C62.3307 66.1509 64.7672 69.3347 67.2052 72.5177C68.3292 73.98 70.2197 74.2305 71.62 73.1407C71.9926 72.8509 72.2932 72.4789 72.4984 72.0538C72.7036 71.6287 72.8079 71.1619 72.8032 70.6899C72.7984 70.2178 72.6847 69.7533 72.4709 69.3324C72.2572 68.9115 71.9491 68.5457 71.5707 68.2634C69.5603 66.6983 67.5263 65.1653 65.503 63.6174L61.1589 60.2987L59.294 62.1764Z" fill="#6F63DE"/>
<path d="M69.717 75.772C68.9435 75.7703 68.1807 75.5909 67.4876 75.2475C66.7945 74.9041 66.1896 74.4059 65.7197 73.7916C64.313 72.0081 62.9171 70.1668 61.5661 68.3876C60.9623 67.5911 60.3571 66.7953 59.7505 66.0003L57.8235 63.491C57.4596 63.7051 57.102 63.9385 56.753 64.1612C55.9501 64.6664 55.1194 65.1889 54.2715 65.6342C47.4951 69.199 39.5926 69.2997 32.5913 65.9125C25.5901 62.5254 20.7599 56.2586 19.3511 48.7285C19.2655 48.266 19.1863 47.8036 19.1071 47.339C19.0707 47.1249 19.0364 46.9108 19 46.6967V41.5796C19.0343 41.3655 19.0664 41.1813 19.0985 40.9908C19.1649 40.5861 19.2355 40.1665 19.3254 39.7575C21.5007 29.8231 27.562 23.3893 37.3316 20.6402C38.0592 20.4507 38.7959 20.2985 39.539 20.1841C39.8816 20.1242 40.2242 20.0664 40.5646 20H45.7031C45.9986 20.0557 46.2983 20.1049 46.5959 20.1563C47.2382 20.2612 47.8805 20.3704 48.5228 20.5374C58.4123 23.1281 64.5593 29.3928 66.7881 39.1645C68.3403 45.9537 66.9508 52.4496 62.658 58.466L62.4311 58.7871L62.4953 58.8385C62.5938 58.9199 62.6923 59.0012 62.7929 59.0805L65.9317 61.4784C68.1798 63.1913 70.5049 64.9683 72.783 66.724C73.59 67.346 74.1901 68.1974 74.5045 69.1665C74.819 70.1356 74.8332 71.1772 74.5451 72.1545C74.2571 73.1318 73.6804 73.9992 72.8906 74.6428C72.1008 75.2865 71.1349 75.6764 70.1195 75.7613C69.9847 75.7677 69.8519 75.772 69.717 75.772ZM57.8856 63.2084L59.9218 65.8697C60.5284 66.6633 61.1336 67.4591 61.7374 68.257C63.0862 70.0362 64.4822 71.8775 65.8888 73.6588C66.3783 74.2999 67.0206 74.8082 67.757 75.1373C68.4934 75.4664 69.3004 75.6058 70.1045 75.5429C71.0769 75.4611 72.0018 75.0873 72.7579 74.4704C73.5139 73.8536 74.0658 73.0226 74.3411 72.0864C74.6164 71.1503 74.6023 70.1528 74.3005 69.2248C73.9988 68.2969 73.4235 67.4818 72.6502 66.8867C70.3743 65.131 68.0491 63.3583 65.7989 61.6411L62.658 59.2432C62.5552 59.164 62.4546 59.0805 62.354 58.997L62.1399 58.8192L62.4824 58.3354C66.7367 52.3704 68.1155 45.9345 66.5783 39.2052C64.3687 29.5255 58.2753 23.3143 48.4693 20.7451C47.8441 20.5824 47.1847 20.4732 46.5638 20.3661C46.2662 20.3169 45.9707 20.2676 45.6753 20.212H40.586C40.2648 20.2762 39.9201 20.3361 39.5754 20.3961C38.8395 20.5117 38.1099 20.6646 37.3894 20.8543C27.7012 23.5713 21.6913 29.9537 19.5331 39.8132C19.4432 40.2179 19.3747 40.6354 19.319 41.0379C19.2869 41.2284 19.2548 41.419 19.2205 41.6074V46.6902C19.2548 46.8808 19.2912 47.0928 19.3276 47.3047C19.4047 47.765 19.4839 48.2275 19.5695 48.6878C20.9676 56.1515 25.7507 62.3584 32.692 65.7198C39.6332 69.0813 47.4652 68.9764 54.1816 65.4436C55.0209 65.0026 55.811 64.5059 56.6481 63.9813C57.0313 63.7394 57.4189 63.4953 57.8128 63.2576L57.8856 63.2084ZM69.7149 73.9136C69.586 73.9143 69.4573 73.9064 69.3295 73.89C68.8924 73.8284 68.472 73.6805 68.0926 73.4548C67.7133 73.2291 67.3826 72.9302 67.1199 72.5755C65.3728 70.3059 63.6065 67.9893 61.8958 65.7498C61.2021 64.8377 60.507 63.9271 59.8104 63.0178L59.3629 62.4269L59.1488 62.1529L61.1464 60.151L65.5634 63.5274L67.3918 64.9212C68.7857 65.9917 70.2266 67.0772 71.6333 68.1735C72.0287 68.4751 72.3493 68.8638 72.5702 69.3093C72.7912 69.7549 72.9065 70.2454 72.9072 70.7427C72.9068 71.2233 72.796 71.6975 72.5833 72.1285C72.3705 72.5595 72.0616 72.9358 71.6804 73.2285C71.1203 73.671 70.4287 73.9143 69.7149 73.92V73.9136ZM59.4379 62.1721L59.5321 62.2984C59.6777 62.4869 59.8275 62.6881 59.9817 62.8872L62.0671 65.6192C63.7799 67.8587 65.542 70.1753 67.2891 72.4448C67.5346 72.777 67.8437 73.0571 68.1984 73.2688C68.553 73.4806 68.9463 73.6197 69.3552 73.6781C69.745 73.7247 70.1402 73.6933 70.5177 73.5856C70.8952 73.4779 71.2475 73.2961 71.554 73.0508C71.9084 72.7786 72.1957 72.4289 72.3939 72.0284C72.5921 71.6279 72.6959 71.1874 72.6974 70.7406C72.6955 70.2771 72.5869 69.8204 72.3801 69.4057C72.1733 68.9909 71.8738 68.6294 71.5048 68.349C70.1003 67.255 68.6593 66.1566 67.2677 65.0968L65.4371 63.703L61.1764 60.44L59.4379 62.1721ZM43.3458 66.5099H43.1552C40.2001 66.4975 37.2765 65.9014 34.5524 64.7557C31.8282 63.6101 29.3573 61.9375 27.2816 59.8341C24.1916 56.6947 22.0993 52.7115 21.268 48.3857C20.4367 44.0599 20.9036 39.5848 22.6099 35.5238C24.3163 31.4627 27.1857 27.9971 30.8572 25.5632C34.5287 23.1293 38.8381 21.8358 43.243 21.8456H43.47C55.7274 21.9633 65.6105 32.0905 65.5035 44.4165C65.4774 47.3374 64.8746 50.2244 63.7298 52.9117C62.5849 55.5991 60.9204 58.0338 58.832 60.076C54.7278 64.1909 49.1575 66.5074 43.3458 66.5163V66.5099ZM43.1552 66.2958H43.3458C49.1011 66.2879 54.6176 63.9944 58.6821 59.9197C60.7508 57.8972 62.3994 55.4858 63.5333 52.8242C64.6672 50.1625 65.2639 47.303 65.2893 44.41C65.3964 32.2018 55.6097 22.1796 43.4678 22.0618H43.243C37.4134 22.0438 31.813 24.3311 27.6627 28.425C25.5922 30.4609 23.9436 32.8852 22.8114 35.559C21.6792 38.2329 21.0856 41.1039 21.0645 44.0075C21.0434 46.9112 21.5953 49.7905 22.6886 52.4805C23.7818 55.1706 25.395 57.6185 27.4357 59.6842C29.4905 61.7688 31.9371 63.4266 34.6349 64.5624C37.3326 65.6981 40.2282 66.2894 43.1552 66.3022V66.2958Z" fill="#6F63DE"/>
<path d="M43.1597 64.643C33.0219 64.5744 24.387 57.0551 22.9975 47.02C22.296 42.0744 23.439 37.0435 26.2086 32.8864C28.9781 28.7294 33.1805 25.7368 38.0148 24.4791C38.2886 24.402 38.5767 24.3895 38.8562 24.4427C39.0445 24.4874 39.2103 24.5987 39.3229 24.7562C39.4355 24.9136 39.4872 25.1065 39.4685 25.2992C39.4717 25.5011 39.406 25.698 39.2822 25.8576C39.1585 26.0172 38.984 26.1298 38.7877 26.177C38.1175 26.3911 37.4303 26.5559 36.7772 26.8193C30.14 29.4314 26.1341 34.268 24.903 41.2585C23.1902 50.9638 29.928 60.5279 39.5863 62.3263C49.4222 64.1591 58.6416 58.2948 61.123 48.6237C63.6923 38.61 57.2135 28.2024 47.0564 26.0956C45.8617 25.8473 44.6263 25.7809 43.4038 25.6674C42.6694 25.601 42.2455 25.297 42.2498 24.7275C42.254 24.158 42.7079 23.8004 43.4723 23.809C48.0284 23.8823 52.4288 25.4785 55.9723 28.3433C59.5158 31.2082 61.9983 35.1766 63.0243 39.6163C65.6385 50.9381 58.1941 62.2279 46.7652 64.2383C45.5769 64.4503 44.363 64.5124 43.1597 64.643Z" fill="#6F63DE"/>
<path d="M43.166 64.7456C33.0004 64.6771 24.2863 57.0614 22.8968 47.0306C22.1941 42.0605 23.3434 37.0055 26.1259 32.8278C28.9084 28.6501 33.1299 25.6413 37.9869 24.3741C38.2777 24.2929 38.5835 24.2812 38.8797 24.3399C39.0915 24.3903 39.2782 24.5151 39.4059 24.6915C39.5336 24.8679 39.5937 25.0842 39.5755 25.3012C39.5787 25.526 39.5058 25.7452 39.3686 25.9233C39.2314 26.1013 39.0379 26.2277 38.8197 26.2818C38.6056 26.3524 38.3701 26.4188 38.1432 26.4852C37.7021 26.6137 37.2461 26.7464 36.8157 26.9134C30.1999 29.5255 26.2261 34.3578 25.0079 41.2755C24.1878 45.9323 25.2755 50.6961 28.0696 54.6934C30.7727 58.6239 34.9187 61.3279 39.6055 62.2171C49.3515 64.0348 58.5559 58.1769 61.0159 48.5915C61.6079 46.2019 61.714 43.7178 61.3281 41.2865C60.9421 38.8551 60.0719 36.526 58.7691 34.4373C57.4662 32.3485 55.7572 30.5426 53.7434 29.1266C51.7296 27.7106 49.452 26.7134 47.0456 26.194C46.0769 26.0137 45.098 25.8928 44.1145 25.8322L43.4058 25.7786C42.3632 25.6844 42.149 25.1577 42.1533 24.7317C42.1509 24.6046 42.1739 24.4784 42.2209 24.3604C42.268 24.2423 42.3382 24.1349 42.4274 24.0444C42.5722 23.9203 42.7404 23.8265 42.9221 23.7684C43.1037 23.7103 43.2951 23.6891 43.4851 23.7061C47.1597 23.7635 50.7512 24.8086 53.8829 26.7319C57.0146 28.6552 59.571 31.3858 61.284 34.6373C62.997 37.8887 63.8034 41.5413 63.6188 45.2117C63.4341 48.8822 62.2651 52.4353 60.2344 55.4985C58.7186 57.8164 56.7425 59.798 54.4288 61.3203C52.115 62.8425 49.513 63.8729 46.7844 64.3474C45.9665 64.4908 45.1272 64.5615 44.3136 64.6386C43.9325 64.675 43.5514 64.7092 43.1703 64.7499L43.166 64.7456ZM38.5328 24.5154C38.3673 24.517 38.2025 24.5393 38.0425 24.5818C33.2347 25.835 29.0555 28.8123 26.3006 32.9471C23.5456 37.0819 22.4073 42.0853 23.1023 47.0049C24.4769 56.9308 33.0967 64.4651 43.1553 64.5358C43.5343 64.4951 43.9154 64.4609 44.2944 64.4266C45.1037 64.3538 45.9387 64.2789 46.7459 64.1354C49.4467 63.649 52.0207 62.6195 54.3121 61.1094C56.6035 59.5993 58.5647 57.6399 60.0769 55.3499C61.5891 53.0599 62.6209 50.4868 63.1098 47.7865C63.5988 45.0861 63.5347 42.3146 62.9214 39.6398C61.9011 35.2228 59.4314 31.2745 55.9061 28.4244C52.3808 25.5743 48.0028 23.9864 43.4701 23.9138C43.1443 23.8837 42.8198 23.9829 42.5666 24.19C42.4965 24.2606 42.4415 24.3445 42.4047 24.4369C42.3679 24.5292 42.3501 24.628 42.3524 24.7274C42.3524 25.2156 42.7036 25.496 43.4101 25.5581L44.1167 25.6181C45.111 25.6834 46.1006 25.8085 47.0799 25.9928C49.5146 26.517 51.8194 27.5248 53.8574 28.9563C55.8955 30.3878 57.6254 32.214 58.9447 34.3265C60.2639 36.439 61.1455 38.7948 61.5374 41.2544C61.9292 43.7139 61.8232 46.2271 61.2257 48.645C58.7336 58.3396 49.4222 64.2746 39.567 62.429C34.8246 61.5288 30.6295 58.7926 27.894 54.8155C25.0657 50.7732 23.9673 45.9516 24.7959 41.2391C26.0291 34.2422 30.0457 29.3563 36.7386 26.7164C37.1668 26.543 37.6379 26.4081 38.0832 26.2882C38.2973 26.2218 38.5328 26.1576 38.7555 26.087C38.9302 26.0455 39.0854 25.9457 39.1956 25.8039C39.3058 25.6622 39.3643 25.4871 39.3614 25.3076C39.3791 25.1393 39.335 24.9702 39.2373 24.832C39.1396 24.6937 38.995 24.5957 38.8304 24.5561C38.7332 24.531 38.6333 24.5173 38.5328 24.5154Z" fill="#6F63DE"/>
<path d="M43.1916 53.4302C39.8644 53.4302 36.5351 53.3596 33.2122 53.4538C30.857 53.5201 29.4782 51.1158 30.6986 49.0518C34.0814 43.3352 37.3979 37.5694 40.7486 31.8271C41.9455 29.776 44.3884 29.7588 45.5874 31.7993C48.9488 37.5544 52.3031 43.3138 55.6503 49.0775C56.6844 50.8588 55.9029 52.9121 54.0317 53.3596C53.7306 53.4182 53.424 53.4426 53.1174 53.4324C49.8088 53.4338 46.5002 53.4331 43.1916 53.4302ZM43.1916 51.5804C46.4824 51.5804 49.7731 51.5418 53.0618 51.6018C54.1687 51.6232 54.5198 50.7689 54.0188 49.9168C50.6724 44.2366 47.3687 38.5307 44.048 32.8441C43.5042 31.9106 42.849 31.902 42.3116 32.8248C38.9844 38.5371 35.6744 44.258 32.3172 49.9532C31.8612 50.7261 32.1459 51.6296 33.2614 51.6103C36.5715 51.544 39.8815 51.5804 43.1916 51.5804Z" fill="#6F63DE"/>
<path d="M33.129 53.5628C32.613 53.5716 32.1038 53.4442 31.6527 53.1935C31.2017 52.9428 30.8247 52.5776 30.5597 52.1347C30.2854 51.6547 30.1466 51.1092 30.1579 50.5564C30.1692 50.0037 30.3303 49.4643 30.624 48.9959C32.8271 45.2405 35.0559 41.4081 37.212 37.6934C38.3538 35.7193 39.5014 33.746 40.6547 31.7734C41.25 30.7564 42.1727 30.1719 43.1855 30.1719C44.1875 30.1719 45.0974 30.7457 45.6798 31.7455C48.7929 37.0746 52.0836 42.7269 55.7427 49.0238C56.0038 49.4456 56.1619 49.9232 56.2039 50.4175C56.2459 50.9119 56.1708 51.4093 55.9846 51.8692C55.8112 52.2672 55.5463 52.6188 55.2115 52.8952C54.8767 53.1716 54.4814 53.3651 54.0577 53.46C53.7481 53.5195 53.4329 53.5446 53.1178 53.5349H43.1919C42.1942 53.5349 41.1986 53.5349 40.1944 53.5221C37.9035 53.5092 35.5355 53.4943 33.2082 53.5585L33.129 53.5628ZM43.1919 30.386C42.2562 30.386 41.402 30.9319 40.8367 31.8847C39.6948 33.853 38.548 35.8249 37.3961 37.8004C35.2422 41.5108 33.0134 45.3476 30.791 49.1158C30.5172 49.5514 30.3668 50.0531 30.3559 50.5674C30.3449 51.0818 30.4739 51.5894 30.7289 52.0362C30.9836 52.4609 31.3492 52.8083 31.7863 53.041C32.2235 53.2737 32.7158 53.383 33.2103 53.3572C35.5398 53.2909 37.9206 53.308 40.203 53.3208C41.1986 53.3208 42.1942 53.3337 43.2004 53.3337H53.1242C53.4227 53.3433 53.7213 53.3204 54.0149 53.2652C54.4075 53.1803 54.7741 53.0027 55.084 52.7472C55.3939 52.4917 55.6381 52.1657 55.7962 51.7964C55.9686 51.3671 56.0376 50.9033 55.9974 50.4424C55.9572 49.9815 55.8091 49.5366 55.565 49.1437C51.9081 42.8468 48.6173 37.1945 45.5021 31.8654C44.9518 30.917 44.1104 30.386 43.1919 30.386ZM53.1049 51.7086H53.0642C50.7091 51.6658 48.2961 51.6722 45.971 51.6808C45.046 51.6808 44.1182 51.6808 43.1876 51.6808C42.2627 51.6808 41.3385 51.6808 40.415 51.6808C38.0598 51.6808 35.6468 51.6658 33.2639 51.7086C32.7415 51.7086 32.3411 51.5309 32.1398 51.1841C32.0398 50.9813 31.9951 50.7558 32.0101 50.5303C32.0251 50.3047 32.0994 50.0871 32.2255 49.8994C34.6641 45.7587 37.1199 41.5344 39.505 37.4493L42.2284 32.7711C42.5838 32.1588 42.9414 32.0324 43.179 32.0324C43.5237 32.0324 43.8599 32.2936 44.1489 32.7904L46.8788 37.4793C49.2339 41.5472 51.6897 45.7501 54.1155 49.8737C54.3938 50.3469 54.4324 50.8265 54.2183 51.1905C54.0042 51.5545 53.6188 51.7086 53.0985 51.7086H53.1049ZM48.7222 51.471C50.1653 51.471 51.6212 51.471 53.0621 51.5052C53.5246 51.5052 53.8628 51.3639 54.0277 51.077C54.1926 50.7901 54.1583 50.3748 53.9249 49.9787C51.497 45.855 49.0519 41.65 46.6861 37.5842C45.7783 36.0141 44.869 34.4504 43.9584 32.8931C43.7079 32.4649 43.4381 32.2508 43.1726 32.2508C42.9071 32.2508 42.6481 32.4649 42.4061 32.8931L39.6827 37.5542C37.3083 41.6393 34.8504 45.8636 32.4032 50.0044C32.2959 50.1594 32.2314 50.3401 32.2164 50.5281C32.2014 50.7161 32.2362 50.9047 32.3175 51.0749C32.4802 51.3532 32.8185 51.5031 33.2553 51.5031C35.6383 51.4603 38.0641 51.4688 40.4085 51.4753C42.2555 51.4753 44.104 51.4753 45.9538 51.4753C46.8723 51.471 47.7951 51.471 48.7222 51.471Z" fill="#6F63DE"/>
<path d="M69.0148 69.094C69.2693 69.1876 69.5127 69.3089 69.7406 69.4558C70.0822 69.7507 70.4021 70.0698 70.6977 70.4107C70.868 70.5834 70.9628 70.8166 70.9612 71.0591C70.9596 71.3016 70.8617 71.5336 70.6891 71.7039C70.5165 71.8743 70.2832 71.9691 70.0407 71.9675C69.7982 71.9659 69.5663 71.868 69.3959 71.6954C69.0275 71.405 68.7005 71.0657 68.4239 70.6869C68.3422 70.5457 68.2904 70.3893 68.2716 70.2272C68.2528 70.0652 68.2675 69.901 68.3147 69.7449C68.4089 69.4708 68.7664 69.306 69.0148 69.094Z" fill="#6F63DE"/>
<path d="M70.023 72.053C69.7606 72.0479 69.5091 71.9466 69.3165 71.7683L69.188 71.6548C68.8616 71.3896 68.5734 71.0805 68.3316 70.7363C68.2418 70.5805 68.1851 70.4079 68.1652 70.2292C68.1453 70.0505 68.1626 69.8696 68.216 69.6979C68.3294 69.4838 68.5028 69.3075 68.7148 69.1904C68.7962 69.1326 68.8818 69.0727 68.9546 69.0127L69.0082 68.9678L69.0703 68.9977C69.173 69.047 69.2694 69.0877 69.355 69.1241C69.5181 69.1824 69.6712 69.2654 69.8089 69.3703C70.1546 69.6681 70.478 69.9909 70.7767 70.3359C70.8689 70.4303 70.9413 70.5422 70.9896 70.6651C71.0378 70.788 71.0609 70.9193 71.0575 71.0512C71.0541 71.1832 71.0243 71.3131 70.9698 71.4333C70.9153 71.5535 70.8373 71.6616 70.7403 71.7511C70.6467 71.8464 70.5351 71.9222 70.4119 71.974C70.2888 72.0259 70.1566 72.0527 70.023 72.053ZM69.0296 69.2204C68.9653 69.2718 68.8968 69.3189 68.8283 69.366C68.713 69.4149 68.6104 69.4897 68.5286 69.5847C68.4469 69.6796 68.3881 69.7921 68.3568 69.9135C68.3255 70.0348 68.3226 70.1617 68.3483 70.2844C68.3741 70.407 68.4277 70.5221 68.505 70.6207C68.738 70.9486 69.0154 71.2426 69.3293 71.4942L69.4578 71.6077C69.6101 71.7482 69.8107 71.8247 70.0179 71.8213C70.2251 71.818 70.4231 71.7351 70.5709 71.5898C70.7186 71.4445 70.8049 71.248 70.8117 71.0408C70.8185 70.8337 70.7454 70.6319 70.6075 70.4772C70.3155 70.1398 69.9992 69.8243 69.6612 69.533C69.5396 69.4426 69.4054 69.3705 69.263 69.3189C69.1923 69.2911 69.1131 69.259 69.0296 69.2204Z" fill="#6F63DE"/>
<path d="M44.0934 40.9351C44.0934 41.9649 44.0934 42.9926 44.0934 44.0203C44.0934 44.6947 43.7594 45.0716 43.2049 45.0908C42.6503 45.1101 42.25 44.7119 42.2478 44.0203C42.2364 41.9649 42.2364 39.9081 42.2478 37.8498C42.2478 37.1647 42.6225 36.7793 43.2006 36.7793C43.7787 36.7793 44.087 37.169 44.0934 37.8498C44.0998 38.8797 44.0934 39.9095 44.0934 40.9351Z" fill="#6F63DE"/>
<path d="M43.1705 45.1936C43.0419 45.1981 42.9136 45.1772 42.7931 45.132C42.6726 45.0868 42.5622 45.0183 42.4683 44.9302C42.3551 44.8097 42.2675 44.6676 42.2108 44.5123C42.1541 44.357 42.1296 44.1918 42.1385 44.0267C42.1385 42.0077 42.1385 39.9309 42.1385 37.8541C42.1295 37.6885 42.1539 37.5229 42.2102 37.3669C42.2665 37.211 42.3535 37.0679 42.4661 36.9463C42.5634 36.856 42.6776 36.786 42.8023 36.7404C42.9269 36.6948 43.0594 36.6746 43.1919 36.6808C43.8193 36.6958 44.1811 37.1218 44.1897 37.8498C44.1982 38.5778 44.1897 39.2971 44.1897 40.0208V41.8578C44.1897 42.5794 44.1897 43.3009 44.1897 44.0224C44.1897 44.744 43.8214 45.1764 43.1962 45.1936H43.1705ZM43.1705 36.8949C43.0685 36.8921 42.967 36.9096 42.8718 36.9463C42.7766 36.9831 42.6896 37.0384 42.616 37.109C42.5238 37.211 42.453 37.3304 42.4077 37.4602C42.3625 37.59 42.3438 37.7276 42.3526 37.8648C42.3526 39.9395 42.3526 42.0163 42.3526 44.0331C42.344 44.1696 42.3628 44.3065 42.4081 44.4356C42.4533 44.5647 42.524 44.6834 42.616 44.7846C42.6938 44.8582 42.7857 44.9151 42.8862 44.9519C42.9867 44.9887 43.0936 45.0046 43.2005 44.9987C43.6994 44.9859 43.9777 44.6455 43.9841 44.0396C43.9841 43.318 43.9841 42.5986 43.9841 41.8771V40.0208C43.9841 39.2971 43.9841 38.5735 43.9841 37.8519C43.9841 37.246 43.6972 36.9077 43.1962 36.8949H43.1705Z" fill="#6F63DE"/>
<path d="M44.0826 48.3624C44.0826 49.3044 43.8064 49.7284 43.1726 49.7262C42.5389 49.7241 42.2391 49.283 42.2413 48.3581C42.2341 48.1433 42.2462 47.9284 42.2777 47.7158C42.3106 47.4885 42.4318 47.2833 42.6149 47.1446C42.798 47.006 43.0284 46.945 43.2561 46.975C43.4777 46.9833 43.6873 47.0772 43.841 47.2369C43.9948 47.3966 44.0806 47.6097 44.0804 47.8314C44.0954 48.0006 44.0826 48.1825 44.0826 48.3624Z" fill="#6F63DE"/>
<path d="M43.1772 49.8333C43.0231 49.8426 42.8693 49.8121 42.7305 49.7445C42.5917 49.677 42.4727 49.5749 42.385 49.4479C42.1971 49.1169 42.1114 48.7377 42.1388 48.3581V48.2768C42.1324 48.0811 42.1453 47.8854 42.1773 47.6923C42.217 47.4395 42.3538 47.2121 42.5585 47.0586C42.7632 46.9051 43.0197 46.8374 43.2735 46.8701C43.5172 46.8824 43.7472 46.9863 43.9175 47.161C44.0878 47.3357 44.1859 47.5683 44.192 47.8122C44.1995 47.9398 44.1995 48.0678 44.192 48.1954C44.192 48.2511 44.192 48.3067 44.192 48.3624C44.192 48.9512 44.0893 49.3516 43.858 49.5849C43.7672 49.6701 43.66 49.7361 43.543 49.7788C43.426 49.8214 43.3016 49.84 43.1772 49.8333ZM43.1429 47.0778C42.9586 47.0774 42.7804 47.1434 42.6408 47.2637C42.5012 47.384 42.4096 47.5506 42.3829 47.7329C42.3541 47.9127 42.3427 48.0948 42.3486 48.2768V48.3581C42.3247 48.6953 42.3991 49.0322 42.5627 49.328C42.6311 49.4257 42.7237 49.5039 42.8314 49.5549C42.9391 49.606 43.0583 49.6281 43.1772 49.6192C43.2729 49.6257 43.3689 49.6128 43.4594 49.5811C43.5499 49.5495 43.6331 49.4998 43.7039 49.4351C43.8923 49.2424 43.9822 48.8934 43.9758 48.3645C43.9758 48.3067 43.9758 48.2489 43.9758 48.1911C43.9833 48.0721 43.9833 47.9526 43.9758 47.8336C43.9753 47.6383 43.8988 47.4508 43.7626 47.311C43.6263 47.1711 43.4409 47.0898 43.2457 47.0842C43.2116 47.0799 43.1773 47.0777 43.1429 47.0778Z" fill="#6F63DE"/>
</svg>
