<svg
  width="271"
  height="236"
  viewBox="0 0 271 236"
  fill="none"
  xmlns="http://www.w3.org/2000/svg"
>
  <path
    d="M10.9925 63.7794C25.9542 28.5054 59.927 5.03204 98.2129 3.5149L166.031 0.82752C219.744 -1.30097 265.342 39.8231 268.751 93.4708L270.042 113.787C274.101 177.646 217.422 228.523 154.369 217.617L83.0178 205.277C20.1596 194.405 -16.1599 127.794 8.74961 69.0671L10.9925 63.7794Z"
    fill="#F4F4F4"
  />
  <g clip-path="url(#clip0_2259_982)">
    <path
      d="M246.307 229.935C246.654 230.578 247.32 231.163 246.715 231.982C246.135 231.667 245.846 232.122 245.556 232.466C241.704 236.971 236.28 236.733 232.286 231.823C222.015 219.196 211.498 206.77 201.181 194.18C193.054 184.256 184.739 174.488 176.628 164.556C176.084 163.889 175.341 163.397 174.839 162.685C173.826 160.846 172.846 161.37 171.878 162.726C171.061 162.287 170.624 163 170.089 163.319C162.559 167.798 154.283 170.874 145.662 172.399C138.641 173.706 131.472 174.027 124.363 173.354C115.994 172.603 107.801 170.498 100.103 167.12C92.6932 163.933 85.837 159.583 79.7928 154.231C69.8153 145.352 62.2637 134.695 57.6977 122.011C55.6486 116.415 54.2387 110.605 53.4951 104.691C53.0499 101.005 52.6007 97.2777 52.7926 93.5712C53.1275 87.1861 53.9484 80.8748 56.1661 74.7928C56.4398 74.0515 56.644 73.2528 57.5792 73.474C58.5145 73.6952 58.4573 74.4897 58.3144 75.3047C55.77 90.0981 57.2076 104.511 62.762 118.432C67.4064 130.139 74.818 140.54 84.3589 148.739C94.0914 157.184 105.31 162.734 117.771 165.728C125.703 167.636 133.81 167.956 141.904 167.366C152.715 166.547 162.901 163.418 172.486 158.331C173.671 157.7 174.773 156.934 175.888 156.197C177.224 155.317 178.225 155.55 179.156 156.738C183.17 161.796 187.324 166.752 191.453 171.695C201.394 183.544 211.163 195.536 221.12 207.368C226.27 213.47 231.294 219.696 236.46 225.761C238.862 228.571 241.459 230.291 245.261 229.476C245.462 229.429 245.672 229.449 245.86 229.532C246.048 229.614 246.205 229.756 246.307 229.935Z"
      fill="#EFEFEF"
    />
    <path
      d="M246.307 229.934C241.659 231.077 238.236 229.39 235.243 225.745C221.357 208.838 207.356 192.029 193.389 175.192C188.516 169.315 183.615 163.467 178.78 157.581C177.832 156.426 177.105 156.217 175.741 157.049C160.671 166.252 144.252 169.708 126.809 167.792C90.591 163.803 62.6882 136.903 57.0316 100.714C55.7846 92.3277 55.9226 83.793 57.4401 75.452C57.5095 75.0424 57.5667 74.6615 57.6565 74.0922C56.7131 74.5223 56.7784 75.3209 56.5824 75.9434C53.1803 86.592 52.9393 97.4208 54.9079 108.299C61.2138 143.111 88.7449 168.914 123.84 172.911C130.343 173.623 136.912 173.469 143.374 172.452C144.191 172.33 145.008 172.256 145.825 172.162C146.27 171.973 146.343 172.19 146.274 172.571C120.43 177.076 97.4768 170.896 77.8771 153.379C63.0026 140.105 54.765 123.24 52.4533 103.462C51.1382 92.1907 52.7106 81.2882 56.7498 70.697C62.631 55.3097 70.4521 41.2086 82.8883 30.0193C120.613 -3.89643 181.059 6.62929 205.086 51.3657C221.422 81.7674 216.717 117.428 192.809 143.517C191.416 145.036 191.494 145.843 192.735 147.334C211.666 170.065 230.56 192.82 249.415 215.6C253.001 219.925 252.833 224.979 249.051 228.165C248.177 228.816 247.26 229.408 246.307 229.934Z"
      fill="#838383"
    />
    <path
      d="M174.838 162.697C176.239 162.394 176.729 163.569 177.387 164.36C187.093 176.021 196.788 187.695 206.47 199.381C215.373 210.117 224.277 220.856 233.18 231.597C237.048 236.254 240.968 236.356 245.142 232.007C245.616 231.511 246.204 230.631 246.715 232.007C244.113 235.124 240.911 236.647 236.794 235.767C234.454 235.267 232.861 233.719 231.395 231.974C218.356 216.225 205.309 200.483 192.253 184.748C186.696 178.028 181.133 171.306 175.565 164.581C175.14 164.065 174.246 163.639 174.838 162.697Z"
      fill="#848484"
    />
    <path
      d="M146.241 172.563L145.792 172.153C150.121 171.06 154.487 170.106 158.669 168.467C162.584 166.937 166.36 165.074 169.958 162.897C170.464 162.594 171.134 161.394 171.877 162.729C164.427 167.341 156.222 170.597 147.642 172.346C147.181 172.444 146.707 172.493 146.241 172.563Z"
      fill="#8F8F8F"
    />
    <path
      d="M212.964 89.3241C212.601 110.355 205.429 128.642 190.746 143.796C189.374 145.213 189.464 145.991 190.673 147.441C209.648 170.215 228.589 193.014 247.495 215.838C249.39 218.119 250.881 220.474 250.142 223.619C248.945 228.731 243.754 230.733 239.523 227.67C238.609 226.967 237.785 226.153 237.073 225.245C217.973 202.291 198.912 179.313 179.891 156.312C178.518 154.653 177.555 154.473 175.713 155.624C161.047 164.814 145.033 168.394 127.887 166.563C91.8532 162.713 64.2934 136.182 58.8411 100.28C52.4086 57.7838 82.4311 17.5813 124.98 11.7819C166.499 6.11764 206.025 35.946 212.098 77.4796C212.681 81.4006 212.971 85.3598 212.964 89.3241Z"
      fill="#FEFEFE"
    />
    <path
      d="M136.162 26.9849C171.261 27.546 198.261 55.6542 197.694 91.0239C197.159 124.485 168.047 152.155 133.708 151.254C99.3683 150.353 72.2905 122.384 73.238 87.4975C74.1528 54.2535 100.851 27.2675 136.162 26.9849Z"
      fill="#838383"
    />
    <path
      d="M195.496 81.2309C190.938 46.5616 156.962 21.3285 121.651 29.704C110.446 32.2894 100.242 38.1118 92.3021 46.451C91.4485 47.3275 90.5377 48.1548 89.7495 49.0845C77.6768 63.3126 73.0046 79.7238 75.6347 98.1745C79.8373 127.663 105.449 150 135.153 150.095C151.808 150.148 166.147 144.316 177.995 132.586C183.554 127.09 188.001 120.75 190.86 113.373C191.457 112.665 191.485 111.735 191.816 110.916C195.761 101.365 196.831 91.4167 195.496 81.2309ZM191.747 100.104C191.42 100.157 191.016 100.37 190.807 100.03C190.534 99.5957 190.877 99.4318 191.265 99.4236C191.534 99.4393 191.801 99.3683 192.028 99.221C192.254 99.0736 192.427 98.8577 192.523 98.6045C192.555 98.4407 192.572 98.2769 192.6 98.1131C192.543 98.8748 192.682 99.694 191.747 100.104ZM192.747 93.6202C192.747 93.5137 192.747 93.399 192.747 93.2843C192.747 93.4891 192.747 93.6939 192.747 93.9069V93.6202ZM192.71 92.0802C192.167 90.1676 192.363 88.1771 192.073 86.2235C191.959 85.4562 191.832 84.6972 191.694 83.9463C192.246 86.6861 192.591 89.4641 192.723 92.2563L192.71 92.0802ZM184.828 64.9181C184.906 65.0533 184.983 65.1884 185.057 65.3277C184.983 65.1843 184.906 65.0492 184.828 64.914V64.9181ZM183.762 63.0874C183.881 63.2758 183.991 63.4724 184.105 63.6649C183.991 63.4683 183.881 63.2717 183.762 63.0833V63.0874ZM165.604 43.9936C165.902 44.1984 166.2 44.4032 166.494 44.6203C166.196 44.4032 165.902 44.1902 165.604 43.9936ZM163.758 42.7649L164.771 43.4243L163.758 42.7649ZM162.235 41.8311L162.116 41.7574L162.235 41.8311Z"
      fill="#FBFBFB"
    />
    <path
      d="M191.62 98.9568C192.179 96.7835 192.179 94.5033 191.62 92.3301C191.334 78.8637 186.572 67.0438 178.216 56.6737C168.075 44.0919 154.936 36.5642 138.931 34.3853C125.653 32.5792 113.111 35.1635 101.393 41.6919C100.503 42.1916 99.6493 42.765 98.5752 42.7854C101.414 40.3527 104.812 38.9151 108.23 37.6373C130.885 29.1471 152.028 32.1164 170.975 47.1964C184.452 57.9146 191.563 72.409 193.274 89.5819C193.644 92.7625 193.652 95.975 193.298 99.1575C193.156 100.276 192.89 101.005 191.604 100.902C190.901 100.247 190.893 99.5998 191.62 98.9568Z"
      fill="#C3C3C3"
    />
    <path
      d="M107.414 94.5213C107.414 94.7261 107.414 94.9309 107.385 95.1316C107.116 97.9985 105.029 100.403 102.852 100.333C100.589 100.259 98.6819 97.9166 98.494 94.9841C98.494 94.849 98.494 94.7097 98.494 94.5746C98.4246 91.1752 100.369 88.4516 102.876 88.4312C105.257 88.4271 107.397 91.2899 107.414 94.5213Z"
      fill="#A3A3A3"
    />
    <path
      d="M171.228 93.8455C171.203 97.0523 169.353 99.5793 166.98 99.6612C164.607 99.7431 162.753 97.5028 162.455 94.296C162.141 90.9294 164.032 87.9887 166.613 87.8372C169.304 87.6775 171.256 90.2208 171.228 93.8455Z"
      fill="#A3A3A3"
    />
    <path
      d="M135.292 95.5044C142.896 95.5044 149.472 98.2116 155.128 103.249C155.59 103.651 156.015 104.094 156.398 104.572C156.705 104.982 157.342 105.391 156.758 105.948C156.174 106.505 155.626 106.092 155.189 105.625C153.318 103.643 151.176 101.937 148.826 100.558C143.685 97.4729 137.68 96.1519 131.722 96.7956C125.765 97.4393 120.179 100.013 115.81 104.126C115.663 104.265 115.528 104.421 115.373 104.556C114.965 104.92 114.405 105.375 113.96 104.896C113.45 104.343 114.152 103.933 114.503 103.61C117.919 100.466 122.004 98.1465 126.449 96.8273C129.31 95.9254 132.293 95.479 135.292 95.5044Z"
      fill="#848484"
    />
    <path
      d="M156.101 77.6271C156.507 77.6309 156.908 77.7159 157.281 77.8772C157.654 78.0384 157.99 78.2727 158.272 78.5662C158.553 78.8597 158.773 79.2065 158.919 79.5864C159.065 79.9663 159.134 80.3716 159.122 80.7786C159.11 81.1855 159.016 81.5859 158.848 81.9563C158.679 82.3266 158.439 82.6596 158.14 82.9356C157.842 83.2115 157.492 83.425 157.11 83.5635C156.728 83.7019 156.323 83.7626 155.917 83.7418C155.12 83.7011 154.371 83.3488 153.829 82.7603C153.288 82.1719 152.999 81.3943 153.023 80.5942C153.047 79.7942 153.383 79.0354 153.958 78.4807C154.534 77.9261 155.303 77.6196 156.101 77.6271Z"
      fill="#858585"
    />
    <path
      d="M113.899 77.3648C114.307 77.3774 114.709 77.4715 115.08 77.6418C115.452 77.8121 115.785 78.055 116.062 78.3564C116.338 78.6578 116.552 79.0115 116.691 79.3969C116.829 79.7822 116.889 80.1914 116.868 80.6004C116.856 80.9943 116.766 81.3819 116.602 81.7404C116.439 82.0989 116.206 82.4212 115.917 82.6882C115.628 82.9552 115.289 83.1616 114.919 83.2954C114.549 83.4292 114.157 83.4877 113.764 83.4673C112.975 83.463 112.218 83.1475 111.659 82.5888C111.1 82.0302 110.782 81.2733 110.774 80.4816C110.773 80.0706 110.854 79.6635 111.01 79.2838C111.167 78.9041 111.398 78.5593 111.688 78.2695C111.979 77.9796 112.324 77.7504 112.703 77.5952C113.083 77.4399 113.489 77.3616 113.899 77.3648Z"
      fill="#858585"
    />
    <path
      d="M176.864 120.172C176.819 121.949 175.7 123.092 174.095 123.014C172.49 122.937 170.787 121.22 170.828 119.693C170.856 117.989 171.951 116.945 173.687 116.965C175.586 116.969 176.909 118.3 176.864 120.172Z"
      fill="#FBFBFB"
    />
    <path
      d="M182.975 111.624C183.938 112.153 184.298 111.563 184.698 111.141C185.192 110.625 185.715 110.429 186.266 110.998C186.712 111.457 186.605 111.993 186.266 112.484C185.417 113.779 184.106 113.75 182.815 113.594C181.308 113.41 180.365 112.366 179.993 111.01C179.65 109.781 180.226 108.725 181.218 108C182.366 107.16 183.432 107.615 184.29 108.52C185.221 109.499 184.241 110.068 183.697 110.707C183.51 110.961 183.301 111.219 182.975 111.624Z"
      fill="#FBFBFB"
    />
    <path
      d="M191.621 98.9569C191.621 99.6081 191.621 100.255 191.621 100.902C191.67 101.218 192.393 101.791 191.764 101.766C190.906 101.738 189.787 101.496 189.362 100.517C188.995 99.6982 188.3 98.4367 189.109 97.8879C189.918 97.3391 190.861 98.3098 191.621 98.9569Z"
      fill="#FBFBFB"
    />
  </g>
  <defs>
    <clipPath id="clip0_2259_982">
      <rect
        width="200"
        height="226"
        fill="white"
        transform="translate(52 10)"
      />
    </clipPath>
  </defs>
</svg>