<svg width="77" height="69" viewBox="0 0 77 69" fill="none" xmlns="http://www.w3.org/2000/svg">
<circle cx="30" cy="30" r="30" fill="#F5F8FA" fill-opacity="0.5"/>
<path d="M21.0889 43.0621C21.2653 42.3064 21.6794 41.6296 22.2686 41.1339C22.8578 40.6383 23.5901 40.3507 24.3547 40.3147C25.9715 40.2287 27.3227 41.1196 27.9445 42.6835C27.9766 42.7657 28.0067 42.8517 28.0425 42.9512H34.3799L33.5301 37.4068H30.1022C29.8818 37.4068 29.6632 37.4068 29.4446 37.4068C28.6003 37.3934 28.2913 37.0856 28.2913 36.231C28.2913 33.3824 28.2913 30.5337 28.2913 27.6851C28.2913 27.3467 28.214 27.1746 27.8748 27.035C27.093 26.7261 26.4449 26.1451 26.0465 25.3959C25.6481 24.6467 25.5253 23.7782 25.7002 22.9456C25.855 22.13 26.2806 21.3928 26.9062 20.857C27.5318 20.3211 28.3194 20.019 29.1379 20.0009C29.9565 19.9828 30.7564 20.2498 31.4044 20.7574C32.0524 21.2651 32.5093 21.9827 32.699 22.7907C32.9018 23.6054 32.817 24.4664 32.4593 25.2242C32.1017 25.982 31.4937 26.5889 30.7411 26.9394C30.2662 27.1593 30.1757 27.4212 30.1757 27.8954C30.1965 30.1896 30.1852 32.4838 30.1852 34.778V35.4089H33.3548C33.3096 34.7513 33.2662 34.0974 33.2172 33.4436C33.1607 32.7081 33.1029 31.9714 33.0439 31.2335C32.9591 30.1915 33.4377 29.7384 34.4478 29.9277C36.7124 30.3744 39.0495 30.2649 41.2638 29.6084C43.7199 28.8549 45.9288 27.4403 47.6559 25.5151C47.7821 25.3775 47.9046 25.2341 48.0328 25.0983C48.2492 24.8672 48.5457 24.7304 48.8597 24.7169C49.1737 24.7033 49.4806 24.814 49.7156 25.0257C50.7502 25.9548 51.7508 26.9375 52.8683 27.7577C56.0605 30.0921 59.6316 30.7306 63.4664 29.943C64.5048 29.7307 64.9495 30.1341 64.8722 31.2067C64.7724 32.589 64.6744 33.9712 64.5726 35.3955H67.991C67.991 35.2235 68.0136 35.0457 68.0136 34.8679C68.0136 32.4819 68.0136 30.0883 68.0136 27.7099C68.0136 27.3562 67.9401 27.1631 67.5896 27.0064C66.8023 26.6677 66.1606 26.0543 65.7804 25.2772C65.4002 24.5001 65.3066 23.6107 65.5167 22.7697C65.7321 21.959 66.212 21.2462 66.8779 20.7476C67.5439 20.249 68.3567 19.9941 69.1838 20.0243C70.0372 20.0703 70.8467 20.4223 71.468 21.0176C72.0893 21.6129 72.4819 22.4127 72.5759 23.2744C72.6616 24.0551 72.4926 24.8427 72.0947 25.5165C71.6967 26.1903 71.0919 26.713 70.3729 27.0044C69.996 27.1593 69.9056 27.3562 69.9075 27.7386C69.9207 30.5127 69.9075 33.283 69.9075 36.0609C69.9075 37.1583 69.6663 37.3992 68.5884 37.3992H64.3955C64.1071 39.2632 63.8301 41.0814 63.538 42.9435H69.9056C70.7008 41.1139 71.8522 40.2669 73.4992 40.3147C74.3579 40.3341 75.181 40.666 75.8186 41.2498C76.4561 41.8336 76.8656 42.6305 76.9723 43.4951C77.0789 44.3596 76.8758 45.2343 76.3998 45.9596C75.9238 46.6849 75.2067 47.2124 74.3793 47.4459C73.5596 47.6973 72.6777 47.6367 71.8989 47.2756C71.1201 46.9145 70.4978 46.2776 70.1487 45.4844C69.9602 45.0332 69.7379 44.9108 69.2705 44.9108C67.339 44.9395 65.4055 44.9108 63.474 44.9357C63.3704 44.9425 63.2698 44.9737 63.1802 45.0268C63.0906 45.0799 63.0144 45.1534 62.9576 45.2416C62.3131 46.9068 61.7007 48.5854 61.0732 50.2602C61.0497 50.3424 61.0314 50.426 61.0185 50.5106H68.5884C69.687 50.5106 69.9075 50.7324 69.9075 51.8317C69.9075 54.7721 69.9075 57.7125 69.9075 60.6549C69.9075 61.0372 70.0055 61.2284 70.3767 61.3852C72.0049 62.0639 72.8434 63.7291 72.4911 65.4938C72.3185 66.2959 71.8841 67.0154 71.2582 67.5359C70.6323 68.0564 69.8516 68.3473 69.0425 68.3615C68.2341 68.362 67.4484 68.0906 66.8084 67.5896C66.1683 67.0887 65.7101 66.3866 65.5054 65.5932C65.3059 64.7689 65.3973 63.8998 65.7635 63.1367C66.1298 62.3736 66.7479 61.7648 67.5105 61.4158C67.9194 61.2246 68.0193 61.0181 68.0155 60.5975C67.9966 58.1006 68.0061 55.6019 68.0061 53.105V52.4683C67.5406 52.4473 67.3013 52.4989 66.8226 52.5104C64.7968 52.5658 62.8879 52.5104 61.0411 52.5276C60.1724 52.5372 59.8765 52.4167 59.5675 52.8679C57.0405 56.5788 53.6239 59.135 49.4989 60.7409C49.1624 60.8502 48.8008 60.8502 48.4643 60.7409C44.2601 59.1464 40.7532 56.6151 38.2299 52.7838C38.1732 52.6971 38.0997 52.6231 38.0138 52.5662C37.9279 52.5093 37.8315 52.4708 37.7305 52.453C35.2807 52.4339 32.8441 52.4416 30.4019 52.453C30.3373 52.4656 30.2741 52.4848 30.2134 52.5104C30.2134 52.6825 30.1852 52.8603 30.1852 53.0381C30.1852 55.5732 30.1852 58.1064 30.1852 60.6415C30.1852 61.0124 30.253 61.215 30.6393 61.3795C31.4067 61.6954 32.0397 62.2758 32.4268 63.0186C32.8139 63.7614 32.9303 64.6189 32.7555 65.4402C32.5908 66.2652 32.1499 67.0069 31.5076 67.5397C30.8654 68.0726 30.0613 68.3636 29.2316 68.3636C28.402 68.3636 27.5979 68.0726 26.9556 67.5397C26.3133 67.0069 25.8725 66.2652 25.7077 65.4402C25.535 64.6176 25.6534 63.7595 26.0421 63.0166C26.4308 62.2737 27.065 61.6934 27.8334 61.3776C28.2103 61.2227 28.2988 61.0219 28.2969 60.6434C28.2837 57.6858 28.2969 54.7167 28.2969 51.7667C28.2969 50.7859 28.5664 50.5106 29.5237 50.5106H36.8976C36.777 50.1971 36.6827 49.9638 36.5961 49.7268C36.0628 48.2738 35.5181 46.8265 35.0131 45.3639C34.9038 45.0523 34.7964 44.9127 34.4478 44.9165C32.4427 44.9299 30.4377 44.9165 28.4326 44.9376C28.3269 44.9446 28.2249 44.9793 28.1364 45.0382C28.0478 45.0972 27.9759 45.1785 27.9276 45.2741C27.2379 46.8035 25.8999 47.6925 24.4018 47.5874C22.7529 47.4689 21.4168 46.4919 21.0795 44.7789C20.9704 44.2116 20.9736 43.628 21.0889 43.0621ZM34.9962 31.9982C35.1846 33.8833 35.3354 35.6842 35.5351 37.4833C35.8743 40.5518 36.4208 43.5802 37.3913 46.5206C39.3002 52.3058 42.9674 56.4259 48.5887 58.6895C48.8156 58.7804 49.0665 58.7892 49.2991 58.7143C51.1634 57.9607 52.9068 56.9297 54.4719 55.6554C57.6755 53.0266 59.6071 49.5757 60.8018 45.6411C61.9777 41.7677 62.4262 37.7701 62.7673 33.7552C62.8163 33.1816 62.8521 32.5909 62.8954 31.9925C57.342 32.7744 52.8513 30.702 48.9505 27.0121C45.1496 31.1321 40.4611 32.545 34.9962 31.9982ZM29.2147 66.4C29.4377 66.4057 29.6596 66.3659 29.8672 66.2829C30.0748 66.1999 30.2638 66.0754 30.4229 65.9168C30.5821 65.7582 30.7083 65.5688 30.7938 65.3597C30.8794 65.1507 30.9226 64.9263 30.921 64.6999C30.9193 64.4736 30.8728 64.2499 30.7842 64.0421C30.6957 63.8344 30.5668 63.6468 30.4053 63.4906C30.2439 63.3344 30.0531 63.2127 29.8443 63.1328C29.6356 63.0529 29.4131 63.0165 29.1902 63.0256C28.7587 63.0432 28.3508 63.2303 28.0528 63.5474C27.7548 63.8645 27.5899 64.2867 27.5931 64.7248C27.5963 65.1629 27.7672 65.5826 28.0698 65.8952C28.3724 66.2078 28.783 66.3888 29.2147 66.4ZM69.0387 25.3583C69.4791 25.3564 69.9012 25.1797 70.2146 24.8659C70.5281 24.5522 70.708 24.1264 70.7159 23.6797C70.7096 23.2336 70.5328 22.8074 70.2227 22.491C69.9126 22.1746 69.4935 21.9928 69.0538 21.9839C68.8308 21.9754 68.6083 22.0124 68.3997 22.0928C68.1911 22.1733 68.0005 22.2955 67.8394 22.4521C67.6783 22.6088 67.5499 22.7968 67.4618 23.0048C67.3738 23.2129 67.3279 23.4368 67.3269 23.6632C67.3258 23.8897 67.3697 24.114 67.4559 24.3228C67.5421 24.5317 67.6688 24.7208 67.8286 24.879C67.9883 25.0372 68.1777 25.1611 68.3856 25.2434C68.5935 25.3258 68.8157 25.3649 69.0387 25.3583ZM29.1902 25.3583C29.6299 25.3626 30.0538 25.1918 30.3708 24.8826C30.6879 24.5734 30.8729 24.1505 30.8862 23.7046C30.8886 23.4814 30.8478 23.2599 30.7659 23.0527C30.684 22.8456 30.5626 22.6568 30.4088 22.4972C30.255 22.3376 30.0717 22.2103 29.8694 22.1225C29.6671 22.0348 29.4497 21.9884 29.2297 21.9858C29.0097 21.9833 28.7914 22.0248 28.5872 22.1079C28.383 22.191 28.1969 22.3141 28.0396 22.4701C27.8823 22.6262 27.7568 22.8121 27.6704 23.0174C27.5839 23.2226 27.5381 23.4432 27.5356 23.6664C27.5341 24.1133 27.7075 24.5425 28.0178 24.8597C28.328 25.177 28.7497 25.3563 29.1902 25.3583ZM69.018 66.4C69.2411 66.4076 69.4634 66.3696 69.6718 66.2882C69.8801 66.2069 70.0702 66.0838 70.2306 65.9264C70.3911 65.769 70.5187 65.5804 70.6059 65.3719C70.6931 65.1634 70.738 64.9392 70.738 64.7128C70.738 64.4863 70.6931 64.2621 70.6059 64.0536C70.5187 63.8451 70.3911 63.6566 70.2306 63.4991C70.0702 63.3417 69.8801 63.2187 69.6718 63.1373C69.4634 63.0559 69.2411 63.0179 69.018 63.0256C68.5866 63.0403 68.1778 63.2245 67.8778 63.5393C67.5777 63.8541 67.41 64.2749 67.41 64.7128C67.41 65.1507 67.5777 65.5714 67.8778 65.8862C68.1778 66.201 68.5866 66.3852 69.018 66.4ZM73.4088 45.643C73.6302 45.6411 73.849 45.5944 74.0524 45.5056C74.2559 45.4169 74.4398 45.2879 74.5935 45.1262C74.7472 44.9644 74.8676 44.7733 74.9476 44.5638C75.0276 44.3543 75.0657 44.1308 75.0595 43.9062C75.0534 43.6816 75.0032 43.4606 74.9119 43.2559C74.8205 43.0513 74.6899 42.8671 74.5276 42.7143C74.3653 42.5615 74.1746 42.443 73.9666 42.3658C73.7587 42.2887 73.5376 42.2543 73.3164 42.2648C72.8983 42.2882 72.5037 42.4688 72.2096 42.7714C71.9156 43.074 71.7431 43.4768 71.726 43.9014C71.7186 44.1292 71.7568 44.3562 71.8383 44.5686C71.9198 44.7811 72.0429 44.9745 72.2002 45.1373C72.3575 45.3001 72.5457 45.4289 72.7534 45.5158C72.9612 45.6027 73.1841 45.646 73.4088 45.643ZM24.5808 45.643C24.9102 45.6404 25.2314 45.5387 25.5038 45.3509C25.7763 45.1631 25.9877 44.8975 26.1114 44.5878C26.2352 44.2781 26.2656 43.9382 26.1989 43.6109C26.1323 43.2836 25.9714 42.9838 25.7368 42.7492C25.5022 42.5147 25.2043 42.3559 24.8808 42.2931C24.5573 42.2303 24.2227 42.2661 23.9192 42.3962C23.6158 42.5263 23.3572 42.7447 23.1761 43.0238C22.995 43.3029 22.8995 43.6303 22.9018 43.9644C22.903 44.1866 22.9474 44.4064 23.0326 44.6111C23.1177 44.8158 23.2418 45.0015 23.3978 45.1574C23.5538 45.3134 23.7386 45.4365 23.9416 45.5199C24.1446 45.6032 24.3618 45.6451 24.5808 45.643Z" fill="#6F63DE"/>
<path d="M49.953 47.3637C49.953 47.9373 49.9625 48.5108 49.953 49.0844C49.938 49.7306 49.563 50.1397 49.0108 50.1474C48.4587 50.155 48.0497 49.7478 48.0366 49.1092C48.0139 47.9621 48.0102 46.815 48.0252 45.6679C48.0252 45.3161 47.9555 45.1249 47.5956 44.9796C46.7859 44.654 46.1131 44.0526 45.6928 43.2786C45.2726 42.5046 45.1309 41.6063 45.2923 40.738C45.4537 39.8696 45.9079 39.0853 46.5771 38.5197C47.2463 37.954 48.0888 37.6424 48.9597 37.6382C49.8307 37.6341 50.676 37.9376 51.3505 38.4968C52.0249 39.056 52.4864 39.8359 52.6559 40.7027C52.8253 41.5695 52.692 42.4691 52.279 43.2471C51.8659 44.0251 51.1988 44.6329 50.3921 44.9663C50.0491 45.1077 49.9153 45.2664 49.938 45.643C49.9719 46.2166 49.9474 46.7902 49.9474 47.3637H49.953ZM48.9505 43.3202C49.4369 43.3213 49.9042 43.1289 50.2523 42.7843C50.6004 42.4397 50.8015 41.9704 50.8123 41.4771C50.822 41.2267 50.782 40.9768 50.6946 40.7423C50.6073 40.5078 50.4744 40.2935 50.3039 40.1122C50.1333 39.9308 49.9286 39.786 49.7019 39.6864C49.4752 39.5868 49.231 39.5344 48.984 39.5324C48.7369 39.5303 48.4919 39.5786 48.2636 39.6745C48.0353 39.7703 47.8283 39.9117 47.6549 40.0902C47.4815 40.2687 47.3452 40.4808 47.254 40.7138C47.1629 40.9468 47.1189 41.1959 47.1245 41.4465C47.125 41.9388 47.3171 42.4109 47.6592 42.76C48.0012 43.1092 48.4653 43.3071 48.9505 43.3106V43.3202Z" fill="#6F63DE"/>
</svg>
