<svg width="196" height="73" viewBox="0 0 196 73" fill="none" xmlns="http://www.w3.org/2000/svg">
<rect width="196" height="73" fill=""/>
<g clip-path="url(#clip0_4385_1251)">
<path d="M44.158 48.0032C44.1881 48.0032 44.218 48.0092 44.2459 48.0207C44.2738 48.0322 44.2991 48.0492 44.3204 48.0705C44.3418 48.0918 44.3587 48.1171 44.3702 48.145C44.3818 48.1729 44.3877 48.2028 44.3877 48.2329C44.5675 50.9701 47.2348 51.6794 49.6323 51.6794C52.2096 51.6794 54.0377 50.6804 54.0377 48.9222C54.0377 47.4338 52.8789 46.8244 51.0408 46.5048L47.3446 45.8854C45.4067 45.5657 42.4997 44.7865 42.4997 41.6198C42.4997 38.623 44.8572 36.625 49.0329 36.625C52.2296 36.625 55.5961 37.7539 55.9557 41.47C55.9584 41.5036 55.9543 41.5374 55.9436 41.5694C55.9329 41.6014 55.9158 41.6308 55.8934 41.656C55.871 41.6813 55.8437 41.7017 55.8132 41.716C55.7827 41.7304 55.7496 41.7385 55.7159 41.7397H53.718C53.6625 41.7382 53.6093 41.7174 53.5674 41.681C53.5255 41.6445 53.4975 41.5947 53.4882 41.5399C53.2385 40.2912 52.3994 38.7229 48.6832 38.7229C46.9051 38.7229 44.8972 39.4721 44.8972 41.3901C44.8972 42.389 45.5565 43.1982 47.5644 43.5378L51.5603 44.2271C52.8389 44.4569 56.4751 45.0662 56.4751 48.4027C56.4751 52.5584 52.749 53.7472 49.4824 53.7472C45.8762 53.7472 42.1401 52.5085 42.0002 48.213C41.9989 48.1807 42.0041 48.1484 42.0155 48.1181C42.027 48.0879 42.0444 48.0603 42.0668 48.037C42.0892 48.0136 42.1161 47.9951 42.1458 47.9824C42.1756 47.9697 42.2076 47.9632 42.2399 47.9633L44.158 48.0032Z" fill="white"/>
<path d="M58.4229 36.9446H60.241C60.272 36.9446 60.3027 36.9508 60.3313 36.963C60.3598 36.9752 60.3856 36.993 60.4071 37.0154C60.4285 37.0378 60.4453 37.0643 60.4562 37.0934C60.4671 37.1224 60.4721 37.1533 60.4707 37.1843V43.1781H60.5207C61.0484 42.4428 61.7542 41.8537 62.572 41.4658C63.3897 41.0779 64.2925 40.904 65.1958 40.9604C68.0728 40.9604 70.1906 42.1891 70.1906 45.186V53.0978C70.192 53.1288 70.187 53.1597 70.1761 53.1888C70.1651 53.2178 70.1484 53.2443 70.127 53.2667C70.1055 53.2891 70.0797 53.307 70.0511 53.3191C70.0226 53.3313 69.9919 53.3375 69.9608 53.3375H68.1427C68.1117 53.3375 68.081 53.3313 68.0525 53.3191C68.0239 53.307 67.9981 53.2891 67.9766 53.2667C67.9552 53.2443 67.9385 53.2178 67.9275 53.1888C67.9166 53.1597 67.9116 53.1288 67.913 53.0978V45.6356C67.913 43.8774 66.8141 42.8784 64.3667 42.8784C62.2988 42.8784 60.4407 44.0872 60.4407 46.4347V53.0978C60.4421 53.1288 60.4372 53.1597 60.4262 53.1888C60.4153 53.2178 60.3986 53.2443 60.3771 53.2667C60.3556 53.2891 60.3299 53.307 60.3013 53.3191C60.2728 53.3313 60.242 53.3375 60.211 53.3375H58.4229C58.3918 53.3375 58.3611 53.3313 58.3326 53.3191C58.304 53.307 58.2782 53.2891 58.2568 53.2667C58.2353 53.2443 58.2186 53.2178 58.2076 53.1888C58.1967 53.1597 58.1917 53.1288 58.1931 53.0978V37.1144C58.2066 37.0643 58.2367 37.0203 58.2784 36.9895C58.3201 36.9586 58.371 36.9428 58.4229 36.9446Z" fill="white"/>
<path d="M79.4613 41.0003C84.1165 41.0003 86.3941 43.9972 86.3941 47.3937C86.3941 50.7902 84.1165 53.787 79.4613 53.787C74.8062 53.787 72.5186 50.7902 72.5186 47.3937C72.5186 43.9972 74.7962 41.0003 79.4613 41.0003ZM79.4613 42.9183C78.5779 42.9262 77.7166 43.1954 76.9859 43.6919C76.2553 44.1885 75.6879 44.8901 75.3553 45.7086C75.0227 46.527 74.9397 47.4255 75.1169 48.291C75.2941 49.1565 75.7234 49.9502 76.3508 50.5721C76.9783 51.194 77.7758 51.6163 78.6428 51.7857C79.5098 51.9552 80.4076 51.8643 81.2231 51.5244C82.0385 51.1845 82.7351 50.6109 83.2251 49.8759C83.7151 49.1408 83.9766 48.2771 83.9766 47.3937C84.0204 46.7913 83.9334 46.1866 83.7214 45.621C83.5094 45.0555 83.1775 44.5424 82.7485 44.1173C82.3196 43.6921 81.8036 43.3648 81.2362 43.1578C80.6688 42.9509 80.0633 42.8692 79.4613 42.9183Z" fill="white"/>
<path d="M136.452 47.3937C136.397 46.2316 135.897 45.1352 135.055 44.3321C134.214 43.529 133.095 43.0809 131.932 43.0809C130.768 43.0809 129.65 43.529 128.808 44.3321C127.966 45.1352 127.466 46.2316 127.411 47.3937V53.1377C127.411 53.2013 127.386 53.2623 127.341 53.3072C127.296 53.3522 127.235 53.3775 127.172 53.3775H125.224C125.193 53.3775 125.162 53.3712 125.133 53.359C125.105 53.3469 125.079 53.3291 125.057 53.3067C125.036 53.2843 125.019 53.2577 125.008 53.2287C124.997 53.1997 124.992 53.1687 124.994 53.1377V47.3937C124.994 43.9473 127.271 41.0003 131.927 41.0003C136.582 41.0003 138.869 43.9972 138.869 47.3937V53.1377C138.871 53.1687 138.866 53.1997 138.855 53.2287C138.844 53.2577 138.827 53.2843 138.806 53.3067C138.784 53.3291 138.758 53.3469 138.73 53.359C138.701 53.3712 138.671 53.3775 138.64 53.3775H136.692C136.628 53.3775 136.567 53.3522 136.522 53.3072C136.477 53.2623 136.452 53.2013 136.452 53.1377V47.3937Z" fill="white"/>
<path d="M102.068 48.073C102.034 48.0727 102 48.0797 101.969 48.0936C101.937 48.1075 101.909 48.1279 101.887 48.1534C101.864 48.179 101.847 48.2091 101.837 48.2417C101.827 48.2743 101.824 48.3088 101.828 48.3427C102.006 49.3608 102.548 50.2796 103.353 50.9282C104.158 51.5768 105.171 51.9111 106.204 51.869C106.96 51.923 107.716 51.7645 108.386 51.4114C109.057 51.0584 109.616 50.5249 110 49.8711C110.019 49.8317 110.048 49.7986 110.086 49.7756C110.123 49.7526 110.166 49.7407 110.209 49.7412H112.127C112.168 49.7409 112.207 49.7508 112.243 49.77C112.278 49.7891 112.309 49.8169 112.33 49.8507C112.352 49.8846 112.365 49.9234 112.368 49.9637C112.371 50.0039 112.364 50.0442 112.347 50.0809C111.81 51.2093 110.959 52.1589 109.896 52.8162C108.833 53.4734 107.603 53.8105 106.353 53.787C101.688 53.787 99.4106 50.7902 99.4106 47.3937C99.4106 43.9972 101.688 41.0003 106.353 41.0003C109.5 41.0003 112.837 42.8284 112.837 47.7833V48.073H102.068ZM110.06 46.2948C110.094 46.2956 110.129 46.2885 110.161 46.274C110.192 46.2595 110.22 46.2379 110.243 46.211C110.265 46.184 110.28 46.1524 110.289 46.1184C110.297 46.0845 110.297 46.0492 110.289 46.0151C110.09 45.0887 109.562 44.2655 108.804 43.6966C108.047 43.1277 107.109 42.8513 106.164 42.9183C105.205 42.8644 104.257 43.1418 103.479 43.7038C102.7 44.2658 102.139 45.0783 101.888 46.0051C101.879 46.0399 101.877 46.0763 101.885 46.1115C101.892 46.1468 101.907 46.1798 101.93 46.208C101.952 46.2362 101.981 46.2587 102.013 46.2738C102.046 46.2889 102.082 46.2961 102.118 46.2948H110.06Z" fill="white"/>
<path d="M115.364 36.9447H117.172C117.236 36.9447 117.296 36.97 117.341 37.015C117.386 37.0599 117.412 37.1209 117.412 37.1845V53.1678C117.412 53.2314 117.386 53.2924 117.341 53.3374C117.296 53.3824 117.236 53.4076 117.172 53.4076H115.364C115.3 53.4076 115.239 53.3824 115.194 53.3374C115.149 53.2924 115.124 53.2314 115.124 53.1678V37.1845C115.124 37.1209 115.149 37.0599 115.194 37.015C115.239 36.97 115.3 36.9447 115.364 36.9447Z" fill="white"/>
<path d="M121.358 36.8847C121.603 36.9061 121.837 36.9984 122.031 37.1506C122.225 37.3028 122.37 37.5081 122.449 37.7415C122.529 37.975 122.538 38.2264 122.476 38.4651C122.415 38.7038 122.285 38.9194 122.103 39.0855C121.921 39.2517 121.695 39.3613 121.452 39.4008C121.208 39.4404 120.959 39.4083 120.733 39.3083C120.508 39.2084 120.317 39.045 120.183 38.8381C120.049 38.6312 119.978 38.3899 119.979 38.1434C119.974 37.9661 120.006 37.7897 120.075 37.6263C120.144 37.4629 120.248 37.3164 120.379 37.1968C120.51 37.0772 120.665 36.9874 120.834 36.9335C121.003 36.8796 121.182 36.863 121.358 36.8847Z" fill="white"/>
<path d="M120.438 41.41H122.257C122.288 41.41 122.318 41.4163 122.347 41.4284C122.375 41.4406 122.401 41.4584 122.423 41.4808C122.444 41.5032 122.461 41.5298 122.472 41.5588C122.483 41.5878 122.488 41.6188 122.486 41.6498V53.1379C122.488 53.1689 122.483 53.1998 122.472 53.2288C122.461 53.2579 122.444 53.2844 122.423 53.3068C122.401 53.3292 122.375 53.347 122.347 53.3592C122.318 53.3714 122.288 53.3776 122.257 53.3776H120.438C120.407 53.3776 120.377 53.3714 120.348 53.3592C120.32 53.347 120.294 53.3292 120.272 53.3068C120.251 53.2844 120.234 53.2579 120.223 53.2288C120.212 53.1998 120.207 53.1689 120.209 53.1379V41.6498C120.207 41.6188 120.212 41.5878 120.223 41.5588C120.234 41.5298 120.251 41.5032 120.272 41.4808C120.294 41.4584 120.32 41.4406 120.348 41.4284C120.377 41.4163 120.407 41.41 120.438 41.41Z" fill="white"/>
<path d="M142.785 48.073C142.751 48.0727 142.717 48.0797 142.686 48.0936C142.655 48.1075 142.627 48.1279 142.604 48.1534C142.581 48.179 142.564 48.2091 142.554 48.2417C142.544 48.2743 142.541 48.3088 142.545 48.3427C142.722 49.3618 143.263 50.2818 144.068 50.9308C144.874 51.5798 145.888 51.9133 146.921 51.869C147.677 51.9218 148.432 51.7628 149.103 51.4098C149.774 51.0569 150.332 50.5241 150.717 49.8711C150.736 49.8317 150.766 49.7986 150.803 49.7756C150.84 49.7526 150.883 49.7407 150.927 49.7412H152.835C152.875 49.7409 152.915 49.7508 152.95 49.77C152.986 49.7891 153.016 49.8169 153.038 49.8507C153.06 49.8846 153.073 49.9234 153.076 49.9637C153.079 50.0039 153.071 50.0442 153.054 50.0809C152.518 51.2101 151.667 52.1604 150.604 52.8178C149.541 53.4752 148.311 53.8117 147.061 53.787C142.406 53.787 140.128 50.7902 140.128 47.3937C140.128 43.9972 142.406 41.0003 147.061 41.0003C150.217 41.0003 153.554 42.8284 153.554 47.7833V48.073H142.785ZM150.777 46.2948C150.812 46.2953 150.847 46.2881 150.879 46.2736C150.911 46.2591 150.939 46.2378 150.962 46.2111C150.985 46.1844 151.002 46.153 151.011 46.1192C151.021 46.0853 151.022 46.0498 151.017 46.0151C150.817 45.0887 150.29 44.2655 149.532 43.6966C148.774 43.1277 147.836 42.8513 146.891 42.9183C145.931 42.8621 144.98 43.1383 144.2 43.7005C143.419 44.2627 142.856 45.0765 142.605 46.0051C142.6 46.0403 142.602 46.0762 142.611 46.1106C142.62 46.145 142.637 46.177 142.659 46.2044C142.682 46.2318 142.71 46.2541 142.742 46.2697C142.775 46.2853 142.809 46.2938 142.845 46.2948H150.777Z" fill="white"/>
<path d="M98.2715 41.6298C98.2708 41.58 98.2552 41.5314 98.2267 41.4905C98.1982 41.4495 98.1582 41.4181 98.1116 41.4001C97.2326 41.1244 96.3156 40.9895 95.3944 41.0005C90.7393 41.0005 88.4517 43.9974 88.4517 47.3939V53.1379C88.4517 53.2015 88.4769 53.2624 88.5219 53.3074C88.5668 53.3523 88.6278 53.3776 88.6914 53.3776H90.6394C90.6704 53.3777 90.7011 53.3714 90.7297 53.3592C90.7582 53.347 90.784 53.3292 90.8055 53.3068C90.8269 53.2844 90.8437 53.2579 90.8546 53.2289C90.8656 53.1998 90.8705 53.1689 90.8692 53.1379V47.3939C90.8284 46.7931 90.9177 46.1906 91.131 45.6275C91.3444 45.0643 91.6767 44.5539 92.1053 44.131C92.534 43.708 93.0488 43.3826 93.6147 43.1768C94.1806 42.971 94.7843 42.8897 95.3844 42.9385C96.2672 42.9141 97.1403 43.1281 97.9118 43.5578C97.9469 43.5793 97.9872 43.591 98.0283 43.5916C98.0694 43.5922 98.11 43.5817 98.1457 43.5613C98.1814 43.5409 98.211 43.5113 98.2314 43.4755C98.2518 43.4398 98.2621 43.3992 98.2615 43.358L98.2715 41.6298Z" fill="white"/>
<path d="M131.238 21.0613H91.8784L93.0072 23.5188H131.238C131.417 23.5188 131.567 23.4189 131.567 23.289V21.2911C131.567 21.1612 131.417 21.0514 131.238 21.0514" fill="white"/>
<path d="M78.7615 23.5186L79.9103 21.0612H63.6273C63.4474 21.0612 63.3076 21.1711 63.3076 21.301V23.2989C63.3076 23.4287 63.4474 23.5286 63.6273 23.5286L78.7615 23.5186Z" fill="white"/>
<path d="M120.189 33.5581C117.509 33.6056 114.882 32.8126 112.676 31.2906C111.556 30.4662 110.201 30.0215 108.81 30.0215C107.419 30.0215 106.065 30.4662 104.944 31.2906L104.795 31.3804C103.092 32.4382 101.124 32.9896 99.1196 32.9701C97.1154 32.9507 95.1581 32.3612 93.4765 31.2706L92.977 30.9409C91.2359 29.8108 89.8505 28.2106 88.9812 26.3257L86.7635 21.4908C86.6717 21.3439 86.5434 21.2233 86.391 21.141C86.2387 21.0587 86.0675 21.0174 85.8944 21.0212C85.7229 21.0192 85.5538 21.0613 85.4034 21.1435C85.2529 21.2258 85.1261 21.3454 85.0353 21.4908L82.7477 26.4856C81.9179 28.278 80.6204 29.8136 78.9916 30.9309L78.8017 31.0707C77.1096 32.237 75.114 32.8847 73.0595 32.9343C71.0049 32.984 68.9804 32.4336 67.2338 31.3505H67.1838C66.1109 30.6039 64.8525 30.1683 63.5476 30.0918C63.5175 30.0918 63.4876 30.0858 63.4597 30.0743C63.4318 30.0627 63.4065 30.0458 63.3852 30.0245C63.3639 30.0031 63.3469 29.9778 63.3354 29.95C63.3238 29.9221 63.3179 29.8922 63.3179 29.862V27.5044C63.3178 27.4712 63.3246 27.4384 63.3378 27.4079C63.3511 27.3774 63.3706 27.35 63.395 27.3274C63.4194 27.3049 63.4483 27.2877 63.4797 27.2769C63.5112 27.2661 63.5445 27.2619 63.5776 27.2647C65.4005 27.3474 67.1659 27.9278 68.6823 28.943H68.7322C70.0099 29.7355 71.4911 30.1378 72.9941 30.1006C74.4972 30.0633 75.9566 29.5881 77.1934 28.7332L77.3832 28.6033C78.5887 27.7675 79.5505 26.6264 80.1703 25.2968L82.5478 20.1421C82.8874 19.5551 83.3753 19.0678 83.9627 18.729C84.5501 18.3902 85.2163 18.2118 85.8944 18.2118C86.5725 18.2118 87.2387 18.3902 87.826 18.729C88.4134 19.0678 88.9014 19.5551 89.2409 20.1421L89.3008 20.262L91.5585 25.1669C92.2127 26.5699 93.252 27.7581 94.5554 28.5933L95.0448 28.913C96.2774 29.7092 97.7102 30.1401 99.1775 30.1561C100.645 30.172 102.087 29.7722 103.336 29.0029L103.476 28.913C105.046 27.8077 106.92 27.2145 108.84 27.2145C110.761 27.2145 112.634 27.8077 114.205 28.913C115.977 30.1048 118.063 30.7413 120.199 30.7413C122.334 30.7413 124.421 30.1048 126.192 28.913C127.713 27.8989 129.481 27.3187 131.307 27.2348C131.34 27.232 131.373 27.2361 131.405 27.2469C131.436 27.2577 131.465 27.275 131.49 27.2975C131.514 27.3201 131.534 27.3474 131.547 27.3779C131.56 27.4083 131.567 27.4413 131.567 27.4745V29.832C131.564 29.8939 131.538 29.9523 131.493 29.9951C131.448 30.038 131.389 30.0618 131.327 30.0618C130.022 30.1383 128.764 30.5739 127.691 31.3205C125.49 32.8442 122.865 33.6375 120.189 33.5881" fill="white"/>
</g>
<defs>
<clipPath id="clip0_4385_1251">
<rect width="112" height="36" fill="white" transform="translate(42 18)"/>
</clipPath>
</defs>
</svg>
