<svg width="196" height="73" viewBox="0 0 196 73" fill="none" xmlns="http://www.w3.org/2000/svg">
<rect width="196" height="73" fill=""/>
<g clip-path="url(#clip0_4385_1263)">
<path d="M71.9579 27.2343C72.0684 31.3318 71.9861 35.434 71.9133 39.5245C71.8874 41.0825 71.9673 42.6404 71.9556 44.1984C71.9556 44.7396 72.2281 45.5385 71.4292 45.679C70.5458 45.8337 69.5495 46.082 68.8869 45.0582C67.5358 42.9497 66.1636 40.8669 64.8031 38.7725C63.2946 36.4508 61.7885 34.1268 60.233 31.7254C59.8359 32.1354 59.998 32.5711 59.9675 32.9554C59.7583 36.7764 59.8899 40.5975 60.0074 44.4186C60.0333 45.3182 59.81 45.8032 58.7762 45.7868C57.8528 45.7704 57.5567 45.419 57.5708 44.5194C57.6272 41.3988 57.6272 38.2758 57.6342 35.1482C57.6342 33.0397 57.6178 30.9312 57.6107 28.8227C57.6107 28.2768 57.5637 27.7239 57.8598 27.2249C58.1253 27.0164 59.5657 26.9906 59.9745 27.2249C60.249 27.4993 60.5034 27.7929 60.7358 28.1034C62.7589 31.217 64.7632 34.3353 66.7698 37.4441C67.6274 38.7678 68.4968 40.0868 69.3944 41.462C69.7304 40.9935 69.6059 40.5999 69.6059 40.2297C69.6059 36.6078 69.6059 32.9835 69.5918 29.3615C69.5918 27.6419 69.5918 27.6419 71.2366 27.253L71.9579 27.2343Z" fill="white"/>
<path d="M102.269 45.9766C100.859 44.1023 99.6842 42.0782 98.4882 40.0727C97.9337 39.1356 96.0704 38.5944 95.147 39.0911C94.7076 39.3254 94.7804 39.7448 94.7804 40.1196C94.7804 41.6002 94.7804 43.0809 94.8321 44.5709C94.8744 45.508 94.4632 45.7938 93.5845 45.7915C92.7057 45.7891 92.3133 45.5408 92.318 44.5873C92.3485 39.2106 92.318 33.8339 92.318 28.4596C92.318 28.0285 92.318 27.5974 92.6281 27.246H98.9723L99.9944 27.5154C102.281 28.1409 103.564 29.6801 103.719 32.0464C103.878 34.4969 103.014 36.4977 100.899 37.8237C100.194 38.2735 100.147 38.6108 100.589 39.2739C101.67 40.8951 102.772 42.4999 103.958 44.0508C104.898 45.2925 104.882 45.3651 103.439 45.9836L102.269 45.9766ZM96.82 36.8397C97.015 36.8397 97.2077 36.8678 97.4027 36.8748C99.226 36.9475 100.774 35.5559 101.035 33.6113C101.348 31.2686 100.535 30.0058 98.4295 29.5325C97.5789 29.3404 96.7189 29.4646 95.866 29.4248C95.1164 29.3896 94.8157 29.7317 94.8227 30.472C94.8392 31.8777 94.8227 33.2833 94.7992 34.6703C94.771 37.0974 94.7311 36.7764 96.82 36.8397Z" fill="white"/>
<path d="M117.072 27.2343C117.958 27.5365 118.862 27.7942 119.727 28.155C120.502 28.4759 120.629 29.3685 120.117 30.3595C119.692 31.1819 119.177 30.6337 118.757 30.4017C117.16 29.5372 115.33 29.1977 113.529 29.4318C110.758 29.7481 109.104 31.634 108.707 35.0428C108.548 36.3616 108.577 37.6962 108.794 39.0068C109.405 42.5701 111.614 44.3366 115.178 43.7322C118.531 43.1652 117.906 43.5588 117.993 40.6327C117.993 40.3211 117.993 40.0071 117.993 39.6955C118.014 38.6038 118.9 37.9877 119.955 38.3156C120.338 38.4328 120.394 38.7233 120.399 39.0466C120.413 40.724 120.399 42.4015 120.437 44.0789C120.451 44.7958 120.004 45.016 119.436 45.1542C118.259 45.4338 117.081 45.7103 115.899 45.9836H112.61C111.872 45.7493 111.122 45.515 110.396 45.2433C109.675 44.9867 109.012 44.5888 108.447 44.073C107.882 43.5572 107.427 42.9339 107.107 42.2398C105.596 38.9318 105.565 35.5324 106.827 32.1494C107.934 29.1811 110.352 27.8364 113.305 27.2413L117.072 27.2343Z" fill="white"/>
<path d="M36.2427 27.2343C36.7925 27.4358 37.3353 27.6583 37.8875 27.8317C38.4396 28.0051 38.5924 28.2838 38.543 28.8461C38.4349 29.8699 37.5632 30.3783 36.6304 29.9355C35.6549 29.4317 34.5459 29.2441 33.4583 29.399C32.2294 29.6028 31.1321 30.5142 30.9253 31.5356C30.6739 32.796 31.2896 33.6535 32.2976 34.2626C33.0988 34.7452 33.9541 35.1388 34.7812 35.5793C35.4367 35.926 36.1182 36.2353 36.7361 36.6429C38.3809 37.7253 39.3772 39.1801 39.1211 41.2512C38.8861 43.2168 37.7112 44.4912 35.996 45.344C35.7751 45.4541 35.5448 45.5502 35.3122 45.6392C34.7022 45.8666 34.0556 45.9809 33.4043 45.9766C31.8112 45.9766 30.2087 45.9766 28.6062 46C28.101 46 27.9741 45.9039 28.0047 45.3979C28.0517 44.5803 28.0258 43.7579 28.0188 42.9427C28.0144 42.749 28.0693 42.5586 28.1762 42.3968C28.4535 41.9938 28.8177 42.1438 29.2712 42.4624C30.6081 43.4253 32.0908 43.9758 33.7685 43.7931C35.2088 43.6385 36.285 42.7576 36.5716 41.5159C36.8348 40.3867 36.3719 39.4215 35.0913 38.6155C34.4005 38.1821 33.651 37.8377 32.9226 37.4652C31.7477 36.8608 30.5165 36.3266 29.5907 35.3286C28.4088 34.0612 28 32.6227 28.5757 30.9265C29.2853 28.7993 31.0099 27.8973 32.9531 27.2343C34.026 26.9132 35.1698 26.9132 36.2427 27.2343Z" fill="white"/>
<path d="M137.044 27.2343C137.256 27.7028 136.967 28.0519 136.762 28.4267C135.099 31.4724 133.473 34.5461 131.764 37.5777C131.168 38.5883 130.883 39.7521 130.947 40.9232C131.017 42.207 130.966 43.5002 130.996 44.7864C131.024 45.9086 130.223 45.7376 129.532 45.7657C128.773 45.7962 128.315 45.5431 128.44 44.6787C128.494 44.2944 128.456 43.8938 128.531 43.5073C129.271 39.719 127.392 36.6406 125.761 33.4942C124.929 31.9011 124.135 30.2916 123.339 28.6821C123.115 28.2323 122.847 27.7825 122.946 27.2413H125.296L129.817 36.6054C130.287 35.7503 130.604 35.1365 130.937 34.5297L134.93 27.2343H137.044Z" fill="white"/>
<path d="M55.0402 27.2343C55.4044 27.738 55.0237 28.1222 54.8052 28.5134C53.2286 31.4279 51.7154 34.3704 50.0283 37.2263C49.072 38.8404 48.8699 40.4827 49.0555 42.2656C49.1284 42.9684 49.0978 43.6713 49.1448 44.3741C49.2082 45.3112 48.9098 45.7985 47.8313 45.8032C46.7528 45.8079 46.4756 45.3487 46.539 44.3835C46.6259 43.102 46.6353 41.8181 46.68 40.5343C46.7086 39.639 46.5055 38.7515 46.0902 37.9572C44.4995 34.7804 42.9275 31.6036 41.3462 28.4314C41.1582 28.0542 40.8763 27.6888 41.177 27.2413H43.2917L47.9535 36.5679L52.9254 27.2343H55.0402Z" fill="white"/>
<path d="M169 29.3428C167.898 29.9285 166.772 29.3428 165.656 29.392C163.899 29.4552 163.887 29.392 163.885 31.0975C163.885 35.5067 163.885 39.9158 163.885 44.3249C163.885 45.6673 163.135 46.1804 161.857 45.747C161.204 45.5291 161.401 45.0137 161.401 44.5756C161.401 40.0118 161.371 35.4387 161.439 30.8843C161.457 29.6801 161.07 29.2444 159.895 29.4014C159.044 29.5091 158.182 29.5419 157.324 29.5794C156.777 29.6028 156.15 29.6778 156.206 28.8086C156.248 28.1058 156.189 27.3748 157.273 27.3889C159.738 27.4217 162.207 27.3889 164.67 27.3889C166.115 27.3889 167.562 27.4334 169.007 27.4592L169 29.3428Z" fill="white"/>
<path d="M78.772 27.2343C80.8186 27.738 82.8581 28.2628 84.9118 28.7407C86.0443 29.0054 87.097 28.8836 87.8512 27.8481C88.307 27.2226 88.965 27.3795 89.5735 27.4451C90.027 27.4896 89.9518 27.834 89.8907 28.1597C89.799 28.7104 89.5974 29.2373 89.2979 29.709C88.9984 30.1807 88.6071 30.5878 88.147 30.906C87.6869 31.2243 87.1675 31.4473 86.6195 31.5619C86.0714 31.6765 85.5059 31.6803 84.9564 31.5731C83.1213 31.2053 81.3073 30.718 79.4934 30.2471C78.3185 29.9425 77.334 30.1581 76.5398 31.1022C76.4298 31.2632 76.2873 31.3996 76.1216 31.5028C75.5694 31.7605 74.935 31.8542 74.4439 31.5028C73.9528 31.1514 74.3593 30.636 74.5026 30.226C75.0572 28.6399 76.2085 27.67 77.8321 27.2343C78.1409 27.1593 78.4632 27.1593 78.772 27.2343Z" fill="white"/>
<path d="M150.548 37.3785C150.52 34.5367 150.715 31.6903 150.456 28.8508C150.376 27.9652 150.527 27.3678 151.678 27.3725C152.759 27.3725 153.118 27.7403 153.088 28.8039C152.98 32.3462 153.102 35.8909 152.919 39.4355C152.829 41.1411 152.963 42.863 153.071 44.5709C153.149 45.8337 152.367 45.8032 151.49 45.8102C150.496 45.8102 150.515 45.2644 150.531 44.5076C150.581 42.1321 150.548 39.7541 150.548 37.3785Z" fill="white"/>
<path d="M142.263 37.6339C141.21 37.6339 140.148 37.6339 139.107 37.6339C138.47 37.6339 138.186 37.3411 138.167 36.7202C138.149 36.0994 138.311 35.6308 139.051 35.6285C141.194 35.6285 143.334 35.6285 145.477 35.6285C146.21 35.6285 146.394 36.0666 146.403 36.6898C146.415 37.3739 146.102 37.6644 145.407 37.6433C144.366 37.6128 143.313 37.6339 142.263 37.6339Z" fill="white"/>
<path d="M82.1767 43.3292C84.329 43.3292 86.479 43.3292 88.6313 43.3292C89.3103 43.3292 89.8954 43.3784 89.8625 44.3015C89.8367 45.1121 89.7591 45.7728 88.6877 45.7681C84.2679 45.747 79.8481 45.7681 75.4284 45.7681C74.8339 45.7681 74.27 45.658 74.3898 44.8708C74.4932 44.1961 74.3029 43.3128 75.4942 43.3363C77.717 43.3597 79.9468 43.3316 82.1767 43.3292Z" fill="white"/>
<path d="M82.2261 35.42H88.5702C89.2399 35.42 89.8625 35.4504 89.8132 36.3829C89.7685 37.2169 89.5383 37.7885 88.5185 37.7885C84.2186 37.7628 79.9187 37.7698 75.6187 37.7885C74.8081 37.7885 74.5191 37.4348 74.5285 36.6476C74.5379 35.8604 74.7775 35.4083 75.6704 35.42C77.8486 35.434 80.0385 35.42 82.2261 35.42Z" fill="white"/>
</g>
<defs>
<clipPath id="clip0_4385_1263">
<rect width="141" height="19" fill="white" transform="translate(28 27)"/>
</clipPath>
</defs>
</svg>
