<svg width="113" height="79" viewBox="0 0 113 79" fill="none" xmlns="http://www.w3.org/2000/svg">
<path d="M99.7386 2.24316H14.1886C8.28263 2.24316 3.49487 7.02455 3.49487 12.9227V66.3204C3.49487 72.2185 8.28263 76.9999 14.1886 76.9999H99.7386C105.645 76.9999 110.432 72.2185 110.432 66.3204V12.9227C110.432 7.02455 105.645 2.24316 99.7386 2.24316Z" stroke="#6F63DE" stroke-width="3.8178" stroke-linecap="round" stroke-linejoin="round"/>
<path d="M67.9483 55.8333C70.8478 55.8333 73.1983 53.4828 73.1983 50.5833C73.1983 47.6838 70.8478 45.3333 67.9483 45.3333C65.0488 45.3333 62.6983 47.6838 62.6983 50.5833C62.6983 53.4828 65.0488 55.8333 67.9483 55.8333Z" stroke="#6F63DE" stroke-width="3" stroke-linecap="round" stroke-linejoin="round"/>
<path d="M46.9483 34.8333C49.8478 34.8333 52.1983 32.4828 52.1983 29.5833C52.1983 26.6838 49.8478 24.3333 46.9483 24.3333C44.0488 24.3333 41.6983 26.6838 41.6983 29.5833C41.6983 32.4828 44.0488 34.8333 46.9483 34.8333Z" stroke="#6F63DE" stroke-width="3" stroke-linecap="round" stroke-linejoin="round"/>
<path d="M46.9483 55.8333V34.8333C46.9483 39.0105 48.6077 43.0166 51.5614 45.9703C54.5151 48.924 58.5212 50.5833 62.6983 50.5833" stroke="#6F63DE" stroke-width="3" stroke-linecap="round" stroke-linejoin="round"/>
<rect y="29.4839" width="7.63561" height="1.9089" transform="rotate(-90 0 29.4839)" fill="#6F63DE"/>
<rect y="18.9849" width="7.63561" height="1.9089" transform="rotate(-90 0 18.9849)" fill="#6F63DE"/>
<rect x="49.6315" y="5.62256" width="13.3623" height="1.9089" rx="0.954451" fill="#6F63DE"/>
</svg>
