<svg width="196" height="73" viewBox="0 0 196 73" fill="none" xmlns="http://www.w3.org/2000/svg">
<rect width="196" height="73" fill=""/>
<g clip-path="url(#clip0_4385_1258)">
<path d="M52.9928 46.397L54.2439 49.5517C52.9065 50.4718 51.3104 50.9538 49.4554 50.9538C47.5573 50.9538 46.1768 50.3842 45.1846 49.2888C44.2355 48.1496 43.761 46.5285 43.761 44.3816V37.1083H41.0001V33.6908H43.8042V27.732H47.773V33.6908H53.338V37.1083H47.773V44.2501C47.773 46.2656 48.5926 47.3171 50.1888 47.3171C51.0947 47.2733 52.0438 46.9666 52.9928 46.397Z" fill="white"/>
<path d="M68.9111 33.6908H72.7074V50.5594H68.9111V48.4564C67.4444 50.1213 65.6757 50.9538 63.4755 50.9538C61.1029 50.9538 59.1185 50.0775 57.5655 48.3687C56.0124 46.6599 55.2359 44.5569 55.2359 42.0156C55.2359 39.4743 56.0124 37.3713 57.5655 35.7501C59.1185 34.0851 61.1029 33.2527 63.4755 33.2527C65.5894 33.2527 67.4012 34.0851 68.9111 35.7939V33.6908ZM60.5852 45.7837C61.4912 46.7914 62.6559 47.2733 64.0795 47.2733C65.5031 47.2733 66.6678 46.7914 67.6169 45.7837C68.5228 44.7759 68.9974 43.5491 68.9974 42.1032C68.9974 40.6574 68.5228 39.4743 67.6169 38.4666C66.711 37.4589 65.5031 36.9769 64.0795 36.9769C62.6559 36.9769 61.4912 37.4589 60.5852 38.4666C59.6793 39.4743 59.2047 40.6574 59.2047 42.1032C59.2047 43.5491 59.6793 44.7759 60.5852 45.7837Z" fill="white"/>
<path d="M96.6498 33.2089C98.6339 33.2089 100.23 33.8661 101.481 35.1367C102.732 36.4074 103.379 38.16 103.379 40.3945V50.5595H99.3673V41.1394C99.3673 39.7811 99.0655 38.7295 98.4183 38.0285C97.771 37.3275 96.9515 36.9769 95.9164 36.9769C94.7947 36.9769 93.8885 37.3713 93.1553 38.16C92.4219 38.9486 92.0768 40.0002 92.0768 41.3146V50.6033H88.108V41.1831C88.108 39.8687 87.806 38.8171 87.1589 38.0723C86.5118 37.3275 85.649 36.9331 84.6137 36.9331C83.4921 36.9331 82.5862 37.3275 81.8528 38.1161C81.1195 38.9048 80.7743 39.9563 80.7743 41.2708V50.5595H76.8055V33.6908H80.688V36.1007C81.1626 35.2243 81.8528 34.5233 82.7587 33.9975C83.6647 33.4717 84.6568 33.2089 85.7353 33.2089C86.8138 33.2089 87.806 33.5156 88.6688 33.9975C89.5747 34.5233 90.2218 35.2682 90.6532 36.2321C91.2572 35.2682 92.0768 34.5233 93.1122 33.9975C94.234 33.4717 95.3986 33.2089 96.6498 33.2089Z" fill="white"/>
<path d="M123.224 41.7528C123.224 42.1909 123.181 42.8043 123.095 43.5491H110.455C110.714 44.7322 111.274 45.6523 112.137 46.3533C113 47.0543 114.122 47.4048 115.545 47.4048C117.572 47.4048 119.384 46.8352 121.024 45.6523L122.62 48.544C120.549 50.0775 118.134 50.8662 115.372 50.8662C113.863 50.8662 112.525 50.6033 111.36 50.1213C110.196 49.6394 109.247 48.9383 108.513 48.1059C107.78 47.2734 107.262 46.3533 106.917 45.3017C106.572 44.294 106.399 43.1986 106.399 42.0156C106.399 39.4744 107.219 37.3713 108.815 35.7063C110.411 34.0414 112.482 33.2089 115.027 33.2089C117.443 33.2089 119.428 33.9537 120.938 35.4873C122.447 37.1084 123.224 39.1677 123.224 41.7528ZM114.984 36.6702C113.819 36.6702 112.827 37.0208 112.051 37.678C111.231 38.379 110.714 39.2991 110.455 40.4821H119.341C119.169 39.2991 118.694 38.379 117.918 37.678C117.098 37.0208 116.149 36.6702 114.984 36.6702Z" fill="white"/>
<path d="M142.335 41.7528C142.335 42.1909 142.292 42.8043 142.205 43.5491H129.522C129.781 44.7322 130.342 45.6523 131.205 46.3533C132.068 47.0543 133.189 47.4048 134.613 47.4048C136.64 47.4048 138.452 46.8352 140.092 45.6523L141.687 48.544C139.617 50.0775 137.201 50.8662 134.44 50.8662C132.93 50.8662 131.593 50.6033 130.428 50.1213C129.263 49.6394 128.314 48.9383 127.581 48.1059C126.848 47.2734 126.33 46.3533 125.985 45.3017C125.64 44.294 125.467 43.1986 125.467 42.0156C125.467 39.4744 126.287 37.3713 127.883 35.7063C129.479 34.0414 131.55 33.2089 134.095 33.2089C136.511 33.2089 138.495 33.9537 140.005 35.4873C141.558 37.1084 142.335 39.1677 142.335 41.7528ZM134.095 36.6702C132.93 36.6702 131.938 37.0208 131.161 37.678C130.342 38.379 129.824 39.2991 129.565 40.4821H138.452C138.28 39.2991 137.805 38.379 137.029 37.678C136.166 37.0208 135.217 36.6702 134.095 36.6702Z" fill="white"/>
<path d="M145.397 50.5594V33.6908H149.236V36.013C150.272 34.1728 151.782 33.2527 153.852 33.2527C154.586 33.2527 155.233 33.3841 155.837 33.6032L155.492 37.5027C154.802 37.2836 154.155 37.1522 153.551 37.1522C152.299 37.1522 151.307 37.5903 150.531 38.4228C149.754 39.2553 149.366 40.5697 149.366 42.3223V50.5594H145.397Z" fill="white"/>
<path d="M65.2876 25.8918L62.4404 31.6754L58.5147 31.7191L63.6483 23.0439L66.9701 23L72.233 31.5439L68.2642 31.5877L65.2876 25.8918Z" fill="white"/>
</g>
<defs>
<clipPath id="clip0_4385_1258">
<rect width="114.837" height="27.9537" fill="white" transform="translate(41 23)"/>
</clipPath>
</defs>
</svg>
