<svg width="80" height="76" viewBox="0 0 80 76" fill="none" xmlns="http://www.w3.org/2000/svg">
<circle cx="30" cy="30" r="30" fill="#F5F8FA" fill-opacity="0.5"/>
<path d="M55.356 39.8289H58.4518C61.0662 39.8289 63.679 39.8289 66.2901 39.8289C67.2919 39.8289 67.6853 40.2223 67.6853 41.229C67.6853 45.3371 67.6853 49.4437 67.6853 53.5485V54.3866H68.4697C71.8057 54.3866 75.145 54.3866 78.4875 54.3866C79.6359 54.3866 80 54.7458 80 55.882C80 60.9219 80 65.9618 80 71.0017C80 73.7529 78.0819 75.6612 75.3258 75.6636C67.9956 75.6636 60.6712 75.6636 53.3524 75.6636C50.5547 75.6636 48.6562 73.7578 48.6489 70.9601C48.6489 67.9499 48.6489 64.9404 48.6489 61.9318V61.1182H47.1267C45.0987 61.1182 43.0682 61.1182 41.0402 61.1182C38.2327 61.1182 36.3293 59.2196 36.322 56.4269C36.322 54.1643 36.322 51.9017 36.322 49.6391V48.7986H34.6116C32.63 48.7986 30.646 48.7986 28.6644 48.7986C25.9156 48.7766 24 46.8683 24 44.1122C24 37.5818 24 31.0498 24 24.5162C24 23.4069 24.369 23.0331 25.466 23.0306C28.3981 23.0257 31.3302 23.0673 34.2622 23.0013C35.4375 22.9769 36.2169 23.2872 36.625 24.4527C36.9377 25.325 37.4655 26.1166 37.8467 26.9645C38.0397 27.3921 38.284 27.5216 38.7507 27.5216C43.7426 27.502 48.7344 27.5094 53.7263 27.5094C55.0481 27.5094 55.356 27.8246 55.356 29.1684C55.3584 32.6893 55.356 36.2103 55.356 39.8289ZM57.2594 73.4279H75.1865C76.8969 73.4279 77.7521 72.5557 77.7521 70.8331C77.7521 66.334 77.7521 61.8349 77.7521 57.3358C77.7521 57.111 77.7325 56.8887 77.7228 56.681H57.5966V57.563C57.5966 61.7608 57.6186 65.9561 57.5819 70.1538C57.5721 71.2265 57.3742 72.3015 57.2594 73.4279ZM48.6391 58.8336V58.0517C48.6391 55.8136 48.6391 53.5754 48.6391 51.3373C48.6391 50.2891 49.0227 49.9152 50.0783 49.9103C51.5003 49.9103 52.9224 49.9103 54.3444 49.9103C56.1159 49.9103 57.8873 49.9274 59.6588 49.9323C59.9374 49.9101 60.2155 49.9795 60.451 50.1299C60.6866 50.2803 60.8665 50.5035 60.9636 50.7655C61.4522 51.8479 62.002 52.901 62.5567 53.9419C62.6098 54.0462 62.6842 54.1381 62.7751 54.2118C62.8661 54.2854 62.9714 54.3392 63.0844 54.3695C63.8443 54.4184 64.6091 54.3915 65.3934 54.3915V42.1159H45.2795V42.9198C45.2795 46.6264 45.3039 50.333 45.2795 54.0421C45.2795 55.6523 45.4676 57.2894 44.7541 58.8336H48.6391ZM36.3196 46.5214V45.7053C36.3196 42.7439 36.3196 39.7833 36.3196 36.8236C36.3196 35.7216 36.691 35.3575 37.7856 35.3575C40.9107 35.3575 44.0333 35.3746 47.1584 35.3429C47.8914 35.3429 48.3459 35.5872 48.6562 36.2323C49.1661 37.278 49.6881 38.3181 50.2224 39.3525C50.3177 39.5382 50.5034 39.802 50.6622 39.8118C51.4637 39.8582 52.2724 39.8338 53.0665 39.8338V29.8159H32.9623C32.9623 34.2995 32.9819 38.7294 32.9477 43.1593C32.9477 44.2783 32.7449 45.3998 32.6349 46.5311L36.3196 46.5214ZM26.2406 25.2688V34.6098C26.2406 37.7846 26.2406 40.961 26.2406 44.1391C26.2406 45.241 26.7586 46.0425 27.6749 46.4041C29.1727 46.9978 30.712 45.8861 30.7144 44.1782C30.7144 39.1155 30.7144 34.0528 30.7144 28.9901C30.7144 27.8905 31.0834 27.524 32.1805 27.524H35.6012C35.4433 27.2315 35.3053 26.9287 35.1883 26.6175C34.8682 25.5058 34.1792 25.193 33.0234 25.2517C30.7926 25.3494 28.5545 25.2688 26.2406 25.2688ZM38.5601 37.5883V47.0711C38.5601 50.1954 38.5601 53.3213 38.5601 56.4488C38.5601 57.5508 39.0806 58.3522 39.9944 58.7139C41.4947 59.3076 43.0315 58.1861 43.034 56.4757C43.034 51.4155 43.034 46.3528 43.034 41.2901C43.034 40.1905 43.4054 39.824 44.5 39.824C45.5947 39.824 46.7162 39.824 47.9208 39.824C47.78 39.5744 47.6599 39.3138 47.5616 39.0446C47.2244 37.8229 46.4547 37.4808 45.1988 37.5517C43.0169 37.6763 40.8252 37.5883 38.5601 37.5883ZM50.8773 52.1485V61.3478C50.8773 64.5682 50.8773 67.7878 50.8773 71.0065C50.8773 72.1085 51.3953 72.9124 52.3091 73.274C53.8093 73.8678 55.3487 72.756 55.3511 71.0481C55.3511 65.9854 55.3511 60.9227 55.3511 55.86C55.3511 54.7605 55.7201 54.394 56.8171 54.394C57.9142 54.394 59.0333 54.394 60.2379 54.394C60.0653 54.0791 59.9151 53.7525 59.7883 53.4166C59.4755 52.3684 58.828 52.0605 57.7285 52.1118C55.4757 52.2218 53.2131 52.1485 50.8773 52.1485Z" fill="#6F63DE"/>
<path d="M27.1566 56.0311C26.932 56.3286 26.687 56.6103 26.4236 56.874C26.32 56.9778 26.1964 57.0596 26.0604 57.1143C25.9243 57.169 25.7785 57.1956 25.6319 57.1924C25.4853 57.1892 25.3409 57.1563 25.2073 57.0957C25.0738 57.0351 24.9539 56.9481 24.8549 56.8398C24.6529 56.64 24.538 56.3684 24.5352 56.0842C24.5325 55.8 24.6421 55.5262 24.8403 55.3225C25.737 54.3744 26.6484 53.4386 27.6037 52.5468C28.2121 51.9775 28.6544 51.9677 29.2701 52.5321C30.2475 53.4288 31.1833 54.3769 32.0922 55.3445C32.1921 55.4452 32.2703 55.5653 32.3222 55.6974C32.3741 55.8294 32.3984 55.9706 32.3939 56.1124C32.3893 56.2542 32.3559 56.3936 32.2956 56.522C32.2353 56.6504 32.1495 56.7652 32.0434 56.8594C31.9412 56.9642 31.819 57.0475 31.6841 57.1044C31.5492 57.1613 31.4042 57.1906 31.2578 57.1906C31.1114 57.1906 30.9665 57.1613 30.8315 57.1044C30.6966 57.0475 30.5745 56.9642 30.4723 56.8594C30.2279 56.6181 29.9971 56.3636 29.7808 56.097L29.512 56.2216C29.7563 57.4067 29.8981 58.6235 30.245 59.7768C31.1361 62.7106 32.934 65.2866 35.3805 67.1348C37.827 68.983 40.7964 70.0083 43.862 70.0634C44.7587 70.0854 45.2596 70.4837 45.267 71.1776C45.2743 71.8715 44.7392 72.3113 43.8009 72.304C35.5301 72.2454 28.3172 65.6775 27.462 57.436C27.4156 57.0011 27.3643 56.5686 27.3154 56.1337L27.1566 56.0311Z" fill="#6F63DE"/>
<path d="M77.4151 46.0694C77.623 45.766 77.8533 45.4785 78.1041 45.2094C78.3125 45.0106 78.5898 44.9005 78.8777 44.9021C79.1656 44.9037 79.4417 45.0169 79.6478 45.218C79.8539 45.419 79.974 45.6922 79.9827 45.9799C79.9915 46.2677 79.8883 46.5477 79.6948 46.7609C78.8152 47.6918 77.916 48.6105 76.9802 49.4877C76.3596 50.0693 75.9198 50.0986 75.3162 49.5464C74.3193 48.6374 73.3615 47.6723 72.4428 46.6876C72.3451 46.5848 72.2695 46.4631 72.2208 46.33C72.172 46.1968 72.1511 46.0551 72.1594 45.9135C72.1676 45.772 72.2049 45.6336 72.2687 45.507C72.3326 45.3804 72.4218 45.2683 72.5308 45.1776C72.7355 44.9812 73.0082 44.8716 73.2919 44.8716C73.5756 44.8716 73.8483 44.9812 74.053 45.1776C74.3316 45.4219 74.5832 45.6663 74.9473 46.0181C74.9049 44.127 74.4663 42.2657 73.6596 40.5547C71.0281 35.1792 66.7082 32.318 60.7097 32.0028C59.7714 31.954 59.2436 31.5655 59.2705 30.8496C59.2974 30.1337 59.7885 29.7427 60.6193 29.7598C65.0809 29.86 68.9439 31.4433 72.1374 34.5635C75.3309 37.6837 76.9362 41.4954 77.1879 45.9179L77.4151 46.0694Z" fill="#6F63DE"/>
<path d="M66.7183 71.1831C64.6267 71.0658 62.7111 69.9858 61.6092 67.7306C60.5072 65.4753 60.7344 63.2641 62.2615 61.2825C63.7276 59.3717 65.7312 58.6094 68.1257 58.9784C68.9051 59.0981 69.3009 59.5965 69.2081 60.2489C69.1153 60.9013 68.5508 61.258 67.7421 61.1554C66.1465 60.9575 64.8295 61.4828 63.9084 62.8047C63.4636 63.3983 63.2081 64.1122 63.1754 64.8533C63.1427 65.5943 63.3343 66.328 63.7251 66.9585C64.507 68.3365 65.7556 68.9816 67.3291 68.9327C68.9809 68.8838 70.3394 67.7623 70.894 66.0568C71.1384 65.3507 71.5709 64.9964 72.1402 65.0795C72.8536 65.1675 73.2543 65.8125 73.0662 66.5846C72.4065 69.2626 69.9167 71.188 66.7183 71.1831Z" fill="#6F63DE"/>
<path d="M67.6137 64.2042C68.9429 62.9117 70.2086 61.6753 71.4767 60.439C71.6428 60.2777 71.7992 60.0993 71.98 59.9503C72.1901 59.7612 72.465 59.6602 72.7475 59.6684C73.0301 59.6766 73.2986 59.7933 73.4974 59.9943C73.9201 60.4463 74.0154 61.0058 73.5853 61.4456C71.8733 63.1919 70.1345 64.9128 68.3687 66.6085C67.8531 67.0972 67.257 67.0215 66.7487 66.5132C66.2405 66.005 65.6859 65.465 65.1899 64.9079C65.0856 64.8049 65.0035 64.6817 64.9484 64.5459C64.8933 64.4101 64.8664 64.2645 64.8694 64.118C64.8723 63.9715 64.9051 63.8271 64.9657 63.6936C65.0262 63.5602 65.1133 63.4404 65.2216 63.3417C65.6736 62.9068 66.3407 62.9312 66.8465 63.415C67.1128 63.674 67.3645 63.9477 67.6137 64.2042Z" fill="#6F63DE"/>
</svg>
