<svg width="446" height="294" viewBox="0 0 446 294" fill="none" xmlns="http://www.w3.org/2000/svg">
<path d="M442.537 226H395.642C406.052 183.461 400.851 138.606 380.984 99.5665H414.242C415.16 99.5665 416.041 99.2022 416.69 98.5539C417.34 97.9055 417.705 97.0262 417.705 96.1093V96.1093C417.705 95.1924 417.34 94.313 416.69 93.6647C416.041 93.0164 415.16 92.6521 414.242 92.6521H377.256C345.878 37.3374 286.378 0 218.152 0C172.773 0 131.259 16.5174 99.3072 43.8567H43.0368C42.1186 43.8572 41.2382 44.2216 40.5889 44.8698C39.9396 45.518 39.5746 46.3971 39.5741 47.3138V47.3138C39.5746 48.2306 39.9396 49.1096 40.5889 49.7578C41.2382 50.4061 42.1186 50.7705 43.0368 50.771H91.6694C87.7859 54.4916 84.0738 58.3768 80.5333 62.4266H3.46273C2.54452 62.4271 1.66406 62.7915 1.01479 63.4397C0.365515 64.088 0.000524244 64.967 0 65.8838H0C0.000524244 66.8005 0.365515 67.6795 1.01479 68.3278C1.66406 68.976 2.54452 69.3404 3.46273 69.3409H74.7634C50.1285 100.432 35.4188 139.719 35.4188 182.44C35.3909 205.613 39.7973 228.579 48.4011 250.101H39.2773C38.3591 250.102 37.4786 250.466 36.8293 251.115C36.1801 251.763 35.8151 252.642 35.8146 253.559V253.559C35.8146 254.476 36.1794 255.355 36.8288 256.003C37.4781 256.652 38.3589 257.016 39.2773 257.016H51.3355C52.5966 259.82 53.9243 262.585 55.3186 265.313H14.3456C13.4272 265.313 12.5465 265.677 11.8971 266.326C11.2477 266.974 10.8829 267.853 10.8829 268.77V268.77C10.8829 269.687 11.2477 270.566 11.8971 271.215C12.5465 271.863 13.4272 272.227 14.3456 272.227H59.0465C63.3055 279.734 68.0921 286.93 73.3704 293.761H362.934C372.844 280.938 380.998 266.853 387.181 251.879H421.167C422.086 251.879 422.966 251.515 423.616 250.867C424.265 250.218 424.63 249.339 424.63 248.422V248.422C424.63 247.505 424.265 246.626 423.616 245.978C422.966 245.329 422.086 244.965 421.167 244.965H389.868C391.319 241.014 392.63 236.997 393.8 232.914H442.537C443.456 232.914 444.336 232.55 444.986 231.902C445.635 231.253 446 230.374 446 229.457V229.457C446 228.54 445.635 227.661 444.986 227.013C444.336 226.364 443.456 226 442.537 226V226Z" fill="#F9F8F8"/>
<path d="M294.954 293.76H272.816C272.816 292.994 273.121 292.259 273.664 291.717C274.206 291.175 274.942 290.871 275.709 290.87H292.057C292.825 290.87 293.561 291.175 294.104 291.717C294.647 292.259 294.952 292.994 294.952 293.76H294.954Z" fill="#F2F2F2"/>
<path d="M293.306 293.76H271.168C271.168 292.994 271.473 292.259 272.016 291.717C272.559 291.175 273.295 290.87 274.063 290.87H290.413C291.18 290.871 291.916 291.175 292.459 291.717C293.001 292.259 293.306 292.994 293.306 293.76V293.76Z" fill="#F2F2F2"/>
<path d="M287.583 290.161H276.916V290.86H287.583V290.161Z" fill="#F2F2F2"/>
<path d="M367.681 293.76H332.24C332.24 292.533 332.728 291.357 333.598 290.489C334.467 289.621 335.645 289.134 336.874 289.134H363.049C363.657 289.134 364.26 289.253 364.822 289.486C365.384 289.719 365.895 290.059 366.325 290.489C366.755 290.919 367.096 291.429 367.329 291.99C367.561 292.551 367.681 293.153 367.681 293.76Z" fill="#ECECEC"/>
<path d="M365.046 293.76H329.605C329.605 293.153 329.725 292.551 329.957 291.99C330.19 291.429 330.531 290.919 330.961 290.489C331.392 290.059 331.902 289.719 332.465 289.486C333.027 289.253 333.629 289.134 334.238 289.134H360.412C361.641 289.134 362.82 289.621 363.689 290.489C364.558 291.357 365.046 292.533 365.046 293.76V293.76Z" fill="#F2F2F2"/>
<path d="M355.883 288.004H338.805V289.124H355.883V288.004Z" fill="#ECECEC"/>
<path d="M139.495 141.845C139.495 130.404 130.206 121.129 118.748 121.129C107.289 121.129 98 130.404 98 141.845V189.526C98 200.967 107.289 210.241 118.748 210.241C130.206 210.241 139.495 200.967 139.495 189.526V141.845Z" fill="#F2F2F2"/>
<path d="M119.879 293.853H117.615V154.261C117.615 154.112 117.645 153.966 117.701 153.828C117.758 153.691 117.842 153.567 117.947 153.462C118.052 153.357 118.177 153.274 118.314 153.217C118.451 153.16 118.598 153.131 118.747 153.131V153.131C119.047 153.131 119.335 153.25 119.547 153.462C119.76 153.674 119.879 153.961 119.879 154.261V293.853Z" fill="#E4E4E4"/>
<path d="M119.879 173.18L113.585 162.295C113.435 162.036 113.188 161.846 112.898 161.769C112.608 161.691 112.299 161.731 112.039 161.881C111.779 162.031 111.589 162.278 111.511 162.568C111.434 162.857 111.474 163.166 111.624 163.425L117.919 174.31L119.879 173.18Z" fill="#E4E4E4"/>
<path d="M119.574 186.199L125.868 175.314C126.007 175.055 126.039 174.753 125.958 174.471C125.878 174.189 125.691 173.95 125.436 173.803C125.182 173.656 124.881 173.614 124.596 173.685C124.311 173.756 124.065 173.935 123.909 174.184L117.615 185.069L119.574 186.199Z" fill="#E4E4E4"/>
<path d="M198.076 100.697C198.076 86.1693 186.28 74.3926 171.729 74.3926C157.179 74.3926 145.383 86.1693 145.383 100.697V161.248C145.383 175.776 157.179 187.553 171.729 187.553C186.28 187.553 198.076 175.776 198.076 161.248V100.697Z" fill="#F2F2F2"/>
<path d="M173.166 293.727H170.293V116.465C170.293 116.084 170.444 115.719 170.714 115.45C170.983 115.181 171.348 115.029 171.73 115.029V115.029C172.111 115.029 172.476 115.181 172.745 115.45C173.015 115.719 173.166 116.084 173.166 116.465V293.727Z" fill="#E4E4E4"/>
<path d="M173.166 140.49L165.174 126.661C165.079 126.498 164.954 126.355 164.804 126.24C164.654 126.125 164.484 126.041 164.301 125.992C164.119 125.944 163.929 125.931 163.742 125.956C163.555 125.98 163.374 126.041 163.211 126.135C163.047 126.23 162.904 126.355 162.789 126.504C162.674 126.654 162.59 126.824 162.541 127.006C162.492 127.188 162.48 127.378 162.504 127.565C162.529 127.752 162.59 127.932 162.685 128.095L170.677 141.924L173.166 140.49Z" fill="#E4E4E4"/>
<path d="M172.782 157.022L180.774 143.194C180.868 143.031 180.93 142.85 180.954 142.664C180.979 142.477 180.966 142.287 180.918 142.105C180.869 141.923 180.784 141.753 180.669 141.603C180.555 141.454 180.411 141.328 180.248 141.234C180.084 141.14 179.904 141.079 179.717 141.054C179.53 141.03 179.34 141.042 179.157 141.091C178.975 141.14 178.804 141.224 178.655 141.339C178.505 141.453 178.379 141.596 178.285 141.76L170.293 155.588L172.782 157.022Z" fill="#E4E4E4"/>
<path d="M96.6237 286.018C97.8327 284.884 98.3848 283.59 97.9079 282.678C97.3143 281.55 95.3356 281.376 93.2362 282.17C93.343 281.897 93.444 281.615 93.535 281.324C94.6589 277.743 94.0158 274.353 92.1024 273.754C90.2345 273.161 87.8482 275.455 86.6887 278.89C85.729 274.957 83.2615 272.186 81.1483 272.681C79.1557 273.15 78.1802 276.35 78.8213 280.018C75.9047 278.732 73.0831 278.833 72.1927 280.384C71.2647 281.99 72.7111 284.596 75.4654 286.496C74.1595 286.933 73.2612 287.733 73.1385 288.735C72.9881 289.967 74.0447 291.18 75.7227 291.931C75.6297 292.156 75.6076 292.404 75.6594 292.642C75.8355 293.385 76.7773 293.843 78.0101 293.893H93.7704V293.879C94.0732 293.839 94.3007 293.711 94.3779 293.505C94.4012 293.432 94.4087 293.354 94.3998 293.277C94.391 293.2 94.366 293.126 94.3265 293.059C95.1456 292.98 95.761 292.664 95.9648 292.117C96.1211 291.696 96.0024 291.21 95.6759 290.734C97.803 290.592 99.4355 289.661 99.4909 288.464C99.5285 287.409 98.3412 286.451 96.6237 286.018Z" fill="#E4E4E4"/>
<path d="M129.386 279.414C131.61 277.326 132.627 274.945 131.761 273.268C130.674 271.192 127.043 270.874 123.167 272.336C123.365 271.831 123.548 271.312 123.717 270.777C125.783 264.191 124.604 257.96 121.082 256.86C117.649 255.785 113.26 259.985 111.127 266.297C109.36 259.062 104.825 253.963 100.936 254.878C97.2738 255.737 95.4811 261.623 96.6584 268.369C91.2942 265.998 86.1179 266.196 84.4696 269.045C82.762 271.996 85.4214 276.791 90.4888 280.283C88.0867 281.087 86.4345 282.557 86.2089 284.4C85.9299 286.666 87.875 288.899 90.9578 290.278C90.7865 290.692 90.7465 291.149 90.843 291.587C91.1636 292.952 92.8969 293.796 95.1625 293.885H124.141V293.859C124.699 293.786 125.114 293.551 125.257 293.174C125.3 293.038 125.314 292.894 125.298 292.752C125.282 292.611 125.235 292.474 125.162 292.352C126.669 292.206 127.803 291.611 128.175 290.617C128.464 289.845 128.246 288.95 127.645 288.075C131.559 287.812 134.57 286.099 134.661 283.899C134.75 281.968 132.552 280.214 129.386 279.414Z" fill="#F2F2F2"/>
<path d="M324.245 280.904C322.266 279.047 321.36 276.925 322.141 275.431C323.107 273.584 326.34 273.302 329.793 274.602C329.616 274.154 329.453 273.693 329.302 273.219C327.464 267.353 328.511 261.804 331.649 260.824C334.706 259.868 338.614 263.608 340.514 269.228C342.087 262.788 346.125 258.246 349.588 259.06C352.849 259.825 354.446 265.066 353.397 271.073C358.174 268.967 362.784 269.135 364.252 271.666C365.772 274.295 363.403 278.565 358.892 281.674C361.031 282.391 362.501 283.699 362.703 285.341C362.95 287.358 361.219 289.347 358.472 290.574C358.625 290.943 358.661 291.349 358.575 291.739C358.288 292.956 356.745 293.715 354.727 293.786H328.918V293.764C328.42 293.699 328.05 293.492 327.929 293.154C327.891 293.033 327.878 292.905 327.893 292.779C327.907 292.652 327.948 292.53 328.012 292.421C326.673 292.292 325.661 291.763 325.331 290.878C325.072 290.189 325.266 289.392 325.802 288.614C322.317 288.381 319.64 286.856 319.555 284.894C319.474 283.179 321.427 281.619 324.245 280.904Z" fill="#EAEAEA"/>
<path d="M353.7 288.606C352.908 287.856 352.534 286.998 352.851 286.396C353.247 285.649 354.547 285.534 355.942 286.06C355.871 285.878 355.803 285.69 355.744 285.499C355 283.128 355.425 280.888 356.692 280.491C357.926 280.106 359.505 281.615 360.273 283.887C360.908 281.285 362.541 279.45 363.94 279.778C365.258 280.088 365.903 282.206 365.479 284.632C367.408 283.782 369.272 283.841 369.864 284.875C370.479 285.937 369.522 287.662 367.699 288.918C368.564 289.209 369.158 289.736 369.239 290.4C369.34 291.216 368.645 292.018 367.529 292.514C367.591 292.663 367.605 292.828 367.571 292.986C367.456 293.478 366.833 293.776 366.017 293.812H355.588C355.506 293.81 355.426 293.786 355.356 293.742C355.286 293.699 355.23 293.638 355.192 293.565C355.177 293.516 355.172 293.465 355.178 293.414C355.183 293.363 355.2 293.315 355.225 293.271C354.683 293.217 354.276 293.004 354.143 292.646C354.099 292.489 354.094 292.324 354.128 292.164C354.163 292.005 354.236 291.856 354.341 291.732C352.932 291.637 351.852 291.02 351.816 290.228C351.773 289.525 352.562 288.895 353.7 288.606Z" fill="#E4E4E4"/>
<path d="M228.205 281.651C226.338 279.898 225.485 277.897 226.227 276.492C227.137 274.75 230.184 274.483 233.439 275.702C233.273 275.279 233.119 274.844 232.978 274.394C231.243 268.863 232.234 263.636 235.19 262.711C238.071 261.81 241.756 265.335 243.544 270.633C245.028 264.56 248.835 260.281 252.098 261.048C255.171 261.769 256.677 266.71 255.69 272.371C260.191 270.396 264.536 270.544 265.92 272.938C267.354 275.416 265.128 279.44 260.868 282.372C262.884 283.047 264.271 284.28 264.461 285.829C264.693 287.729 263.06 289.604 260.472 290.768C260.616 291.115 260.65 291.499 260.569 291.866C260.3 293.012 258.846 293.719 256.942 293.794H232.604V293.774C232.135 293.711 231.787 293.516 231.668 293.197C231.632 293.084 231.62 292.963 231.633 292.845C231.646 292.726 231.685 292.611 231.745 292.508C230.481 292.386 229.531 291.886 229.219 291.052C228.975 290.404 229.157 289.653 229.662 288.918C226.377 288.699 223.854 287.261 223.773 285.412C223.708 283.794 225.548 282.322 228.205 281.651Z" fill="#F2F2F2"/>
<path d="M255.215 286.919C254.157 285.931 253.674 284.795 254.091 283.997C254.608 283.009 256.333 282.859 258.175 283.555C258.083 283.314 257.996 283.067 257.914 282.814C256.925 279.683 257.493 276.719 259.169 276.196C260.799 275.686 262.887 277.681 263.9 280.682C264.741 277.243 266.898 274.819 268.746 275.254C270.487 275.662 271.34 278.462 270.78 281.668C273.33 280.544 275.79 280.633 276.573 281.988C277.387 283.393 276.122 285.672 273.712 287.322C274.854 287.705 275.639 288.403 275.746 289.28C275.879 290.356 274.955 291.417 273.489 292.073C273.57 292.27 273.589 292.487 273.544 292.695C273.39 293.345 272.567 293.746 271.49 293.788H257.708V293.776C257.598 293.776 257.491 293.746 257.397 293.688C257.303 293.631 257.228 293.548 257.178 293.45C257.157 293.385 257.15 293.316 257.157 293.248C257.165 293.179 257.188 293.114 257.224 293.055C256.507 292.986 255.967 292.703 255.791 292.231C255.653 291.864 255.757 291.441 256.042 291.022C254.182 290.898 252.752 290.084 252.708 289.047C252.667 288.134 253.709 287.3 255.215 286.919Z" fill="#E4E4E4"/>
<path d="M298.993 115.593C298.828 115.594 298.663 115.619 298.505 115.668C298.505 115.587 298.505 115.506 298.505 115.423C298.503 114.596 298.202 113.798 297.658 113.174C297.113 112.551 296.361 112.146 295.54 112.032C294.719 111.919 293.886 112.106 293.192 112.558C292.498 113.01 291.991 113.697 291.765 114.493C291.568 114.436 291.365 114.408 291.16 114.408C290.581 114.425 290.032 114.667 289.629 115.081C289.226 115.496 289 116.051 289 116.629C289 117.207 289.226 117.763 289.629 118.177C290.032 118.592 290.581 118.834 291.16 118.851H291.276H298.993C299.416 118.836 299.817 118.658 300.111 118.354C300.405 118.05 300.569 117.645 300.569 117.222C300.569 116.8 300.405 116.394 300.111 116.09C299.817 115.786 299.416 115.608 298.993 115.593V115.593Z" fill="#F2F2F2"/>
<path d="M276.829 64.2807C275.935 64.2805 275.058 64.5221 274.291 64.98C273.872 63.1792 272.799 61.5972 271.281 60.5392C269.762 59.4812 267.905 59.0223 266.067 59.251C265.075 57.0416 263.353 55.2389 261.19 54.1439C259.027 53.0488 256.553 52.7276 254.181 53.2339C251.81 53.7401 249.684 55.0432 248.158 56.9257C246.633 58.8081 245.8 61.156 245.799 63.5774C245.799 63.6386 245.799 63.7018 245.799 63.7631C245.058 63.4141 244.248 63.2359 243.428 63.2417C242.609 63.2475 241.801 63.4372 241.065 63.7967C240.329 64.1562 239.683 64.6764 239.175 65.3187C238.668 65.961 238.311 66.709 238.132 67.5075C237.953 68.3059 237.956 69.1343 238.141 69.9314C238.326 70.7285 238.688 71.4739 239.2 72.1125C239.713 72.7511 240.362 73.2665 241.101 73.6206C241.84 73.9747 242.649 74.1585 243.468 74.1583H276.829C278.141 74.1583 279.4 73.638 280.327 72.7117C281.255 71.7855 281.776 70.5293 281.776 69.2195C281.776 67.9096 281.255 66.6534 280.327 65.7272C279.4 64.801 278.141 64.2807 276.829 64.2807Z" fill="#F2F2F2"/>
<path d="M57.253 200.423C57.8412 200.422 58.4185 200.581 58.923 200.883C59.1747 199.8 59.7861 198.834 60.6578 198.143C61.5294 197.451 62.61 197.075 63.7234 197.074C63.9265 197.075 64.1293 197.089 64.3308 197.114C64.9833 195.66 66.1155 194.474 67.5384 193.753C68.9614 193.032 70.5889 192.821 72.1492 193.154C73.7096 193.487 75.1083 194.344 76.1119 195.582C77.1154 196.821 77.6631 198.366 77.6633 199.959V200.083C78.1429 199.855 78.6676 199.737 79.1988 199.737C80.138 199.759 81.0313 200.147 81.6878 200.818C82.3442 201.489 82.7117 202.39 82.7117 203.328C82.7117 204.266 82.3442 205.167 81.6878 205.837C81.0313 206.508 80.138 206.896 79.1988 206.918H57.253C56.8258 206.918 56.4028 206.834 56.0081 206.671C55.6135 206.508 55.2549 206.269 54.9528 205.967C54.6507 205.666 54.4111 205.308 54.2476 204.913C54.0841 204.519 54 204.097 54 203.671C54 203.244 54.0841 202.822 54.2476 202.428C54.4111 202.034 54.6507 201.676 54.9528 201.374C55.2549 201.073 55.6135 200.833 56.0081 200.67C56.4028 200.507 56.8258 200.423 57.253 200.423Z" fill="#F2F2F2"/>
<path d="M376.396 274.359L376.344 274.557C376.228 274.959 376.07 275.347 375.872 275.716C375.509 276.503 374.914 277.16 374.167 277.6C373.42 278.041 372.556 278.243 371.691 278.18C371.271 278.174 370.853 278.125 370.444 278.034L370.246 277.984L370.3 277.787C370.415 277.385 370.574 276.997 370.772 276.629C371.135 275.842 371.729 275.184 372.476 274.743C373.224 274.303 374.088 274.101 374.953 274.165C375.372 274.17 375.789 274.219 376.198 274.31L376.396 274.359ZM370.755 277.682C371.295 277.779 372.777 277.949 373.96 277.251C375.143 276.554 375.711 275.177 375.889 274.657C375.347 274.563 373.867 274.393 372.682 275.09C371.497 275.787 370.931 277.166 370.755 277.682Z" fill="#E4E4E4"/>
<path d="M373.579 279.084C371.697 279.793 369.6 278.855 369.6 278.855C369.6 278.855 370.553 276.767 372.437 276.06C374.321 275.352 376.416 276.289 376.416 276.289C376.416 276.289 375.453 278.377 373.579 279.084Z" fill="#F2F2F2"/>
<path d="M369.541 251.772V252.025C369.523 252.545 369.449 253.062 369.321 253.566C369.123 254.356 368.706 255.498 367.835 256.356C366.964 257.213 365.825 257.616 365.023 257.802C364.516 257.922 363.997 257.988 363.476 257.999H363.223V257.746C363.242 257.226 363.316 256.709 363.444 256.204C363.642 255.413 364.058 254.274 364.928 253.414C365.799 252.555 366.939 252.154 367.742 251.968C368.249 251.849 368.767 251.783 369.287 251.771L369.541 251.772ZM363.741 257.488C364.424 257.44 366.264 257.197 367.479 255.998C368.694 254.799 368.963 252.966 369.02 252.286C368.34 252.336 366.499 252.577 365.282 253.776C364.066 254.975 363.798 256.818 363.741 257.488Z" fill="#E4E4E4"/>
<path d="M367.567 258.33C365.509 259.754 362.693 259.256 362.693 259.256C362.693 259.256 363.214 256.449 365.266 255.024C367.318 253.6 370.139 254.098 370.139 254.098C370.139 254.098 369.623 256.905 367.567 258.33Z" fill="#F2F2F2"/>
<path d="M108.384 245.143L108.545 245.279C108.867 245.57 109.158 245.894 109.413 246.245C109.984 246.939 110.329 247.791 110.402 248.685C110.476 249.58 110.273 250.476 109.823 251.253C109.629 251.641 109.394 252.008 109.122 252.346L108.988 252.508L108.826 252.372C108.504 252.08 108.214 251.756 107.959 251.405C107.388 250.712 107.043 249.86 106.97 248.965C106.897 248.071 107.099 247.175 107.549 246.398C107.744 246.01 107.978 245.643 108.248 245.303L108.384 245.143ZM108.936 251.899C109.271 251.439 110.1 250.137 109.985 248.719C109.87 247.3 108.839 246.151 108.434 245.755C108.101 246.218 107.27 247.52 107.387 248.936C107.504 250.353 108.533 251.5 108.936 251.899V251.899Z" fill="#E4E4E4"/>
<path d="M111.523 249.904C111.325 251.978 109.506 253.507 109.506 253.507C109.506 253.507 107.989 251.672 108.179 249.599C108.369 247.527 110.193 245.996 110.193 245.996C110.193 245.996 111.711 247.837 111.523 249.904Z" fill="#F2F2F2"/>
<path d="M68.3457 269.1L68.5218 269.088C68.8868 269.073 69.2523 269.098 69.6121 269.161C70.3628 269.243 71.0706 269.552 71.6409 270.046C72.2112 270.54 72.6169 271.196 72.8037 271.927C72.9161 272.274 72.9905 272.632 73.0253 272.996L73.0392 273.171L72.8611 273.183C72.4962 273.198 72.1307 273.174 71.7708 273.112C71.0205 273.03 70.3131 272.721 69.7432 272.227C69.1733 271.733 68.7679 271.077 68.5812 270.346C68.4697 269.999 68.3947 269.641 68.3576 269.278L68.3457 269.1ZM72.6514 272.842C72.5821 272.369 72.315 271.099 71.4107 270.313C70.5064 269.527 69.2104 269.44 68.7315 269.436C68.8028 269.908 69.0699 271.178 69.9722 271.964C70.8745 272.751 72.1725 272.838 72.6514 272.842V272.842Z" fill="#E4E4E4"/>
<path d="M73.0382 270.131C74.1443 271.489 73.9444 273.48 73.9444 273.48C73.9444 273.48 71.9519 273.266 70.8478 271.899C69.7436 270.532 69.9415 268.541 69.9415 268.541C69.9415 268.541 71.9321 268.772 73.0382 270.131Z" fill="#F2F2F2"/>
<path d="M316.449 263.707H316.647C317.057 263.708 317.465 263.752 317.866 263.837C318.705 263.963 319.486 264.343 320.103 264.925C320.72 265.507 321.144 266.263 321.317 267.093C321.426 267.487 321.492 267.892 321.515 268.3V268.498H321.317C320.907 268.497 320.499 268.453 320.098 268.367C319.259 268.242 318.478 267.862 317.861 267.281C317.245 266.699 316.821 265.943 316.647 265.114C316.539 264.719 316.473 264.313 316.449 263.905V263.707ZM321.107 268.099C321.05 267.565 320.808 266.123 319.831 265.206C318.853 264.29 317.405 264.128 316.863 264.102C316.92 264.636 317.16 266.078 318.137 266.992C319.115 267.907 320.571 268.079 321.107 268.099Z" fill="#E4E4E4"/>
<path d="M321.663 265.076C322.85 266.656 322.525 268.871 322.525 268.871C322.525 268.871 320.301 268.541 319.124 266.968C317.947 265.396 318.263 263.171 318.263 263.171C318.263 263.171 320.485 263.501 321.663 265.076Z" fill="#F2F2F2"/>
<path d="M47.2206 159.37C44.1831 159.37 42.6647 155.98 42.6655 149.202C42.6655 148.683 42.7062 147.394 42.7877 145.334C42.8692 143.275 43.3182 139.998 44.1347 135.506C44.9496 131.014 46.0259 126.36 47.3636 121.544C48.7014 116.727 50.2297 112.033 51.9488 107.461C53.5271 103.195 55.359 99.0277 57.4346 94.9818C59.3766 91.2357 61.3605 88.1787 63.3863 85.811L58.8311 85.7624C49.0335 85.7624 40.1019 86.4921 32.0364 87.9515C31.4064 88.0702 30.7676 88.1356 30.1267 88.1471C29.6047 88.1471 29.2864 87.9846 29.1718 87.6597C29.059 87.348 29.0008 87.019 29 86.6873C29 85.001 30.3454 83.525 33.0362 82.2594C35.727 80.9937 39.6229 80.0714 44.724 79.4926C49.016 78.9924 53.334 78.7489 57.6549 78.7633C58.8626 78.7633 61.2794 78.8119 64.9051 78.9092C68.5307 79.0064 73.1266 79.4988 78.6928 80.3863C84.2605 81.2792 88.9709 82.5441 92.8242 84.181C96.6774 85.8179 99.0288 87.8052 99.8783 90.1429C99.9631 90.394 100.012 90.6559 100.025 90.9208C100.025 91.3422 99.8453 91.5529 99.4862 91.5529C98.8658 91.5529 98.0659 91.3599 97.0864 90.974C88.0686 88.4128 78.8102 86.7989 69.4602 86.1583C63.1245 97.7671 58.2587 109.725 54.8629 122.031C51.4671 134.338 49.2791 145.746 48.2989 156.257C48.1351 158.332 47.7757 159.37 47.2206 159.37Z" fill="#6F63DE"/>
<path d="M134.705 119.477C135.227 118.537 135.832 118.002 136.518 117.872C136.646 117.84 136.777 117.824 136.909 117.823C137.4 117.823 137.792 118.05 138.085 118.505C138.253 118.747 138.338 119.037 138.33 119.331C138.33 119.753 138.183 120.254 137.889 120.836C137.725 121.16 137.546 121.501 137.351 121.857C136.044 124.453 134.574 127.21 132.942 130.129C131.31 133.047 129.514 135.918 127.554 138.739C125.649 141.496 123.492 144.069 121.112 146.426C118.876 148.659 116.309 150.529 113.501 151.972C110.753 153.37 107.764 154.068 104.535 154.067C101.988 154.067 100.339 153.516 99.5878 152.413C99.0981 151.7 98.8532 150.857 98.8532 149.884C98.8532 149.3 99.0001 148.4 99.2938 147.184C99.5875 145.968 100.281 144.297 101.375 142.173C102.469 140.048 103.637 137.932 104.878 135.824C106.054 133.845 107.058 132.029 107.891 130.375C108.724 128.721 109.173 127.392 109.238 126.386V126.191C109.238 125.315 108.666 124.877 107.523 124.878C105.466 124.878 103.204 125.729 100.739 127.431C98.3512 129.064 96.1783 130.993 94.2716 133.172C92.4264 135.297 91.3078 137.089 90.9157 138.548C90.6543 139.521 90.0339 140.186 89.0545 140.543C88.5983 140.705 88.1177 140.787 87.6337 140.786C87.1724 140.786 86.5927 140.664 85.8947 140.421C85.1966 140.178 84.8456 139.456 84.8418 138.256C84.8418 133.813 85.4376 128.665 86.6293 122.81C87.8642 116.796 89.4429 110.859 91.3574 105.028C93.2011 99.3204 95.4098 93.7386 97.9699 88.3171C100.419 83.1764 102.926 79.0089 105.489 75.8146C108.052 72.6203 110.493 71.0227 112.81 71.022C113.692 71.022 114.132 71.2327 114.132 71.654C114.113 71.8266 114.08 71.9973 114.034 72.1646C113.968 72.4416 113.658 73.0336 113.103 73.9404C113.005 74.1036 112.907 74.2807 112.81 74.4752C108.956 81.4812 105.372 89.7031 102.058 99.141C98.7437 108.579 96.0087 117.498 93.8529 125.9C96.2078 123.208 98.7225 121.052 101.397 119.431C104.072 117.81 107.06 117 110.361 117C114.116 117 116.615 117.6 117.857 118.8C118.3 119.227 118.651 119.741 118.887 120.31C119.123 120.879 119.24 121.491 119.229 122.107C119.229 122.563 119.107 123.406 118.861 124.638C118.616 125.87 117.815 127.645 116.459 129.965C115.105 132.281 113.627 134.607 112.026 136.946C110.916 138.597 109.904 140.168 108.989 141.657C108.074 143.147 107.405 144.459 106.981 145.593C106.769 146.12 106.652 146.68 106.635 147.248C106.649 147.72 106.783 148.18 107.026 148.585C107.287 149.06 108.138 149.298 109.577 149.298C111.667 149.298 113.83 148.398 116.067 146.597C118.304 144.797 120.525 142.437 122.729 139.519C125.034 136.447 127.152 133.239 129.072 129.911C131.097 126.426 132.975 122.948 134.705 119.477Z" fill="#6F63DE"/>
<path d="M156.405 146.332C154.543 146.332 153.172 145.457 152.29 143.706C151.244 141.662 150.722 138.743 150.722 134.948C150.727 132.929 150.875 130.914 151.163 128.916L150.085 130.768C149.334 132.034 148.289 133.477 146.951 135.097C145.601 136.729 144.045 138.177 142.322 139.404C140.574 140.652 138.688 141.276 136.664 141.277C134.313 141.277 132.615 140.547 131.57 139.087C130.526 137.626 130.003 135.68 130.002 133.249C130.002 131.043 130.41 128.684 131.227 126.171C132.048 123.645 133.184 121.234 134.607 118.994C136.044 116.723 137.677 114.858 139.506 113.399C141.335 111.939 143.245 111.21 145.236 111.212C146.999 111.212 148.476 111.521 149.669 112.138C150.861 112.755 151.808 113.459 152.508 114.247C153.209 115.042 153.723 115.748 154.051 116.363L154.491 117.29C155.601 114.987 156.744 113.836 157.92 113.835C159.422 113.835 160.541 114.038 161.276 114.443C162.011 114.848 162.492 115.311 162.721 115.832C162.951 116.352 163.067 116.774 163.067 117.097C163.067 117.519 162.544 119.205 161.499 122.156C160.845 124.071 160.159 126.147 159.442 128.384C157.712 133.899 156.814 137.823 156.748 140.157C156.748 141.52 157.107 142.201 157.825 142.201C158.838 142.201 160.348 141.082 162.356 138.844C164.56 136.362 166.628 133.764 168.554 131.06C170.676 128.109 172.521 125.458 174.089 123.105C175.657 120.753 176.572 119.359 176.832 118.922C176.948 118.714 177.12 118.542 177.327 118.426C177.535 118.31 177.77 118.254 178.008 118.264C178.715 118.248 179.401 118.51 179.918 118.995C180.041 119.094 180.14 119.22 180.208 119.363C180.276 119.506 180.311 119.663 180.311 119.821C180.311 120.082 179.592 121.379 178.155 123.713C175.224 128.619 171.916 133.288 168.261 137.677C163.36 143.448 159.408 146.333 156.405 146.332ZM138.819 137.576C139.831 137.576 141.129 136.749 142.714 135.094C144.404 133.31 145.975 131.415 147.415 129.422C148.965 127.302 150.263 125.399 151.31 123.714L152.924 121.234L152.68 120.407C152.47 119.743 152.199 119.1 151.872 118.485C151.498 117.756 151.001 117.097 150.403 116.537C149.799 115.97 149.04 115.686 148.126 115.685C146.885 115.685 145.636 116.431 144.379 117.923C143.122 119.415 141.979 121.239 140.95 123.396C139.949 125.481 139.122 127.645 138.477 129.867C137.856 132.024 137.545 133.848 137.546 135.339C137.547 136.83 137.971 137.576 138.819 137.576Z" fill="#6F63DE"/>
<path d="M177.026 149.495C175.489 149.398 174.354 148.011 173.622 145.335C172.89 142.66 172.523 139.425 172.52 135.63C172.52 135.468 172.536 134.349 172.569 132.273C172.602 130.197 173.059 127.156 173.94 123.151C174.821 119.145 176.144 115.788 177.907 113.079C179.671 110.37 181.891 108.968 184.567 108.871C185.743 108.937 186.526 109.375 186.918 110.185C187.045 110.46 187.112 110.759 187.114 111.061C187.114 111.645 186.853 112.293 186.33 113.007C182.542 117.869 179.897 124.048 178.395 131.542C179.994 126.645 181.937 122.656 184.225 119.575C187.195 115.521 190.64 113.494 194.56 113.494C200.172 113.494 202.98 116.851 202.985 123.565V125.316C202.952 127.198 202.429 130.571 201.418 135.437C200.763 138.581 200.437 140.627 200.437 141.572C200.437 142.48 200.699 142.933 201.222 142.933C202.397 142.933 205.254 138.555 209.793 129.799C210.544 128.404 212.372 124.803 215.279 118.998C215.867 117.995 216.602 117.493 217.484 117.493C217.742 117.486 217.997 117.551 218.22 117.679C218.444 117.808 218.628 117.996 218.753 118.222C218.894 118.457 218.962 118.728 218.949 119.002C218.949 119.52 218.753 120.185 218.361 120.996L217.136 123.427C214.132 129.524 211.618 134.292 209.593 137.731C206.033 143.828 203.372 146.876 201.608 146.876C200.205 146.876 199.144 146.479 198.425 145.685C197.706 144.891 197.216 143.845 196.955 142.547C196.68 141.104 196.548 139.637 196.563 138.169C196.563 136.579 196.62 134.941 196.735 133.254C196.849 131.568 196.906 129.979 196.906 128.487C196.906 128.101 196.898 127.355 196.882 126.25C196.866 125.144 196.58 124.008 196.024 122.844C195.468 121.676 194.456 121.092 192.988 121.092C191.257 121.092 189.643 121.66 188.144 122.795C185.499 124.838 182.984 128.049 180.6 132.428C179.293 134.795 178.232 136.806 177.417 138.46C177.32 139.791 177.27 141.121 177.27 142.45C177.27 144.719 177.368 146.487 177.564 147.753C177.651 148.07 177.7 148.396 177.71 148.725C177.707 148.889 177.691 149.052 177.662 149.212C177.629 149.398 177.417 149.495 177.026 149.495Z" fill="#6F63DE"/>
<path d="M249.473 121.229C250.061 120.158 250.715 119.591 251.433 119.526H251.727C252.013 119.516 252.297 119.578 252.554 119.705C252.81 119.832 253.031 120.021 253.197 120.255C253.391 120.542 253.494 120.882 253.491 121.229C253.475 121.649 253.374 122.061 253.196 122.441L251.971 124.872C250.762 127.273 249.417 129.827 247.935 132.534C246.484 135.189 244.866 137.748 243.091 140.197C241.344 142.598 239.474 144.568 237.482 146.108C235.49 147.647 233.384 148.419 231.164 148.423C228.649 148.423 226.543 147.799 224.845 146.55C223.129 145.281 221.736 143.622 220.779 141.71C219.748 139.688 219.018 137.525 218.613 135.291C218.059 138.957 217.618 142.476 217.292 145.848C217.214 146.601 217.091 147.348 216.924 148.086C216.778 148.703 216.525 149.012 216.165 149.012C214.433 149.012 213.208 147.893 212.491 145.655C211.936 143.838 211.658 141.535 211.658 138.746C211.658 138.066 211.699 136.606 211.78 134.368C211.862 132.13 212.336 128.676 213.201 124.005C214.066 119.335 215.201 114.503 216.605 109.508C218.01 104.513 219.593 99.671 221.356 94.9818C223.118 90.2957 224.996 86.0792 226.989 82.3323C228.982 78.5854 231.007 75.5937 233.064 73.3571C235.121 71.119 237.113 70 239.04 70C239.886 70 240.308 70.1929 240.308 70.5788C240.294 70.7587 240.269 70.9377 240.235 71.1148C240.186 71.4065 239.884 72.0066 239.329 72.9149C239.231 73.077 239.133 73.2553 239.035 73.4498C234.78 81.021 231.167 88.9382 228.234 97.1176C225.386 105.013 223.036 113.081 221.2 121.273C222.852 119.375 224.785 117.742 226.93 116.432C229.118 115.086 231.225 114.413 233.25 114.413C235.24 114.413 236.366 114.753 236.629 115.435C236.692 115.589 236.726 115.754 236.727 115.921C236.727 116.505 236.368 117.242 235.649 118.135C234.931 119.027 233.862 120.057 232.441 121.224C231.021 122.393 229.567 123.487 228.081 124.508C226.595 125.53 225.33 126.365 224.286 127.014L222.717 128.036C222.717 131.895 223.134 135.059 223.966 137.528C224.799 139.998 225.875 141.822 227.195 143.001C228.518 144.185 229.897 144.777 231.334 144.776C232.641 144.776 234.119 143.982 235.767 142.393C237.415 140.804 239.081 138.793 240.764 136.36C242.445 133.929 244.037 131.366 245.539 128.674C247.042 125.981 248.353 123.499 249.473 121.229Z" fill="#6F63DE"/>
<path d="M276.608 191.529C275.777 191.524 274.964 191.289 274.258 190.848C270.895 188.317 269.213 180.079 269.213 166.134C269.213 161.819 269.311 158.819 269.506 157.133C269.702 155.674 270.339 154.944 271.417 154.944C271.846 154.957 272.258 155.11 272.592 155.381C273.18 155.767 273.474 156.513 273.474 157.619V157.814C273.213 160.604 273.083 164.528 273.082 169.588C273.082 173.061 273.253 176.734 273.596 180.606C273.939 184.479 274.764 186.985 276.07 188.123H276.168C276.984 188.123 278.576 185.318 280.943 179.707C283.31 174.096 285.899 166.896 288.708 158.105C291.516 149.317 293.899 140.43 295.858 131.445C287.661 143.121 281.521 148.959 277.44 148.96C276.069 148.96 274.975 147.971 274.159 145.992C272.983 143.268 272.395 139.586 272.395 134.948C272.395 129.11 273.26 123.727 274.992 118.797C277.408 111.791 280.886 108.288 285.425 108.288C286.698 108.288 287.563 108.693 288.021 109.504C288.177 109.77 288.262 110.071 288.266 110.379C288.266 110.997 287.972 111.662 287.384 112.374C284.25 116.137 281.555 122.658 279.301 131.938C277.864 137.776 277.146 141.992 277.147 144.586C277.147 145.334 277.245 145.707 277.44 145.706C279.628 145.706 283.334 142.138 288.559 135.002C292.216 130.008 295.138 125.678 297.323 122.013L297.716 120.261C297.946 119.127 298.142 117.586 298.304 115.64L298.352 115.105C298.418 113.288 298.728 112.38 299.283 112.38C299.545 112.38 299.871 112.511 300.263 112.77C302.581 114.489 303.74 118.283 303.741 124.153C303.741 128.402 303.177 133.511 302.05 139.479C300.923 145.447 299.266 151.755 297.079 158.404C294.892 165.052 292.467 171.092 289.805 176.526C287.142 181.959 284.456 186.037 281.747 188.761C279.921 190.607 278.208 191.529 276.608 191.529Z" fill="#6F63DE"/>
<path d="M318.147 145.941C315.047 145.941 312.612 145.18 310.844 143.657C308.068 141.257 306.68 137.707 306.68 133.007C306.68 132.067 306.81 130.664 307.072 128.799C307.333 126.934 308.052 124.759 309.229 122.276C310.405 119.794 311.923 117.71 313.785 116.024C315.646 114.339 317.752 113.35 320.104 113.057C320.648 111.179 321.719 109.498 323.19 108.216C324.659 106.936 326.569 106.295 328.92 106.294C333.525 106.294 336.545 108.451 337.982 112.766C338.57 114.452 338.865 116.333 338.865 118.408C338.865 118.734 338.848 119.577 338.815 120.939C338.782 122.3 338.39 124.246 337.64 126.777C340.091 125.674 342.883 123.534 346.017 120.357C346.572 119.839 347.062 119.579 347.486 119.578C347.616 119.578 347.846 119.659 348.172 119.821C348.629 120.082 348.859 120.617 348.864 121.427C348.878 121.772 348.765 122.11 348.546 122.376L347.884 123.13C346.643 124.427 345.084 125.798 343.206 127.241C341.329 128.684 339.035 129.762 336.324 130.476C335.18 133.17 333.708 135.711 331.942 138.041C330.163 140.394 328.105 142.299 325.77 143.758C323.488 145.201 320.844 145.958 318.147 145.941ZM319.224 141.658C321.056 141.665 322.853 141.16 324.414 140.198C326.068 139.176 327.522 137.857 328.7 136.306C329.978 134.648 331.04 132.834 331.86 130.906C328.725 130.744 326.186 129.82 324.243 128.133C322.338 126.502 320.938 124.358 320.207 121.954C318.538 123.09 317.091 124.525 315.94 126.187C313.85 129.142 312.804 132.094 312.804 135.045C312.83 135.771 312.903 136.494 313.025 137.21C313.171 138.2 313.751 139.189 314.764 140.178C315.776 141.168 317.263 141.661 319.224 141.658ZM332.939 127.986C333.724 125.456 334.116 123.04 334.116 120.738V118.7C334.116 117.434 333.626 116.015 332.645 114.442C331.665 112.869 330.147 112.083 328.09 112.083C326.752 112.083 325.756 112.65 325.102 113.786C326.473 114.308 327.76 115.029 328.923 115.926C329.837 116.672 330.441 117.386 330.736 118.066C330.824 118.334 330.873 118.613 330.882 118.894C330.854 119.101 330.805 119.305 330.736 119.502C330.695 119.635 330.628 119.759 330.54 119.867L330.441 120.012C329.454 119.724 328.432 119.577 327.404 119.575C326.392 119.575 325.386 119.722 324.416 120.012C324.788 122.08 325.73 124.002 327.135 125.559C328.556 127.148 330.491 127.959 332.939 127.991V127.986Z" fill="#6F63DE"/>
<path d="M351.897 147.013C349.774 147.013 348.076 146.17 346.803 144.483C344.651 141.628 343.574 137.606 343.574 132.419C343.574 131.479 343.648 130.012 343.794 128.02C343.941 126.027 344.488 123.708 345.435 121.062C346.383 118.42 347.665 116.246 349.281 114.542C350.898 112.838 352.833 111.987 355.085 111.989C356.228 111.989 357.012 112.41 357.437 113.254C357.592 113.519 357.677 113.821 357.681 114.129C357.681 114.713 357.404 115.362 356.849 116.075C354.137 119.481 351.802 123.713 349.844 128.773C348.368 132.533 347.63 135.662 347.63 138.159C347.639 139.154 347.813 140.14 348.144 141.078C348.487 142.081 349.459 142.583 351.059 142.583C352.985 142.583 355.679 140.231 359.141 135.528C361.555 132.224 363.748 128.762 365.704 125.166C366.062 121.76 366.65 118.712 367.467 116.021C369.198 110.117 372.105 107.166 376.187 107.167C377.362 107.167 378.162 107.572 378.587 108.383C378.713 108.657 378.78 108.956 378.783 109.259C378.783 109.876 378.522 110.541 378 111.253C375.092 115.048 372.79 121.227 371.093 129.79C370.113 134.622 369.623 138.319 369.623 140.881C369.623 141.92 369.738 142.439 369.969 142.438C371.895 142.438 375.176 138.888 379.814 131.788C383.243 126.533 385.822 122.187 387.553 118.749C388.206 117.71 388.891 117.191 389.61 117.192C390.065 117.207 390.497 117.398 390.817 117.724C391.136 118.05 391.318 118.487 391.325 118.944C391.31 119.454 391.176 119.954 390.933 120.403C387.373 126.886 383.813 132.497 380.254 137.235C375.976 142.879 372.547 145.701 369.969 145.701C368.564 145.701 367.47 144.509 366.687 142.125C365.903 139.741 365.462 136.782 365.364 133.246C363.863 135.776 362.41 138.078 361.007 140.153C359.604 142.227 358.159 143.89 356.671 145.14C355.185 146.388 353.594 147.013 351.897 147.013Z" fill="#6F63DE"/>
<path d="M396.207 141.115C398.111 141.115 399.529 141.608 400.461 142.593C401.394 143.579 401.86 144.702 401.86 145.962C401.86 147.224 401.384 148.347 400.432 149.331C399.481 150.315 398.072 150.807 396.207 150.809C394.302 150.809 392.874 150.316 391.922 149.331C390.97 148.345 390.494 147.222 390.494 145.962C390.494 144.702 390.97 143.579 391.922 142.593C392.874 141.608 394.302 141.115 396.207 141.115ZM406.681 70.0117C409.813 70.2085 411.916 72.5331 412.989 76.9853C413.662 79.8223 413.999 83.1127 414 86.8565C414 89.0637 413.782 92.5312 413.346 97.259C412.91 101.987 411.71 107.986 409.746 115.257C407.781 122.527 405.331 129.058 402.395 134.85C401.523 136.426 400.61 137.294 399.659 137.451C399.482 137.488 399.303 137.508 399.122 137.51C398.813 137.521 398.505 137.457 398.225 137.323C397.946 137.189 397.702 136.99 397.516 136.741C397.159 136.308 396.98 135.875 396.981 135.441C396.983 135.156 397.043 134.874 397.159 134.614C399.935 128.073 401.602 121.453 402.158 114.754C402.634 109.435 402.872 104.036 402.872 98.559C402.872 97.102 402.852 95.6441 402.813 94.1855C402.772 92.4104 402.752 90.6176 402.753 88.8071C402.753 84.3147 402.892 79.7833 403.169 75.213C403.226 74.5062 403.336 73.8046 403.497 73.1142C403.662 72.3348 404.008 71.6058 404.508 70.9864C405.004 70.3768 405.728 70.0519 406.681 70.0117Z" fill="#6F63DE"/>
<path d="M126.552 215.534L128.437 216.846L130.685 218.435L132.112 219.438L133.727 220.48L137.482 222.904C138.922 223.732 140.446 224.659 142.084 225.631C142.887 226.135 143.775 226.586 144.671 227.067L147.439 228.549C148.375 229.067 149.369 229.552 150.388 230.045L153.5 231.568C154.543 232.109 155.687 232.543 156.808 233.049L160.262 234.543L163.907 235.953L165.765 236.68C166.39 236.923 167.043 237.122 167.687 237.348L171.607 238.696C172.938 239.134 174.313 239.514 175.685 239.933L177.76 240.553C178.456 240.756 179.171 240.924 179.881 241.11L184.19 242.225C190.041 243.543 196.146 244.665 202.422 245.43C208.778 246.142 215.168 246.52 221.564 246.561C227.961 246.524 234.352 246.152 240.709 245.446C246.84 244.689 252.929 243.626 258.951 242.26L263.261 241.156C263.971 240.97 264.689 240.806 265.384 240.598L267.46 239.98C268.833 239.563 270.211 239.186 271.543 238.75L275.468 237.405C276.112 237.18 276.766 236.981 277.392 236.74L279.254 236.016L282.903 234.608L286.363 233.121C287.487 232.618 288.632 232.186 289.677 231.645C293.946 229.614 297.784 227.61 301.116 225.724C302.759 224.754 304.285 223.828 305.729 223.002L309.54 220.548L311.176 219.493L312.575 218.516L314.785 216.968L316.643 215.685L316.752 215.609C317.876 214.834 319.52 214.987 320.424 215.953C321.238 216.822 321.174 218.052 320.331 218.856L318.683 220.435L316.684 222.324C316.287 222.695 315.87 223.102 315.407 223.52L313.875 224.802L310.281 227.8C308.921 228.842 307.412 229.937 305.813 231.121C305.025 231.729 304.152 232.288 303.268 232.882L300.529 234.708C299.606 235.359 298.593 235.935 297.562 236.538L294.398 238.396C293.335 239.047 292.166 239.604 291.017 240.226L287.467 242.084L283.679 243.836L281.735 244.729C281.08 245.027 280.398 245.286 279.722 245.565L275.592 247.225C274.186 247.764 272.725 248.247 271.266 248.766L269.059 249.538C268.317 249.79 267.551 249.996 266.792 250.228L262.174 251.599C259.018 252.378 255.827 253.252 252.515 253.858L250.035 254.358L248.788 254.606L247.528 254.806L242.447 255.585C235.522 256.479 228.549 256.951 221.566 257C214.582 256.958 207.608 256.492 200.681 255.606L195.598 254.83L194.337 254.632L193.09 254.385L190.608 253.889C187.294 253.291 184.103 252.414 180.944 251.64L176.323 250.276C175.563 250.042 174.795 249.841 174.053 249.585L171.843 248.816C170.383 248.297 168.924 247.819 167.513 247.282L163.373 245.621C162.697 245.342 162.013 245.084 161.358 244.784L159.411 243.895L155.619 242.144L152.059 240.291C150.908 239.668 149.737 239.12 148.672 238.466L145.501 236.614L143.972 235.72C143.465 235.429 143.006 235.092 142.53 234.791L139.785 232.968C138.897 232.375 138.022 231.818 137.233 231.211C135.628 230.026 134.119 228.933 132.754 227.894L129.1 224.866L127.547 223.571C127.09 223.158 126.686 222.764 126.297 222.401L124.336 220.552L122.715 219.001C121.685 218.016 121.778 216.501 122.927 215.617C123.966 214.814 125.509 214.804 126.552 215.534Z" fill="#6F63DE"/>
<path d="M324.575 224.39C324.575 224.39 324.339 224.049 324.009 223.447L323.752 222.95C323.638 222.805 323.535 222.652 323.418 222.494C323.195 222.178 322.985 221.845 322.68 221.447C322.538 221.254 322.413 221.051 322.271 220.849C322.103 220.656 321.954 220.449 321.793 220.246C321.513 219.822 321.101 219.44 320.793 219.009C320.393 218.623 320.069 218.187 319.649 217.804C319.276 217.393 318.832 217.032 318.429 216.633C317.985 216.276 317.571 215.889 317.111 215.555C316.678 215.188 316.197 214.896 315.761 214.546C315.279 214.275 314.852 213.908 314.379 213.664C314.153 213.522 313.926 213.388 313.708 213.242L313.043 212.88C312.617 212.613 312.197 212.417 311.816 212.219C311.629 212.113 311.443 212.026 311.274 211.922C311.099 211.841 310.939 211.766 310.794 211.698C310.205 211.408 309.839 211.195 309.839 211.195L309.669 211.098C308.988 210.702 308.795 209.888 309.237 209.278C309.394 209.068 309.601 208.906 309.839 208.807C310.231 208.65 310.632 208.515 311.039 208.402C311.235 208.343 311.454 208.289 311.692 208.23C311.929 208.171 312.192 208.155 312.475 208.114C313.111 208.02 313.754 207.984 314.397 208.006C314.751 208.014 315.121 208.035 315.509 208.056C315.887 208.106 316.277 208.174 316.683 208.24C317.504 208.356 318.312 208.643 319.17 208.915C319.583 209.078 319.991 209.27 320.408 209.46C320.828 209.646 321.233 209.867 321.619 210.12C322.439 210.571 323.143 211.181 323.867 211.76C324.512 212.413 325.18 213.049 325.679 213.786C325.952 214.126 326.196 214.491 326.406 214.876C326.619 215.249 326.824 215.618 327.005 215.987C327.305 216.759 327.619 217.481 327.744 218.216C327.815 218.579 327.891 218.928 327.941 219.267C327.963 219.614 327.987 219.943 327.991 220.263C327.995 220.583 328.016 220.866 327.977 221.18C327.938 221.493 327.916 221.772 327.871 222.038C327.825 222.305 327.789 222.547 327.738 222.769C327.67 222.962 327.606 223.132 327.539 223.29C327.278 223.919 327.081 224.28 327.081 224.28C326.733 224.917 325.875 225.181 325.163 224.869C324.929 224.768 324.726 224.602 324.575 224.39Z" fill="#6F63DE"/>
<path d="M115.915 224.281C115.915 224.281 115.718 223.92 115.457 223.291C115.39 223.133 115.326 222.962 115.257 222.77C115.206 222.548 115.17 222.305 115.125 222.039C115.08 221.774 115.053 221.487 115.019 221.18C114.984 220.874 115.009 220.588 115.005 220.264C115 219.94 115.033 219.615 115.054 219.268C115.104 218.929 115.181 218.58 115.252 218.216C115.377 217.481 115.691 216.757 115.991 215.988C116.172 215.618 116.377 215.249 116.591 214.876C116.8 214.491 117.044 214.126 117.318 213.787C117.816 213.051 118.485 212.415 119.13 211.761C119.854 211.182 120.558 210.572 121.377 210.12C121.764 209.867 122.169 209.646 122.59 209.46C123.007 209.267 123.415 209.074 123.828 208.915C124.686 208.642 125.494 208.356 126.315 208.24C126.721 208.174 127.111 208.106 127.489 208.056C127.877 208.035 128.247 208.014 128.603 208.006C129.245 207.984 129.888 208.02 130.524 208.114C130.804 208.155 131.068 208.185 131.308 208.23C131.547 208.275 131.767 208.343 131.96 208.402C132.367 208.515 132.768 208.65 133.161 208.807C133.894 209.119 134.205 209.903 133.858 210.559C133.735 210.785 133.555 210.97 133.336 211.096L133.161 211.197C133.161 211.197 132.795 211.411 132.206 211.7L131.725 211.925C131.557 212.021 131.374 212.118 131.184 212.221C130.802 212.42 130.382 212.615 129.956 212.883L129.291 213.244C129.073 213.39 128.846 213.524 128.619 213.666C128.147 213.91 127.72 214.277 127.239 214.548C126.802 214.898 126.32 215.191 125.887 215.557C125.427 215.891 125.013 216.278 124.568 216.636C124.165 217.031 123.729 217.395 123.349 217.806C122.929 218.192 122.603 218.624 122.204 219.011C121.897 219.443 121.481 219.825 121.204 220.248C121.043 220.452 120.895 220.657 120.727 220.851C120.585 221.054 120.46 221.257 120.316 221.45C120.012 221.848 119.802 222.181 119.578 222.497C119.461 222.655 119.358 222.808 119.244 222.953L118.986 223.45C118.656 224.052 118.419 224.393 118.419 224.393C118.001 224.996 117.114 225.181 116.444 224.806C116.224 224.686 116.04 224.504 115.915 224.281Z" fill="#6F63DE"/>
</svg>
