<svg width="196" height="73" viewBox="0 0 196 73" fill="none" xmlns="http://www.w3.org/2000/svg">
<rect width="196" height="73" fill=""/>
<g clip-path="url(#clip0_4385_1255)">
<path d="M36.0742 48.0351C35.9838 48.0382 35.8944 48.0145 35.8176 47.9668C35.7409 47.9192 35.6802 47.8499 35.6434 47.7678C35.6065 47.6857 35.5952 47.5945 35.6109 47.506C35.6266 47.4175 35.6686 47.3356 35.7314 47.271C35.7943 47.2063 35.8752 47.1617 35.9637 47.143C36.0522 47.1243 36.1444 47.1322 36.2283 47.1659C36.3123 47.1995 36.3842 47.2573 36.4348 47.3318C36.4855 47.4063 36.5126 47.4941 36.5126 47.584C36.5146 47.7015 36.4696 47.815 36.3874 47.8995C36.3052 47.9841 36.1926 48.0328 36.0742 48.0351ZM36.0742 46.3288C35.9077 46.3291 35.743 46.3638 35.5908 46.4308C35.4385 46.4978 35.302 46.5957 35.19 46.7181C35.0876 46.8241 35.0049 46.9473 34.9458 47.0819C34.879 47.2405 34.8445 47.4108 34.8444 47.5827C34.8438 47.7905 34.8941 47.9953 34.991 48.1794C35.0641 48.3179 35.1632 48.4414 35.2829 48.5432C35.4998 48.733 35.779 48.8378 36.0681 48.8379C36.3967 48.8277 36.7084 48.691 36.9372 48.4566C37.1661 48.2222 37.294 47.9086 37.294 47.5821C37.294 47.2557 37.1661 46.9421 36.9372 46.7077C36.7084 46.4733 36.3967 46.3365 36.0681 46.3264" fill="white"/>
<path d="M38.5802 50.7139C38.4898 50.711 38.4005 50.735 38.3238 50.7828C38.2472 50.8307 38.1867 50.9001 38.1501 50.9824C38.1135 51.0646 38.1024 51.1557 38.1184 51.2442C38.1343 51.3327 38.1765 51.4144 38.2395 51.479C38.3026 51.5435 38.3836 51.5878 38.4722 51.6063C38.5608 51.6248 38.6529 51.6165 38.7367 51.5827C38.8206 51.5488 38.8923 51.4909 38.9428 51.4162C38.9932 51.3416 39.0201 51.2537 39.0199 51.1638C39.0209 51.1056 39.0102 51.0477 38.9887 50.9936C38.9671 50.9394 38.9349 50.8901 38.8941 50.8483C38.8533 50.8065 38.8045 50.7731 38.7506 50.75C38.6968 50.727 38.6389 50.7147 38.5802 50.7139ZM38.5802 52.4202C38.3283 52.4289 38.0795 52.3626 37.8658 52.23C37.652 52.0973 37.483 51.9043 37.3805 51.6756C37.2779 51.447 37.2465 51.1931 37.2903 50.9466C37.334 50.7001 37.4509 50.4721 37.626 50.2921C37.801 50.112 38.0263 49.9879 38.2728 49.9358C38.5194 49.8837 38.776 49.9058 39.0097 49.9995C39.2435 50.0932 39.4438 50.2541 39.5848 50.4615C39.7259 50.669 39.8013 50.9135 39.8015 51.1638C39.8067 51.4911 39.6811 51.807 39.4522 52.0425C39.2233 52.278 38.9098 52.4138 38.5802 52.4202Z" fill="white"/>
<path d="M26.2871 24.3186L24.7875 23.3254L22.9947 22.1321L21.495 21.1365V50.167H19.966V32.6752L14.8807 29.3003V50.167H13.2662V25.2026L8.1504 28.8407L8.16994 42.8654V45.2653L8.17605 50.0481H0.998779V51.6489H9.68917V46.2767V44.2794L9.68185 29.6774L11.769 28.2222V51.7059H16.3865V32.1064L18.4626 33.4938V50.167V51.7059H22.9922V23.9705L24.785 25.1602V51.7071H26.2871V50.167V24.3186Z" fill="white"/>
<path d="M16.3963 17.0012C7.90741 17.0012 1.02691 24.0663 1.02691 32.7819C1.01225 36.6948 2.44011 40.4778 5.04114 43.4172C5.6214 44.0707 6.25582 44.6747 6.93774 45.2229V44.3897V42.1075V41.2707L6.93042 41.2586C5.61692 39.0186 4.92812 36.4715 4.9349 33.8794C4.9349 25.9848 11.1633 19.5842 18.8571 19.5842C23.2829 19.5842 27.2263 21.7052 29.7763 25.011C27.1335 20.2282 22.1325 17.0012 16.3963 17.0012Z" fill="white"/>
<path d="M36.0742 54.2938C36.1647 54.2906 36.2541 54.3144 36.3308 54.362C36.4076 54.4096 36.4683 54.4789 36.5051 54.561C36.5419 54.6431 36.5532 54.7343 36.5375 54.8228C36.5218 54.9113 36.4799 54.9932 36.417 55.0579C36.3542 55.1226 36.2733 55.1671 36.1848 55.1858C36.0962 55.2046 36.0041 55.1966 35.9201 55.163C35.8362 55.1293 35.7643 55.0716 35.7136 54.9971C35.663 54.9226 35.6359 54.8348 35.6358 54.7449C35.6339 54.6274 35.6789 54.5139 35.7611 54.4293C35.8433 54.3447 35.9559 54.296 36.0742 54.2938ZM37.5507 50.6217H30.9951L33.3997 48.1806H34.9971C35.0703 48.3192 35.1693 48.4426 35.289 48.5444H35.5528V46.7181H35.1864C35.084 46.8241 35.0013 46.9473 34.9421 47.0819H32.9601L29.9546 50.1367L29.6981 50.3938L29.4734 50.6217H26.2896V51.7071H29.4758L29.7006 51.9351L29.9546 52.1922L32.9601 55.2445H34.9495C35.0063 55.3786 35.0865 55.5018 35.1864 55.6083C35.2985 55.731 35.4351 55.8292 35.5876 55.8964C35.74 55.9636 35.905 55.9985 36.0718 55.9988C36.4004 55.9887 36.7121 55.8519 36.9409 55.6175C37.1697 55.3831 37.2977 55.0695 37.2977 54.7431C37.2977 54.4166 37.1697 54.103 36.9409 53.8686C36.7121 53.6342 36.4004 53.4975 36.0718 53.4873C35.7829 53.4875 35.5039 53.5918 35.2865 53.7808C35.1673 53.883 35.0683 54.0064 34.9947 54.1446H33.3997L30.9951 51.7035H37.5507V50.6217Z" fill="white"/>
<path d="M186.742 39.3146V43.074H190.143C191.565 43.074 192.174 42.1329 192.174 41.1919C192.174 40.2508 191.548 39.3146 190.143 39.3146H186.742ZM195 49.0089H192.344L188.891 45.0773H186.742V49.004H184.508V37.2264C186.387 37.2264 188.265 37.2434 190.143 37.2434C192.935 37.2603 194.408 39.1085 194.408 41.1409C194.408 42.7538 193.663 44.3837 191.412 44.8372L195 48.8536V49.0089Z" fill="white"/>
<path d="M176.794 49.0161V44.266H170.973V49.0161H168.74V37.2531H170.973V42.2093H176.794V37.2604H179.01V49.0234L176.794 49.0161Z" fill="white"/>
<path d="M156.133 43.5105H159.484C162.343 43.5105 162.327 39.3437 159.484 39.3437H156.133V43.5105ZM159.484 45.543H156.133V49.004H153.899V37.2409C155.76 37.2409 157.621 37.224 159.483 37.224C165.269 37.224 165.286 45.5406 159.483 45.5406" fill="white"/>
<path d="M146.641 40.0823C146.236 39.4104 145.118 38.7726 143.832 38.7726C142.174 38.7726 141.379 39.4614 141.379 40.3345C141.379 41.3592 142.6 41.6454 144.018 41.8128C146.488 42.116 148.791 42.7538 148.791 45.56C148.791 48.1818 146.456 49.3072 143.815 49.3072C141.396 49.3072 139.541 48.5674 138.654 46.4174L140.515 45.4593C141.04 46.7533 142.411 47.3244 143.849 47.3244C145.254 47.3244 146.574 46.8394 146.574 45.56C146.574 44.4516 145.405 43.998 143.832 43.8295C141.413 43.5433 139.179 42.9054 139.179 40.2678C139.179 37.8424 141.582 36.8565 143.765 36.8396C145.609 36.8396 147.52 37.361 148.418 39.1752L146.641 40.0823Z" fill="white"/>
<path d="M124.002 43.2413C124.053 45.1731 125.101 47.2432 127.894 47.2432C130.687 47.2432 131.735 45.1598 131.769 43.2268C131.802 41.244 130.685 39.026 127.894 39.026C125.102 39.026 123.95 41.261 124.002 43.2438M133.968 43.194C133.934 46.2342 132.056 49.2757 127.894 49.2757C123.732 49.2757 121.802 46.3022 121.802 43.2122C121.802 40.1223 123.799 37.0105 127.894 37.0105C131.989 37.0105 134 40.1187 133.968 43.1952" fill="white"/>
<path d="M114.611 40.4861L110.754 45.5939H110.313L106.54 40.4691V49.0161H104.307V37.2531H106.881L110.586 42.31L114.291 37.2531H116.848V49.0161H114.611V40.4861Z" fill="white"/>
<path d="M91.7375 39.3146V43.074H95.1375C96.559 43.074 97.1684 42.1329 97.1684 41.1919C97.1684 40.2508 96.5395 39.3146 95.135 39.3146H91.7375ZM99.9944 49.0089H97.3357L93.8832 45.0773H91.7375V49.004H89.5014V37.2264C91.3797 37.2264 93.258 37.2434 95.135 37.2434C97.928 37.2603 99.3996 39.1085 99.3996 41.1409C99.3996 42.7538 98.6546 44.3837 96.4051 44.8372L99.9919 48.8536L99.9944 49.0089Z" fill="white"/>
<path d="M84.3746 49.004H75.5071V37.241H84.3746V39.391H77.7249V42.1038H84.1376V44.1654H77.7249V46.82H84.3746V49.004Z" fill="white"/>
<path d="M67.8426 49.0161V44.266H62.0221V49.0161H59.7885V37.2531H62.0221V42.2093H67.8426V37.2604H70.0591V49.0234L67.8426 49.0161Z" fill="white"/>
<path d="M49.0439 39.2589H45.2874V37.2434H55.0341V39.2589H51.2776V49.0052H49.0439V39.2589Z" fill="white"/>
</g>
<defs>
<clipPath id="clip0_4385_1255">
<rect width="194" height="39" fill="white" transform="translate(1 17)"/>
</clipPath>
</defs>
</svg>
