<svg width="196" height="73" viewBox="0 0 196 73" fill="none" xmlns="http://www.w3.org/2000/svg">
<rect width="196" height="73" fill="#FBFCFD"/>
<g clip-path="url(#clip0_4385_1259)">
<path d="M97.9617 53.2641C91.9186 53.2641 85.875 53.2641 79.8311 53.2641C77.1859 53.2641 75.0474 51.7473 74.2414 49.3036C73.8931 48.2503 73.9841 47.1424 74.1266 46.0761C74.6055 42.4971 75.1173 38.9232 75.5646 35.3403C75.6767 34.442 75.839 33.5436 75.9485 32.644C76.1991 30.5726 78.3733 28.1679 80.9089 27.9401C82.3152 27.8099 83.7163 27.862 85.1187 27.8633C85.6055 27.8633 85.8166 27.7331 85.8733 27.2305C86.0923 25.2542 86.3509 23.2818 86.5989 21.308C86.9946 18.1834 87.3561 15.0405 87.7954 11.9158C87.9603 10.7023 88.5268 9.57659 89.4069 8.71366C90.2871 7.85073 91.4315 7.299 92.6622 7.14425C94.521 6.89948 96.3904 7.02707 98.2532 7.08045C98.74 7.09347 99.2136 7.02707 99.6952 7.02447C103.012 7.00624 106.328 7.09217 109.645 7.09217C111.641 7.09087 113.641 6.99973 115.638 7.03619C117.222 7.06223 118.739 7.35646 119.992 8.42535C121.516 9.72729 122.158 11.4107 121.971 13.3493C121.685 16.3186 121.341 19.2822 120.939 22.2402C120.633 24.4665 120.446 26.7059 120.107 28.9309C119.778 31.0869 119.621 33.2676 119.372 35.4406C119.203 36.9 118.995 38.3569 118.819 39.8164C118.555 41.962 118.317 44.1128 118.067 46.257C117.831 48.2751 117.615 50.2931 117.352 52.3111C117.233 53.2302 117.107 53.2901 116.165 53.2888H97.9617V53.2641ZM97.7321 52.9191V52.9308C103.908 52.9308 110.083 52.9338 116.259 52.9399C116.711 52.9399 116.918 52.8553 116.968 52.3605C117.094 51.0937 117.294 49.8348 117.443 48.5706C117.645 46.8781 117.814 45.179 118.022 43.4852C118.298 41.2342 118.612 38.9883 118.884 36.7373C119.169 34.3808 119.419 32.0191 119.694 29.66C119.904 27.8581 120.125 26.0575 120.344 24.2569C120.514 22.8638 120.7 21.4734 120.864 20.079C121.128 17.8488 121.392 15.6173 121.624 13.3844C121.823 11.5227 121.239 9.94732 119.802 8.68704C118.706 7.72491 117.4 7.38511 115.983 7.37599C111.939 7.36297 107.896 7.34214 103.846 7.37599C100.07 7.40984 96.2902 7.20023 92.5197 7.49968C91.2757 7.59732 90.2334 8.20272 89.4142 9.13621C88.5118 10.1713 88.116 11.3716 87.9841 12.7465C87.7757 15.0236 87.3917 17.285 87.1068 19.5556C86.7743 22.192 86.4669 24.8298 86.1516 27.4675C86.091 27.9687 85.8746 28.207 85.3007 28.207C83.8759 28.207 82.4524 28.151 81.025 28.2825C79.3983 28.4322 78.1675 29.1769 77.1991 30.4138C76.116 31.7977 76.1437 33.4981 75.9063 35.1007C75.5303 37.5966 75.2163 40.1015 74.9115 42.6064C74.7005 44.3406 74.2981 46.0565 74.3047 47.8142C74.3139 50.5482 76.6371 52.8917 79.4063 52.9073C85.5144 52.9347 91.6226 52.9191 97.7321 52.9191Z" fill="white"/>
<path d="M105.1 64.8685C104.67 64.9805 104.455 64.7227 104.309 64.3347C104.021 63.5874 103.718 62.8466 103.422 62.1019C103.249 61.6671 103.082 61.5551 102.609 61.8819C101.818 62.43 101.592 63.1929 101.472 64.047C101.434 64.323 101.454 64.6602 101.169 64.8008C101.025 64.8815 100.863 64.9257 100.697 64.9293C100.532 64.933 100.368 64.896 100.22 64.8217C99.9565 64.6667 100.125 64.3842 100.172 64.1707C100.741 61.4796 101.335 58.7924 101.887 56.0987C102.026 55.4152 102.503 55.5115 102.942 55.5584C103.484 55.617 103.206 56.0219 103.15 56.2666C102.872 57.6232 102.562 58.9747 102.269 60.3287C102.232 60.5044 102.069 60.7323 102.303 60.8494C102.488 60.9419 102.598 60.7114 102.72 60.5995C103.493 59.8925 104.29 59.2077 105.022 58.4604C105.522 57.9487 106.116 58.0828 106.683 58.1102C107.025 58.1258 106.887 58.338 106.704 58.489C105.982 59.0866 105.27 59.6985 104.541 60.2896C104.228 60.5422 104.135 60.7505 104.339 61.1658C104.846 62.1943 105.278 63.258 105.72 64.3178C105.972 64.9206 105.54 64.8933 105.1 64.8685Z" fill="white"/>
<path d="M79.5501 55.5076C80.5805 55.5076 81.6121 55.4985 82.6438 55.5154C82.9077 55.5154 83.3549 55.367 83.3298 55.8604C83.3087 56.2888 83.2137 56.7431 82.5844 56.7223C81.9551 56.7015 81.31 56.7405 80.6755 56.7041C80.19 56.678 79.9604 56.8512 79.8628 57.3277C79.3945 59.6165 78.9011 61.9001 78.4195 64.185C78.2876 64.8229 77.7744 65.0964 77.1425 64.8854C76.847 64.7839 76.8892 64.5782 76.938 64.3582C77.4182 62.2048 77.8989 60.0513 78.3799 57.8979C78.4274 57.687 78.4538 57.4709 78.4987 57.2587C78.5818 56.859 78.4077 56.7028 78.0079 56.7106C77.3931 56.7236 76.7784 56.7184 76.1609 56.7106C75.8654 56.7106 75.4736 56.7952 75.5013 56.32C75.5211 55.9034 75.595 55.4907 76.1966 55.4998C77.3113 55.5206 78.4314 55.5089 79.5501 55.5076Z" fill="white"/>
<path d="M88.4974 63.9676C89.6214 63.9611 90.6478 63.0692 90.9525 61.7985C91.2058 60.7466 91.4525 59.6933 91.6557 58.6309C91.7757 57.9969 92.2269 58.0633 92.6596 58.0906C93.1873 58.1245 92.9987 58.5112 92.9393 58.7754C92.5119 60.675 92.062 62.568 91.6346 64.4675C91.5303 64.9258 91.1926 64.8672 90.8654 64.8711C90.5673 64.8711 90.3945 64.8269 90.3984 64.4363C90.3984 63.8517 90.0488 64.2215 89.9063 64.3412C89.6069 64.5967 89.2548 64.7852 88.8745 64.8935C88.4942 65.0018 88.0945 65.0275 87.7032 64.9688C86.8391 64.8659 86.1953 64.1746 86.2876 63.3231C86.4683 61.6423 86.971 60.0214 87.3694 58.3823C87.5013 57.8615 88.0475 58.0867 88.3958 58.1154C88.7995 58.1492 88.6385 58.5059 88.5844 58.7364C88.2625 60.1282 87.9116 61.5134 87.6121 62.9091C87.4472 63.6772 87.7203 63.9715 88.4974 63.9676Z" fill="white"/>
<path d="M111.636 64.8881C111.183 64.9831 110.913 64.7579 110.732 64.3517C110.522 63.8778 110.265 63.4234 110.061 62.9482C109.905 62.5836 109.734 62.5823 109.496 62.8596C109.029 63.4051 108.538 63.9324 108.102 64.5014C107.686 65.043 107.092 64.9271 106.594 64.8594C106.222 64.8086 106.509 64.4975 106.654 64.3386C107.376 63.5236 108.08 62.6904 108.84 61.9105C109.204 61.5343 109.183 61.2231 108.953 60.8156C108.536 60.08 108.161 59.3236 107.747 58.5828C107.569 58.2586 107.615 58.1128 108.011 58.0828C108.58 58.0399 109.038 58.118 109.248 58.752C109.38 59.1426 109.6 59.4954 109.776 59.8665C110.04 60.4107 110.157 60.4289 110.525 59.9758C110.893 59.5228 111.302 59.1335 111.58 58.6492C111.959 57.9878 112.551 58.0555 113.129 58.0932C113.547 58.1206 113.417 58.3627 113.227 58.5763C112.491 59.4082 111.768 60.2506 111.018 61.0708C110.73 61.3871 110.658 61.6475 110.9 62.0433C111.327 62.7477 111.691 63.4898 112.073 64.2189C112.429 64.8763 112.426 64.8776 111.636 64.8881Z" fill="white"/>
<path d="M93.6135 62.1644C93.7454 60.5773 94.1926 59.1465 95.7124 58.2963C97.2704 57.4253 99.1702 58.0229 99.7322 59.5371C99.8338 59.8131 99.934 60.1607 99.5501 60.2271C99.2071 60.2857 98.7335 60.576 98.5092 59.9511C98.1398 58.9252 97.0066 58.6492 96.1161 59.3249C95.2256 60.0006 94.6266 62.1175 95.0119 63.1461C95.3971 64.1746 96.6623 64.3503 97.4776 63.482C97.6588 63.2933 97.8021 63.0724 97.8997 62.831C98.1306 62.2282 98.595 62.3389 99.0514 62.4235C99.2744 62.4651 99.2929 62.6383 99.2612 62.8297C99.1293 63.6278 97.8707 64.7709 96.934 64.9349C95.5844 65.1719 94.4842 64.7605 93.9591 63.8061C93.6783 63.306 93.5577 62.7335 93.6135 62.1644Z" fill="white"/>
<path d="M85.6689 59.1817C84.6755 59.0827 83.7942 59.8326 83.4261 61.3819C83.1926 62.3493 82.9881 63.3231 82.7757 64.2957C82.6517 64.8633 82.2836 65.0547 81.7203 64.8711C81.4077 64.7696 81.4565 64.5456 81.5066 64.3438C81.9248 62.3988 82.3575 60.455 82.7731 58.5086C82.8509 58.1427 83.0923 58.0698 83.3984 58.0841C83.6623 58.0971 83.9802 57.9878 84.0106 58.4552C84.0409 58.9473 84.2982 58.6778 84.4657 58.5281C84.9802 58.0685 85.5396 57.7691 86.2559 58.0073C86.4815 58.0828 86.8047 58.1883 86.6082 58.4838C86.4235 58.7481 86.4974 59.2884 85.6689 59.1817Z" fill="white"/>
<path d="M114.02 64.8985C113.451 64.9675 113.346 64.7162 113.464 64.2058C113.889 62.3727 114.288 60.5344 114.687 58.696C114.71 58.5722 114.762 58.4552 114.838 58.3541C114.914 58.2531 115.012 58.1707 115.126 58.1134C115.24 58.0561 115.365 58.0254 115.493 58.0237C115.62 58.022 115.746 58.0494 115.861 58.1037C116.107 58.2169 116.058 58.4122 116.017 58.6036C115.732 59.935 115.447 61.2648 115.161 62.5927C115.029 63.1851 114.865 63.7645 114.765 64.3647C114.679 64.8151 114.431 64.9492 114.02 64.8985Z" fill="white"/>
<path d="M116.044 55.4321C116.286 55.475 116.672 55.3019 116.718 55.7862C116.777 56.3994 116.467 56.9866 116.013 57.0191C115.649 57.0439 115.137 57.1819 115.033 56.6507C115.004 56.5032 115.009 56.3512 115.046 56.2055C115.083 56.0598 115.153 55.924 115.249 55.8077C115.345 55.6915 115.467 55.5975 115.604 55.5326C115.741 55.4677 115.891 55.4334 116.044 55.4321ZM115.78 56.721C116.427 56.7991 116.282 56.251 116.379 55.9398C116.462 55.6729 116.199 55.6795 116 55.6508C115.38 55.5818 115.46 56.0596 115.381 56.4111C115.293 56.7835 115.588 56.6963 115.781 56.7236L115.78 56.721Z" fill="white"/>
<path d="M97.7322 52.9193C91.6227 52.9193 85.5145 52.935 79.405 52.9128C76.6346 52.9024 74.3127 50.555 74.3034 47.8196C74.3034 46.062 74.6992 44.3461 74.9103 42.6119C75.215 40.107 75.529 37.602 75.905 35.1062C76.1464 33.4983 76.1148 31.798 77.1979 30.4193C78.1675 29.1824 79.3984 28.4377 81.0237 28.288C82.4512 28.1578 83.8747 28.2099 85.2995 28.2125C85.8733 28.2125 86.091 27.9742 86.1504 27.473C86.4657 24.8352 86.7731 22.1975 87.1055 19.5611C87.3905 17.2905 87.7744 15.029 87.9828 12.752C88.1148 11.3771 88.5106 10.1767 89.4195 9.14429C90.2401 8.2056 91.2823 7.6002 92.5264 7.50255C96.2968 7.2031 100.077 7.41272 103.852 7.37887C107.896 7.34241 111.939 7.36324 115.989 7.37887C117.404 7.38147 118.706 7.72518 119.802 8.69252C121.239 9.94759 121.823 11.5229 121.625 13.3795C121.388 15.6123 121.127 17.8438 120.865 20.0741C120.702 21.4684 120.516 22.8589 120.346 24.252C120.127 26.0526 119.905 27.8531 119.695 29.655C119.421 32.0141 119.168 34.3758 118.885 36.7323C118.613 38.9834 118.299 41.2292 118.024 43.4803C117.815 45.1728 117.646 46.8718 117.445 48.5657C117.296 49.8298 117.095 51.0888 116.97 52.3556C116.921 52.8503 116.712 52.9363 116.26 52.935C110.085 52.9219 103.909 52.9189 97.7335 52.9258L97.7322 52.9193ZM96.0317 48.149V48.1412C101.303 48.1412 106.576 48.1412 111.848 48.1412C112.309 48.1412 112.623 48.1165 112.689 47.5202C113.067 44.1208 113.491 40.7254 113.896 37.3286C114.423 32.902 114.951 28.4724 115.479 24.0398C115.898 20.5115 116.306 16.9833 116.741 13.4576C116.873 12.4356 116.666 12.1661 115.602 12.1661H109.401C104.282 12.1661 99.1627 12.1661 94.0422 12.1661C93.1451 12.1661 92.9472 12.321 92.8338 13.1725C92.4908 15.7486 92.157 18.326 91.8325 20.9047C91.3509 24.6803 90.8641 28.465 90.4116 32.2498C90.343 32.8278 90.1478 33.0179 89.5501 33.0114C87.1755 32.9854 84.8008 33.0114 82.4261 33.0114C81.1926 33.0114 81.0673 33.1416 80.9024 34.3563C80.343 38.5225 79.7757 42.6887 79.2005 46.8549C79.0567 47.8965 79.2573 48.1451 80.3338 48.1451C85.5695 48.1495 90.8021 48.1508 96.0317 48.149Z" fill="white"/>
<path d="M115.781 56.7236C115.588 56.6963 115.298 56.7835 115.385 56.4124C115.464 56.0609 115.385 55.5831 116.004 55.6521C116.203 55.6755 116.466 55.6742 116.383 55.9411C116.284 56.2536 116.429 56.8017 115.781 56.7236Z" fill="white"/>
</g>
<defs>
<clipPath id="clip0_4385_1259">
<rect width="48" height="58" fill="white" transform="translate(74 7)"/>
</clipPath>
</defs>
</svg>
