<svg width="132" height="82" viewBox="0 0 132 82" fill="none" xmlns="http://www.w3.org/2000/svg">
<g clip-path="url(#clip0_7004_1895)">
<path d="M96.5749 12.5119C81.7843 7.95241 58.514 7.53421 39.7633 11.9886C30.5706 14.174 23.8947 17.1872 20.1312 20.4899C18.3229 22.0748 17.1865 23.7262 16.7695 25.3861C16.8084 25.3497 16.8495 25.3132 16.8884 25.2767C18.7031 23.6468 21.2784 22.0276 24.5494 20.4899C29.0323 18.3796 34.818 16.4173 41.7164 14.7788C60.8084 10.2429 82.7112 9.53729 96.5749 12.5119Z" fill="#E4E5E9"/>
<path d="M131.341 46.5044C131.341 46.5108 131.341 46.5173 131.341 46.5237C131.341 46.5108 131.341 46.5044 131.341 46.5044C131.058 56.1509 114.863 67.095 87.5119 74.4018C71.2825 78.7361 53.759 81.0887 37.6484 81.4962C56.4682 82.9224 77.4183 81.3525 95.6483 76.4842C122.025 69.4369 135.193 57.4849 131.341 46.5044ZM131.218 50.7186C131.22 50.68 131.22 50.6221 131.222 50.547C131.22 50.6199 131.218 50.6778 131.218 50.7186ZM131.263 49.1316C131.266 49.0222 131.27 48.9107 131.274 48.797C131.27 48.915 131.268 49.0265 131.263 49.1316ZM131.311 47.5274C131.315 47.3966 131.318 47.2765 131.322 47.1628C131.318 47.2893 131.313 47.4116 131.311 47.5274ZM131.326 46.9848C131.33 46.8518 131.335 46.7146 131.339 46.573C131.337 46.6545 131.333 46.7982 131.326 46.9848Z" fill="#E4E5E9"/>
<path d="M92.5154 67.9958C105.301 64.5794 113.748 59.5524 117.002 54.2209C118.549 51.6881 118.925 49.0866 118.037 46.5581C117.963 49.048 116.41 51.6559 113.535 54.2209C108.44 58.7632 99.1977 63.1661 86.6973 66.5053C75.0913 69.6043 62.5628 71.2857 51.041 71.5774C64.4985 72.5982 79.4813 71.4766 92.5154 67.9958Z" fill="#E4E5E9"/>
<path d="M3.3444 20.4877C5.47894 19.0272 8.04773 17.5882 11.0205 16.1963C17.2729 13.2689 25.3163 10.5495 34.8915 8.27403C45.8666 5.6683 57.5029 3.96546 68.7503 3.15479H97.8733C99.3921 3.28132 100.876 3.43145 102.324 3.60087C105.632 3.98905 108.743 4.49304 111.61 5.10855C92.3901 -0.819213 62.9321 -1.74355 37.8168 3.15265C35.9004 3.52581 34.0122 3.93115 32.1542 4.37294C23.4302 6.44466 16.3266 9.05038 11.0184 11.9585C6.16596 14.6136 2.81292 17.5174 1.09103 20.4877C0.587646 21.3584 0.222528 22.2313 0 23.1084C0.00432093 23.1042 0.00864185 23.0999 0.0129628 23.0977C0.0151232 23.0956 0.0194442 23.0913 0.0216046 23.0891L0.0648139 23.0484C0.0756162 23.0398 0.0864185 23.0291 0.0972209 23.0205C0.108023 23.0119 0.116665 23.0012 0.127467 22.9926C0.131788 22.9905 0.133949 22.9862 0.13827 22.9841L0.211725 22.9154C1.11912 22.1048 2.16695 21.2962 3.3444 20.4877Z" fill="#E4E5E9"/>
<path d="M45.3865 54.2209H45.2939V54.2847H45.3865V54.2209Z" fill="white"/>
<path d="M38.8173 28.8175L39.6404 26.1946H31.9017L31.0785 28.8175L30.7048 30.0142L30.3656 31.0929L28.2267 37.9214L27.9653 38.7514C26.8224 42.0391 25.9949 43.1029 21.6697 43.1029L18.4744 43.135L15.0327 43.1029C9.98158 43.0021 10.0486 41.9405 11.1979 37.7885L13.2957 31.0929L14.0087 28.8175L14.8318 26.1946H11.0208H7.13193L6.30879 28.8175L2.87365 39.7808C0.209802 48.2821 5.66497 48.5481 13.7062 48.5481C15.7932 48.5481 17.9062 48.5824 19.9932 48.5824C24.299 48.5824 27.9437 48.2521 30.7048 46.5407C32.7334 45.2839 34.2868 43.2787 35.2785 40.1132L35.6846 38.8179L38.1043 31.0929L38.8173 28.8175Z" fill="#F03254"/>
<path d="M45.2938 48.4946C45.3241 48.4968 45.3565 48.4968 45.3867 48.4968C46.3071 48.5139 47.2318 48.5139 48.1456 48.5139C51.4468 48.5139 54.7286 48.4474 58.0816 48.2823C60.0476 48.1493 61.6961 47.9542 63.0852 47.5553C63.9754 47.3001 64.7574 46.9612 65.4466 46.5022C66.9503 45.505 68.0154 43.9416 68.7997 41.4388C68.8645 41.2372 68.9185 41.0399 68.9725 40.849C70.2472 36.1051 67.7929 34.9019 63.0874 34.7218C62.6078 34.7025 62.1065 34.696 61.5837 34.696C59.877 34.696 58.2177 34.6617 56.511 34.6617L51.3734 34.5953C49.6493 34.5288 46.9207 34.7604 47.5969 32.6007C47.8842 31.6871 48.6944 31.2754 49.6212 31.0888C50.0425 31.0009 50.4897 30.9622 50.924 30.9408C52.9181 30.8743 54.8841 30.7735 56.8545 30.7735C58.0686 30.7735 59.3196 30.7735 60.5618 30.8078C61.2294 30.8336 61.7933 30.9086 62.2038 31.0888C62.8346 31.3654 63.1112 31.8973 62.8649 32.901H63.0874H70.4135C70.582 32.3112 70.7722 31.6979 70.9018 31.0888C71.0703 30.3038 71.1416 29.5275 70.9428 28.8133C70.932 28.7683 70.9169 28.7254 70.9018 28.6804C69.9015 26.0575 66.4232 26.0253 63.3229 25.991L63.0874 25.9867L57.9563 25.9224C55.0354 25.9224 49.2972 25.9567 46.4065 26.5872C46.0478 26.6623 45.7086 26.7459 45.3889 26.8403C43.8506 27.2906 42.7466 27.9533 41.9127 28.8133C41.2819 29.4632 40.8022 30.2245 40.409 31.0888C40.1325 31.6893 39.8992 32.3391 39.681 33.034C38.3804 37.186 39.2834 39.1462 44.1596 39.4443C44.5679 39.4679 44.9762 39.4872 45.3889 39.5065C49.1373 39.678 52.9635 39.678 56.7572 39.678H58.0082C59.3909 39.678 60.8924 39.7938 61.0479 40.8511C61.0825 41.0699 61.0566 41.3315 60.9593 41.6382C60.3652 43.5319 58.6693 43.4976 56.9409 43.5641C55.165 43.6628 53.4474 43.6971 51.7407 43.6971C50.5265 43.6971 49.3231 43.6628 48.1089 43.6628C47.1648 43.6284 46.0759 43.622 45.3867 43.2896C45.3543 43.2724 45.3241 43.2574 45.2938 43.2403C44.7861 42.9593 44.5377 42.4682 44.8077 41.6039C44.8488 41.4709 44.8812 41.3723 44.8855 41.2372H37.298L36.881 42.5668C36.073 45.149 36.4467 46.5494 37.6458 47.3365C38.7908 48.0893 40.6856 48.2823 43.0167 48.411C43.7642 48.4581 44.5269 48.4839 45.2938 48.4946Z" fill="#F03254"/>
<path d="M68.832 48.3144H74.5421H76.5319L76.8085 47.4373L77.1001 46.5022L78.8717 40.8511L81.9309 31.0909L82.6439 28.8176L83.4757 26.1604H76.8085H75.7758L74.9418 28.8176L74.5421 30.0958L74.2289 31.0909L71.1718 40.8511L69.4002 46.5022L68.832 48.3144Z" fill="#6B7378"/>
<path d="M107.157 25.9952L102.322 25.9351L101.79 25.9287C98.8693 25.9287 93.1311 25.963 90.2404 26.5935C89.8818 26.6686 89.5426 26.7522 89.2228 26.8466C87.6867 27.297 86.5827 27.9597 85.7488 28.8197C85.1158 29.4695 84.6383 30.2308 84.2451 31.0951C83.9707 31.6956 83.7353 32.3455 83.517 33.0403C82.2186 37.1923 83.1217 39.1525 87.9957 39.4506C88.404 39.4742 88.8123 39.4935 89.225 39.5128C92.9734 39.6844 96.7996 39.6844 100.593 39.6844H101.844C103.225 39.6844 104.728 39.8002 104.884 40.8575C104.919 41.0763 104.893 41.3379 104.795 41.6446C104.201 43.5383 102.505 43.504 100.779 43.5705C99.0011 43.6691 97.2835 43.7034 95.5768 43.7034C94.3626 43.7034 93.1592 43.6691 91.945 43.6691C91.0009 43.6348 89.912 43.6284 89.2228 43.2938C88.6525 43.0214 88.3608 42.526 88.646 41.6103C88.687 41.4773 88.7194 41.3786 88.7216 41.2435H81.1341L80.7171 42.5732C80.1381 44.4197 80.1662 45.6615 80.6674 46.5065C81.5337 47.9734 83.826 48.2501 86.8485 48.4173C87.6262 48.4645 88.4213 48.4903 89.2185 48.501C90.1367 48.5181 91.0614 48.5181 91.9774 48.5181C95.2786 48.5181 98.5604 48.4517 101.911 48.2865C105.137 48.0699 107.507 47.6796 109.274 46.5065C110.778 45.5092 111.843 43.9458 112.627 41.443C112.692 41.2414 112.748 41.0441 112.8 40.8532C114.204 35.6289 111.08 34.7003 105.409 34.7003C103.702 34.7003 102.043 34.6659 100.336 34.6659L95.1987 34.5995C93.4746 34.533 90.746 34.7646 91.4222 32.605C91.7095 31.6913 92.5197 31.2796 93.4465 31.093C93.87 31.0051 94.3151 30.9665 94.7493 30.945C96.7434 30.8785 98.7073 30.7777 100.68 30.7777C101.22 30.7777 101.762 30.7777 102.313 30.782C103.002 30.7863 103.696 30.7927 104.389 30.812C106.074 30.8785 107.096 31.2453 106.69 32.9052H114.239C114.397 32.354 114.572 31.7814 114.701 31.2109C114.889 30.3874 114.976 29.566 114.766 28.8197C114.755 28.7746 114.74 28.7317 114.725 28.6867C114.394 27.816 113.787 27.2305 113.014 26.8359C112.247 26.4456 111.318 26.2397 110.322 26.1325C109.307 26.0188 108.211 26.0059 107.157 25.9952Z" fill="#6B7378"/>
</g>
<defs>
<clipPath id="clip0_7004_1895">
<rect width="132" height="82" fill="white"/>
</clipPath>
</defs>
</svg>
