<svg width="196" height="73" viewBox="0 0 196 73" fill="none" xmlns="http://www.w3.org/2000/svg">
<rect width="196" height="73" fill=""/>
<g clip-path="url(#clip0_4385_1279)">
<path d="M118.437 17.251C108.721 14.2442 93.4358 13.9684 81.1191 16.9059C75.0806 18.347 70.6955 20.3341 68.2234 22.5121C67.0355 23.5573 66.2891 24.6463 66.0152 25.7409C66.0407 25.7169 66.0677 25.6928 66.0932 25.6688C67.2853 24.5939 68.9769 23.5261 71.1255 22.5121C74.0702 21.1204 77.8707 19.8264 82.402 18.7459C94.943 15.7547 109.33 15.2894 118.437 17.251Z" fill="white"/>
<path d="M141.274 39.6675C141.274 39.6718 141.274 39.676 141.274 39.6802C141.274 39.6718 141.274 39.6675 141.274 39.6675C141.088 46.029 130.45 53.2461 112.484 58.0645C101.823 60.9228 90.3125 62.4743 79.7299 62.743C92.0921 63.6835 105.853 62.6482 117.828 59.4378C135.155 54.7904 143.804 46.9086 141.274 39.6675ZM141.193 42.4466C141.194 42.4211 141.194 42.3829 141.196 42.3334C141.194 42.3815 141.193 42.4197 141.193 42.4466ZM141.223 41.4C141.224 41.3279 141.227 41.2543 141.23 41.1794C141.227 41.2572 141.226 41.3307 141.223 41.4ZM141.254 40.3421C141.257 40.2559 141.258 40.1767 141.261 40.1017C141.258 40.1851 141.255 40.2658 141.254 40.3421ZM141.264 39.9843C141.267 39.8966 141.27 39.8061 141.272 39.7128C141.271 39.7665 141.268 39.8613 141.264 39.9843Z" fill="white"/>
<path d="M115.77 53.8401C124.169 51.5871 129.718 48.272 131.855 44.7561C132.871 43.0859 133.118 41.3703 132.535 39.7029C132.486 41.3449 131.466 43.0646 129.577 44.7561C126.231 47.7516 120.16 50.6551 111.949 52.8571C104.325 54.9008 96.0954 56.0096 88.5271 56.2019C97.367 56.8751 107.209 56.1355 115.77 53.8401Z" fill="white"/>
<path d="M57.1967 22.5107C58.5989 21.5476 60.2862 20.5986 62.239 19.6808C66.346 17.7503 71.6294 15.957 77.9191 14.4564C85.1283 12.738 92.7718 11.6151 100.16 11.0805H119.29C120.288 11.1639 121.262 11.2629 122.213 11.3747C124.386 11.6307 126.43 11.963 128.313 12.3689C115.688 8.45983 96.3381 7.85027 79.8406 11.0791C78.5818 11.3252 77.3415 11.5925 76.121 11.8838C70.3905 13.25 65.7244 14.9684 62.2375 16.8861C59.0501 18.637 56.8476 20.552 55.7166 22.5107C55.3859 23.0849 55.1461 23.6606 54.9999 24.239C55.0027 24.2362 55.0056 24.2333 55.0084 24.2319C55.0098 24.2305 55.0127 24.2277 55.0141 24.2263L55.0425 24.1994C55.0496 24.1937 55.0567 24.1867 55.0638 24.181C55.0709 24.1754 55.0765 24.1683 55.0836 24.1626C55.0865 24.1612 55.0879 24.1584 55.0907 24.157L55.139 24.1117C55.735 23.5771 56.4233 23.0439 57.1967 22.5107Z" fill="white"/>
<path d="M84.8137 44.7562H84.7523V44.7989H84.8137V44.7562Z" fill="white"/>
<path d="M80.4978 28.0038L81.0385 26.2741H75.9551L75.4144 28.0038L75.1689 28.793L74.9461 29.5044L73.5412 34.0074L73.3695 34.5548C72.6187 36.7229 72.0752 37.4244 69.2341 37.4244L67.1352 37.4456L64.8745 37.4244C61.5565 37.3579 61.6005 36.6578 62.3555 33.9198L63.7335 29.5044L64.2018 28.0038L64.7425 26.2741H62.2391H59.6847L59.144 28.0038L56.8875 35.2336C55.1377 40.8399 58.7211 41.0152 64.0031 41.0152C65.374 41.0152 66.7619 41.0379 68.1328 41.0379C70.9612 41.0379 73.3553 40.8201 75.1689 39.6915C76.5015 38.8627 77.5219 37.5403 78.1733 35.4528L78.4401 34.5986L80.0295 29.5044L80.4978 28.0038Z" fill="white"/>
<path d="M84.7522 40.9799C84.772 40.9813 84.7933 40.9813 84.8132 40.9813C85.4177 40.9926 86.0251 40.9926 86.6254 40.9926C88.7939 40.9926 90.9496 40.9488 93.1521 40.8399C94.4435 40.7522 95.5263 40.6235 96.4388 40.3604C97.0235 40.1921 97.5372 39.9687 97.9899 39.666C98.9776 39.0084 99.6773 37.9774 100.192 36.3269C100.235 36.1939 100.27 36.0638 100.306 35.938C101.143 32.8096 99.5311 32.0162 96.4402 31.8974C96.1252 31.8846 95.7959 31.8804 95.4525 31.8804C94.3314 31.8804 93.2415 31.8578 92.1203 31.8578L88.7456 31.8139C87.6132 31.7701 85.8208 31.9228 86.265 30.4986C86.4537 29.8961 86.9859 29.6246 87.5947 29.5016C87.8714 29.4436 88.1652 29.4181 88.4504 29.404C89.7603 29.3601 91.0517 29.2937 92.346 29.2937C93.1435 29.2937 93.9652 29.2937 94.7812 29.3163C95.2198 29.3333 95.5902 29.3828 95.8598 29.5016C96.2742 29.684 96.4558 30.0347 96.294 30.6966H96.4402H101.253C101.363 30.3077 101.488 29.9032 101.573 29.5016C101.684 28.9839 101.731 28.472 101.6 28.001C101.593 27.9713 101.583 27.943 101.573 27.9133C100.916 26.1836 98.6314 26.1624 96.5949 26.1398L96.4402 26.137L93.0698 26.0945C91.1511 26.0945 87.3818 26.1172 85.483 26.533C85.2474 26.5825 85.0246 26.6376 84.8146 26.6999C83.8042 26.9969 83.079 27.4339 82.5312 28.001C82.1168 28.4295 81.8018 28.9316 81.5435 29.5016C81.3618 29.8976 81.2086 30.3261 81.0652 30.7843C80.2109 33.5224 80.8041 34.815 84.0071 35.0116C84.2753 35.0272 84.5436 35.0399 84.8146 35.0526C87.2768 35.1658 89.7901 35.1658 92.2821 35.1658H93.1038C94.0121 35.1658 94.9984 35.2421 95.1005 35.9394C95.1233 36.0836 95.1062 36.2562 95.0424 36.4584C94.6521 37.7072 93.5381 37.6846 92.4028 37.7284C91.2362 37.7935 90.108 37.8161 88.9869 37.8161C88.1893 37.8161 87.3989 37.7935 86.6013 37.7935C85.9811 37.7709 85.2659 37.7666 84.8132 37.5474C84.7919 37.5361 84.772 37.5262 84.7522 37.5149C84.4187 37.3296 84.2555 37.0057 84.4329 36.4358C84.4598 36.3481 84.4811 36.283 84.4839 36.1939H79.4999L79.226 37.0708C78.6953 38.7736 78.9408 39.6971 79.7284 40.2162C80.4806 40.7126 81.7251 40.8399 83.2564 40.9247C83.7474 40.9558 84.2484 40.9728 84.7522 40.9799Z" fill="white"/>
<path d="M100.214 40.8611H103.965H105.272L105.453 40.2827L105.645 39.6661L106.809 35.9394L108.818 29.503L109.286 28.0039L109.833 26.2516H105.453H104.775L104.227 28.0039L103.965 28.8468L103.759 29.503L101.751 35.9394L100.587 39.6661L100.214 40.8611Z" fill="white"/>
<path d="M125.388 26.1426L122.212 26.103L121.863 26.0988C119.944 26.0988 116.175 26.1214 114.276 26.5372C114.04 26.5867 113.818 26.6419 113.608 26.7041C112.599 27.0011 111.873 27.4381 111.326 28.0052C110.91 28.4338 110.596 28.9358 110.338 29.5058C110.158 29.9018 110.003 30.3303 109.86 30.7886C109.007 33.5266 109.6 34.8193 112.801 35.0159C113.07 35.0314 113.338 35.0441 113.609 35.0569C116.071 35.17 118.584 35.17 121.076 35.17H121.898C122.805 35.17 123.793 35.2464 123.895 35.9436C123.918 36.0879 123.901 36.2604 123.837 36.4627C123.446 37.7115 122.332 37.6889 121.199 37.7327C120.031 37.7978 118.902 37.8204 117.781 37.8204C116.984 37.8204 116.193 37.7978 115.396 37.7978C114.775 37.7751 114.06 37.7709 113.608 37.5503C113.233 37.3706 113.041 37.0439 113.229 36.44C113.256 36.3524 113.277 36.2873 113.278 36.1982H108.294L108.02 37.0751C107.64 38.2928 107.658 39.1116 107.988 39.6689C108.557 40.6362 110.062 40.8187 112.048 40.929C112.559 40.9601 113.081 40.9771 113.605 40.9841C114.208 40.9955 114.815 40.9955 115.417 40.9955C117.585 40.9955 119.741 40.9516 121.942 40.8427C124.061 40.6999 125.618 40.4425 126.779 39.6689C127.766 39.0112 128.466 37.9802 128.981 36.3297C129.024 36.1968 129.061 36.0667 129.095 35.9408C130.017 32.4956 127.965 31.8832 124.24 31.8832C123.119 31.8832 122.029 31.8606 120.908 31.8606L117.533 31.8167C116.4 31.7729 114.608 31.9256 115.052 30.5015C115.241 29.899 115.773 29.6274 116.382 29.5044C116.66 29.4464 116.952 29.4209 117.238 29.4068C118.548 29.363 119.838 29.2965 121.133 29.2965C121.488 29.2965 121.844 29.2965 122.206 29.2993C122.659 29.3021 123.114 29.3064 123.57 29.3191C124.677 29.363 125.348 29.6048 125.081 30.6995H130.04C130.143 30.336 130.258 29.9584 130.343 29.5822C130.467 29.0391 130.524 28.4974 130.386 28.0052C130.379 27.9755 130.369 27.9473 130.359 27.9176C130.142 27.3434 129.743 26.9573 129.235 26.697C128.731 26.4396 128.121 26.3039 127.467 26.2331C126.8 26.1582 126.08 26.1497 125.388 26.1426Z" fill="white"/>
</g>
<defs>
<clipPath id="clip0_4385_1279">
<rect width="86.7067" height="54.0752" fill="white" transform="translate(55 9)"/>
</clipPath>
</defs>
</svg>
