<svg width="196" height="73" viewBox="0 0 196 73" fill="none" xmlns="http://www.w3.org/2000/svg">
<rect width="196" height="73" fill=""/>
<g clip-path="url(#clip0_4385_1271)">
<path d="M23.9 24.575C24.3171 24.0285 24.7648 23.506 25.241 23.01C25.3389 22.9042 25.44 22.8009 25.5443 22.6999C25.6165 22.6278 25.6863 22.5556 25.761 22.4883C25.9439 22.308 26.1269 22.1349 26.3171 21.9667C26.4013 21.8897 26.4856 21.8152 26.5723 21.7431C26.6589 21.671 26.801 21.5436 26.9189 21.4474C29.4926 19.3168 32.5892 17.9109 35.8889 17.375C36.0021 17.3558 36.1297 17.3366 36.2308 17.3221C37.9776 17.0676 39.7515 17.0595 41.5006 17.2981C42.0615 17.3702 42.6128 17.4712 43.1569 17.5938L43.2267 17.6106C45.432 18.1183 47.5272 19.0199 49.4113 20.2718C42.0326 26.164 41.8424 26.2314 35.3232 35.7704C33.963 34.2391 32.6076 32.7077 31.1704 31.2605C29.0158 29.0969 26.7624 27.0343 24.225 25.3178C23.8326 25.051 23.7339 24.8707 23.9 24.575Z" fill="white"/>
<path d="M57.8616 35.905C57.8616 36.0493 57.8616 36.1911 57.8616 36.3353C57.7856 41.0518 55.9393 45.568 52.688 48.99L52.4088 49.2809C52.274 49.4179 52.1392 49.5501 51.9995 49.6823C49.9363 51.6521 47.4544 53.1313 44.7388 54.0095C44.6016 54.0552 44.4619 54.0936 44.3247 54.1345C44.1875 54.1754 44.1056 54.1994 43.9949 54.2283L43.848 54.2691L43.4821 54.3605C43.0175 54.4783 42.5432 54.5744 42.0666 54.6514C41.3902 54.7658 40.7077 54.8413 40.0227 54.8773C39.6688 54.899 39.3005 54.9086 38.9514 54.9086C38.6023 54.9086 38.2292 54.9086 37.8825 54.8773C33.7164 54.6418 29.7451 53.0373 26.5871 50.3138C23.429 47.5902 21.2613 43.9004 20.4216 39.8187C20.3999 39.7057 20.3734 39.5928 20.3566 39.4798C20.3397 39.3668 20.3132 39.2394 20.294 39.124C20.2747 39.0086 20.2555 38.8764 20.241 38.7658C20.1056 37.8537 20.0372 36.9329 20.0364 36.0108C20.0371 34.9467 20.1265 33.8845 20.3036 32.8351C20.4721 32.412 20.7634 32.549 21.4832 33.0106C25.1569 35.3665 27.8725 38.636 30.2847 42.1891C31.5987 44.1432 32.7871 46.1787 33.8429 48.2832C34.1504 48.9123 34.5955 49.4643 35.1453 49.8987C35.7014 50.3242 36.0432 50.2352 36.2671 49.5982C38.8166 42.3453 43.2871 36.345 48.5449 30.8759C50.2686 29.0849 52.1079 27.4069 53.8532 25.6448C54.2673 25.2289 54.4695 25.2698 54.7223 25.6015L54.8499 25.7914C54.9414 25.9333 55.0305 26.0727 55.1171 26.2169C56.8279 29.0275 57.77 32.2371 57.8495 35.5252C57.8592 35.6502 57.8616 35.7752 57.8616 35.905Z" fill="white"/>
<path d="M57.8614 35.905C57.8614 36.0493 57.8614 36.1911 57.8614 36.3353C57.7412 41.0427 55.9011 45.5436 52.6878 48.99L52.4086 49.2808C52.2738 49.4179 52.139 49.5501 51.9993 49.6823C49.948 51.6676 47.4622 53.149 44.7386 54.0095C44.6014 54.0552 44.4617 54.0936 44.3245 54.1345C44.1873 54.1754 44.1054 54.1994 43.9947 54.2283L43.8478 54.2691L43.4819 54.3605C43.2002 54.4278 42.9114 54.4927 42.6201 54.548L42.0664 54.6514L40.8795 54.8773H36.9915C35.4728 54.8058 33.9728 54.511 32.5402 54.0023C27.9445 52.2882 24.449 49.3025 22.1041 44.9849C21.6708 44.1844 20.9004 42.2347 20.419 39.8187C20.3973 39.7057 20.3708 39.5928 20.354 39.4798C20.3371 39.3668 20.3106 39.2394 20.2914 39.124C20.2721 39.0086 20.2552 38.8764 20.2408 38.7658C19.9599 37.0239 19.9323 35.2507 20.159 33.501C20.1837 33.2742 20.2338 33.0509 20.3082 32.8351C20.4767 32.412 20.768 32.549 21.4878 33.0106C25.1567 35.3665 27.8723 38.636 30.2845 42.1891C31.5985 44.1432 32.7869 46.1787 33.8427 48.2832C34.1502 48.9123 34.5953 49.4643 35.1451 49.8987C35.7012 50.3242 36.043 50.2352 36.2669 49.5982C38.8164 42.3453 43.2869 36.345 48.5447 30.8759C50.2684 29.0849 52.1077 27.4069 53.853 25.6448C54.2671 25.2289 54.4693 25.2698 54.7221 25.6015L54.8497 25.7914C54.9412 25.9333 55.0302 26.0727 55.1169 26.2169C56.8401 29.022 57.7833 32.2351 57.8493 35.5252C57.8589 35.6502 57.8614 35.7752 57.8614 35.905Z" fill="white"/>
<path d="M49.4065 20.2694C42.0326 26.164 41.8425 26.2313 35.3232 35.7704C33.963 34.239 32.6076 32.7077 31.1704 31.2605C29.0158 29.0969 26.7625 27.0343 24.225 25.3178C23.8326 25.051 23.7436 24.8707 23.9 24.575C23.949 24.4851 24.0071 24.4005 24.0734 24.3226C24.4513 23.861 24.8413 23.4187 25.241 23.0004C25.3389 22.8946 25.44 22.7912 25.5443 22.6902C25.6165 22.6181 25.6863 22.546 25.761 22.4787C25.9439 22.2984 26.1269 22.1253 26.3171 21.957C26.4013 21.8801 26.4856 21.8056 26.5723 21.7335C26.6589 21.6613 26.801 21.5339 26.9189 21.4378C27.1597 21.243 27.4004 21.0531 27.6412 20.8704C27.8434 20.7166 28.0504 20.5699 28.2575 20.4281L28.4428 20.3007C30.6045 18.8549 33.0406 17.8681 35.6 17.4015C35.6958 17.3874 35.7922 17.3786 35.8889 17.375C36.0044 17.3695 36.119 17.3518 36.2308 17.3221C36.346 17.2883 36.4479 17.2194 36.5221 17.125H41.1852C41.2749 17.2007 41.3777 17.2593 41.4886 17.2981C41.7598 17.3696 42.037 17.4163 42.3167 17.4375C42.596 17.4832 42.8704 17.5361 43.1449 17.5938L43.2147 17.6106C45.4275 18.1009 47.528 19.0029 49.4065 20.2694Z" fill="white"/>
<path d="M118.054 33.7799C117.892 32.2338 117.446 30.7309 116.737 29.3469C115.533 26.9694 113.073 25.4765 109.996 25.2601C107.201 25.0558 104.474 25.9813 102.954 27.6256C102.932 27.4463 102.922 27.2655 102.926 27.0847C102.944 26.8872 102.922 26.6879 102.859 26.4996C102.797 26.3113 102.695 26.138 102.562 25.9909C102.199 25.6303 101.717 25.6423 101.358 25.6496C101.276 25.6496 101.195 25.6496 101.118 25.6496C100.946 25.6254 100.771 25.6407 100.606 25.6945C100.441 25.7483 100.291 25.839 100.167 25.9597C100.054 26.1039 99.9752 26.2721 99.9373 26.4512C99.8993 26.6304 99.9028 26.8158 99.9476 26.9934C99.9556 27.0379 99.9604 27.0829 99.962 27.128C99.962 33.4986 99.962 39.87 99.962 46.2422V54.1321C99.962 54.3989 99.962 54.6682 99.9476 54.935C99.9476 55.0769 99.9476 55.2163 99.9355 55.3557C99.9333 55.4397 99.948 55.5233 99.9787 55.6016C100.009 55.6798 100.056 55.7511 100.114 55.8112C100.173 55.8713 100.243 55.9189 100.321 55.9514C100.399 55.9838 100.482 56.0003 100.566 56H102.434C102.6 55.9994 102.759 55.9338 102.877 55.8174C102.995 55.7009 103.063 55.543 103.065 55.3774C103.096 52.0118 103.128 48.538 103.089 45.0666C104.902 46.8913 107.355 47.6004 110.552 47.2302C113.826 46.848 116.118 44.9681 117.368 41.6457C118.412 38.8595 118.29 35.9795 118.068 33.7823L118.054 33.7799ZM114.984 35.8617C114.97 38.0253 114.794 39.8163 113.978 41.439C113.241 42.9126 111.727 44.0041 109.929 44.3574C108.13 44.7108 106.279 44.2661 105.022 43.1555C104.187 42.4198 103.672 41.3885 103.402 39.9101C102.94 37.4901 102.933 35.0054 103.381 32.5827C103.821 30.2917 104.967 28.9526 106.881 28.4959C107.698 28.2841 108.538 28.1695 109.382 28.1545C110.085 28.1296 110.785 28.2565 111.435 28.5266C112.084 28.7967 112.668 29.2036 113.145 29.7195C114.272 30.8951 114.621 32.4601 114.83 33.9746C114.9 34.4746 114.931 34.9891 114.955 35.417C114.965 35.5781 114.975 35.7319 114.984 35.8617Z" fill="white"/>
<path d="M156.871 23.5966V17.6298C156.871 17.4628 156.804 17.3026 156.686 17.1845C156.568 17.0664 156.407 17 156.24 17H154.374C154.207 17 154.046 17.0663 153.927 17.1843C153.809 17.3024 153.742 17.4626 153.741 17.6298V23.5701C153.741 30.7821 153.741 38.2465 153.724 45.5835C153.708 45.7755 153.731 45.9689 153.792 46.1516C153.854 46.3344 153.952 46.5026 154.081 46.6461C154.23 46.7714 154.404 46.864 154.591 46.9178C154.779 46.9717 154.976 46.9856 155.169 46.9586H155.308C155.347 46.9586 155.402 46.9586 155.45 46.9586H155.592C155.763 46.9725 155.935 46.9518 156.098 46.8976C156.26 46.8435 156.41 46.7571 156.538 46.6437C156.667 46.5 156.765 46.3317 156.826 46.149C156.887 45.9663 156.911 45.7731 156.895 45.5811C156.868 38.2537 156.871 30.8013 156.871 23.5966Z" fill="white"/>
<path d="M90.0556 25.6399H89.5572C89.2322 25.6399 88.9506 25.6399 88.6785 25.6399C88.3906 25.6037 88.0994 25.6726 87.8583 25.8338C87.6172 25.995 87.4425 26.2378 87.3665 26.5174C86.6009 28.5993 85.7824 30.7028 85 32.751C83.765 35.929 82.4915 39.2057 81.3889 42.5112C80.2887 39.297 79.0537 36.1093 77.8548 33.0154C77.0387 30.9119 76.1961 28.7363 75.4089 26.5847C75.1537 25.8876 74.6867 25.575 73.9644 25.6351C73.6974 25.6487 73.4298 25.6487 73.1628 25.6351H72.7126C72.6123 25.6347 72.5133 25.6582 72.4239 25.7038C72.3345 25.7493 72.2574 25.8156 72.1989 25.897C72.1405 25.9785 72.1024 26.0727 72.0879 26.1719C72.0734 26.271 72.0829 26.3722 72.1156 26.4669L72.2022 26.7386C72.26 26.9141 72.3106 27.0655 72.3683 27.2194C72.9557 28.7435 73.5456 30.266 74.1378 31.787C75.9265 36.4026 77.7778 41.177 79.5713 45.8816C79.6692 46.2121 79.8772 46.4993 80.1609 46.6956C80.4447 46.8919 80.787 46.9855 81.1313 46.961C81.2131 46.961 81.2902 46.961 81.3576 46.961H81.5261C82.0076 46.961 82.7828 46.9393 83.1776 45.8936C84.6774 41.9126 86.2446 37.8787 87.7517 33.9794C88.2524 32.6973 88.7507 31.4151 89.2467 30.133C89.5693 29.3036 89.8894 28.4718 90.2241 27.6064L90.6454 26.515C90.6856 26.4185 90.7012 26.3136 90.6908 26.2096C90.6805 26.1056 90.6445 26.0058 90.586 25.9191C90.5276 25.8324 90.4486 25.7616 90.356 25.7129C90.2634 25.6641 90.1602 25.6391 90.0556 25.6399Z" fill="white"/>
<path d="M131.944 44.9681C131.945 44.8364 131.915 44.7063 131.856 44.5885C131.797 44.4707 131.711 44.3685 131.605 44.2902C131.472 44.2084 131.321 44.1595 131.166 44.1474C131.01 44.1353 130.854 44.1603 130.709 44.2204L130.637 44.2421C130.346 44.2565 130.057 44.2829 129.778 44.3118C129.393 44.3479 129.029 44.3839 128.67 44.3863C126.694 44.4152 125.952 43.7853 125.661 41.8044C125.622 41.5273 125.602 41.2477 125.603 40.9678C125.603 39.628 125.603 38.2898 125.603 36.9532C125.603 34.179 125.603 31.3134 125.589 28.4911C126.263 28.5031 126.944 28.4911 127.601 28.4911C128.459 28.4911 129.342 28.4911 130.204 28.5127C130.377 28.5318 130.552 28.5147 130.717 28.4625C130.883 28.4104 131.036 28.3243 131.167 28.2098C131.286 28.0746 131.376 27.916 131.43 27.7442C131.484 27.5724 131.502 27.3912 131.482 27.2122C131.482 27.1689 131.482 27.1232 131.482 27.0752V27.0223C131.482 26.7025 131.504 26.2602 131.172 25.9333C131.038 25.813 130.88 25.7227 130.709 25.6684C130.537 25.6141 130.356 25.597 130.177 25.6183C129.376 25.6472 128.555 25.6424 127.77 25.6376C127.089 25.6376 126.386 25.6376 125.688 25.6376H125.586V25.5799C125.625 24.724 125.618 23.861 125.611 23.0268C125.611 22.6774 125.611 22.3289 125.611 21.9811V21.9066C125.628 21.7549 125.614 21.6011 125.57 21.4551C125.525 21.309 125.45 21.1738 125.351 21.058C125.251 20.9603 125.133 20.8838 125.003 20.833C124.873 20.7822 124.734 20.7581 124.595 20.7623C124.311 20.7623 123.446 20.743 123.268 21.796C123.179 22.3201 123.066 22.8537 122.958 23.3682C122.84 23.9235 122.717 24.4981 122.623 25.0726C122.56 25.4549 122.488 25.4837 122.25 25.5294C121.868 25.6062 121.49 25.7025 121.118 25.8179C120.851 25.8972 120.598 25.9717 120.346 26.0294C119.397 26.2506 119.445 27.0655 119.462 27.3348C119.462 27.3829 119.462 27.4309 119.462 27.4766C119.446 27.6108 119.46 27.7468 119.501 27.8753C119.543 28.0039 119.612 28.122 119.703 28.2219C119.815 28.3238 119.948 28.4004 120.093 28.4464C120.237 28.4925 120.39 28.5069 120.541 28.4887H120.618H121.099C121.544 28.4887 122.002 28.5055 122.464 28.4887C122.445 30.121 122.45 31.7774 122.452 33.3808V35.143C122.452 35.205 122.461 35.2667 122.481 35.3257C122.481 35.9363 122.481 36.5445 122.481 37.1527C122.469 38.7129 122.457 40.3284 122.51 41.9198C122.58 43.9752 123.256 45.408 124.58 46.2951C125.647 47.0098 126.907 47.3822 128.191 47.3625C129.219 47.3402 130.24 47.1867 131.229 46.9057C132.253 46.6389 132.053 45.5763 131.985 45.2229C131.967 45.1388 131.953 45.0537 131.944 44.9681Z" fill="white"/>
<path d="M94.9282 25.6327H94.8439C94.7861 25.6327 94.7284 25.6327 94.6706 25.6327C94.4769 25.6075 94.2801 25.6229 94.0927 25.6779C93.9053 25.733 93.7315 25.8265 93.5824 25.9525C93.4524 26.1025 93.3537 26.277 93.2921 26.4657C93.2305 26.6543 93.2073 26.8533 93.2237 27.0511C93.2743 33.3736 93.2743 39.5831 93.2237 45.5114C93.2067 45.7143 93.2305 45.9186 93.2938 46.1123C93.357 46.3059 93.4584 46.4849 93.5921 46.6388C93.7384 46.7628 93.9091 46.8551 94.0931 46.9097C94.2771 46.9644 94.4705 46.9802 94.6609 46.9562C94.7467 46.9512 94.8327 46.9512 94.9185 46.9562C94.9956 46.9562 95.0822 46.9706 95.1713 46.9706C95.4796 46.9862 95.7821 46.8829 96.0163 46.6821C96.1552 46.5343 96.2605 46.3584 96.3253 46.1664C96.3901 45.9743 96.4128 45.7706 96.3919 45.5691C96.3654 43.2756 96.3702 40.9414 96.3726 38.6864C96.3726 37.8851 96.3726 37.0773 96.3726 36.2632C96.3726 35.4242 96.3726 34.5804 96.3726 33.7438C96.3726 31.5466 96.3558 29.2724 96.4039 27.0415C96.4238 26.8461 96.4035 26.6488 96.3443 26.4615C96.2851 26.2742 96.1882 26.101 96.0596 25.9525C95.7202 25.6183 95.2845 25.6279 94.9282 25.6327Z" fill="white"/>
<path d="M94.7139 18.2981C94.0543 18.327 92.9517 18.6948 92.9998 20.8344C93.0407 22.8249 94.1433 23.1206 94.7957 23.1206C95.6793 23.1206 96.6326 22.5027 96.6591 20.7695C96.6711 19.8944 96.44 19.2021 95.9946 18.7693C95.8259 18.6059 95.6247 18.4796 95.4042 18.3985C95.1836 18.3173 94.9485 18.2831 94.7139 18.2981Z" fill="white"/>
<path d="M175.824 30.7028C175.822 30.6461 175.813 30.5897 175.8 30.5345C175.1 27.3204 173.246 25.6688 169.969 25.3419C167.702 25.1183 165.444 25.4717 163.065 26.4261L162.757 26.5463C162.218 26.7578 161.89 26.8852 161.741 27.2506C161.592 27.616 161.741 27.8997 161.864 28.193C161.924 28.3252 161.999 28.4911 162.076 28.7051C162.122 28.8774 162.205 29.0377 162.32 29.175C162.434 29.3123 162.576 29.4234 162.738 29.5008C162.911 29.5558 163.094 29.5728 163.274 29.5509C163.454 29.5289 163.628 29.4683 163.782 29.3734C165.728 28.4118 167.584 28.0247 169.457 28.1714C171.178 28.318 172.167 29.133 172.671 30.7773C172.938 31.6668 172.964 32.5947 172.991 33.578V33.9169V33.965H172.897C172.343 33.9866 171.777 33.9963 171.229 34.0035C169.928 34.0013 168.628 34.0728 167.336 34.2174C165.805 34.417 163.826 34.804 162.109 36.0396C160.152 37.4508 159.346 39.4918 159.702 42.1073C160.044 44.5594 161.476 46.2542 163.737 46.8793C164.724 47.162 165.745 47.31 166.772 47.3192C169.204 47.3192 171.31 46.3792 173.056 44.5065L173.087 44.4729C173.109 44.6123 173.13 44.7541 173.15 44.896C173.39 46.5932 173.631 46.8192 175.299 46.9634C175.387 46.9721 175.475 46.962 175.558 46.9338C175.641 46.9056 175.717 46.8599 175.781 46.7999C175.845 46.7408 175.896 46.6691 175.932 46.5892C175.967 46.5094 175.985 46.4232 175.986 46.336V31.1403C175.99 30.9792 175.932 30.8225 175.824 30.7028ZM172.892 37.5373C172.892 37.6455 172.892 37.7513 172.892 37.8571C172.908 38.4385 172.872 39.0202 172.784 39.5952C172.276 42.3045 170.497 43.9776 167.776 44.307C166.977 44.4289 166.162 44.4094 165.369 44.2493C163.939 43.9175 163.113 43.0809 162.918 41.7636C162.742 40.5808 162.868 38.9797 164.466 38.0734C165.725 37.3522 167.177 37.1503 168.304 37.0517C169.168 36.9748 170.059 36.9291 170.918 36.8834C171.566 36.8498 172.235 36.8161 172.897 36.7681C172.881 37.0242 172.879 37.281 172.892 37.5373Z" fill="white"/>
<path d="M150.501 35.0588C150.497 34.2468 150.442 33.4358 150.335 32.6308C149.759 28.8805 147.496 26.2001 144.282 25.4621C139.937 24.4524 135.828 26.4669 134.058 30.4624C132.414 34.1741 132.339 37.9965 133.839 41.826C134.973 44.7277 137.262 46.5571 140.464 47.1148C141.331 47.2709 142.21 47.3513 143.091 47.3552C144.756 47.3537 146.409 47.0759 147.983 46.5331C149.716 45.9417 149.887 45.6508 149.636 43.706C149.627 43.6109 149.596 43.5193 149.545 43.4381C149.495 43.357 149.426 43.2884 149.345 43.2376C149.264 43.1868 149.173 43.1552 149.078 43.1451C148.982 43.135 148.886 43.1468 148.796 43.1795L148.471 43.2925C148.255 43.3694 148.04 43.4439 147.831 43.5329C145.926 44.2528 143.881 44.5275 141.853 44.3358C139.328 44.1171 137.65 42.8934 136.726 40.5567C136.328 39.5591 136.198 38.5037 136.064 37.3835C136.054 37.3182 136.048 37.2523 136.047 37.1863C136.095 37.1863 136.169 37.1863 136.271 37.1863C138.832 37.2104 141.437 37.2104 143.955 37.2104C145.693 37.2104 147.433 37.2104 149.174 37.2104C149.362 37.2278 149.552 37.207 149.731 37.1491C149.911 37.0913 150.077 36.9976 150.219 36.8738C150.335 36.7381 150.421 36.5802 150.473 36.4099C150.525 36.2395 150.542 36.0604 150.522 35.8834C150.513 35.6021 150.508 35.3305 150.501 35.0588ZM147.258 34.2751C145.968 34.2751 144.677 34.2751 143.387 34.2751H140.289C138.957 34.2751 137.583 34.2751 136.225 34.2751C136.446 32.9265 136.781 31.5225 137.669 30.3157C138.158 29.6728 138.781 29.1438 139.494 28.7652C140.208 28.3866 140.996 28.1676 141.803 28.1233C141.923 28.1233 142.044 28.1233 142.161 28.1233C142.793 28.1092 143.421 28.2241 144.007 28.461C144.593 28.6979 145.124 29.0517 145.568 29.5008C146.647 30.6379 147.159 32.0754 147.258 34.2751Z" fill="white"/>
</g>
<defs>
<clipPath id="clip0_4385_1271">
<rect width="156" height="39" fill="white" transform="translate(20 17)"/>
</clipPath>
</defs>
</svg>
