<svg width="196" height="73" viewBox="0 0 196 73" fill="none" xmlns="http://www.w3.org/2000/svg">
<rect width="196" height="73" fill=""/>
<g clip-path="url(#clip0_4385_1260)">
<path d="M86.2213 12C84.7581 14.5773 83.2844 17.1546 81.8423 19.7424C81.6817 19.9915 81.4515 20.1881 81.1802 20.3077C80.9089 20.4274 80.6084 20.4649 80.316 20.4156C78.0002 20.4156 75.6739 20.4156 73.3581 20.4156C72.3897 20.4156 72.1791 20.6471 72.6949 21.4676C73.8528 23.4137 74.9476 25.4019 76.1265 27.3375C76.343 27.6456 76.4592 28.0129 76.4592 28.3894C76.4592 28.7659 76.343 29.1333 76.1265 29.4414C70.2248 39.6453 64.337 49.8212 58.4634 59.9691C57.6739 61.3366 57.516 61.3261 56.7265 59.9691L34.5791 21.8568C33.6423 20.2578 33.7265 20.1106 35.6318 20.1106C37.737 20.1106 39.8423 20.1106 41.9476 20.1106C42.4221 20.072 42.8969 20.1819 43.3062 20.425C43.7155 20.6682 44.039 21.0325 44.2318 21.4676C48.2879 28.4806 52.3616 35.5287 56.4528 42.6118C56.7791 43.1589 56.9581 44.0741 57.5686 44.1056C58.1791 44.1372 58.4002 43.2115 58.716 42.675C64.5125 32.6674 70.309 22.6633 76.1055 12.6627L76.5265 12H86.2213Z" fill="white"/>
<path d="M91.5579 45.7151L86.6316 30.6511H88.7368L91.0842 38.0779C91.7263 40.1082 92.2842 41.9386 92.6947 43.7059C93.1158 41.9596 93.7474 40.0661 94.4105 38.099L96.9684 30.6511H99.0737L93.7053 45.7151H91.5579Z" fill="white"/>
<path d="M104.168 31.8609C104.173 32.0224 104.144 32.1832 104.083 32.3326C104.021 32.4821 103.929 32.6168 103.811 32.7281C103.694 32.8393 103.555 32.9245 103.402 32.9781C103.25 33.0317 103.087 33.0525 102.926 33.0391C102.768 33.042 102.61 33.0126 102.463 32.9526C102.316 32.8926 102.182 32.8032 102.071 32.69C101.96 32.5768 101.873 32.4421 101.815 32.2941C101.758 32.1461 101.731 31.988 101.737 31.8293C101.732 31.6665 101.761 31.5045 101.822 31.3532C101.882 31.2019 101.973 31.0645 102.088 30.9494C102.203 30.8342 102.341 30.7437 102.492 30.6834C102.643 30.6231 102.805 30.5942 102.968 30.5985C103.133 30.5936 103.296 30.6233 103.448 30.6858C103.601 30.7484 103.738 30.8423 103.851 30.9614C103.964 31.0806 104.051 31.2223 104.106 31.3773C104.16 31.5323 104.182 31.6971 104.168 31.8609ZM101.979 45.7151V34.901H103.947V45.7151H101.979Z" fill="white"/>
<path d="M107.684 44.6106L112.579 38.2357C113.053 37.6571 113.495 37.1838 113.989 36.5631H108.105V34.901H116.358V36.1318L111.526 42.4435C111.084 43.0432 110.632 43.5796 110.137 44.1372H116.453V45.7046H107.684V44.6106Z" fill="white"/>
<path d="M122.505 31.7978V34.901H125.326V36.3948H122.505V42.2331C122.505 43.5691 122.884 44.337 123.979 44.337C124.366 44.3444 124.752 44.2984 125.126 44.2003L125.211 45.6625C124.653 45.8569 124.064 45.9461 123.474 45.9255C123.084 45.9478 122.695 45.886 122.332 45.7444C121.968 45.6029 121.64 45.3848 121.368 45.105C120.773 44.2925 120.503 43.287 120.611 42.2857V36.3948H118.926V34.901H120.611V32.3027L122.505 31.7978Z" fill="white"/>
<path d="M130.179 40.6657C130.135 41.1664 130.2 41.6707 130.37 42.1436C130.541 42.6164 130.812 43.0465 131.166 43.4039C131.52 43.7613 131.947 44.0375 132.418 44.2132C132.889 44.3888 133.393 44.4598 133.895 44.4212C134.919 44.4492 135.939 44.2592 136.884 43.8637L137.221 45.2628C136.082 45.7401 134.855 45.9696 133.621 45.936C130.295 45.936 128.358 43.748 128.358 40.4869C128.358 37.2259 130.274 34.6591 133.432 34.6591C136.958 34.6591 137.895 37.7623 137.895 39.7505C137.891 40.0566 137.87 40.3622 137.832 40.6657H130.179ZM135.947 39.2561C135.947 38.0043 135.432 36.1003 133.221 36.1003C131.232 36.1003 130.358 37.9412 130.2 39.2561H135.947Z" fill="white"/>
<path d="M149.674 45.3154C148.68 45.7523 147.601 45.9642 146.516 45.936C145.79 45.9649 145.066 45.8399 144.392 45.5693C143.718 45.2987 143.109 44.8886 142.605 44.3659C142.101 43.8433 141.713 43.2199 141.468 42.5369C141.222 41.8538 141.123 41.1265 141.179 40.4027C141.144 39.6342 141.27 38.8668 141.551 38.1504C141.832 37.4339 142.26 36.7844 142.807 36.2438C143.355 35.7033 144.011 35.2838 144.731 35.0126C145.452 34.7414 146.221 34.6246 146.989 34.6696C147.931 34.6556 148.865 34.8458 149.726 35.2271L149.274 36.7419C148.569 36.3779 147.782 36.2004 146.989 36.2265C146.461 36.2138 145.935 36.3132 145.447 36.5181C144.96 36.723 144.521 37.0288 144.16 37.4154C143.799 37.8019 143.524 38.2605 143.353 38.7609C143.182 39.2613 143.119 39.7922 143.168 40.3186C143.121 40.8369 143.183 41.3593 143.352 41.8518C143.52 42.3444 143.79 42.7959 144.145 43.1771C144.499 43.5582 144.93 43.8604 145.409 44.0639C145.889 44.2674 146.406 44.3676 146.926 44.3581C147.76 44.3651 148.585 44.1816 149.337 43.8216L149.674 45.3154Z" fill="white"/>
<path d="M155.6 39.8557C155.863 39.477 156.242 39.0142 156.558 38.6355L159.716 34.901H162.095L157.884 39.3508L162.653 45.6625H160.316L156.579 40.4764L155.526 41.5915V45.6625H153.589V29.8832H155.526L155.6 39.8557Z" fill="white"/>
<path d="M88.1158 56.5397C88.6206 56.8459 89.199 57.0095 89.7895 57.0131C90.7474 57.0131 91.3053 56.5082 91.3053 55.7823C91.3053 55.0565 90.9158 54.7304 89.9368 54.3411C88.7579 53.9203 88.0316 53.2892 88.0316 52.2372C88.0484 51.952 88.1231 51.6732 88.2513 51.4178C88.3794 51.1624 88.5583 50.9358 88.7769 50.7517C88.9956 50.5676 89.2494 50.43 89.5231 50.3472C89.7967 50.2644 90.0843 50.2381 90.3684 50.2701C90.924 50.2464 91.4759 50.3698 91.9684 50.6277L91.7158 51.3851C91.29 51.1635 90.8169 51.048 90.3368 51.0485C89.3474 51.0485 88.979 51.6376 88.979 52.1005C88.979 52.7737 89.4105 53.1524 90.4105 53.489C91.6421 53.9624 92.2632 54.541 92.2632 55.593C92.2632 56.6449 91.4316 57.6969 89.7263 57.6969C89.0796 57.7008 88.4424 57.5416 87.8737 57.234L88.1158 56.5397Z" fill="white"/>
<path d="M102.737 53.9835C102.737 56.4766 101.221 57.8021 99.3684 57.8021C97.5158 57.8021 96.1053 56.3188 96.1053 54.1307C96.1053 51.9427 97.5263 50.3227 99.4631 50.3227C101.4 50.3227 102.737 51.8375 102.737 53.9835ZM97.1579 54.0781C97.1579 55.6245 97.9895 57.0131 99.4631 57.0131C100.937 57.0131 101.789 55.6455 101.789 54.0045C101.789 52.5738 101.032 51.0695 99.4737 51.0695C97.9158 51.0695 97.1579 52.5107 97.1579 54.0781Z" fill="white"/>
<path d="M106.947 50.4384H107.884V56.8974H110.979V57.6758H106.947V50.4384Z" fill="white"/>
<path d="M115.568 50.4384V54.7304C115.568 56.3504 116.295 57.0341 117.253 57.0341C118.211 57.0341 119.021 56.3293 119.021 54.7304V50.4384H119.968V54.6462C119.968 56.8658 118.789 57.8021 117.221 57.8021C115.653 57.8021 114.621 56.95 114.621 54.7093V50.4384H115.568Z" fill="white"/>
<path d="M125.968 51.2379H123.758V50.4384H129.126V51.2379H126.905V57.6758H125.968V51.2379Z" fill="white"/>
<path d="M133.863 50.4384V57.6758H132.947V50.4384H133.863Z" fill="white"/>
<path d="M144.695 53.9835C144.695 56.4766 143.179 57.8021 141.326 57.8021C139.474 57.8021 138.074 56.3188 138.074 54.1307C138.074 51.9427 139.505 50.3227 141.442 50.3227C143.379 50.3227 144.695 51.8375 144.695 53.9835ZM139.074 54.0781C139.074 55.6245 139.916 57.0131 141.379 57.0131C142.842 57.0131 143.705 55.6455 143.705 54.0045C143.705 52.5738 142.947 51.0695 141.389 51.0695C139.832 51.0695 139.074 52.5107 139.074 54.0781Z" fill="white"/>
<path d="M148.905 57.6758V50.4384H149.958L152.253 54.0781C152.736 54.8339 153.169 55.6211 153.547 56.4345C153.463 55.4667 153.442 54.5831 153.442 53.4575V50.4384H154.326V57.6758H153.379L151.084 54.0045C150.606 53.2274 150.174 52.423 149.789 51.5955C149.789 52.5002 149.863 53.3733 149.863 54.5726V57.6653L148.905 57.6758Z" fill="white"/>
<path d="M158.853 56.5397C159.357 56.8459 159.936 57.0095 160.526 57.0131C161.484 57.0131 162.042 56.5082 162.042 55.7823C162.042 55.0565 161.653 54.7304 160.674 54.3411C159.495 53.9203 158.768 53.2892 158.768 52.2372C158.785 51.952 158.86 51.6732 158.988 51.4178C159.116 51.1624 159.295 50.9358 159.514 50.7517C159.732 50.5676 159.986 50.43 160.26 50.3472C160.534 50.2644 160.821 50.2381 161.105 50.2701C161.661 50.2464 162.213 50.3698 162.705 50.6277L162.453 51.3851C162.027 51.1635 161.554 51.048 161.074 51.0485C160.084 51.0485 159.716 51.6376 159.716 52.1005C159.716 52.7737 160.147 53.1524 161.147 53.489C162.379 53.9624 163 54.541 163 55.593C163 56.6449 162.168 57.6969 160.463 57.6969C159.816 57.7008 159.179 57.5416 158.611 57.234L158.853 56.5397Z" fill="white"/>
</g>
<defs>
<clipPath id="clip0_4385_1260">
<rect width="129" height="49" fill="white" transform="translate(34 12)"/>
</clipPath>
</defs>
</svg>
