<svg width="100" height="91" viewBox="0 0 100 91" fill="none" xmlns="http://www.w3.org/2000/svg">
<path d="M77.7081 88.6618C77.4809 88.6618 77.2537 88.5936 77.0606 88.463C68.6946 82.8346 63.8613 74.4232 63.7932 65.3813C63.7875 64.8531 64.1453 64.3874 64.6565 64.2511L77.4127 60.8661C77.6058 60.815 77.8103 60.815 78.0091 60.8661L90.7653 64.2511C91.2765 64.3874 91.6286 64.8531 91.6286 65.3813C91.5661 74.4175 86.7272 82.8346 78.3612 88.463C78.1624 88.5936 77.9352 88.6618 77.7081 88.6618ZM66.1388 66.2617C66.491 73.9518 70.6597 81.1023 77.7081 86.0946C84.7564 81.1023 88.9251 73.9518 89.2773 66.2617L77.7081 63.189L66.1388 66.2617Z" fill="#6F63DE" stroke="#6F63DE" stroke-width="0.862069"/>
<line x1="2.58621" y1="16.4312" x2="93.9655" y2="16.4312" stroke="#6F63DE" stroke-width="2.58621"/>
<path d="M60.3448 79.7933C61.297 79.7933 62.069 79.0214 62.069 78.0692C62.069 77.1169 61.297 76.345 60.3448 76.345V79.7933ZM93.1034 61.6898C93.1034 62.6421 93.8754 63.414 94.8276 63.414C95.7798 63.414 96.5517 62.6421 96.5517 61.6898H93.1034ZM6.89655 6.51743H89.6552V3.06915H6.89655V6.51743ZM3.44827 72.8967V9.9657H-1.66893e-06V72.8967H3.44827ZM60.3448 78.0692C60.3448 76.345 60.3447 76.345 60.3445 76.345C60.3443 76.345 60.344 76.345 60.3435 76.345C60.3431 76.345 60.3426 76.345 60.3419 76.345C60.3413 76.345 60.3405 76.345 60.3397 76.345C60.3388 76.345 60.3379 76.345 60.3368 76.345C60.3357 76.345 60.3346 76.345 60.3333 76.345C60.332 76.345 60.3306 76.345 60.3291 76.345C60.3276 76.345 60.326 76.345 60.3243 76.345C60.3226 76.345 60.3208 76.345 60.3189 76.345C60.317 76.345 60.315 76.345 60.3129 76.345C60.3107 76.345 60.3085 76.345 60.3062 76.345C60.3038 76.345 60.3014 76.345 60.2989 76.345C60.2963 76.345 60.2937 76.345 60.2909 76.345C60.2882 76.345 60.2853 76.345 60.2824 76.345C60.2794 76.345 60.2763 76.345 60.2732 76.345C60.27 76.345 60.2667 76.345 60.2634 76.345C60.26 76.345 60.2565 76.345 60.2529 76.345C60.2493 76.345 60.2456 76.345 60.2419 76.345C60.2381 76.345 60.2342 76.345 60.2302 76.345C60.2262 76.345 60.2221 76.345 60.2179 76.345C60.2137 76.345 60.2094 76.345 60.205 76.345C60.2006 76.345 60.1961 76.345 60.1915 76.345C60.1868 76.345 60.1821 76.345 60.1773 76.345C60.1725 76.345 60.1676 76.345 60.1626 76.345C60.1576 76.345 60.1524 76.345 60.1472 76.345C60.142 76.345 60.1367 76.345 60.1312 76.345C60.1258 76.345 60.1203 76.345 60.1147 76.345C60.109 76.345 60.1033 76.345 60.0975 76.345C60.0916 76.345 60.0857 76.345 60.0797 76.345C60.0737 76.345 60.0675 76.345 60.0613 76.345C60.0551 76.345 60.0487 76.345 60.0423 76.345C60.0359 76.345 60.0293 76.345 60.0227 76.345C60.0161 76.345 60.0093 76.345 60.0025 76.345C59.9957 76.345 59.9887 76.345 59.9817 76.345C59.9747 76.345 59.9676 76.345 59.9603 76.345C59.9531 76.345 59.9458 76.345 59.9383 76.345C59.9309 76.345 59.9234 76.345 59.9158 76.345C59.9081 76.345 59.9004 76.345 59.8926 76.345C59.8848 76.345 59.8768 76.345 59.8688 76.345C59.8608 76.345 59.8527 76.345 59.8445 76.345C59.8362 76.345 59.8279 76.345 59.8195 76.345C59.8111 76.345 59.8026 76.345 59.794 76.345C59.7854 76.345 59.7767 76.345 59.7679 76.345C59.7591 76.345 59.7502 76.345 59.7412 76.345C59.7322 76.345 59.7231 76.345 59.7139 76.345C59.7047 76.345 59.6954 76.345 59.686 76.345C59.6766 76.345 59.6672 76.345 59.6576 76.345C59.648 76.345 59.6383 76.345 59.6286 76.345C59.6188 76.345 59.6089 76.345 59.5989 76.345C59.589 76.345 59.5789 76.345 59.5688 76.345C59.5586 76.345 59.5484 76.345 59.538 76.345C59.5277 76.345 59.5172 76.345 59.5067 76.345C59.4962 76.345 59.4855 76.345 59.4748 76.345C59.4641 76.345 59.4532 76.345 59.4423 76.345C59.4314 76.345 59.4204 76.345 59.4093 76.345C59.3982 76.345 59.387 76.345 59.3757 76.345C59.3644 76.345 59.353 76.345 59.3415 76.345C59.33 76.345 59.3184 76.345 59.3068 76.345C59.2951 76.345 59.2833 76.345 59.2715 76.345C59.2596 76.345 59.2477 76.345 59.2356 76.345C59.2236 76.345 59.2114 76.345 59.1992 76.345C59.1869 76.345 59.1746 76.345 59.1622 76.345C59.1498 76.345 59.1373 76.345 59.1247 76.345C59.112 76.345 59.0993 76.345 59.0866 76.345C59.0738 76.345 59.0609 76.345 59.0479 76.345C59.0349 76.345 59.0219 76.345 59.0087 76.345C58.9955 76.345 58.9823 76.345 58.9689 76.345C58.9556 76.345 58.9422 76.345 58.9286 76.345C58.9151 76.345 58.9015 76.345 58.8878 76.345C58.8741 76.345 58.8602 76.345 58.8464 76.345C58.8325 76.345 58.8185 76.345 58.8044 76.345C58.7903 76.345 58.7762 76.345 58.7619 76.345C58.7476 76.345 58.7333 76.345 58.7188 76.345C58.7044 76.345 58.6899 76.345 58.6753 76.345C58.6606 76.345 58.6459 76.345 58.6311 76.345C58.6163 76.345 58.6014 76.345 58.5865 76.345C58.5715 76.345 58.5564 76.345 58.5412 76.345C58.5261 76.345 58.5108 76.345 58.4955 76.345C58.4802 76.345 58.4647 76.345 58.4492 76.345C58.4337 76.345 58.4181 76.345 58.4024 76.345C58.3867 76.345 58.3709 76.345 58.355 76.345C58.3392 76.345 58.3232 76.345 58.3072 76.345C58.2911 76.345 58.275 76.345 58.2587 76.345C58.2425 76.345 58.2262 76.345 58.2098 76.345C58.1934 76.345 58.1769 76.345 58.1603 76.345C58.1438 76.345 58.1271 76.345 58.1103 76.345C58.0936 76.345 58.0767 76.345 58.0598 76.345C58.0429 76.345 58.0259 76.345 58.0088 76.345C57.9917 76.345 57.9745 76.345 57.9572 76.345C57.9399 76.345 57.9226 76.345 57.9051 76.345C57.8877 76.345 57.8701 76.345 57.8525 76.345C57.8349 76.345 57.8172 76.345 57.7994 76.345C57.7816 76.345 57.7637 76.345 57.7457 76.345C57.7278 76.345 57.7097 76.345 57.6916 76.345C57.6734 76.345 57.6552 76.345 57.6369 76.345C57.6186 76.345 57.6002 76.345 57.5817 76.345C57.5633 76.345 57.5447 76.345 57.526 76.345C57.5074 76.345 57.4887 76.345 57.4698 76.345C57.451 76.345 57.4321 76.345 57.4131 76.345C57.3941 76.345 57.3751 76.345 57.3559 76.345C57.3367 76.345 57.3175 76.345 57.2982 76.345C57.2788 76.345 57.2594 76.345 57.2399 76.345C57.2205 76.345 57.2009 76.345 57.1812 76.345C57.1615 76.345 57.1418 76.345 57.122 76.345C57.1021 76.345 57.0822 76.345 57.0622 76.345C57.0423 76.345 57.0222 76.345 57.002 76.345C56.9819 76.345 56.9616 76.345 56.9413 76.345C56.921 76.345 56.9005 76.345 56.8801 76.345C56.8596 76.345 56.839 76.345 56.8183 76.345C56.7977 76.345 56.7769 76.345 56.7561 76.345C56.7353 76.345 56.7144 76.345 56.6934 76.345C56.6724 76.345 56.6514 76.345 56.6302 76.345C56.6091 76.345 56.5878 76.345 56.5665 76.345C56.5452 76.345 56.5238 76.345 56.5024 76.345C56.4809 76.345 56.4593 76.345 56.4377 76.345C56.4161 76.345 56.3944 76.345 56.3726 76.345C56.3508 76.345 56.3289 76.345 56.3069 76.345C56.285 76.345 56.263 76.345 56.2408 76.345C56.2187 76.345 56.1965 76.345 56.1742 76.345C56.152 76.345 56.1296 76.345 56.1072 76.345C56.0847 76.345 56.0622 76.345 56.0396 76.345C56.017 76.345 55.9944 76.345 55.9716 76.345C55.9489 76.345 55.926 76.345 55.9031 76.345C55.8802 76.345 55.8572 76.345 55.8341 76.345C55.8111 76.345 55.7879 76.345 55.7647 76.345C55.7415 76.345 55.7182 76.345 55.6948 76.345C55.6714 76.345 55.6479 76.345 55.6244 76.345C55.6009 76.345 55.5772 76.345 55.5536 76.345C55.5299 76.345 55.5061 76.345 55.4822 76.345C55.4584 76.345 55.4345 76.345 55.4104 76.345C55.3864 76.345 55.3624 76.345 55.3382 76.345C55.314 76.345 55.2898 76.345 55.2655 76.345C55.2412 76.345 55.2168 76.345 55.1923 76.345C55.1678 76.345 55.1433 76.345 55.1187 76.345C55.0941 76.345 55.0694 76.345 55.0446 76.345C55.0198 76.345 54.995 76.345 54.97 76.345C54.9451 76.345 54.9201 76.345 54.895 76.345C54.87 76.345 54.8448 76.345 54.8196 76.345C54.7944 76.345 54.7691 76.345 54.7437 76.345C54.7183 76.345 54.6928 76.345 54.6673 76.345C54.6418 76.345 54.6162 76.345 54.5905 76.345C54.5648 76.345 54.5391 76.345 54.5132 76.345C54.4874 76.345 54.4615 76.345 54.4355 76.345C54.4095 76.345 54.3835 76.345 54.3574 76.345C54.3312 76.345 54.305 76.345 54.2788 76.345C54.2525 76.345 54.2262 76.345 54.1997 76.345C54.1733 76.345 54.1468 76.345 54.1202 76.345C54.0937 76.345 54.067 76.345 54.0403 76.345C54.0136 76.345 53.9868 76.345 53.96 76.345C53.9331 76.345 53.9062 76.345 53.8792 76.345C53.8521 76.345 53.8251 76.345 53.7979 76.345C53.7708 76.345 53.7435 76.345 53.7162 76.345C53.6889 76.345 53.6616 76.345 53.6341 76.345C53.6067 76.345 53.5792 76.345 53.5516 76.345C53.524 76.345 53.4963 76.345 53.4686 76.345C53.4409 76.345 53.4131 76.345 53.3852 76.345C53.3573 76.345 53.3294 76.345 53.3014 76.345C53.2734 76.345 53.2453 76.345 53.2171 76.345C53.189 76.345 53.1608 76.345 53.1325 76.345C53.1042 76.345 53.0758 76.345 53.0474 76.345C53.0189 76.345 52.9904 76.345 52.9618 76.345C52.9333 76.345 52.9046 76.345 52.8759 76.345C52.8472 76.345 52.8184 76.345 52.7895 76.345C52.7607 76.345 52.7317 76.345 52.7027 76.345C52.6737 76.345 52.6447 76.345 52.6155 76.345C52.5864 76.345 52.5572 76.345 52.5279 76.345C52.4986 76.345 52.4693 76.345 52.4399 76.345C52.4105 76.345 52.381 76.345 52.3514 76.345C52.3219 76.345 52.2923 76.345 52.2626 76.345C52.2329 76.345 52.2031 76.345 52.1733 76.345C52.1435 76.345 52.1136 76.345 52.0836 76.345C52.0537 76.345 52.0236 76.345 51.9935 76.345C51.9635 76.345 51.9333 76.345 51.9031 76.345C51.8728 76.345 51.8425 76.345 51.8122 76.345C51.7818 76.345 51.7514 76.345 51.7209 76.345C51.6904 76.345 51.6598 76.345 51.6292 76.345C51.5985 76.345 51.5678 76.345 51.5371 76.345C51.5063 76.345 51.4755 76.345 51.4446 76.345C51.4137 76.345 51.3827 76.345 51.3517 76.345C51.3206 76.345 51.2895 76.345 51.2584 76.345C51.2272 76.345 51.196 76.345 51.1647 76.345C51.1334 76.345 51.102 76.345 51.0706 76.345C51.0392 76.345 51.0077 76.345 50.9761 76.345C50.9446 76.345 50.913 76.345 50.8813 76.345C50.8496 76.345 50.8178 76.345 50.786 76.345C50.7542 76.345 50.7223 76.345 50.6904 76.345C50.6584 76.345 50.6264 76.345 50.5944 76.345C50.5623 76.345 50.5302 76.345 50.498 76.345C50.4657 76.345 50.4335 76.345 50.4012 76.345C50.3688 76.345 50.3364 76.345 50.304 76.345C50.2715 76.345 50.239 76.345 50.2064 76.345C50.1738 76.345 50.1412 76.345 50.1085 76.345C50.0758 76.345 50.043 76.345 50.0102 76.345C49.9773 76.345 49.9444 76.345 49.9115 76.345C49.8785 76.345 49.8455 76.345 49.8124 76.345C49.7793 76.345 49.7462 76.345 49.713 76.345C49.6797 76.345 49.6465 76.345 49.6131 76.345C49.5798 76.345 49.5464 76.345 49.513 76.345C49.4795 76.345 49.446 76.345 49.4124 76.345C49.3788 76.345 49.3452 76.345 49.3115 76.345C49.2778 76.345 49.244 76.345 49.2102 76.345C49.1763 76.345 49.1425 76.345 49.1085 76.345C49.0746 76.345 49.0406 76.345 49.0065 76.345C48.9724 76.345 48.9383 76.345 48.9041 76.345C48.8699 76.345 48.8357 76.345 48.8014 76.345C48.767 76.345 48.7327 76.345 48.6982 76.345C48.6638 76.345 48.6293 76.345 48.5948 76.345C48.5602 76.345 48.5256 76.345 48.491 76.345C48.4563 76.345 48.4216 76.345 48.3868 76.345C48.352 76.345 48.3171 76.345 48.2822 76.345C48.2473 76.345 48.2124 76.345 48.1773 76.345C48.1423 76.345 48.1072 76.345 48.0721 76.345C48.037 76.345 48.0018 76.345 47.9665 76.345C47.9313 76.345 47.8959 76.345 47.8606 76.345C47.8252 76.345 47.7898 76.345 47.7543 76.345C47.7188 76.345 47.6833 76.345 47.6476 76.345C47.612 76.345 47.5764 76.345 47.5407 76.345C47.505 76.345 47.4692 76.345 47.4333 76.345C47.3975 76.345 47.3616 76.345 47.3257 76.345C47.2897 76.345 47.2537 76.345 47.2177 76.345C47.1816 76.345 47.1455 76.345 47.1093 76.345C47.0732 76.345 47.0369 76.345 47.0006 76.345C46.9644 76.345 46.928 76.345 46.8916 76.345C46.8552 76.345 46.8188 76.345 46.7823 76.345C46.7458 76.345 46.7092 76.345 46.6726 76.345C46.6359 76.345 46.5993 76.345 46.5625 76.345C46.5258 76.345 46.489 76.345 46.4522 76.345C46.4153 76.345 46.3785 76.345 46.3415 76.345C46.3046 76.345 46.2676 76.345 46.2305 76.345C46.1934 76.345 46.1563 76.345 46.1192 76.345C46.082 76.345 46.0448 76.345 46.0075 76.345C45.9702 76.345 45.9329 76.345 45.8955 76.345C45.8581 76.345 45.8207 76.345 45.7832 76.345C45.7457 76.345 45.7081 76.345 45.6705 76.345C45.6329 76.345 45.5953 76.345 45.5576 76.345C45.5199 76.345 45.4821 76.345 45.4443 76.345C45.4065 76.345 45.3686 76.345 45.3307 76.345C45.2928 76.345 45.2548 76.345 45.2168 76.345C45.1788 76.345 45.1407 76.345 45.1026 76.345C45.0645 76.345 45.0263 76.345 44.9881 76.345C44.9498 76.345 44.9115 76.345 44.8732 76.345C44.8349 76.345 44.7965 76.345 44.7581 76.345C44.7196 76.345 44.6811 76.345 44.6426 76.345C44.604 76.345 44.5655 76.345 44.5268 76.345C44.4882 76.345 44.4495 76.345 44.4107 76.345C44.372 76.345 44.3332 76.345 44.2943 76.345C44.2555 76.345 44.2166 76.345 44.1777 76.345C44.1387 76.345 44.0997 76.345 44.0607 76.345C44.0216 76.345 43.9825 76.345 43.9434 76.345C43.9042 76.345 43.865 76.345 43.8258 76.345C43.7865 76.345 43.7472 76.345 43.7079 76.345C43.6686 76.345 43.6292 76.345 43.5897 76.345C43.5503 76.345 43.5108 76.345 43.4712 76.345C43.4317 76.345 43.3921 76.345 43.3525 76.345C43.3128 76.345 43.2731 76.345 43.2334 76.345C43.1936 76.345 43.1539 76.345 43.114 76.345C43.0742 76.345 43.0343 76.345 42.9944 76.345C42.9544 76.345 42.9145 76.345 42.8744 76.345C42.8344 76.345 42.7943 76.345 42.7542 76.345C42.7141 76.345 42.6739 76.345 42.6337 76.345C42.5935 76.345 42.5532 76.345 42.5129 76.345C42.4726 76.345 42.4322 76.345 42.3918 76.345C42.3514 76.345 42.311 76.345 42.2705 76.345C42.23 76.345 42.1894 76.345 42.1488 76.345C42.1083 76.345 42.0676 76.345 42.0269 76.345C41.9862 76.345 41.9455 76.345 41.9047 76.345C41.864 76.345 41.8231 76.345 41.7823 76.345C41.7414 76.345 41.7005 76.345 41.6595 76.345C41.6186 76.345 41.5776 76.345 41.5365 76.345C41.4955 76.345 41.4544 76.345 41.4132 76.345C41.3721 76.345 41.3309 76.345 41.2897 76.345C41.2484 76.345 41.2071 76.345 41.1658 76.345C41.1245 76.345 41.0831 76.345 41.0417 76.345C41.0003 76.345 40.9589 76.345 40.9174 76.345C40.8759 76.345 40.8343 76.345 40.7927 76.345C40.7512 76.345 40.7095 76.345 40.6679 76.345C40.6262 76.345 40.5845 76.345 40.5427 76.345C40.5009 76.345 40.4591 76.345 40.4173 76.345C40.3754 76.345 40.3335 76.345 40.2916 76.345C40.2497 76.345 40.2077 76.345 40.1657 76.345C40.1237 76.345 40.0816 76.345 40.0395 76.345C39.9974 76.345 39.9552 76.345 39.9131 76.345C39.8709 76.345 39.8286 76.345 39.7864 76.345C39.7441 76.345 39.7018 76.345 39.6594 76.345C39.6171 76.345 39.5747 76.345 39.5322 76.345C39.4898 76.345 39.4473 76.345 39.4048 76.345C39.3622 76.345 39.3197 76.345 39.2771 76.345C39.2345 76.345 39.1918 76.345 39.1491 76.345C39.1064 76.345 39.0637 76.345 39.0209 76.345C38.9782 76.345 38.9354 76.345 38.8925 76.345C38.8497 76.345 38.8068 76.345 38.7638 76.345C38.7209 76.345 38.6779 76.345 38.6349 76.345C38.5919 76.345 38.5488 76.345 38.5058 76.345C38.4627 76.345 38.4195 76.345 38.3764 76.345C38.3332 76.345 38.29 76.345 38.2467 76.345C38.2035 76.345 38.1602 76.345 38.1169 76.345C38.0735 76.345 38.0302 76.345 37.9868 76.345C37.9433 76.345 37.8999 76.345 37.8564 76.345C37.8129 76.345 37.7694 76.345 37.7258 76.345C37.6823 76.345 37.6387 76.345 37.5951 76.345C37.5514 76.345 37.5077 76.345 37.464 76.345C37.4203 76.345 37.3766 76.345 37.3328 76.345C37.289 76.345 37.2452 76.345 37.2013 76.345C37.1574 76.345 37.1135 76.345 37.0696 76.345C37.0257 76.345 36.9817 76.345 36.9377 76.345C36.8936 76.345 36.8496 76.345 36.8055 76.345C36.7614 76.345 36.7173 76.345 36.6731 76.345C36.629 76.345 36.5848 76.345 36.5406 76.345C36.4963 76.345 36.452 76.345 36.4077 76.345C36.3634 76.345 36.3191 76.345 36.2747 76.345C36.2303 76.345 36.1859 76.345 36.1415 76.345C36.097 76.345 36.0525 76.345 36.008 76.345C35.9635 76.345 35.919 76.345 35.8744 76.345C35.8298 76.345 35.7851 76.345 35.7405 76.345C35.6958 76.345 35.6511 76.345 35.6064 76.345C35.5617 76.345 35.5169 76.345 35.4721 76.345C35.4273 76.345 35.3825 76.345 35.3376 76.345C35.2927 76.345 35.2478 76.345 35.2029 76.345C35.158 76.345 35.113 76.345 35.068 76.345C35.023 76.345 34.978 76.345 34.9329 76.345C34.8878 76.345 34.8427 76.345 34.7976 76.345C34.7524 76.345 34.7073 76.345 34.6621 76.345C34.6169 76.345 34.5716 76.345 34.5263 76.345C34.4811 76.345 34.4358 76.345 34.3904 76.345C34.3451 76.345 34.2997 76.345 34.2543 76.345C34.2089 76.345 34.1635 76.345 34.118 76.345C34.0726 76.345 34.0271 76.345 33.9815 76.345C33.936 76.345 33.8905 76.345 33.8449 76.345C33.7993 76.345 33.7536 76.345 33.708 76.345C33.6623 76.345 33.6166 76.345 33.5709 76.345C33.5252 76.345 33.4795 76.345 33.4337 76.345C33.3879 76.345 33.3421 76.345 33.2962 76.345C33.2504 76.345 33.2045 76.345 33.1586 76.345C33.1127 76.345 33.0668 76.345 33.0208 76.345C32.9749 76.345 32.9289 76.345 32.8828 76.345C32.8368 76.345 32.7908 76.345 32.7447 76.345C32.6986 76.345 32.6525 76.345 32.6063 76.345C32.5602 76.345 32.514 76.345 32.4678 76.345C32.4216 76.345 32.3754 76.345 32.3291 76.345C32.2829 76.345 32.2366 76.345 32.1902 76.345C32.1439 76.345 32.0976 76.345 32.0512 76.345C32.0048 76.345 31.9584 76.345 31.912 76.345C31.8655 76.345 31.8191 76.345 31.7726 76.345C31.7261 76.345 31.6796 76.345 31.633 76.345C31.5865 76.345 31.5399 76.345 31.4933 76.345C31.4467 76.345 31.4001 76.345 31.3534 76.345C31.3068 76.345 31.2601 76.345 31.2134 76.345C31.1666 76.345 31.1199 76.345 31.0731 76.345C31.0264 76.345 30.9796 76.345 30.9327 76.345C30.8859 76.345 30.8391 76.345 30.7922 76.345C30.7453 76.345 30.6984 76.345 30.6515 76.345C30.6046 76.345 30.5576 76.345 30.5106 76.345C30.4637 76.345 30.4166 76.345 30.3696 76.345C30.3226 76.345 30.2755 76.345 30.2284 76.345C30.1814 76.345 30.1342 76.345 30.0871 76.345C30.04 76.345 29.9928 76.345 29.9456 76.345C29.8984 76.345 29.8512 76.345 29.804 76.345C29.7568 76.345 29.7095 76.345 29.6622 76.345C29.6149 76.345 29.5676 76.345 29.5203 76.345C29.4729 76.345 29.4256 76.345 29.3782 76.345C29.3308 76.345 29.2834 76.345 29.236 76.345C29.1885 76.345 29.1411 76.345 29.0936 76.345C29.0461 76.345 28.9986 76.345 28.9511 76.345C28.9036 76.345 28.856 76.345 28.8084 76.345C28.7609 76.345 28.7133 76.345 28.6656 76.345C28.618 76.345 28.5704 76.345 28.5227 76.345C28.475 76.345 28.4273 76.345 28.3796 76.345C28.3319 76.345 28.2842 76.345 28.2364 76.345C28.1887 76.345 28.1409 76.345 28.0931 76.345C28.0453 76.345 27.9975 76.345 27.9496 76.345C27.9018 76.345 27.8539 76.345 27.806 76.345C27.7581 76.345 27.7102 76.345 27.6623 76.345C27.6143 76.345 27.5664 76.345 27.5184 76.345C27.4704 76.345 27.4224 76.345 27.3744 76.345C27.3264 76.345 27.2783 76.345 27.2303 76.345C27.1822 76.345 27.1341 76.345 27.086 76.345C27.0379 76.345 26.9898 76.345 26.9417 76.345C26.8935 76.345 26.8454 76.345 26.7972 76.345C26.749 76.345 26.7008 76.345 26.6526 76.345C26.6043 76.345 26.5561 76.345 26.5078 76.345C26.4596 76.345 26.4113 76.345 26.363 76.345C26.3147 76.345 26.2663 76.345 26.218 76.345C26.1697 76.345 26.1213 76.345 26.0729 76.345C26.0245 76.345 25.9761 76.345 25.9277 76.345C25.8793 76.345 25.8309 76.345 25.7824 76.345C25.734 76.345 25.6855 76.345 25.637 76.345C25.5885 76.345 25.54 76.345 25.4915 76.345C25.4429 76.345 25.3944 76.345 25.3458 76.345C25.2973 76.345 25.2487 76.345 25.2001 76.345C25.1515 76.345 25.1029 76.345 25.0542 76.345C25.0056 76.345 24.9569 76.345 24.9083 76.345C24.8596 76.345 24.8109 76.345 24.7622 76.345C24.7135 76.345 24.6648 76.345 24.616 76.345C24.5673 76.345 24.5185 76.345 24.4698 76.345C24.421 76.345 24.3722 76.345 24.3234 76.345C24.2746 76.345 24.2258 76.345 24.177 76.345C24.1281 76.345 24.0793 76.345 24.0304 76.345C23.9815 76.345 23.9327 76.345 23.8838 76.345C23.8349 76.345 23.7859 76.345 23.737 76.345C23.6881 76.345 23.6391 76.345 23.5902 76.345C23.5412 76.345 23.4922 76.345 23.4433 76.345C23.3943 76.345 23.3453 76.345 23.2962 76.345C23.2472 76.345 23.1982 76.345 23.1491 76.345C23.1001 76.345 23.051 76.345 23.002 76.345C22.9529 76.345 22.9038 76.345 22.8547 76.345C22.8056 76.345 22.7565 76.345 22.7073 76.345C22.6582 76.345 22.609 76.345 22.5599 76.345C22.5107 76.345 22.4616 76.345 22.4124 76.345C22.3632 76.345 22.314 76.345 22.2648 76.345C22.2156 76.345 22.1663 76.345 22.1171 76.345C22.0679 76.345 22.0186 76.345 21.9693 76.345C21.9201 76.345 21.8708 76.345 21.8215 76.345C21.7722 76.345 21.7229 76.345 21.6736 76.345C21.6243 76.345 21.575 76.345 21.5256 76.345C21.4763 76.345 21.427 76.345 21.3776 76.345C21.3282 76.345 21.2789 76.345 21.2295 76.345C21.1801 76.345 21.1307 76.345 21.0813 76.345C21.0319 76.345 20.9825 76.345 20.933 76.345C20.8836 76.345 20.8342 76.345 20.7847 76.345C20.7353 76.345 20.6858 76.345 20.6363 76.345C20.5869 76.345 20.5374 76.345 20.4879 76.345C20.4384 76.345 20.3889 76.345 20.3394 76.345C20.2899 76.345 20.2404 76.345 20.1908 76.345C20.1413 76.345 20.0918 76.345 20.0422 76.345C19.9927 76.345 19.9431 76.345 19.8935 76.345C19.844 76.345 19.7944 76.345 19.7448 76.345C19.6952 76.345 19.6456 76.345 19.596 76.345C19.5464 76.345 19.4968 76.345 19.4471 76.345C19.3975 76.345 19.3479 76.345 19.2983 76.345C19.2486 76.345 19.199 76.345 19.1493 76.345C19.0996 76.345 19.05 76.345 19.0003 76.345C18.9506 76.345 18.901 76.345 18.8513 76.345C18.8016 76.345 18.7519 76.345 18.7022 76.345C18.6525 76.345 18.6028 76.345 18.553 76.345C18.5033 76.345 18.4536 76.345 18.4039 76.345C18.3541 76.345 18.3044 76.345 18.2546 76.345C18.2049 76.345 18.1551 76.345 18.1054 76.345C18.0556 76.345 18.0059 76.345 17.9561 76.345C17.9063 76.345 17.8565 76.345 17.8067 76.345C17.757 76.345 17.7072 76.345 17.6574 76.345C17.6076 76.345 17.5578 76.345 17.508 76.345C17.4582 76.345 17.4083 76.345 17.3585 76.345C17.3087 76.345 17.2589 76.345 17.209 76.345C17.1592 76.345 17.1094 76.345 17.0595 76.345C17.0097 76.345 16.9599 76.345 16.91 76.345C16.8602 76.345 16.8103 76.345 16.7604 76.345C16.7106 76.345 16.6607 76.345 16.6108 76.345C16.561 76.345 16.5111 76.345 16.4612 76.345C16.4114 76.345 16.3615 76.345 16.3116 76.345C16.2617 76.345 16.2118 76.345 16.1619 76.345C16.112 76.345 16.0621 76.345 16.0122 76.345C15.9623 76.345 15.9124 76.345 15.8625 76.345C15.8126 76.345 15.7627 76.345 15.7128 76.345C15.6629 76.345 15.613 76.345 15.5631 76.345C15.5132 76.345 15.4632 76.345 15.4133 76.345C15.3634 76.345 15.3135 76.345 15.2635 76.345C15.2136 76.345 15.1637 76.345 15.1138 76.345C15.0638 76.345 15.0139 76.345 14.964 76.345C14.914 76.345 14.8641 76.345 14.8142 76.345C14.7642 76.345 14.7143 76.345 14.6643 76.345C14.6144 76.345 14.5645 76.345 14.5145 76.345C14.4646 76.345 14.4146 76.345 14.3647 76.345C14.3147 76.345 14.2648 76.345 14.2149 76.345C14.1649 76.345 14.115 76.345 14.065 76.345C14.0151 76.345 13.9651 76.345 13.9152 76.345C13.8652 76.345 13.8153 76.345 13.7653 76.345C13.7154 76.345 13.6655 76.345 13.6155 76.345C13.5656 76.345 13.5156 76.345 13.4657 76.345C13.4157 76.345 13.3658 76.345 13.3158 76.345C13.2659 76.345 13.216 76.345 13.166 76.345C13.1161 76.345 13.0661 76.345 13.0162 76.345C12.9663 76.345 12.9163 76.345 12.8664 76.345C12.8164 76.345 12.7665 76.345 12.7166 76.345C12.6666 76.345 12.6167 76.345 12.5668 76.345C12.5169 76.345 12.4669 76.345 12.417 76.345C12.3671 76.345 12.3172 76.345 12.2672 76.345C12.2173 76.345 12.1674 76.345 12.1175 76.345C12.0676 76.345 12.0177 76.345 11.9677 76.345C11.9178 76.345 11.8679 76.345 11.818 76.345C11.7681 76.345 11.7182 76.345 11.6683 76.345C11.6184 76.345 11.5685 76.345 11.5186 76.345C11.4687 76.345 11.4189 76.345 11.369 76.345C11.3191 76.345 11.2692 76.345 11.2193 76.345C11.1695 76.345 11.1196 76.345 11.0697 76.345C11.0199 76.345 10.97 76.345 10.9201 76.345C10.8703 76.345 10.8204 76.345 10.7706 76.345C10.7207 76.345 10.6709 76.345 10.6211 76.345C10.5712 76.345 10.5214 76.345 10.4716 76.345C10.4217 76.345 10.3719 76.345 10.3221 76.345C10.2723 76.345 10.2225 76.345 10.1726 76.345C10.1228 76.345 10.073 76.345 10.0232 76.345C9.97345 76.345 9.92366 76.345 9.87387 76.345C9.82409 76.345 9.77431 76.345 9.72454 76.345C9.67477 76.345 9.62501 76.345 9.57525 76.345C9.52549 76.345 9.47574 76.345 9.426 76.345C9.37625 76.345 9.32652 76.345 9.27679 76.345C9.22706 76.345 9.17733 76.345 9.12762 76.345C9.0779 76.345 9.02819 76.345 8.97849 76.345C8.92879 76.345 8.87909 76.345 8.82941 76.345C8.77972 76.345 8.73004 76.345 8.68037 76.345C8.6307 76.345 8.58104 76.345 8.53139 76.345C8.48173 76.345 8.43209 76.345 8.38245 76.345C8.33281 76.345 8.28318 76.345 8.23356 76.345C8.18394 76.345 8.13433 76.345 8.08473 76.345C8.03512 76.345 7.98553 76.345 7.93595 76.345C7.88636 76.345 7.83678 76.345 7.78722 76.345C7.73765 76.345 7.6881 76.345 7.63855 76.345C7.589 76.345 7.53946 76.345 7.48993 76.345C7.44041 76.345 7.39089 76.345 7.34138 76.345C7.29187 76.345 7.24237 76.345 7.19289 76.345C7.1434 76.345 7.09392 76.345 7.04445 76.345C6.99499 76.345 6.94553 76.345 6.89609 76.345V79.7933C6.94553 79.7933 6.99499 79.7933 7.04445 79.7933C7.09392 79.7933 7.1434 79.7933 7.19289 79.7933C7.24237 79.7933 7.29187 79.7933 7.34138 79.7933C7.39089 79.7933 7.44041 79.7933 7.48993 79.7933C7.53946 79.7933 7.589 79.7933 7.63855 79.7933C7.6881 79.7933 7.73765 79.7933 7.78722 79.7933C7.83678 79.7933 7.88636 79.7933 7.93595 79.7933C7.98553 79.7933 8.03512 79.7933 8.08473 79.7933C8.13433 79.7933 8.18394 79.7933 8.23356 79.7933C8.28318 79.7933 8.33281 79.7933 8.38245 79.7933C8.43209 79.7933 8.48173 79.7933 8.53139 79.7933C8.58104 79.7933 8.6307 79.7933 8.68037 79.7933C8.73004 79.7933 8.77972 79.7933 8.82941 79.7933C8.87909 79.7933 8.92879 79.7933 8.97849 79.7933C9.02819 79.7933 9.0779 79.7933 9.12762 79.7933C9.17733 79.7933 9.22706 79.7933 9.27679 79.7933C9.32652 79.7933 9.37625 79.7933 9.426 79.7933C9.47574 79.7933 9.52549 79.7933 9.57525 79.7933C9.62501 79.7933 9.67477 79.7933 9.72454 79.7933C9.77431 79.7933 9.82409 79.7933 9.87387 79.7933C9.92366 79.7933 9.97345 79.7933 10.0232 79.7933C10.073 79.7933 10.1228 79.7933 10.1726 79.7933C10.2225 79.7933 10.2723 79.7933 10.3221 79.7933C10.3719 79.7933 10.4217 79.7933 10.4716 79.7933C10.5214 79.7933 10.5712 79.7933 10.6211 79.7933C10.6709 79.7933 10.7207 79.7933 10.7706 79.7933C10.8204 79.7933 10.8703 79.7933 10.9201 79.7933C10.97 79.7933 11.0199 79.7933 11.0697 79.7933C11.1196 79.7933 11.1695 79.7933 11.2193 79.7933C11.2692 79.7933 11.3191 79.7933 11.369 79.7933C11.4189 79.7933 11.4687 79.7933 11.5186 79.7933C11.5685 79.7933 11.6184 79.7933 11.6683 79.7933C11.7182 79.7933 11.7681 79.7933 11.818 79.7933C11.8679 79.7933 11.9178 79.7933 11.9677 79.7933C12.0177 79.7933 12.0676 79.7933 12.1175 79.7933C12.1674 79.7933 12.2173 79.7933 12.2672 79.7933C12.3172 79.7933 12.3671 79.7933 12.417 79.7933C12.4669 79.7933 12.5169 79.7933 12.5668 79.7933C12.6167 79.7933 12.6666 79.7933 12.7166 79.7933C12.7665 79.7933 12.8164 79.7933 12.8664 79.7933C12.9163 79.7933 12.9663 79.7933 13.0162 79.7933C13.0661 79.7933 13.1161 79.7933 13.166 79.7933C13.216 79.7933 13.2659 79.7933 13.3158 79.7933C13.3658 79.7933 13.4157 79.7933 13.4657 79.7933C13.5156 79.7933 13.5656 79.7933 13.6155 79.7933C13.6655 79.7933 13.7154 79.7933 13.7653 79.7933C13.8153 79.7933 13.8652 79.7933 13.9152 79.7933C13.9651 79.7933 14.0151 79.7933 14.065 79.7933C14.115 79.7933 14.1649 79.7933 14.2149 79.7933C14.2648 79.7933 14.3147 79.7933 14.3647 79.7933C14.4146 79.7933 14.4646 79.7933 14.5145 79.7933C14.5645 79.7933 14.6144 79.7933 14.6643 79.7933C14.7143 79.7933 14.7642 79.7933 14.8142 79.7933C14.8641 79.7933 14.914 79.7933 14.964 79.7933C15.0139 79.7933 15.0638 79.7933 15.1138 79.7933C15.1637 79.7933 15.2136 79.7933 15.2635 79.7933C15.3135 79.7933 15.3634 79.7933 15.4133 79.7933C15.4632 79.7933 15.5132 79.7933 15.5631 79.7933C15.613 79.7933 15.6629 79.7933 15.7128 79.7933C15.7627 79.7933 15.8126 79.7933 15.8625 79.7933C15.9124 79.7933 15.9623 79.7933 16.0122 79.7933C16.0621 79.7933 16.112 79.7933 16.1619 79.7933C16.2118 79.7933 16.2617 79.7933 16.3116 79.7933C16.3615 79.7933 16.4114 79.7933 16.4612 79.7933C16.5111 79.7933 16.561 79.7933 16.6108 79.7933C16.6607 79.7933 16.7106 79.7933 16.7604 79.7933C16.8103 79.7933 16.8602 79.7933 16.91 79.7933C16.9599 79.7933 17.0097 79.7933 17.0595 79.7933C17.1094 79.7933 17.1592 79.7933 17.209 79.7933C17.2589 79.7933 17.3087 79.7933 17.3585 79.7933C17.4083 79.7933 17.4582 79.7933 17.508 79.7933C17.5578 79.7933 17.6076 79.7933 17.6574 79.7933C17.7072 79.7933 17.757 79.7933 17.8067 79.7933C17.8565 79.7933 17.9063 79.7933 17.9561 79.7933C18.0059 79.7933 18.0556 79.7933 18.1054 79.7933C18.1551 79.7933 18.2049 79.7933 18.2546 79.7933C18.3044 79.7933 18.3541 79.7933 18.4039 79.7933C18.4536 79.7933 18.5033 79.7933 18.553 79.7933C18.6028 79.7933 18.6525 79.7933 18.7022 79.7933C18.7519 79.7933 18.8016 79.7933 18.8513 79.7933C18.901 79.7933 18.9506 79.7933 19.0003 79.7933C19.05 79.7933 19.0996 79.7933 19.1493 79.7933C19.199 79.7933 19.2486 79.7933 19.2983 79.7933C19.3479 79.7933 19.3975 79.7933 19.4471 79.7933C19.4968 79.7933 19.5464 79.7933 19.596 79.7933C19.6456 79.7933 19.6952 79.7933 19.7448 79.7933C19.7944 79.7933 19.844 79.7933 19.8935 79.7933C19.9431 79.7933 19.9927 79.7933 20.0422 79.7933C20.0918 79.7933 20.1413 79.7933 20.1908 79.7933C20.2404 79.7933 20.2899 79.7933 20.3394 79.7933C20.3889 79.7933 20.4384 79.7933 20.4879 79.7933C20.5374 79.7933 20.5869 79.7933 20.6363 79.7933C20.6858 79.7933 20.7353 79.7933 20.7847 79.7933C20.8342 79.7933 20.8836 79.7933 20.933 79.7933C20.9825 79.7933 21.0319 79.7933 21.0813 79.7933C21.1307 79.7933 21.1801 79.7933 21.2295 79.7933C21.2789 79.7933 21.3282 79.7933 21.3776 79.7933C21.427 79.7933 21.4763 79.7933 21.5256 79.7933C21.575 79.7933 21.6243 79.7933 21.6736 79.7933C21.7229 79.7933 21.7722 79.7933 21.8215 79.7933C21.8708 79.7933 21.9201 79.7933 21.9693 79.7933C22.0186 79.7933 22.0679 79.7933 22.1171 79.7933C22.1663 79.7933 22.2156 79.7933 22.2648 79.7933C22.314 79.7933 22.3632 79.7933 22.4124 79.7933C22.4616 79.7933 22.5107 79.7933 22.5599 79.7933C22.609 79.7933 22.6582 79.7933 22.7073 79.7933C22.7565 79.7933 22.8056 79.7933 22.8547 79.7933C22.9038 79.7933 22.9529 79.7933 23.002 79.7933C23.051 79.7933 23.1001 79.7933 23.1491 79.7933C23.1982 79.7933 23.2472 79.7933 23.2962 79.7933C23.3453 79.7933 23.3943 79.7933 23.4433 79.7933C23.4922 79.7933 23.5412 79.7933 23.5902 79.7933C23.6391 79.7933 23.6881 79.7933 23.737 79.7933C23.7859 79.7933 23.8349 79.7933 23.8838 79.7933C23.9327 79.7933 23.9815 79.7933 24.0304 79.7933C24.0793 79.7933 24.1281 79.7933 24.177 79.7933C24.2258 79.7933 24.2746 79.7933 24.3234 79.7933C24.3722 79.7933 24.421 79.7933 24.4698 79.7933C24.5185 79.7933 24.5673 79.7933 24.616 79.7933C24.6648 79.7933 24.7135 79.7933 24.7622 79.7933C24.8109 79.7933 24.8596 79.7933 24.9083 79.7933C24.9569 79.7933 25.0056 79.7933 25.0542 79.7933C25.1029 79.7933 25.1515 79.7933 25.2001 79.7933C25.2487 79.7933 25.2973 79.7933 25.3458 79.7933C25.3944 79.7933 25.4429 79.7933 25.4915 79.7933C25.54 79.7933 25.5885 79.7933 25.637 79.7933C25.6855 79.7933 25.734 79.7933 25.7824 79.7933C25.8309 79.7933 25.8793 79.7933 25.9277 79.7933C25.9761 79.7933 26.0245 79.7933 26.0729 79.7933C26.1213 79.7933 26.1697 79.7933 26.218 79.7933C26.2663 79.7933 26.3147 79.7933 26.363 79.7933C26.4113 79.7933 26.4596 79.7933 26.5078 79.7933C26.5561 79.7933 26.6043 79.7933 26.6526 79.7933C26.7008 79.7933 26.749 79.7933 26.7972 79.7933C26.8454 79.7933 26.8935 79.7933 26.9417 79.7933C26.9898 79.7933 27.0379 79.7933 27.086 79.7933C27.1341 79.7933 27.1822 79.7933 27.2303 79.7933C27.2783 79.7933 27.3264 79.7933 27.3744 79.7933C27.4224 79.7933 27.4704 79.7933 27.5184 79.7933C27.5664 79.7933 27.6143 79.7933 27.6623 79.7933C27.7102 79.7933 27.7581 79.7933 27.806 79.7933C27.8539 79.7933 27.9018 79.7933 27.9496 79.7933C27.9975 79.7933 28.0453 79.7933 28.0931 79.7933C28.1409 79.7933 28.1887 79.7933 28.2364 79.7933C28.2842 79.7933 28.3319 79.7933 28.3796 79.7933C28.4273 79.7933 28.475 79.7933 28.5227 79.7933C28.5704 79.7933 28.618 79.7933 28.6656 79.7933C28.7133 79.7933 28.7609 79.7933 28.8084 79.7933C28.856 79.7933 28.9036 79.7933 28.9511 79.7933C28.9986 79.7933 29.0461 79.7933 29.0936 79.7933C29.1411 79.7933 29.1885 79.7933 29.236 79.7933C29.2834 79.7933 29.3308 79.7933 29.3782 79.7933C29.4256 79.7933 29.4729 79.7933 29.5203 79.7933C29.5676 79.7933 29.6149 79.7933 29.6622 79.7933C29.7095 79.7933 29.7568 79.7933 29.804 79.7933C29.8512 79.7933 29.8984 79.7933 29.9456 79.7933C29.9928 79.7933 30.04 79.7933 30.0871 79.7933C30.1342 79.7933 30.1814 79.7933 30.2284 79.7933C30.2755 79.7933 30.3226 79.7933 30.3696 79.7933C30.4166 79.7933 30.4637 79.7933 30.5106 79.7933C30.5576 79.7933 30.6046 79.7933 30.6515 79.7933C30.6984 79.7933 30.7453 79.7933 30.7922 79.7933C30.8391 79.7933 30.8859 79.7933 30.9327 79.7933C30.9796 79.7933 31.0264 79.7933 31.0731 79.7933C31.1199 79.7933 31.1666 79.7933 31.2134 79.7933C31.2601 79.7933 31.3068 79.7933 31.3534 79.7933C31.4001 79.7933 31.4467 79.7933 31.4933 79.7933C31.5399 79.7933 31.5865 79.7933 31.633 79.7933C31.6796 79.7933 31.7261 79.7933 31.7726 79.7933C31.8191 79.7933 31.8655 79.7933 31.912 79.7933C31.9584 79.7933 32.0048 79.7933 32.0512 79.7933C32.0976 79.7933 32.1439 79.7933 32.1902 79.7933C32.2366 79.7933 32.2829 79.7933 32.3291 79.7933C32.3754 79.7933 32.4216 79.7933 32.4678 79.7933C32.514 79.7933 32.5602 79.7933 32.6063 79.7933C32.6525 79.7933 32.6986 79.7933 32.7447 79.7933C32.7908 79.7933 32.8368 79.7933 32.8828 79.7933C32.9289 79.7933 32.9749 79.7933 33.0208 79.7933C33.0668 79.7933 33.1127 79.7933 33.1586 79.7933C33.2045 79.7933 33.2504 79.7933 33.2962 79.7933C33.3421 79.7933 33.3879 79.7933 33.4337 79.7933C33.4795 79.7933 33.5252 79.7933 33.5709 79.7933C33.6166 79.7933 33.6623 79.7933 33.708 79.7933C33.7536 79.7933 33.7993 79.7933 33.8449 79.7933C33.8905 79.7933 33.936 79.7933 33.9815 79.7933C34.0271 79.7933 34.0726 79.7933 34.118 79.7933C34.1635 79.7933 34.2089 79.7933 34.2543 79.7933C34.2997 79.7933 34.3451 79.7933 34.3904 79.7933C34.4358 79.7933 34.4811 79.7933 34.5263 79.7933C34.5716 79.7933 34.6169 79.7933 34.6621 79.7933C34.7073 79.7933 34.7524 79.7933 34.7976 79.7933C34.8427 79.7933 34.8878 79.7933 34.9329 79.7933C34.978 79.7933 35.023 79.7933 35.068 79.7933C35.113 79.7933 35.158 79.7933 35.2029 79.7933C35.2478 79.7933 35.2927 79.7933 35.3376 79.7933C35.3825 79.7933 35.4273 79.7933 35.4721 79.7933C35.5169 79.7933 35.5617 79.7933 35.6064 79.7933C35.6511 79.7933 35.6958 79.7933 35.7405 79.7933C35.7851 79.7933 35.8298 79.7933 35.8744 79.7933C35.919 79.7933 35.9635 79.7933 36.008 79.7933C36.0525 79.7933 36.097 79.7933 36.1415 79.7933C36.1859 79.7933 36.2303 79.7933 36.2747 79.7933C36.3191 79.7933 36.3634 79.7933 36.4077 79.7933C36.452 79.7933 36.4963 79.7933 36.5406 79.7933C36.5848 79.7933 36.629 79.7933 36.6731 79.7933C36.7173 79.7933 36.7614 79.7933 36.8055 79.7933C36.8496 79.7933 36.8936 79.7933 36.9377 79.7933C36.9817 79.7933 37.0257 79.7933 37.0696 79.7933C37.1135 79.7933 37.1574 79.7933 37.2013 79.7933C37.2452 79.7933 37.289 79.7933 37.3328 79.7933C37.3766 79.7933 37.4203 79.7933 37.464 79.7933C37.5077 79.7933 37.5514 79.7933 37.5951 79.7933C37.6387 79.7933 37.6823 79.7933 37.7258 79.7933C37.7694 79.7933 37.8129 79.7933 37.8564 79.7933C37.8999 79.7933 37.9433 79.7933 37.9868 79.7933C38.0302 79.7933 38.0735 79.7933 38.1169 79.7933C38.1602 79.7933 38.2035 79.7933 38.2467 79.7933C38.29 79.7933 38.3332 79.7933 38.3764 79.7933C38.4195 79.7933 38.4627 79.7933 38.5058 79.7933C38.5488 79.7933 38.5919 79.7933 38.6349 79.7933C38.6779 79.7933 38.7209 79.7933 38.7638 79.7933C38.8068 79.7933 38.8497 79.7933 38.8925 79.7933C38.9354 79.7933 38.9782 79.7933 39.0209 79.7933C39.0637 79.7933 39.1064 79.7933 39.1491 79.7933C39.1918 79.7933 39.2345 79.7933 39.2771 79.7933C39.3197 79.7933 39.3622 79.7933 39.4048 79.7933C39.4473 79.7933 39.4898 79.7933 39.5322 79.7933C39.5747 79.7933 39.6171 79.7933 39.6594 79.7933C39.7018 79.7933 39.7441 79.7933 39.7864 79.7933C39.8286 79.7933 39.8709 79.7933 39.9131 79.7933C39.9552 79.7933 39.9974 79.7933 40.0395 79.7933C40.0816 79.7933 40.1237 79.7933 40.1657 79.7933C40.2077 79.7933 40.2497 79.7933 40.2916 79.7933C40.3335 79.7933 40.3754 79.7933 40.4173 79.7933C40.4591 79.7933 40.5009 79.7933 40.5427 79.7933C40.5845 79.7933 40.6262 79.7933 40.6679 79.7933C40.7095 79.7933 40.7512 79.7933 40.7927 79.7933C40.8343 79.7933 40.8759 79.7933 40.9174 79.7933C40.9589 79.7933 41.0003 79.7933 41.0417 79.7933C41.0831 79.7933 41.1245 79.7933 41.1658 79.7933C41.2071 79.7933 41.2484 79.7933 41.2897 79.7933C41.3309 79.7933 41.3721 79.7933 41.4132 79.7933C41.4544 79.7933 41.4955 79.7933 41.5365 79.7933C41.5776 79.7933 41.6186 79.7933 41.6595 79.7933C41.7005 79.7933 41.7414 79.7933 41.7823 79.7933C41.8231 79.7933 41.864 79.7933 41.9047 79.7933C41.9455 79.7933 41.9862 79.7933 42.0269 79.7933C42.0676 79.7933 42.1083 79.7933 42.1488 79.7933C42.1894 79.7933 42.23 79.7933 42.2705 79.7933C42.311 79.7933 42.3514 79.7933 42.3918 79.7933C42.4322 79.7933 42.4726 79.7933 42.5129 79.7933C42.5532 79.7933 42.5935 79.7933 42.6337 79.7933C42.6739 79.7933 42.7141 79.7933 42.7542 79.7933C42.7943 79.7933 42.8344 79.7933 42.8744 79.7933C42.9145 79.7933 42.9544 79.7933 42.9944 79.7933C43.0343 79.7933 43.0742 79.7933 43.114 79.7933C43.1539 79.7933 43.1936 79.7933 43.2334 79.7933C43.2731 79.7933 43.3128 79.7933 43.3525 79.7933C43.3921 79.7933 43.4317 79.7933 43.4712 79.7933C43.5108 79.7933 43.5503 79.7933 43.5897 79.7933C43.6292 79.7933 43.6686 79.7933 43.7079 79.7933C43.7472 79.7933 43.7865 79.7933 43.8258 79.7933C43.865 79.7933 43.9042 79.7933 43.9434 79.7933C43.9825 79.7933 44.0216 79.7933 44.0607 79.7933C44.0997 79.7933 44.1387 79.7933 44.1777 79.7933C44.2166 79.7933 44.2555 79.7933 44.2943 79.7933C44.3332 79.7933 44.372 79.7933 44.4107 79.7933C44.4495 79.7933 44.4882 79.7933 44.5268 79.7933C44.5655 79.7933 44.604 79.7933 44.6426 79.7933C44.6811 79.7933 44.7196 79.7933 44.7581 79.7933C44.7965 79.7933 44.8349 79.7933 44.8732 79.7933C44.9115 79.7933 44.9498 79.7933 44.9881 79.7933C45.0263 79.7933 45.0645 79.7933 45.1026 79.7933C45.1407 79.7933 45.1788 79.7933 45.2168 79.7933C45.2548 79.7933 45.2928 79.7933 45.3307 79.7933C45.3686 79.7933 45.4065 79.7933 45.4443 79.7933C45.4821 79.7933 45.5199 79.7933 45.5576 79.7933C45.5953 79.7933 45.6329 79.7933 45.6705 79.7933C45.7081 79.7933 45.7457 79.7933 45.7832 79.7933C45.8207 79.7933 45.8581 79.7933 45.8955 79.7933C45.9329 79.7933 45.9702 79.7933 46.0075 79.7933C46.0448 79.7933 46.082 79.7933 46.1192 79.7933C46.1563 79.7933 46.1934 79.7933 46.2305 79.7933C46.2676 79.7933 46.3046 79.7933 46.3415 79.7933C46.3785 79.7933 46.4153 79.7933 46.4522 79.7933C46.489 79.7933 46.5258 79.7933 46.5625 79.7933C46.5993 79.7933 46.6359 79.7933 46.6726 79.7933C46.7092 79.7933 46.7458 79.7933 46.7823 79.7933C46.8188 79.7933 46.8552 79.7933 46.8916 79.7933C46.928 79.7933 46.9644 79.7933 47.0006 79.7933C47.0369 79.7933 47.0732 79.7933 47.1093 79.7933C47.1455 79.7933 47.1816 79.7933 47.2177 79.7933C47.2537 79.7933 47.2897 79.7933 47.3257 79.7933C47.3616 79.7933 47.3975 79.7933 47.4333 79.7933C47.4692 79.7933 47.505 79.7933 47.5407 79.7933C47.5764 79.7933 47.612 79.7933 47.6476 79.7933C47.6833 79.7933 47.7188 79.7933 47.7543 79.7933C47.7898 79.7933 47.8252 79.7933 47.8606 79.7933C47.8959 79.7933 47.9313 79.7933 47.9665 79.7933C48.0018 79.7933 48.037 79.7933 48.0721 79.7933C48.1072 79.7933 48.1423 79.7933 48.1773 79.7933C48.2124 79.7933 48.2473 79.7933 48.2822 79.7933C48.3171 79.7933 48.352 79.7933 48.3868 79.7933C48.4216 79.7933 48.4563 79.7933 48.491 79.7933C48.5256 79.7933 48.5602 79.7933 48.5948 79.7933C48.6293 79.7933 48.6638 79.7933 48.6982 79.7933C48.7327 79.7933 48.767 79.7933 48.8014 79.7933C48.8357 79.7933 48.8699 79.7933 48.9041 79.7933C48.9383 79.7933 48.9724 79.7933 49.0065 79.7933C49.0406 79.7933 49.0746 79.7933 49.1085 79.7933C49.1425 79.7933 49.1763 79.7933 49.2102 79.7933C49.244 79.7933 49.2778 79.7933 49.3115 79.7933C49.3452 79.7933 49.3788 79.7933 49.4124 79.7933C49.446 79.7933 49.4795 79.7933 49.513 79.7933C49.5464 79.7933 49.5798 79.7933 49.6131 79.7933C49.6465 79.7933 49.6797 79.7933 49.713 79.7933C49.7462 79.7933 49.7793 79.7933 49.8124 79.7933C49.8455 79.7933 49.8785 79.7933 49.9115 79.7933C49.9444 79.7933 49.9773 79.7933 50.0102 79.7933C50.043 79.7933 50.0758 79.7933 50.1085 79.7933C50.1412 79.7933 50.1738 79.7933 50.2064 79.7933C50.239 79.7933 50.2715 79.7933 50.304 79.7933C50.3364 79.7933 50.3688 79.7933 50.4012 79.7933C50.4335 79.7933 50.4657 79.7933 50.498 79.7933C50.5302 79.7933 50.5623 79.7933 50.5944 79.7933C50.6264 79.7933 50.6584 79.7933 50.6904 79.7933C50.7223 79.7933 50.7542 79.7933 50.786 79.7933C50.8178 79.7933 50.8496 79.7933 50.8813 79.7933C50.913 79.7933 50.9446 79.7933 50.9761 79.7933C51.0077 79.7933 51.0392 79.7933 51.0706 79.7933C51.102 79.7933 51.1334 79.7933 51.1647 79.7933C51.196 79.7933 51.2272 79.7933 51.2584 79.7933C51.2895 79.7933 51.3206 79.7933 51.3517 79.7933C51.3827 79.7933 51.4137 79.7933 51.4446 79.7933C51.4755 79.7933 51.5063 79.7933 51.5371 79.7933C51.5678 79.7933 51.5985 79.7933 51.6292 79.7933C51.6598 79.7933 51.6904 79.7933 51.7209 79.7933C51.7514 79.7933 51.7818 79.7933 51.8122 79.7933C51.8425 79.7933 51.8728 79.7933 51.9031 79.7933C51.9333 79.7933 51.9635 79.7933 51.9935 79.7933C52.0236 79.7933 52.0537 79.7933 52.0836 79.7933C52.1136 79.7933 52.1435 79.7933 52.1733 79.7933C52.2031 79.7933 52.2329 79.7933 52.2626 79.7933C52.2923 79.7933 52.3219 79.7933 52.3514 79.7933C52.381 79.7933 52.4105 79.7933 52.4399 79.7933C52.4693 79.7933 52.4986 79.7933 52.5279 79.7933C52.5572 79.7933 52.5864 79.7933 52.6155 79.7933C52.6447 79.7933 52.6737 79.7933 52.7027 79.7933C52.7317 79.7933 52.7607 79.7933 52.7895 79.7933C52.8184 79.7933 52.8472 79.7933 52.8759 79.7933C52.9046 79.7933 52.9333 79.7933 52.9618 79.7933C52.9904 79.7933 53.0189 79.7933 53.0474 79.7933C53.0758 79.7933 53.1042 79.7933 53.1325 79.7933C53.1608 79.7933 53.189 79.7933 53.2171 79.7933C53.2453 79.7933 53.2734 79.7933 53.3014 79.7933C53.3294 79.7933 53.3573 79.7933 53.3852 79.7933C53.4131 79.7933 53.4409 79.7933 53.4686 79.7933C53.4963 79.7933 53.524 79.7933 53.5516 79.7933C53.5792 79.7933 53.6067 79.7933 53.6341 79.7933C53.6616 79.7933 53.6889 79.7933 53.7162 79.7933C53.7435 79.7933 53.7708 79.7933 53.7979 79.7933C53.8251 79.7933 53.8521 79.7933 53.8792 79.7933C53.9062 79.7933 53.9331 79.7933 53.96 79.7933C53.9868 79.7933 54.0136 79.7933 54.0403 79.7933C54.067 79.7933 54.0937 79.7933 54.1202 79.7933C54.1468 79.7933 54.1733 79.7933 54.1997 79.7933C54.2262 79.7933 54.2525 79.7933 54.2788 79.7933C54.305 79.7933 54.3312 79.7933 54.3574 79.7933C54.3835 79.7933 54.4095 79.7933 54.4355 79.7933C54.4615 79.7933 54.4874 79.7933 54.5132 79.7933C54.5391 79.7933 54.5648 79.7933 54.5905 79.7933C54.6162 79.7933 54.6418 79.7933 54.6673 79.7933C54.6928 79.7933 54.7183 79.7933 54.7437 79.7933C54.7691 79.7933 54.7944 79.7933 54.8196 79.7933C54.8448 79.7933 54.87 79.7933 54.895 79.7933C54.9201 79.7933 54.9451 79.7933 54.97 79.7933C54.995 79.7933 55.0198 79.7933 55.0446 79.7933C55.0694 79.7933 55.0941 79.7933 55.1187 79.7933C55.1433 79.7933 55.1678 79.7933 55.1923 79.7933C55.2168 79.7933 55.2412 79.7933 55.2655 79.7933C55.2898 79.7933 55.314 79.7933 55.3382 79.7933C55.3624 79.7933 55.3864 79.7933 55.4104 79.7933C55.4345 79.7933 55.4584 79.7933 55.4822 79.7933C55.5061 79.7933 55.5299 79.7933 55.5536 79.7933C55.5772 79.7933 55.6009 79.7933 55.6244 79.7933C55.6479 79.7933 55.6714 79.7933 55.6948 79.7933C55.7182 79.7933 55.7415 79.7933 55.7647 79.7933C55.7879 79.7933 55.8111 79.7933 55.8341 79.7933C55.8572 79.7933 55.8802 79.7933 55.9031 79.7933C55.926 79.7933 55.9489 79.7933 55.9716 79.7933C55.9944 79.7933 56.017 79.7933 56.0396 79.7933C56.0622 79.7933 56.0847 79.7933 56.1072 79.7933C56.1296 79.7933 56.152 79.7933 56.1742 79.7933C56.1965 79.7933 56.2187 79.7933 56.2408 79.7933C56.263 79.7933 56.285 79.7933 56.3069 79.7933C56.3289 79.7933 56.3508 79.7933 56.3726 79.7933C56.3944 79.7933 56.4161 79.7933 56.4377 79.7933C56.4593 79.7933 56.4809 79.7933 56.5024 79.7933C56.5238 79.7933 56.5452 79.7933 56.5665 79.7933C56.5878 79.7933 56.6091 79.7933 56.6302 79.7933C56.6514 79.7933 56.6724 79.7933 56.6934 79.7933C56.7144 79.7933 56.7353 79.7933 56.7561 79.7933C56.7769 79.7933 56.7977 79.7933 56.8183 79.7933C56.839 79.7933 56.8596 79.7933 56.8801 79.7933C56.9005 79.7933 56.921 79.7933 56.9413 79.7933C56.9616 79.7933 56.9819 79.7933 57.002 79.7933C57.0222 79.7933 57.0423 79.7933 57.0622 79.7933C57.0822 79.7933 57.1021 79.7933 57.122 79.7933C57.1418 79.7933 57.1615 79.7933 57.1812 79.7933C57.2009 79.7933 57.2205 79.7933 57.2399 79.7933C57.2594 79.7933 57.2788 79.7933 57.2982 79.7933C57.3175 79.7933 57.3367 79.7933 57.3559 79.7933C57.3751 79.7933 57.3941 79.7933 57.4131 79.7933C57.4321 79.7933 57.451 79.7933 57.4698 79.7933C57.4887 79.7933 57.5074 79.7933 57.526 79.7933C57.5447 79.7933 57.5633 79.7933 57.5817 79.7933C57.6002 79.7933 57.6186 79.7933 57.6369 79.7933C57.6552 79.7933 57.6734 79.7933 57.6916 79.7933C57.7097 79.7933 57.7278 79.7933 57.7457 79.7933C57.7637 79.7933 57.7816 79.7933 57.7994 79.7933C57.8172 79.7933 57.8349 79.7933 57.8525 79.7933C57.8701 79.7933 57.8877 79.7933 57.9051 79.7933C57.9226 79.7933 57.9399 79.7933 57.9572 79.7933C57.9745 79.7933 57.9917 79.7933 58.0088 79.7933C58.0259 79.7933 58.0429 79.7933 58.0598 79.7933C58.0767 79.7933 58.0936 79.7933 58.1103 79.7933C58.1271 79.7933 58.1438 79.7933 58.1603 79.7933C58.1769 79.7933 58.1934 79.7933 58.2098 79.7933C58.2262 79.7933 58.2425 79.7933 58.2587 79.7933C58.275 79.7933 58.2911 79.7933 58.3072 79.7933C58.3232 79.7933 58.3392 79.7933 58.355 79.7933C58.3709 79.7933 58.3867 79.7933 58.4024 79.7933C58.4181 79.7933 58.4337 79.7933 58.4492 79.7933C58.4647 79.7933 58.4802 79.7933 58.4955 79.7933C58.5108 79.7933 58.5261 79.7933 58.5412 79.7933C58.5564 79.7933 58.5715 79.7933 58.5865 79.7933C58.6014 79.7933 58.6163 79.7933 58.6311 79.7933C58.6459 79.7933 58.6606 79.7933 58.6753 79.7933C58.6899 79.7933 58.7044 79.7933 58.7188 79.7933C58.7333 79.7933 58.7476 79.7933 58.7619 79.7933C58.7762 79.7933 58.7903 79.7933 58.8044 79.7933C58.8185 79.7933 58.8325 79.7933 58.8464 79.7933C58.8602 79.7933 58.8741 79.7933 58.8878 79.7933C58.9015 79.7933 58.9151 79.7933 58.9286 79.7933C58.9422 79.7933 58.9556 79.7933 58.9689 79.7933C58.9823 79.7933 58.9955 79.7933 59.0087 79.7933C59.0219 79.7933 59.0349 79.7933 59.0479 79.7933C59.0609 79.7933 59.0738 79.7933 59.0866 79.7933C59.0993 79.7933 59.112 79.7933 59.1247 79.7933C59.1373 79.7933 59.1498 79.7933 59.1622 79.7933C59.1746 79.7933 59.1869 79.7933 59.1992 79.7933C59.2114 79.7933 59.2236 79.7933 59.2356 79.7933C59.2477 79.7933 59.2596 79.7933 59.2715 79.7933C59.2833 79.7933 59.2951 79.7933 59.3068 79.7933C59.3184 79.7933 59.33 79.7933 59.3415 79.7933C59.353 79.7933 59.3644 79.7933 59.3757 79.7933C59.387 79.7933 59.3982 79.7933 59.4093 79.7933C59.4204 79.7933 59.4314 79.7933 59.4423 79.7933C59.4532 79.7933 59.4641 79.7933 59.4748 79.7933C59.4855 79.7933 59.4962 79.7933 59.5067 79.7933C59.5172 79.7933 59.5277 79.7933 59.538 79.7933C59.5484 79.7933 59.5586 79.7933 59.5688 79.7933C59.5789 79.7933 59.589 79.7933 59.5989 79.7933C59.6089 79.7933 59.6188 79.7933 59.6286 79.7933C59.6383 79.7933 59.648 79.7933 59.6576 79.7933C59.6672 79.7933 59.6766 79.7933 59.686 79.7933C59.6954 79.7933 59.7047 79.7933 59.7139 79.7933C59.7231 79.7933 59.7322 79.7933 59.7412 79.7933C59.7502 79.7933 59.7591 79.7933 59.7679 79.7933C59.7767 79.7933 59.7854 79.7933 59.794 79.7933C59.8026 79.7933 59.8111 79.7933 59.8195 79.7933C59.8279 79.7933 59.8362 79.7933 59.8445 79.7933C59.8527 79.7933 59.8608 79.7933 59.8688 79.7933C59.8768 79.7933 59.8848 79.7933 59.8926 79.7933C59.9004 79.7933 59.9081 79.7933 59.9158 79.7933C59.9234 79.7933 59.9309 79.7933 59.9383 79.7933C59.9458 79.7933 59.9531 79.7933 59.9603 79.7933C59.9676 79.7933 59.9747 79.7933 59.9817 79.7933C59.9887 79.7933 59.9957 79.7933 60.0025 79.7933C60.0093 79.7933 60.0161 79.7933 60.0227 79.7933C60.0293 79.7933 60.0359 79.7933 60.0423 79.7933C60.0487 79.7933 60.0551 79.7933 60.0613 79.7933C60.0675 79.7933 60.0737 79.7933 60.0797 79.7933C60.0857 79.7933 60.0916 79.7933 60.0975 79.7933C60.1033 79.7933 60.109 79.7933 60.1147 79.7933C60.1203 79.7933 60.1258 79.7933 60.1312 79.7933C60.1367 79.7933 60.142 79.7933 60.1472 79.7933C60.1524 79.7933 60.1576 79.7933 60.1626 79.7933C60.1676 79.7933 60.1725 79.7933 60.1773 79.7933C60.1821 79.7933 60.1868 79.7933 60.1915 79.7933C60.1961 79.7933 60.2006 79.7933 60.205 79.7933C60.2094 79.7933 60.2137 79.7933 60.2179 79.7933C60.2221 79.7933 60.2262 79.7933 60.2302 79.7933C60.2342 79.7933 60.2381 79.7933 60.2419 79.7933C60.2456 79.7933 60.2493 79.7933 60.2529 79.7933C60.2565 79.7933 60.26 79.7933 60.2634 79.7933C60.2667 79.7933 60.27 79.7933 60.2732 79.7933C60.2763 79.7933 60.2794 79.7933 60.2824 79.7933C60.2853 79.7933 60.2882 79.7933 60.2909 79.7933C60.2937 79.7933 60.2963 79.7933 60.2989 79.7933C60.3014 79.7933 60.3038 79.7933 60.3062 79.7933C60.3085 79.7933 60.3107 79.7933 60.3129 79.7933C60.315 79.7933 60.317 79.7933 60.3189 79.7933C60.3208 79.7933 60.3226 79.7933 60.3243 79.7933C60.326 79.7933 60.3276 79.7933 60.3291 79.7933C60.3306 79.7933 60.332 79.7933 60.3333 79.7933C60.3346 79.7933 60.3357 79.7933 60.3368 79.7933C60.3379 79.7933 60.3388 79.7933 60.3397 79.7933C60.3405 79.7933 60.3413 79.7933 60.3419 79.7933C60.3426 79.7933 60.3431 79.7933 60.3435 79.7933C60.344 79.7933 60.3443 79.7933 60.3445 79.7933C60.3447 79.7933 60.3448 79.7933 60.3448 78.0692ZM93.1034 9.9657V61.6898H96.5517V9.9657H93.1034ZM-1.66893e-06 72.8967C-1.66893e-06 76.7054 3.08702 79.7933 6.89609 79.7933V76.345C4.99186 76.345 3.44827 74.8014 3.44827 72.8967H-1.66893e-06ZM89.6552 6.51743C91.5596 6.51743 93.1034 8.06127 93.1034 9.9657H96.5517C96.5517 6.15684 93.464 3.06915 89.6552 3.06915V6.51743ZM6.89655 3.06915C3.08769 3.06915 -1.66893e-06 6.15684 -1.66893e-06 9.9657H3.44827C3.44827 8.06127 4.99212 6.51743 6.89655 6.51743V3.06915Z" fill="#6F63DE"/>
<circle cx="9.91379" cy="11.2588" r="2.15517" fill="#6F63DE"/>
<circle cx="17.6724" cy="11.2588" r="2.15517" fill="#6F63DE"/>
<circle cx="25.431" cy="11.2588" r="2.15517" fill="#6F63DE"/>
<path d="M48.2759 39.5634C56.4887 39.5634 63.1466 37.3441 63.1466 34.6065C63.1466 31.8689 56.4887 29.6496 48.2759 29.6496C40.063 29.6496 33.4052 31.8689 33.4052 34.6065C33.4052 37.3441 40.063 39.5634 48.2759 39.5634Z" stroke="#6F63DE" stroke-width="2.58621" stroke-linecap="round" stroke-linejoin="round"/>
<path d="M63.1466 46.1726C63.1466 48.9154 56.5374 51.1295 48.2759 51.1295C40.0144 51.1295 33.4052 48.9154 33.4052 46.1726" stroke="#6F63DE" stroke-width="2.58621" stroke-linecap="round" stroke-linejoin="round"/>
<path d="M33.4052 34.6065V57.7387C33.4052 60.4815 40.0144 62.6956 48.2759 62.6956C56.5374 62.6956 63.1466 60.4815 63.1466 57.7387V34.6065" stroke="#6F63DE" stroke-width="2.58621" stroke-linecap="round" stroke-linejoin="round"/>
</svg>
