<svg width="104" height="94" viewBox="0 0 104 94" fill="none" xmlns="http://www.w3.org/2000/svg">
<g clip-path="url(#clip0_2673_1147)">
<path d="M61.0337 58.2812C61.0337 59.6691 60.481 61.0002 59.4973 61.9816C58.5136 62.963 57.1794 63.5144 55.7883 63.5144C54.3971 63.5144 53.0629 62.963 52.0792 61.9816C51.0955 61.0002 50.5429 59.6691 50.5429 58.2812V46.0704M69.776 46.0704C69.3193 41.297 67.0957 36.8647 63.5393 33.6392C59.9829 30.4137 55.3492 28.6264 50.5429 28.6264C45.7366 28.6264 41.1028 30.4137 37.5465 33.6392C33.9901 36.8647 31.7665 41.297 31.3098 46.0704H69.776Z" stroke="#6F63DE" stroke-width="2.6837" stroke-linecap="round" stroke-linejoin="round"/>
<line x1="2.68372" y1="16.5497" x2="97.5075" y2="16.5497" stroke="#6F63DE" stroke-width="2.6837"/>
<path d="M62.6193 82.3C63.6074 82.3 64.4084 81.499 64.4084 80.5109C64.4084 79.5228 63.6074 78.7218 62.6193 78.7218V82.3ZM96.6127 63.5142C96.6127 64.5023 97.4137 65.3033 98.4018 65.3033C99.3899 65.3033 100.191 64.5023 100.191 63.5142H96.6127ZM7.15632 6.2621H93.0344V2.68383H7.15632V6.2621ZM3.57805 75.1435V9.84038H-0.000225782V75.1435H3.57805ZM62.6193 80.5109C62.6193 78.7218 62.6191 78.7218 62.6189 78.7218C62.6187 78.7218 62.6184 78.7218 62.6179 78.7218C62.6175 78.7218 62.6169 78.7218 62.6163 78.7218C62.6156 78.7218 62.6148 78.7218 62.6139 78.7218C62.613 78.7218 62.612 78.7218 62.6109 78.7218C62.6098 78.7218 62.6086 78.7218 62.6073 78.7218C62.606 78.7218 62.6045 78.7218 62.603 78.7218C62.6014 78.7218 62.5998 78.7218 62.598 78.7218C62.5962 78.7218 62.5944 78.7218 62.5924 78.7218C62.5904 78.7218 62.5883 78.7218 62.5861 78.7218C62.5839 78.7218 62.5816 78.7218 62.5792 78.7218C62.5767 78.7218 62.5742 78.7218 62.5716 78.7218C62.5689 78.7218 62.5662 78.7218 62.5633 78.7218C62.5605 78.7218 62.5575 78.7218 62.5544 78.7218C62.5514 78.7218 62.5482 78.7218 62.5449 78.7218C62.5416 78.7218 62.5382 78.7218 62.5347 78.7218C62.5312 78.7218 62.5276 78.7218 62.5239 78.7218C62.5202 78.7218 62.5163 78.7218 62.5124 78.7218C62.5085 78.7218 62.5044 78.7218 62.5003 78.7218C62.4961 78.7218 62.4919 78.7218 62.4875 78.7218C62.4832 78.7218 62.4787 78.7218 62.4741 78.7218C62.4696 78.7218 62.4649 78.7218 62.4601 78.7218C62.4553 78.7218 62.4504 78.7218 62.4454 78.7218C62.4404 78.7218 62.4353 78.7218 62.4301 78.7218C62.4249 78.7218 62.4196 78.7218 62.4142 78.7218C62.4088 78.7218 62.4032 78.7218 62.3976 78.7218C62.392 78.7218 62.3863 78.7218 62.3804 78.7218C62.3746 78.7218 62.3686 78.7218 62.3626 78.7218C62.3565 78.7218 62.3504 78.7218 62.3441 78.7218C62.3379 78.7218 62.3315 78.7218 62.325 78.7218C62.3186 78.7218 62.312 78.7218 62.3053 78.7218C62.2987 78.7218 62.2919 78.7218 62.285 78.7218C62.2781 78.7218 62.2711 78.7218 62.264 78.7218C62.2569 78.7218 62.2498 78.7218 62.2425 78.7218C62.2352 78.7218 62.2278 78.7218 62.2203 78.7218C62.2128 78.7218 62.2052 78.7218 62.1974 78.7218C62.1897 78.7218 62.1819 78.7218 62.174 78.7218C62.1661 78.7218 62.1581 78.7218 62.15 78.7218C62.1418 78.7218 62.1336 78.7218 62.1253 78.7218C62.117 78.7218 62.1086 78.7218 62.1 78.7218C62.0915 78.7218 62.0829 78.7218 62.0741 78.7218C62.0654 78.7218 62.0566 78.7218 62.0477 78.7218C62.0387 78.7218 62.0297 78.7218 62.0206 78.7218C62.0114 78.7218 62.0022 78.7218 61.9928 78.7218C61.9835 78.7218 61.9741 78.7218 61.9645 78.7218C61.955 78.7218 61.9454 78.7218 61.9356 78.7218C61.9259 78.7218 61.916 78.7218 61.9061 78.7218C61.8962 78.7218 61.8861 78.7218 61.876 78.7218C61.8658 78.7218 61.8556 78.7218 61.8453 78.7218C61.8349 78.7218 61.8245 78.7218 61.8139 78.7218C61.8034 78.7218 61.7928 78.7218 61.782 78.7218C61.7713 78.7218 61.7605 78.7218 61.7495 78.7218C61.7386 78.7218 61.7276 78.7218 61.7164 78.7218C61.7053 78.7218 61.6941 78.7218 61.6827 78.7218C61.6714 78.7218 61.66 78.7218 61.6485 78.7218C61.6369 78.7218 61.6253 78.7218 61.6136 78.7218C61.6019 78.7218 61.59 78.7218 61.5781 78.7218C61.5662 78.7218 61.5542 78.7218 61.5421 78.7218C61.53 78.7218 61.5177 78.7218 61.5054 78.7218C61.4931 78.7218 61.4807 78.7218 61.4682 78.7218C61.4557 78.7218 61.4431 78.7218 61.4304 78.7218C61.4177 78.7218 61.4049 78.7218 61.3921 78.7218C61.3792 78.7218 61.3662 78.7218 61.3531 78.7218C61.34 78.7218 61.3268 78.7218 61.3136 78.7218C61.3003 78.7218 61.2869 78.7218 61.2735 78.7218C61.26 78.7218 61.2464 78.7218 61.2328 78.7218C61.2191 78.7218 61.2054 78.7218 61.1915 78.7218C61.1777 78.7218 61.1637 78.7218 61.1497 78.7218C61.1356 78.7218 61.1215 78.7218 61.1073 78.7218C61.093 78.7218 61.0787 78.7218 61.0643 78.7218C61.0499 78.7218 61.0354 78.7218 61.0208 78.7218C61.0062 78.7218 60.9915 78.7218 60.9767 78.7218C60.9619 78.7218 60.947 78.7218 60.932 78.7218C60.917 78.7218 60.9019 78.7218 60.8868 78.7218C60.8716 78.7218 60.8563 78.7218 60.841 78.7218C60.8256 78.7218 60.8102 78.7218 60.7946 78.7218C60.7791 78.7218 60.7634 78.7218 60.7477 78.7218C60.732 78.7218 60.7161 78.7218 60.7002 78.7218C60.6843 78.7218 60.6683 78.7218 60.6522 78.7218C60.6361 78.7218 60.6199 78.7218 60.6036 78.7218C60.5873 78.7218 60.5709 78.7218 60.5545 78.7218C60.538 78.7218 60.5214 78.7218 60.5048 78.7218C60.4881 78.7218 60.4714 78.7218 60.4545 78.7218C60.4377 78.7218 60.4208 78.7218 60.4038 78.7218C60.3867 78.7218 60.3696 78.7218 60.3524 78.7218C60.3352 78.7218 60.3179 78.7218 60.3005 78.7218C60.2832 78.7218 60.2657 78.7218 60.2481 78.7218C60.2306 78.7218 60.2129 78.7218 60.1951 78.7218C60.1774 78.7218 60.1596 78.7218 60.1416 78.7218C60.1237 78.7218 60.1057 78.7218 60.0876 78.7218C60.0695 78.7218 60.0513 78.7218 60.033 78.7218C60.0147 78.7218 59.9963 78.7218 59.9779 78.7218C59.9594 78.7218 59.9408 78.7218 59.9222 78.7218C59.9036 78.7218 59.8848 78.7218 59.866 78.7218C59.8472 78.7218 59.8283 78.7218 59.8093 78.7218C59.7903 78.7218 59.7712 78.7218 59.752 78.7218C59.7328 78.7218 59.7136 78.7218 59.6942 78.7218C59.6749 78.7218 59.6554 78.7218 59.6359 78.7218C59.6164 78.7218 59.5967 78.7218 59.577 78.7218C59.5573 78.7218 59.5375 78.7218 59.5177 78.7218C59.4978 78.7218 59.4778 78.7218 59.4578 78.7218C59.4377 78.7218 59.4176 78.7218 59.3973 78.7218C59.3771 78.7218 59.3568 78.7218 59.3364 78.7218C59.316 78.7218 59.2955 78.7218 59.2749 78.7218C59.2544 78.7218 59.2337 78.7218 59.2129 78.7218C59.1922 78.7218 59.1714 78.7218 59.1504 78.7218C59.1295 78.7218 59.1085 78.7218 59.0874 78.7218C59.0663 78.7218 59.0452 78.7218 59.0239 78.7218C59.0026 78.7218 58.9813 78.7218 58.9598 78.7218C58.9384 78.7218 58.9169 78.7218 58.8953 78.7218C58.8737 78.7218 58.852 78.7218 58.8302 78.7218C58.8084 78.7218 58.7866 78.7218 58.7646 78.7218C58.7427 78.7218 58.7207 78.7218 58.6986 78.7218C58.6764 78.7218 58.6542 78.7218 58.632 78.7218C58.6097 78.7218 58.5873 78.7218 58.5649 78.7218C58.5424 78.7218 58.5199 78.7218 58.4973 78.7218C58.4747 78.7218 58.452 78.7218 58.4292 78.7218C58.4064 78.7218 58.3835 78.7218 58.3606 78.7218C58.3376 78.7218 58.3146 78.7218 58.2915 78.7218C58.2684 78.7218 58.2452 78.7218 58.2219 78.7218C58.1986 78.7218 58.1752 78.7218 58.1518 78.7218C58.1283 78.7218 58.1048 78.7218 58.0812 78.7218C58.0576 78.7218 58.0339 78.7218 58.0101 78.7218C57.9863 78.7218 57.9625 78.7218 57.9385 78.7218C57.9146 78.7218 57.8906 78.7218 57.8665 78.7218C57.8424 78.7218 57.8182 78.7218 57.7939 78.7218C57.7697 78.7218 57.7453 78.7218 57.7209 78.7218C57.6965 78.7218 57.672 78.7218 57.6474 78.7218C57.6228 78.7218 57.5981 78.7218 57.5734 78.7218C57.5486 78.7218 57.5238 78.7218 57.4989 78.7218C57.474 78.7218 57.449 78.7218 57.4239 78.7218C57.3988 78.7218 57.3737 78.7218 57.3485 78.7218C57.3232 78.7218 57.2979 78.7218 57.2725 78.7218C57.2471 78.7218 57.2217 78.7218 57.1961 78.7218C57.1706 78.7218 57.1449 78.7218 57.1192 78.7218C57.0935 78.7218 57.0677 78.7218 57.0419 78.7218C57.016 78.7218 56.9901 78.7218 56.9641 78.7218C56.938 78.7218 56.9119 78.7218 56.8857 78.7218C56.8596 78.7218 56.8333 78.7218 56.807 78.7218C56.7806 78.7218 56.7542 78.7218 56.7277 78.7218C56.7012 78.7218 56.6747 78.7218 56.648 78.7218C56.6214 78.7218 56.5947 78.7218 56.5679 78.7218C56.541 78.7218 56.5142 78.7218 56.4872 78.7218C56.4603 78.7218 56.4332 78.7218 56.4061 78.7218C56.379 78.7218 56.3518 78.7218 56.3246 78.7218C56.2973 78.7218 56.2699 78.7218 56.2425 78.7218C56.2151 78.7218 56.1876 78.7218 56.16 78.7218C56.1325 78.7218 56.1048 78.7218 56.0771 78.7218C56.0494 78.7218 56.0216 78.7218 55.9937 78.7218C55.9658 78.7218 55.9379 78.7218 55.9099 78.7218C55.8818 78.7218 55.8537 78.7218 55.8256 78.7218C55.7974 78.7218 55.7691 78.7218 55.7408 78.7218C55.7125 78.7218 55.6841 78.7218 55.6556 78.7218C55.6271 78.7218 55.5986 78.7218 55.57 78.7218C55.5413 78.7218 55.5126 78.7218 55.4839 78.7218C55.4551 78.7218 55.4262 78.7218 55.3973 78.7218C55.3684 78.7218 55.3394 78.7218 55.3103 78.7218C55.2813 78.7218 55.2521 78.7218 55.2229 78.7218C55.1937 78.7218 55.1644 78.7218 55.135 78.7218C55.1057 78.7218 55.0762 78.7218 55.0467 78.7218C55.0172 78.7218 54.9876 78.7218 54.958 78.7218C54.9283 78.7218 54.8986 78.7218 54.8688 78.7218C54.839 78.7218 54.8091 78.7218 54.7792 78.7218C54.7492 78.7218 54.7192 78.7218 54.6891 78.7218C54.659 78.7218 54.6288 78.7218 54.5986 78.7218C54.5684 78.7218 54.5381 78.7218 54.5077 78.7218C54.4773 78.7218 54.4469 78.7218 54.4163 78.7218C54.3858 78.7218 54.3552 78.7218 54.3246 78.7218C54.2939 78.7218 54.2632 78.7218 54.2324 78.7218C54.2015 78.7218 54.1707 78.7218 54.1397 78.7218C54.1088 78.7218 54.0778 78.7218 54.0467 78.7218C54.0156 78.7218 53.9844 78.7218 53.9532 78.7218C53.922 78.7218 53.8907 78.7218 53.8593 78.7218C53.8279 78.7218 53.7965 78.7218 53.765 78.7218C53.7335 78.7218 53.7019 78.7218 53.6702 78.7218C53.6386 78.7218 53.6069 78.7218 53.5751 78.7218C53.5433 78.7218 53.5114 78.7218 53.4795 78.7218C53.4476 78.7218 53.4156 78.7218 53.3835 78.7218C53.3515 78.7218 53.3193 78.7218 53.2871 78.7218C53.2549 78.7218 53.2227 78.7218 53.1903 78.7218C53.158 78.7218 53.1256 78.7218 53.0931 78.7218C53.0606 78.7218 53.0281 78.7218 52.9955 78.7218C52.9629 78.7218 52.9302 78.7218 52.8974 78.7218C52.8647 78.7218 52.8319 78.7218 52.799 78.7218C52.7661 78.7218 52.7332 78.7218 52.7002 78.7218C52.6671 78.7218 52.6341 78.7218 52.6009 78.7218C52.5678 78.7218 52.5345 78.7218 52.5013 78.7218C52.468 78.7218 52.4346 78.7218 52.4012 78.7218C52.3678 78.7218 52.3343 78.7218 52.3008 78.7218C52.2672 78.7218 52.2336 78.7218 52.1999 78.7218C52.1663 78.7218 52.1325 78.7218 52.0987 78.7218C52.0649 78.7218 52.031 78.7218 51.9971 78.7218C51.9631 78.7218 51.9291 78.7218 51.895 78.7218C51.861 78.7218 51.8268 78.7218 51.7926 78.7218C51.7584 78.7218 51.7242 78.7218 51.6898 78.7218C51.6555 78.7218 51.6211 78.7218 51.5866 78.7218C51.5522 78.7218 51.5176 78.7218 51.4831 78.7218C51.4485 78.7218 51.4138 78.7218 51.3791 78.7218C51.3444 78.7218 51.3096 78.7218 51.2747 78.7218C51.2399 78.7218 51.205 78.7218 51.17 78.7218C51.135 78.7218 51.1 78.7218 51.0649 78.7218C51.0298 78.7218 50.9946 78.7218 50.9594 78.7218C50.9242 78.7218 50.8889 78.7218 50.8535 78.7218C50.8182 78.7218 50.7828 78.7218 50.7473 78.7218C50.7118 78.7218 50.6763 78.7218 50.6407 78.7218C50.6051 78.7218 50.5694 78.7218 50.5337 78.7218C50.4979 78.7218 50.4622 78.7218 50.4263 78.7218C50.3905 78.7218 50.3545 78.7218 50.3186 78.7218C50.2826 78.7218 50.2466 78.7218 50.2105 78.7218C50.1744 78.7218 50.1382 78.7218 50.102 78.7218C50.0658 78.7218 50.0295 78.7218 49.9931 78.7218C49.9568 78.7218 49.9204 78.7218 49.8839 78.7218C49.8475 78.7218 49.8109 78.7218 49.7744 78.7218C49.7378 78.7218 49.7011 78.7218 49.6644 78.7218C49.6277 78.7218 49.591 78.7218 49.5541 78.7218C49.5173 78.7218 49.4804 78.7218 49.4435 78.7218C49.4065 78.7218 49.3695 78.7218 49.3325 78.7218C49.2954 78.7218 49.2583 78.7218 49.2211 78.7218C49.1839 78.7218 49.1467 78.7218 49.1094 78.7218C49.0721 78.7218 49.0347 78.7218 48.9973 78.7218C48.9599 78.7218 48.9224 78.7218 48.8849 78.7218C48.8473 78.7218 48.8097 78.7218 48.7721 78.7218C48.7344 78.7218 48.6967 78.7218 48.6589 78.7218C48.6212 78.7218 48.5834 78.7218 48.5455 78.7218C48.5076 78.7218 48.4696 78.7218 48.4316 78.7218C48.3936 78.7218 48.3556 78.7218 48.3175 78.7218C48.2794 78.7218 48.2412 78.7218 48.203 78.7218C48.1647 78.7218 48.1264 78.7218 48.0881 78.7218C48.0498 78.7218 48.0114 78.7218 47.9729 78.7218C47.9344 78.7218 47.8959 78.7218 47.8574 78.7218C47.8188 78.7218 47.7802 78.7218 47.7415 78.7218C47.7028 78.7218 47.6641 78.7218 47.6253 78.7218C47.5865 78.7218 47.5476 78.7218 47.5087 78.7218C47.4698 78.7218 47.4309 78.7218 47.3918 78.7218C47.3528 78.7218 47.3138 78.7218 47.2746 78.7218C47.2355 78.7218 47.1963 78.7218 47.1571 78.7218C47.1179 78.7218 47.0786 78.7218 47.0392 78.7218C46.9999 78.7218 46.9605 78.7218 46.921 78.7218C46.8816 78.7218 46.8421 78.7218 46.8025 78.7218C46.7629 78.7218 46.7233 78.7218 46.6836 78.7218C46.644 78.7218 46.6042 78.7218 46.5645 78.7218C46.5247 78.7218 46.4849 78.7218 46.445 78.7218C46.4051 78.7218 46.3651 78.7218 46.3251 78.7218C46.2852 78.7218 46.2451 78.7218 46.205 78.7218C46.1649 78.7218 46.1248 78.7218 46.0846 78.7218C46.0443 78.7218 46.0041 78.7218 45.9638 78.7218C45.9235 78.7218 45.8831 78.7218 45.8427 78.7218C45.8023 78.7218 45.7618 78.7218 45.7213 78.7218C45.6808 78.7218 45.6402 78.7218 45.5996 78.7218C45.559 78.7218 45.5183 78.7218 45.4776 78.7218C45.4368 78.7218 45.3961 78.7218 45.3552 78.7218C45.3144 78.7218 45.2735 78.7218 45.2326 78.7218C45.1917 78.7218 45.1507 78.7218 45.1096 78.7218C45.0686 78.7218 45.0275 78.7218 44.9864 78.7218C44.9452 78.7218 44.9041 78.7218 44.8628 78.7218C44.8216 78.7218 44.7803 78.7218 44.739 78.7218C44.6976 78.7218 44.6562 78.7218 44.6148 78.7218C44.5734 78.7218 44.5319 78.7218 44.4904 78.7218C44.4488 78.7218 44.4072 78.7218 44.3656 78.7218C44.324 78.7218 44.2823 78.7218 44.2405 78.7218C44.1988 78.7218 44.157 78.7218 44.1152 78.7218C44.0734 78.7218 44.0315 78.7218 43.9896 78.7218C43.9476 78.7218 43.9057 78.7218 43.8636 78.7218C43.8216 78.7218 43.7795 78.7218 43.7374 78.7218C43.6953 78.7218 43.6531 78.7218 43.6109 78.7218C43.5687 78.7218 43.5264 78.7218 43.4841 78.7218C43.4418 78.7218 43.3994 78.7218 43.357 78.7218C43.3146 78.7218 43.2721 78.7218 43.2296 78.7218C43.1871 78.7218 43.1446 78.7218 43.102 78.7218C43.0594 78.7218 43.0167 78.7218 42.974 78.7218C42.9314 78.7218 42.8886 78.7218 42.8458 78.7218C42.803 78.7218 42.7602 78.7218 42.7173 78.7218C42.6745 78.7218 42.6315 78.7218 42.5886 78.7218C42.5456 78.7218 42.5026 78.7218 42.4595 78.7218C42.4165 78.7218 42.3733 78.7218 42.3302 78.7218C42.287 78.7218 42.2438 78.7218 42.2006 78.7218C42.1573 78.7218 42.1141 78.7218 42.0707 78.7218C42.0274 78.7218 41.984 78.7218 41.9406 78.7218C41.8972 78.7218 41.8537 78.7218 41.8102 78.7218C41.7667 78.7218 41.7231 78.7218 41.6795 78.7218C41.6359 78.7218 41.5922 78.7218 41.5485 78.7218C41.5049 78.7218 41.4611 78.7218 41.4173 78.7218C41.3736 78.7218 41.3297 78.7218 41.2859 78.7218C41.242 78.7218 41.1981 78.7218 41.1541 78.7218C41.1102 78.7218 41.0662 78.7218 41.0221 78.7218C40.9781 78.7218 40.934 78.7218 40.8899 78.7218C40.8458 78.7218 40.8016 78.7218 40.7574 78.7218C40.7132 78.7218 40.6689 78.7218 40.6246 78.7218C40.5803 78.7218 40.536 78.7218 40.4916 78.7218C40.4472 78.7218 40.4028 78.7218 40.3583 78.7218C40.3139 78.7218 40.2693 78.7218 40.2248 78.7218C40.1802 78.7218 40.1357 78.7218 40.091 78.7218C40.0464 78.7218 40.0017 78.7218 39.957 78.7218C39.9123 78.7218 39.8675 78.7218 39.8227 78.7218C39.7779 78.7218 39.7331 78.7218 39.6882 78.7218C39.6433 78.7218 39.5984 78.7218 39.5534 78.7218C39.5085 78.7218 39.4635 78.7218 39.4184 78.7218C39.3734 78.7218 39.3283 78.7218 39.2832 78.7218C39.2381 78.7218 39.1929 78.7218 39.1477 78.7218C39.1025 78.7218 39.0572 78.7218 39.012 78.7218C38.9667 78.7218 38.9214 78.7218 38.876 78.7218C38.8306 78.7218 38.7852 78.7218 38.7398 78.7218C38.6944 78.7218 38.6489 78.7218 38.6034 78.7218C38.5578 78.7218 38.5123 78.7218 38.4667 78.7218C38.4211 78.7218 38.3755 78.7218 38.3298 78.7218C38.2841 78.7218 38.2384 78.7218 38.1927 78.7218C38.1469 78.7218 38.1011 78.7218 38.0553 78.7218C38.0095 78.7218 37.9636 78.7218 37.9177 78.7218C37.8718 78.7218 37.8259 78.7218 37.7799 78.7218C37.7339 78.7218 37.6879 78.7218 37.6419 78.7218C37.5958 78.7218 37.5497 78.7218 37.5036 78.7218C37.4575 78.7218 37.4113 78.7218 37.3651 78.7218C37.3189 78.7218 37.2727 78.7218 37.2264 78.7218C37.1801 78.7218 37.1338 78.7218 37.0875 78.7218C37.0411 78.7218 36.9948 78.7218 36.9484 78.7218C36.9019 78.7218 36.8555 78.7218 36.809 78.7218C36.7625 78.7218 36.716 78.7218 36.6694 78.7218C36.6229 78.7218 36.5763 78.7218 36.5296 78.7218C36.483 78.7218 36.4364 78.7218 36.3897 78.7218C36.343 78.7218 36.2962 78.7218 36.2494 78.7218C36.2027 78.7218 36.1559 78.7218 36.109 78.7218C36.0622 78.7218 36.0153 78.7218 35.9684 78.7218C35.9215 78.7218 35.8746 78.7218 35.8276 78.7218C35.7806 78.7218 35.7336 78.7218 35.6866 78.7218C35.6395 78.7218 35.5924 78.7218 35.5453 78.7218C35.4982 78.7218 35.4511 78.7218 35.4039 78.7218C35.3567 78.7218 35.3095 78.7218 35.2622 78.7218C35.215 78.7218 35.1677 78.7218 35.1204 78.7218C35.0731 78.7218 35.0258 78.7218 34.9784 78.7218C34.931 78.7218 34.8836 78.7218 34.8362 78.7218C34.7887 78.7218 34.7412 78.7218 34.6937 78.7218C34.6462 78.7218 34.5987 78.7218 34.5511 78.7218C34.5035 78.7218 34.4559 78.7218 34.4083 78.7218C34.3607 78.7218 34.313 78.7218 34.2653 78.7218C34.2176 78.7218 34.1699 78.7218 34.1221 78.7218C34.0744 78.7218 34.0266 78.7218 33.9788 78.7218C33.9309 78.7218 33.8831 78.7218 33.8352 78.7218C33.7873 78.7218 33.7394 78.7218 33.6915 78.7218C33.6435 78.7218 33.5955 78.7218 33.5475 78.7218C33.4995 78.7218 33.4515 78.7218 33.4034 78.7218C33.3554 78.7218 33.3073 78.7218 33.2591 78.7218C33.211 78.7218 33.1629 78.7218 33.1147 78.7218C33.0665 78.7218 33.0183 78.7218 32.97 78.7218C32.9218 78.7218 32.8735 78.7218 32.8252 78.7218C32.7769 78.7218 32.7286 78.7218 32.6802 78.7218C32.6319 78.7218 32.5835 78.7218 32.5351 78.7218C32.4866 78.7218 32.4382 78.7218 32.3897 78.7218C32.3412 78.7218 32.2927 78.7218 32.2442 78.7218C32.1957 78.7218 32.1471 78.7218 32.0985 78.7218C32.0499 78.7218 32.0013 78.7218 31.9527 78.7218C31.904 78.7218 31.8554 78.7218 31.8067 78.7218C31.758 78.7218 31.7093 78.7218 31.6605 78.7218C31.6118 78.7218 31.563 78.7218 31.5142 78.7218C31.4654 78.7218 31.4165 78.7218 31.3677 78.7218C31.3188 78.7218 31.2699 78.7218 31.221 78.7218C31.1721 78.7218 31.1232 78.7218 31.0742 78.7218C31.0252 78.7218 30.9762 78.7218 30.9272 78.7218C30.8782 78.7218 30.8292 78.7218 30.7801 78.7218C30.731 78.7218 30.6819 78.7218 30.6328 78.7218C30.5837 78.7218 30.5346 78.7218 30.4854 78.7218C30.4362 78.7218 30.387 78.7218 30.3378 78.7218C30.2886 78.7218 30.2393 78.7218 30.1901 78.7218C30.1408 78.7218 30.0915 78.7218 30.0422 78.7218C29.9929 78.7218 29.9435 78.7218 29.8941 78.7218C29.8448 78.7218 29.7954 78.7218 29.746 78.7218C29.6966 78.7218 29.6471 78.7218 29.5976 78.7218C29.5482 78.7218 29.4987 78.7218 29.4492 78.7218C29.3997 78.7218 29.3501 78.7218 29.3006 78.7218C29.251 78.7218 29.2014 78.7218 29.1518 78.7218C29.1022 78.7218 29.0526 78.7218 29.0029 78.7218C28.9533 78.7218 28.9036 78.7218 28.8539 78.7218C28.8042 78.7218 28.7545 78.7218 28.7048 78.7218C28.655 78.7218 28.6053 78.7218 28.5555 78.7218C28.5057 78.7218 28.4559 78.7218 28.4061 78.7218C28.3562 78.7218 28.3064 78.7218 28.2565 78.7218C28.2066 78.7218 28.1567 78.7218 28.1068 78.7218C28.0569 78.7218 28.007 78.7218 27.957 78.7218C27.907 78.7218 27.8571 78.7218 27.8071 78.7218C27.7571 78.7218 27.707 78.7218 27.657 78.7218C27.607 78.7218 27.5569 78.7218 27.5068 78.7218C27.4567 78.7218 27.4066 78.7218 27.3565 78.7218C27.3064 78.7218 27.2562 78.7218 27.2061 78.7218C27.1559 78.7218 27.1057 78.7218 27.0555 78.7218C27.0053 78.7218 26.9551 78.7218 26.9048 78.7218C26.8546 78.7218 26.8043 78.7218 26.7541 78.7218C26.7038 78.7218 26.6535 78.7218 26.6032 78.7218C26.5528 78.7218 26.5025 78.7218 26.4521 78.7218C26.4018 78.7218 26.3514 78.7218 26.301 78.7218C26.2506 78.7218 26.2002 78.7218 26.1498 78.7218C26.0993 78.7218 26.0489 78.7218 25.9984 78.7218C25.948 78.7218 25.8975 78.7218 25.847 78.7218C25.7965 78.7218 25.7459 78.7218 25.6954 78.7218C25.6449 78.7218 25.5943 78.7218 25.5437 78.7218C25.4931 78.7218 25.4426 78.7218 25.3919 78.7218C25.3413 78.7218 25.2907 78.7218 25.2401 78.7218C25.1894 78.7218 25.1388 78.7218 25.0881 78.7218C25.0374 78.7218 24.9867 78.7218 24.936 78.7218C24.8853 78.7218 24.8346 78.7218 24.7838 78.7218C24.7331 78.7218 24.6823 78.7218 24.6316 78.7218C24.5808 78.7218 24.53 78.7218 24.4792 78.7218C24.4284 78.7218 24.3776 78.7218 24.3267 78.7218C24.2759 78.7218 24.225 78.7218 24.1742 78.7218C24.1233 78.7218 24.0724 78.7218 24.0215 78.7218C23.9706 78.7218 23.9197 78.7218 23.8688 78.7218C23.8179 78.7218 23.7669 78.7218 23.716 78.7218C23.665 78.7218 23.614 78.7218 23.5631 78.7218C23.5121 78.7218 23.4611 78.7218 23.4101 78.7218C23.3591 78.7218 23.308 78.7218 23.257 78.7218C23.2059 78.7218 23.1549 78.7218 23.1038 78.7218C23.0528 78.7218 23.0017 78.7218 22.9506 78.7218C22.8995 78.7218 22.8484 78.7218 22.7973 78.7218C22.7461 78.7218 22.695 78.7218 22.6439 78.7218C22.5927 78.7218 22.5416 78.7218 22.4904 78.7218C22.4392 78.7218 22.388 78.7218 22.3368 78.7218C22.2856 78.7218 22.2344 78.7218 22.1832 78.7218C22.132 78.7218 22.0807 78.7218 22.0295 78.7218C21.9783 78.7218 21.927 78.7218 21.8757 78.7218C21.8245 78.7218 21.7732 78.7218 21.7219 78.7218C21.6706 78.7218 21.6193 78.7218 21.568 78.7218C21.5167 78.7218 21.4654 78.7218 21.414 78.7218C21.3627 78.7218 21.3113 78.7218 21.26 78.7218C21.2086 78.7218 21.1573 78.7218 21.1059 78.7218C21.0545 78.7218 21.0031 78.7218 20.9517 78.7218C20.9003 78.7218 20.8489 78.7218 20.7975 78.7218C20.7461 78.7218 20.6946 78.7218 20.6432 78.7218C20.5918 78.7218 20.5403 78.7218 20.4889 78.7218C20.4374 78.7218 20.3859 78.7218 20.3345 78.7218C20.283 78.7218 20.2315 78.7218 20.18 78.7218C20.1285 78.7218 20.077 78.7218 20.0255 78.7218C19.974 78.7218 19.9225 78.7218 19.8709 78.7218C19.8194 78.7218 19.7679 78.7218 19.7163 78.7218C19.6648 78.7218 19.6132 78.7218 19.5617 78.7218C19.5101 78.7218 19.4585 78.7218 19.4069 78.7218C19.3554 78.7218 19.3038 78.7218 19.2522 78.7218C19.2006 78.7218 19.149 78.7218 19.0974 78.7218C19.0458 78.7218 18.9942 78.7218 18.9425 78.7218C18.8909 78.7218 18.8393 78.7218 18.7877 78.7218C18.736 78.7218 18.6844 78.7218 18.6327 78.7218C18.5811 78.7218 18.5294 78.7218 18.4778 78.7218C18.4261 78.7218 18.3744 78.7218 18.3228 78.7218C18.2711 78.7218 18.2194 78.7218 18.1677 78.7218C18.116 78.7218 18.0643 78.7218 18.0126 78.7218C17.9609 78.7218 17.9092 78.7218 17.8575 78.7218C17.8058 78.7218 17.7541 78.7218 17.7024 78.7218C17.6507 78.7218 17.5989 78.7218 17.5472 78.7218C17.4955 78.7218 17.4438 78.7218 17.392 78.7218C17.3403 78.7218 17.2885 78.7218 17.2368 78.7218C17.185 78.7218 17.1333 78.7218 17.0815 78.7218C17.0298 78.7218 16.978 78.7218 16.9262 78.7218C16.8745 78.7218 16.8227 78.7218 16.7709 78.7218C16.7192 78.7218 16.6674 78.7218 16.6156 78.7218C16.5638 78.7218 16.5121 78.7218 16.4603 78.7218C16.4085 78.7218 16.3567 78.7218 16.3049 78.7218C16.2531 78.7218 16.2013 78.7218 16.1495 78.7218C16.0977 78.7218 16.0459 78.7218 15.9941 78.7218C15.9423 78.7218 15.8905 78.7218 15.8387 78.7218C15.7869 78.7218 15.7351 78.7218 15.6833 78.7218C15.6315 78.7218 15.5796 78.7218 15.5278 78.7218C15.476 78.7218 15.4242 78.7218 15.3724 78.7218C15.3206 78.7218 15.2687 78.7218 15.2169 78.7218C15.1651 78.7218 15.1133 78.7218 15.0614 78.7218C15.0096 78.7218 14.9578 78.7218 14.906 78.7218C14.8541 78.7218 14.8023 78.7218 14.7505 78.7218C14.6987 78.7218 14.6468 78.7218 14.595 78.7218C14.5432 78.7218 14.4913 78.7218 14.4395 78.7218C14.3877 78.7218 14.3359 78.7218 14.284 78.7218C14.2322 78.7218 14.1804 78.7218 14.1285 78.7218C14.0767 78.7218 14.0249 78.7218 13.9731 78.7218C13.9212 78.7218 13.8694 78.7218 13.8176 78.7218C13.7658 78.7218 13.7139 78.7218 13.6621 78.7218C13.6103 78.7218 13.5585 78.7218 13.5066 78.7218C13.4548 78.7218 13.403 78.7218 13.3512 78.7218C13.2994 78.7218 13.2475 78.7218 13.1957 78.7218C13.1439 78.7218 13.0921 78.7218 13.0403 78.7218C12.9885 78.7218 12.9367 78.7218 12.8849 78.7218C12.8331 78.7218 12.7812 78.7218 12.7294 78.7218C12.6776 78.7218 12.6258 78.7218 12.574 78.7218C12.5222 78.7218 12.4705 78.7218 12.4187 78.7218C12.3669 78.7218 12.3151 78.7218 12.2633 78.7218C12.2115 78.7218 12.1597 78.7218 12.108 78.7218C12.0562 78.7218 12.0044 78.7218 11.9526 78.7218C11.9009 78.7218 11.8491 78.7218 11.7973 78.7218C11.7456 78.7218 11.6938 78.7218 11.6421 78.7218C11.5903 78.7218 11.5385 78.7218 11.4868 78.7218C11.4351 78.7218 11.3833 78.7218 11.3316 78.7218C11.2798 78.7218 11.2281 78.7218 11.1764 78.7218C11.1247 78.7218 11.0729 78.7218 11.0212 78.7218C10.9695 78.7218 10.9178 78.7218 10.8661 78.7218C10.8144 78.7218 10.7627 78.7218 10.711 78.7218C10.6593 78.7218 10.6076 78.7218 10.5559 78.7218C10.5042 78.7218 10.4525 78.7218 10.4009 78.7218C10.3492 78.7218 10.2975 78.7218 10.2459 78.7218C10.1942 78.7218 10.1426 78.7218 10.0909 78.7218C10.0393 78.7218 9.98762 78.7218 9.93599 78.7218C9.88436 78.7218 9.83273 78.7218 9.78111 78.7218C9.72949 78.7218 9.67788 78.7218 9.62627 78.7218C9.57467 78.7218 9.52307 78.7218 9.47148 78.7218C9.41989 78.7218 9.36831 78.7218 9.31673 78.7218C9.26516 78.7218 9.21359 78.7218 9.16203 78.7218C9.11047 78.7218 9.05892 78.7218 9.00738 78.7218C8.95584 78.7218 8.9043 78.7218 8.85278 78.7218C8.80125 78.7218 8.74974 78.7218 8.69823 78.7218C8.64672 78.7218 8.59522 78.7218 8.54373 78.7218C8.49224 78.7218 8.44075 78.7218 8.38928 78.7218C8.33781 78.7218 8.28635 78.7218 8.23489 78.7218C8.18344 78.7218 8.13199 78.7218 8.08056 78.7218C8.02913 78.7218 7.9777 78.7218 7.92629 78.7218C7.87487 78.7218 7.82346 78.7218 7.77207 78.7218C7.72068 78.7218 7.66929 78.7218 7.61792 78.7218C7.56654 78.7218 7.51518 78.7218 7.46383 78.7218C7.41247 78.7218 7.36113 78.7218 7.3098 78.7218C7.25847 78.7218 7.20715 78.7218 7.15584 78.7218V82.3C7.20715 82.3 7.25847 82.3 7.3098 82.3C7.36113 82.3 7.41247 82.3 7.46383 82.3C7.51518 82.3 7.56654 82.3 7.61792 82.3C7.66929 82.3 7.72068 82.3 7.77207 82.3C7.82346 82.3 7.87487 82.3 7.92629 82.3C7.9777 82.3 8.02913 82.3 8.08056 82.3C8.13199 82.3 8.18344 82.3 8.23489 82.3C8.28635 82.3 8.33781 82.3 8.38928 82.3C8.44075 82.3 8.49224 82.3 8.54373 82.3C8.59522 82.3 8.64672 82.3 8.69823 82.3C8.74974 82.3 8.80125 82.3 8.85278 82.3C8.9043 82.3 8.95584 82.3 9.00738 82.3C9.05892 82.3 9.11047 82.3 9.16203 82.3C9.21359 82.3 9.26516 82.3 9.31673 82.3C9.36831 82.3 9.41989 82.3 9.47148 82.3C9.52307 82.3 9.57467 82.3 9.62627 82.3C9.67788 82.3 9.72949 82.3 9.78111 82.3C9.83273 82.3 9.88436 82.3 9.93599 82.3C9.98762 82.3 10.0393 82.3 10.0909 82.3C10.1426 82.3 10.1942 82.3 10.2459 82.3C10.2975 82.3 10.3492 82.3 10.4009 82.3C10.4525 82.3 10.5042 82.3 10.5559 82.3C10.6076 82.3 10.6593 82.3 10.711 82.3C10.7627 82.3 10.8144 82.3 10.8661 82.3C10.9178 82.3 10.9695 82.3 11.0212 82.3C11.0729 82.3 11.1247 82.3 11.1764 82.3C11.2281 82.3 11.2798 82.3 11.3316 82.3C11.3833 82.3 11.4351 82.3 11.4868 82.3C11.5385 82.3 11.5903 82.3 11.6421 82.3C11.6938 82.3 11.7456 82.3 11.7973 82.3C11.8491 82.3 11.9009 82.3 11.9526 82.3C12.0044 82.3 12.0562 82.3 12.108 82.3C12.1597 82.3 12.2115 82.3 12.2633 82.3C12.3151 82.3 12.3669 82.3 12.4187 82.3C12.4705 82.3 12.5222 82.3 12.574 82.3C12.6258 82.3 12.6776 82.3 12.7294 82.3C12.7812 82.3 12.8331 82.3 12.8849 82.3C12.9367 82.3 12.9885 82.3 13.0403 82.3C13.0921 82.3 13.1439 82.3 13.1957 82.3C13.2475 82.3 13.2994 82.3 13.3512 82.3C13.403 82.3 13.4548 82.3 13.5066 82.3C13.5585 82.3 13.6103 82.3 13.6621 82.3C13.7139 82.3 13.7658 82.3 13.8176 82.3C13.8694 82.3 13.9212 82.3 13.9731 82.3C14.0249 82.3 14.0767 82.3 14.1285 82.3C14.1804 82.3 14.2322 82.3 14.284 82.3C14.3359 82.3 14.3877 82.3 14.4395 82.3C14.4913 82.3 14.5432 82.3 14.595 82.3C14.6468 82.3 14.6987 82.3 14.7505 82.3C14.8023 82.3 14.8541 82.3 14.906 82.3C14.9578 82.3 15.0096 82.3 15.0614 82.3C15.1133 82.3 15.1651 82.3 15.2169 82.3C15.2687 82.3 15.3206 82.3 15.3724 82.3C15.4242 82.3 15.476 82.3 15.5278 82.3C15.5796 82.3 15.6315 82.3 15.6833 82.3C15.7351 82.3 15.7869 82.3 15.8387 82.3C15.8905 82.3 15.9423 82.3 15.9941 82.3C16.0459 82.3 16.0977 82.3 16.1495 82.3C16.2013 82.3 16.2531 82.3 16.3049 82.3C16.3567 82.3 16.4085 82.3 16.4603 82.3C16.5121 82.3 16.5638 82.3 16.6156 82.3C16.6674 82.3 16.7192 82.3 16.7709 82.3C16.8227 82.3 16.8745 82.3 16.9262 82.3C16.978 82.3 17.0298 82.3 17.0815 82.3C17.1333 82.3 17.185 82.3 17.2368 82.3C17.2885 82.3 17.3403 82.3 17.392 82.3C17.4438 82.3 17.4955 82.3 17.5472 82.3C17.5989 82.3 17.6507 82.3 17.7024 82.3C17.7541 82.3 17.8058 82.3 17.8575 82.3C17.9092 82.3 17.9609 82.3 18.0126 82.3C18.0643 82.3 18.116 82.3 18.1677 82.3C18.2194 82.3 18.2711 82.3 18.3228 82.3C18.3744 82.3 18.4261 82.3 18.4778 82.3C18.5294 82.3 18.5811 82.3 18.6327 82.3C18.6844 82.3 18.736 82.3 18.7877 82.3C18.8393 82.3 18.8909 82.3 18.9425 82.3C18.9942 82.3 19.0458 82.3 19.0974 82.3C19.149 82.3 19.2006 82.3 19.2522 82.3C19.3038 82.3 19.3554 82.3 19.4069 82.3C19.4585 82.3 19.5101 82.3 19.5617 82.3C19.6132 82.3 19.6648 82.3 19.7163 82.3C19.7679 82.3 19.8194 82.3 19.8709 82.3C19.9225 82.3 19.974 82.3 20.0255 82.3C20.077 82.3 20.1285 82.3 20.18 82.3C20.2315 82.3 20.283 82.3 20.3345 82.3C20.3859 82.3 20.4374 82.3 20.4889 82.3C20.5403 82.3 20.5918 82.3 20.6432 82.3C20.6946 82.3 20.7461 82.3 20.7975 82.3C20.8489 82.3 20.9003 82.3 20.9517 82.3C21.0031 82.3 21.0545 82.3 21.1059 82.3C21.1573 82.3 21.2086 82.3 21.26 82.3C21.3113 82.3 21.3627 82.3 21.414 82.3C21.4654 82.3 21.5167 82.3 21.568 82.3C21.6193 82.3 21.6706 82.3 21.7219 82.3C21.7732 82.3 21.8245 82.3 21.8757 82.3C21.927 82.3 21.9783 82.3 22.0295 82.3C22.0807 82.3 22.132 82.3 22.1832 82.3C22.2344 82.3 22.2856 82.3 22.3368 82.3C22.388 82.3 22.4392 82.3 22.4904 82.3C22.5416 82.3 22.5927 82.3 22.6439 82.3C22.695 82.3 22.7461 82.3 22.7973 82.3C22.8484 82.3 22.8995 82.3 22.9506 82.3C23.0017 82.3 23.0528 82.3 23.1038 82.3C23.1549 82.3 23.2059 82.3 23.257 82.3C23.308 82.3 23.3591 82.3 23.4101 82.3C23.4611 82.3 23.5121 82.3 23.5631 82.3C23.614 82.3 23.665 82.3 23.716 82.3C23.7669 82.3 23.8179 82.3 23.8688 82.3C23.9197 82.3 23.9706 82.3 24.0215 82.3C24.0724 82.3 24.1233 82.3 24.1742 82.3C24.225 82.3 24.2759 82.3 24.3267 82.3C24.3776 82.3 24.4284 82.3 24.4792 82.3C24.53 82.3 24.5808 82.3 24.6316 82.3C24.6823 82.3 24.7331 82.3 24.7838 82.3C24.8346 82.3 24.8853 82.3 24.936 82.3C24.9867 82.3 25.0374 82.3 25.0881 82.3C25.1388 82.3 25.1894 82.3 25.2401 82.3C25.2907 82.3 25.3413 82.3 25.3919 82.3C25.4426 82.3 25.4931 82.3 25.5437 82.3C25.5943 82.3 25.6449 82.3 25.6954 82.3C25.7459 82.3 25.7965 82.3 25.847 82.3C25.8975 82.3 25.948 82.3 25.9984 82.3C26.0489 82.3 26.0993 82.3 26.1498 82.3C26.2002 82.3 26.2506 82.3 26.301 82.3C26.3514 82.3 26.4018 82.3 26.4521 82.3C26.5025 82.3 26.5528 82.3 26.6032 82.3C26.6535 82.3 26.7038 82.3 26.7541 82.3C26.8043 82.3 26.8546 82.3 26.9048 82.3C26.9551 82.3 27.0053 82.3 27.0555 82.3C27.1057 82.3 27.1559 82.3 27.2061 82.3C27.2562 82.3 27.3064 82.3 27.3565 82.3C27.4066 82.3 27.4567 82.3 27.5068 82.3C27.5569 82.3 27.607 82.3 27.657 82.3C27.707 82.3 27.7571 82.3 27.8071 82.3C27.8571 82.3 27.907 82.3 27.957 82.3C28.007 82.3 28.0569 82.3 28.1068 82.3C28.1567 82.3 28.2066 82.3 28.2565 82.3C28.3064 82.3 28.3562 82.3 28.4061 82.3C28.4559 82.3 28.5057 82.3 28.5555 82.3C28.6053 82.3 28.655 82.3 28.7048 82.3C28.7545 82.3 28.8042 82.3 28.8539 82.3C28.9036 82.3 28.9533 82.3 29.0029 82.3C29.0526 82.3 29.1022 82.3 29.1518 82.3C29.2014 82.3 29.251 82.3 29.3006 82.3C29.3501 82.3 29.3997 82.3 29.4492 82.3C29.4987 82.3 29.5482 82.3 29.5976 82.3C29.6471 82.3 29.6966 82.3 29.746 82.3C29.7954 82.3 29.8448 82.3 29.8941 82.3C29.9435 82.3 29.9929 82.3 30.0422 82.3C30.0915 82.3 30.1408 82.3 30.1901 82.3C30.2393 82.3 30.2886 82.3 30.3378 82.3C30.387 82.3 30.4362 82.3 30.4854 82.3C30.5346 82.3 30.5837 82.3 30.6328 82.3C30.6819 82.3 30.731 82.3 30.7801 82.3C30.8292 82.3 30.8782 82.3 30.9272 82.3C30.9762 82.3 31.0252 82.3 31.0742 82.3C31.1232 82.3 31.1721 82.3 31.221 82.3C31.2699 82.3 31.3188 82.3 31.3677 82.3C31.4165 82.3 31.4654 82.3 31.5142 82.3C31.563 82.3 31.6118 82.3 31.6605 82.3C31.7093 82.3 31.758 82.3 31.8067 82.3C31.8554 82.3 31.904 82.3 31.9527 82.3C32.0013 82.3 32.0499 82.3 32.0985 82.3C32.1471 82.3 32.1957 82.3 32.2442 82.3C32.2927 82.3 32.3412 82.3 32.3897 82.3C32.4382 82.3 32.4866 82.3 32.5351 82.3C32.5835 82.3 32.6319 82.3 32.6802 82.3C32.7286 82.3 32.7769 82.3 32.8252 82.3C32.8735 82.3 32.9218 82.3 32.97 82.3C33.0183 82.3 33.0665 82.3 33.1147 82.3C33.1629 82.3 33.211 82.3 33.2591 82.3C33.3073 82.3 33.3554 82.3 33.4034 82.3C33.4515 82.3 33.4995 82.3 33.5475 82.3C33.5955 82.3 33.6435 82.3 33.6915 82.3C33.7394 82.3 33.7873 82.3 33.8352 82.3C33.8831 82.3 33.9309 82.3 33.9788 82.3C34.0266 82.3 34.0744 82.3 34.1221 82.3C34.1699 82.3 34.2176 82.3 34.2653 82.3C34.313 82.3 34.3607 82.3 34.4083 82.3C34.4559 82.3 34.5035 82.3 34.5511 82.3C34.5987 82.3 34.6462 82.3 34.6937 82.3C34.7412 82.3 34.7887 82.3 34.8362 82.3C34.8836 82.3 34.931 82.3 34.9784 82.3C35.0258 82.3 35.0731 82.3 35.1204 82.3C35.1677 82.3 35.215 82.3 35.2622 82.3C35.3095 82.3 35.3567 82.3 35.4039 82.3C35.4511 82.3 35.4982 82.3 35.5453 82.3C35.5924 82.3 35.6395 82.3 35.6866 82.3C35.7336 82.3 35.7806 82.3 35.8276 82.3C35.8746 82.3 35.9215 82.3 35.9684 82.3C36.0153 82.3 36.0622 82.3 36.109 82.3C36.1559 82.3 36.2027 82.3 36.2494 82.3C36.2962 82.3 36.343 82.3 36.3897 82.3C36.4364 82.3 36.483 82.3 36.5296 82.3C36.5763 82.3 36.6229 82.3 36.6694 82.3C36.716 82.3 36.7625 82.3 36.809 82.3C36.8555 82.3 36.9019 82.3 36.9484 82.3C36.9948 82.3 37.0411 82.3 37.0875 82.3C37.1338 82.3 37.1801 82.3 37.2264 82.3C37.2727 82.3 37.3189 82.3 37.3651 82.3C37.4113 82.3 37.4575 82.3 37.5036 82.3C37.5497 82.3 37.5958 82.3 37.6419 82.3C37.6879 82.3 37.7339 82.3 37.7799 82.3C37.8259 82.3 37.8718 82.3 37.9177 82.3C37.9636 82.3 38.0095 82.3 38.0553 82.3C38.1011 82.3 38.1469 82.3 38.1927 82.3C38.2384 82.3 38.2841 82.3 38.3298 82.3C38.3755 82.3 38.4211 82.3 38.4667 82.3C38.5123 82.3 38.5578 82.3 38.6034 82.3C38.6489 82.3 38.6944 82.3 38.7398 82.3C38.7852 82.3 38.8306 82.3 38.876 82.3C38.9214 82.3 38.9667 82.3 39.012 82.3C39.0572 82.3 39.1025 82.3 39.1477 82.3C39.1929 82.3 39.2381 82.3 39.2832 82.3C39.3283 82.3 39.3734 82.3 39.4184 82.3C39.4635 82.3 39.5085 82.3 39.5534 82.3C39.5984 82.3 39.6433 82.3 39.6882 82.3C39.7331 82.3 39.7779 82.3 39.8227 82.3C39.8675 82.3 39.9123 82.3 39.957 82.3C40.0017 82.3 40.0464 82.3 40.091 82.3C40.1357 82.3 40.1802 82.3 40.2248 82.3C40.2693 82.3 40.3139 82.3 40.3583 82.3C40.4028 82.3 40.4472 82.3 40.4916 82.3C40.536 82.3 40.5803 82.3 40.6246 82.3C40.6689 82.3 40.7132 82.3 40.7574 82.3C40.8016 82.3 40.8458 82.3 40.8899 82.3C40.934 82.3 40.9781 82.3 41.0221 82.3C41.0662 82.3 41.1102 82.3 41.1541 82.3C41.1981 82.3 41.242 82.3 41.2859 82.3C41.3297 82.3 41.3736 82.3 41.4173 82.3C41.4611 82.3 41.5049 82.3 41.5485 82.3C41.5922 82.3 41.6359 82.3 41.6795 82.3C41.7231 82.3 41.7667 82.3 41.8102 82.3C41.8537 82.3 41.8972 82.3 41.9406 82.3C41.984 82.3 42.0274 82.3 42.0707 82.3C42.1141 82.3 42.1573 82.3 42.2006 82.3C42.2438 82.3 42.287 82.3 42.3302 82.3C42.3733 82.3 42.4165 82.3 42.4595 82.3C42.5026 82.3 42.5456 82.3 42.5886 82.3C42.6315 82.3 42.6745 82.3 42.7173 82.3C42.7602 82.3 42.803 82.3 42.8458 82.3C42.8886 82.3 42.9314 82.3 42.974 82.3C43.0167 82.3 43.0594 82.3 43.102 82.3C43.1446 82.3 43.1871 82.3 43.2296 82.3C43.2721 82.3 43.3146 82.3 43.357 82.3C43.3994 82.3 43.4418 82.3 43.4841 82.3C43.5264 82.3 43.5687 82.3 43.6109 82.3C43.6531 82.3 43.6953 82.3 43.7374 82.3C43.7795 82.3 43.8216 82.3 43.8636 82.3C43.9057 82.3 43.9476 82.3 43.9896 82.3C44.0315 82.3 44.0734 82.3 44.1152 82.3C44.157 82.3 44.1988 82.3 44.2405 82.3C44.2823 82.3 44.324 82.3 44.3656 82.3C44.4072 82.3 44.4488 82.3 44.4904 82.3C44.5319 82.3 44.5734 82.3 44.6148 82.3C44.6562 82.3 44.6976 82.3 44.739 82.3C44.7803 82.3 44.8216 82.3 44.8628 82.3C44.9041 82.3 44.9452 82.3 44.9864 82.3C45.0275 82.3 45.0686 82.3 45.1096 82.3C45.1507 82.3 45.1917 82.3 45.2326 82.3C45.2735 82.3 45.3144 82.3 45.3552 82.3C45.3961 82.3 45.4368 82.3 45.4776 82.3C45.5183 82.3 45.559 82.3 45.5996 82.3C45.6402 82.3 45.6808 82.3 45.7213 82.3C45.7618 82.3 45.8023 82.3 45.8427 82.3C45.8831 82.3 45.9235 82.3 45.9638 82.3C46.0041 82.3 46.0443 82.3 46.0846 82.3C46.1248 82.3 46.1649 82.3 46.205 82.3C46.2451 82.3 46.2852 82.3 46.3251 82.3C46.3651 82.3 46.4051 82.3 46.445 82.3C46.4849 82.3 46.5247 82.3 46.5645 82.3C46.6042 82.3 46.644 82.3 46.6836 82.3C46.7233 82.3 46.7629 82.3 46.8025 82.3C46.8421 82.3 46.8816 82.3 46.921 82.3C46.9605 82.3 46.9999 82.3 47.0392 82.3C47.0786 82.3 47.1179 82.3 47.1571 82.3C47.1963 82.3 47.2355 82.3 47.2746 82.3C47.3138 82.3 47.3528 82.3 47.3918 82.3C47.4309 82.3 47.4698 82.3 47.5087 82.3C47.5476 82.3 47.5865 82.3 47.6253 82.3C47.6641 82.3 47.7028 82.3 47.7415 82.3C47.7802 82.3 47.8188 82.3 47.8574 82.3C47.8959 82.3 47.9344 82.3 47.9729 82.3C48.0114 82.3 48.0498 82.3 48.0881 82.3C48.1264 82.3 48.1647 82.3 48.203 82.3C48.2412 82.3 48.2794 82.3 48.3175 82.3C48.3556 82.3 48.3936 82.3 48.4316 82.3C48.4696 82.3 48.5076 82.3 48.5455 82.3C48.5834 82.3 48.6212 82.3 48.6589 82.3C48.6967 82.3 48.7344 82.3 48.7721 82.3C48.8097 82.3 48.8473 82.3 48.8849 82.3C48.9224 82.3 48.9599 82.3 48.9973 82.3C49.0347 82.3 49.0721 82.3 49.1094 82.3C49.1467 82.3 49.1839 82.3 49.2211 82.3C49.2583 82.3 49.2954 82.3 49.3325 82.3C49.3695 82.3 49.4065 82.3 49.4435 82.3C49.4804 82.3 49.5173 82.3 49.5541 82.3C49.591 82.3 49.6277 82.3 49.6644 82.3C49.7011 82.3 49.7378 82.3 49.7744 82.3C49.8109 82.3 49.8475 82.3 49.8839 82.3C49.9204 82.3 49.9568 82.3 49.9931 82.3C50.0295 82.3 50.0658 82.3 50.102 82.3C50.1382 82.3 50.1744 82.3 50.2105 82.3C50.2466 82.3 50.2826 82.3 50.3186 82.3C50.3545 82.3 50.3905 82.3 50.4263 82.3C50.4622 82.3 50.4979 82.3 50.5337 82.3C50.5694 82.3 50.6051 82.3 50.6407 82.3C50.6763 82.3 50.7118 82.3 50.7473 82.3C50.7828 82.3 50.8182 82.3 50.8535 82.3C50.8889 82.3 50.9242 82.3 50.9594 82.3C50.9946 82.3 51.0298 82.3 51.0649 82.3C51.1 82.3 51.135 82.3 51.17 82.3C51.205 82.3 51.2399 82.3 51.2747 82.3C51.3096 82.3 51.3444 82.3 51.3791 82.3C51.4138 82.3 51.4485 82.3 51.4831 82.3C51.5176 82.3 51.5522 82.3 51.5866 82.3C51.6211 82.3 51.6555 82.3 51.6898 82.3C51.7242 82.3 51.7584 82.3 51.7926 82.3C51.8268 82.3 51.861 82.3 51.895 82.3C51.9291 82.3 51.9631 82.3 51.9971 82.3C52.031 82.3 52.0649 82.3 52.0987 82.3C52.1325 82.3 52.1663 82.3 52.1999 82.3C52.2336 82.3 52.2672 82.3 52.3008 82.3C52.3343 82.3 52.3678 82.3 52.4012 82.3C52.4346 82.3 52.468 82.3 52.5013 82.3C52.5345 82.3 52.5678 82.3 52.6009 82.3C52.6341 82.3 52.6671 82.3 52.7002 82.3C52.7332 82.3 52.7661 82.3 52.799 82.3C52.8319 82.3 52.8647 82.3 52.8974 82.3C52.9302 82.3 52.9629 82.3 52.9955 82.3C53.0281 82.3 53.0606 82.3 53.0931 82.3C53.1256 82.3 53.158 82.3 53.1903 82.3C53.2227 82.3 53.2549 82.3 53.2871 82.3C53.3193 82.3 53.3515 82.3 53.3835 82.3C53.4156 82.3 53.4476 82.3 53.4795 82.3C53.5114 82.3 53.5433 82.3 53.5751 82.3C53.6069 82.3 53.6386 82.3 53.6702 82.3C53.7019 82.3 53.7335 82.3 53.765 82.3C53.7965 82.3 53.8279 82.3 53.8593 82.3C53.8907 82.3 53.922 82.3 53.9532 82.3C53.9844 82.3 54.0156 82.3 54.0467 82.3C54.0778 82.3 54.1088 82.3 54.1397 82.3C54.1707 82.3 54.2015 82.3 54.2324 82.3C54.2632 82.3 54.2939 82.3 54.3246 82.3C54.3552 82.3 54.3858 82.3 54.4163 82.3C54.4469 82.3 54.4773 82.3 54.5077 82.3C54.5381 82.3 54.5684 82.3 54.5986 82.3C54.6288 82.3 54.659 82.3 54.6891 82.3C54.7192 82.3 54.7492 82.3 54.7792 82.3C54.8091 82.3 54.839 82.3 54.8688 82.3C54.8986 82.3 54.9283 82.3 54.958 82.3C54.9876 82.3 55.0172 82.3 55.0467 82.3C55.0762 82.3 55.1057 82.3 55.135 82.3C55.1644 82.3 55.1937 82.3 55.2229 82.3C55.2521 82.3 55.2813 82.3 55.3103 82.3C55.3394 82.3 55.3684 82.3 55.3973 82.3C55.4262 82.3 55.4551 82.3 55.4839 82.3C55.5126 82.3 55.5413 82.3 55.57 82.3C55.5986 82.3 55.6271 82.3 55.6556 82.3C55.6841 82.3 55.7125 82.3 55.7408 82.3C55.7691 82.3 55.7974 82.3 55.8256 82.3C55.8537 82.3 55.8818 82.3 55.9099 82.3C55.9379 82.3 55.9658 82.3 55.9937 82.3C56.0216 82.3 56.0494 82.3 56.0771 82.3C56.1048 82.3 56.1325 82.3 56.16 82.3C56.1876 82.3 56.2151 82.3 56.2425 82.3C56.2699 82.3 56.2973 82.3 56.3246 82.3C56.3518 82.3 56.379 82.3 56.4061 82.3C56.4332 82.3 56.4603 82.3 56.4872 82.3C56.5142 82.3 56.541 82.3 56.5679 82.3C56.5947 82.3 56.6214 82.3 56.648 82.3C56.6747 82.3 56.7012 82.3 56.7277 82.3C56.7542 82.3 56.7806 82.3 56.807 82.3C56.8333 82.3 56.8596 82.3 56.8857 82.3C56.9119 82.3 56.938 82.3 56.9641 82.3C56.9901 82.3 57.016 82.3 57.0419 82.3C57.0677 82.3 57.0935 82.3 57.1192 82.3C57.1449 82.3 57.1706 82.3 57.1961 82.3C57.2217 82.3 57.2471 82.3 57.2725 82.3C57.2979 82.3 57.3232 82.3 57.3485 82.3C57.3737 82.3 57.3988 82.3 57.4239 82.3C57.449 82.3 57.474 82.3 57.4989 82.3C57.5238 82.3 57.5486 82.3 57.5734 82.3C57.5981 82.3 57.6228 82.3 57.6474 82.3C57.672 82.3 57.6965 82.3 57.7209 82.3C57.7453 82.3 57.7697 82.3 57.7939 82.3C57.8182 82.3 57.8424 82.3 57.8665 82.3C57.8906 82.3 57.9146 82.3 57.9385 82.3C57.9625 82.3 57.9863 82.3 58.0101 82.3C58.0339 82.3 58.0576 82.3 58.0812 82.3C58.1048 82.3 58.1283 82.3 58.1518 82.3C58.1752 82.3 58.1986 82.3 58.2219 82.3C58.2452 82.3 58.2684 82.3 58.2915 82.3C58.3146 82.3 58.3376 82.3 58.3606 82.3C58.3835 82.3 58.4064 82.3 58.4292 82.3C58.452 82.3 58.4747 82.3 58.4973 82.3C58.5199 82.3 58.5424 82.3 58.5649 82.3C58.5873 82.3 58.6097 82.3 58.632 82.3C58.6542 82.3 58.6764 82.3 58.6986 82.3C58.7207 82.3 58.7427 82.3 58.7646 82.3C58.7866 82.3 58.8084 82.3 58.8302 82.3C58.852 82.3 58.8737 82.3 58.8953 82.3C58.9169 82.3 58.9384 82.3 58.9598 82.3C58.9813 82.3 59.0026 82.3 59.0239 82.3C59.0452 82.3 59.0663 82.3 59.0874 82.3C59.1085 82.3 59.1295 82.3 59.1504 82.3C59.1714 82.3 59.1922 82.3 59.2129 82.3C59.2337 82.3 59.2544 82.3 59.2749 82.3C59.2955 82.3 59.316 82.3 59.3364 82.3C59.3568 82.3 59.3771 82.3 59.3973 82.3C59.4176 82.3 59.4377 82.3 59.4578 82.3C59.4778 82.3 59.4978 82.3 59.5177 82.3C59.5375 82.3 59.5573 82.3 59.577 82.3C59.5967 82.3 59.6164 82.3 59.6359 82.3C59.6554 82.3 59.6749 82.3 59.6942 82.3C59.7136 82.3 59.7328 82.3 59.752 82.3C59.7712 82.3 59.7903 82.3 59.8093 82.3C59.8283 82.3 59.8472 82.3 59.866 82.3C59.8848 82.3 59.9036 82.3 59.9222 82.3C59.9408 82.3 59.9594 82.3 59.9779 82.3C59.9963 82.3 60.0147 82.3 60.033 82.3C60.0513 82.3 60.0695 82.3 60.0876 82.3C60.1057 82.3 60.1237 82.3 60.1416 82.3C60.1596 82.3 60.1774 82.3 60.1951 82.3C60.2129 82.3 60.2306 82.3 60.2481 82.3C60.2657 82.3 60.2832 82.3 60.3005 82.3C60.3179 82.3 60.3352 82.3 60.3524 82.3C60.3696 82.3 60.3867 82.3 60.4038 82.3C60.4208 82.3 60.4377 82.3 60.4545 82.3C60.4714 82.3 60.4881 82.3 60.5048 82.3C60.5214 82.3 60.538 82.3 60.5545 82.3C60.5709 82.3 60.5873 82.3 60.6036 82.3C60.6199 82.3 60.6361 82.3 60.6522 82.3C60.6683 82.3 60.6843 82.3 60.7002 82.3C60.7161 82.3 60.732 82.3 60.7477 82.3C60.7634 82.3 60.7791 82.3 60.7946 82.3C60.8102 82.3 60.8256 82.3 60.841 82.3C60.8563 82.3 60.8716 82.3 60.8868 82.3C60.9019 82.3 60.917 82.3 60.932 82.3C60.947 82.3 60.9619 82.3 60.9767 82.3C60.9915 82.3 61.0062 82.3 61.0208 82.3C61.0354 82.3 61.0499 82.3 61.0643 82.3C61.0787 82.3 61.093 82.3 61.1073 82.3C61.1215 82.3 61.1356 82.3 61.1497 82.3C61.1637 82.3 61.1777 82.3 61.1915 82.3C61.2054 82.3 61.2191 82.3 61.2328 82.3C61.2464 82.3 61.26 82.3 61.2735 82.3C61.2869 82.3 61.3003 82.3 61.3136 82.3C61.3268 82.3 61.34 82.3 61.3531 82.3C61.3662 82.3 61.3792 82.3 61.3921 82.3C61.4049 82.3 61.4177 82.3 61.4304 82.3C61.4431 82.3 61.4557 82.3 61.4682 82.3C61.4807 82.3 61.4931 82.3 61.5054 82.3C61.5177 82.3 61.53 82.3 61.5421 82.3C61.5542 82.3 61.5662 82.3 61.5781 82.3C61.59 82.3 61.6019 82.3 61.6136 82.3C61.6253 82.3 61.6369 82.3 61.6485 82.3C61.66 82.3 61.6714 82.3 61.6827 82.3C61.6941 82.3 61.7053 82.3 61.7164 82.3C61.7276 82.3 61.7386 82.3 61.7495 82.3C61.7605 82.3 61.7713 82.3 61.782 82.3C61.7928 82.3 61.8034 82.3 61.8139 82.3C61.8245 82.3 61.8349 82.3 61.8453 82.3C61.8556 82.3 61.8658 82.3 61.876 82.3C61.8861 82.3 61.8962 82.3 61.9061 82.3C61.916 82.3 61.9259 82.3 61.9356 82.3C61.9454 82.3 61.955 82.3 61.9645 82.3C61.9741 82.3 61.9835 82.3 61.9928 82.3C62.0022 82.3 62.0114 82.3 62.0206 82.3C62.0297 82.3 62.0387 82.3 62.0477 82.3C62.0566 82.3 62.0654 82.3 62.0741 82.3C62.0829 82.3 62.0915 82.3 62.1 82.3C62.1086 82.3 62.117 82.3 62.1253 82.3C62.1336 82.3 62.1418 82.3 62.15 82.3C62.1581 82.3 62.1661 82.3 62.174 82.3C62.1819 82.3 62.1897 82.3 62.1974 82.3C62.2052 82.3 62.2128 82.3 62.2203 82.3C62.2278 82.3 62.2352 82.3 62.2425 82.3C62.2498 82.3 62.2569 82.3 62.264 82.3C62.2711 82.3 62.2781 82.3 62.285 82.3C62.2919 82.3 62.2987 82.3 62.3053 82.3C62.312 82.3 62.3186 82.3 62.325 82.3C62.3315 82.3 62.3379 82.3 62.3441 82.3C62.3504 82.3 62.3565 82.3 62.3626 82.3C62.3686 82.3 62.3746 82.3 62.3804 82.3C62.3863 82.3 62.392 82.3 62.3976 82.3C62.4032 82.3 62.4088 82.3 62.4142 82.3C62.4196 82.3 62.4249 82.3 62.4301 82.3C62.4353 82.3 62.4404 82.3 62.4454 82.3C62.4504 82.3 62.4553 82.3 62.4601 82.3C62.4649 82.3 62.4696 82.3 62.4741 82.3C62.4787 82.3 62.4832 82.3 62.4875 82.3C62.4919 82.3 62.4961 82.3 62.5003 82.3C62.5044 82.3 62.5085 82.3 62.5124 82.3C62.5163 82.3 62.5202 82.3 62.5239 82.3C62.5276 82.3 62.5312 82.3 62.5347 82.3C62.5382 82.3 62.5416 82.3 62.5449 82.3C62.5482 82.3 62.5514 82.3 62.5544 82.3C62.5575 82.3 62.5605 82.3 62.5633 82.3C62.5662 82.3 62.5689 82.3 62.5716 82.3C62.5742 82.3 62.5767 82.3 62.5792 82.3C62.5816 82.3 62.5839 82.3 62.5861 82.3C62.5883 82.3 62.5904 82.3 62.5924 82.3C62.5944 82.3 62.5962 82.3 62.598 82.3C62.5998 82.3 62.6014 82.3 62.603 82.3C62.6045 82.3 62.606 82.3 62.6073 82.3C62.6086 82.3 62.6098 82.3 62.6109 82.3C62.612 82.3 62.613 82.3 62.6139 82.3C62.6148 82.3 62.6156 82.3 62.6163 82.3C62.6169 82.3 62.6175 82.3 62.6179 82.3C62.6184 82.3 62.6187 82.3 62.6189 82.3C62.6191 82.3 62.6193 82.3 62.6193 80.5109ZM96.6127 9.84037V63.5142H100.191V9.84037H96.6127ZM-0.000225782 75.1435C-0.000225782 79.0957 3.20318 82.3 7.15584 82.3V78.7218C5.17982 78.7218 3.57805 77.1199 3.57805 75.1435H-0.000225782ZM93.0344 6.2621C95.0106 6.2621 96.6127 7.86415 96.6127 9.84037H100.191C100.191 5.88791 96.9868 2.68383 93.0344 2.68383V6.2621ZM7.15632 2.68383C3.20386 2.68383 -0.000225782 5.88793 -0.000225782 9.84038H3.57805C3.57805 7.86415 5.1801 6.2621 7.15632 6.2621V2.68383Z" fill="#6F63DE"/>
<circle cx="10.2875" cy="11.1824" r="2.23641" fill="#6F63DE"/>
<circle cx="18.3386" cy="11.1824" r="2.23641" fill="#6F63DE"/>
<circle cx="26.3897" cy="11.1824" r="2.23641" fill="#6F63DE"/>
<path d="M85.4309 85.5803L96.1284 75.1437L100.713 79.6165L90.0155 90.0531L85.4309 85.5803Z" stroke="#6F63DE" stroke-width="2.6837" stroke-linecap="round" stroke-linejoin="round"/>
<path d="M94.6002 76.6346L92.3078 65.4526L70.1487 60.2343L75.4975 81.8529L86.9591 84.0893L94.6002 76.6346Z" stroke="#6F63DE" stroke-width="2.6837" stroke-linecap="round" stroke-linejoin="round"/>
<path d="M70.1487 60.2343L81.7418 71.5446" stroke="#6F63DE" stroke-width="2.6837" stroke-linecap="round" stroke-linejoin="round"/>
<path d="M83.9026 76.6346C85.5907 76.6346 86.9591 75.2996 86.9591 73.6528C86.9591 72.0059 85.5907 70.6709 83.9026 70.6709C82.2146 70.6709 80.8462 72.0059 80.8462 73.6528C80.8462 75.2996 82.2146 76.6346 83.9026 76.6346Z" stroke="#6F63DE" stroke-width="2.6837" stroke-linecap="round" stroke-linejoin="round"/>
</g>
<defs>
<clipPath id="clip0_2673_1147">
<rect width="103.769" height="93.0346" fill="white"/>
</clipPath>
</defs>
</svg>
