<svg width="80" height="76" viewBox="0 0 80 76" fill="none" xmlns="http://www.w3.org/2000/svg">
<circle cx="30" cy="30" r="30" fill="#F5F8FA" fill-opacity="0.5"/>
<path d="M58.7304 68.0695C59.1049 69.1946 59.4684 70.2652 59.821 71.3413C59.8956 71.5776 60.0373 71.594 60.2336 71.5921C60.7662 71.5921 61.297 71.5812 61.8296 71.5921C62.4458 71.6067 62.7748 71.9321 62.7948 72.5446C62.8175 72.929 62.8175 73.3144 62.7948 73.6989C62.7584 74.1115 62.8693 74.2442 63.3183 74.2442C65.1687 74.2133 67.0209 74.226 68.8731 74.2442C69.4675 74.2442 69.851 74.6077 69.8401 75.1348C69.8292 75.662 69.4602 75.9746 68.8968 76C68.8422 76 68.7877 76 68.7313 76H35.7148C35.0205 76 34.6242 75.671 34.6242 75.1185C34.6242 74.5659 35.0205 74.2423 35.7148 74.2405C37.5489 74.2405 39.3829 74.2296 41.2152 74.2405C41.5787 74.2405 41.695 74.1587 41.6659 73.7934C41.642 73.3696 41.642 72.9448 41.6659 72.521C41.6841 71.9357 42.0077 71.6121 42.5911 71.5885C43.1365 71.574 43.6818 71.5885 44.2416 71.5885C44.4125 71.5885 44.5579 71.5885 44.6251 71.3758C44.9887 70.2852 45.3522 69.1946 45.7158 68.0658H28.3423C26.1865 68.0695 24.9377 66.8153 24.9377 64.6522V30.9886C24.9377 28.8255 26.1865 27.575 28.3423 27.575C32.6138 27.575 36.886 27.575 41.1588 27.575C41.3103 27.5805 41.4612 27.5545 41.6021 27.4985C41.7429 27.4425 41.8705 27.3577 41.9768 27.2496C44.7401 24.6331 48.3995 23.1727 52.2049 23.1676C56.0104 23.1625 59.6737 24.6132 62.444 27.2223C62.5644 27.3417 62.7084 27.4348 62.8667 27.4955C63.0251 27.5562 63.1943 27.5833 63.3637 27.575C67.6353 27.5616 71.9075 27.5616 76.1802 27.575C78.2288 27.575 79.5121 28.8474 79.5121 30.8941C79.5121 42.171 79.5121 53.4486 79.5121 64.7267C79.5121 66.8025 78.2397 68.0676 76.1457 68.0695H58.7304ZM40.0918 29.3345H28.3659C27.1662 29.3345 26.6991 29.7962 26.6991 30.9886C26.6991 40.2297 26.6955 49.4709 26.6882 58.712C26.6882 59.1701 26.7918 59.2755 27.2498 59.2755C43.8987 59.2609 60.5469 59.2609 77.1945 59.2755C77.638 59.2755 77.7653 59.1901 77.7634 58.7211C77.7465 49.48 77.7422 40.2382 77.7507 30.9959C77.7507 29.8035 77.2836 29.3363 76.0912 29.3363H64.3634C66.5058 32.2953 67.4934 35.9351 67.1403 39.5711C66.7873 43.2072 65.1181 46.589 62.4465 49.0806C59.7749 51.5722 56.285 53.002 52.6332 53.1009C48.9814 53.1999 45.4192 51.9613 42.6166 49.6181C37.1163 45.0212 35.1841 36.3453 40.0918 29.3345ZM61.9041 47.1006C66.9373 41.6857 66.4847 33.1844 60.9953 28.273C59.6889 27.111 58.1647 26.22 56.5113 25.6517C54.8578 25.0835 53.108 24.8492 51.3633 24.9625C49.6186 25.0757 47.9137 25.5344 46.3477 26.3117C44.7816 27.0891 43.3855 28.1697 42.2403 29.4908C37.3326 35.1875 38.5068 42.969 42.533 47.0261C42.533 46.4044 42.533 45.8228 42.533 45.2429C42.5493 43.4089 43.7708 41.9511 45.5685 41.6966C46.7119 41.533 47.8334 41.2676 48.964 41.0495C49.1675 41.0095 49.542 41.1458 49.5674 40.7441C49.5893 40.3933 49.622 40.0789 49.2184 39.8117C48.6311 39.4326 48.1316 38.9324 47.7532 38.3446C47.3748 37.7569 47.1264 37.0951 47.0245 36.4035C46.8264 35.202 46.9354 33.9878 46.9427 32.7808C46.9515 31.7639 47.3166 30.7821 47.9745 30.0066C48.6325 29.2311 49.5416 28.7109 50.5435 28.5365C51.4342 28.3693 52.3358 28.4475 53.2301 28.4638C54.228 28.4863 55.1877 28.8523 55.9473 29.5C56.7069 30.1476 57.2199 31.0374 57.3999 32.0192C57.6125 33.1989 57.4926 34.3968 57.4853 35.5855C57.4882 36.2941 57.3421 36.9954 57.0565 37.6439C56.7709 38.2924 56.3522 38.8737 55.8276 39.35C55.5871 39.5754 55.3267 39.7786 55.0496 39.9571C54.7097 40.1734 54.9187 40.4878 54.8678 40.7532C54.8315 40.9532 54.9932 40.9768 55.1477 41.0041C56.3729 41.2076 57.578 41.5276 58.8122 41.6893C59.667 41.7955 60.4533 42.211 61.0226 42.8573C61.5919 43.5037 61.9049 44.3361 61.9023 45.1975C61.915 45.7882 61.9077 46.3862 61.9077 47.1006H61.9041ZM52.2194 61.0241C43.8775 61.0241 35.5373 61.0211 27.199 61.015C26.8027 61.015 26.67 61.0859 26.6827 61.5131C26.7191 62.6037 26.6827 63.7125 26.6973 64.8122C26.6973 65.7828 27.2208 66.3045 28.1932 66.3045C44.2131 66.3045 60.2336 66.3045 76.2548 66.3045C77.2236 66.3045 77.7416 65.7792 77.7471 64.8085C77.7471 63.727 77.718 62.6437 77.7616 61.564C77.7798 61.0804 77.6199 61.0186 77.1854 61.0186C68.864 61.0296 60.5433 61.0314 52.2231 61.0241H52.2194ZM46.0593 49.7544C46.0593 49.1382 46.0593 48.5547 46.0593 47.9713C46.0593 47.3242 46.401 46.9352 46.9391 46.9352C47.4771 46.9352 47.8116 47.326 47.817 47.9731C47.817 48.7256 47.8279 49.4763 47.817 50.227C47.8069 50.2793 47.8074 50.3331 47.8186 50.3851C47.8298 50.4372 47.8514 50.4865 47.8821 50.5299C47.9129 50.5734 47.9521 50.6102 47.9975 50.6381C48.0428 50.666 48.0933 50.6845 48.146 50.6923C50.7965 51.5494 53.6497 51.5494 56.3002 50.6923C56.3526 50.6845 56.403 50.6661 56.4482 50.6383C56.4934 50.6105 56.5326 50.5739 56.5633 50.5306C56.594 50.4873 56.6157 50.4383 56.627 50.3864C56.6383 50.3346 56.639 50.281 56.6292 50.2288C56.6146 49.4763 56.6201 48.7256 56.6292 47.9749C56.6292 47.326 56.9691 46.937 57.5053 46.9352C58.0415 46.9334 58.3796 47.3242 58.3869 47.9713C58.3869 48.562 58.3869 49.1546 58.3869 49.789C58.9153 49.5215 59.4222 49.2134 59.9028 48.8674C59.9821 48.8245 60.0476 48.7601 60.092 48.6817C60.1363 48.6032 60.1577 48.5139 60.1537 48.4239C60.1391 47.306 60.1646 46.1881 60.1373 45.0702C60.1247 44.6705 59.9723 44.2878 59.7066 43.9889C59.4409 43.6899 59.0787 43.4937 58.6832 43.4343C57.4853 43.278 56.3202 42.9981 55.1296 42.76C54.9965 42.7132 54.8508 42.7178 54.7209 42.7729C54.5911 42.8281 54.4866 42.9298 54.4279 43.0581C54.1952 43.433 53.8707 43.7425 53.485 43.957C53.0994 44.1716 52.6653 44.2842 52.224 44.2842C51.7827 44.2842 51.3486 44.1716 50.963 43.957C50.5773 43.7425 50.2528 43.433 50.02 43.0581C49.8274 42.76 49.6565 42.68 49.3221 42.7472C48.1424 42.989 46.9681 43.2707 45.7685 43.4234C45.3659 43.4863 44.9983 43.6892 44.7307 43.9964C44.463 44.3037 44.3123 44.6955 44.3052 45.103C44.2852 45.7628 44.3052 46.4226 44.3052 47.0824C44.3052 48.9001 44.3052 48.9001 45.9412 49.7144C45.9805 49.7332 46.0212 49.749 46.0629 49.7617L46.0593 49.7544ZM58.0324 71.5667C57.6689 70.4488 57.3053 69.36 56.9418 68.2694C56.8782 68.0695 56.731 68.0695 56.5655 68.0695C53.6706 68.0695 50.7762 68.0695 47.8824 68.0695C47.7007 68.0695 47.5698 68.0695 47.5025 68.2876C47.1517 69.3782 46.7864 70.4688 46.4119 71.5758L58.0324 71.5667ZM55.7439 34.2877C53.5627 35.0657 51.3342 35.3274 49.0839 35.4528C48.7004 35.4746 48.6859 35.6346 48.7204 35.9236C48.8272 36.7389 49.2128 37.4922 49.8119 38.0554C50.4109 38.6187 51.1864 38.9573 52.0068 39.0137C52.8468 39.0652 53.6774 38.8132 54.3473 38.3038C55.0172 37.7944 55.4819 37.0613 55.6567 36.2381C55.8003 35.6019 55.724 34.9657 55.7439 34.2877ZM49.6947 33.6588C50.1855 33.6115 50.6781 33.5752 51.167 33.5115C52.5812 33.3298 53.9826 33.0971 55.3186 32.5554C55.6585 32.4191 55.7058 32.261 55.584 31.9411C55.4027 31.4592 55.0856 31.0403 54.671 30.7351C54.2564 30.4299 53.7622 30.2515 53.2483 30.2215C52.5721 30.1979 51.8941 30.1961 51.2179 30.2215C50.5724 30.2524 49.9607 30.5188 49.4984 30.9703C49.0361 31.4218 48.7555 32.0272 48.7095 32.6718C48.6404 33.7151 48.6404 33.7151 49.6947 33.6588ZM52.2794 73.3499C49.4929 73.3499 46.7064 73.3499 43.9181 73.3499C43.58 73.3499 43.4018 73.3626 43.4018 73.797C43.4018 74.2314 43.5836 74.2423 43.9181 74.2423C49.4547 74.2339 54.992 74.2339 60.5299 74.2423C60.8662 74.2423 61.0443 74.2314 61.0443 73.797C61.0443 73.3626 60.8626 73.3499 60.5299 73.3499C57.7816 73.3535 55.0314 73.3499 52.2794 73.3499ZM53.1119 41.3312C52.9792 41.2076 53.3046 40.8441 52.9574 40.7968C52.4682 40.7572 51.9768 40.7529 51.4869 40.7841C51.4614 40.7874 51.4368 40.7961 51.4149 40.8095C51.393 40.823 51.3741 40.841 51.3597 40.8623C51.1016 41.284 51.4542 42.2874 51.9195 42.4728C52.5666 42.7309 53.101 42.2474 53.1119 41.3312Z" fill="#6F63DE"/>
<path d="M52.2848 53.9823H63.3364C64.2743 53.9823 64.547 54.2531 64.5488 55.1856C64.5488 55.9 64.5488 56.6143 64.5488 57.3287C64.5488 58.043 64.2271 58.3811 63.5182 58.3811C55.9857 58.3811 48.4538 58.3811 40.9225 58.3811C40.239 58.3811 39.9136 58.0521 39.9064 57.3723C39.9064 56.6579 39.9064 55.9436 39.9064 55.2274C39.9064 54.2459 40.1663 53.9823 41.1315 53.9823H52.2848ZM52.1903 56.6179C55.564 56.6179 58.9376 56.618 62.3112 56.627C62.6748 56.627 62.7947 56.5543 62.8056 56.1581C62.8202 55.6909 62.5784 55.7346 62.2712 55.7346C56.3334 55.7346 50.3957 55.7346 44.4579 55.7346C43.6508 55.7346 42.8438 55.7346 42.0385 55.7346C41.9131 55.7346 41.7477 55.6437 41.675 55.8582C41.5132 56.3126 41.7095 56.6107 42.1894 56.6107L52.1903 56.6179Z" fill="#6F63DE"/>
</svg>
