<svg width="96" height="44" viewBox="0 0 96 44" fill="none" xmlns="http://www.w3.org/2000/svg">
<path d="M12.4258 17.3574L24.602 34.6551H33.9898L17.0688 10.7754L12.4258 17.3574Z" fill="#272D3D"/>
<path d="M34.045 0L17.09 23.9615L12.4258 17.3567L24.6614 0H34.045Z" fill="#272D3D"/>
<path d="M0 34.6547L11.1364 19.2148L15.8006 25.8196L9.3836 34.6547H0Z" fill="#272D3D"/>
<path d="M0.00195312 0L11.1383 15.4398L15.8025 8.83508L9.38554 0H0.00195312Z" fill="#272D3D"/>
<path d="M36.2578 23.0301C36.2578 21.245 36.4446 19.6324 36.8223 18.197C37.2 16.7615 37.7475 15.5305 38.4605 14.5085C39.1735 13.4864 40.0435 12.7006 41.0706 12.1509C42.0976 11.5968 43.2562 11.3242 44.5549 11.3242C46.0913 11.3242 47.4069 11.6558 48.5061 12.3145C49.6053 12.9731 50.5093 13.8907 51.2266 15.0672L51.3454 11.7512H53.5693V34.3409C53.5693 35.8262 53.3656 37.1617 52.9539 38.3473C52.5422 39.5283 51.965 40.5322 51.2181 41.3544C50.4711 42.1766 49.5671 42.808 48.5061 43.2441C47.4451 43.6847 46.261 43.9027 44.9539 43.9027C44.2791 43.9027 43.5915 43.821 42.887 43.6574C42.1867 43.4939 41.5077 43.2486 40.8541 42.9261C40.2005 42.5991 39.5809 42.1948 38.9995 41.7042C38.418 41.2136 37.9087 40.6367 37.4716 39.9735L38.8 38.4427C39.6743 39.5919 40.5995 40.4278 41.5798 40.9592C42.5602 41.4907 43.6297 41.7542 44.7968 41.7542C45.8154 41.7542 46.7194 41.5861 47.5088 41.2545C48.2939 40.9229 48.9602 40.4414 49.5035 39.81C50.0467 39.1786 50.4584 38.4154 50.7427 37.516C51.0271 36.6166 51.1714 35.5946 51.1714 34.4453V31.7698C50.4584 32.8328 49.5502 33.664 48.451 34.2682C47.3518 34.8678 46.0403 35.1721 44.521 35.1721C43.235 35.1721 42.0849 34.886 41.0663 34.3136C40.0477 33.7413 39.182 32.9418 38.4647 31.9106C37.7517 30.884 37.2042 29.653 36.8265 28.2222C36.4488 26.7913 36.2621 25.2105 36.2621 23.4844V23.0301H36.2578ZM38.6599 23.4753C38.6599 24.8199 38.7873 26.0736 39.0377 27.2274C39.2881 28.3812 39.6743 29.385 40.1878 30.2345C40.7056 31.0839 41.3549 31.7517 42.1443 32.2332C42.9295 32.7147 43.8674 32.9554 44.9539 32.9554C45.773 32.9554 46.5114 32.8509 47.1693 32.6374C47.8228 32.4239 48.4043 32.1332 48.9051 31.7562C49.4059 31.3792 49.843 30.9386 50.2165 30.4298C50.5857 29.921 50.904 29.3623 51.1714 28.7491V18.0561C50.9465 17.4611 50.6579 16.8933 50.3099 16.3436C49.9576 15.7985 49.5374 15.317 49.0409 14.8991C48.5443 14.4812 47.9671 14.1496 47.3051 13.8998C46.643 13.65 45.8748 13.5273 45.0006 13.5273C43.9013 13.5273 42.9549 13.7726 42.1613 14.2586C41.3676 14.7492 40.7141 15.417 40.1963 16.2664C39.6785 17.1159 39.2965 18.1243 39.0462 19.2826C38.7958 20.4455 38.6684 21.6901 38.6684 23.0211V23.4753H38.6599Z" fill="#272D3D"/>
<path d="M68.6733 13.9134C68.1682 13.8135 67.6335 13.7635 67.0648 13.7635C66.2584 13.7635 65.5284 13.8907 64.8791 14.1451C64.2297 14.3995 63.6568 14.7583 63.1602 15.2171C62.6637 15.6759 62.2478 16.221 61.9082 16.8524C61.5687 17.4838 61.3014 18.1788 61.1061 18.9465V34.736H58.7422V11.7467H61.0637L61.1019 15.4033C61.6833 14.1405 62.4769 13.1457 63.4743 12.419C64.4716 11.6876 65.7024 11.3242 67.1581 11.3242C67.451 11.3242 67.7481 11.3515 68.0536 11.4105C68.3592 11.4696 68.5841 11.5332 68.7284 11.6013L68.6733 13.9134Z" fill="#272D3D"/>
<path d="M71.2715 5.09659C71.2715 4.61509 71.4158 4.20627 71.7086 3.87467C72.0015 3.54307 72.3962 3.375 72.9012 3.375C73.402 3.375 73.8052 3.54307 74.1023 3.87467C74.3993 4.20627 74.5479 4.61509 74.5479 5.09659C74.5479 5.57809 74.3993 5.98237 74.1023 6.30943C73.8052 6.63649 73.402 6.80001 72.9012 6.80001C72.3962 6.80001 72.0015 6.63649 71.7086 6.30943C71.42 5.98237 71.2715 5.57809 71.2715 5.09659ZM74.0725 34.7361H71.6916V11.7468H74.0725V34.7361Z" fill="#272D3D"/>
<path d="M78.5547 23.0303C78.5547 21.2451 78.7457 19.6325 79.1319 18.1971C79.5138 16.7617 80.0656 15.5307 80.7786 14.5086C81.4916 13.4866 82.3616 12.7007 83.3887 12.1511C84.4157 11.5969 85.5701 11.3244 86.8518 11.3244C88.3754 11.3244 89.6826 11.6514 90.7733 12.301C91.864 12.9506 92.768 13.85 93.4853 14.9992V2.09863H95.8492V34.7362H93.6253L93.5277 31.6746C92.8147 32.7648 91.9022 33.6188 90.7988 34.2365C89.6953 34.8543 88.3669 35.1586 86.8179 35.1586C85.5489 35.1586 84.403 34.8725 83.3844 34.3001C82.3658 33.7278 81.5001 32.9283 80.7828 31.8972C80.0698 30.8706 79.5181 29.6396 79.1361 28.2087C78.7542 26.7778 78.5589 25.197 78.5589 23.4709V23.0303H78.5547ZM80.9568 23.4754C80.9568 24.82 81.0841 26.0737 81.3345 27.2275C81.5849 28.3813 81.9712 29.3852 82.4847 30.2346C83.0025 31.0841 83.6518 31.7518 84.4412 32.2333C85.2306 32.7148 86.1643 32.9556 87.2508 32.9556C88.0571 32.9556 88.7913 32.8511 89.4449 32.6467C90.0985 32.4423 90.6842 32.1561 91.1935 31.7881C91.7028 31.4202 92.1484 30.9796 92.5219 30.4708C92.8996 29.9621 93.2179 29.4079 93.4853 28.8128V18.0154C93.2476 17.434 92.9548 16.8753 92.611 16.3347C92.2672 15.7987 91.8428 15.3172 91.342 14.8993C90.837 14.4814 90.2555 14.1498 89.5935 13.8999C88.9314 13.6501 88.1632 13.5275 87.2889 13.5275C86.1897 13.5275 85.2433 13.7728 84.4497 14.2588C83.656 14.7494 83.0025 15.4171 82.4847 16.2666C81.9669 17.116 81.5849 18.1244 81.3345 19.2828C81.0841 20.4456 80.9568 21.6903 80.9568 23.0212V23.4754Z" fill="#272D3D"/>
</svg>
