<svg width="196" height="73" viewBox="0 0 196 73" fill="none" xmlns="http://www.w3.org/2000/svg">
<rect width="196" height="73" fill=""/>
<g clip-path="url(#clip0_4385_1262)">
<path d="M32 36.0049V20.2997C32 18.4572 33.4135 17.0308 35.3203 17.0113C37.227 16.9919 39.1272 17.0113 41.029 17.0113C49.6856 17.0038 58.3443 17 67.0053 17C69.4732 17 70.8321 18.3293 70.8321 20.7611C70.8321 30.9312 70.8321 41.1007 70.8321 51.2696C70.8321 53.7128 69.5079 54.9935 66.9904 54.9935H35.6414C33.3092 54.9935 32 53.7209 32 51.4542V36.0049ZM56.7863 32.6161C56.462 32.794 56.1566 33.0028 55.8743 33.2395C54.7322 34.3356 53.6232 35.4625 52.5027 36.578C51.1874 37.8819 49.8731 39.1907 48.56 40.5043C47.4891 41.5778 47.7324 42.4132 49.232 42.8164C49.6574 42.9313 50.0878 43.0285 50.5131 43.1402C53.4461 43.8882 56.3758 44.6459 59.3121 45.3794C60.7107 45.7291 61.3446 45.0993 60.9954 43.749C60.8745 43.2794 60.7438 42.8115 60.6114 42.3436C59.8003 39.4864 58.9882 36.6287 58.1749 33.7705C58.0045 33.1666 57.7595 32.6388 56.7863 32.6161ZM41.6712 27.8074C41.6977 27.9208 41.7424 28.1588 41.8086 28.3919C42.7101 31.6139 43.6149 34.8348 44.5231 38.0546C44.9766 39.6559 45.8191 39.8551 47.0323 38.6553C49.28 36.4307 51.5228 34.2007 53.7606 31.9652C54.0199 31.7241 54.2653 31.4689 54.4955 31.201C55.1096 30.432 54.8994 29.6823 53.9807 29.3326C53.7465 29.2525 53.5077 29.1854 53.2657 29.1318L46.069 27.3104C45.1073 27.0675 44.154 26.7906 43.1857 26.5882C42.2174 26.3859 41.6679 26.8343 41.6712 27.8074Z" fill="white"/>
<path d="M165 46.4285C163.424 46.4285 161.887 46.4577 160.352 46.3962C160.137 46.3864 159.842 45.9703 159.746 45.6902C158.654 42.5217 157.595 39.3434 156.522 36.1684C156.44 35.8802 156.288 35.6161 156.077 35.3993C156.077 35.7118 156.067 36.0243 156.077 36.3351C156.193 39.3823 156.285 42.4294 156.451 45.4749C156.494 46.2844 156.237 46.4949 155.458 46.4464C154.413 46.3832 153.362 46.4172 152.313 46.4366C151.879 46.4447 151.651 46.346 151.651 45.8586C151.664 39.2204 151.67 32.5821 151.669 25.9438C151.688 25.8244 151.717 25.7068 151.757 25.5925C153.346 25.5925 154.963 25.5682 156.575 25.6249C156.759 25.6249 156.996 26.0588 157.09 26.3308C158.199 29.5512 159.283 32.778 160.377 36.0032C160.46 36.2949 160.614 36.5627 160.826 36.7836C160.675 33.0889 160.524 29.3941 160.37 25.6411H165.005L165 46.4285Z" fill="white"/>
<path d="M129.159 36.1344C131.32 36.6913 131.756 38.1275 131.779 39.8502C131.797 41.1973 131.858 42.5476 131.979 43.8979C132.052 44.7075 132.274 45.5057 132.454 46.4399H131.476C130.236 46.4399 128.993 46.414 127.754 46.4528C127.224 46.469 126.977 46.2796 126.939 45.7906C126.89 45.143 126.832 44.4953 126.813 43.8477C126.782 42.8245 126.813 41.7963 126.759 40.7714C126.621 38.5355 125.756 37.904 123.339 38.3218V46.3783H118.327V25.633C118.622 25.6168 118.864 25.586 119.104 25.5893C121.888 25.6281 124.682 25.531 127.451 25.7512C130.152 25.973 131.554 27.5791 131.807 30.2198C131.832 30.4886 131.868 30.7574 131.875 31.0294C131.93 33.1261 131.537 35.0221 129.159 36.1344ZM123.333 29.2662C123.333 30.6181 123.313 31.7774 123.333 32.9334C123.369 34.6464 122.934 34.4602 124.998 34.4457C126.117 34.4457 126.664 33.8401 126.83 32.5611C127.057 30.8173 126.648 29.7438 125.57 29.4961C124.89 29.3391 124.17 29.3455 123.329 29.2662H123.333Z" fill="white"/>
<path d="M134.911 35.7685C134.911 34.1494 134.881 32.5303 134.911 30.9112C134.98 27.7588 136.836 25.6168 140.042 25.2654C141.541 25.1025 143.058 25.1757 144.534 25.4824C146.652 25.9293 147.933 27.3994 148.399 29.4815C148.528 30.0886 148.594 30.7071 148.594 31.3273C148.614 34.2141 148.627 37.101 148.594 39.9878C148.584 40.9039 148.481 41.8167 148.286 42.7127C147.766 45.0572 146.242 46.4593 143.817 46.7443C142.508 46.9064 141.183 46.9108 139.873 46.7572C137.074 46.4091 135.419 44.8046 135.114 42.0619C134.882 39.9781 134.917 37.8652 134.833 35.7652L134.911 35.7685ZM143.517 35.9045C143.517 34.9864 143.539 34.0684 143.517 33.152C143.513 32.1291 143.453 31.1071 143.339 30.0903C143.231 29.3132 142.657 28.8711 141.832 28.842C141.008 28.8129 140.432 29.1836 140.21 29.9527C140.057 30.4703 139.975 31.0055 139.965 31.5443C139.942 34.4586 139.929 37.373 139.974 40.2873C140.001 40.9846 140.141 41.6733 140.389 42.3274C140.609 42.9378 141.185 43.2033 141.854 43.1774C142.523 43.1515 143.034 42.8147 143.211 42.1817C143.385 41.5873 143.484 40.9746 143.508 40.357C143.559 38.8739 143.522 37.3892 143.524 35.9045H143.517Z" fill="white"/>
<path d="M115.045 32.6469H109.984C109.936 31.8373 109.939 31.0569 109.833 30.2911C109.681 29.1982 109.156 28.7853 108.133 28.8339C107.084 28.8873 106.509 29.399 106.46 30.453C106.402 31.6932 106.422 32.9351 106.42 34.1769C106.42 36.578 106.405 38.9791 106.432 41.3802C106.446 42.6026 107.094 43.1871 108.279 43.1726C109.272 43.1612 109.831 42.7095 109.944 41.7364C110.025 41.0418 109.984 40.3343 110.045 39.6316C110.096 39.0325 109.879 38.7783 109.254 38.8528C108.935 38.8701 108.616 38.8701 108.297 38.8528V35.1224C110.449 35.1224 112.572 35.1127 114.688 35.1467C114.832 35.1467 115.091 35.4884 115.093 35.6729C115.118 39.073 115.106 42.4731 115.118 45.8732C115.118 46.346 114.911 46.4787 114.469 46.4642C113.835 46.4272 113.199 46.4299 112.566 46.4723C111.867 46.537 111.528 46.3103 111.533 45.6044C111.512 45.3693 111.468 45.1367 111.402 44.9098C111.298 44.9309 111.227 44.9244 111.198 44.9552C109.442 46.9402 107.203 47.5052 104.669 46.5743C102.615 45.8149 101.774 44.1731 101.493 42.2027C101.373 41.2386 101.322 40.2675 101.34 39.2965C101.34 36.3562 101.238 33.4062 101.451 30.4789C101.694 27.1484 103.331 25.5601 106.715 25.212C108.139 25.0858 109.575 25.1737 110.972 25.4727C113.15 25.9163 114.474 27.3589 114.835 29.5204C115.005 30.5259 114.981 31.5718 115.045 32.6469Z" fill="white"/>
<path d="M79.5036 29.8021V25.6362H90.9243C90.7257 27.3363 91.2239 29.0153 90.3516 30.6878C88.5309 34.1947 86.8327 37.7713 85.0881 41.3203C84.9623 41.5778 84.8597 41.8465 84.6843 42.2513H89.0175C91.1858 42.2513 91.1858 42.2513 91.1858 44.3399V46.38C90.8366 46.4026 90.5966 46.4302 90.3582 46.4302C86.8559 46.4302 83.3519 46.4188 79.8495 46.4447C79.2089 46.4447 79.0335 46.2828 78.9888 45.6352C78.8547 43.6923 79.2785 41.9501 80.2004 40.2129C81.8556 37.1026 83.332 33.9065 84.8829 30.7444C85.012 30.4821 85.1328 30.215 85.3298 29.8005L79.5036 29.8021Z" fill="white"/>
<path d="M93.5576 25.6378H98.5066V46.3622H93.5576V25.6378Z" fill="white"/>
</g>
<defs>
<clipPath id="clip0_4385_1262">
<rect width="133" height="38" fill="white" transform="translate(32 17)"/>
</clipPath>
</defs>
</svg>
