<svg width="27" height="27" viewBox="0 0 27 27" fill="none" xmlns="http://www.w3.org/2000/svg">
<path d="M12.8288 17.2408V16.9304C12.8288 11.6741 12.8288 6.41775 12.8288 1.16142C12.8238 1.00727 12.8403 0.853191 12.8776 0.703559C12.937 0.496596 13.0678 0.317381 13.2469 0.197751C13.4259 0.0781202 13.6415 0.0258191 13.8554 0.0501384C14.0697 0.0753318 14.2689 0.17331 14.4196 0.327696C14.5703 0.482082 14.6634 0.683521 14.6835 0.898343C14.6928 1.00388 14.6881 1.11098 14.6881 1.21729V17.313C14.8014 17.2044 14.8752 17.1376 14.945 17.067C16.4722 15.5413 17.9984 14.0151 19.5236 12.4884C19.7805 12.2308 20.0668 12.0833 20.4331 12.1477C20.5903 12.1772 20.7373 12.2466 20.8598 12.3494C20.9824 12.4521 21.0764 12.5847 21.1329 12.7343C21.1893 12.8839 21.2063 13.0456 21.1821 13.2037C21.158 13.3618 21.0935 13.511 20.995 13.6369C20.9262 13.7188 20.8526 13.7966 20.7746 13.8697C18.7082 15.9392 16.6409 18.0063 14.5725 20.071C13.9982 20.6453 13.5264 20.6461 12.9552 20.071C10.8651 17.9851 8.77553 15.8986 6.68645 13.8115C6.39622 13.5229 6.24178 13.2039 6.3644 12.7949C6.40672 12.6505 6.4838 12.5186 6.58889 12.4108C6.69399 12.303 6.82389 12.2227 6.96724 12.1767C7.11059 12.1308 7.26301 12.1207 7.41117 12.1473C7.55933 12.1739 7.69872 12.2364 7.81713 12.3293C7.89919 12.3977 7.97694 12.471 8.04994 12.5489C9.55027 14.0493 11.0493 15.5496 12.5471 17.0499C12.6167 17.1297 12.6807 17.2143 12.7387 17.3029L12.8288 17.2408Z" fill="black"/>
<path d="M2.6028 24.2042H24.9153V23.8938C24.9153 22.7996 24.9153 21.7056 24.9153 20.6119C24.9153 19.9911 25.2901 19.5728 25.8396 19.5697C26.389 19.5666 26.7708 19.9903 26.7708 20.6034C26.7708 21.7845 26.7708 22.9654 26.7708 24.146C26.7669 25.2712 25.9723 26.0744 24.8532 26.0752C17.455 26.0752 10.0584 26.0752 2.66333 26.0752C1.54506 26.0721 0.746526 25.2705 0.740317 24.1506C0.736178 22.9607 0.736178 21.7708 0.740317 20.5809C0.740317 19.988 1.12833 19.572 1.66613 19.572C2.20392 19.572 2.59737 19.9903 2.59737 20.5809C2.6028 21.7737 2.6028 22.9734 2.6028 24.2042Z" fill="black"/>
</svg>
