<svg width="31" height="31" viewBox="0 0 31 31" fill="none" xmlns="http://www.w3.org/2000/svg">
<path d="M30.8469 15.0302C30.8515 13.884 30.8562 12.7021 30.8515 11.5326C30.8445 9.61422 29.45 8.21736 27.5355 8.21193C26.858 8.21193 26.1806 8.21193 25.4899 8.21193H24.6549V4.27433C24.6549 2.38314 23.7648 1.2478 21.9388 0.80236C21.9324 0.796258 21.9257 0.790556 21.9186 0.785288L21.8876 0.76123H9.88231H9.8567C9.0861 0.93739 8.52426 1.21599 8.08735 1.6397C7.43703 2.27217 7.10179 3.01173 7.09092 3.83588C7.07695 4.79971 7.0785 5.77596 7.07928 6.7266C7.07928 7.13091 7.07928 7.53523 7.07928 7.94032V8.21115H6.8682C6.59659 8.21115 6.32498 8.21115 6.05336 8.21115C5.46436 8.21115 4.85517 8.21891 4.25762 8.20339C2.35556 8.15528 0.998282 9.56999 0.920679 10.9234C0.86946 11.888 0.978105 18.1521 1.01923 20.5097L1.02544 20.8473C1.02658 21.0184 1.06001 21.1877 1.124 21.3463C1.36205 21.9296 1.76643 22.43 2.28679 22.7852C2.80714 23.1404 3.42047 23.3346 4.05042 23.3438C4.69375 23.3531 5.34717 23.3508 5.97964 23.3492H6.83949H7.07928V24.7461C7.07928 25.6411 7.07928 26.5356 7.07928 27.4296C7.07928 28.7722 7.6776 29.8229 8.75551 30.3886C9.23473 30.634 9.76457 30.7642 10.3029 30.7689C10.7926 30.7774 11.5601 30.7813 12.4758 30.7813C15.4713 30.7813 20.0592 30.7417 21.7323 30.6944C22.4756 30.6794 23.1846 30.3787 23.712 29.8547C24.2846 29.2904 24.616 28.5259 24.6363 27.7222C24.6549 26.7692 24.6526 25.8 24.6502 24.8625C24.6502 24.4486 24.6502 24.0347 24.6502 23.6209V23.3438H25.6924C26.3063 23.3438 26.9209 23.3438 27.534 23.3438C28.4714 23.3438 29.3188 23.0016 29.9249 22.3885C30.531 21.7754 30.8608 20.9094 30.85 19.9603C30.8329 18.3174 30.8399 16.6466 30.8469 15.0302ZM24.6549 17.7928C24.6549 17.4716 24.5866 17.2543 24.4407 17.1092C24.2948 16.964 24.0822 16.8988 23.7671 16.8988H23.7586C17.8607 16.9198 12.7016 16.9198 7.98026 16.8988C7.66053 16.8988 7.44402 16.964 7.29812 17.1084C7.15223 17.2527 7.08394 17.4716 7.08394 17.7944C7.08394 18.707 7.08394 19.6196 7.08394 20.5322V21.86C6.77352 21.86 6.47242 21.8647 6.17598 21.8686C5.4046 21.8794 4.67513 21.8887 3.93867 21.8461C2.99269 21.7917 2.35556 21.0607 2.35168 20.0294C2.3478 18.6767 2.35168 17.3008 2.35168 15.9707C2.35168 15.4016 2.35168 14.8341 2.35168 14.2681V13.4471C2.35168 12.8262 2.35168 12.2077 2.35168 11.5916C2.35168 10.4135 3.07883 9.68174 4.2421 9.68174H13.6251H27.4657C28.6926 9.68174 29.3708 10.4485 29.3755 11.8352C29.3856 14.7166 29.3833 17.2675 29.3677 19.6437C29.3577 21.0786 28.6895 21.8709 27.4843 21.8748C26.8185 21.8748 26.1526 21.8748 25.4705 21.8748H24.6549V20.5361C24.6549 19.622 24.6549 18.7075 24.6549 17.7928ZM21.3358 2.23569C21.8241 2.23794 22.2917 2.43279 22.6371 2.7779C22.9825 3.12302 23.1778 3.59051 23.1804 4.07877C23.1804 4.99967 23.1804 5.9203 23.1804 6.84068V8.19641H8.54676V6.84456C8.54676 5.92573 8.54676 5.00665 8.54676 4.08731C8.54909 2.97991 9.28244 2.23569 10.3759 2.23569C13.8998 2.22716 17.4859 2.22716 21.3358 2.23569ZM23.1843 21.1709C23.1843 23.2528 23.1843 25.3343 23.1843 27.4157C23.1843 28.6511 22.392 29.2843 20.8314 29.2983C17.7505 29.3263 14.3949 29.3286 10.857 29.3053C9.32435 29.2952 8.54676 28.6511 8.54676 27.3916V18.395H23.1843V21.1709Z" fill="black"/>
<path d="M11.6671 23.111C11.5956 23.108 11.524 23.1103 11.4529 23.118C11.262 23.1367 11.0863 23.2304 10.9645 23.3785C10.8427 23.5267 10.7847 23.7171 10.8033 23.908C10.8321 24.3201 11.137 24.577 11.5988 24.5785C12.455 24.5816 13.311 24.5816 14.1667 24.5785H17.7853C18.178 24.5785 18.5761 24.5785 18.9695 24.5715C19.0648 24.5727 19.1593 24.5549 19.2476 24.5192C19.336 24.4835 19.4163 24.4306 19.484 24.3636C19.5517 24.2966 19.6055 24.2168 19.6421 24.1289C19.6788 24.041 19.6976 23.9466 19.6975 23.8514C19.6971 23.6607 19.6234 23.4775 19.4916 23.3397C19.3599 23.2019 19.1802 23.12 18.9897 23.111C18.9346 23.111 18.8811 23.111 18.8299 23.111H11.6671Z" fill="black"/>
<path d="M11.6074 27.3055C12.4646 27.3055 13.3219 27.3055 14.1791 27.3055H17.8451C17.9561 27.3055 18.0632 27.3055 18.1718 27.3055H18.4923C18.6545 27.3055 18.8183 27.3055 18.9805 27.2977C19.1722 27.2929 19.3544 27.2133 19.4884 27.0761C19.6223 26.9388 19.6974 26.7546 19.6975 26.5628C19.6975 26.1678 19.3941 25.8644 18.9789 25.8365C18.9013 25.8318 18.8237 25.8326 18.7461 25.8326H11.7416C11.643 25.8299 11.5442 25.833 11.4459 25.8419C11.266 25.8573 11.0988 25.9411 10.9788 26.0761C10.8589 26.2111 10.7952 26.387 10.8011 26.5675C10.8026 27.009 11.1262 27.3016 11.6074 27.3055Z" fill="black"/>
<path d="M11.5947 21.8507C11.7421 21.8507 11.8911 21.8554 12.0393 21.8554H12.3785H13.9554C14.421 21.8321 14.7314 21.538 14.7423 21.1251C14.7449 21.0309 14.7288 20.9372 14.695 20.8493C14.6612 20.7614 14.6102 20.681 14.5451 20.6129C14.4651 20.5351 14.3703 20.474 14.2664 20.4331C14.1625 20.3922 14.0515 20.3723 13.9398 20.3747C13.1289 20.3662 12.3366 20.3662 11.5854 20.3747C11.1197 20.3793 10.8093 20.6719 10.8016 21.1026C10.7938 21.5333 11.1151 21.8391 11.5947 21.8507Z" fill="black"/>
</svg>
