<svg width="24" height="31" viewBox="0 0 24 31" fill="none" xmlns="http://www.w3.org/2000/svg">
<path d="M21.7141 0.973653C22.7454 1.24759 23.1497 2.2673 23.2173 3.32736C23.2227 3.41428 23.2219 3.50119 23.2219 3.58811C23.2219 11.7592 23.2219 19.9298 23.2219 28.0999C23.2219 29.3322 22.5235 30.1952 21.3447 30.3853C20.6051 30.5056 19.9672 30.2689 19.438 29.7428C18.3515 28.6625 17.2677 27.5813 16.1864 26.4989C15.1636 25.4792 14.141 24.4595 13.1187 23.4398C12.4552 22.7794 11.652 22.7802 10.9893 23.4398C8.88883 25.5341 6.78785 27.6281 4.68635 29.7218C3.77917 30.6259 2.42034 30.6468 1.52945 29.7847C1.07004 29.3385 0.883789 28.7859 0.883789 28.155C0.883789 26.4995 0.883789 24.8439 0.883789 23.1884C0.883789 16.6444 0.883789 10.0998 0.883789 3.55474C0.883789 2.23548 1.55816 1.05203 2.76412 0.813014C3.38495 0.688849 7.2721 0.825431 11.3672 0.833191C15.9699 0.842504 20.8418 0.742395 21.7141 0.973653ZM2.63064 15.7959V27.9641C2.63064 28.0611 2.62521 28.1589 2.63064 28.2551C2.66867 28.6028 2.97908 28.7758 3.28949 28.609C3.39621 28.5429 3.49313 28.4622 3.5774 28.3692C5.61759 26.3313 7.69736 24.3222 9.69953 22.2416C10.9683 20.9224 13.1366 20.9177 14.4163 22.2486C16.4231 24.3377 18.5075 26.3531 20.557 28.401C20.7425 28.5865 20.9287 28.7533 21.2174 28.6292C21.4867 28.5128 21.4758 28.273 21.4758 28.037C21.4758 19.8954 21.4758 11.7541 21.4758 3.61294C21.4758 2.77948 21.1049 2.41164 20.2668 2.41164H3.85212C2.99848 2.41164 2.63064 2.77405 2.63064 3.62924V15.7959Z" fill="black"/>
</svg>
