<svg width="31" height="32" viewBox="0 0 31 32" fill="none" xmlns="http://www.w3.org/2000/svg">
<path d="M27.1329 0.581223C29.1816 1.52876 30.4543 3.8297 30.2238 6.05381C29.9786 8.42382 28.3427 10.3887 26.1031 10.9428C23.9838 11.4659 22.1453 10.9257 20.6127 9.3698C20.5573 9.30532 20.5067 9.23685 20.4613 9.16493C20.3302 9.24253 20.2409 9.28677 20.1548 9.33876C17.2804 11.0631 14.4052 12.7872 11.5292 14.511C11.3065 14.6445 11.263 14.7547 11.3507 14.996C11.7019 15.9633 11.7535 17.0139 11.4989 18.0109C11.4361 18.2694 11.4912 18.3889 11.7317 18.5099C14.4344 19.8794 17.1342 21.2568 19.8312 22.6423C19.9406 22.6982 20.0524 22.7494 20.1843 22.813C21.322 21.3743 22.7988 20.5889 24.6372 20.5625C25.9758 20.5431 27.174 20.9816 28.2069 21.8313C30.2859 23.5386 30.8524 26.538 29.5425 28.8351C28.1456 31.2865 25.3108 32.321 22.6614 31.3284C20.251 30.4244 18.4367 27.6733 19.3244 24.4722L10.6212 20.0209C9.43933 21.5504 7.90512 22.3614 5.97512 22.342C4.50066 22.3272 3.22175 21.7654 2.16247 20.7364C0.0966673 18.7319 -0.0212897 15.3553 1.82334 13.1677C3.71066 10.9281 7.71421 10.2459 10.2961 13.0901L19.4292 7.60433C19.3314 7.13871 19.2088 6.69326 19.1475 6.23928C18.7502 3.29036 20.8657 0.453953 23.8146 0.0550721C24.4905 -0.0380519 25.6033 -0.0931503 27.1329 0.581223ZM28.3862 5.58043C28.39 4.84558 28.1759 4.12609 27.771 3.51287C27.3661 2.89964 26.7885 2.42018 26.1112 2.13508C25.4339 1.84998 24.6873 1.77203 23.9657 1.91108C23.2441 2.05012 22.5799 2.39992 22.0571 2.91628C21.5342 3.43264 21.1761 4.09239 21.0281 4.81218C20.88 5.53196 20.9486 6.27948 21.2252 6.9603C21.5018 7.64111 21.974 8.22466 22.5821 8.63722C23.1902 9.04979 23.907 9.27285 24.6418 9.27823C25.6284 9.2834 26.5768 8.89695 27.2787 8.20369C27.9807 7.51044 28.379 6.56701 28.3862 5.58043ZM6.07833 20.4927C6.81311 20.4931 7.53153 20.2758 8.14281 19.8681C8.7541 19.4604 9.2308 18.8806 9.5127 18.2021C9.79459 17.5235 9.86902 16.7766 9.72657 16.0558C9.58413 15.335 9.2312 14.6725 8.7124 14.1522C8.19359 13.6319 7.53219 13.277 6.81178 13.1325C6.09136 12.9879 5.34426 13.0602 4.66489 13.3401C3.98552 13.62 3.40437 14.095 2.99488 14.7051C2.58538 15.3152 2.36593 16.033 2.36424 16.7677C2.36423 17.7538 2.75519 18.6996 3.45141 19.3978C4.14763 20.0961 5.0923 20.4898 6.07833 20.4927ZM28.3862 26.129C28.3856 25.3941 28.1671 24.6759 27.7585 24.0651C27.3498 23.4543 26.7693 22.9783 26.0903 22.6974C25.4112 22.4164 24.6641 22.343 23.9433 22.4864C23.2226 22.6299 22.5605 22.9838 22.0408 23.5034C21.5211 24.023 21.1671 24.685 21.0235 25.4057C20.8799 26.1264 20.9531 26.8736 21.2339 27.5527C21.5148 28.2318 21.9906 28.8124 22.6013 29.2212C23.212 29.63 23.9302 29.8486 24.6651 29.8493C25.6516 29.8483 26.5973 29.456 27.2949 28.7586C27.9925 28.0611 28.385 27.1155 28.3862 26.129Z" fill="black"/>
</svg>
